<?xml version="1.0" encoding="utf-8"?>
<!-- Generator: Adobe Illustrator 16.0.0, SVG Export Plug-In . SVG Version: 6.00 Build 0)  -->
<!DOCTYPE svg PUBLIC "-//W3C//DTD SVG 1.1//EN" "http://www.w3.org/Graphics/SVG/1.1/DTD/svg11.dtd">
<svg version="1.1" id="Layer_1" xmlns="http://www.w3.org/2000/svg" xmlns:xlink="http://www.w3.org/1999/xlink" x="0px" y="0px"
	 width="500px" height="116.261px" viewBox="0 0 500 116.261" enable-background="new 0 0 500 116.261" xml:space="preserve">
<g>
	<path fill="#010101" d="M14.839,107.324v1.262c0,1.859-0.523,3.142-1.58,3.846c-1.052,0.707-2.702,1.066-4.936,1.066
		c-1.427,0-3.202-0.146-5.306-0.434v-2.173c2.104,0.448,3.927,0.675,5.466,0.675c1.234,0,2.178-0.141,2.831-0.417
		c0.653-0.272,0.979-0.837,0.979-1.677v-2.254c0-0.737-0.209-1.254-0.628-1.566c-0.423-0.313-1.178-0.475-2.271-0.475H7.355
		c-1.749,0-2.966-0.342-3.66-1.061c-0.686-0.705-1.031-1.74-1.031-3.125v-1.391c0-1.383,0.493-2.396,1.466-3.057
		c0.972-0.67,2.766-1,5.374-1c1.251,0,2.746,0.104,4.481,0.303v1.955c-1.984-0.307-3.54-0.446-4.668-0.446
		c-1.664,0-2.767,0.157-3.306,0.491c-0.55,0.326-0.824,0.88-0.824,1.682v1.979c0,0.602,0.214,1.054,0.646,1.324
		c0.427,0.276,1.189,0.418,2.275,0.418h2.095c1.808,0,3.031,0.316,3.677,0.979C14.516,104.884,14.839,105.916,14.839,107.324z"/>
	<path fill="#010101" d="M43.484,100.509v8.267c0,0.949-0.228,1.749-0.681,2.407c-0.458,0.674-1.08,1.148-1.866,1.459
		c-0.787,0.318-1.568,0.535-2.335,0.664c-0.765,0.121-1.6,0.191-2.496,0.191c-4.859,0-7.293-1.574-7.293-4.723v-8.242
		c0-3.316,2.435-4.986,7.293-4.986C41.022,95.546,43.484,97.207,43.484,100.509z M40.966,108.746v-8.289
		c0-2.141-1.613-3.217-4.831-3.217c-0.677,0-1.28,0.045-1.799,0.125c-0.515,0.077-1.015,0.229-1.5,0.457
		c-0.483,0.221-0.858,0.555-1.13,1c-0.266,0.418-0.394,0.98-0.394,1.635v8.289c0,2.01,1.612,3.006,4.851,3.006
		C39.36,111.751,40.966,110.755,40.966,108.746z"/>
	<path fill="#010101" d="M71.833,95.82v12.955c0,3.148-2.274,4.723-6.813,4.723c-0.912,0-1.726-0.063-2.435-0.18
		c-0.718-0.126-1.427-0.328-2.122-0.65c-0.701-0.299-1.246-0.789-1.637-1.455c-0.394-0.664-0.587-1.469-0.587-2.438V95.82h2.491
		v12.926c0,1.146,0.379,1.934,1.153,2.36c0.769,0.438,1.831,0.646,3.192,0.646c1.355,0,2.404-0.205,3.149-0.646
		c0.742-0.429,1.108-1.214,1.108-2.36V95.82H71.833z"/>
	<path fill="#010101" d="M100.395,113.229h-3.189l-4.996-7.435h-2.515v7.435h-2.601V95.82h6.116c2.177,0,3.742,0.213,4.693,0.657
		c0.944,0.444,1.419,1.354,1.419,2.745v3.005c0,1.071-0.436,1.882-1.314,2.433c-0.878,0.543-1.937,0.821-3.193,0.821
		L100.395,113.229z M96.72,101.908v-2.414c0-1.307-1.126-1.955-3.38-1.955h-3.645v6.551h3.402c1.234,0,2.153-0.156,2.734-0.467
		C96.427,103.316,96.72,102.748,96.72,101.908z"/>
	<path fill="#010101" d="M125.899,112.99c-1.548,0.338-3.179,0.508-4.878,0.508c-4.886,0-7.321-1.574-7.321-4.723v-8.266
		c0-3.318,2.436-4.992,7.321-4.992c1.621,0,3.217,0.18,4.773,0.516v1.934c-1.717-0.428-3.29-0.649-4.717-0.649
		c-0.683,0-1.285,0.05-1.802,0.126c-0.52,0.079-1.026,0.227-1.527,0.432c-0.5,0.205-0.886,0.527-1.153,0.963
		c-0.266,0.441-0.403,0.984-0.403,1.648v8.156c0,2.002,1.661,3.001,4.991,3.001c1.426,0,3-0.216,4.716-0.638V112.99z"/>
	<rect x="140.088" y="95.82" fill="#010101" width="2.602" height="17.409"/>
	<polygon fill="#010101" points="172.808,113.229 169.67,113.229 160.205,98.615 160.205,113.229 157.923,113.229 157.923,95.82 
		161.059,95.82 170.53,110.195 170.53,95.82 172.808,95.82 	"/>
	<path fill="#010101" d="M201.934,112.69c-2.321,0.539-4.459,0.808-6.406,0.808c-0.738,0-1.429-0.029-2.086-0.098
		c-0.649-0.066-1.346-0.208-2.104-0.395c-0.747-0.215-1.394-0.479-1.944-0.811c-0.544-0.332-0.995-0.796-1.354-1.371
		c-0.355-0.604-0.532-1.287-0.532-2.05v-8.241c0-1.004,0.265-1.879,0.79-2.588c0.524-0.705,1.234-1.209,2.132-1.537
		c0.892-0.324,1.737-0.543,2.546-0.677c0.806-0.114,1.656-0.187,2.552-0.187c2.14,0,4.148,0.15,6.002,0.437v2.005
		c-0.677-0.154-1.651-0.307-2.917-0.441c-1.274-0.125-2.279-0.188-3.033-0.188c-3.666,0-5.5,1.051-5.5,3.152v8.217
		c0,0.585,0.177,1.082,0.524,1.514c0.347,0.418,0.823,0.734,1.423,0.934c0.596,0.207,1.188,0.349,1.77,0.429
		c0.582,0.081,1.209,0.125,1.888,0.125c1.201,0,2.474-0.16,3.838-0.489v-6.086h-4.08v-1.826h6.491V112.69L201.934,112.69z"/>
	<path fill="#010101" d="M245.057,107.324v1.262c0,1.859-0.524,3.142-1.58,3.846c-1.057,0.707-2.7,1.066-4.934,1.066
		c-1.431,0-3.202-0.146-5.315-0.434v-2.173c2.113,0.448,3.936,0.675,5.477,0.675c1.234,0,2.176-0.141,2.83-0.417
		c0.653-0.272,0.976-0.837,0.976-1.677v-2.254c0-0.737-0.209-1.254-0.629-1.566c-0.421-0.313-1.178-0.475-2.267-0.475h-2.04
		c-1.75,0-2.971-0.342-3.661-1.061c-0.685-0.705-1.032-1.74-1.032-3.125v-1.391c0-1.383,0.488-2.396,1.461-3.057
		c0.974-0.67,2.771-1,5.378-1c1.25,0,2.749,0.104,4.475,0.303v1.955c-1.976-0.307-3.541-0.446-4.662-0.446
		c-1.661,0-2.764,0.157-3.314,0.491c-0.54,0.326-0.814,0.88-0.814,1.682v1.979c0,0.602,0.21,1.054,0.645,1.324
		c0.428,0.276,1.187,0.418,2.278,0.418h2.093c1.808,0,3.024,0.316,3.67,0.979C244.735,104.884,245.057,105.916,245.057,107.324z"/>
	<rect x="259.518" y="95.82" fill="#010101" width="2.597" height="17.409"/>
	<polygon fill="#010101" points="295.929,113.229 293.661,113.229 293.661,98.503 293.521,98.503 287.917,113.229 285.587,113.229 
		279.813,98.503 279.686,98.503 279.686,113.229 277.343,113.229 277.343,95.82 281.239,95.82 286.821,110.302 286.898,110.328 
		292.182,95.82 295.929,95.82 	"/>
	<path fill="#010101" d="M322.993,99.248v3.629c0,1.479-0.57,2.535-1.724,3.152c-1.155,0.616-2.791,0.92-4.896,0.92h-2.604v6.28
		h-2.605V95.82h5.693c0.711,0,1.332,0.016,1.854,0.049c0.519,0.037,1.058,0.121,1.646,0.26c0.573,0.133,1.051,0.32,1.396,0.563
		c0.346,0.238,0.635,0.58,0.885,1.008C322.88,98.132,322.993,98.648,322.993,99.248z M320.454,102.744v-3.168
		c0-0.482-0.131-0.887-0.381-1.191c-0.25-0.313-0.603-0.535-1.07-0.656c-0.469-0.124-0.854-0.206-1.17-0.229
		c-0.314-0.029-0.701-0.041-1.162-0.041h-2.926v7.852h2.975c1.033,0,1.918-0.188,2.646-0.58
		C320.081,104.355,320.454,103.686,320.454,102.744z"/>
	<polygon fill="#010101" points="348.339,113.229 337.188,113.229 337.188,95.82 339.79,95.82 339.79,111.4 348.339,111.4 	"/>
	<rect x="361.854" y="95.82" fill="#010101" width="2.612" height="17.409"/>
	<polygon fill="#010101" points="391.655,97.648 382.288,97.648 382.288,103.324 390.771,103.324 390.771,105.151 382.288,105.151 
		382.288,113.229 379.689,113.229 379.689,95.82 391.655,95.82 	"/>
	<rect x="405.438" y="95.82" fill="#010101" width="2.606" height="17.409"/>
	<polygon fill="#010101" points="435.243,113.229 423.273,113.229 423.273,95.82 434.968,95.82 434.968,97.648 425.878,97.648 
		425.878,103.324 434.079,103.324 434.079,105.151 425.878,105.151 425.878,111.4 435.243,111.4 	"/>
	<path fill="#010101" d="M463.804,100.804v7.705c0,3.142-2.434,4.721-7.307,4.721h-6.943V95.82h6.92
		C461.358,95.82,463.804,97.479,463.804,100.804z M461.304,108.453v-7.67c0-0.662-0.129-1.213-0.401-1.648
		c-0.267-0.444-0.646-0.758-1.14-0.973c-0.483-0.195-1-0.34-1.516-0.426c-0.521-0.076-1.121-0.111-1.789-0.111h-4.299v13.826h4.16
		C459.636,111.451,461.304,110.46,461.304,108.453z"/>
	<path fill="#010101" d="M480.563,95.82l-0.943,12.604h-1.346L477.33,95.82H480.563z M480.499,113.229h-3.104v-2.901h3.104V113.229z
		"/>
	<path fill="#DB3236" d="M19.039,77.152H1.43V3.889h17.609V77.152z M70.625,77.152H49.182L19.488,38.325L46.924,3.889H67.58
		L39.811,37.983L70.625,77.152z"/>
	<path fill="#DB3236" d="M144.123,24.999v32.059c0,4.145-1.103,7.678-3.281,10.609c-2.187,2.943-5.113,5.144-8.803,6.609
		c-3.689,1.475-7.376,2.51-11.06,3.109c-3.691,0.592-7.601,0.89-11.743,0.89c-3.912,0-7.583-0.239-11.004-0.724
		c-3.43-0.484-7.08-1.408-10.956-2.768c-3.875-1.357-6.959-3.533-9.25-6.551c-2.301-3.009-3.441-6.732-3.441-11.178V24.999
		c0-3.758,0.841-7.072,2.536-9.931c1.688-2.863,3.722-5.045,6.097-6.551c2.371-1.505,5.243-2.729,8.629-3.671
		c3.388-0.937,6.397-1.517,9.031-1.745c2.636-0.229,5.425-0.338,8.358-0.338c3.009,0,5.851,0.108,8.522,0.338
		c2.67,0.229,5.704,0.809,9.087,1.745c3.383,0.941,6.284,2.166,8.692,3.671c2.41,1.506,4.441,3.671,6.092,6.489
		C143.289,17.831,144.123,21.156,144.123,24.999z M126.504,57.058V24.887c0-3.529-1.45-6.014-4.346-7.447
		c-2.891-1.429-7.163-2.149-12.813-2.149c-5.718,0-10.009,0.701-12.864,2.091c-2.863,1.392-4.292,3.893-4.292,7.506v32.171
		c0,1.886,0.487,3.446,1.472,4.687c0.975,1.25,2.384,2.133,4.229,2.658c1.845,0.523,3.612,0.873,5.304,1.073
		c1.691,0.185,3.785,0.276,6.268,0.276s4.566-0.094,6.268-0.276c1.691-0.2,3.44-0.55,5.25-1.073c1.8-0.525,3.174-1.408,4.117-2.658
		C126.037,60.505,126.504,58.942,126.504,57.058z"/>
	<path fill="#DB3236" d="M217.944,49.501v11.288c0,6.09-2.446,10.348-7.338,12.764c-4.888,2.4-12.156,3.602-21.78,3.602H158.34
		V3.889h29.693c10.385,0,17.418,1.167,21.111,3.501c3.684,2.338,5.529,6.4,5.529,12.192v9.033c0,2.109-0.829,4.066-2.483,5.872
		c-1.664,1.805-3.542,3.004-5.647,3.612v0.563c2.708,0.301,5.288,1.503,7.735,3.608C216.719,44.384,217.944,46.788,217.944,49.501z
		 M197.743,26.357v-3.609c0-2.411-0.567-4.067-1.7-4.971c-1.125-0.904-3.909-1.354-8.352-1.354h-11.742v17.273h12.083
		c4.134,0,6.788-0.53,7.958-1.586C197.159,31.061,197.743,29.141,197.743,26.357z M200.335,58.418v-5.873
		c0-2.711-0.691-4.628-2.084-5.757c-1.397-1.13-3.859-1.693-7.401-1.693h-14.901v19.542h12.535c4.287,0,7.333-0.502,9.142-1.485
		C199.43,62.175,200.335,60.602,200.335,58.418z"/>
	<path fill="#DB3236" d="M286.241,51.418v4.85c0,4.368-0.793,8.042-2.38,11.008c-1.573,2.97-3.915,5.235-6.989,6.778
		c-3.095,1.549-6.46,2.633-10.106,3.273c-3.654,0.641-7.994,0.948-13.035,0.948c-7.001,0-15.656-0.674-25.97-2.032V62.822
		c12.5,1.955,21.226,2.93,26.194,2.93c9.781,0,14.667-2.524,14.667-7.56v-4.746c0-2.186-0.634-3.967-1.917-5.362
		c-1.273-1.391-3.835-2.088-7.667-2.088h-8.583c-16.106,0-24.156-6.396-24.156-19.189v-5.416c0-6.322,2.654-11.01,7.959-14.056
		c5.304-3.05,13.788-4.571,25.455-4.571c5.643,0,13.285,0.491,22.92,1.467v13.093c-11.451-1.354-19.269-2.033-23.486-2.033
		c-5.791,0-9.782,0.491-11.966,1.471c-2.183,0.984-3.275,2.637-3.275,4.971v5.193c0,3.832,3.243,5.758,9.708,5.758h8.81
		c8.576,0,14.691,1.575,18.345,4.733C284.413,40.58,286.241,45.242,286.241,51.418z"/>
	<polygon fill="#DB3236" points="354.31,16.423 331.841,16.423 331.841,77.152 314.233,77.152 314.233,16.423 291.657,16.423 
		291.657,3.889 354.31,3.889 	"/>
	<polygon fill="#DB3236" points="421.474,77.152 364.468,77.152 364.468,3.889 420.341,3.889 420.341,16.423 382.079,16.423 
		382.079,33.242 416.622,33.242 416.622,45.774 382.079,45.774 382.079,64.636 421.474,64.636 	"/>
	<path fill="#DB3236" d="M498.569,77.152h-20.318l-19.187-28.785h-8.122v28.785h-17.617V3.889h32.969
		c9.615,0,16.666,1.167,21.101,3.501c4.44,2.338,6.668,6.32,6.668,11.967v12.868c0,4.445-1.607,7.862-4.804,10.274
		c-3.196,2.409-7.166,3.913-11.897,4.519L498.569,77.152z M476.786,28.724v-5.192c0-2.707-0.812-4.57-2.426-5.587
		c-1.615-1.014-4.384-1.521-8.302-1.521h-15.116v20.318h15.116c4.144,0,6.959-0.546,8.468-1.638
		C476.034,34.012,476.786,31.882,476.786,28.724z"/>
	<polygon fill="#010101" points="491.808,96.662 490.032,96.662 490.032,101.529 488.915,101.529 488.915,96.662 487.155,96.662 
		487.155,95.697 491.808,95.697 	"/>
	<polygon fill="#010101" points="498.569,101.529 497.526,101.529 497.526,99.119 497.55,96.826 496.091,101.529 495.075,101.529 
		493.593,96.826 493.624,99.119 493.624,101.529 492.571,101.529 492.571,95.697 494.183,95.697 495.567,100.231 496.952,95.697 
		498.569,95.697 	"/>
</g>
</svg>
