<svg xmlns="http://www.w3.org/2000/svg" width="249.7" height="56.7" viewBox="0 0 249.7 56.7"><path d="M15.8 46.5v.6c0 .9-.2 1.5-.7 1.8s-1.3.5-2.3.5c-.7 0-1.5-.1-2.5-.2v-1c1 .2 1.8.3 2.5.3.6 0 1-.1 1.3-.2.4-.2.6-.4.6-.8v-1c0-.3-.1-.6-.3-.7-.2-.2-.6-.3-1.1-.3h-.9c-.8 0-1.4-.2-1.7-.5s-.5-.8-.5-1.4V43c0-.6.2-1.1.7-1.4.5-.3 1.3-.5 2.5-.5.6 0 1.3 0 2.1.1v.9c-.9-.1-1.6-.2-2.2-.2-.8 0-1.3.1-1.5.2-.3.2-.4.4-.4.8v.9c0 .3.1.5.3.6s.6.2 1.1.2h1c.8 0 1.4.1 1.7.5.2.3.3.7.3 1.4zM29.1 43.3v3.8c0 .4-.1.8-.3 1.1-.2.3-.5.5-.9.7-.4.1-.7.2-1.1.3s-.7.1-1.2.1c-2.3 0-3.4-.7-3.4-2.2v-3.8c0-1.5 1.1-2.3 3.4-2.3 2.4 0 3.5.8 3.5 2.3zm-1.2 3.8v-3.8c0-1-.7-1.5-2.2-1.5-.3 0-.6 0-.8.1-.2 0-.5.1-.7.2-.2.1-.4.3-.5.5-.2.1-.2.4-.2.7v3.8c0 .9.7 1.4 2.2 1.4s2.2-.4 2.2-1.4zM42.2 41.2v6c0 1.5-1.1 2.2-3.2 2.2-.4 0-.8 0-1.1-.1-.3-.1-.7-.2-1-.3s-.6-.4-.8-.7-.3-.7-.3-1.1v-6H37v6c0 .5.2.9.5 1.1.4.2.8.3 1.5.3.6 0 1.1-.1 1.5-.3.3-.2.5-.6.5-1.1v-6h1.2zM55.5 49.2H54l-2.3-3.4h-1.2v3.4h-1.2v-8.1h2.8c1 0 1.7.1 2.2.3.4.2.7.6.7 1.3v1.4c0 .5-.2.9-.6 1.1-.4.3-.9.4-1.5.4l2.6 3.6zM53.8 44v-1.1c0-.6-.5-.9-1.6-.9h-1.7v3h1.6c.6 0 1-.1 1.3-.2.2-.2.4-.4.4-.8zM67.3 49.1c-.7.2-1.5.2-2.3.2-2.3 0-3.4-.7-3.4-2.2v-3.8c0-1.5 1.1-2.3 3.4-2.3.7 0 1.5.1 2.2.2v.9c-.8-.2-1.5-.3-2.2-.3-.3 0-.6 0-.8.1-.2 0-.5.1-.7.2-.2.1-.4.2-.5.4s-.2.5-.2.8v3.8c0 .9.8 1.4 2.3 1.4.7 0 1.4-.1 2.2-.3v.9zM73.8 41.2H75v8.1h-1.2v-8.1zM89 49.2h-1.5l-4.4-6.7v6.7h-1v-8h1.4l4.4 6.6v-6.6H89v8zM102.5 49c-1.1.2-2.1.4-3 .4h-1c-.3 0-.6-.1-1-.2-.3-.1-.6-.2-.9-.4s-.5-.4-.6-.6c-.2-.3-.2-.6-.2-.9v-3.8c0-.5.1-.9.4-1.2.2-.3.6-.6 1-.7.4-.2.8-.3 1.2-.3.4-.1.8-.1 1.2-.1 1 0 1.9.1 2.8.2v.9c-.3-.1-.8-.1-1.4-.2-.6-.1-1.1-.1-1.4-.1-1.7 0-2.5.5-2.5 1.5v3.8c0 .3.1.5.2.7.2.2.4.3.7.4.3.1.6.2.8.2.3 0 .6.1.9.1.6 0 1.1-.1 1.8-.2v-3h-2v-.8h3V49zM122.4 46.5v.6c0 .9-.2 1.5-.7 1.8s-1.3.5-2.3.5c-.7 0-1.5-.1-2.5-.2v-1c1 .2 1.8.3 2.5.3.6 0 1-.1 1.3-.2.3-.1.5-.4.5-.8v-1c0-.3-.1-.6-.3-.7-.2-.1-.5-.2-1-.2h-.9c-.8 0-1.4-.2-1.7-.5-.3-.3-.5-.8-.5-1.4v-.6c0-.6.2-1.1.7-1.4.5-.3 1.3-.5 2.5-.5.6 0 1.3 0 2.1.1v.9c-.9-.1-1.6-.2-2.2-.2-.8 0-1.3.1-1.5.2-.2.2-.4.4-.4.8v.9c0 .3.1.5.3.6.2.1.5.2 1.1.2h1c.8 0 1.4.1 1.7.5.2.2.3.6.3 1.3zM129.1 41.2h1.2v8.1h-1.2v-8.1zM146 49.2h-1v-6.8h-.1l-2.6 6.8h-1.1l-2.7-6.8v6.8h-1.1v-8h1.8l2.6 6.7 2.5-6.7h1.7v8zM158.5 42.7v1.7c0 .7-.3 1.2-.8 1.5s-1.3.4-2.3.4h-1.2v2.9H153v-8.1h3.5c.2 0 .5.1.8.1.3.1.5.1.6.3.2.1.3.3.4.5.2.2.2.5.2.7zm-1.1 1.7v-1.5c0-.2-.1-.4-.2-.6-.1-.1-.3-.2-.5-.3s-.4-.1-.5-.1h-1.9v3.6h1.4c.5 0 .9-.1 1.2-.3.3-.1.5-.4.5-.8zM170.3 49.2h-5.2v-8h1.2v7.2h4v.8zM176.5 41.2h1.2v8.1h-1.2v-8.1zM190.3 42H186v2.6h3.9v.9H186v3.7h-1.2v-8h5.5v.8zM196.7 41.2h1.2v8.1h-1.2v-8.1zM210.5 49.2H205v-8h5.4v.8h-4.2v2.6h3.8v.9h-3.8v2.9h4.3v.8zM223.7 43.5v3.6c0 1.5-1.1 2.2-3.4 2.2h-3.2v-8.1h3.2c2.3 0 3.4.7 3.4 2.3zm-1.1 3.5v-3.5c0-.3-.1-.6-.2-.8-.1-.2-.3-.4-.5-.5s-.5-.2-.7-.2-.5-.1-.8-.1h-2v6.4h1.9c1.5.1 2.3-.4 2.3-1.3zM231.5 41.2l-.4 5.8h-.6l-.4-5.8h1.4zm0 8h-1.4v-1.3h1.4v1.3z"/><path fill="#DB3236" d="M15.6 31.7H9.8v-24h5.8v24zm16.8 0h-7L15.7 19l9-11.3h6.8l-9.1 11.1 10 12.9zM56.5 14.6v10.5c0 1.4-.4 2.5-1.1 3.5-.7 1-1.7 1.7-2.9 2.2s-2.4.8-3.6 1c-1.2.2-2.5.3-3.8.3s-2.5-.1-3.6-.2c-1.1-.2-2.3-.5-3.6-.9-1.3-.4-2.3-1.2-3-2.1-.8-1-1.1-2.2-1.1-3.7V14.6c0-1.2.3-2.3.8-3.2.6-.9 1.2-1.7 2-2.1.8-.5 1.7-.9 2.8-1.2 1.1-.4 2.1-.6 2.9-.6.9-.1 1.8-.1 2.7-.1 1 0 1.9 0 2.8.1.9.1 1.9.3 3 .6s2.1.7 2.8 1.2c.8.5 1.5 1.2 2 2.1.6.9.9 2 .9 3.2zm-5.8 10.5V14.6c0-1.2-.5-2-1.4-2.4-.9-.5-2.3-.7-4.2-.7s-3.3.2-4.2.7c-1 .4-1.4 1.2-1.4 2.4v10.5c0 .6.2 1.1.5 1.5.3.4.8.7 1.4.9.6.2 1.2.3 1.7.4.6.1 1.2.1 2 .1s1.5 0 2.1-.1 1.1-.2 1.7-.4c.6-.2 1-.5 1.3-.9s.5-.9.5-1.5zM80.6 22.6v3.7c0 2-.8 3.4-2.4 4.2s-4 1.2-7.1 1.2h-10v-24h9.7c3.4 0 5.7.4 6.9 1.1 1.2.8 1.8 2.1 1.8 4v3c0 .7-.3 1.3-.8 1.9-.5.6-1.2 1-1.8 1.2v.2c.9.1 1.7.5 2.5 1.2s1.2 1.4 1.2 2.3zM74 15.1v-1.2c0-.8-.2-1.3-.6-1.6s-1.3-.4-2.7-.4h-3.8v5.6h4c1.4 0 2.2-.2 2.6-.5.3-.4.5-1 .5-1.9zm.8 10.4v-1.9c0-.9-.2-1.5-.7-1.9s-1.3-.6-2.4-.6h-4.9v6.4h4.1c1.4 0 2.4-.2 3-.5.6-.2.9-.7.9-1.5zM102.9 23.3v1.6c0 1.4-.3 2.6-.8 3.6s-1.3 1.7-2.3 2.2-2.1.9-3.3 1.1c-1.2.2-2.6.3-4.3.3-2.3 0-5.1-.2-8.5-.7V27c4.1.6 6.9 1 8.6 1 3.2 0 4.8-.8 4.8-2.5v-1.6c0-.7-.2-1.3-.6-1.8s-1.3-.7-2.5-.7h-2.8c-5.3 0-7.9-2.1-7.9-6.3v-1.7c0-2.1.9-3.6 2.6-4.6s4.5-1.5 8.3-1.5c1.8 0 4.3.2 7.5.5v4.3c-3.7-.4-6.3-.7-7.7-.7-1.9 0-3.2.2-3.9.5-.7.3-1.1.9-1.1 1.6v1.7c0 1.3 1.1 1.9 3.2 1.9h2.9c2.8 0 4.8.5 6 1.5 1.2 1.1 1.8 2.6 1.8 4.7zM125.2 11.8h-7.4v19.9h-5.7V11.8h-7.4V7.7h20.5v4.1zM147.2 31.7h-18.7v-24h18.3v4.1h-12.5v5.5h11.3v4.1h-11.3v6.2h12.9v4.1zM172.4 31.7h-6.6l-6.3-9.4h-2.7v9.4H151v-24h10.8c3.1 0 5.5.4 6.9 1.1 1.5.8 2.2 2.1 2.2 3.9v4.2c0 1.5-.5 2.6-1.6 3.4-1 .8-2.3 1.3-3.9 1.5l7 9.9zm-7.1-15.9v-1.7c0-.9-.3-1.5-.8-1.8s-1.4-.5-2.7-.5h-4.9v6.7h4.9c1.4 0 2.3-.2 2.8-.5.4-.4.7-1.1.7-2.2z"/><path d="M236.7 41.6h-.8v2.2h-.5v-2.2h-.8v-.5h2.1v.5zM239.8 43.8h-.4v-2.2l-.7 2.2h-.5l-.7-2.2v2.2h-.4v-2.7h.7l.6 2.1.7-2.1h.7v2.7zM192 31.3h-14.9V9.6h14.6v2.3h-11.3V19h10.2v2.3h-10.2v7.8h11.7v2.2h-.1zM199.3 31.3h-3V7.9h3v23.4zM207.5 12.4h-3V9.3h3v3.1zm0 18.9h-3V15.1h3v16.2zM222.9 31.3c-1.1.2-2.2.3-3.4.3-2 0-3.4-.4-4.2-1.1s-1.2-2-1.2-4V17h-3.6v-2h3.6v-5h3v5h5.8v2h-5.8v9.7c0 1.2.2 1.9.7 2.3.4.4 1.3.6 2.7.6.4 0 1.2-.1 2.4-.3v2zM239.5 23.9h-10.9v2.4c0 1.1.4 1.9 1.2 2.4s2 .7 3.6.7c1.5 0 3.4-.3 5.4-.8v2.3c-2 .4-4 .7-5.8.7-4.9 0-7.4-1.6-7.4-4.9v-6.4c0-2 .6-3.4 1.7-4.2 1.1-.8 3-1.3 5.4-1.3 2.3 0 4 .4 5.1 1.2 1.1.8 1.6 2.2 1.6 4.3l.1 3.6zm-3-2v-2.5c0-1-.3-1.7-.9-2-.6-.4-1.6-.6-3-.6-1.3 0-2.3.2-3 .5-.6.4-1 1-1 2v2.5h7.9v.1z"/></svg>