<svg id="Layer_1" xmlns="http://www.w3.org/2000/svg" viewBox="0 0 224.8 24"><style>.st0{fill:#DB3236;}</style><path id="XMLID_31_" class="st0" d="M5.6 23.5H0V.2h5.6v23.3zm16.5 0h-6.8L5.8 11.1 14.6.2h6.6l-9 10.8 9.9 12.5z"/><path id="XMLID_28_" class="st0" d="M45.5 6.9v10.2c0 1.3-.4 2.4-1 3.4-.7.9-1.6 1.6-2.8 2.1-1.2.5-2.4.8-3.5 1-1.2.2-2.4.3-3.7.3-1.2 0-2.4-.1-3.5-.2-1.1-.2-2.3-.4-3.5-.9-1.2-.4-2.2-1.1-3-2.1-.7-1-1.1-2.1-1.1-3.6V6.9c0-1.2.3-2.2.8-3.2.5-.9 1.2-1.6 1.9-2.1.8-.5 1.7-.9 2.8-1.2 1.1-.3 2-.5 2.9-.6.8-.1 1.7-.1 2.7-.1 1 0 1.9 0 2.7.1.8.2 1.7.4 2.8.7 1.1.3 2 .7 2.8 1.2.8.5 1.4 1.2 1.9 2.1.5.8.8 1.9.8 3.1zm-5.6 10.2V6.9c0-1.1-.5-1.9-1.4-2.4-.9-.5-2.3-.7-4.1-.7-1.8 0-3.2.2-4.1.7-.9.4-1.4 1.2-1.4 2.4v10.2c0 .6.2 1.1.5 1.5.3.4.8.7 1.3.8.6.2 1.2.3 1.7.3.5.1 1.2.1 2 .1s1.5 0 2-.1 1.1-.2 1.7-.3c.6-.2 1-.4 1.3-.8.3-.4.5-.9.5-1.5z"/><path id="XMLID_24_" class="st0" d="M69.1 14.7v3.6c0 1.9-.8 3.3-2.3 4.1-1.6.8-3.9 1.1-6.9 1.1H50V.2h9.5c3.3 0 5.6.4 6.7 1.1 1.2.7 1.8 2 1.8 3.9v2.9c0 .7-.3 1.3-.8 1.9-.5.6-1.1 1-1.8 1.1v.2c.9.1 1.7.5 2.5 1.1.8.7 1.2 1.4 1.2 2.3zm-6.5-7.4V6.2c0-.8-.2-1.3-.5-1.6-.4-.3-1.2-.4-2.7-.4h-3.7v5.5h3.9c1.3 0 2.2-.2 2.5-.5.3-.4.5-1 .5-1.9zm.8 10.2v-1.9c0-.9-.2-1.5-.7-1.8-.4-.4-1.2-.5-2.4-.5h-4.8v6.2h4c1.4 0 2.3-.2 2.9-.5.7-.3 1-.8 1-1.5z"/><path id="XMLID_23_" class="st0" d="M90.8 15.3v1.5c0 1.4-.3 2.6-.8 3.5-.5.9-1.2 1.7-2.2 2.2-1 .5-2.1.8-3.2 1-1.2.2-2.6.3-4.2.3-2.2 0-5-.2-8.3-.6v-4.3c4 .6 6.8.9 8.4.9 3.1 0 4.7-.8 4.7-2.4V16c0-.7-.2-1.3-.6-1.7-.4-.4-1.2-.7-2.4-.7h-2.7c-5.1 0-7.7-2-7.7-6.1V5.8c0-2 .8-3.5 2.5-4.5s4.4-1.5 8.1-1.5c1.8 0 4.2.2 7.3.5v4.2c-3.7-.5-6.2-.7-7.5-.7-1.8 0-3.1.2-3.8.5-.7.3-1 .8-1 1.6v1.7c0 1.2 1 1.8 3.1 1.8h2.8c2.7 0 4.7.5 5.9 1.5 1.1 1 1.6 2.4 1.6 4.4z"/><path id="XMLID_22_" class="st0" d="M112.5 4.2h-7.1v19.3h-5.6V4.2h-7.2v-4h19.9z"/><path id="XMLID_21_" class="st0" d="M134 23.5h-18.2V.2h17.8v4h-12.2v5.3h11v4h-11v6H134z"/><path id="XMLID_18_" class="st0" d="M158.6 23.5h-6.5l-6.1-9.1h-2.6v9.1h-5.6V.2h10.5c3.1 0 5.3.4 6.7 1.1 1.4.7 2.1 2 2.1 3.8v4.1c0 1.4-.5 2.5-1.5 3.3-1 .8-2.3 1.2-3.8 1.4l6.8 9.6zm-7-15.4V6.4c0-.9-.3-1.5-.8-1.8-.5-.3-1.4-.5-2.6-.5h-4.8v6.5h4.8c1.3 0 2.2-.2 2.7-.5s.7-1 .7-2z"/><g id="XMLID_3_"><path id="XMLID_14_" d="M177.7 23.1h-14.5V2h14.2v2.2h-11v6.9h10v2.2h-10v7.6h11.4v2.2z"/><path id="XMLID_12_" d="M184.8 23.1h-2.9V.4h2.9v22.7z"/><path id="XMLID_9_" d="M192.8 4.8h-2.9V1.7h2.9v3.1zm0 18.3h-2.9V7.4h2.9v15.7z"/><path id="XMLID_7_" d="M207.8 23.2c-1 .2-2.1.3-3.3.3-2 0-3.4-.3-4.1-1-.8-.7-1.2-2-1.2-3.9V9.3h-3.5V7.4h3.5V2.5h3v4.9h5.6v1.9h-5.6v9.4c0 1.1.2 1.9.7 2.3.4.4 1.3.6 2.6.6.3 0 1.1-.1 2.3-.3v1.9z"/><path id="XMLID_4_" d="M224 15.9h-10.6v2.4c0 1.1.4 1.9 1.2 2.4.8.5 1.9.7 3.5.7 1.5 0 3.3-.3 5.3-.8v2.2c-2 .4-3.9.6-5.7.6-4.8 0-7.2-1.6-7.2-4.8v-6.2c0-1.9.6-3.3 1.7-4.1 1.1-.8 2.9-1.2 5.3-1.2 2.3 0 3.9.4 5 1.2 1.1.8 1.6 2.2 1.6 4.2v3.4zm-2.9-1.9v-2.5c0-1-.3-1.6-.9-2-.6-.4-1.6-.5-2.9-.5-1.3 0-2.3.2-2.9.5-.6.3-.9 1-.9 2V14h7.6z"/></g></svg>