<?xml version="1.0" encoding="utf-8"?>
<!-- Generator: Adobe Illustrator 16.0.0, SVG Export Plug-In . SVG Version: 6.00 Build 0)  -->
<!DOCTYPE svg PUBLIC "-//W3C//DTD SVG 1.1//EN" "http://www.w3.org/Graphics/SVG/1.1/DTD/svg11.dtd">
<svg version="1.1" id="Layer_1" xmlns="http://www.w3.org/2000/svg" xmlns:xlink="http://www.w3.org/1999/xlink" x="0px" y="0px"
	 width="614px" height="128px" viewBox="0 0 614 128" enable-background="new 0 0 614 128" xml:space="preserve">
<g>
	<path fill="none" d="M290.815,36.724c-0.693-1.909-1.73-3.612-3.109-5.099c-1.385-1.49-3.111-2.686-5.186-3.593
		c-2.074-0.901-4.441-1.355-7.094-1.355h-20.26V58.42h19.936c4.891,0,8.904-1.491,12.043-4.468
		c3.135-2.975,4.703-6.752,4.703-11.325C291.848,40.611,291.506,38.64,290.815,36.724z"/>
	<polygon fill="#DB3235" points="91.212,8.174 91.212,6.902 65.214,6.902 23.431,55.862 22.152,55.862 22.152,6.902 0.621,6.902 
		0.621,121.098 22.152,121.098 22.152,87.604 35.229,72.45 69.198,121.098 95.518,121.098 95.518,119.818 49.905,55.384 	"/>
	<path fill="#DB3235" d="M165.621,46.06c0.557-0.362,1.221-0.583,1.932-0.583c0.595,0,1.152,0.17,1.648,0.434l6.713-6.048
		c-0.168-0.415-0.27-0.858-0.27-1.332l0.039-0.313l-9.125-4.211c-0.632,0.648-1.509,1.052-2.48,1.052
		c-0.578,0-1.115-0.154-1.59-0.404l-5.379,5.019L165.621,46.06z"/>
	<polygon fill="#DB3235" points="176.498,57.908 166.814,63.184 184.785,64.818 	"/>
	<path fill="#DB3235" d="M164.078,32.744c0.638,0,1.158-0.52,1.158-1.152c0-0.646-0.519-1.162-1.158-1.162
		c-0.637,0-1.158,0.515-1.158,1.162C162.92,32.223,163.441,32.744,164.078,32.744z"/>
	<path fill="#DB3235" d="M168.709,48.95c0-0.641-0.519-1.162-1.156-1.162c-0.643,0-1.164,0.521-1.164,1.162
		c0,0.638,0.521,1.154,1.164,1.153C168.189,50.103,168.709,49.588,168.709,48.95z"/>
	<path fill="#DB3235" d="M123.568,61.686c-0.638,0-1.152,0.515-1.152,1.152c0,0.641,0.513,1.157,1.152,1.157
		c0.641,0,1.157-0.516,1.156-1.157C124.724,62.202,124.209,61.686,123.568,61.686z"/>
	<polygon fill="#DB3235" points="132.953,47.321 132.101,40.771 131.689,40.642 126.509,47.127 126.775,47.635 	"/>
	<path fill="#DB3235" d="M144.404,32.744c0.633,0,1.154-0.52,1.154-1.152c0-0.646-0.521-1.162-1.154-1.162
		c-0.646,0-1.162,0.515-1.162,1.162C143.242,32.223,143.758,32.744,144.404,32.744z"/>
	<circle fill="#DB3235" cx="132.828" cy="37.375" r="1.157"/>
	<path fill="#DB3235" d="M143.404,46.802c0.432-1.429,1.748-2.476,3.311-2.476c0.578,0,1.115,0.149,1.592,0.4l5.205-4.855
		l-7.188-5.394c-0.555,0.366-1.211,0.583-1.92,0.583c-0.941,0-1.779-0.375-2.406-0.97l-5.74,2.871l0.043,0.415
		c0,1.35-0.781,2.502-1.907,3.082l0.879,6.748L143.404,46.802z"/>
	<path fill="#DB3235" d="M164.127,49.424l-0.049-0.474l0.17-1.026l-8.857-6.642l-5.498,5.122c0.188,0.43,0.295,0.898,0.295,1.384
		c0,0.54-0.125,1.042-0.348,1.491l4.969,4.974L164.127,49.424z"/>
	<path fill="#DB3235" d="M123.568,47.788c-0.638,0-1.152,0.522-1.152,1.162c0,0.637,0.513,1.153,1.152,1.153
		c0.64,0,1.156-0.515,1.156-1.153C124.724,48.309,124.209,47.788,123.568,47.788z"/>
	<path fill="#DB3235" d="M161.764,63.995c0,0.636,0.521,1.157,1.156,1.157c0.637,0,1.158-0.521,1.158-1.157
		c0-0.637-0.521-1.157-1.158-1.157C162.285,62.838,161.764,63.359,161.764,63.995z"/>
	<path fill="#DB3235" d="M174.578,56.317l-5.271-4.39c-0.51,0.309-1.109,0.493-1.754,0.493c-0.918,0-1.742-0.358-2.369-0.941
		l-8.654,4.49l4.906,4.905c0.449-0.223,0.945-0.352,1.484-0.352c0.893,0,1.689,0.348,2.306,0.902L174.578,56.317z"/>
	<path fill="#DB3235" d="M171.022,48.949l-0.223,1.197l5.967,4.972l8.205-4.466l-0.059-0.55c0-0.666,0.197-1.292,0.525-1.813
		l-5.18-6.487l-1.133,0.207c-0.604,0-1.153-0.167-1.645-0.438l-6.723,6.052C170.924,48.029,171.022,48.482,171.022,48.949z"/>
	<polygon fill="#DB3235" points="149.209,51.927 150.603,56.432 152.656,55.37 	"/>
	<polygon fill="#DB3235" points="152.151,69.225 149.219,59.766 139.721,64.682 139.766,65.096 	"/>
	<path fill="#DB3235" d="M179.123,39.695c0.641,0,1.162-0.522,1.162-1.163c0-0.641-0.521-1.156-1.162-1.156
		c-0.637,0-1.152,0.514-1.152,1.156C177.971,39.174,178.486,39.695,179.123,39.695z"/>
	<path fill="#DB3235" d="M147.871,47.788c0-0.631-0.52-1.146-1.156-1.146c-0.636,0-1.156,0.514-1.156,1.146
		c0,0.648,0.52,1.162,1.156,1.162C147.351,48.95,147.871,48.435,147.871,47.788z"/>
	<path fill="#DB3235" d="M143.509,49.11l-7.93,0.396l1.605,12.305c0.56,0.148,1.062,0.428,1.48,0.814l9.859-5.113l-1.949-6.26
		C145.191,51.199,144.012,50.331,143.509,49.11z"/>
	<polygon fill="#DB3235" points="160.898,32.972 160.816,32.744 147.871,32.744 155.228,38.258 	"/>
	<path fill="#DB3235" d="M174.496,95.246c-0.646,0-1.162,0.516-1.162,1.158c0,0.64,0.516,1.156,1.162,1.156
		c0.631,0,1.149-0.517,1.148-1.156C175.644,95.764,175.127,95.246,174.496,95.246z"/>
	<path fill="#DB3235" d="M174.496,76.729c-0.646,0-1.162,0.521-1.162,1.153c0,0.646,0.516,1.162,1.162,1.162
		c0.631,0,1.149-0.517,1.148-1.162C175.644,77.25,175.127,76.729,174.496,76.729z"/>
	<polygon fill="#DB3235" points="178.68,56.717 186.622,63.335 187.224,63.055 187.224,53.365 186.078,52.685 	"/>
	<path fill="#DB3235" d="M166.066,65.447c-0.545,1.168-1.713,1.99-3.082,2.011l-1.611,4.834l10.393,3.467
		c0.638-0.811,1.621-1.341,2.73-1.341c0.643,0,1.241,0.184,1.762,0.491l8.873-7.403l-0.1-0.337L166.066,65.447z"/>
	<path fill="#DB3235" d="M199.188,21.656c-5.32-5.373-11.619-9.599-18.898-12.68c-7.288-3.082-15.184-4.626-23.686-4.626
		c-8.51,0-16.401,1.544-23.684,4.626c-7.287,3.081-13.588,7.307-18.902,12.68c-5.315,5.368-9.489,11.691-12.516,18.975
		C98.467,47.919,96.957,55.703,96.957,64c0,8.292,1.51,16.086,4.545,23.363c3.028,7.283,7.202,13.611,12.516,18.979
		c5.314,5.373,11.615,9.599,18.902,12.675c7.284,3.088,15.174,4.631,23.684,4.631c8.501,0,16.398-1.543,23.686-4.631
		c7.279-3.076,13.578-7.302,18.898-12.675c5.316-5.368,9.486-11.696,12.521-18.979c3.029-7.277,4.543-15.071,4.543-23.363
		c0-8.297-1.514-16.081-4.543-23.369C208.674,33.346,204.504,27.023,199.188,21.656z M188.381,69.789
		c-0.643,0-1.24-0.193-1.756-0.501l-8.885,7.397l0.232,1.196c0,1.515-0.974,2.782-2.326,3.261v12.002
		c1.351,0.479,2.326,1.756,2.326,3.258c0,1.914-1.565,3.477-3.475,3.477c-1.914,0-3.477-1.563-3.477-3.477
		c0-1.502,0.968-2.779,2.314-3.258V81.141c-1.326-0.469-2.276-1.713-2.305-3.192l-10.385-3.459l-1.385,4.144
		c0.817,0.643,1.346,1.617,1.346,2.725c0,1.507-0.97,2.785-2.316,3.263v8.528c1.345,0.483,2.316,1.756,2.316,3.258
		c0,1.92-1.559,3.477-3.473,3.477c-1.92,0-3.473-1.557-3.473-3.477c0-1.502,0.974-2.775,2.316-3.258v-8.525
		c-1.279-0.459-2.205-1.637-2.297-3.039l-9.926-2.841c-0.633,0.877-1.664,1.456-2.828,1.456c-1.91,0-3.467-1.559-3.467-3.469
		c0-1.041,0.463-1.957,1.188-2.595l-2.209-5.518l-0.137,0.01c-1.726,0-3.148-1.264-3.414-2.919l-6.322-1.146
		c-0.6,1.041-1.709,1.75-2.996,1.75c-1.916,0-3.479-1.553-3.479-3.473c0-1.505,0.972-2.779,2.326-3.256v-7.375
		c-1.353-0.477-2.326-1.746-2.326-3.257c0-1.914,1.563-3.472,3.479-3.472l1.127,0.202l5.186-6.478
		c-0.322-0.535-0.525-1.152-0.525-1.827c0-1.916,1.559-3.47,3.473-3.47c0.931,0,1.775,0.373,2.408,0.976l5.734-2.87l-0.045-0.42
		c0-1.915,1.565-3.478,3.479-3.478c1.506,0,2.777,0.973,3.256,2.315h13.154c0.481-1.341,1.752-2.315,3.262-2.315
		c1.911,0,3.475,1.563,3.475,3.478l-0.035,0.313l9.121,4.206c0.636-0.647,1.509-1.052,2.484-1.052c1.914,0,3.477,1.564,3.477,3.473
		c0,0.676-0.207,1.293-0.535,1.829l5.186,6.482l1.129-0.202c1.918,0,3.477,1.552,3.477,3.462c0,1.515-0.974,2.783-2.311,3.261v9.69
		c1.339,0.478,2.314,1.751,2.314,3.255C191.858,68.227,190.299,69.789,188.381,69.789z"/>
	<path fill="#DB3235" d="M188.379,65.152c-0.633,0-1.154,0.521-1.154,1.158c0,0.642,0.521,1.156,1.154,1.156
		c0.646,0,1.162-0.515,1.162-1.156C189.541,65.674,189.025,65.152,188.379,65.152z"/>
	<path fill="#DB3235" d="M188.379,48.951c-0.633,0-1.154,0.516-1.154,1.153c0,0.641,0.521,1.164,1.154,1.164
		c0.646,0,1.162-0.524,1.162-1.164C189.541,49.468,189.025,48.951,188.379,48.951z"/>
	<path fill="#DB3235" d="M157.133,80.197c-0.636,0-1.156,0.525-1.156,1.162c0,0.641,0.519,1.158,1.156,1.158
		c0.637,0,1.156-0.518,1.156-1.158C158.289,80.723,157.769,80.197,157.133,80.197z"/>
	<path fill="#DB3235" d="M140.926,75.57c-0.631,0-1.152,0.516-1.152,1.158c0,0.637,0.521,1.153,1.152,1.153
		c0.637,0,1.164-0.517,1.164-1.153C142.09,76.087,141.563,75.57,140.926,75.57z"/>
	<path fill="#DB3235" d="M139.027,67.281l-0.439,0.467l2.205,5.521l0.133-0.014c1.844,0,3.338,1.446,3.449,3.256l9.938,2.836
		l0.751-0.759L153,71.938L139.027,67.281z"/>
	<path fill="#DB3235" d="M136.301,63.996c-0.636,0-1.156,0.52-1.156,1.156c0,0.642,0.519,1.158,1.156,1.158
		c0.637,0,1.158-0.517,1.158-1.158C137.459,64.518,136.937,63.996,136.301,63.996z"/>
	<path fill="#DB3235" d="M126.877,49.94c-0.318,1.056-1.119,1.906-2.152,2.267v7.369c1.18,0.425,2.055,1.448,2.258,2.712
		l6.318,1.143c0.361-0.627,0.906-1.128,1.572-1.433l-1.609-12.377L126.877,49.94z"/>
	<polygon fill="#DB3235" points="157.17,77.578 158.445,73.757 155.707,72.846 	"/>
	<circle fill="#DB3235" cx="157.133" cy="96.403" r="1.157"/>
	<path fill="#DB3235" d="M159.449,63.996c0-0.53,0.129-1.032,0.346-1.486l-5.42-5.421l-3.068,1.588l3.551,11.439l4.32,1.446
		l1.611-4.846C159.98,66.085,159.449,65.105,159.449,63.996z"/>
	<path fill="#DB3235" d="M288.978,74.843c3.293-1.168,6.435-2.788,9.41-4.862c2.975-2.078,5.586-4.465,7.813-7.182
		c2.241-2.711,3.991-5.739,5.268-9.087c1.273-3.348,1.91-6.941,1.91-10.766c0-5.21-0.902-10.023-2.711-14.437
		c-1.808-4.408-4.384-8.21-7.736-11.402c-3.348-3.192-7.359-5.686-12.039-7.496c-4.678-1.809-9.889-2.709-15.627-2.709h-41.631
		h-0.001v114.196h21.531V78.195h10.047l29.51,42.902h24.719v-1.279l-30.624-43.856L288.978,74.843z M275.102,58.42h-19.936V26.677
		h20.26c2.653,0,5.02,0.454,7.094,1.355c2.075,0.907,3.801,2.103,5.186,3.593c1.379,1.487,2.416,3.19,3.109,5.099
		c0.691,1.916,1.033,3.887,1.033,5.903c0,4.573-1.568,8.35-4.703,11.325C284.006,56.929,279.993,58.42,275.102,58.42z"/>
	<polygon fill="#DB3235" points="324.864,27.313 356.76,27.313 356.76,121.098 378.292,121.098 378.292,27.313 410.192,27.313 
		410.192,6.902 324.864,6.902 	"/>
	<polygon fill="#DB3235" points="425.502,121.098 497.91,121.098 497.91,100.68 447.033,100.68 447.033,74.205 492.804,74.205 
		492.804,53.793 447.033,53.793 447.033,27.313 497.91,27.313 497.91,6.902 425.502,6.902 	"/>
	<polygon fill="#DB3235" points="575.897,61.448 610.504,6.902 583.869,6.902 561.701,44.224 560.428,44.224 538.26,6.902 
		511.621,6.902 546.232,61.448 508.752,121.098 535.545,121.098 560.428,79.945 561.701,79.945 586.58,121.098 613.379,121.098 	"/>
</g>
</svg>
