<?xml version="1.0" encoding="utf-8"?>
<!-- Generator: Adobe Illustrator 19.0.0, SVG Export Plug-In . SVG Version: 6.00 Build 0)  -->
<svg version="1.1" id="Layer_1" xmlns="http://www.w3.org/2000/svg" xmlns:xlink="http://www.w3.org/1999/xlink" x="0px" y="0px"
	 viewBox="51 193 614 128" style="enable-background:new 51 193 614 128;" xml:space="preserve">
<style type="text/css">
	.st0{fill:none;}
	.st1{fill:#DB3235;stroke:#FFFFFF;stroke-miterlimit:10;}
	.st2{fill:#DB3235;}
	.st3{fill:#DB3235;stroke:#FFFFFF;stroke-width:2;stroke-miterlimit:10;}
</style>
<g>
	<path class="st0" d="M341.8,229.7c-0.7-1.9-1.7-3.6-3.1-5.1c-1.4-1.5-3.1-2.7-5.2-3.6c-2.1-0.9-4.4-1.4-7.1-1.4h-20.3v31.7h19.9
		c4.9,0,8.9-1.5,12-4.5c3.1-3,4.7-6.8,4.7-11.3C342.8,233.6,342.5,231.6,341.8,229.7z"/>
	<polygon class="st1" points="142.2,201.2 142.2,199.9 116.2,199.9 74.4,248.9 73.2,248.9 73.2,199.9 51.6,199.9 51.6,314.1 
		73.2,314.1 73.2,280.6 86.2,265.5 120.2,314.1 146.5,314.1 146.5,312.8 100.9,248.4 	"/>
	<path class="st2" d="M216.6,239.1c0.6-0.4,1.2-0.6,1.9-0.6c0.6,0,1.2,0.2,1.6,0.4l6.7-6c-0.2-0.4-0.3-0.9-0.3-1.3l0-0.3l-9.1-4.2
		c-0.6,0.6-1.5,1.1-2.5,1.1c-0.6,0-1.1-0.2-1.6-0.4l-5.4,5L216.6,239.1z"/>
	<polygon class="st2" points="227.5,250.9 217.8,256.2 235.8,257.8 	"/>
	<path class="st2" d="M215.1,225.7c0.6,0,1.2-0.5,1.2-1.2c0-0.6-0.5-1.2-1.2-1.2c-0.6,0-1.2,0.5-1.2,1.2
		C213.9,225.2,214.4,225.7,215.1,225.7z"/>
	<path class="st2" d="M219.7,241.9c0-0.6-0.5-1.2-1.2-1.2c-0.6,0-1.2,0.5-1.2,1.2c0,0.6,0.5,1.2,1.2,1.2
		C219.2,243.1,219.7,242.6,219.7,241.9z"/>
	<path class="st2" d="M174.6,254.7c-0.6,0-1.2,0.5-1.2,1.2c0,0.6,0.5,1.2,1.2,1.2c0.6,0,1.2-0.5,1.2-1.2
		C175.7,255.2,175.2,254.7,174.6,254.7z"/>
	<polygon class="st2" points="184,240.3 183.1,233.8 182.7,233.6 177.5,240.1 177.8,240.6 	"/>
	<path class="st2" d="M195.4,225.7c0.6,0,1.2-0.5,1.2-1.2c0-0.6-0.5-1.2-1.2-1.2c-0.6,0-1.2,0.5-1.2,1.2
		C194.2,225.2,194.8,225.7,195.4,225.7z"/>
	<circle class="st2" cx="183.8" cy="230.4" r="1.2"/>
	<path class="st2" d="M194.4,239.8c0.4-1.4,1.7-2.5,3.3-2.5c0.6,0,1.1,0.1,1.6,0.4l5.2-4.9l-7.2-5.4c-0.6,0.4-1.2,0.6-1.9,0.6
		c-0.9,0-1.8-0.4-2.4-1l-5.7,2.9l0,0.4c0,1.4-0.8,2.5-1.9,3.1l0.9,6.7L194.4,239.8z"/>
	<path class="st2" d="M215.1,242.4l0-0.5l0.2-1l-8.9-6.6l-5.5,5.1c0.2,0.4,0.3,0.9,0.3,1.4c0,0.5-0.1,1-0.3,1.5l5,5L215.1,242.4z"/>
	<path class="st2" d="M174.6,240.8c-0.6,0-1.2,0.5-1.2,1.2c0,0.6,0.5,1.2,1.2,1.2c0.6,0,1.2-0.5,1.2-1.2
		C175.7,241.3,175.2,240.8,174.6,240.8z"/>
	<path class="st2" d="M212.8,257c0,0.6,0.5,1.2,1.2,1.2c0.6,0,1.2-0.5,1.2-1.2c0-0.6-0.5-1.2-1.2-1.2
		C213.3,255.8,212.8,256.4,212.8,257z"/>
	<path class="st2" d="M225.6,249.3l-5.3-4.4c-0.5,0.3-1.1,0.5-1.8,0.5c-0.9,0-1.7-0.4-2.4-0.9l-8.7,4.5l4.9,4.9
		c0.4-0.2,0.9-0.4,1.5-0.4c0.9,0,1.7,0.3,2.3,0.9L225.6,249.3z"/>
	<path class="st2" d="M222,241.9l-0.2,1.2l6,5l8.2-4.5l-0.1-0.6c0-0.7,0.2-1.3,0.5-1.8l-5.2-6.5l-1.1,0.2c-0.6,0-1.2-0.2-1.6-0.4
		l-6.7,6.1C221.9,241,222,241.5,222,241.9z"/>
	<polygon class="st2" points="200.2,244.9 201.6,249.4 203.7,248.4 	"/>
	<polygon class="st2" points="203.2,262.2 200.2,252.8 190.7,257.7 190.8,258.1 	"/>
	<path class="st2" d="M230.1,232.7c0.6,0,1.2-0.5,1.2-1.2c0-0.6-0.5-1.2-1.2-1.2c-0.6,0-1.2,0.5-1.2,1.2
		C229,232.2,229.5,232.7,230.1,232.7z"/>
	<path class="st2" d="M198.9,240.8c0-0.6-0.5-1.1-1.2-1.1s-1.2,0.5-1.2,1.1c0,0.6,0.5,1.2,1.2,1.2S198.9,241.4,198.9,240.8z"/>
	<path class="st2" d="M194.5,242.1l-7.9,0.4l1.6,12.3c0.6,0.1,1.1,0.4,1.5,0.8l9.9-5.1l-1.9-6.3C196.2,244.2,195,243.3,194.5,242.1z
		"/>
	<polygon class="st2" points="211.9,226 211.8,225.7 198.9,225.7 206.2,231.3 	"/>
	<path class="st2" d="M225.5,288.2c-0.6,0-1.2,0.5-1.2,1.2c0,0.6,0.5,1.2,1.2,1.2c0.6,0,1.1-0.5,1.1-1.2
		C226.6,288.8,226.1,288.2,225.5,288.2z"/>
	<path class="st2" d="M225.5,269.7c-0.6,0-1.2,0.5-1.2,1.2c0,0.6,0.5,1.2,1.2,1.2c0.6,0,1.1-0.5,1.1-1.2
		C226.6,270.3,226.1,269.7,225.5,269.7z"/>
	<polygon class="st2" points="229.7,249.7 237.6,256.3 238.2,256.1 238.2,246.4 237.1,245.7 	"/>
	<path class="st2" d="M217.1,258.4c-0.5,1.2-1.7,2-3.1,2l-1.6,4.8l10.4,3.5c0.6-0.8,1.6-1.3,2.7-1.3c0.6,0,1.2,0.2,1.8,0.5l8.9-7.4
		l-0.1-0.3L217.1,258.4z"/>
	<path class="st3" d="M250.2,214.7c-5.3-5.4-11.6-9.6-18.9-12.7c-7.3-3.1-15.2-4.6-23.7-4.6c-8.5,0-16.4,1.5-23.7,4.6
		c-7.3,3.1-13.6,7.3-18.9,12.7c-5.3,5.4-9.5,11.7-12.5,19c-3,7.3-4.5,15.1-4.5,23.4c0,8.3,1.5,16.1,4.5,23.4c3,7.3,7.2,13.6,12.5,19
		c5.3,5.4,11.6,9.6,18.9,12.7c7.3,3.1,15.2,4.6,23.7,4.6c8.5,0,16.4-1.5,23.7-4.6c7.3-3.1,13.6-7.3,18.9-12.7
		c5.3-5.4,9.5-11.7,12.5-19c3-7.3,4.5-15.1,4.5-23.4c0-8.3-1.5-16.1-4.5-23.4C259.7,226.3,255.5,220,250.2,214.7z M239.4,262.8
		c-0.6,0-1.2-0.2-1.8-0.5l-8.9,7.4l0.2,1.2c0,1.5-1,2.8-2.3,3.3v12c1.4,0.5,2.3,1.8,2.3,3.3c0,1.9-1.6,3.5-3.5,3.5
		c-1.9,0-3.5-1.6-3.5-3.5c0-1.5,1-2.8,2.3-3.3v-12c-1.3-0.5-2.3-1.7-2.3-3.2l-10.4-3.5l-1.4,4.1c0.8,0.6,1.3,1.6,1.3,2.7
		c0,1.5-1,2.8-2.3,3.3v8.5c1.3,0.5,2.3,1.8,2.3,3.3c0,1.9-1.6,3.5-3.5,3.5c-1.9,0-3.5-1.6-3.5-3.5c0-1.5,1-2.8,2.3-3.3v-8.5
		c-1.3-0.5-2.2-1.6-2.3-3l-9.9-2.8c-0.6,0.9-1.7,1.5-2.8,1.5c-1.9,0-3.5-1.6-3.5-3.5c0-1,0.5-2,1.2-2.6l-2.2-5.5l-0.1,0
		c-1.7,0-3.1-1.3-3.4-2.9l-6.3-1.1c-0.6,1-1.7,1.8-3,1.8c-1.9,0-3.5-1.6-3.5-3.5c0-1.5,1-2.8,2.3-3.3v-7.4c-1.4-0.5-2.3-1.7-2.3-3.3
		c0-1.9,1.6-3.5,3.5-3.5l1.1,0.2l5.2-6.5c-0.3-0.5-0.5-1.2-0.5-1.8c0-1.9,1.6-3.5,3.5-3.5c0.9,0,1.8,0.4,2.4,1l5.7-2.9l0-0.4
		c0-1.9,1.6-3.5,3.5-3.5c1.5,0,2.8,1,3.3,2.3h13.2c0.5-1.3,1.8-2.3,3.3-2.3c1.9,0,3.5,1.6,3.5,3.5l0,0.3l9.1,4.2
		c0.6-0.6,1.5-1.1,2.5-1.1c1.9,0,3.5,1.6,3.5,3.5c0,0.7-0.2,1.3-0.5,1.8l5.2,6.5l1.1-0.2c1.9,0,3.5,1.6,3.5,3.5c0,1.5-1,2.8-2.3,3.3
		v9.7c1.3,0.5,2.3,1.8,2.3,3.3C242.9,261.2,241.3,262.8,239.4,262.8z"/>
	<path class="st2" d="M239.4,258.2c-0.6,0-1.2,0.5-1.2,1.2c0,0.6,0.5,1.2,1.2,1.2c0.6,0,1.2-0.5,1.2-1.2
		C240.5,258.7,240,258.2,239.4,258.2z"/>
	<path class="st2" d="M239.4,242c-0.6,0-1.2,0.5-1.2,1.2c0,0.6,0.5,1.2,1.2,1.2c0.6,0,1.2-0.5,1.2-1.2
		C240.5,242.5,240,242,239.4,242z"/>
	<path class="st2" d="M208.1,273.2c-0.6,0-1.2,0.5-1.2,1.2c0,0.6,0.5,1.2,1.2,1.2c0.6,0,1.2-0.5,1.2-1.2
		C209.3,273.7,208.8,273.2,208.1,273.2z"/>
	<path class="st2" d="M191.9,268.6c-0.6,0-1.2,0.5-1.2,1.2c0,0.6,0.5,1.2,1.2,1.2c0.6,0,1.2-0.5,1.2-1.2
		C193.1,269.1,192.6,268.6,191.9,268.6z"/>
	<path class="st2" d="M190,260.3l-0.4,0.5l2.2,5.5l0.1,0c1.8,0,3.3,1.4,3.4,3.3l9.9,2.8l0.8-0.8l-2.1-6.6L190,260.3z"/>
	<path class="st2" d="M187.3,257c-0.6,0-1.2,0.5-1.2,1.2c0,0.6,0.5,1.2,1.2,1.2c0.6,0,1.2-0.5,1.2-1.2
		C188.5,257.5,187.9,257,187.3,257z"/>
	<path class="st2" d="M177.9,242.9c-0.3,1.1-1.1,1.9-2.2,2.3v7.4c1.2,0.4,2.1,1.4,2.3,2.7l6.3,1.1c0.4-0.6,0.9-1.1,1.6-1.4
		l-1.6-12.4L177.9,242.9z"/>
	<polygon class="st2" points="208.2,270.6 209.4,266.8 206.7,265.8 	"/>
	<circle class="st2" cx="208.1" cy="289.4" r="1.2"/>
	<path class="st2" d="M210.4,257c0-0.5,0.1-1,0.3-1.5l-5.4-5.4l-3.1,1.6l3.6,11.4l4.3,1.4l1.6-4.8C211,259.1,210.4,258.1,210.4,257z
		"/>
	<path class="st3" d="M340,267.8c3.3-1.2,6.4-2.8,9.4-4.9c3-2.1,5.6-4.5,7.8-7.2c2.2-2.7,4-5.7,5.3-9.1c1.3-3.3,1.9-6.9,1.9-10.8
		c0-5.2-0.9-10-2.7-14.4c-1.8-4.4-4.4-8.2-7.7-11.4c-3.3-3.2-7.4-5.7-12-7.5c-4.7-1.8-9.9-2.7-15.6-2.7h-41.6h0v114.2h21.5v-42.9h10
		l29.5,42.9h24.7v-1.3L339.8,269L340,267.8z M326.1,251.4h-19.9v-31.7h20.3c2.7,0,5,0.5,7.1,1.4c2.1,0.9,3.8,2.1,5.2,3.6
		c1.4,1.5,2.4,3.2,3.1,5.1c0.7,1.9,1,3.9,1,5.9c0,4.6-1.6,8.3-4.7,11.3C335,249.9,331,251.4,326.1,251.4z"/>
	<polygon class="st3" points="375.9,220.3 407.8,220.3 407.8,314.1 429.3,314.1 429.3,220.3 461.2,220.3 461.2,199.9 375.9,199.9 	
		"/>
	<polygon class="st3" points="476.5,314.1 548.9,314.1 548.9,293.7 498,293.7 498,267.2 543.8,267.2 543.8,246.8 498,246.8 
		498,220.3 548.9,220.3 548.9,199.9 476.5,199.9 	"/>
	<polygon class="st3" points="626.9,254.4 661.5,199.9 634.9,199.9 612.7,237.2 611.4,237.2 589.3,199.9 562.6,199.9 597.2,254.4 
		559.8,314.1 586.5,314.1 611.4,272.9 612.7,272.9 637.6,314.1 664.4,314.1 	"/>
</g>
</svg>
