<?xml version="1.0" encoding="utf-8"?>
<!-- Generator: Adobe Illustrator 22.0.1, SVG Export Plug-In . SVG Version: 6.00 Build 0)  -->
<svg version="1.1" id="Layer_1" xmlns="http://www.w3.org/2000/svg" xmlns:xlink="http://www.w3.org/1999/xlink" x="0px" y="0px"
	 viewBox="0 0 900 540" style="enable-background:new 0 0 900 540;" xml:space="preserve">
<style type="text/css">
	.st0{opacity:0.6;}
	.st1{fill:url(#SVGID_1_);}
	.st2{opacity:0.9;}
	.st3{fill:#FCFCFC;}
	.st4{fill:#F4F5FA;}
	.st5{fill:#E4E7EF;}
	.st6{fill:#D8D8E2;}
	.st7{fill:#FFFFFF;}
	.st8{fill:none;stroke:#96BDFF;stroke-miterlimit:10;}
	.st9{fill:none;stroke:#FFFFFF;stroke-miterlimit:10;}
	.st10{fill:url(#SVGID_2_);}
	.st11{fill:url(#SVGID_3_);}
	.st12{opacity:0.5;fill:#E4E7EF;enable-background:new    ;}
	.st13{fill:#D3D7E5;}
	.st14{opacity:0.3;fill:#D3D7E5;enable-background:new    ;}
	.st15{opacity:0.7;fill:#F4F5FA;enable-background:new    ;}
	.st16{opacity:0.8;}
	.st17{fill:#F9F9FB;}
	.st18{fill:#F3F4F9;}
	.st19{fill:none;stroke:#356DD5;stroke-miterlimit:10;}
	.st20{fill:none;}
	.st21{opacity:0.1;fill:#062244;enable-background:new    ;}
	.st22{opacity:3.000000e-02;fill:#062244;enable-background:new    ;}
	.st23{fill:#4A4F70;}
	.st24{fill:#356DD5;}
	.st25{fill:#021B2D;}
	.st26{fill:#18345E;}
	.st27{fill:#09253D;}
	.st28{fill:#F5B2A1;}
	.st29{fill:#C40D3C;}
	.st30{fill:#EFEFEF;}
	.st31{fill:#E5E5E5;}
	.st32{fill:#27497C;}
	.st33{fill:#EF9882;}
	.st34{fill:#F4F4F4;}
	.st35{fill:#2B4F82;}
	.st36{fill:#FF4438;}
	.st37{fill:#D6D6D6;}
	.st38{fill:#062244;}
	.st39{fill:#EB0045;}
	.st40{fill:none;stroke:#5FEA50;stroke-miterlimit:10;}
	.st41{fill:#DCDEDF;}
	.st42{fill:url(#SVGID_4_);}
	.st43{fill:#DFE3ED;}
</style>
<g class="st0">
	<linearGradient id="SVGID_1_" gradientUnits="userSpaceOnUse" x1="496.3762" y1="-71.1698" x2="417.9126" y2="373.819">
		<stop  offset="0" style="stop-color:#FFFFFF;stop-opacity:0"/>
		<stop  offset="0.5759" style="stop-color:#FDFDFE;stop-opacity:0"/>
		<stop  offset="0.7831" style="stop-color:#F6F7FB;stop-opacity:0"/>
		<stop  offset="0.8218" style="stop-color:#F4F5FA;stop-opacity:0"/>
		<stop  offset="1" style="stop-color:#F4F5FA"/>
	</linearGradient>
	<path class="st1" d="M0,0v79.3c0,129.9,94.7,241.1,223.3,260.1c1,0.2,2.1,0.3,3.1,0.4c18.2,2.5,17.9,3,36.3,3
		c74.8,0,166.5-6.4,231.2,6.7c39.8,8,77.2,24.5,115.3,38.5c47.3,17.4,96.5,31,146.9,32.8c50.3,1.8,102.2-9,143.9-37.2V0H0z"/>
</g>
<g class="st2">
	<g>
		<g>
			<rect x="393.3" y="117.2" class="st3" width="14.5" height="2.8"/>
			<polygon class="st4" points="525.4,154.4 525.4,130 551,130 551,149.1 561.1,149.1 561.1,144.1 577.5,144.1 577.5,154.4 
				592.2,154.4 600.3,146.3 605.9,146.3 605.9,165.7 525.4,165.7 			"/>
			<polygon class="st4" points="442.5,122.9 447.3,122.9 447.3,117.2 456.8,117.2 456.8,125.5 461.3,125.5 461.3,128.1 465.5,128.1 
				465.5,141.7 442.5,141.7 			"/>
			<rect x="410.4" y="108.2" class="st5" width="9.1" height="22.6"/>
			<rect x="390" y="119.9" class="st4" width="20.4" height="45.8"/>
			<polygon class="st4" points="384.6,122.5 394.7,124.9 394.7,153.2 384.6,153.2 			"/>
			<polygon class="st4" points="249.6,154.4 257.7,154.4 257.7,127.9 271.6,127.9 271.6,148.7 293.4,148.7 293.4,143.9 314.8,143.9 
				314.8,131.8 334.1,131.8 334.1,144.1 351.9,144.1 351.9,119.3 366.6,119.3 366.6,128.5 366.6,165.7 249.6,165.7 			"/>
			<polygon class="st4" points="317.8,149.7 317.8,165.7 359.2,165.7 359.2,149.7 354.5,143.7 322.2,143.7 			"/>
			<polygon class="st3" points="322.2,143.3 317.4,149.3 350.1,149.3 354.5,143.3 			"/>
			<rect x="345.8" y="155.2" class="st6" width="2.4" height="2.4"/>
			<g>
				<path class="st7" d="M356.1,157.8h-2.8V155h2.8V157.8z M353.7,157.4h2v-2h-2V157.4z"/>
			</g>
			<polygon class="st4" points="359.2,127.5 384.6,122.5 384.6,153.2 359.2,153.2 			"/>
			<rect x="379.7" y="131.8" class="st6" width="2.2" height="2.2"/>
			<g>
				<path class="st6" d="M389.8,134.2h-2.6v-2.6h2.6V134.2z M387.6,133.8h1.8V132h-1.8V133.8z"/>
			</g>
			<circle class="st8" cx="428.2" cy="130.2" r="5.6"/>
			<rect x="419.5" y="108.4" class="st4" width="23" height="57.3"/>
			<polygon class="st5" points="394.9,165.3 394.9,157.8 400.1,153.6 400.1,165.3 			"/>
			<rect x="442.5" y="130.2" class="st4" width="15.7" height="35.5"/>
			<rect x="444.7" y="132.4" class="st7" width="2.4" height="2.4"/>
			<rect x="465.5" y="116.6" class="st4" width="23.6" height="49"/>
			<polygon class="st3" points="499.2,165.7 465.7,165.7 465.7,129.7 473.2,125.1 499.2,125.1 			"/>
			<polygon class="st4" points="499.2,147.1 517.3,139 517.3,149.3 539.3,154.2 539.3,165.7 499.2,165.7 			"/>
			<rect x="359.2" y="153.2" class="st3" width="35.5" height="12.5"/>
			<rect x="410.4" y="130.2" class="st4" width="18.2" height="19"/>
			<rect x="412" y="131.8" class="st9" width="1.4" height="1.4"/>
			<polygon class="st5" points="402.1,134.6 410.4,130.2 410.4,147.1 402.1,147.1 			"/>
			<rect x="400.1" y="146.7" class="st3" width="46.4" height="19"/>
			<polygon class="st5" points="473,141.7 465.5,141.7 465.5,129.5 473,125.1 			"/>
			<rect x="458.2" y="141.7" class="st5" width="7.5" height="24"/>
			<rect x="462.1" y="145.1" class="st6" width="1.4" height="1.4"/>
			<rect x="462.1" y="149.9" class="st6" width="1.4" height="1.4"/>
			<rect x="511.7" y="144.7" class="st7" width="2" height="2.2"/>
			<rect x="511.7" y="147.3" class="st7" width="2" height="2.2"/>
		</g>
		<g>
			<g>
				<path class="st4" d="M611,170.7H244.4V83.1H611V170.7z M249.4,165.7h356.5V88.2H249.4V165.7z"/>
			</g>
		</g>
	</g>
	
		<linearGradient id="SVGID_2_" gradientUnits="userSpaceOnUse" x1="-387.8284" y1="122.9311" x2="-387.0919" y2="101.8138" gradientTransform="matrix(-1 0 0 1 164.14 -3.2)">
		<stop  offset="0" style="stop-color:#F4F5FA;stop-opacity:0"/>
		<stop  offset="0.15" style="stop-color:#F4F5FA;stop-opacity:0.12"/>
		<stop  offset="0.46" style="stop-color:#F4F5FA;stop-opacity:0.42"/>
		<stop  offset="0.9" style="stop-color:#F4F5FA;stop-opacity:0.89"/>
		<stop  offset="1" style="stop-color:#F4F5FA"/>
	</linearGradient>
	<path class="st10" d="M581.3,118.7h-65.4h-0.6c-2.8-0.8-2.8-2-2.8-2.8c-0.2-1.8,2.6-3.4,2.6-3.4c1.8-0.8,3.6-1.8,5.4-2.8
		c4.6-3,6.5-5.9,6.5-5.9c10.7-10.1,18.6,0,18.6,0c3.2,4.2,7.3,3,7.3,3c12.7-3.8,17.4,2,19.6,3.6c2.2,1.6,9.9,2.4,9.9,2.4
		s8.1,0.8,8.3,3.8c0,0,4,2.2-8.1,2.2L581.3,118.7z"/>
	
		<linearGradient id="SVGID_3_" gradientUnits="userSpaceOnUse" x1="-146.3215" y1="122.9239" x2="-145.5852" y2="101.8067" gradientTransform="matrix(-1 0 0 1 164.14 -3.2)">
		<stop  offset="0" style="stop-color:#F4F5FA;stop-opacity:0"/>
		<stop  offset="0.15" style="stop-color:#F4F5FA;stop-opacity:0.12"/>
		<stop  offset="0.46" style="stop-color:#F4F5FA;stop-opacity:0.42"/>
		<stop  offset="0.9" style="stop-color:#F4F5FA;stop-opacity:0.89"/>
		<stop  offset="1" style="stop-color:#F4F5FA"/>
	</linearGradient>
	<path class="st11" d="M340,118.7h-65.4h-0.8c-2.8-0.8-2.8-2-2.8-2.8c-0.2-1.8,2.6-3.4,2.6-3.4c1.8-0.8,3.6-1.8,5.4-2.8
		c4.6-3,6.5-5.9,6.5-5.9c10.7-10.1,18.6,0,18.6,0c3.2,4.2,7.3,3,7.3,3c12.7-3.8,17.4,2,19.6,3.6c2.2,1.6,9.9,2.4,9.9,2.4
		s8.1,0.8,8.3,3.8c0,0,4,2.2-8.1,2.2L340,118.7z"/>
</g>
<g>
	<path class="st4" d="M830.2,202.3H679.3c-5.7,0-10.5-4.7-10.5-10.5v-84.3c0-5.7,4.7-10.5,10.5-10.5h150.9c5.7,0,10.5,4.7,10.5,10.5
		v84.3C840.7,197.6,835.9,202.3,830.2,202.3z"/>
	<polygon class="st5" points="743.4,106 742.4,142.6 775.3,142.9 775.1,133.1 	"/>
	<polygon class="st5" points="682.3,109.4 681.2,143.4 713.9,144.1 712.9,109 	"/>
	<polygon class="st7" points="682.5,109 682.5,142.7 714.7,142.7 714.9,107 685.7,107 	"/>
	<polygon class="st5" points="680.7,109 682.7,110.2 686.8,106.7 685.7,105.7 	"/>
	<g>
		<polygon class="st5" points="691.8,117 688.8,112.4 689.5,112 692,115.9 694.5,113.2 696.5,115 699.5,112.9 701.2,114.5 
			703.2,112.5 706.2,114 707.7,112.7 708.2,113.2 706.4,114.9 703.4,113.4 701.2,115.5 699.5,113.7 696.3,116 694.5,114.2 		"/>
	</g>
	<g>
		<rect x="689.8" y="121.9" class="st5" width="20.2" height="0.7"/>
	</g>
	<g>
		<rect x="687" y="126.7" class="st5" width="23" height="0.7"/>
	</g>
	<g>
		<rect x="687" y="131.4" class="st5" width="23" height="0.7"/>
	</g>
	<g>
		<rect x="687" y="136.6" class="st5" width="23" height="0.7"/>
	</g>
	<polygon class="st7" points="743.4,106 743.9,142.4 772.8,141.4 776,136.9 775.6,105.5 	"/>
	<g>
		
			<rect x="747.5" y="114.2" transform="matrix(0.9992 -3.907225e-02 3.907225e-02 0.9992 -3.8992 29.5303)" class="st5" width="12" height="0.7"/>
	</g>
	<g>
		
			<rect x="747.6" y="118.2" transform="matrix(0.9998 -1.952771e-02 1.952771e-02 0.9998 -2.1707 14.7546)" class="st5" width="13.7" height="0.7"/>
	</g>
	<g>
		
			<rect x="747.6" y="122.7" transform="matrix(0.9998 -1.952771e-02 1.952771e-02 0.9998 -2.2587 14.7652)" class="st5" width="14.7" height="0.7"/>
	</g>
	<g>
		
			<rect x="747.6" y="126.5" transform="matrix(0.9999 -1.269454e-02 1.269454e-02 0.9999 -1.5494 9.6506)" class="st5" width="23.7" height="0.7"/>
	</g>
	<g>
		
			<rect x="747.6" y="130.7" transform="matrix(0.9999 -1.269454e-02 1.269454e-02 0.9999 -1.6024 9.6509)" class="st5" width="23.7" height="0.7"/>
	</g>
	<g>
		
			<rect x="747.6" y="135.1" transform="matrix(0.9999 -1.269454e-02 1.269454e-02 0.9999 -1.6575 9.6513)" class="st5" width="23.7" height="0.7"/>
	</g>
	<g>
		<path class="st5" d="M768.3,121.9c-2.2,0-4-1.8-4-4c0-2.2,1.8-4,4-4c2.2,0,4,1.8,4,4C772.5,120,770.6,121.9,768.3,121.9z
			 M768.3,114.4c-1.8,0-3.3,1.5-3.3,3.3s1.5,3.3,3.3,3.3s3.3-1.5,3.3-3.3S770.1,114.4,768.3,114.4z"/>
	</g>
	<polygon class="st12" points="772.8,141.4 772.8,136.9 776,136.9 	"/>
	<polygon class="st13" points="683.7,165.4 679.5,178.8 691.5,182.3 692.5,178.6 	"/>
	<polygon class="st7" points="683.7,165.4 680,178.8 690.7,181.6 692.3,180.3 695.7,168.6 	"/>
	<g>
		
			<rect x="686.3" y="167.4" transform="matrix(0.2422 -0.9702 0.9702 0.2422 355.5784 794.6669)" class="st13" width="0.3" height="4.7"/>
	</g>
	<g>
		
			<rect x="686.3" y="168.5" transform="matrix(0.2612 -0.9653 0.9653 0.2612 342.0177 789.084)" class="st13" width="0.3" height="5.2"/>
	</g>
	<g>
		
			<rect x="686.1" y="170.1" transform="matrix(0.2607 -0.9654 0.9654 0.2607 340.3748 790.363)" class="st13" width="0.3" height="5.7"/>
	</g>
	<g>
		
			<rect x="687.2" y="170.3" transform="matrix(0.2678 -0.9635 0.9635 0.2678 334.8744 790.2408)" class="st13" width="0.3" height="9"/>
	</g>
	<g>
		
			<rect x="686.7" y="171.7" transform="matrix(0.2678 -0.9635 0.9635 0.2678 333.1665 790.832)" class="st13" width="0.3" height="9"/>
	</g>
	<g>
		
			<rect x="686.2" y="173.3" transform="matrix(0.2678 -0.9635 0.9635 0.2678 331.2703 791.4939)" class="st13" width="0.3" height="9"/>
	</g>
	<g>
		<path class="st13" d="M691.7,173.9c-0.2,0-0.3,0-0.5,0c-0.8-0.2-1.3-1.2-1.2-2c0.2-0.3,0.3-0.7,0.8-1c0.3-0.2,0.8-0.3,1.2-0.2
			c0.8,0.2,1.3,1.2,1.2,2l0,0C693,173.4,692.3,173.9,691.7,173.9z M691.7,171.1c-0.2,0-0.3,0-0.7,0.2c-0.3,0.2-0.5,0.5-0.7,0.7
			c-0.2,0.7,0.2,1.3,0.8,1.5s1.3-0.2,1.5-0.8l0,0c0.2-0.7-0.2-1.3-0.8-1.5C691.8,171.1,691.8,171.1,691.7,171.1z"/>
	</g>
	<polygon class="st14" points="690.8,181.5 691.2,179.8 692.3,180.1 	"/>
	<polygon class="st13" points="756.4,156.4 754.9,170.4 767.4,171.6 767.8,167.8 	"/>
	<polygon class="st7" points="756.4,156.4 755.4,170.3 766.4,170.9 767.8,169.3 768.8,157.4 	"/>
	<g>
		
			<rect x="759.9" y="157.7" transform="matrix(4.916219e-02 -0.9988 0.9988 4.916219e-02 562.8459 911.3523)" class="st13" width="0.3" height="4.7"/>
	</g>
	<g>
		
			<rect x="760.1" y="159.1" transform="matrix(6.872776e-02 -0.9976 0.9976 6.872776e-02 546.7672 909.0536)" class="st13" width="0.3" height="5.2"/>
	</g>
	<g>
		
			<rect x="760.2" y="160.6" transform="matrix(6.818586e-02 -0.9977 0.9977 6.818586e-02 545.5031 910.8563)" class="st13" width="0.3" height="5.7"/>
	</g>
	<g>
		
			<rect x="761.6" y="160.5" transform="matrix(7.557722e-02 -0.9971 0.9971 7.557722e-02 539.728 912.1423)" class="st13" width="0.3" height="9"/>
	</g>
	<g>
		
			<rect x="761.6" y="162.1" transform="matrix(7.558225e-02 -0.9971 0.9971 7.558225e-02 538.0245 913.5735)" class="st13" width="0.3" height="9"/>
	</g>
	<g>
		
			<rect x="761.3" y="163.7" transform="matrix(7.559025e-02 -0.9971 0.9971 7.559025e-02 536.178 914.8261)" class="st13" width="0.3" height="9"/>
	</g>
	<g>
		<path class="st13" d="M765.9,163.4c-0.2,0-0.3,0-0.5,0c-0.8,0-1.5-0.8-1.5-1.7c0-0.5,0.2-0.8,0.5-1c0.3-0.3,0.7-0.3,1.2-0.3
			c0.8,0,1.5,0.8,1.5,1.7l0,0C767.1,162.6,766.6,163.3,765.9,163.4z M765.3,160.6c-0.2,0-0.3,0.2-0.5,0.3c-0.3,0.2-0.3,0.5-0.5,0.8
			c0,0.7,0.5,1.3,1.2,1.3s1.3-0.5,1.3-1.2l0,0c0-0.7-0.5-1.3-1.2-1.3C765.6,160.6,765.4,160.6,765.3,160.6z"/>
	</g>
	<polygon class="st14" points="766.4,170.9 766.6,169.3 767.8,169.3 	"/>
	<polygon class="st13" points="776.3,157.6 777,171.4 789.6,170.8 789.3,166.9 	"/>
	<polygon class="st7" points="776.3,157.6 777.6,171.4 788.6,170.3 789.6,168.4 788.6,156.4 	"/>
	<g>
		
			<rect x="778.2" y="160.5" transform="matrix(0.9938 -0.1115 0.1115 0.9938 -13.0427 88.0253)" class="st13" width="4.7" height="0.3"/>
	</g>
	<g>
		
			<rect x="778.4" y="161.9" transform="matrix(0.9958 -9.202549e-02 9.202549e-02 0.9958 -11.6037 72.554)" class="st13" width="5.2" height="0.3"/>
	</g>
	<g>
		
			<rect x="778.5" y="163.6" transform="matrix(0.9957 -9.256666e-02 9.256666e-02 0.9957 -11.8038 73.0247)" class="st13" width="5.7" height="0.3"/>
	</g>
	<g>
		
			<rect x="778.5" y="164.9" transform="matrix(0.9964 -8.518673e-02 8.518673e-02 0.9964 -11.2189 67.3021)" class="st13" width="9" height="0.3"/>
	</g>
	<g>
		
			<rect x="778.7" y="166.4" transform="matrix(0.9964 -8.518174e-02 8.518174e-02 0.9964 -11.3455 67.317)" class="st13" width="9" height="0.3"/>
	</g>
	<g>
		
			<rect x="778.8" y="168.1" transform="matrix(0.9964 -8.517374e-02 8.517374e-02 0.9964 -11.4858 67.3313)" class="st13" width="9" height="0.3"/>
	</g>
	<g>
		<path class="st13" d="M786.8,162.8c-0.2,0-0.3,0.2-0.5,0.2c-0.8,0-1.7-0.7-1.7-1.5c0-0.5,0.2-0.8,0.3-1.2c0.3-0.3,0.7-0.5,1.2-0.5
			c0.8,0,1.7,0.7,1.7,1.5l0,0C787.8,161.9,787.5,162.6,786.8,162.8z M785.8,160.1c-0.2,0-0.3,0.2-0.5,0.3c-0.2,0.3-0.3,0.5-0.3,0.8
			c0,0.7,0.7,1.2,1.3,1.2c0.7,0,1.2-0.7,1.2-1.3l0,0c0-0.7-0.7-1.2-1.3-1.2C786,160.1,785.8,160.1,785.8,160.1z"/>
	</g>
	<polygon class="st14" points="788.6,170.3 788.5,168.4 789.6,168.4 	"/>
	<polygon class="st13" points="767.3,178.6 766.9,192.6 779.6,192.8 779.6,189 	"/>
	<polygon class="st7" points="767.3,178.6 767.6,192.6 778.6,192.1 779.8,190.5 779.8,178.4 	"/>
	<g>
		
			<rect x="769" y="181.8" transform="matrix(0.9992 -4.066828e-02 4.066828e-02 0.9992 -6.7618 31.5186)" class="st13" width="4.7" height="0.3"/>
	</g>
	<g>
		
			<rect x="769" y="183.3" transform="matrix(0.9998 -2.108151e-02 2.108151e-02 0.9998 -3.6962 16.3064)" class="st13" width="5.2" height="0.3"/>
	</g>
	<g>
		
			<rect x="769" y="185" transform="matrix(0.9998 -2.161998e-02 2.161998e-02 0.9998 -3.8221 16.73)" class="st13" width="5.7" height="0.3"/>
	</g>
	<g>
		
			<rect x="768.9" y="186.5" transform="matrix(0.9999 -1.421625e-02 1.421625e-02 0.9999 -2.575 11.0145)" class="st13" width="9" height="0.3"/>
	</g>
	<g>
		
			<rect x="768.9" y="188.1" transform="matrix(0.9999 -1.421120e-02 1.421120e-02 0.9999 -2.5978 11.0107)" class="st13" width="9" height="0.3"/>
	</g>
	<g>
		
			<rect x="768.9" y="189.6" transform="matrix(0.9999 -1.420312e-02 1.420312e-02 0.9999 -2.6177 11.0046)" class="st13" width="9" height="0.3"/>
	</g>
	<g>
		<path class="st13" d="M777.5,184.6c-0.2,0-0.3,0-0.5,0c-0.8,0-1.7-0.7-1.7-1.7c0-0.5,0.2-0.8,0.5-1.2c0.3-0.3,0.7-0.5,1.2-0.5
			c0.8,0,1.7,0.7,1.7,1.7l0,0C778.5,183.8,778.1,184.5,777.5,184.6z M776.6,182c-0.2,0-0.3,0.2-0.5,0.3s-0.3,0.5-0.3,0.8
			c0,0.7,0.5,1.2,1.2,1.2s1.2-0.5,1.2-1.2l0,0c0-0.7-0.5-1.2-1.2-1.2C776.8,182,776.6,182,776.6,182z"/>
	</g>
	<polygon class="st14" points="778.6,192.1 778.6,190.5 779.8,190.5 	"/>
	<polygon class="st7" points="713.9,155.1 713.9,190.8 744.6,190.6 746.4,186 747.1,154.6 	"/>
	<g>
		<path class="st5" d="M724.4,170.8c-2.2,0-4-1.8-4-4c0-2.2,1.8-4,4-4c2.2,0,4,1.8,4,4C728.2,169.1,726.6,170.8,724.4,170.8z
			 M724.4,163.8c-1.7,0-3.2,1.3-3.2,3.2c0,1.7,1.3,3.2,3.2,3.2c1.7,0,3.2-1.3,3.2-3.2C727.6,165.1,726.1,163.8,724.4,163.8z"/>
	</g>
	<circle class="st5" cx="736.2" cy="166.9" r="3.5"/>
	<g>
		
			<rect x="718" y="175.8" transform="matrix(0.9999 -1.074202e-02 1.074202e-02 0.9999 -1.8507 7.8125)" class="st5" width="16.7" height="0.8"/>
	</g>
	<g>
		
			<rect x="718.1" y="180" transform="matrix(1 -6.835618e-03 6.835618e-03 1 -1.2159 4.9948)" class="st5" width="24" height="0.8"/>
	</g>
	<g>
		
			<rect x="718.6" y="183.8" transform="matrix(0.9993 -3.809450e-02 3.809450e-02 0.9993 -6.4872 27.9555)" class="st5" width="23.5" height="0.8"/>
	</g>
	<polygon class="st13" points="713.7,155.1 713.7,191.8 746.1,192.1 746.4,186 745.4,188.3 744.6,190.6 713.9,190.8 	"/>
	<rect x="800.2" y="137.4" class="st5" width="32.2" height="37.1"/>
	<polygon class="st7" points="832.4,169.4 829.4,173.1 800.2,173.1 800.2,137.4 832.4,137.4 	"/>
	<polygon class="st12" points="829.4,173.1 829.2,168.3 832.4,168.3 832.4,169.4 	"/>
	<g>
		
			<rect x="804.5" y="140.7" transform="matrix(0.9993 -3.710236e-02 3.710236e-02 0.9993 -4.6748 30.2085)" class="st5" width="14.2" height="0.7"/>
	</g>
	<g>
		
			<rect x="804.4" y="157.9" transform="matrix(0.9998 -1.757621e-02 1.757621e-02 0.9998 -2.6553 14.3703)" class="st5" width="23.5" height="0.7"/>
	</g>
	<g>
		
			<rect x="804.5" y="166.3" transform="matrix(0.9999 -1.367069e-02 1.367069e-02 0.9999 -2.2012 11.1744)" class="st5" width="23.5" height="0.7"/>
	</g>
	<g>
		
			<rect x="816" y="151.1" transform="matrix(8.795657e-03 -1 1 8.795657e-03 646.4586 977.6344)" class="st5" width="0.7" height="23.2"/>
	</g>
	<rect x="804" y="145.9" class="st5" width="2.5" height="8.8"/>
	<rect x="809.5" y="146.4" class="st5" width="2.5" height="8.5"/>
	<rect x="814.8" y="150.2" class="st5" width="2.2" height="4.7"/>
	<rect x="820.2" y="151.4" class="st5" width="2.3" height="3.5"/>
</g>
<g>
	<g>
		<g>
			<path class="st15" d="M126.6,296.4c-0.6,0.6-2.8-0.4-3.6-1.2c-0.6-1-2-2.6-2.8-3.8c-1.6-2.6-3.8-4.8-6.5-6.3
				c-8.1-4-16.3-0.4-24.8-0.4c-2.6,0.2-5.2-0.6-7.5-1.8c-1.6-1-2.8-2.2-4-3.6c-0.6-0.8-1-2.6-1.6-3.4c-1.4-1.8-4.2-0.6-6.5-0.6
				c-4.2,0.4-8.3,0-12.3-1.2c-1.6-0.4-3.2-0.8-1.8-2.4c1.6-1,3.4-1.6,5.4-2c3-1,6.1-1.8,9.3-2c5.6-0.8,11.5-0.6,17.1,0.4
				c4.2,1,7.7,4,11.7,5.2c3,0.8,6.1-0.4,8.9,0.2c4.4,1,9.5,1.8,13.1,4.8c3.6,3.6,5.4,8.7,5.2,13.9
				C126.4,292.4,126.6,296.2,126.6,296.4z"/>
		</g>
		<g class="st2">
			<path class="st4" d="M121.2,267.8c0-1.4,0-2.8,0.2-4.2c1.2-6.3-0.4-12.9-4.6-17.8c-1.6-1.6-3.2-2.4-3.8-4.8c-0.8-3-2.6-5.6-5-7.5
				c-3.8-3-9.1-4.8-12.5-8.5c-2.4-2.6-3.2-6.5-5.4-9.3c-2.6-3.4-6.5-5.6-10.7-6.5c-1.2-0.2-4-0.6-4.8,0.4c-2.2,1.8,0.6,7.5,1.6,9.3
				c4.8,9.1,10.9,17.6,17.8,25.2c1.4,1.4,2.8,2.8,4.4,4c0.4,0.4,0.8,0.4,1,1c1.2,1.6,1,4.4,2.2,6.3c2.4,3.6,7.1,4.6,10.7,7.1
				c1,0.8,1.8,1,2,2.4C114.1,265,121,276.3,121.2,267.8z"/>
		</g>
		<g class="st2">
			<path class="st4" d="M132.7,303.9c0.4,0.4,0.8,0.6,1.4,0.8c1.2,0.2,2.4,0.4,3.6,0.2c1,0,2-0.2,3-0.6s2-0.4,3-0.4
				c1,0,2.2-0.2,3.2-0.6c2-0.4,4.2-0.4,6.3,0c2,0.2,4,0,5.9,0.2c1.4,0.2,2.8,0.2,4.2,0c-0.2-1-2.6-1.4-3.4-2
				c-0.8-0.4-0.6-0.8-1.2-1.4c-1.6-1.2-4.2-0.4-6.1-1.4c-0.2,0-0.2-0.4-0.4-0.6c-1-0.4-2.2-0.8-3.4-0.6c-2,0-5,0.6-6.9-0.4
				c0,0,0-0.4-0.4-0.6c-0.8-0.2-1.4-0.2-2.2,0c-3.4,0.2-6.7,2-8.7,4.8C130.5,301.5,130.3,302.5,132.7,303.9z"/>
		</g>
		<g class="st2">
			<path class="st4" d="M127,287.8c-0.2-0.4-2-1.2-2.4-1.8c-0.2-0.8-0.8-1.6-1.4-2.2c-0.8-0.6-1.8-1-2.6-1.4c-1-0.4-1.8-1-2.4-1.6
				c-0.8-0.8-1.8-1.2-2.8-1.6c-1.8-0.6-3.4-2.8-4.6-4s-3-2.4-4.4-3.8c-0.8-1-2-2-3.2-2.6c-0.6,0.8,1,2.8,1.4,3.8c0.2,1,0,1,0,1.8
				c0.4,2,3,3,3.8,4.8c0,0.2-0.2,0.6,0,0.8c0.4,1,1.2,2,2.2,2.8c1.4,1.4,4.4,2.8,5,4.6c0,0.2-0.2,0.4-0.2,0.6c0,0.2,1.2,1,1.6,1.4
				c2.8,2,6.5,5.2,9.9,4.4C127.2,292,127.4,289.8,127,287.8z"/>
		</g>
		<g class="st2">
			<path class="st4" d="M135.9,294c2.2,1.4,5,2.2,7.7,2c1.6,0.2,3.4,0,4.8-0.6c0.2-0.2,0.6-0.4,0.8-0.6c1-0.4,2-0.6,3.2-0.4
				c2.8,0,5.6,0.2,8.5,0.4c2,0.4,4,0.6,6.1,0.4c1.4-0.2,0.6-0.6,0.2-1.2c-0.4-0.8,0.2-1,0.6-1.6c0.6-1.2-1.6-1.4-2.4-1.6
				c-1.6-0.4-3.4-0.6-5-1c-0.8,0-1.4-0.2-2-0.6c-0.2-0.2-0.4-0.6-0.6-0.8c-1.2-1-3.4-0.8-4.8-0.8c-2.6,0-5.2-0.2-7.7-0.6
				c-1.2-0.2-2.4,0-3.4,0.6c-1.4,0.4-2.8,1.2-4,2c-0.6,0.4-2,1.2-2.4,2C134.7,292.8,135.1,293.6,135.9,294z"/>
		</g>
		<g class="st2">
			<path class="st4" d="M131.9,296.8c0.8-7.1,4.8-12.1,9.3-17.1c3.4-3.6,9.3-4.8,13.9-5.4c3.8-0.4,10.3-1.2,13.7,0.4
				c-0.8,2.4-2,4.6-3.8,6.5c-1.4,2-3.4,1.6-5.9,2.8s-3.8,3.4-6.9,3.8c-4.6,0.8-10.3-0.8-14.5,1.8c-2.6,1.6-3,5.9-6.1,7.3
				L131.9,296.8z"/>
		</g>
		<g class="st2">
			<path class="st4" d="M133.3,282.3c4.8,0,9.5-2.4,12.1-6.5c2.6-4.2,8.9-3.2,12.3-6.9c1-1.4,2.2-2.8,3.4-4c2.6-1.6,5.2-2.6,8.3-3.4
				c3.4-1.6,23.2-12.5,16.9-15.9c-3-1.8-8.7-0.6-12.1-0.6h-8.5c-5.9,0-11.7,1.4-16.9,4.2c-2.6,1.4-5.2,2.8-7.9,3.8
				c-4.2,1.4-8.3,3.4-10.5,7.9c-2.6,5.6,0.6,13.3,0.4,19.4c0,1.2,1,2,2,2C133.1,282.3,133.1,282.3,133.3,282.3z"/>
		</g>
		<g class="st2">
			<path class="st4" d="M130.3,270c-1.4-1.8-2-4.2-1.8-6.5c0.4-5.6,2.8-10.9,6.9-14.9c5.4-6.3,13.7-8.3,19-14.5s12.3-4.2,19.4-3.8
				h7.5c1,0,4.8-0.6,5.4,0.2c1.8,1.8-4.6,5.2-6.3,6.5c-5.2,4.2-11.5,7.5-18.2,9.3c-1.6,0.4-3,1.2-4.4,2.2c-2.4,1.4-5,2-7.7,1.8
				c-3.4,0-7.9-1-9.5,2.8c-0.8,1.6-1.8,3.2-2.8,4.6c-3.4,4.8-2.8,10.1-6.3,14.3L130.3,270z"/>
		</g>
		<g class="st16">
			<path class="st4" d="M132.7,283.9c0.8-3-0.2-5.9-0.2-8.9s0.6-6.5,0.8-9.5c0.8-9.5-0.4-20.8,8.7-26.6c3.4-2.2,5.4-2.8,7.5-6.7
				c3-5.2,6.5-10.3,10.1-15.1c1-1.4,1-3.2,1.8-4.4c0.8-1.2,3.6-1.6,4.2-3.2c0.2-2-0.2-4-1-5.9c-1.4-2.2-3.6-1.4-6.5-0.8
				c-5.4,1-10.7,2.8-15.5,5.4c-4.4,2.4-6.5,5.9-10.1,9.3c-1.4,1.4-3.2,2-4.4,3.6c-2.4,3.4-3.4,7.7-2.8,11.7c1,9.5,1.4,18.6,1.4,28.2
				c0.2,5.6,0.8,11.1,2,16.5c0.4,1.8,1,6.1,2.8,6.7C131.7,284.5,132.3,285.1,132.7,283.9z"/>
		</g>
		<path class="st13" d="M127.4,309.1c0.2-3.8,0-7.7-0.4-11.5c-0.6-8.5-2.6-16.7-5.6-24.6c-0.8-2-1.8-4.2-2.8-6.3c-0.6-1-1.2-2-1.8-3
			c-0.6-1-1.2-1.8-1.8-2.6c-0.6-0.8-1.2-1.8-2-2.4c-0.8-0.8-1.4-1.6-2-2.2c-0.6-0.6-1.4-1.4-2-2c-0.8-0.6-1.4-1.2-2-1.6
			c-0.8-0.4-1.4-1-2-1.4l-2-1.2c-1.2-0.6-2.4-1.2-3.2-1.6l-3-1.2l0,0l3,1c1,0.4,2,0.8,3.2,1.6c0.6,0.4,1.2,0.6,2,1
			c0.8,0.4,1.4,0.8,2,1.4c0.8,0.4,1.4,1,2.2,1.6c0.8,0.6,1.4,1.2,2.2,2c0.8,0.6,1.4,1.4,2,2.2c0.8,0.8,1.4,1.6,2,2.4
			c0.6,0.8,1.2,1.8,1.8,2.6c0.6,1,1.2,2,1.8,2.8c1,2,2,4.2,2.8,6.3c0.8,2.2,1.6,4.2,2.2,6.5c0.6,2.2,1.2,4.4,1.6,6.5
			c0.4,2,0.8,4.2,1,6.3c0.2,2,0.4,3.8,0.6,5.4c0.6,6.9,0.8,12.9,0.8,12.9L127.4,309.1z"/>
		<path class="st13" d="M139.9,227.4c0,0-0.8,1.2-1.8,3.2c-0.6,1-1.2,2.4-1.8,3.8c-0.4,0.8-0.6,1.6-1,2.4c-0.4,1-0.6,1.8-1,2.8
			s-0.6,2-1,3c-0.2,1-0.6,2.2-0.8,3.2c-0.2,1-0.6,2.2-0.8,3.4c-0.2,1.2-0.4,2.4-0.6,3.6c-0.2,1.2-0.4,2.4-0.4,3.8
			c0,1.4-0.2,2.6-0.2,3.8c0,1.4,0,2.6,0,4l0.2,4c0.2,2.6,0.6,5.4,1,8.1c0.4,2.6,0.8,5.2,1,7.7c0.4,2.4,0.4,4.8,0.2,7.5
			c-0.2,2.2-0.8,4.4-1.6,6.5c-0.6,1.8-1.4,3.6-2.2,5c-0.8,1.4-1.4,4.8-2,5.9c-1.2,2-1.6,1-1.6,1l0,0l1.6-3.4c0.4-1,1.2-2.4,1.8-3.8
			c0.8-1.6,1.4-3.4,2-5c0.8-2,1.2-4.2,1.4-6.3c0.2-2.4,0-4.8-0.2-7.3c-0.2-2.4-0.6-5-1-7.7c-0.4-2.6-0.6-5.2-1-8.1
			c0-1.4-0.2-2.6-0.2-4s0-2.6,0-4c0-1.4,0.2-2.6,0.2-4c0-1.2,0.4-2.4,0.4-3.8c0.2-1.4,0.4-2.4,0.6-3.6c0.2-1.2,0.6-2.4,0.8-3.4
			c0.2-1,0.6-2.2,1-3.2c0.2-1,0.6-2,1-3c0.4-1,0.6-1.8,1-2.6c0.4-0.8,0.8-1.6,1-2.4c0.6-1.4,1.2-2.8,1.8-3.8
			C138.7,229.7,139.3,228.6,139.9,227.4L139.9,227.4z"/>
		<path class="st13" d="M151,240.8c0,0-0.6,0.2-1.8,0.6c-1.4,0.6-2.8,1.4-4.2,2.2c-2,1.2-3.8,2.6-5.4,4.2c-0.8,1-1.6,1.8-2.4,2.8
			c-0.8,1-1.6,2.2-2.2,3.4c-0.6,1.2-1.2,2.4-1.8,3.6c-0.2,0.6-0.4,1.2-0.6,1.8c-0.2,0.6-0.4,1.2-0.4,1.8l-0.4,1.8
			c0,0.6-0.2,1.2-0.2,1.8s-0.2,1.2-0.2,1.6c0,0.6,0,1,0,1.6c0,1,0,2,0,2.8s0,1.6,0,2.2c0,1.2,0,1.8,0,1.8l0,0c0,0,0-0.6-0.2-1.8
			c-0.2-0.8-0.2-1.4-0.2-2.2c0-1,0-1.8,0-2.8c0-0.6,0-1,0-1.6s0-1.2,0-1.6c0-1.2,0.4-2.4,0.6-3.6c0.2-0.6,0.4-1.2,0.6-1.8
			c0.2-0.6,0.4-1.2,0.6-1.8c0.4-1.2,1-2.4,1.8-3.6c0.6-1.2,1.4-2.2,2.2-3.4c0.8-1,1.6-2,2.6-2.8c1.6-1.6,3.4-3,5.4-4.2
			c1.4-0.8,2.8-1.6,4.4-2.2C150.2,241,151,240.8,151,240.8L151,240.8z"/>
		<path class="st13" d="M142.6,260.1c-0.4,0.2-0.6,0.4-1,0.6c-0.4,0.2-0.8,0.6-1,0.8c-0.4,0.4-0.8,0.8-1.2,1.2l-0.6,0.8
			c-0.2,0.2-0.4,0.6-0.6,0.8c-0.4,0.6-0.8,1.2-1.2,2c-0.4,0.8-0.8,1.4-1,2.2c-0.2,0.8-0.4,0.8-0.4,1.2c-0.2,0.4-0.2,0.8-0.4,1.2
			l-0.4,1.2c0,0.4-0.2,0.8-0.2,1.2l-0.2,1.2c0,0.4,0,0.8-0.2,1.2c0,0.8-0.2,1.6-0.4,2.2c0,0.8-0.2,1.4-0.2,2c-0.2,1.2-0.2,2.4-0.2,3
			c0,0.8,0,1.2,0,1.2l0,0c0,0,0-0.4,0-1.2c0-0.4,0-0.8,0-1.4s0-1.2,0-1.8c0-0.6,0-1.4,0.2-2c0.2-0.8,0.2-1.6,0.4-2.4
			c0-0.4,0-0.8,0.2-1.2c0.2-0.4,0.2-0.8,0.4-1.2c0-0.4,0.2-0.8,0.4-1.2l0.4-1.2c0.2-0.4,0.2-0.8,0.4-1.2l0.6-1.2
			c0.4-0.8,0.6-1.6,1.2-2.2c0.4-0.6,0.8-1.4,1.2-2c0.2-0.2,0.4-0.6,0.6-0.8c0.2-0.2,0.4-0.6,0.6-0.8c0.4-0.4,0.8-0.8,1.2-1.2
			c0.4-0.4,0.8-0.6,1-0.8C142,260.5,142.4,260.3,142.6,260.1L142.6,260.1z"/>
		<path class="st13" d="M154.1,283.3c-0.4-0.2-0.8-0.2-1.2-0.2s-0.8-0.2-1.4-0.2c-0.6,0-1.2,0-1.8,0c-0.8,0-1.4,0.2-2,0.4
			c-0.8,0.2-1.6,0.4-2.2,0.8l-1.2,0.6l-0.6,0.2l-0.6,0.4l-1,0.6c-0.4,0.2-0.6,0.6-1,0.8l-1,0.8c-0.4,0.2-0.6,0.6-1,1
			c-0.2,0.4-0.6,0.6-1,0.8c-0.4,0.2-0.6,0.6-0.8,1c-0.2,0.2-1,1.2-1.6,1.8l-1.2,1.6c-0.4,0.4-0.8,1-1,1.4c-0.2,0.4-0.6,0.8-0.8,1.2
			l-0.6,1l0,0l0.6-1c0.2-0.4,0.4-0.8,0.6-1.2c0.2-0.6,0.6-1,1-1.6l1.2-1.8c0.4-0.6,1-1.2,1.6-1.8l0.8-1l1-0.8l1-1l1-0.8
			c0.4-0.2,0.6-0.6,1-0.8l1.2-0.6l0.6-0.4l0.6-0.2l1.2-0.6c0.8-0.2,1.4-0.6,2.2-0.6c0.6-0.2,1.4-0.2,2.2-0.4c0.6,0,1.2,0,1.8,0
			c0.4,0,1,0,1.4,0.2L154.1,283.3L154.1,283.3z"/>
		<path class="st13" d="M149.8,292.2c-0.2-0.2-0.4-0.4-0.4-0.4c-0.4-0.4-1-0.6-1.6-0.8c-0.4-0.2-0.8-0.2-1.2-0.2s-0.8-0.2-1.2-0.2
			H144c-0.4,0-1,0.2-1.4,0.2s-1,0.2-1.4,0.2c-0.4,0-1,0.2-1.4,0.4c-0.8,0.2-1.6,0.4-2.4,0.6c-0.8,0.2-1.2,0.4-1.6,0.4l-0.6,0.2l0,0
			l0.6-0.2c0.2-0.2,0.4-0.2,0.6-0.4l1-0.4l1-0.4c0.4-0.2,0.8-0.2,1.2-0.4c0.4,0,1-0.2,1.4-0.2l1.4-0.2c0.4,0,1,0,1.4,0
			c0.4,0,1,0,1.4,0c0.4,0,0.8,0,1.4,0.2c0.4,0,0.8,0.2,1.2,0.4c0.6,0.2,1,0.4,1.6,0.8C149.4,292,149.6,292,149.8,292.2L149.8,292.2z
			"/>
		<path class="st13" d="M142.6,299.7c-0.6-0.2-1.4-0.4-2-0.6c-0.6-0.2-1.4-0.2-2-0.2c-0.8,0-1.6,0-2.4,0.2c-0.4,0-0.8,0.2-1.2,0.4
			c-0.4,0-0.8,0.2-1.2,0.4c-0.4,0.2-0.6,0.4-1,0.4c-0.4,0.2-0.6,0.2-0.8,0.4c-0.2,0.2-0.4,0.2-0.8,0.4c-0.2,0.2-0.4,0.2-0.6,0.4
			l-0.4,0.2l0,0l0.4-0.4l0.6-0.4c0.2-0.2,0.4-0.4,0.6-0.6c0.2-0.2,0.6-0.4,0.8-0.6c0.4-0.2,0.6-0.4,1-0.4c0.4-0.2,0.8-0.2,1.2-0.4
			l1.2-0.2c0.8,0,1.6,0,2.4,0c0.8,0,1.4,0.2,2.2,0.2C141.4,299.3,142,299.5,142.6,299.7L142.6,299.7z"/>
		<path class="st13" d="M108.1,266.4c0,0,1.2,0.2,2.8,0.4c0.8,0.2,1.8,0.4,2.8,0.8l1.6,0.6c0.6,0.2,1,0.6,1.6,0.8
			c0.6,0.2,1,0.6,1.4,0.8c0.4,0.2,1,0.6,1.4,1c0.4,0.4,0.8,0.8,1,1c0.2,0.4,0.6,0.8,0.8,1l0.6,1c0.2,0.2,0.2,0.6,0.4,0.8l0.2,0.8
			l0,0l-0.4-0.6c-0.2-0.2-0.2-0.4-0.4-0.8l-0.6-1c-0.2-0.4-0.6-0.6-0.8-1c-0.4-0.4-0.6-0.8-1-1c-0.4-0.4-0.8-0.6-1.2-1
			c-0.4-0.4-1-0.6-1.4-1c-0.4-0.2-1-0.6-1.4-0.8c-0.4-0.2-1-0.4-1.4-0.6c-1-0.4-2-0.6-2.8-0.8C109.9,266.8,109.1,266.6,108.1,266.4
			L108.1,266.4z"/>
		<path class="st13" d="M103,278.1c1.8,0,3.6,0.2,5.2,0.6c3.8,0.6,7.5,2.2,10.7,4.4c0.8,0.6,1.6,1.2,2.4,2c0.8,0.8,1.4,1.4,2,2.4
			c0.6,0.8,1,1.6,1.4,2.4c0.4,0.8,0.8,1.6,1,2.4c0.2,0.8,0.4,1.4,0.6,2c0.2,0.6,0.2,1,0.4,1.6c0.2,1,0.2,1.4,0.2,1.4l0,0
			c0,0,0-0.6-0.2-1.4c0-0.4-0.2-1-0.4-1.6s-0.4-1.2-0.8-2c-0.2-0.8-0.6-1.4-1-2.2c-0.4-0.8-1-1.6-1.4-2.4c-0.6-0.8-1.2-1.6-2-2.2
			c-0.8-0.8-1.4-1.4-2.2-2c-3-2.2-6.7-3.8-10.5-4.6C106.7,278.5,104.8,278.1,103,278.1L103,278.1z"/>
		<g class="st2">
			<path class="st4" d="M118,274.6c-5.4,0-13.5-5.4-18-9.3c-4.8-4.2-3.2-8.9-4-14.5c-1-7.9-11.1-15.3-2.4-23.2
				c5.9-5,3.8,5.4,4.2,9.5c0.8,7.3,3.6,13.9,8.1,19.8c3.4,4.2,12.3,9.3,11.9,15.5"/>
		</g>
	</g>
	<g>
		<path class="st17" d="M137.7,342.6h-23c-0.4,0-0.6-0.2-0.6-0.6l-3.8-29.7c-0.2-0.4,0.2-0.8,0.6-0.8h30.3c0.4,0,0.8,0.4,0.6,0.8
			l-3.2,29.7C138.3,342.4,138.1,342.6,137.7,342.6z"/>
	</g>
	<path class="st18" d="M141.8,312.8h-31.7c-0.6,0-1-0.4-1-1v-1.6H143v1.6C143,312.4,142.4,312.8,141.8,312.8z"/>
	<g>
		<rect x="101" y="342.6" class="st13" width="50" height="0.4"/>
	</g>
</g>
<line class="st19" x1="545.4" y1="393.4" x2="578.3" y2="393.4"/>
<line class="st20" x1="177.6" y1="208.6" x2="244.8" y2="208.6"/>
<g>
	<path class="st21" d="M689.2,224.4c-1.4,0-8.6,0.5-19.7,0.2c-15.1-0.2,20.7,5.3,18.8,4.6c-2.8-0.9-5.6-0.9-8.4-0.9
		c-1.6,0-3,0.2-4.4,0.2c-1.4,0-4.4,0.2-8.4,0.5c-9.8-0.5-21.4-1.4-23.5-2.1c-3-0.9-6-0.9-9.1-0.9c-1.6,0-3.3,0.2-4.9,0.2
		c-5.6,0.2-59.2,3.7-64.6,3h-5.6c-7,0.7-34.1,0.7-43.9,0c-1.4,0.7-13.2-0.2-15.8,0c-1.9,0.2,8.8,3.9,16.3,6.5
		c3.5,0,16.7,0.7,18.8,1.2c2.3,0.5,4.4,1.4,6.5,2.1c13.7,5.1,30.9,10.5,45.1,10.5c10.2,0,16.3-4.6,26.2-4.4c1.6,0,3.5-0.2,5.3-0.9
		c5.8,0.2,11.6,0,17.2,0c18.6,0,10.5,9.1,17,9.3c7,0,23-2.8,29.5-4.2c4.9-0.9,9.5-4.2,14.4-4.2c2.8,0,41.3-7.4,43.7-8.6
		C743.3,234.9,698,224.4,689.2,224.4z"/>
	<path class="st22" d="M526.6,277.6c-1.6,0-10.5,0.5-24.2,0.2c-18.3-0.2,25.3,5.3,23,4.6c-3.3-0.9-6.7-0.9-10.2-0.9
		c-1.9,0-3.7,0.2-5.6,0.2c-1.6,0-5.3,0.2-10.2,0.5c-12.1-0.5-26.2-1.4-28.8-2.1c-3.7-0.9-7.4-0.9-11.1-0.9c-2.1,0-4.2,0.2-6,0.2
		c-3.3,0-14.4,2.3-31.6,3c-18.8,0.9-43.9,0.2-47.4-0.2h-6.7c-8.6,0.7-41.8,0.7-53.7,0c-1.9,0.7-16-0.2-19.5,0
		c-2.3,0.2,10.9,3.9,19.7,6.5c4.2,0,20.4,0.7,23,1.2c2.8,0.5,5.3,1.4,7.9,2.1c16.7,5.1,37.6,10.5,55,10.5c12.3,0,20-4.6,32.1-4.4
		c2.1,0,4.4-0.2,6.5-0.9c7.2,0.2,14.2,0,20.9,0c22.5,0,13,9.1,20.7,9.3c8.4,0,28.1-2.8,36-4.2c6-0.9,11.6-4.2,17.7-4.2
		c3.3,0,50.4-7.4,53.4-8.6C592.8,288.1,537.3,277.6,526.6,277.6z"/>
	<path class="st21" d="M516.1,487.1c12.1-0.7,86.6-6.5,93.1-5.8h6.7c8.6-0.7,41.8-0.7,53.7,0c1.9-0.7,16,0.2,19.5,0
		c2.3-0.2-10.9-3.9-19.7-6.5c-4.2,0-6.5-2.8-9.1-3.3c-2.8-0.5-5.3-1.4-7.9-2.1c-16.7-5.1-15.1-7.2-32.5-7.2
		c-12.3,0-56.4,3.7-68.5,3.5c-2.1,0-4.4,0.2-6.5,0.9c-7.2-0.2-14.2,0-20.9,0c-22.5,0-14.2-1.2-22.1-1.4c-8.4,0-32.5-1.4-49.7,1.4
		c-5.8,0.9-27.4,1.9-33.4,2.8c-13.5,2.1-28.8,3.3-22.8,4.9c13.7,4.9,50.9,11.4,61.3,11.4c1.6,0,10.5-0.5,24.2-0.2
		c15.3,0.2,25.1,0.7,29,1.2l3.7,0.5C514.5,487.1,515.4,487.1,516.1,487.1z"/>
	<g>
		<g>
			<rect x="378.2" y="284.3" class="st23" width="19.7" height="0.7"/>
		</g>
		<g>
			<g class="st2">
				<polygon class="st24" points="436.7,278.8 436.5,278.8 436.7,277.6 420.9,268.8 420.9,268.5 437.2,277.4 				"/>
			</g>
			<g class="st2">
				<polygon class="st24" points="417.9,277.8 417.7,277.4 433.7,268.3 433.9,268.8 				"/>
			</g>
			<polygon class="st24" points="412.8,287.4 414.9,287.6 421.4,268.5 419.5,267.8 			"/>
			<polygon class="st24" points="442.1,287.6 439.7,287.6 433,267.8 434.8,267.4 			"/>
			<path class="st25" d="M399.8,259.7c0,0,6.3-38.3,17.4-38.6c7.2-0.7,14.6-0.9,21.8-0.2c3.3,0.2,6,2.1,7.2,5.1
				c5.1,10.2,8.4,21.1,10.2,32.3c0,0.7,0.5,1.4,0.7,2.1c0,0,0.9,1.6-0.2,2.3c-0.9-0.2-1.9,0-2.6,0.5c-1.4,0.7-22.5,17.7-48.8,2.6
				l-2.3-1.4c-0.7-0.5-1.4-0.9-2.1-1.2C401.4,263.4,397.9,263.4,399.8,259.7z"/>
			<path class="st26" d="M405.1,249.5c0,0,4.9-24.2,8.4-25.1c3.5-0.9,6.7-3.3,27.2-1.6c1.9,0.2,3.3,1.4,3.7,3
				c4.4,9.1,7.4,18.8,9.3,28.6c0,0,0.9,6.3-0.7,7.2l-6.5,2.8c0,0,2.6-0.7,1.6-7.7c-0.9-7-2.3-10.7-7.4-14.4
				c-5.1-3.5-10-4.9-11.4-7.4c-1.4-2.3-2.8-6.7-7-6.5c-4.2,0.2-7.4,1.2-9.5,7.4C413.2,236.3,407.9,248.3,405.1,249.5z"/>
		</g>
		<g>
			<path class="st27" d="M414.2,224.6c0,0,11.4,6.7,26.7-1.2c0,0,3.7,7,0.5,31.8c-3.3,25.1-1.6,48.5-1.6,48.5h-5.6l-5.8-66
				l-8.6,66.7H413C413,304.5,407.9,243.2,414.2,224.6z"/>
			<path class="st27" d="M439.7,301.5c0,0,1.9,2.8,3.5,3.7c2.8,1.6,2.1,3.9,0.5,4.6c-1.6,0.7-10.5,0-9.3-8.4
				C435.1,295.9,439.7,301.5,439.7,301.5z"/>
			<rect x="232.6" y="275.5" class="st25" width="133.3" height="79.7"/>
			<polygon class="st23" points="373.5,269.7 368,288.1 365.6,288.1 371.2,269 			"/>
			<path d="M442.3,282.2c0,0-0.9,4.4-2.1,5.1c-1.2,0.5-2.1,2.6-0.7,3.3s10.5,0,9.3-8.4C448.1,276.4,442.3,282.2,442.3,282.2z"/>
			<path class="st26" d="M350.5,209.1c0,0,6.3-9.3,16-11.6l11.6,9.1c0,0,9.3,3,10,17.9c0,0-3.9-1.2-10.7,2.8L350.5,209.1z"/>
			<path class="st28" d="M387.9,224.4c0,0,2.8,9.1,3.3,11.8c0.5,3.9,1.6,5.6,4.9,5.8l2.3,0.7l-11.1,7.9l-7.2-8.6l-2.3-14.9
				C377.5,227.2,383.5,223.5,387.9,224.4z"/>
			<path class="st25" d="M334.3,240c0,0-6.3-20.4,0-25.8c6.3-5.3,17.9-8.4,32.1,1.2c0,0,13.7,8.6,16.7,27.6c0,0,1.6,9.1,8.4,2.8
				s12.8-8.4,17.2-6.5c4.4,1.9,3,12.8-7.9,21.6c0,0-15.1,11.4-39,10.7C361.7,271.3,341,271.8,334.3,240z"/>
			<path class="st26" d="M301.1,253.9c0,0-3.3,3.3-11.8,3.7c0,0,4.4,42,3.9,44.6c-0.5,2.6-8.6,3.7-13,5.1c-2.8,0.7-9.3-0.5-9.3-0.5
				s-3.3-0.9-7.4,0.2c-6,1.9-11.8,8.1-10.9,24.2h112.2c0,0,10.2-9.8,7.9-25.1c0,0-4.2-13-4.9-18.1c-0.7-5.1,4.4-29-1.9-33.7
				c-5.6-4.4-3-3-27.2-0.5H301.1z"/>
			<path class="st28" d="M366.8,195.6c0,0-0.7,2.6-0.7,3.5s0,3.3,6,5.1c5.6,1.6,3.3-0.7,5.1-2.8c0,0,3.9,2.3,5.1-0.9
				c1.6-4.2,2.6-13,2.6-13c1.2-7-0.7-7.9-9.3-7.2c0,0-5.3,0.2-7.4,4.2c-0.7,1.2-0.9,2.6-0.7,3.9
				C367.5,189.6,367.7,192.6,366.8,195.6z"/>
			<g>
				<path class="st29" d="M564,278.3v-1.6c1.9,0,3.3-1.6,3.3-3.3c0-0.9-0.5-1.6-0.9-2.3c-0.7-0.7-1.4-0.9-2.3-0.9v-1.6
					c1.4,0,2.6,0.5,3.5,1.4c0.9,0.9,1.6,2.1,1.6,3.5C568.9,276,566.8,278.1,564,278.3z"/>
			</g>
			<path class="st28" d="M635.3,283.4c0,0,5.3-7.2,8.1-7.7c2.8-0.5,9.1,0.9,11.4,1.2c2.3,0.2,8.1,3.7,7.2,5.3
				S635.3,283.4,635.3,283.4z"/>
			<path class="st30" d="M701.7,283.9H646c-0.9,0-1.6-0.7-1.6-1.6l0,0c0-0.9,0.7-1.6,1.6-1.6h55.7c0.9,0,1.6,0.7,1.6,1.6l0,0
				C703.3,283.2,702.6,283.9,701.7,283.9z"/>
			<path class="st31" d="M489.7,375.4h-10.9l-0.7-69.4l0,0c6.7,0.5,9.5,15.3,9.5,21.8L489.7,375.4z"/>
			<path class="st27" d="M566.8,427.6c0,0,1.4,3.7,8.4,6.5c6.7,2.8,44.4,10,72.5-10c0,0,37.6-20.4,40.6-79.2c0,0,3.5-45.8-48.1-25.3
				c0,0-18.8,11.4-21.8,16.5L566.8,427.6z"/>
			<path class="st25" d="M457.4,261.8c0,0,0.2-2.3,7.4-2.8c0,0,9.8-2.1,12.5-3.5c2.8-1.4,13.5-6,14.4-8.1c1.2-2.1,0.9-8.4,7.7-14.9
				c6.7-6.5,11.1-17.2,14.2-20c3-2.8,7.7-7.7,10.5,0.9c2.8,8.6,6,21.6,5.3,27.2c-0.7,5.6,0.7,16.7-13.2,24.4c0,0-7,5.6-26.2,4.2
				c0,0-14.9,1.2-27.9-4.2C462,265.3,457.4,263.7,457.4,261.8z"/>
			<path class="st27" d="M447.6,248.8c0,0-12.3,18.6-12.5,18.8c-0.2,0.2-3.7,3.9,0.5,5.6c4.2,1.6,12.1-8.6,12.1-8.6L447.6,248.8
				L447.6,248.8z"/>
			<path class="st27" d="M463.4,418.6c0,0,3.7-0.7,3.9,10.5c0,3.9-0.2,7.2,0,10c0.2,2.8,0,6.7,0,6.7h-38.1l-0.9-12.1l3.3-10.9
				c0,0,8.1,1.2,10.7,0.9C445.1,423.7,461.6,417.2,463.4,418.6z"/>
			<path class="st26" d="M416.3,325c0,0-4.4,4.9,10,6c14.4,1.2,8.4-0.7,14.6-3.3c6-2.8,10.7-3.9,11.8-6c1.2-2.1,7.9-1.6,11.8-0.9
				c3.9,0.7,9.8,2.1,11.4,9.3s5.6,11.1,5.6,17.7c0,1.6,0.9,5.1,0.9,5.1l-17.7,66c-1.6,8.4,0.9,1.2-14.4,4.6
				c-15.3,3.7-35.3,0.9-35.3,0.9S400,376.8,390,373.1c-10-3.7-5.1-10.2-4.9-10.9c0.2-0.7,4.6-9.8,8.1-23.7
				c3.5-14.2,23.5-14.2,23.5-14.2c7.2-2.8,14.4-31.8,14.4-36c0-4.2,8.1-4.2,11.1-2.8c3,1.4,1.9,10,1.9,10c-3,18.6,8.8,23,13.2,24.4
				c4.2,1.6,7.7,5.1,8.4,8.8"/>
			<path class="st28" d="M439,284.3c-0.7,0.2-1.2,0.9-1.4,1.6c-0.7,1.6-2.1,5.3-2.1,10c0,5.8,3,16.3-2.6,20.2
				c-5.6,3.9-16.7,3.7-17.2,5.3c-0.5,1.6-1.4,5.8-1.4,6c0,0,1.9,6,11.8,5.8l9.1-0.2c0.7,0,1.2-0.2,1.6-0.5c2.1-1.4,7.4-4.6,8.1-5.1
				c0.7-0.5,4.4-1.2,6-2.8c1.6-1.6,1.6-0.7-1.9-2.8c-3.5-2.1-5.3-8.1-5.3-20C444.1,289,442.3,282.7,439,284.3z"/>
			<path class="st27" d="M413.2,301.1c0,0-0.9,4.2-2.1,5.1c-3.7,2.6-3.5,2.8-1.9,3.5c1.6,0.7,11.6,0,10.5-8.6
				C419.1,295.3,413.2,301.1,413.2,301.1z"/>
			<polygon class="st23" points="381.4,269 386.5,285 388.6,285 383.5,268.5 			"/>
			<polygon class="st23" points="387,267.4 399.5,292.7 402.6,292.7 389.3,266.5 			"/>
			<path class="st27" d="M409.5,355.2c0,0-0.9-1.4-1.4,1.6c-0.5,3-2.8,5.3-3.3,9.1c-0.5,3.7-1.2,10.9,4.6,10
				c5.8-0.9,9.8-3.9,17.2-0.7c7.4,3.3,14.6,0.7,14.9-2.1c0.2-2.8-15.8,1.4-22.8-4.4C411.9,362.8,412.1,358.4,409.5,355.2z"/>
			<path class="st27" d="M237,355.2c11.6-3.3,6.5-10.5,7.2-13.7c0.5-3.5,0.9-44.6,2.3-53.4c1.4-8.8-50.6-25.3-50.6-25.3
				s-21.6-7.9-29.3,3.9c0,0-5.6,8.1-1.6,30c0,0,3.7,19.3-3.7,41.3c0,0,0,0,0,0.2c-3.3,7.7,0,17,8.1,17.2L237,355.2z"/>
			<path class="st32" d="M217.9,246c0,0-9.3,1.4-11.4,3c-2.1,1.6-8.4,5.3-12.1,16.7c-3.7,11.4-5.1,14.2-6.3,16
				c-1.2,1.6-4.6,6.7-1.4,10.9c0,0,6,7.2,21.6,7.9c0,0,11.8-1.6,16.3-8.4c4.4-6.7,7.7-14.6,9.1-14.9c1.4-0.5,5.3,3,5.3,3
				s3.9-7.9,7.7-9.1l3.3-6.7c0,0-8.8-12.3-10.9-13C239.3,251.6,226.7,245.5,217.9,246z"/>
			<path class="st33" d="M239.5,279.5c0,0,6.7,5.6,13.7,5.3v-14.6l-4.4-4.6C249,265.5,238.6,276.2,239.5,279.5z"/>
			<path class="st34" d="M241.6,263.4c0,0-2.8-5.3,0.9-5.3h46.9l3.3,35.8l-39.5-0.9L241.6,263.4z"/>
			<path d="M262.3,350.8c0,0-0.5-0.9-0.5,4.9c0,5.8,5.1,7,4.4,14.2c-0.7,7.2-0.5,17.4-11.4,23.7c-10.9,6.3-13,34.8-17.4,36.9
				c-4.4,2.1-4.2,16.3-4.2,16.3H224c0,0-3.5-16,3.3-29.7c6.5-13.7,1.4-30.4,10.5-39.5c8.8-9.1,4.4-9.3,7.4-23
				c3-13.9-2.8-26.2,8.1-33.2c11.1-7,20.2-9.5,26-6.7c6,2.8,9.3,11.4,9.3,11.4s4.2,10.5,4.6,13.7c0.9,6.5,0,6,0.5,15.8
				c0.5,9.8-2.6,19.5,4.2,24.2c12.8,8.8,9.5,34.6,9.5,34.6l-7.4-0.9l-27.2-28.6l0.2-29.7"/>
			<path class="st26" d="M230,446.9c0,0,6.7-17.7,6.7-21.1c0-3.5-0.9-27.6,2.1-30.9c3-3.3,24.2-13.9,24.2-13.9s24.9,3.9,28.6,4.9
				c3.9,0.7,9.3,2.3,8.8,10.9c-0.5,8.4,4.2,18.1,4.9,23.9c0.7,5.8,3.3,26.5,3.3,26.5H230V446.9z"/>
			<g>
				<path d="M431.8,147.3c-2.6-0.7-4.9,0.2-7.7,0c-2.8-0.2-4.6,2.1-6.7,3.7c-1.9,1.4-2.8,2.6-3.3,4.9c-0.7,3.3,0.2,3.9-1.2,7.2
					c-0.9,2.3-3.3,4.2-3.9,6.7c-0.9,3,0.7,6.3,0.2,9.5c0,0.7-0.5,1.6-1.2,1.6c0,0-6,0.9-4.6,7c1.4,5.8,1.2,9.8,3.9,11.4
					c2.8,1.6,17.2,3,21.6-1.9s12.5-10.5,13.9-14.4c1.4-3.9-1.6,1.2,1.9-5.3c2.3-4.4,1.9-10.9-1.6-12.8c-3.5-1.9,0.9-10.2-8.6-13
					C434.8,151.7,434.6,148,431.8,147.3z"/>
			</g>
			<path class="st32" d="M293.2,428.8c0,0-2.1-2.3-1.2-3.7c0.9-1.4,4.9-2.1,4.6-5.1c-0.2-3,0.9-2.8,2.1-3.3c1.2-0.5-1.9-2.6,0.5-3.7
				s4.6-0.2,5.3-1.9s4.2-13,13.2-30.2c3.7-7,5.8-12.8,11.8-16.5c6-3.5,16-4.9,16-4.9l40.2,0.7c0,0,26.9-1.9,33,24.6
				c0,0,3.3,4.9,4.4,15.3c0,0,4.4,2.3,3.9,12.1c0,0,2.8-1.9,6.5-0.5c3.5,1.4,3.7,1.2,3.7,2.6c-0.2,1.6-0.7,1.6,0,2.1
				c0.9,0.5,1.9,0.9,1.9,2.6s-0.7,2.1-0.2,3c0.5,0.9,0.2,2.8,0.2,3C439,425.6,293.2,428.8,293.2,428.8z"/>
			<path class="st28" d="M440.2,181.2c1.4-0.7,2.8,0.2,3.3,1.6c0.5,1.9,0.7,4.9,0.2,9.1c-1.2,7-2.3,12.5-0.2,11.1
				c2.1-1.4,16.5-4.4,17.4-3.9c0.9,0.5,3.3,3.7,6.3,4.2s5.6,0.2,4.2,1.4c-1.4,1.2-6.7,0.9-8.6-0.5c-1.9-1.4-2.3-2.8-5.8-0.9
				c-3.5,1.9-15.8,7.7-20.4,6.7s-2.6-0.7-1.9-3.9C435.1,203,433.5,184.2,440.2,181.2z"/>
			<path class="st35" d="M587.7,145.2c0,0-11.8,0-11.8,12.5c0,6.5,7.4,45.5,7.9,48.3c0.5,2.8,10.7,24.4,20.4,24.4
				s22.3-10.7,39.3-10.7s6.5-8.1,4.4-12.1c-2.1-3.9-5.3-22.3-0.9-33.4c4.4-11.1,2.6-24.6-11.6-27.6
				C623.9,143.8,587.7,145.2,587.7,145.2z"/>
			<path class="st33" d="M249.5,304.3c-2.8-0.2-10.7,2.1-19,1.2c-7.9-0.7-9.5-0.2-10.9,0c-1.4,0.2-4.9,0.5-6-1.9
				c-1.2-2.1-1.4-2.6-1.4-2.6s-7.7-9.8-8.8-19c0,0,7.2-6.5,17-3.7c0,0,5.1,9.5,3.5,14.2c0,0,0.5,1.4,3,1.4c2.6-0.2,15.1,2.1,20.9,3
				c0,0,6.3,0.2,8.6-0.5c2.3-0.5,9.1,3.5,12.5,5.1s-6.5,3.9-11.4,2.6C253.7,303.4,249.5,304.3,249.5,304.3z"/>
			<path class="st28" d="M283.2,241.1c0,0,4.2,12.3,13.9,13c0,0,1.6,0.2,3.3-0.9c0,0,12.8-19,4.6-21.8c-8.4-2.8-13.9-4.4-15.1-3.7
				c-1.2,0.9-6.3,5.3-7.2,7.7C281.8,237.4,283.2,241.1,283.2,241.1z"/>
			<path class="st23" d="M345.2,257.6c0,0,8.6-4.9,9.8,0.5c1.2,5.3,3.3,13-10.2,24.9c0,0-14.6,5.8-17.2,8.6
				c-2.8,2.8-17.2,16.7-24.6,19.3c-7.4,2.6-11.4,6-18.6,2.8c0,0-1.4-1.9,6.5-3c0,0,13.9-3.9,19.3-11.1c5.3-7.2,12.5-27.6,23-33.2
				C343.6,260.6,345.2,257.6,345.2,257.6z"/>
			<path class="st33" d="M272.3,306.9c0,0,2.6-2.8,5.1-2.8c2.6,0,4.6,0.9,6,0.5c1.4-0.5,3.3-0.5,4.9-2.6c1.6-2.1,0.9-3.7,0.9-5.1
				c0-1.4-1.4-5.3-1.6-6.5c-0.9-5.8-2.3-10.2-2.1-14.9c0.5-4.4-0.7-9.8-0.7-12.3s1.2-6,4.6-5.6c0,0,5.8-0.2,6,7c0,0,0.2,9.3,0,12.3
				c-0.2,2.8,2.3,10.7,1.2,16.7c-1.2,6-0.5,12.8-0.9,13c-0.5,0.5-7,2.6-9.5,2.6c-2.3,0-8.4,0.5-10.2-0.2
				C274.1,308.3,272,308.5,272.3,306.9z"/>
			<path class="st27" d="M299,255.3c0,0-1.2,1.9-0.9,3s0.5,1.4,2.3,1.2c1.9-0.2,2.1,0.5,2.6,0.9c0.2,0.2,2.1,1.6,1.4,3.9
				c-0.7,2.3-1.9,4.2-3,5.8c-1.2,1.6-2.6,5.1-2.6,7.4c0,2.3-1.4,5.6,0.7,9.5s4.4,4.4,6.3,3.3c1.9-1.4,1.9-2.6,1.6-3.3
				c-0.2-0.7-1.4,0.5-3.5,0.2c-1.9-0.2-3.5-0.7-3.5-3c0-2.6-0.5-5.1-0.5-6.5s0.2-4.2,2.1-6c1.9-1.6,5.1-5.6,5.8-9.5
				c0.7-3.9,1.9-7.4-1.4-8.4c0,0-1.6-0.5-3.9,1.4c0,0-2.6,0.9-3.3-0.5C299.9,254.6,299.2,254.8,299,255.3z"/>
			<g>
				
					<rect x="387.8" y="270" transform="matrix(0.5133 -0.8582 0.8582 0.5133 -47.0609 467.0735)" class="st23" width="0.9" height="10"/>
			</g>
			<g>
				<polygon class="st23" points="385.1,279 384.4,278.3 391.6,271.8 392.1,272.5 				"/>
			</g>
			<path class="st28" d="M476.9,183.3c0,0,0,2.6,0,4.6c0,2.1,1.2,7,1.2,8.1c0,1.2,0.5,5.6,1.2,6c0.7,0.5,10.7-7.9,11.1-9.3
				c0.5-1.4,1.2-8.8,1.2-10s2.3-4.2-2.1-3C485.3,181,476.9,182.8,476.9,183.3z"/>
			<path class="st28" d="M487.8,204.7c0,0,0.9,2.3,0.7,3.3c0,0.9-0.9,3-0.9,4.2c0,0.9,0.2,4.2,3.3,1.9c3-2.3,6.5-7,8.4-7.2
				c1.6-0.2,3.5-0.5,2.8-1.6c-0.7-1.2-1.4-2.6-1.6-3.9c-0.5-2.8-0.7-4.9-0.2-8.6c0.2-2.1-1.2-10.7-4.9-8.8c-3.7,1.9-3.9,7-3.9,7.4
				C490.8,191.4,487.8,204.7,487.8,204.7z"/>
			<path class="st28" d="M455.3,222.8c0,0-3.3,0.2-4.2,0.7c-0.9,0.5-2.3,2.1-2.6,3.3c-0.2,1.2,0,2.3,0.7,2.1c0.7,0,10.2,0,10.2,0
				s1.4,0.2,1.4-1.6c0-1.9,1.2-2.3,1.2-2.3S456.7,222.8,455.3,222.8z"/>
			<path class="st26" d="M454.1,223.3c0,0,0-1.2,0.2-1.4c0.5-0.2,5.3-3.3,6.3-3.3s12.8,1.6,13.7,1.6s5.3-2.3,6-3s2.8-3.9,3.9-4.6
				c0.9-0.7,3.9-3.3,3.9-3.3s-1.9,4.2,0.7,4.2c0,0,2.8,0,7-5.6c0,0,3.7-4.9,10.5-1.6c0,0,4.6,2.6,6.7,5.6c2.1,3,6.5,3.5,8.1,4.9
				s9.1,7.9,8.6,10.7c-0.5,3-1.9,4.2-1.6,4.4c0,0.2-2.1,10.2-9.5,10.2c0,0-2.6,0.5-7-2.6c0,0-6-3.7-11.6,1.2c0,0-9.8,9.1-13.9,10.5
				c0,0-6-3.7-6-6.3c0-2.3,1.6-1.9,2.3-4.4c0.7-2.6,1.9-10.5-4.2-13c0,0-9.8,0.5-10.9,0.2c-1.2-0.2-6.3-0.2-7.4-1.4
				C459.2,225.6,454.1,223.3,454.1,223.3z"/>
			<path class="st26" d="M481.3,244.9c0,0-6-2.6-12.1-3.3c-6.7-0.7-13.7-3.3-16.5,1.2c-2.8,4.2-5.1,5.3-5.3,6.5
				c-0.2,1.4-4.2,27.9-5.1,33.2c0,0,5.1,1.6,7.2-0.9c2.1-2.6,9.8-19.3,9.8-19.3s12.8-3.7,18.6-5.3c5.8-1.6,8.1-2.8,9.1-6
				c0.5-1.9,0.5-2.3,0.5-2.3l0,0L481.3,244.9z"/>
			<polygon class="st23" points="473.6,268.3 462.3,293.6 465.3,293.6 476.7,268.8 			"/>
			<polygon class="st23" points="480.1,269.2 474.8,287.1 477.1,285.7 482.2,269.2 			"/>
			<polygon class="st23" points="489.7,269.2 495.9,295.5 498,293.6 492.7,269.2 			"/>
			<polygon class="st23" points="504.5,269 515.4,292.9 518.7,294.1 507.1,268.3 			"/>
			<g>
				<polygon class="st23" points="513.6,283.2 503.6,280.2 508,274.3 506.9,273.4 502,279.5 494.1,277.1 493.6,278.8 500.8,280.9 
					496.2,287.1 497.3,288.1 502.7,281.5 512.9,284.8 				"/>
				<polygon class="st23" points="479.2,274.3 475,276.7 472.9,274.8 472.5,275.5 474.3,277.1 470.9,279 471.3,279.7 475,277.8 
					477.6,279.9 478.3,279.5 475.7,277.4 479.7,275 				"/>
			</g>
			<path class="st36" d="M467.8,216.3h10.2c0.2,0,0.5,0.2,0.5,0.5v8.4c0,0,0.5,5.8-4.9,6c0,0-6,0.9-6-5.1l-0.2-9.3
				C467.4,216.5,467.6,216.3,467.8,216.3z"/>
			<g>
				<path class="st29" d="M478.1,226.5l-0.2-0.9c1.9-0.5,2.8-1.4,2.3-3.5c-0.2-1.9-2.1-1.9-2.1-1.9v-0.9c0.9,0,2.8,0.5,3,2.6
					C481.5,224.6,480.6,226,478.1,226.5z"/>
			</g>
			<path class="st28" d="M479.4,223.5c0,0,0.9-1.9,2.6-1.9c1.4,0,3.3,0.7,4.4,0.7c1.2,0.2,2.1,1.2,2.6,2.3c0.2,1.2,2.1,3.9,1.2,4.9
				c-0.9,0.9-1.9,2.8-3.5,1.9c-1.6-1.2-4.4-2.1-5.1-3.5C480.8,226.5,478.7,224.6,479.4,223.5z"/>
			<path class="st27" d="M491.1,223.5c0,0,6-2.3,6.5-4.4c0.5-2.1,4.2,3.5,7,3.7C507.3,223,491.1,223.5,491.1,223.5z"/>
			<path class="st27" d="M488.7,231.1c0,0,8.1,2.3,12.1,2.3c4.2,0-11.4,1.2-13.2,6.7c-1.9,5.6-0.2,8.4,0.2,9.5
				c0.5,1.4-2.6,0.9-5.1-1.9c0,0-3-2.1-1.9-4.4c0,0,1.2-1.2,2.1-2.6c0,0,1.6-4.4,0.5-8.1c0,0-0.7-3-3.3-4.6c0,0-1.6-0.9-1.2-1.9
				c0.5-0.9,0.7-2.1,1.2-1.2c0.5,0.9,1.2,3.3,3,3.9c1.6,0.7,2.8,1.6,3.3,1.9C486.4,231.1,487.3,231.8,488.7,231.1z"/>
			<path class="st29" d="M477.1,218.1c0,0-0.9-0.9-1.2-0.7c0,0.2,0.2,2.8,0.2,2.8S477.4,219.5,477.1,218.1z"/>
			<path class="st29" d="M477.1,220c0,0-0.9,1.2-0.9,1.6c0,0.5,0,2.1,0,2.8s0,0.7,0,0.7s-0.7,2.8-1.2,2.8c-0.5,0-0.7,0.2-0.7,0.2
				s1.2,0.5,1.6,0.2c0.5-0.2,2.3-1.4,2.1-3.7C477.4,222.1,478.3,219.5,477.1,220z"/>
			<path class="st28" d="M306.2,422.1c0,0-11.8,2.1-14.2,8.6c-1.9,5.3-5.1,9.8-2.6,10.7c2.6,0.9,12.1,5.3,18.3,5.3
				c6.5,0,56.2-0.9,56.2-0.9l-1.4-8.4c0,0-38.6-13.7-44.8-14.9C312.9,421.8,308,421.6,306.2,422.1z"/>
			<path class="st28" d="M431.6,423c0,0,11.8,2.1,14.2,8.6c1.9,5.3,5.1,9.8,2.6,10.7c-2.6,0.9-12.1,5.3-18.3,5.3
				c-6.5,0-56.2-0.9-56.2-0.9l1.4-8.4c0,0,38.3-14.6,44.8-14.9C426.5,423.2,429.5,422.3,431.6,423z"/>
			<path class="st27" d="M423.7,417.4c0,0,0.9-2.6,5.6-2.8s5.8-0.9,6.3-0.5c0.5,0.5,0.9,2.1,0.2,2.3s-3.7-1.2-4.9-0.7
				C429.7,416.3,424.6,416.3,423.7,417.4z"/>
			<path class="st27" d="M428.3,419.7c0,0,2.3-1.9,5.6-1.6c3.3,0,3.7,0.2,3.7,0.9c0.2,0.9,0.5,0.9,0.2,1.4c-0.5,0.5-0.9-0.2-2.1-0.5
				C434.4,419.7,429.5,418.8,428.3,419.7z"/>
			<path class="st28" d="M346.4,338.9c0,0-1.9-0.2-2.1,0.7c-0.2,0.9,1.4,7.2,2.1,7.9c0.7,0.7,2.3,0.7,2.3,0.7l0.7,1.9l2.1,4.6
				l11.4-0.5c1.2,0.5,2.6,0.2,3.9-0.2l8.1,0.7l3.7-5.6l0.9-3.5c0,0,2.3,0.9,2.8-1.2c0.5-2.3,1.9-4.9,1.4-5.8c-0.5-0.9-0.2-3-2.6-2.8
				c0,0-3.7-11.8-18.1-10.9C362.8,325.2,347.5,325.9,346.4,338.9z"/>
			<path d="M378.4,349.4c0.5,0,11.4,13.9-13.9,33c-3.5,2.8-15.3-13.5-18.1-19.5c-0.7-1.6-1.2-3.3-0.9-5.1c0.5-5.1,3.9-7.7,3.9-7.7
				s1.4,2.8,3.9,3.5c1.9,0.5,4.4-1.4,7.2-1.2c1.2,0,2.6,1.6,3.7,1.6c1.2,0,1.9-1.6,2.8-1.6c2.1-0.2,4.6,1.6,6.7,0.9
				C375.6,353.1,377,350.3,378.4,349.4z"/>
			<path class="st28" d="M413.7,273.9c0,0-7,3.7-6.7,12.5s1.9,16.3,1.9,20.2c0,3.9,7.4,16.5,15.6,13c8.1-3.5,12.1-15.8,12.1-20.9
				c0-5.1,0.7-11.1,1.2-16c0.7-5.1-1.4-15.6-7.4-13C424.4,272,413.7,273.9,413.7,273.9z"/>
			<path d="M410.7,275.3c0,0,2.1-0.9,2.3,0.5s-1.4,5.6,2.8,4.6c4.2-1.2,10.5-6.5,14.4-5.6c3.9,0.9,5.1,4.4,3.9,14.4
				c-0.9,10,0,10.2-1.4,14.4c-1.4,4.2-2.1,8.8-6.5,6.3c-4.4-2.6-1.9-4.9-5.6-4.9c-3.5,0-2.8,1.2-5.6,0c-3-1.4-6.7-1.9-7,0.7
				c-0.2,2.6-0.5,7.2-0.5,9.8c0,2.6,0.2,8.8,8.8,9.5c8.6,0.7,14.2,1.4,17.4-3.9c3.3-5.3,4.2-6.3,3.7-13.7c-0.7-7.2-0.9-12.1,0-15.1
				c0.9-3,3.9-5.8,3.7-1.2c-0.2,4.6-0.5,5.3,0.5,5.8c0.7,0.7,1.2,4.9,1.6,4.6c0.5-0.2,2.3-16.5,1.6-19.3
				c-0.9-2.8-0.9-16.5-16.5-16.3C428.8,266,415.3,265.3,410.7,275.3z"/>
			<path class="st27" d="M409.8,328.9c0,0-5.1-0.7-6,1.4c-1.2,2.3-5.1,6.7-2.1,7.7s12.3,2.6,16,1.9c3.7-0.7,15.3,0,24.4-8.4
				c0,0-7.2,6.7-17.4,3.7C414.9,332.6,410.9,330.8,409.8,328.9z"/>
			<rect x="172.6" y="446" class="st23" width="324" height="11.6"/>
			<path class="st28" d="M509.2,302.7c0,0,6,10.5,6.7,11.6c0.7,1.2,9.1,2.6,10,4.9c0.9,2.6,12.8,32.5,12.8,32.5s1.4-16.5,1.2-17.4
				c-0.2-0.9-9.3-17-9.5-18.6c-0.2-1.6-1.9-3.3-7.2-3.7C517.8,311.7,510.8,300.6,509.2,302.7z"/>
			<polygon class="st3" points="478.5,253.7 477.1,254.1 526.1,360.5 528.7,359.1 			"/>
			<path class="st31" d="M477.6,257.2c0,0,7.4,26.5,15.8,47.1c0,0,23.2,45.1,28.8,51.6l3.3,3.7l0.9-0.7l-48.8-105.2l-1.2,0.5
				L477.6,257.2z"/>
			<path class="st37" d="M494.3,305.9l-8.8,9.5l1.6,18.1c0,0,2.3-6,2.6-7.7s10-9.8,10-9.8L494.3,305.9z"/>
			<path class="st32" d="M539.1,333.1l-4.2,12.1c0,0,9.8,19.3,12.1,19.3s25.1-16,26.2-18.3c0,0-0.2,5.3,2.8,9.1
				c3,3.7,8.1,8.1,7.7,9.3l-14.4,2.6c-0.5,0-0.2,2.1,0,2.3c2.1,1.9,7.2,5.6,11.1,6c4.9,0.7,32.5,0.9,36,0.9c3.7-0.2,4.9-2.3,6.3-7.9
				c1.4-5.6,8.6-30.2,3.9-36.7s-23.7,3.3-30.4,2.1c-6.7-1.2-23.2-4.9-26.7-0.9c-3.5,3.9-17.2,18.8-19.5,18.1
				C548,350.1,541.5,332,539.1,333.1z"/>
			<path class="st27" d="M581.9,355.2c0,0,20.9,1.2,23.2-0.5s9.8-10.9,10-9.8c0.2,1.2-3,7.4-3,10.2c0,2.8,0.5,6-0.2,7.4
				c-0.7,1.4,0,3.7-7.2,1.6C597.7,362.1,581.9,358,581.9,355.2z"/>
			<path d="M514.3,465.5c2.1-0.5,4.2,0.5,5.6,1.9c2.8,2.8-0.5,6-2.3,7c-3.7,1.9-1.2-1.2-3.9,0.5s-5.6,4.9-12.5,4.6
				c-3.9-0.2-7.2-3.5-5.6-5.6c2.8-3,7.7-2.1,10-4.2C508.9,466.9,512.2,465.7,514.3,465.5z"/>
			<path d="M541.2,484.1c0.2-0.2,0,0.9,0.7,0.9c1.4,0,1.9-0.9,3.7-3.3c0.9-1.2,0.5-3.9-0.5-4.9c-1.6-1.6-1.9-4.9-3.9-4.2
				c-2.3,0.7-2.8-0.7-9.1,6.3c-2.3,2.6-6.3,4.2-8.8,7.7c-1.6,2.3,0.9,3.9,5.1,3.7C528.2,490.1,531,490.6,541.2,484.1z"/>
			<path class="st28" d="M512.4,467.4l15.1-36.5l9.5,9.3c0,0-11.4,14.2-13.2,16.7c-1.9,2.6-5.8,9.3-5.8,9.3S515.4,470.4,512.4,467.4
				z"/>
			<path class="st28" d="M539.8,453l-1.6,23.2c0,0.9,0.7,1.9,1.6,1.6c0.7,0,1.4-0.2,1.6-0.7c0.2-0.9,9.1-18.8,9.1-18.8L539.8,453z"
				/>
			<path class="st27" d="M528.9,425.8c0,0-0.5,0-0.9,1.6s-1.9,2.6-1.9,3.7s2.8,3.3,3.7,5.1c0.9,1.9,6,6.5,7.2,6s2.8-1.2,2.6-3.5
				c-0.2-2.3-1.6-3.5-4.6-6.7C531.9,429,529.6,425.3,528.9,425.8z"/>
			<path class="st27" d="M529.4,426.7c0,0,14.4-34.8,16.3-36.2c1.9-1.2,3.9-1.6,7.7-1.4s36.2,0.9,36.9,0.9c0.7,0,3.5,18.3,3.5,18.3
				l-15.8,8.6l-39.3,21.1L529.4,426.7z"/>
			<path class="st32" d="M593.5,407c0,0-42.5-2.1-45.5,4.6c-3.3,6.7-8.4,31.8-8.4,37.6c0,0,12.1,6.3,13,5.1
				c0.9-1.2,6.3-16.7,7.2-27.2c0,0,20.7,2.6,32.1-9.3C591.9,418.4,597.9,414.2,593.5,407z"/>
			<path class="st26" d="M660.1,318.2c0,0,15.1-5.6,21.6,10.7c0,0,3.7,9.8,0,11.6c0,0-3.3-6.7-8.8-11.8c-2.3-2.1-3.7-3.3-8.1-5.1
				C660.8,322,654.1,320.6,660.1,318.2z"/>
			<path class="st26" d="M602.3,384.2c0,0-2.6,0.5-1.6,1.4s15.1,10.2,39.5,16.5c0,0,2.8,0.2,2.3,0s-17-8.1-18.8-10
				C620.9,389.6,613.2,382.8,602.3,384.2z"/>
			<path class="st26" d="M645,421.4c-34.8,20.2-68.7,10.9-68.7,10.9s-1.6-0.9,2.3-1.4c3.9-0.5,13-2.3,17.2-11.8c0,0,0.9-4.4,7.7-1.6
				c6.7,2.8,12.1,9.1,28.3,6.7c0.7,0,1.2-0.2,1.6-0.5C636.9,422.3,651.1,417.7,645,421.4z"/>
			<path class="st23" d="M571.9,432.5l-20.4,44.8c0,0,0,3.7,4.6,0l20.2-42.7C576.3,434.4,575.6,433.7,571.9,432.5z"/>
			<path class="st23" d="M598.6,435.8l-11.4,47.1c0,0,0,3.7,2.6,1.6c2.8-2.1,2.6-4.4,3-5.1c0.5-0.7,11.4-42.7,11.4-42.7L598.6,435.8
				z"/>
			<polygon class="st23" points="571.4,441.3 591.6,468.5 592.1,465 572.3,439.5 			"/>
			<path class="st23" d="M562.6,458.1l34.8-10.2l-1.2,3.3l-32.5,9.5c-0.9,0.2-1.9-0.2-2.3-0.9C561.2,459.2,561.4,458.5,562.6,458.1z
				"/>
			<path class="st23" d="M620.2,435.3l8.8,30.9c0,0,1.9,0,4.4,0.2l-10-33.2L620.2,435.3z"/>
			<path class="st23" d="M630.9,431.6l17.2,37.9c0,0,3.9,10.9,8.1,10.9c3.9,0,0.5-4.9,0-5.6c-0.5-0.7-21.4-45.1-21.4-45.1
				L630.9,431.6z"/>
			<polygon class="st23" points="641.8,451.3 635.1,447.4 638.1,444.6 636.9,443.2 633.4,446.2 625.1,441.1 623.9,442.7 
				631.8,447.6 627.2,451.6 628.3,453.2 633.7,448.5 640.9,453 			"/>
			<path class="st26" d="M626.5,335.9c0,0,29-8.4,23.9,1.9c-5.1,10.2-14.4,20.7-14.4,38.8c0,18.1-5.3,23.9,10.5,23.9
				c15.8,0,20.2-3.9,21.8-20.4c1.6-16.5,4.4-50.2-10.7-50.9C642.7,328.2,647.8,322,626.5,335.9z"/>
			<path class="st26" d="M419.5,180.1c0,0-8.6,0.5-8.4,0.9c0.2,0.5,2.6,3.3,3,3.9c0.9,2.6,0,8.4-2.3,10c0,0,0.9,5.3,3.3,10.9
				c2.3,5.6-2.8,20.4-2.8,20.4s13.9,7.2,30.7,0.5c0,0-6.7-13-3.7-20.2c2.8-7.2,0.7-11.4-0.7-18.8c-0.9-4.9,3.7-6.7,3-7
				c-0.2,0-0.9-0.2-7-0.7"/>
			<path class="st28" d="M411.4,180.7c0,0-1.4,0.5-2.1,1.9c-0.7,1.4-4.2,8.4-5.8,13.7c-1.9,6-3.7,10.2-3.9,13.5
				c-0.2,3.3,2.6,15.6,2.6,17s-1.4,2.1-1.4,2.8c-0.5,2.6,3.7,2.3,5.6,1.6c1.2-0.5,0.7-1.4,0.7-1.9c-0.2-1.4-1.6-1.4-1.9-4.2
				c-0.2-2.8-0.2-10-0.7-15.1c0,0,0.2-1.2,1.2-2.6c1.2-1.4,6.5-10.7,7.7-12.5c1.2-2.1,3-3,2.3-6.5
				C414.9,184.9,412.8,180.5,411.4,180.7z"/>
			<path class="st33" d="M424.6,174.2c0,0-0.5,5.8-2.1,6.5c-1.6,0.7,3.9,10,5.1,10.2s4.4-7.2,4.2-8.8c-0.5-1.9-4.4-1.6-3.5-7.7h-3.7
				V174.2z"/>
			<path class="st38" d="M531.9,156.8c1.2,1.9,13.2,2.3,19,8.6c5.8,6.3-1.2,20.4,0.5,33s23.2,9.1,28.8,7c5.6-2.1,7,0.7,10.9,2.3
				s2.3,17.9,2.1,21.8c-0.5,3.9-13.5,3.5-21.6,2.6c-3.3-0.5-11.4,3-26.9,0.2c-16.7-3.3-17.9-27.6-16.7-38.3s-5.3-13.2-9.5-24.6
				c-4.2-11.4,16-20.4,16-20.4S530.5,154.5,531.9,156.8z"/>
			<path class="st36" d="M548.4,249l14.9-8.6l6,10.9c0,0,1.6,5.1-4.6,7.9l-13.7-5.6L548.4,249z"/>
			<path class="st29" d="M550.3,252.5l15.6,6c0,0,0.2,1.9-0.5,3.9c-0.9,2.1-1.9,4.4-1.9,4.4l-16.7-0.5c0,0-0.9-1.6-0.7-3
				C546.3,262,550.3,252.5,550.3,252.5z"/>
			<g>
				<path d="M610.9,133.1c2.6-0.7,4.9,0.2,7.7,0c2.6,0,4.6,2.1,6.7,3.7c1.9,1.4,2.8,2.6,3.3,4.9c0.7,3.3-0.2,3.9,1.2,7.2
					c0.9,2.3,3.3,4.2,3.9,6.7c0.9,3-0.7,6.3-0.2,9.5c0,0.7,0.5,1.6,1.2,1.6c0,0,6,0.9,4.6,7c-1.4,5.8-1.2,9.8-3.9,11.4
					c-2.8,1.6-17.2,3-21.6-1.9c-4.4-4.9-12.1-3.3-13.7-7.2c-1.4-3.9,6.5-4.9,3-11.1c-2.3-4.4-3.5-9.1,0-10.9
					c3.5-1.9-4.4-13.2,5.1-16.3C607.7,137.5,608.1,133.8,610.9,133.1z"/>
			</g>
			<path class="st3" d="M556.1,254.8c0,0-0.5,0.7-1.2,1.2c-0.7,0.5-1.6,1.6-0.9,2.3c0.5,0.7,2.8-1.2,3.7-0.7c0.9,0.5,0,0.5-0.5,2.1
				s-0.5,3.3,1.2,2.8c1.6-0.5,2.3-0.9,2.6-2.8c0.2-1.9,1.2-0.9,1.6-0.7c0.5,0,1.6,0.5,0.5,1.6c-0.9,1.2-4.2,2.3-3.7,3.9
				c0.5,1.6,2.8,2.8,3.3,1.2c0.7-1.6,1.4-4.4,1.9-4.4c0.5,0,0.7,2.6,1.2,2.8c0.5,0.2,2.1,0.7,2.1-1.2c0-1.9,0-3.3-0.7-3.7
				c-0.7-0.5-1.9-0.9-2.3-0.9C564.5,258.1,556.1,254.8,556.1,254.8z"/>
			<path class="st36" d="M546.8,266.9l0.2,10.9c0,0,0.2,5.3,9.1,5.6c0,0,7.2,0.5,8.1-5.3v-11.8h-17.4V266.9z"/>
			<path class="st29" d="M562.4,268.3c0,0-0.9-0.5-1.4,0.5c-0.7,0.9-2.8,2.6-2.8,5.3c0,2.8-1.2,5.3-2.1,5.6c-0.9,0-6.3,0-6,0.7
				c0.2,0.7,4.4,2.6,7,2.1c2.8-0.5,5.3-1.9,5.3-5.1V268.3z"/>
			<g>
				<path class="st29" d="M545.9,263c-1.2-0.5-2.1-1.4-2.6-2.3c-0.5-1.2-0.7-2.3-0.2-3.5c0.5-1.2,1.4-2.1,2.3-2.6
					c1.2-0.5,2.3-0.5,3.5,0l0,0c-0.2,0.7-0.9,1.4-1.9,1.4c-0.5,0-0.7,0-1.2,0.2c-0.7,0.2-1.2,0.9-1.6,1.6c-0.2,0.7-0.2,1.4,0,2.1
					c0.2,0.2,0.2,0.5,0.5,0.9C546.1,261.1,546.3,262,545.9,263L545.9,263z"/>
			</g>
			<g>
				<path class="st29" d="M568.9,250.4L568.9,250.4c-0.5-0.7-0.2-1.6,0.2-2.3c0.2-0.2,0.5-0.7,0.7-1.2c0.2-0.7,0.2-1.6,0-2.1
					c-0.5-0.7-0.9-1.2-1.9-1.2c-0.5,0-0.9,0-1.4,0c-0.9,0.2-1.6-0.2-2.1-0.9l0,0c1.2-0.7,2.6-0.9,3.7-0.7c1.4,0.2,2.3,0.9,3,2.1
					c0.7,1.2,0.7,2.3,0.2,3.7C571,248.6,570,249.7,568.9,250.4z"/>
			</g>
			<path class="st36" d="M562.1,269.7c0,0-1.2-0.5-0.9,0.9c0.2,1.4,0.5,6.3,0.9,3.9C562.1,274.1,562.6,270.2,562.1,269.7z"/>
			<path class="st36" d="M560.3,273.2c0,0,0.5,2.6-0.2,3.7c-0.7,1.2-1.2,2.1-0.5,2.8c0.5,0.9,1.9,0.2,1.9-0.5c0-0.7-0.2-3.9-0.5-4.9
				C560.5,273.2,560,273,560.3,273.2z"/>
			<path class="st29" d="M563.1,243.5c0,0-0.5,0.2-0.2,0.7c0.2,0.5,1.4,4.2,2.8,5.3c1.4,1.2,1.9,1.2,1.4,0.2s-2.3-2.8-2.6-3.7
				C564.2,245.3,563.8,243.5,563.1,243.5z"/>
			<path class="st29" d="M566.3,250.4c0,0-0.7-0.5-0.7,0c0,0.5,0.7,2.3,0.9,2.6c0.2,0.2,1.2,0,1.2-0.7
				C567.7,251.8,566.5,250.4,566.3,250.4z"/>
			<path class="st3" d="M569.3,264.6c0,0-0.7,0-0.7,0.7c0,0.7,0.5,2.1,0.9,2.6c0.5,0.5,1.4,0.7,1.6,0.2c0.2-0.5,0-0.7-0.5-1.6
				C570.3,265.5,569.6,264.4,569.3,264.6z"/>
			<path class="st3" d="M570.3,258.3c0,0-1.9-0.2-1.9,0s1.6,1.4,2.1,1.6c0.5,0.2,2.3,0.9,2.6-0.2
				C573.5,258.6,570.5,258.3,570.3,258.3z"/>
			<path class="st26" d="M559.6,185.6c0,0,3.9,1.2,5.3,10.5c0.2,1.6,3.9,4.6,5.6,7s3.3,5.1,3.3,5.6c0,0.5-21.1,11.8-23-2.1
				s-7.4-18.3-4.2-20C550.1,184.9,559.6,185.6,559.6,185.6z"/>
			<path class="st35" d="M555.9,192.4c0,0-0.5,0.7-0.2,1.9c0.2,1.2,2.8,5.1,7.4,3.7c0.2,0,0.2-0.2,0.5-0.2c0.5-0.5,1.6-1.4,1.4-2.3
				C564.2,194.5,560.3,197.9,555.9,192.4z"/>
			<path class="st39" d="M568.6,177.7l7.2-0.5c0.2,0,0.2,0,0.5,0.2c0.2,1.2,0.7,5.1,0.7,5.6c0,0,0.2,4.4-3.5,5.1
				c0,0-3.9,0.5-4.4-3.7c-0.2-3-0.5-5.6-0.7-6.3C568.2,178,568.4,177.7,568.6,177.7z"/>
			<path class="st28" d="M569.8,186.1c0,0,1.2-0.2,2.3,0.2c1.2,0.5,2.6-0.9,3-1.6c0.7-0.7,1.6-2.3,1.9-1.2c0.2,1.2-0.2,5.3-1.6,5.8
				c-1.4,0.5-3.9,1.9-4.9-0.2C569.6,186.8,568.6,186.6,569.8,186.1z"/>
			<path class="st28" d="M570.5,188.9l-5.3,7.2c0,0,3.9,7.2,4.2,7.2c0.2,0,4.4-9.3,3.7-13.2C572.6,186.1,570.5,188.9,570.5,188.9z"
				/>
			<path class="st35" d="M548.2,208.4c-0.5-0.5-1.2,0-0.9,0.5c0,0.5,0.2,1.2,0.7,1.9c0.9,2.1,6,12.5,20.4,12.1
				c0,0,10.7-1.9,12.5-0.2c1.9,1.4,6.5,7.9,7.9,4.6c1.4-3.3,1.2-11.1,0-12.1s-2.8-1.6-5.3-0.7c-2.8,1.2-15.1,6-23.2,3.7
				C555.2,216.7,555.4,215.8,548.2,208.4z"/>
			<path class="st33" d="M613.7,161c0,0-0.2,4.6-0.9,5.8c-0.9,0.9-3,2.3-5.3,2.6c0,0,2.1,3.7,4.2,4.6c0.9,0.5,3.3,2.1,6,2.3
				c3.5,0,6.3-3,6.7-4.6c1.2-2.8,0.2-3.3,0.2-3.3s-3.9-0.7-4.2-1.6c-0.2-0.9-1.2-4.4-0.9-5.3h-5.8V161z"/>
			<path class="st26" d="M624.6,168c0,0,6-0.5,6.7-0.2c0.7,0.2,3.5,0.9,4.6,3.9c0.9,3,3.7,8.6,3.9,11.1c0.2,2.6-6.7,15.1-8.1,15.6
				c-1.4,0.5-27.6,1.9-27.6,1.9s-11.6-4.6-11.6-7.7s1.6-10.7,1.9-12.3c0.2-1.6-1.2-12.3,3.7-12.3c4.9,0,11.8,0.5,11.8,0.5
				s-0.5,2.1,3,3.7C616.2,173.8,623.2,173.3,624.6,168z"/>
			<path class="st27" d="M602.3,177.3c0-0.2-0.5-0.5-0.7-0.2c-0.5,0.9-1.4,2.6-1.6,4.4c-0.5,3-1.4,7.7-1.2,7.9
				c0.2,0.2,9.3,7.9,9.3,7.9s1.9,1.6,1.6-2.8c0-4.6-2.6-6.3-3.7-10C604.9,181.2,603,183.8,602.3,177.3z"/>
			<path class="st27" d="M633,175.2c0,0-0.9-1.2-0.9,0.9c0,2.1-0.2,7.2-1.4,9.8s-1.6,7-0.7,7.4c0.9,0.5,5.3-7.9,5.3-9.3
				C635.3,182.6,633,175.2,633,175.2z"/>
			<path class="st27" d="M604.2,200.3c0,0-1.2,0.9-0.7,3c0.5,2.8,8.4,13.2,8.8,15.6c0.5,2.3,3.5,10.2,3.9,11.8
				c0.7,1.6,5.1,4.6,5.1,4.6l5.8-7.9c0,0-3-13.2-3.7-14.9c0,0,6.3,1.6,6.5,3c0.2,1.4,0.9,7.9,0.9,7.9l9.8-4.6c0,0,0.5-9.1-0.7-10.9
				c-1.2-2.1-3.9-2.3-4.4-2.6s-13-6.7-13-6.7L604.2,200.3z"/>
			<path class="st40" d="M655.3,219.8c0,0-1.2,1.6-0.7,3.7c0.5,2.1,3.7,4.9,3.5,8.4c-0.2,3.5,0.2,5.8,1.4,6.3c0,0,2.6-6.5,4.4-8.1
				c0,0,0.7-0.9-1.2-2.3C660.6,226.5,655.3,223,655.3,219.8z"/>
			<path class="st32" d="M646,218.1c0,0-14.9-0.2-16.5,3.3s-11.8,9.5-12.1,13.2c-0.2,3.5-6.3,14.4-7,17.4c-0.7,3-8.1,8.4-7.9,15.1
				c0.2,6.5,2.8,6,3.9,8.8c1.2,2.8,8.1,6.3,15.3,7.4c7.2,0.9,15.3-0.2,16-0.5s7-7,7-7.2c0-0.2,52.7-15.3,52.7-15.3
				s-0.5-22.1-1.2-25.1c-0.7-3-2.1-9.5-6.5-10.7c-4.6-1.2-13.2-7.9-13.2-7.9L646,218.1z"/>
			<path class="st27" d="M639,240.7c0,0-6,6-7.4,7.2c-1.4,1.2-3.3,1.9-3.7,4.9c-0.5,3-2.1,8.8-6,10c-3.7,1.2-2.6,3.5,0,4.6
				c2.6,1.2,10.7,3.7,12.3,6c1.6,2.3,9.8,1.4,11.4,1.6c1.6,0.2-1.9-5.3-1.9-6.3c0-0.9-9.5-1.9-10.9-2.6c-1.4-0.7-5.6-1.6-3.3-5.6
				c2.3-3.9,7-6.7,8.1-13.2S639,240.7,639,240.7z"/>
			<path class="st26" d="M675.9,226.5c0,0,1.4,0.7,1.6,4.2c0.2,3.5,5.1,3.7,5.6,6.3c0.2,2.3,0.5,2.6-8.4,2.3
				c-8.8-0.2-13.5,2.1-12.3-1.2c1.2-3.3,1.6-5.1,4.2-5.6C668.7,231.8,675,230.2,675.9,226.5z"/>
			<path class="st23" d="M731.4,294.1H547.3c-0.7,0-1.4-0.7-1.4-1.4v-7.2c0-0.7,0.7-1.4,1.4-1.4h184.2c0.7,0,1.4,0.7,1.4,1.4v7.2
				C732.8,293.4,732.1,294.1,731.4,294.1z"/>
			<path class="st33" d="M257.2,258.1c0,0,1.9-7,13.2-6.3c0,0,5.3,0.7,4.6,3c0,0-0.2,1.4-0.9,2.8c-0.7,1.4-1.6,4.4-3.5,4.6
				c-1.9,0.2-4.6,0.9-5.3,0.9c-0.7,0-1.9,0-1.6-2.3c0-0.7,0.2-1.4,0.2-1.9c0-0.5-0.5-0.9-1.2-0.9H257.2z"/>
			<path class="st28" d="M228.4,240c0,0-2.8,4.2-6.5,5.6c0,0-3.9,0.2-4.6,1.2c-0.7,0.7-2.8,3-2.3,4.6c0.5,1.6,3.9,2.6,6,5.3
				c1.9,2.8,8.4,6.5,6.7,20c0,0,4.6-6.5,4.9-8.1c0.2-1.6-0.2-9.8,0.5-12.5c0.7-2.8,0.9-4.9,1.4-5.3c0,0,0.5,0,1.4,0.7
				s11.4,4.9,16.7-5.6c0,0,4.9-10.2,5.6-12.3c0.7-2.1,3.7-8.8-1.2-10.7c-4.9-1.9-7.2-1.4-13.9-0.7s-9.3,2.6-12.8,4.4
				c-3.5,1.9-4.6,0-4.9,3.7C225.1,233.9,228.4,240,228.4,240z"/>
			<path d="M241.8,208.2c1.6-0.5,5.6-1.2,8.4,0.5c3,1.6,7,5.3,8.4,7.2c1.4,2.1,3.7,3.9,3.5,7s0.5,6.7,0,7.9
				c-0.5,1.2-3.7,3.9-4.2,4.9c-0.7,0.9-3,5.1-3,5.1s3.9-10.7,3.3-12.5s-3.9-0.2-5.6-2.1c-1.2-1.2-2.6-2.3-4.4-1.6
				c-4.9,1.9-3.7,5.8-5.1,5.8s-3.5-1.2-5.3-1.2c-4.2,0.5-2.3,10-4.6,8.4c0,0-1.2-10-4.6-7.9c0,0-2.1,1.6-0.9,7.2l1.2,2.8
				c0,0-1.9,2.8-3,3.5c0,0-1.2-1.6-1.9-2.6c-0.9-0.7-0.5-1.4-0.7-3.9c-0.2-2.6-2.8-5.6-2.6-7.2c0.2-1.6,0.9-2.8,2.6-6.5
				C222.8,222.8,225.8,212.3,241.8,208.2z"/>
			<g>
				<path class="st41" d="M413,446h-90.3c-1.2,0-2.3-0.9-2.3-2.3l0,0c0-1.2,0.9-2.3,2.3-2.3H413c1.2,0,2.3,0.9,2.3,2.3l0,0
					C415.3,445.1,414.4,446,413,446z"/>
				<path class="st34" d="M411.9,441.3h-89c-1.2,0-2.1-0.9-2.1-2.3l-6-55c0-1.2,0.9-2.3,2.1-2.3h100.3c1.2,0,2.1,0.9,2.1,2.3
					l-5.3,55C413.9,440.4,413,441.3,411.9,441.3z"/>
			</g>
			<path class="st28" d="M368.4,358.9c0.2-0.2,0.2-0.5,0.2-0.7c-0.7-0.7-1.9-1.2-3.7-1.2c-1.9,0-3,0.2-3.7,0.9
				c-0.2,0.2-0.2,0.7,0.2,0.9c0.5,0.2,1.4,0.7,2.1,0.5c1.9-0.5,3.5,0.5,4.2-0.2C368,359.1,368.2,358.9,368.4,358.9z"/>
			<path d="M347.1,340.5c0,0-3.5-2.6-3.5-7.7s-1.9-9.8,0.7-12.1c2.8-2.3,12.3-8.6,18.1-7.2c5.8,1.4,19,2.6,19.5,7.2
				c0.5,4.6-0.7,14.2-1.2,15.3c-0.5,1.2-1.2,4.4-2.3,5.3c-0.5,0.5,1.2-5.1-0.5-7.4c-1.6-2.1-10,3.9-12.3-1.2
				c-2.3-5.1-6.5,3.7-10,1.4c-3.5-2.3-6.7,6.5-6.7,8.4S347.1,340.5,347.1,340.5z"/>
			<path d="M373.5,188.2c-0.5-0.9-1.4-0.7-1.9,0c-0.5,0.7-0.2,2.8-0.2,3.5c-0.2,0.7-1.4,1.6-2.3,1.9c-0.9,0.2-2.1,3.5-2.6,3
				c-0.5-0.5-0.9-7.4-0.7-8.4s0.9-2.6,0.5-4.2c-0.2-1.9-1.2-6.3,2.8-7.2c3.9-0.9,5.8,0.5,8.8,0.9c2.1,0.2,4.4-0.5,5.8-0.9
				c0.7-0.2,1.6,0,1.9,0.9c0.7,1.4,1.2,3.9-0.5,6.3c0,0-0.9,3.9-5.6,1.9c0,0-2.6-0.5-3.3,0.5c-0.9,1.2-1.2,6.3-1.2,7.2l-1.6-0.7
				V188.2z"/>
			<path d="M572.8,273.4c-0.9,0.5-1.6,0.7-2.6,0.7c-1.6,0.2-3.7,0.9-3.9,3.9c-0.5,4.4,7.9,12.3,7.4,14.4c-0.7,2.3-6.7,9.3-7.7,12.1
				c-0.9,3.3-5.6,24.4,18.3,23.2c23.5-1.2,51.1-8.8,56.2-15.6c6.7-8.8-15.8-14.9-26-34.6c-6.5-12.8-21.6-1.2-25.8-2.6
				C584.9,274.1,577.7,271.3,572.8,273.4z"/>
			<path class="st28" d="M531.7,370.7c0,0,9.8-3.5,11.1-3.5c1.4,0,14.4,3.7,17,3c2.1-0.7,9.1-1.4,11.8-2.6c0.5-0.2,1.2,0,1.6,0.2
				c1.9,1.4,6.5,5.3,5.8,5.6c-0.9,0.5-17.9-0.2-19.3,0.5c-1.4,0.7-7.9,3.9-11.4,0C544.9,369.8,533.6,374.2,531.7,370.7z"/>
			<path class="st37" d="M529.8,376.3h20.7c0,0,0-8.1-19-3.9C531.7,372.4,530.1,374,529.8,376.3z"/>
			<path class="st33" d="M585.6,319.6c0,0,4.2,11.8,1.2,16c-3,4.2,15.3,2.6,15.6,0c0.2-2.3-8.6-13.7-7.7-18.3c0-0.5,0.2-0.9,0.5-1.2
				C598.4,312.2,589.1,322.4,585.6,319.6z"/>
			<path class="st28" d="M580.9,286.2c0,0-1.9,0.2-2.6,3.5c-0.7,3.3-3.7,14.4-0.7,22.8c3,8.4,8.4,11.8,17,6.7
				c8.8-5.1,10.9-7.7,11.4-13.5c0.7-5.8,4.4-16.7,0-18.8C601.6,284.6,583,283.6,580.9,286.2z"/>
			<path class="st41" d="M609.5,180.1c0,0-2.1-0.2-2.1,1.9c0,1.4,0.9,19,0.9,19.3c0,0.2,0,4.2,3.3,4.9c1.2,0.2,2.6,0.2,4.6,0.2h30.4
				c0,0,1.9,0,2.1-1.6l-1.4-20.7c-0.2-1.6-1.6-3-3.3-3l0,0L609.5,180.1z"/>
			<path class="st27" d="M540.1,447.8c0,0-1.6,0.7-1.6,1.9c0,1.4-0.5,3.9-0.2,4.2c0,0.2-0.2,0.5,1.6,1.9c1.9,1.4,5.6,4.2,11.8,4.6
				c0.5,0,0.2-1.9,1.2-3.9c0.9-1.9,2.1-3.3,1.6-4.6c-0.5-1.4-7.2,1.2-8.6-0.5C544.5,449.7,541.7,446.7,540.1,447.8z"/>
			<path d="M651.3,216.3c0,0-2.8-1.2-2.6-3.5c0.2-2.3-0.5-3.7-1.2-5.3c-0.7-1.6-2.1-2.3-1.2-5.1c0.9-2.8-0.2-7,0.5-8.1
				c0.7-1.2,3.3-2.8,4.9-3c1.6-0.2,4.4,0.7,5.8-0.7c1.4-1.6,2.6-4.2,5.6-3.3c3.3,0.7,7.2,1.9,10-0.7c2.8-2.3,13.2-4.6,16.5-0.5
				c3,4.2,0,8.4-1.6,10s-5.8,10-6.7,12.5c0,0,1.6-9.5,0.5-9.8s-5.3,0.9-7.4-0.7s-7.7-3.3-9.8-1.9c-2.1,1.4-4.6,9.1-4.6,9.1
				L651.3,216.3z"/>
			<path class="st28" d="M655.3,206.1c0,0-0.7-2.6-2.3-2.3c-1.4,0.2-2.1,1.9-1.6,4.4c0.5,2.6,2.1,3,1.2,5.3
				c-0.9,2.3-1.6,4.4-3.3,4.6c-1.6,0.2-3.3,0-3.3,0s-0.7,2.3,1.4,5.1c2.1,2.8,6.7,4.4,7.9,7.9s3.7,8.1,4.4,6.5
				c0.7-1.6,3.3-7.9,4.6-7.9c1.4,0,7.2,2.1,9.1-1.6c1.9-3.9,7.4-7.4,7.9-15.6c0.5-8.1,1.6-12.1,1.6-12.1s-0.2-3.7-3.7-4.4
				c-3.7-0.7-5.3,2.1-13-1.6c-2.3-1.2-3.9,3-4.6,4.4c-0.7,1.4-4.4,9.5-4.9,9.5C656.2,208.2,654.8,207.7,655.3,206.1z"/>
			<path class="st30" d="M691.5,280.6h-35.1c-7.2,0-13-5.8-13-13V249c0-7.2,5.8-13,13-13h35.1c7.2,0,13,5.8,13,13v18.6
				C704.5,274.8,698.7,280.6,691.5,280.6z"/>
			<path class="st28" d="M607.7,146.4c0,0-0.2,1.9,0,5.1c0.2,3.3,0.7,9.8,7.2,11.1c6.7,1.4,9.1-6,9.1-9.5c0-3.5,0.2-3.5-0.5-5.6
				c-0.2-0.7-6.3,3.5-10.2,0C610.7,145.4,607.7,145.9,607.7,146.4z"/>
			<path class="st33" d="M434.6,162.4c0,0,1.6,0.5,0.9,1.9c-0.5,1.4-1.9,3.3-1.9,3.3S432.8,163.1,434.6,162.4z"/>
			<path d="M283,240.9c0,0-9.5,2.3-10-4.4c0,0-1.2-5.6,6.7-11.1c0,0,7.4-3.3,8.4-3.9c1.2-0.7,5.8-5.6,11.1-3.7s8.8,3.5,10.2,5.6
				c1.4,2.1,8.4,8.8,13.5,10.5c4.9,1.6,13.9,7.2,14.4,11.4c0.7,4.2,0.7,4.6-0.5,5.3s-1.9,2.1,0.9,3.3c2.8,1.2,17.9,8.4,11.4,19.5
				c0,0-2.6,6.5-12.1,5.8c0,0-3.7-0.5-3.7,2.3c0,2.8,0.2,7-4.9,7c-5.1,0-7.9-0.5-8.6,0.2c-0.7,0.7-3,1.6-3.7,4.2
				c-0.5,2.8,0.9,8.1-4.6,7c-5.6-1.2-7.4-5.6-5.8-8.4c1.4-2.8,2.3-4.4,1.2-4.6c-1.2,0-7,2.1-6.5-2.3c0.5-4.4-1.9-6.7,0.5-10.9
				c2.3-4.2,6-5.6,7.4-13.2s-2.6-6.7-4.4-5.8c-1.4,0.7-3.5,3.5-6.7-3c-3.3-6.5,1.2-14.6,1.4-15.8c0.2-0.9,0-4.6-3-4.4
				c-1.2,0-2.1,1.2-2.1,2.3c0,0.7,0.7,2.8,0.9,3.7c0.2,0.7-1.4,0-1.9-0.5c-1.2-0.9-2.3-2.3-2.6-2.1
				C290.6,234.9,289.7,240.2,283,240.9z"/>
			<path class="st33" d="M419.3,163.6c0,0-2.1-1.2-2.1,0.7c0,1.9,2.6,3.7,2.6,3.7S419.1,164,419.3,163.6z"/>
			<path class="st28" d="M433,155.7c1.6,1.2,2.1,4.6,1.6,6.3c-0.5,2.6-0.5,2.6-0.5,3.3c-0.2,5.3-3.5,9.5-7.7,9.5
				c-4.2,0-7.7-4.2-7.7-9.5l-0.2-1.4c-0.2-1.6,1.2-2.8,2.6-3.5C421.4,160.1,432.1,155,433,155.7z"/>
			<path class="st33" d="M266.2,368.6c0,0,0.2,6.5-0.9,8.1s-4.6,4.6-0.7,6.5c3.9,1.9,9.3,11.8,9.3,14.2c0,2.3,8.4-13.2,4.9-14.4
				c-2.3-0.7-4.4-2.1-3.7-10.7C275.3,368.4,266.2,368.6,266.2,368.6z"/>
			<path class="st28" d="M275.5,332.6c-1.2-0.7-1.2,1.2-1.9,2.3c-1.9,4.6-1.2,4.9-10.2,13.9c-2.6,2.8-3,16,0,18.3
				c3,2.3,11.8,6.5,14.6,4.2c2.8-2.3,7.4-9.1,7.2-13.9c-0.2-5.1,2.6-14.6-1.9-18.8C281.1,336.6,277.8,334.3,275.5,332.6z"/>
			<g>
				<path class="st27" d="M249,419.3c-0.2,4.6-0.9,7.4-2.1,11.4c-0.5,1.4,0.5,2.8,1.9,3c2.6,0.5,4.9,0.2,7.4-0.5
					c7.2-2.3,16.7,2.8,23.7-0.2c0.5-0.2,0.9-0.5,1.2-0.9c0.2-0.7-2.6-1.9-3-2.3s-4.6-2.3-5.3-2.6c-5.1-2.6-3.9,0.9-8.6-3
					c-1.9-1.6-9.5-6-12.3-7c-0.9-0.5-1.9,0.2-2.6,1.2l0,0C249.3,418.4,249,418.8,249,419.3z"/>
			</g>
			<g>
				<path class="st27" d="M291.1,412.1c0,2.6-2.1,4.2-3.5,5.3c-1.4,1.4-3.3,2.3-5.1,2.6c0,0,5.3,3,9.3-0.5c3.9-3.5,0-15.8,0-15.8
					L291.1,412.1z"/>
			</g>
			<path class="st28" d="M538.7,163.1c0,0,0.7,1.9,2.6,5.1c2.1,3,5.6,9.5,12.8,7.4c7.4-2.1,4.6-10,2.8-13.5
				c-1.9-3.5-1.9-6.5-3.5-7.4C551.9,153.8,538.2,161.9,538.7,163.1z"/>
			<g>
				<path class="st27" d="M458.3,398.1c-0.7-6.5-1.2-13-1.9-19.7c-0.2-2.8-0.5-5.3-0.5-8.1c0-2.6,0.5-4.9,0.9-7.4
					c0.7-4.9,1.4-9.8,2.1-14.6c0,0-0.5,19.7,0.7,24.2c1.2,4.4,3.3,17.2,3.3,21.8c0.2,4.6,1.2,18.3-1.2,19.3
					C459.5,414.6,458.3,398.1,458.3,398.1z"/>
			</g>
			<path d="M529.6,160.3c0,0,1.2-9.5,3.3-10.7c2.1-1.2,7.9-6,15.1-4.6c6,1.2,7.9,5.8,7.2,11.8c-1.4,11.6,6.7,19,10.2,20.2
				c3.5,1.2,5.8,4.4,2.8,7.2c-2.8,2.8-7.4,5.3-10,5.8c-2.6,0.5-7.4,3-8.8,2.3C548,191.7,530.3,180.3,529.6,160.3z"/>
			<rect x="482.2" y="376.3" class="st23" width="132.9" height="6.7"/>
			<g>
				<path class="st3" d="M675.5,255.8c0.2-0.2,0.2-0.5,0.2-0.9c-0.2,0-0.7,0.2-0.9,0.5c-0.2,0.2-0.5,0.5-0.2,0.7
					C675,256.2,675.2,256,675.5,255.8z M676.2,258.1c0-0.7,0.5-0.9,0.5-0.9c-0.2-0.5-0.7-0.5-0.9-0.5c-0.5,0-0.7,0.2-0.9,0.2
					c-0.2,0-0.5-0.2-0.9-0.2c-0.5,0-0.9,0.2-1.2,0.7c-0.5,0.9-0.2,2.1,0.2,2.8c0.2,0.2,0.5,0.7,0.9,0.7c0.2,0,0.5-0.2,0.9-0.2
					s0.5,0.2,0.9,0.2c0.5,0,0.7-0.2,0.7-0.7c0.2-0.5,0.5-0.7,0.5-0.7C676.9,259,676.2,258.8,676.2,258.1z"/>
			</g>
			<g>
				<path class="st3" d="M627.9,191c0.2-0.2,0.2-0.5,0.2-0.7c-0.2,0-0.5,0.2-0.7,0.2c-0.2,0.2-0.2,0.5-0.2,0.7
					C627.4,191.4,627.9,191.2,627.9,191z M628.6,192.8c0-0.5,0.5-0.9,0.5-0.9c-0.2-0.5-0.7-0.5-0.7-0.5c-0.2,0-0.7,0.2-0.7,0.2
					c-0.2,0-0.5-0.2-0.7-0.2c-0.5,0-0.7,0.2-0.9,0.5c-0.5,0.7,0,1.6,0.2,2.1c0.2,0.2,0.5,0.5,0.7,0.5c0.2,0,0.5-0.2,0.7-0.2
					c0.2,0,0.5,0.2,0.7,0.2c0.2,0,0.5-0.2,0.7-0.5c0.2-0.2,0.2-0.7,0.2-0.7C629,193.5,628.6,193.3,628.6,192.8z"/>
			</g>
			<g>
				<path class="st7" d="M369.1,401.2c0.5-0.5,0.9-1.4,0.7-2.1c-0.7,0-1.6,0.5-2.1,0.9c-0.5,0.5-0.9,1.2-0.7,2.1
					C367.7,402.1,368.7,401.6,369.1,401.2z M370.7,406.3c0-1.6,1.4-2.6,1.4-2.6c-0.7-1.2-1.9-1.4-2.3-1.4c-0.9,0-1.9,0.7-2.6,0.7
					c-0.5,0-1.4-0.7-2.1-0.7c-1.2,0-2.1,0.7-2.8,1.6c-1.2,2.1-0.2,5.1,0.9,6.7c0.5,0.7,1.2,1.6,2.1,1.6c0.9,0,1.2-0.5,2.1-0.5
					c0.9,0,1.2,0.5,2.1,0.5c0.9,0,1.4-0.9,2.1-1.6c0.7-0.9,0.9-1.9,0.9-1.9C372.4,409.1,370.7,408.4,370.7,406.3z"/>
			</g>
			<g>
				<path class="st29" d="M585.6,274.1c0,0,6.3-6,15.8-0.7c0,0,7.7,3,8.6,18.8h-2.8c0,0,0.2-16.5-11.8-17.2l-4.9,0.5L585.6,274.1z"
					/>
				<circle class="st36" cx="606.7" cy="300.1" r="8.4"/>
				<circle class="st29" cx="607.4" cy="300.1" r="5.1"/>
				<polygon class="st29" points="608.3,299.4 606,299.4 592.6,311.3 589.8,312 589.8,314.1 593,313.1 606.3,301.3 608.3,301.3 				
					"/>
				<circle class="st36" cx="588.6" cy="313.1" r="1.9"/>
			</g>
			<rect x="391.6" y="228.8" class="st23" width="133.6" height="4.9"/>
			<path class="st37" d="M519.2,376.3h-40.6v-4.4h36.2C517.3,371.9,519.2,374,519.2,376.3L519.2,376.3z"/>
			<path class="st33" d="M461.8,368.4c0,0-0.2,1.2,0.5,3.3c0.7,1.9,2.6,10.7,4.2,12.8c1.6,2.1,0.7,1.9,0.5,3.7
				c-0.2,1.6,0.7,1.9,0.5,3c-0.5,1.2-1.6,4.2-2.8,10.2c-1.2,6,0.7,12.8-0.9,14.2c-1.6,1.4-3.7,0.2-4.4,2.3c-0.7,1.9-0.7,3.9-1.4,4.2
				c-0.7,0.2-1.6,0.2-1.6,1.2c0,0.9,4.2,4.6,6.5,3.3s5.6-7.4,7.7-10c2.1-2.6,11.6-18.6,12.3-19.7s1.2-1.9,1.2-3.9
				c0-2.1-1.6-10.2-0.9-12.5c0.7-2.3,2.6-16.3-2.1-20.7L461.8,368.4z"/>
			<path class="st27" d="M462,362.1c0,0-2.6,0.7-2.3,1.9c0.2,1.2,0.5,2.8,0.9,3.9c0.2,0.9-0.2,3,0.7,2.1c0.9-0.9,3.9-4.2,12.3-6.7
				c3.5-1.2,8.4-3,8.8-1.4c0.5,1.9,0.7,3.5,0.9,2.3c0.2-1.2,2.3-1.6,1.6-6.7c0-0.7,0.7-3.5-0.5-4.4c-1.2-0.9-1.2-0.9-2.6-0.2
				c-0.9,0.5-11.6,4.9-13.9,6.5C467.6,359.6,463,362.4,462,362.1z"/>
			
				<linearGradient id="SVGID_4_" gradientUnits="userSpaceOnUse" x1="568.0546" y1="380.3445" x2="574.587" y2="362.3972" gradientTransform="matrix(1 0 0 -1 0 540)">
				<stop  offset="0" style="stop-color:#FFFFFF;stop-opacity:0"/>
				<stop  offset="1" style="stop-color:#FFFFFF;stop-opacity:0.4"/>
			</linearGradient>
			<path class="st42" d="M568.6,177.7l7.2-0.5c0,0,0.9-3-1.4-6.3c-2.1-3.3-1.9-7.7-0.9-13.2c0,0-0.5,0.9-1.6,2.1
				c-1.4,1.2-3.9,2.8-3.5,5.1c0.2,0.7,0.5,1.4,0.5,1.9c0.5,1.6-1.2,1.2-1.4,2.8c0,0.9-0.2,1.9-0.5,1.9
				C566.1,172.4,568.6,177.7,568.6,177.7z"/>
		</g>
		<path class="st33" d="M487.8,204.7c0,0,0.7,0.9,0.7,2.1c0,1.2-0.9,4.4-0.9,4.4s9.5-7.2,10.9-11.8c1.4-4.6,1.2-3.3,0.9-5.3
			c-0.2-2.1-7-9.3-7.7-6.5c-0.7,2.8-1.2,2.1-1.6,3.9C489.9,193.3,487.3,204.2,487.8,204.7z"/>
		<path d="M476.4,175.2c0,0-6.3,4.2-0.2,9.5c0,0,4.4,2.1,10.2-0.7c0,0,2.3-1.4,2.8,0.5c0.2,1.9,0.2,4.2,0.5,5.3
			c0.2,1.2,0.5,3-1.4,4.6c-2.1,1.6-9.5,5.6-10,7c-0.5,1.4-0.5,3.5-0.2,5.6c0.5,2.1,0.2,5.1,3.3,3c3-2.1,10.5-3.9,10.2-7.7
			c-0.5-5.8-1.2-10.5-0.5-11.8c0.7-1.4,2.3-2.3,2.8-1.4c0.5,0.9-0.5,2.6-0.2,3.5c0.2,0.9,1.9,1.6,3,1.6c1.4,0,2.3,2.3,2.8,1.6
			s1.4-4.4,1.2-5.6c-0.5-1.2-1.2-3.3-0.7-5.3c0.5-2.3,1.4-7.9-3.5-9.3c-4.9-1.4-7.4,0.5-11.1,0.9
			C481.3,177.3,476.4,175.2,476.4,175.2z"/>
	</g>
</g>
<g>
	<circle class="st4" cx="162.4" cy="128.3" r="21.8"/>
	<g>
		<path class="st13" d="M162.6,132.3l-6.4-16c-0.2-0.3,0-0.8,0.5-1l0,0l6.4,15.9l9.4-7.3l0,0c0.3,0.3,0.2,0.8-0.2,1.2L162.6,132.3z"
			/>
	</g>
</g>
<g>
	<g>
		<rect x="719.1" y="420.9" class="st4" width="83.5" height="0.8"/>
	</g>
	<g>
		<path class="st4" d="M780.8,386.5c0.6,1.7,5.8,20.4,5.2,22.9s0,7.4-3.9,11.8h-12.1c-3.9-4.4-3-9.1-3.9-11.8
			c-0.6-2.8,4.7-20.9,5.2-22.9H780.8z"/>
		<path class="st43" d="M781.6,412.1c-0.3-1.1-0.3-1.7-1.4-1.9c-2.2-0.8-5.8-1.1-5.2-4.7c0.3-2.8,1.4-5-1.1-7.2
			c-2.2-1.9-3.3-4.4-3.6-7.4c0,0,0,0,0,0.3c-1.7,6.1-4.1,16.3-3.9,17.9c0.6,2.8,0,7.4,3.6,11.8h12.1c1.4-1.7,2.2-3.3,2.8-5.5
			C783.3,415.1,781.9,413.8,781.6,412.1z"/>
		<path class="st4" d="M769.8,381.5c-1.9-1.1-2.5-6.3-5-9.1c-2.5-2.8-3.6-6.3-4.7-9.9c-1.9-6.6,1.7-12.9-0.8-19.8
			c-1.9-5.2-5.8-15.7,1.4-19c2.8-1.4,2.5,0.8,2.8,3.6c0,3.3-0.6,6.9,0.3,10.2c0.8,2.2,2.5,3,3.6,5c1.1,1.7,1.7,3.6,1.7,5.8
			c0,1.7-0.3,3.6,0.3,5.2c0.8,2.2,3.3,3.9,4.4,6.3c1.7,3.6,3.6,8.3,0.8,11.6c-1.9,2.5-4.4,4.7-5.2,8c0,0.3,0,0.6,0,0.8L769.8,381.5z
			"/>
		<path class="st43" d="M778.3,386.8c0.3-1.9-3-9.4-3.6-20.1c-0.3-4.4,2.5-10.5,1.9-15.2c-0.6-5.2,1.7-6.1,4.7-9.9
			c2.2-2.8,2.2-7.2,1.4-10.5c-0.6-2.5-1.7-4.7-0.8-7.2c0.8-1.9,2.5-3,3-5.2c0.3-2.5-0.3-5.2,0.6-7.7c0.8-2.5,2.8-4.7,5-6.3
			c2.8-1.7,3,0,3.9,2.8c1.1,4.4,1.4,9.4,0.6,13.8c-0.8,3.9-2.2,8.3-1.1,12.4c2.2,6.9,10.7,14.3,6.3,22c-0.8,1.9-2.5,3-3.6,5
			c-1.1,1.7-1.9,3.6-3.3,5.5c-1.9,2.8-2.5,6.6-5,9.1c-3.6,3.6-7.2,7.2-9.6,12.1L778.3,386.8z"/>
		<path class="st7" d="M762.9,353.4c0,2.8-0.6,8.5,3.3,9.4c0.3,0,0.3,0,0.6-0.3c0.8-0.8,0-2.2-0.6-3c-0.3-0.3-0.3-0.3-0.6-0.3h-0.3
			c-0.3,0-0.3,0.3-0.3,0.3c-0.3,1.7,0,3.3,0.8,4.7c0.6,1.1,1.4,1.9,2.5,3c1.4,1.7,1.4,3.3,1.9,5.2c0.3,0.6,0.6,1.1,0.8,1.4
			c0.6,1.4,0.6,3,0.6,4.4c0,1.4-0.3,2.8-0.6,3.9c-0.3,1.9,0,3.6,1.7,4.7c0.6,0.3,1.1-0.6,0.6-1.1c-2.2-1.7-0.6-6.3-0.6-8.5
			c0-1.4,0-2.8-0.6-3.9c-0.6-1.4-0.6-3-1.1-4.4c-1.1-2.5-4.1-4.4-4.4-7.2c0-0.3,0-0.3,0-0.6c0.3-0.6-0.3-0.8-1.1-0.6
			c-0.6-0.8-0.8-1.9-0.8-3c0-1.4,0-2.8,0-4.1c0-0.3-0.3-0.6-0.6-0.6C763.2,352.9,762.9,353.1,762.9,353.4z"/>
		<path class="st7" d="M793.2,340.5c-0.6,1.9-1.4,3.9-2.8,5.5c-1.1,1.4-2.8,1.1-3.9,1.9c-1.9,1.7,0,5.2,0.6,7.2
			c0.8,2.5,1.9,5.5,0,7.7c-0.8,1.1-1.9,1.9-3,2.8c-1.9,1.4-2.8,3.6-2.5,5.8c-2.2,1.7-3.3,4.4-4.4,6.9s-2.5,5.8-1.4,8.5
			c0.3,0.6,1.4,0.3,1.1-0.3c-1.1-2.5,0.6-5.8,1.7-8c0.8-1.9,1.9-3.9,3.3-5.5c0.3,0.3,0.3,0.3,0.6,0.3c0.6,0,1.1-0.8,1.1-1.4v-0.3
			c0-0.3-0.3-0.6-0.6-0.3c0-3.6,3.6-4.7,5.8-7.4c1.7-2.2,0.8-5,0-7.4c-0.6-1.7-1.1-3.3-1.4-5c-0.6-1.9,2.5-2.5,3.3-3.3
			c1.9-1.4,3-4.1,3.6-6.6c0-0.3,0-0.6-0.3-0.8C793.7,340.5,793.5,340.2,793.2,340.5z"/>
		<path class="st4" d="M773.9,323.1c-0.6,3.6,0.3,6.3,0.8,9.6c0,1.1,0.3,1.9,0.3,3c0.3,1.7,1.7,2.5,2.2,3.9c0.6,2.5-0.6,5.2-0.8,7.7
			c0,2.2,1.7,3.3,3,4.7c3.3,3-1.4,5.5-3,8c-1.7,2.2-1.7,5-1.7,7.7c0,3.9,0.6,6.9-0.6,10.7c0,0.3-0.3,1.7-1.7,7.7
			c-0.3,0.8,0.8,1.1,0.8,0.6c1.1-3.6,0.3-3.3,1.4-7.2c1.1-2.8,1.4-5.8,1.1-9.1c-0.3-3.9-0.8-8,2.2-11c1.7-1.7,3.3-3,3.6-5.5
			c0.3-1.7-2.2-3.3-3.3-4.4c-2.2-1.9-0.8-5.5-0.6-8c0-0.8,0-1.9,0-2.8c-0.3-1.7-1.7-2.5-2.2-4.1s-0.3-3-0.6-4.4
			c-0.8-2.5-0.8-5.2-0.6-7.7C775.3,322.8,774.2,322.6,773.9,323.1z"/>
		<path class="st7" d="M775,386.5c1.1-2.5,1.9-5.2,2.5-8c0.8-3.6,2.8-6.9,5-9.6c1.9-2.2,3.3-4.4,4.7-7.2c1.1-2.8,1.1-6.1,0.8-9.1
			c-0.3-5.5,0.3-11,0.6-16.3c0-7.2,1.1-14.1,2.8-20.9c0.3-0.8-0.8-1.1-1.1-0.3c-1.4,6.3-2.5,12.7-2.5,19c-0.3,5-0.6,9.6-0.8,14.6
			c0,3.9,0.6,7.4-0.3,11.3c-0.6,3.3-3.3,6.3-5.5,8.8c-1.7,1.9-3,4.4-4.1,6.9c-1.4,3.3-1.7,7.2-3,10.5
			C773.6,386.8,774.7,387.3,775,386.5z"/>
		<rect x="769.5" y="385.7" class="st13" width="12.7" height="1.7"/>
	</g>
</g>
</svg>
