<svg xmlns="http://www.w3.org/2000/svg" width="228.5" height="50.9"><path d="M6.2 48.1v.6c0 .9-.2 1.4-.7 1.8-.5.3-1.2.5-2.3.5-.7 0-1.5-.1-2.4-.2v-1c1 .2 1.8.3 2.5.3.6 0 1-.1 1.3-.2.2-.2.4-.5.4-.9v-1c0-.3-.1-.6-.3-.7-.2-.1-.5-.2-1-.2h-1c-.8 0-1.4-.2-1.7-.5-.3-.3-.5-.8-.5-1.4v-.6c0-.6.2-1.1.7-1.4.4-.3 1.3-.5 2.5-.5.6 0 1.3 0 2.1.1v.9c-.9-.1-1.6-.2-2.1-.2-.8 0-1.3.1-1.5.2-.3.2-.4.4-.4.8v.9c0 .3.1.5.3.6.2.1.5.2 1 .2h1c.8 0 1.4.1 1.7.5.2.2.4.7.4 1.4zM19.3 44.9v3.8c0 .4-.1.8-.3 1.1-.2.3-.5.5-.9.7-.4.1-.7.2-1.1.3-.4.1-.7.1-1.1.1-2.2 0-3.4-.7-3.4-2.2v-3.8c0-1.5 1.1-2.3 3.4-2.3s3.4.8 3.4 2.3zm-1.1 3.8v-3.8c0-1-.7-1.5-2.2-1.5-.3 0-.6 0-.8.1-.2 0-.5.1-.7.2-.2.1-.4.3-.5.5-.1.2-.2.5-.2.8v3.8c0 .9.7 1.4 2.2 1.4 1.4-.1 2.2-.6 2.2-1.5zM32.4 42.8v6c0 1.4-1 2.2-3.1 2.2-.4 0-.8 0-1.1-.1-.3-.1-.7-.2-1-.3-.3-.1-.6-.4-.8-.7-.2-.3-.3-.7-.3-1.1v-6h1.1v5.9c0 .5.2.9.5 1.1.4.2.8.3 1.5.3.6 0 1.1-.1 1.4-.3.3-.2.5-.6.5-1.1v-5.9h1.3zM45.5 50.8H44l-2.3-3.4h-1.2v3.4h-1.2v-8h2.8c1 0 1.7.1 2.2.3.4.2.7.6.7 1.3v1.4c0 .5-.2.9-.6 1.1-.4.3-.9.4-1.5.4l2.6 3.5zm-1.7-5.2v-1.1c0-.6-.5-.9-1.6-.9h-1.7v3h1.6c.6 0 1-.1 1.3-.2.3-.2.4-.4.4-.8zM57.2 50.7c-.7.2-1.5.2-2.2.2-2.2 0-3.4-.7-3.4-2.2v-3.8c0-1.5 1.1-2.3 3.4-2.3.7 0 1.5.1 2.2.2v.9c-.8-.2-1.5-.3-2.2-.3-.3 0-.6 0-.8.1-.2 0-.5.1-.7.2-.2.1-.4.2-.5.4-.1.2-.2.5-.2.8v3.7c0 .9.8 1.4 2.3 1.4.7 0 1.4-.1 2.2-.3v1zM63.7 42.8h1.2v8h-1.2zM78.8 50.8h-1.5L73 44.1v6.7h-1.1v-8h1.5l4.3 6.6v-6.6h1.1zM92.2 50.5c-1.1.2-2 .4-2.9.4h-1c-.3 0-.6-.1-1-.2-.3-.1-.6-.2-.9-.4-.2-.2-.5-.4-.6-.6-.2-.3-.2-.6-.2-.9V45c0-.5.1-.9.4-1.2.2-.3.6-.6 1-.7l1.2-.3c.4-.1.8-.1 1.2-.1 1 0 1.9.1 2.8.2v.9c-.3-.1-.8-.1-1.3-.2-.6-.1-1-.1-1.4-.1-1.7 0-2.5.5-2.5 1.4v3.8c0 .3.1.5.2.7.2.2.4.3.7.4.3.1.5.2.8.2.3 0 .6.1.9.1.6 0 1.1-.1 1.8-.2v-2.8h-1.9v-.8h3v4.2zM112 48.1v.6c0 .9-.2 1.4-.7 1.8-.5.3-1.2.5-2.3.5-.7 0-1.5-.1-2.4-.2v-1c1 .2 1.8.3 2.5.3.6 0 1-.1 1.3-.2.3-.1.4-.4.4-.8v-1c0-.3-.1-.6-.3-.7-.2-.1-.5-.2-1-.2h-.9c-.8 0-1.4-.2-1.7-.5-.3-.3-.5-.8-.5-1.4v-.6c0-.6.2-1.1.7-1.4.4-.3 1.3-.5 2.5-.5.6 0 1.3 0 2.1.1v.9c-.9-.1-1.6-.2-2.1-.2-.8 0-1.3.1-1.5.2-.2.2-.4.4-.4.8v.9c0 .3.1.5.3.6.2.1.5.2 1 .2h1c.8 0 1.4.1 1.7.5.1.1.3.6.3 1.3zM118.6 42.8h1.2v8h-1.2zM135.4 50.8h-1.1V44l-2.6 6.8h-1.1L128 44h-.1v6.8h-1.1v-8h1.8l2.6 6.6 2.4-6.6h1.8zM147.8 44.3V46c0 .7-.3 1.2-.8 1.5-.5.3-1.3.4-2.2.4h-1.2v2.9h-1.2v-8h3.5c.2 0 .5.1.8.1.3.1.5.1.6.3.2.1.3.3.4.5.1.1.1.4.1.6zm-1.2 1.7v-1.5c0-.2-.1-.4-.2-.5-.1-.1-.3-.2-.5-.3-.2-.1-.4-.1-.5-.1h-1.8v3.6h1.4c.5 0 .9-.1 1.2-.3.3-.2.4-.5.4-.9zM159.5 50.8h-5.2v-8h1.2v7.1h4zM165.7 42.8h1.2v8h-1.2zM179.4 43.6h-4.3v2.6h3.9v.9h-3.9v3.7h-1.2v-8h5.5zM185.7 42.8h1.2v8h-1.2zM199.4 50.8h-5.5v-8h5.4v.8h-4.2v2.6h3.8v.9h-3.8v2.8h4.3zM212.5 45.1v3.5c0 1.4-1.1 2.2-3.4 2.2H206v-8h3.2c2.2 0 3.3.7 3.3 2.3zm-1.1 3.5v-3.5c0-.3-.1-.6-.2-.8-.1-.2-.3-.3-.5-.4-.2-.1-.5-.2-.7-.2h-2.8V50h1.9c1.5 0 2.3-.5 2.3-1.4zM220.2 42.8l-.4 5.8h-.6l-.4-5.8h1.4zm0 8h-1.4v-1.3h1.4v1.3zM8.1 34.2H0V.5h8.1v33.7zm23.7 0h-9.9L8.3 16.3 20.9.5h9.5L17.6 16.2l14.2 18zM65.6 10.2V25c0 1.9-.5 3.5-1.5 4.9-1 1.4-2.4 2.4-4 3-1.7.7-3.4 1.2-5.1 1.4-1.7.3-3.5.4-5.4.4-1.8 0-3.5-.1-5.1-.3-1.6-.2-3.3-.6-5-1.3-1.8-.6-3.2-1.6-4.3-3-1.1-1.4-1.6-3.1-1.6-5.1V10.2c0-1.7.4-3.3 1.2-4.6.8-1.3 1.7-2.3 2.8-3 1.1-.6 2.4-1.2 4-1.6 1.6-.4 2.9-.7 4.2-.8 1.1-.2 2.4-.2 3.8-.2s2.7 0 3.9.2c1.2.1 2.6.4 4.2.8s2.9 1 4 1.7 2 1.7 2.8 3c.7 1.2 1.1 2.8 1.1 4.5zM57.5 25V10.2c0-1.6-.7-2.8-2-3.4-1.3-.7-3.3-1-5.9-1-2.6 0-4.6.3-5.9 1-1.3.6-2 1.8-2 3.4V25c0 .9.2 1.6.7 2.2.4.6 1.1 1 1.9 1.2.8.2 1.7.4 2.4.5.8.1 1.7.1 2.9.1 1.1 0 2.1 0 2.9-.1.8-.1 1.6-.3 2.4-.5.8-.2 1.5-.6 1.9-1.2.5-.7.7-1.4.7-2.2zM99.5 21.5v5.2c0 2.8-1.1 4.8-3.4 5.9-2.2 1.1-5.6 1.7-10 1.7h-14V.5h13.6c4.8 0 8 .5 9.7 1.6 1.8 1.1 2.6 3 2.6 5.6v4.2c0 1-.4 1.9-1.1 2.7-.8.8-1.6 1.4-2.6 1.7v.3c1.2.1 2.4.7 3.6 1.7 1.1.8 1.6 1.9 1.6 3.2zm-9.3-10.7V9.2c0-1.1-.3-1.9-.8-2.3-.5-.4-1.8-.6-3.8-.6h-5.4v7.9h5.6c1.9 0 3.1-.2 3.7-.7.5-.5.7-1.4.7-2.7zm1.2 14.8v-2.7c0-1.2-.3-2.1-1-2.6-.6-.5-1.8-.8-3.4-.8h-6.8v9H86c2 0 3.4-.2 4.2-.7.8-.5 1.2-1.2 1.2-2.2zM130.9 22.4v2.2c0 2-.4 3.7-1.1 5.1-.7 1.4-1.8 2.4-3.2 3.1-1.4.7-3 1.2-4.6 1.5-1.7.3-3.7.4-6 .4-3.2 0-7.2-.3-11.9-.9v-6.2c5.7.9 9.8 1.3 12 1.3 4.5 0 6.7-1.2 6.7-3.5v-2.2c0-1-.3-1.8-.9-2.5-.6-.6-1.8-1-3.5-1h-3.9c-7.4 0-11.1-2.9-11.1-8.8V8.6c0-2.9 1.2-5.1 3.7-6.5C109.5.7 113.4 0 118.8 0c2.6 0 6.1.2 10.5.7v6c-5.3-.6-8.9-.9-10.8-.9-2.7 0-4.5.2-5.5.7-1 .5-1.5 1.2-1.5 2.3v2.4c0 1.8 1.5 2.6 4.5 2.6h4c3.9 0 6.8.7 8.4 2.2 1.7 1.4 2.5 3.5 2.5 6.4zM162.2 6.3h-10.3v27.9h-8.1V6.3h-10.4V.5h28.8zM193.1 34.2h-26.2V.5h25.7v5.8H175V14h15.8v5.8H175v8.6h18.1zM228.5 34.2h-9.3L210.4 21h-3.7v13.2h-8.1V.5h15.2c4.4 0 7.7.5 9.7 1.6 2 1.1 3.1 2.9 3.1 5.5v5.9c0 2-.7 3.6-2.2 4.7-1.5 1.1-3.3 1.8-5.5 2.1l9.6 13.9zm-10-22.3V9.5c0-1.2-.4-2.1-1.1-2.6-.7-.5-2-.7-3.8-.7h-6.9v9.3h6.9c1.9 0 3.2-.3 3.9-.8.6-.3 1-1.3 1-2.8zM225.4 43.2h-.8v2.2h-.5v-2.2h-.8v-.5h2.1zM228.5 45.4h-.5v-2.2l-.6 2.2h-.5l-.7-2.2v2.2h-.4v-2.7h.7l.6 2.1.7-2.1h.7z"/></svg>