<?xml version="1.0" encoding="utf-8"?>
<!-- Generator: Adobe Illustrator 22.0.1, SVG Export Plug-In . SVG Version: 6.00 Build 0)  -->
<svg version="1.1" id="Layer_1" xmlns="http://www.w3.org/2000/svg" xmlns:xlink="http://www.w3.org/1999/xlink" x="0px" y="0px"
	 viewBox="0 0 64 64" style="enable-background:new 0 0 64 64;" xml:space="preserve">
<style type="text/css">
	.st0{fill:#FF3021;}
	.st1{fill:#FF9890;}
	.st2{fill:#FFFFFF;}
</style>
<g>
	<g>
		<path class="st0" d="M26.1-120.3c-12,0-21.6,8.5-21.6,19.1c0,5.1,2.3,9.7,6,13.2c-0.7,1.6-1.5,3-3.9,5.4
			c-2.3,2.2,5.2,5.8,12.2-0.6c2.1,0.6,5,1.1,7.3,1.1c12,0,21.6-8.5,21.6-19.1C47.8-111.7,38.1-120.3,26.1-120.3z M16.8-99
			c-1.1,0-2-0.9-2-2c0-1.1,0.9-2,2-2c1.1,0,2,0.9,2,2C18.8-100,17.9-99,16.8-99z M26.4-99c-1.1,0-2-0.9-2-2c0-1.1,0.9-2,2-2
			c1.1,0,2,0.9,2,2C28.4-100,27.5-99,26.4-99z M36-99c-1.1,0-2-0.9-2-2c0-1.1,0.9-2,2-2c1.1,0,2,0.9,2,2C38-100,37.1-99,36-99z"/>
	</g>
	<g>
		<path class="st1" d="M41.2-94.2c8.7-0.7,16.3,5.1,16.9,12.9c0.3,3.8-1.1,7.3-3.6,10c0.6,1.2,1.3,2.1,3.1,3.8
			c1.8,1.5-3.5,4.6-9,0.2c-1.5,0.6-3.6,1.1-5.3,1.2C34.5-65.4,27-71.2,26.4-79S32.4-93.6,41.2-94.2z"/>
		<path class="st2" d="M56.1-71.1c2.4-3,3.6-6.6,3.3-10.3c-0.6-8.5-8.9-14.9-18.4-14.2c-4.6,0.3-8.8,2.3-11.8,5.4
			c-3.1,3.2-4.6,7.2-4.3,11.4c0.6,8.5,8.9,14.9,18.4,14.2c1.5-0.1,3.3-0.5,5-1.1c2.1,1.5,4.2,2.1,6.1,2.1c1.9,0,3.5-0.7,4.3-1.6
			c0.9-1,0.8-2.4-0.2-3.3C57.2-69.7,56.5-70.5,56.1-71.1z M55.2-66.5c-0.8,0.1-3.1,0.2-5.8-1.9l-0.6-0.5l-0.7,0.3
			c-1.3,0.5-3.3,1-4.9,1.2c-8,0.6-14.9-4.6-15.4-11.6c-0.3-3.4,1-6.7,3.5-9.3c2.6-2.6,6.1-4.3,10-4.6c8-0.6,14.9,4.6,15.4,11.6
			c0.2,3.2-0.9,6.4-3.3,9l-0.6,0.7l0.4,0.9c0.6,1.2,1.3,2.3,3.1,3.8C56.1-66.7,55.7-66.6,55.2-66.5z"/>
	</g>
</g>
<g>
	<circle class="st0" cx="22.5" cy="25.3" r="7.6"/>
	<path class="st0" d="M15.9,31.2c0.1,0,0.2,0.1,0.2,0.1c1.5,1.8,3.8,2.9,6.4,2.9c2.6,0,5-1.2,6.5-3.1c0,0,3.1-1.1,6.5,0.4
		c0,0-4.7,4.7-5.5,12.6c0,0-9.7,0.1-21,2.3c0,0,0.7-7.1,2.5-9.6c0,0-8.8-6-6.9-18.3c0-0.3,0.2-0.5,0.4-0.7c0.2-0.2,0.5-0.3,0.9-0.2
		c0.2,0,0.4,0.1,0.5,0.2c0.2,0.2,0.6,0.4,0.6,1c0,0,0.3,8.4,8.3,12.2L15.9,31.2z"/>
	<circle class="st1" cx="41.5" cy="25.3" r="7.6"/>
	<path class="st1" d="M36.4,32.7c0,0-4.4,4.4-4.9,11.4c0,0,12.8-0.1,23.2,2c0,0-0.1-5.4-2.4-9.2c0,0,9.4-7.3,6.8-19.1
		c0,0-1.5-1.3-2.2,0.5c0,0,0.2,8.7-8.6,12.8C48.2,31.2,43.5,36.9,36.4,32.7z"/>
</g>
<g>
	<path class="st1" d="M138-66.4h-4.9c-0.6,0-1.1-0.5-1.1-1.1v-6.5c0-0.4,0.2-0.7,0.4-0.9l4.9-4.5c0.8-0.6,1.8,0,1.8,0.9v11
		C139.2-66.9,138.7-66.4,138-66.4z"/>
	<path class="st1" d="M147.8-66.4h-4.9c-0.6,0-1.1-0.5-1.1-1.1v-15.6c0-0.3,0.1-0.6,0.4-0.8l4.9-4.7c0.7-0.7,1.9-0.2,1.9,0.8v20.2
		C148.9-66.9,148.4-66.4,147.8-66.4z"/>
	<path class="st1" d="M157.6-66.4h-4.9c-0.6,0-1.1-0.5-1.1-1.1v-21.7c0-1,1.2-1.5,1.9-0.8l4.9,4.6c0.2,0.2,0.4,0.5,0.4,0.8v17.1
		C158.7-66.9,158.2-66.4,157.6-66.4z"/>
	<path class="st1" d="M167.3-66.4h-4.9c-0.6,0-1.1-0.5-1.1-1.1v-15.4c0-0.3,0.1-0.6,0.3-0.8l4.9-5.1c0.7-0.7,2-0.2,2,0.8v20.5
		C168.5-66.9,167.9-66.4,167.3-66.4z"/>
	<path class="st1" d="M177.1-66.4h-4.9c-0.6,0-1.1-0.5-1.1-1.1v-25.2c0-0.3,0.1-0.6,0.3-0.8l4.9-5.3c0.7-0.8,2-0.3,2,0.8v30.5
		C178.2-66.9,177.7-66.4,177.1-66.4z"/>
	<path class="st0" d="M183.5-116.1c0-1.1-0.9-1.5-1.8-1.5l-10.6,0c-1.4,0-1.9,1.6-1.1,2.9l2.7,2.6l-11.5,11.5
		c-0.6,0.6-1.6,0.6-2.2,0l-6.8-6.8c-0.6-0.6-1.6-0.6-2.2,0L129-86.8c-0.6,0.6-0.6,1.6,0,2.2l2.5,2.6c0.6,0.6,1.6,0.6,2.2,0l16.3-16
		c0.6-0.6,1.6-0.6,2.2,0l6.9,6.9c0.6,0.6,1.6,0.6,2.2,0l16.4-16.4l3.2,3c1,1,2.6,0.2,2.6-1.1L183.5-116.1z"/>
</g>
</svg>
