<?xml version="1.0" encoding="utf-8"?>
<!-- Generator: Adobe Illustrator 22.0.1, SVG Export Plug-In . SVG Version: 6.00 Build 0)  -->
<svg version="1.1" id="Layer_1" xmlns="http://www.w3.org/2000/svg" xmlns:xlink="http://www.w3.org/1999/xlink" x="0px" y="0px"
	 viewBox="0 0 64 64" style="enable-background:new 0 0 64 64;" xml:space="preserve">
<style type="text/css">
	.st0{fill:rgb(197,197,197) !important;}
	.st1{fill:rgb(117,117,117) !important;}
	.st2{fill:#FFFFFF;}
</style>
<g>
	<g>
		<path class="st0" d="M-97.9,3.7c-12,0-21.6,8.5-21.6,19.1c0,5.1,2.3,9.7,6,13.2c-0.7,1.6-1.5,3-3.9,5.4c-2.3,2.2,5.2,5.8,12.2-0.6
			c2.1,0.6,5,1.1,7.3,1.1c12,0,21.6-8.5,21.6-19.1C-76.2,12.3-85.9,3.7-97.9,3.7z M-107.2,25c-1.1,0-2-0.9-2-2c0-1.1,0.9-2,2-2
			c1.1,0,2,0.9,2,2C-105.2,24-106.1,25-107.2,25z M-97.6,25c-1.1,0-2-0.9-2-2c0-1.1,0.9-2,2-2c1.1,0,2,0.9,2,2
			C-95.6,24-96.5,25-97.6,25z M-88,25c-1.1,0-2-0.9-2-2c0-1.1,0.9-2,2-2c1.1,0,2,0.9,2,2C-86,24-86.9,25-88,25z"/>
	</g>
	<g>
		<path class="st1" d="M-82.8,29.8c8.7-0.7,16.3,5.1,16.9,12.9c0.3,3.8-1.1,7.3-3.6,10c0.6,1.2,1.3,2.1,3.1,3.8
			c1.8,1.5-3.5,4.6-9,0.2c-1.5,0.6-3.6,1.1-5.3,1.2C-89.5,58.6-97,52.8-97.6,45C-98.2,37.2-91.6,30.4-82.8,29.8z"/>
		<path class="st2" d="M-67.9,52.9c2.4-3,3.6-6.6,3.3-10.3c-0.6-8.5-8.9-14.9-18.4-14.2c-4.6,0.3-8.8,2.3-11.8,5.4
			c-3.1,3.2-4.6,7.2-4.3,11.4c0.6,8.5,8.9,14.9,18.4,14.2c1.5-0.1,3.3-0.5,5-1.1c2.1,1.5,4.2,2.1,6.1,2.1c1.9,0,3.5-0.7,4.3-1.6
			c0.9-1,0.8-2.4-0.2-3.3C-66.8,54.3-67.5,53.5-67.9,52.9z M-68.8,57.5c-0.8,0.1-3.1,0.2-5.8-1.9l-0.6-0.5l-0.7,0.3
			c-1.3,0.5-3.3,1-4.9,1.2c-8,0.6-14.9-4.6-15.4-11.6c-0.3-3.4,1-6.7,3.5-9.3c2.6-2.6,6.1-4.3,10-4.6c8-0.6,14.9,4.6,15.4,11.6
			c0.2,3.2-0.9,6.4-3.3,9l-0.6,0.7l0.4,0.9c0.6,1.2,1.3,2.3,3.1,3.8C-67.9,57.3-68.3,57.4-68.8,57.5z"/>
	</g>
</g>
<g>
	<circle class="st0" cx="-101.5" cy="149.3" r="7.6"/>
	<path class="st0" d="M-108.1,155.2c0.1,0,0.2,0.1,0.2,0.1c1.5,1.8,3.8,2.9,6.4,2.9c2.6,0,5-1.2,6.5-3.1c0,0,3.1-1.1,6.5,0.4
		c0,0-4.7,4.7-5.5,12.6c0,0-9.7,0.1-21,2.3c0,0,0.7-7.1,2.5-9.6c0,0-8.8-6-6.9-18.3c0-0.3,0.2-0.5,0.4-0.7c0.2-0.2,0.5-0.3,0.9-0.2
		c0.2,0,0.4,0.1,0.5,0.2c0.2,0.2,0.6,0.4,0.6,1c0,0,0.3,8.4,8.3,12.2L-108.1,155.2z"/>
	<circle class="st1" cx="-82.5" cy="149.3" r="7.6"/>
	<path class="st1" d="M-87.6,156.7c0,0-4.4,4.4-4.9,11.4c0,0,12.8-0.1,23.2,2c0,0-0.1-5.4-2.4-9.2c0,0,9.4-7.3,6.8-19.1
		c0,0-1.5-1.3-2.2,0.5c0,0,0.2,8.7-8.6,12.8C-75.8,155.2-80.5,160.9-87.6,156.7z"/>
</g>
<g>
	<path class="st1" d="M14,57.6H9.1c-0.6,0-1.1-0.5-1.1-1.1v-6.5c0-0.4,0.2-0.7,0.4-0.9l4.9-4.5c0.8-0.6,1.8,0,1.8,0.9v11
		C15.2,57.1,14.7,57.6,14,57.6z"/>
	<path class="st1" d="M23.8,57.6h-4.9c-0.6,0-1.1-0.5-1.1-1.1V40.9c0-0.3,0.1-0.6,0.4-0.8l4.9-4.7c0.7-0.7,1.9-0.2,1.9,0.8v20.2
		C24.9,57.1,24.4,57.6,23.8,57.6z"/>
	<path class="st1" d="M33.6,57.6h-4.9c-0.6,0-1.1-0.5-1.1-1.1V34.7c0-1,1.2-1.5,1.9-0.8l4.9,4.6c0.2,0.2,0.4,0.5,0.4,0.8v17.1
		C34.7,57.1,34.2,57.6,33.6,57.6z"/>
	<path class="st1" d="M43.3,57.6h-4.9c-0.6,0-1.1-0.5-1.1-1.1V41.1c0-0.3,0.1-0.6,0.3-0.8l4.9-5.1c0.7-0.7,2-0.2,2,0.8v20.5
		C44.5,57.1,43.9,57.6,43.3,57.6z"/>
	<path class="st1" d="M53.1,57.6h-4.9c-0.6,0-1.1-0.5-1.1-1.1V31.2c0-0.3,0.1-0.6,0.3-0.8l4.9-5.3c0.7-0.8,2-0.3,2,0.8v30.5
		C54.2,57.1,53.7,57.6,53.1,57.6z"/>
	<path class="st0" d="M59.5,7.9c0-1.1-0.9-1.5-1.8-1.5l-10.6,0c-1.4,0-1.9,1.6-1.1,2.9l2.7,2.6L37.4,23.4c-0.6,0.6-1.6,0.6-2.2,0
		l-6.8-6.8c-0.6-0.6-1.6-0.6-2.2,0L5,37.2c-0.6,0.6-0.6,1.6,0,2.2L7.5,42c0.6,0.6,1.6,0.6,2.2,0l16.3-16c0.6-0.6,1.6-0.6,2.2,0
		l6.9,6.9c0.6,0.6,1.6,0.6,2.2,0l16.4-16.4l3.2,3c1,1,2.6,0.2,2.6-1.1L59.5,7.9z"/>
</g>
</svg>
