<svg xmlns="http://www.w3.org/2000/svg" width="128" height="128" viewBox="0 0 128 128"><path d="M48.324 114.56c2.484-.005 4.75-1.03 6.385-2.66 1.634-1.624 2.67-3.888 2.67-6.372 0-2.493-1.038-4.764-2.673-6.396-1.633-1.635-3.9-2.668-6.386-2.67-2.484 0-4.747 1.034-6.366 2.673-1.623 1.638-2.635 3.906-2.64 6.39v.006c.004 2.48 1.016 4.747 2.64 6.376 1.62 1.63 3.882 2.652 6.364 2.654h.006zm-5.01-9.033c.004-1.39.567-2.652 1.482-3.578.918-.927 2.156-1.487 3.524-1.487 1.362 0 2.624.566 3.558 1.498.932.935 1.5 2.197 1.5 3.567 0 1.36-.564 2.61-1.493 3.54-.93.923-2.19 1.49-3.566 1.49-1.383-.003-2.62-.562-3.534-1.476-.908-.914-1.467-2.162-1.47-3.553zM103.468 114.56c2.482.003 4.745-1.018 6.39-2.64l.014-.012c1.638-1.635 2.675-3.897 2.674-6.38 0-2.49-1.033-4.76-2.675-6.397l-.002-.003c-1.653-1.647-3.928-2.665-6.4-2.664-2.477 0-4.736 1.037-6.36 2.673-1.628 1.635-2.657 3.902-2.658 6.393 0 2.483 1.026 4.75 2.655 6.374 1.625 1.628 3.886 2.652 6.36 2.656h.003zm-5.02-9.033c0-1.375.567-2.64 1.493-3.57.93-.932 2.18-1.495 3.527-1.494 1.368 0 2.623.555 3.577 1.5.94.945 1.5 2.19 1.5 3.564 0 1.36-.557 2.598-1.497 3.547-.96.935-2.196 1.484-3.577 1.486-1.365-.004-2.615-.565-3.54-1.485-.918-.925-1.48-2.173-1.482-3.548zM122.67 27.098c.016-.062.03-.124.04-.188.013-.072.02-.143.022-.215.002-.037.012-.07.012-.108 0-.024-.006-.046-.008-.07-.002-.072-.01-.142-.02-.213-.01-.062-.02-.123-.033-.183-.015-.062-.035-.122-.057-.183-.02-.062-.042-.124-.068-.183-.026-.058-.06-.112-.092-.167-.03-.056-.063-.11-.1-.163-.04-.053-.082-.1-.125-.15-.042-.048-.084-.097-.132-.142-.045-.042-.092-.08-.142-.116-.057-.045-.114-.088-.177-.126-.02-.012-.037-.028-.058-.04-.03-.018-.064-.027-.098-.043-.064-.033-.13-.063-.2-.09-.06-.02-.12-.04-.183-.056-.062-.015-.123-.03-.187-.04-.072-.013-.144-.02-.215-.023-.037-.002-.072-.01-.108-.01H30.035l-4.47-9.965c-.322-.72-1.033-1.182-1.824-1.182H7.258c-1.104 0-2 .896-2 2s.896 2 2 2h15.19l22.176 49.445-7.264 12.182-.095.178c-.03.064-.342.736-.655 1.78-.312 1.05-.633 2.47-.636 4.068 0 1.29.215 2.72.892 4.1l.002.005c.533 1.082 1.365 2.115 2.505 2.935 1.14.823 2.565 1.433 4.283 1.802.142.03.276.045.42.045h69.81c1.103 0 2-.896 2-2s-.897-2-2-2H44.327c-1.188-.275-2.025-.668-2.612-1.09-.616-.45-.99-.927-1.26-1.467-.335-.677-.48-1.482-.48-2.33-.002-1.046.228-2.126.467-2.92.12-.395.238-.72.324-.937l.09-.224 7.154-11.995h49.632c.715 0 1.383-.388 1.736-1.01l23.102-40.43c.018-.032.026-.065.043-.098.033-.066.063-.132.088-.2.025-.06.042-.12.06-.182zM96.48 65.018H48.17L31.83 28.586h85.467L96.482 65.018z"/></svg>