<svg xmlns="http://www.w3.org/2000/svg" width="128" height="128" viewBox="0 0 128 128"><path d="M93.26 38.297c0-.526-.213-1.042-.586-1.414l-8.54-8.54c-.78-.78-2.047-.78-2.827 0l-4.81 4.808c-.78.782-.78 2.048 0 2.83l8.54 8.538c.78.78 2.047.78 2.828 0l4.81-4.807c.37-.37.585-.886.585-1.413zm-6.808 1.978l-5.71-5.71 1.978-1.98 5.71 5.712-1.978 1.978zM50.257 81.543c.534 0 1.046-.214 1.42-.593l31.25-31.576c.773-.78.77-2.045-.007-2.82l-8.54-8.54c-.776-.778-2.034-.783-2.817-.013L39.81 69.25c-.38.375-.597.893-.597 1.426v8.867c0 .525.213 1.042.586 1.414.37.373.886.586 1.413.586h9.044zm22.698-39.3l5.73 5.73-29.264 29.57h-6.208v-6.03l29.743-29.27z"/><path d="M115.166 111.335H14.833V13h58.325c1.104 0 2-.896 2-2s-.896-2-2-2H12.833c-.527 0-1.042.213-1.414.586-.374.372-.587.888-.587 1.414v102.335c0 .526.213 1.042.586 1.414.37.37.886.585 1.413.585h102.333c1.104 0 2-.896 2-2s-.895-2-2-2z"/><path d="M38.476 92.125c0 1.104.896 2 2 2h50.047c1.104 0 2-.896 2-2s-.896-2-2-2H40.476c-1.104 0-2 .896-2 2z"/></svg>