<svg xmlns="http://www.w3.org/2000/svg" width="128" height="128" viewBox="0 0 128 128"><path d="M14.91 27.27v31.41c.013 15.03 5.188 29.564 13.878 41.2v-.002c8.628 11.554 20.713 20.23 34.626 23.722.162.04.32.06.486.06h.2c.168 0 .325-.02.488-.06 13.908-3.49 25.99-12.168 34.62-23.72 8.688-11.636 13.866-26.17 13.882-41.2V27.268c0-.792-.466-1.508-1.188-1.83L64.812 4.514c-.515-.23-1.106-.23-1.623 0l-47.092 20.93c-.723.32-1.188 1.036-1.188 1.827zm4 1.3L64.002 8.53l45.088 20.037v30.11c-.01 14.107-4.892 27.843-13.086 38.808l1.602 1.197-1.603-1.197c-8.055 10.785-19.254 18.828-32 22.127-12.755-3.3-23.957-11.342-32.01-22.127-8.195-10.965-13.076-24.7-13.083-38.808V28.57z"/><path d="M56.463 77.65c.78.78 2.047.78 2.828 0l24.48-24.47c.78-.782.78-2.048 0-2.83s-2.046-.78-2.83 0L57.878 73.408 47.054 62.586c-.78-.78-2.047-.78-2.828 0-.78.78-.78 2.047 0 2.828L56.463 77.65z"/></svg>