<svg xmlns="http://www.w3.org/2000/svg" width="128" height="128" viewBox="0 0 128 128"><path d="M86.02 44.932c-.267-.82-1.04-1.382-1.9-1.382H70.204l-4.303-13.235c-.268-.82-1.04-1.382-1.902-1.382-.864 0-1.635.56-1.902 1.382L57.795 43.55H43.882c-.864 0-1.635.56-1.902 1.382-.267.82.028 1.73.727 2.236l11.256 8.177-4.298 13.234c-.267.82.028 1.728.727 2.234.7.51 1.652.51 2.35 0L64 62.638l11.257 8.178c.7.508 1.652.508 2.35 0 .7-.508.995-1.414.73-2.236l-4.3-13.234 11.257-8.177c.698-.51.993-1.417.726-2.238zm-15.51 8.03c-.7.51-.994 1.415-.727 2.237l2.846 8.763-7.455-5.415c-.7-.508-1.652-.508-2.35 0l-7.455 5.415 2.846-8.764c.267-.823-.028-1.73-.727-2.237l-7.452-5.413h9.21c.863 0 1.634-.56 1.9-1.382L64 37.4l2.85 8.768c.268.82 1.04 1.382 1.902 1.382h9.21l-7.452 5.413z"/><path d="M104.234 7.112h-80.47c-.526 0-1.04.213-1.413.586-.372.372-.585.888-.585 1.414V119.09c0 .77.438 1.47 1.134 1.803.694.334 1.512.24 2.115-.242L64 89.463l38.986 31.188c.603.48 1.42.574 2.115.24.697-.334 1.136-1.03 1.136-1.803V9.112c0-.526-.213-1.042-.586-1.414-.373-.372-.888-.586-1.416-.586zM62.75 85.34l-36.986 29.588V11.112h76.47v103.815L65.25 85.34c-.73-.586-1.77-.586-2.5 0z"/></svg>