<svg xmlns="http://www.w3.org/2000/svg" width="128" height="128" viewBox="0 0 128 128"><path d="M59.443 9.51h-49.12c-.527 0-1.043.213-1.415.586-.373.372-.586.888-.586 1.414v49.123c0 .526.213 1.042.586 1.414.372.373.888.586 1.414.586h49.12c.527 0 1.043-.213 1.415-.586.372-.372.586-.888.586-1.414V11.51c0-.526-.213-1.042-.586-1.414-.372-.373-.887-.586-1.414-.586zm-47.12 4h45.12v45.123h-45.12V13.51zM59.443 66.367h-49.12c-.527 0-1.043.213-1.415.586-.373.372-.586.888-.586 1.414v49.123c0 .525.213 1.042.586 1.414.372.373.888.586 1.414.586h49.12c.527 0 1.043-.213 1.415-.586.372-.372.586-.89.586-1.414V68.367c0-.526-.213-1.042-.586-1.414-.372-.373-.887-.586-1.414-.586zm-2 49.123h-4.585l4.585-4.86v4.86zm-19.07 0l19.07-21.206V104.8L47.36 115.49h-8.987zm-14.9 0l33.97-36.963V88.3l-24.45 27.19h-9.52zm6.962-45.123L12.322 90.783V81.83l9.898-11.463h8.215zM12.322 96.81l23.46-26.44h8.67l-32.13 34.562v-8.12zm4.615-26.443l-4.614 5.345v-5.345h4.614zm-4.615 40.44L49.914 70.37h7.53v2.248L18.038 115.49H12.32v-4.683zM116.443 66.367h-49.12c-.527 0-1.044.213-1.415.586-.373.372-.586.888-.586 1.414v49.123c0 .525.213 1.042.586 1.414.37.373.888.586 1.414.586h49.12c.526 0 1.042-.213 1.415-.586.37-.372.586-.89.586-1.414V68.367c0-.526-.213-1.042-.586-1.414-.373-.373-.886-.586-1.414-.586zm-2 49.123h-45.12V70.367h45.12v45.123zM116.443 9.51h-49.12c-.527 0-1.044.213-1.415.586-.373.372-.586.888-.586 1.414v49.123c0 .526.213 1.042.586 1.414.37.373.888.586 1.414.586h49.12c.526 0 1.042-.213 1.415-.586.37-.372.586-.888.586-1.414V11.51c0-.526-.213-1.042-.586-1.414-.373-.373-.886-.586-1.414-.586zM96.33 58.633l18.113-20.416v8.952l-9.898 11.463H96.33zm-14.017 0l32.13-34.564v8.12l-23.46 26.443h-8.67zM69.323 13.51h4.584l-4.585 4.86v-4.86zm19.07 0l-19.07 21.206V24.2l10.084-10.69h8.986zm-19.07 27.187L93.77 13.51h9.522l-33.97 36.963v-9.776zm0 15.687l39.403-42.874h5.717v4.684l-37.59 40.44h-7.53v-2.25zm40.506 2.25l4.613-5.346v5.345h-4.614z"/></svg>