<svg xmlns="http://www.w3.org/2000/svg" width="128" height="128" viewBox="0 0 128 128"><path d="M64 15C30.9 15 4 42.4 4 76c0 12.4 3.9 24.9 11 35.4l.5.8 1.5.8h94l1.4-.8.5-.8c7.1-10.6 11-23.1 11-35.7C124 42.3 97.1 15 64 15zm46.2 94.5l-92.3.1v-.1C11.1 99.5 7.4 87.7 7.4 76c0-31.8 25.4-57.6 56.6-57.6 31.2 0 56.6 25.7 56.6 57.3 0 11.9-3.7 23.9-10.4 33.8z"/><path d="M64 29.8c-23 0-41.7 18.9-41.7 42.1 0 .9.8 1.7 1.7 1.7.9 0 1.7-.8 1.7-1.7 0-21.4 17.2-38.8 38.3-38.8 21.1 0 38.3 17.3 38.3 38.6 0 .9.8 1.7 1.7 1.7s1.7-.8 1.7-1.7c-.1-23-18.7-41.9-41.7-41.9z"/><path d="M79.2 58.8l-2.5.9c-4.5 1.7-9.7 3.7-14.1 5.8-2.2 1-4.3 2.1-6 3.1-1.7 1-3.1 2-4.2 3.2-2.1 2.5-3.2 5.6-3.2 8.8v1c.3 3.6 2 6.9 4.7 9.2 2.5 2.1 5.6 3.1 8.7 3.1 3.8 0 7.7-1.5 10.3-4.6 1.1-1.3 1.8-2.9 2.6-4.7 2.2-5.6 4.2-14.4 5.6-21.3l.5-2.6-.6-1.6-1.8-.3zm-7 24.6c-.7 1.8-1.3 3-2 3.8-1.9 2.3-4.8 3.4-7.8 3.4-2.3 0-4.7-.8-6.5-2.3-2-1.7-3.3-4.2-3.5-6.9v-.8c0-2.4.8-4.7 2.4-6.6.7-.8 1.8-1.6 3.4-2.6 1.6-.9 3.5-1.9 5.7-3 4.2-2 9.2-4 13.6-5.6-1.3 7-3.3 15.5-5.3 20.6z"/></svg>