<svg xmlns="http://www.w3.org/2000/svg" width="128" height="128" viewBox="0 0 128 128"><path d="M118.18 4.5H9.82c-1.104 0-2 .896-2 2v115c0 1.104.896 2 2 2h108.36c1.104 0 2-.896 2-2V6.5c0-1.104-.896-2-2-2zM98.693 81.904c-6.358 0-11.623 4.707-12.524 10.814h-3.72c-.9-6.107-6.157-10.814-12.507-10.814-6.358 0-11.624 4.707-12.525 10.814H47.8c-.9-6.107-6.158-10.814-12.507-10.814-6.358 0-11.622 4.707-12.524 10.814H11.82V66h26.4c.816 6.207 6.128 11.02 12.555 11.02 6.42 0 11.724-4.813 12.537-11.02h52.868v26.72h-4.98c-.9-6.11-6.157-10.816-12.507-10.816zm8.66 12.666c0 .742-.105 1.46-.28 2.148-.96 3.744-4.347 6.524-8.38 6.524-4.04 0-7.435-2.78-8.395-6.524-.177-.688-.28-1.406-.28-2.148 0-.636.073-1.254.204-1.852.853-3.89 4.324-6.814 8.472-6.814 4.14 0 7.605 2.924 8.455 6.814.128.598.202 1.217.202 1.852zm-28.75 0c0 .742-.105 1.46-.28 2.148-.96 3.744-4.347 6.524-8.38 6.524-4.04 0-7.435-2.78-8.395-6.524-.177-.688-.28-1.406-.28-2.148 0-.636.073-1.254.203-1.852.853-3.89 4.326-6.814 8.473-6.814 4.14 0 7.605 2.924 8.455 6.814.13.598.204 1.217.204 1.852zm-34.65 0c0 .742-.105 1.46-.28 2.148-.96 3.744-4.348 6.524-8.38 6.524-4.04 0-7.434-2.78-8.395-6.524-.176-.688-.28-1.406-.28-2.148 0-.636.073-1.254.204-1.852.852-3.89 4.324-6.814 8.47-6.814 4.14 0 7.606 2.924 8.456 6.814.13.598.204 1.217.204 1.852zM42.1 64.345c0-.813.12-1.598.332-2.345 1.027-3.64 4.375-6.32 8.343-6.32 3.96 0 7.302 2.68 8.327 6.32.21.747.33 1.53.33 2.345 0 .566-.057 1.12-.162 1.655-.774 3.993-4.287 7.02-8.495 7.02-4.216 0-7.737-3.025-8.512-7.02-.104-.536-.163-1.09-.163-1.655zM11.82 8.5h104.36v23.028H83.066c-1.2-5.743-6.3-10.072-12.39-10.072-6.098 0-11.202 4.328-12.403 10.072h-10.59c-1.2-5.743-6.3-10.072-12.39-10.072-6.1 0-11.203 4.328-12.405 10.072H11.82V8.5zm67.516 25.622c0 .48-.05.947-.124 1.406-.675 4.114-4.24 7.267-8.536 7.267-4.302 0-7.873-3.152-8.547-7.267-.076-.458-.126-.926-.126-1.406 0-.903.14-1.775.398-2.594 1.106-3.516 4.397-6.073 8.274-6.073 3.873 0 7.158 2.557 8.263 6.073.256.82.396 1.69.396 2.594zm-35.384 0c0 .48-.05.947-.125 1.406-.674 4.114-4.24 7.267-8.535 7.267-4.304 0-7.875-3.152-8.55-7.267-.075-.458-.125-.926-.125-1.406 0-.903.14-1.775.398-2.594 1.106-3.516 4.398-6.073 8.277-6.073 3.872 0 7.158 2.557 8.262 6.073.26.82.398 1.69.398 2.594zm-21.25 1.406c.7 6.33 6.078 11.268 12.59 11.268 6.506 0 11.876-4.94 12.578-11.268h10.217c.702 6.33 6.078 11.268 12.59 11.268 6.505 0 11.876-4.94 12.577-11.268h32.926V62H63.206c-1.104-5.866-6.253-10.32-12.43-10.32-6.187 0-11.344 4.454-12.45 10.32H11.82V35.528H22.7zM116.18 119.5H11.82V96.72h10.995c1.025 5.966 6.224 10.523 12.48 10.523 6.246 0 11.438-4.558 12.462-10.524h9.708c1.025 5.966 6.225 10.523 12.48 10.523 6.248 0 11.44-4.558 12.463-10.524h3.808c1.025 5.966 6.224 10.523 12.48 10.523 6.247 0 11.438-4.558 12.462-10.524h5.023v22.78z"/></svg>