<svg xmlns="http://www.w3.org/2000/svg" width="128" height="128" viewBox="0 0 128 128"><path d="M110.678 75.116c-.313-1.955-2.3-5.507-7.544-6.09-1.092-3.37-4.49-11.67-12.497-15.975-.294-1.978-.65-6.84 2.404-9.25.474-.374.753-.94.76-1.544s-.256-1.177-.72-1.563c-.32-.267-7.8-6.28-18.61 2.797-1.85-.633-5.588-1.587-10.37-1.12-1.098.108-1.902 1.086-1.794 2.186.108 1.1 1.088 1.906 2.186 1.795 5.59-.545 9.49 1.232 9.52 1.247.734.35 1.604.222 2.203-.323 5.677-5.14 9.98-5.11 12.322-4.438-3.308 4.862-1.713 11.69-1.632 12.023.142.583.54 1.073 1.082 1.332 8.97 4.285 11.648 15.105 11.674 15.21.214.903 1.02 1.542 1.948 1.542 4.068 0 4.94 2.166 5.096 2.705v8.706c0 1.72-.428 2.95-1.268 3.65-1.207 1.003-3.217.903-3.877.78-.534-.103-1.087.012-1.534.323-.444.312-.744.792-.828 1.33-1.196 7.64-10.346 15.362-11.196 16.064-4.41 2.98-5.17 9.914-5.253 13.493H67.41v-2.256c0-1.103-.895-2-2-2H53.093c-1.104 0-2 .897-2 2V120H37.43c.3-7.334-4.31-12.188-4.553-12.438C17.633 92.484 21.74 75.02 21.933 74.242c.27-1.07-.377-2.158-1.447-2.43-1.07-.27-2.16.377-2.43 1.447-.21.823-4.93 20.392 11.978 37.113.044.046 4.4 4.632 3.198 11.27-.106.583.053 1.184.433 1.64.38.453.942.717 1.535.717h17.892c1.104 0 2-.896 2-2v-2.256h8.32V122c0 1.104.895 2 2 2h19.36c.55 0 1.075-.23 1.45-.626.38-.397.575-.937.545-1.485-.146-2.63.2-9.925 3.52-12.1.055-.035.107-.073.156-.113.43-.345 9.89-8.028 12.313-16.812 1.478-.027 3.515-.366 5.206-1.758 1.818-1.496 2.74-3.768 2.74-6.752V75.43c0-.103-.007-.21-.024-.314z"/><path d="M37.143 70.075c10.95 0 19.86-8.908 19.86-19.858 0-10.944-8.91-19.848-19.86-19.848-10.944 0-19.848 8.903-19.848 19.847 0 10.95 8.904 19.858 19.848 19.858zm0-35.706c8.745 0 15.86 7.108 15.86 15.847 0 8.744-7.115 15.858-15.86 15.858-8.74 0-15.848-7.114-15.848-15.858 0-8.74 7.11-15.848 15.848-15.848zM60.362 31.34c7.54 0 13.673-6.133 13.673-13.672C74.035 10.132 67.9 4 60.362 4c-7.542 0-13.677 6.132-13.678 13.668 0 7.538 6.136 13.67 13.678 13.67zm0-23.34c5.333 0 9.673 4.337 9.673 9.668 0 5.333-4.34 9.67-9.673 9.67-5.337 0-9.678-4.337-9.678-9.67 0-5.33 4.342-9.668 9.678-9.668z"/></svg>