<svg xmlns="http://www.w3.org/2000/svg" width="128" height="128" viewBox="0 0 128 128"><path d="M105.4 3.7H23.1c-3.2 0-5.8 2.6-5.8 5.8v108.3c0 3.2 2.6 5.8 5.8 5.8h82.3c3.2 0 5.8-2.6 5.8-5.8V9.5c.1-3.2-2.5-5.8-5.8-5.8zm1.9 114.1c0 1-.8 1.8-1.8 1.8H23.1c-1 0-1.8-.8-1.8-1.8V9.5c0-1 .8-1.8 1.8-1.8h82.3c1 0 1.8.8 1.8 1.8v108.3z"/><path d="M27.3 113.7h22v-22h-22v22zm4-18h14v14h-14v-14zM53.3 113.7h22v-22h-22v22zm4-18h14v14h-14v-14zM79.3 113.7h22v-48h-22v48zm4-44h14v40h-14v-40zM27.3 87.7h22v-22h-22v22zm4-18h14v14h-14v-14zM53.3 87.7h22v-22h-22v22zm4-18h14v14h-14v-14zM27.3 61.7h22v-22h-22v22zm4-18h14v14h-14v-14zM53.3 61.7h22v-22h-22v22zm4-18h14v14h-14v-14zM79.3 61.7h22v-22h-22v22zm4-18h14v14h-14v-14zM27.3 33.7h74v-20h-74v20zm4-16h66v12h-66v-12z"/></svg>