<svg xmlns="http://www.w3.org/2000/svg" width="128" height="128" viewBox="40 -40 128 128"><path d="M87.7 46.4c-22 0-39.9-17.9-39.9-39.9s17.9-39.9 39.9-39.9 39.9 17.9 39.9 39.9-17.9 39.9-39.9 39.9zm0-75.8c-19.8 0-35.9 16.1-35.9 35.9 0 19.8 16.1 35.9 35.9 35.9 19.8 0 35.9-16.1 35.9-35.9 0-19.8-16.1-35.9-35.9-35.9zM152.7 81.4c-1.5 0-2.9-.5-4-1.6l-26.6-26.6 9.8-9.8L158.5 70c2.2 2.2 2.2 5.9-.1 8.3l-1.4 1.4c-1.2 1.1-2.7 1.7-4.3 1.7zm-24.9-28.2l23.7 23.7c.7.7 1.8.6 2.6-.1l1.4-1.4c.8-.8.8-1.9.1-2.6L132 49.1l-4.2 4.1z"/><path d="M113.916 32.342l15.132 15.132-2.828 2.828-15.132-15.132z"/></svg>