<svg xmlns="http://www.w3.org/2000/svg" width="128" height="128" viewBox="0 0 128 128"><path d="M34.28 70h86.47c1.104 0 2-.896 2-2s-.896-2-2-2H34.28c-1.104 0-2 .896-2 2s.895 2 2 2zM34.28 106.488h86.47c1.104 0 2-.896 2-2s-.896-2-2-2H34.28c-1.104 0-2 .896-2 2s.895 2 2 2zM34.28 33.512h86.47c1.104 0 2-.896 2-2s-.896-2-2-2H34.28c-1.104 0-2 .896-2 2s.895 2 2 2zM15.066 41.322c2.703 0 5.17-1.096 6.94-2.867 1.775-1.768 2.877-4.235 2.876-6.942 0-5.417-4.387-9.82-9.816-9.823-5.43.002-9.814 4.406-9.816 9.823 0 2.707 1.1 5.175 2.875 6.942 1.77 1.77 4.238 2.868 6.94 2.867zm-4.113-13.926c1.06-1.057 2.5-1.706 4.113-1.707 1.613 0 3.054.648 4.113 1.706 1.055 1.06 1.702 2.505 1.703 4.116 0 3.222-2.595 5.808-5.816 5.81-3.22-.002-5.814-2.587-5.816-5.81 0-1.61.647-3.055 1.703-4.116zM15.066 77.664c5.43-.002 9.815-4.405 9.816-9.822 0-5.418-4.387-9.82-9.816-9.823-5.43 0-9.814 4.404-9.816 9.822 0 5.417 4.387 9.82 9.816 9.822zm-4.113-13.938c1.06-1.058 2.5-1.706 4.113-1.707 1.613 0 3.054.648 4.113 1.706 1.055 1.06 1.702 2.504 1.703 4.117 0 1.61-.647 3.056-1.703 4.115-1.06 1.058-2.5 1.706-4.113 1.707-1.613 0-3.054-.65-4.113-1.707-1.056-1.062-1.702-2.504-1.703-4.115 0-1.613.647-3.057 1.703-4.117zM15.066 114.31c5.43 0 9.815-4.405 9.816-9.82 0-2.708-1.1-5.177-2.875-6.943-1.77-1.77-4.238-2.868-6.94-2.866-2.704 0-5.17 1.097-6.942 2.867-1.774 1.77-2.876 4.235-2.875 6.942 0 5.414 4.387 9.82 9.816 9.82zm0-15.632c3.222.002 5.815 2.588 5.816 5.81 0 1.612-.647 3.056-1.704 4.116-1.06 1.06-2.5 1.707-4.113 1.707-1.613 0-3.054-.647-4.113-1.706-1.056-1.06-1.702-2.504-1.703-4.115 0-3.224 2.595-5.81 5.816-5.812z"/></svg>