<svg xmlns="http://www.w3.org/2000/svg" width="128" height="128" viewBox="0 0 128 128"><path d="M106.666 5.334H21.35c-8.823.02-15.996 7.194-16.017 16.018V106.666c.02 8.814 7.194 15.98 16.018 16h85.316c8.813-.02 15.98-7.188 16-16V21.352c-.02-8.823-7.186-15.998-16-16.018zm12 101.326c-.005 6.595-5.412 12.002-12.006 12.006H21.357c-6.608-.005-12.02-5.413-12.023-12.006V21.358C9.34 14.75 14.75 9.338 21.357 9.334h85.303c6.592.004 12 5.416 12.006 12.024v85.302z"/><path d="M45.202 75.143c-1.104 0-2 .896-2 2v19.002c0 1.104.896 2 2 2s2-.896 2-2V77.143c0-1.105-.895-2-2-2zM89.346 51.902c-1.104 0-2 .896-2 2v42.243c0 1.104.896 2 2 2s2-.896 2-2V53.902c0-1.105-.897-2-2-2zM67.48 63.213c-1.105 0-2 .896-2 2v30.932c0 1.104.895 2 2 2 1.103 0 2-.896 2-2V65.213c0-1.104-.896-2-2-2zM93.135 25.9c-.008-.056-.016-.11-.027-.167-.018-.074-.04-.146-.066-.217-.018-.05-.034-.1-.057-.146-.03-.07-.066-.135-.105-.2-.027-.05-.057-.098-.09-.144-.04-.056-.084-.108-.13-.16-.028-.032-.052-.068-.08-.1-.02-.016-.04-.028-.058-.045-.02-.016-.03-.036-.05-.052-.032-.028-.07-.047-.105-.072-.053-.04-.104-.078-.16-.112-.06-.04-.125-.07-.19-.102-.05-.024-.1-.047-.152-.067-.07-.026-.142-.047-.214-.064-.054-.013-.108-.026-.165-.036-.07-.01-.14-.017-.21-.02-.036-.003-.072-.012-.11-.012H75.25c-1.105 0-2 .896-2 2s.895 2 2 2h11.54L66.71 51.417l-7.98-7.792c-.382-.373-.892-.577-1.426-.57-.534.01-1.038.227-1.41.61l-19.468 20.16c-.768.793-.745 2.06.05 2.827.794.768 2.06.746 2.827-.05l18.072-18.71 8.063 7.873c.394.384.934.59 1.48.567.55-.023 1.07-.274 1.43-.69l20.815-24.086v8.586c0 1.104.896 2 2 2s2-.896 2-2v-13.96c0-.024-.006-.047-.007-.07-.004-.07-.01-.14-.02-.21z"/></svg>