<svg xmlns="http://www.w3.org/2000/svg" width="128" height="128" viewBox="0 0 128 128"><path d="M42.21 46.71c0 1.172.943 2.122 2.123 2.122h24.935c-.588 6.74-6.16 12.037-13.06 12.05H43.733l27.635 32.92 6.053.08L52.845 65.13h3.364c9.235 0 16.715-7.206 17.302-16.296h11.7c1.175 0 2.124-.95 2.124-2.123 0-1.173-.95-2.127-2.125-2.127H73.324c-.733-4.008-2.835-7.495-5.81-10.05l17.696.014c1.174 0 2.124-.946 2.124-2.12 0-1.172-.95-2.122-2.125-2.122l-28.87-.02-.133-.022h-4.642v.014l-6.878-.007c-1.18 0-2.138.946-2.138 2.12 0 1.172.95 2.122 2.122 2.122l11.667.014c6.144.073 11.226 4.33 12.63 10.057H44.33c-1.177 0-2.12.954-2.12 2.126z"/><path d="M113.123 4.525H14.877c-1.104 0-2 .896-2 2s.896 2 2 2h5.744V121.37c0 .528.214 1.043.587 1.415.372.373.888.586 1.414.586h1.993c.418 0 .82-.128 1.16-.37l6.624-4.727 6.83 4.688c.683.47 1.577.47 2.26.003l6.894-4.71 6.968 4.715c.705.478 1.637.456 2.318-.055l6.175-4.617 6.725 4.66c.676.466 1.56.476 2.244.022l7.116-4.72 6.535 4.68c.728.52 1.712.493 2.41-.064l5.59-4.455 5.214 4.416c.36.305.822.475 1.293.475h2.768c1.104 0 2-.894 2-2l.072-112.788h7.316c1.104 0 2-.896 2-2s-.894-1.997-2-1.997zm-11.39 114.788h-.033l-5.907-5.004c-.73-.618-1.793-.635-2.54-.04l-5.692 4.537-6.427-4.6c-.673-.48-1.58-.498-2.27-.04l-7.135 4.73-6.793-4.708c-.705-.49-1.65-.473-2.336.04l-6.19 4.627-6.914-4.682c-.68-.46-1.572-.458-2.25.006l-6.885 4.706-6.853-4.703c-.692-.476-1.61-.468-2.293.02l-6.593 4.704V8.525h77.187l-.073 110.788z"/></svg>