<svg xmlns="http://www.w3.org/2000/svg" width="128" height="128" viewBox="0 0 128 128"><path d="M28.067 18.18h-.006c-5.004.01-9.055 4.066-9.068 9.068v.01c.01 5.014 4.066 9.064 9.072 9.062h.002c2.5 0 4.78-1.015 6.415-2.652 1.64-1.634 2.652-3.916 2.652-6.415.002-5.007-4.048-9.067-9.065-9.073zm-.004 14.14c-2.8 0-5.06-2.25-5.07-5.067.005-2.793 2.28-5.07 5.07-5.072 2.82.01 5.066 2.266 5.07 5.073-.003 1.417-.564 2.668-1.48 3.587-.92.916-2.17 1.477-3.59 1.48z"/><path d="M66.372 7.847c-2.13-2.133-5.104-3.446-8.366-3.444H16.732c-6.525.023-11.84 5.338-11.864 11.863V57.538c-.002 3.263 1.317 6.24 3.497 8.43l.006.005 53.06 53.043c2.128 2.133 5.103 3.448 8.367 3.447 3.26.004 6.235-1.314 8.368-3.503.01-.01.02-.024.028-.036L119.39 77.73c.012-.01.025-.017.036-.026 2.197-2.137 3.51-5.117 3.505-8.37v-.027c-.005-3.27-1.37-6.272-3.508-8.41l-53.05-53.05zm8.962 108.282c-.016.015-.032.035-.048.054-1.418 1.434-3.312 2.277-5.49 2.28-2.187 0-4.13-.87-5.538-2.274L11.2 63.147c-1.482-1.507-2.324-3.415-2.332-5.612V16.273c-.003-4.294 3.576-7.874 7.87-7.87h41.268c2.186 0 4.13.868 5.538 2.273l53.052 53.047c1.416 1.412 2.34 3.458 2.334 5.582v.027c-.004 2.188-.85 4.09-2.297 5.507-.012.012-.025.018-.037.028l-41.262 41.26z"/></svg>