<svg xmlns="http://www.w3.org/2000/svg" width="128" height="128" viewBox="0 0 128 128"><path d="M46.286 57.664l-7.925-1.62-23.35-28.09c-.428-.515-1.08-.78-1.745-.71-.665.068-1.25.463-1.562 1.055-3.37 6.38-5.092 13.455-5.092 20.557 0 9.808 3.294 19.685 10.07 27.818v-.002C25.32 87.076 37.775 92.433 50.31 92.43c4.29 0 8.595-.633 12.765-1.896l27.264 32.773c.707.848 1.97.965 2.816.258l23.01-19.133c.406-.338.666-.83.714-1.354.05-.524-.116-1.058-.453-1.462l-27.27-32.794c3.27-6.3 4.952-13.25 4.952-20.238 0-9.843-3.31-19.756-10.09-27.915v-.003C75.376 10.297 62.943 4.97 50.436 4.973c-4.403 0-8.82.66-13.09 1.988-.64.2-1.134.702-1.323 1.343-.19.642-.047 1.333.38 1.846l23.357 28.078-.01 8.24-13.464 11.196zM63.3 36.228L41.47 9.988c2.953-.678 5.962-1.015 8.965-1.015 11.384.003 22.652 4.83 30.512 14.255 6.163 7.422 9.16 16.404 9.16 25.356 0 6.77-1.718 13.512-5.083 19.52-.403.723-.32 1.62.207 2.256l26.838 32.274-19.935 16.576-26.845-32.27c-.528-.634-1.395-.878-2.178-.613-4.16 1.405-8.487 2.103-12.803 2.103-11.408-.003-22.696-4.855-30.556-14.313v-.002c-6.16-7.396-9.142-16.338-9.144-25.257 0-5.453 1.13-10.887 3.323-15.94l21.8 26.223c.29.35.692.59 1.138.682l9.555 1.954c.595.122 1.212-.033 1.68-.422l14.922-12.408c.456-.38.72-.942.722-1.535l.012-9.9c0-.472-.16-.92-.463-1.282z"/></svg>