<svg xmlns="http://www.w3.org/2000/svg" width="128" height="128" viewBox="0 0 128 128"><path d="M122.3 77.4l1.2-.5.5-1.2V52.3l-.5-1.2-1.2-.5h-11.9c-1-3.5-2.4-6.8-4.1-9.9l8.5-8.5c.7-.7.7-1.8 0-2.4L98.2 13.3l-1.2-.5-1.2.5-8.5 8.5c-3.1-1.7-6.4-3.1-9.9-4.1v-12l-.5-1.2-1.2-.5H52.3l-1.2.5-.5 1.2v12c-3.5 1-6.8 2.4-9.9 4.1l-8.5-8.5c-.7-.7-1.8-.7-2.4 0L13.3 29.8c-.7.7-.7 1.8 0 2.4l8.5 8.5c-1.7 3.1-3.1 6.4-4.1 9.9h-12l-1.2.5-.5 1.2v23.3l.5 1.2 1.2.5h12c1 3.5 2.4 6.8 4.1 9.9l-8.5 8.5-.5 1.3.5 1.2 16.5 16.5c.7.7 1.8.7 2.4 0l8.5-8.5c3.1 1.7 6.4 3.1 9.9 4.1v11.9l.5 1.2 1.2.5h23.3l1.2-.5.5-1.2v-11.9c3.5-1 6.8-2.4 9.9-4.1l8.5 8.5c.7.7 1.8.7 2.4 0l16.5-16.5c.7-.7.7-1.8 0-2.4l-8.5-8.5c1.7-3.1 3.1-6.4 4.1-9.9h12.1zm-14.8-2.2c-1.1 4.1-2.7 8-4.8 11.5-.4.7-.3 1.5.3 2.1l8 8.2-14.1 14-8.1-8.1c-.6-.6-1.4-.7-2.1-.3-3.5 2.1-7.4 3.7-11.5 4.8-.7.2-1.3.9-1.3 1.7v11.4H54v-11.4c0-.8-.5-1.5-1.3-1.7-4.1-1.1-8-2.7-11.5-4.8-.7-.4-1.5-.3-2.1.3L31 111 17 97l8.1-8.1c.6-.6.7-1.4.3-2.1-2.1-3.5-3.7-7.5-4.8-11.5-.2-.8-.9-1.3-1.7-1.3H7.4V54h11.5c.8 0 1.5-.5 1.7-1.3 1.1-4.1 2.7-8 4.8-11.5.4-.7.3-1.5-.3-2.1L17 31l14-14 8.1 8.1c.5.5 1.4.7 2.1.3 3.5-2.1 7.4-3.7 11.5-4.8.8-.2 1.3-.9 1.3-1.7V7.4h20v11.5c0 .8.5 1.5 1.3 1.7 4.1 1.1 8 2.7 11.5 4.8.7.4 1.5.3 2.1-.3L97 17l14 14.1-8.1 8.1c-.6.6-.7 1.4-.3 2.1 2.1 3.5 3.7 7.4 4.8 11.5.2.8.9 1.3 1.7 1.3h11.5V74h-11.5c-.8 0-1.4.5-1.6 1.2z"/><path d="M64 44.8c-10.6 0-19.2 8.6-19.2 19.2S53.4 83.2 64 83.2 83.2 74.6 83.2 64 74.6 44.8 64 44.8zm0 35c-8.7 0-15.7-7.1-15.8-15.8 0-8.7 7.1-15.7 15.8-15.8 8.7 0 15.7 7.1 15.8 15.8-.1 8.7-7.1 15.8-15.8 15.8z"/></svg>