<svg xmlns="http://www.w3.org/2000/svg" width="128" height="128" viewBox="0 0 128 128"><path d="M112.893 70.664c-.647-.746-1.566-1.484-2.78-2.012-.843-.37-1.83-.627-2.95-.754-.405-1.244-1.135-3.168-2.316-5.33-1.003-1.83-2.332-3.826-4.084-5.695-1.535-1.64-3.426-3.163-5.668-4.38-.088-.587-.182-1.432-.18-2.39-.003-1.15.135-2.44.52-3.59.393-1.156.995-2.147 1.96-2.91.47-.372.752-.944.76-1.544.01-.6-.258-1.18-.72-1.564-.108-.09-.75-.607-1.886-1.116-1.134-.507-2.77-1-4.808-1-1.66-.002-3.576.33-5.65 1.206-1.814.764-3.746 1.937-5.773 3.64-1.57-.466-4.57-1.2-8.023-1.206-.626 0-1.267.024-1.918.08-1.102.097-1.915 1.066-1.818 2.167.096 1.1 1.064 1.915 2.166 1.82.523-.047 1.05-.067 1.57-.067 2.08 0 4.062.335 5.503.675.723.17 1.31.34 1.705.463.198.062.352.113.45.147l.104.038.02.008c.7.262 1.488.11 2.043-.39 2.066-1.87 3.918-3.012 5.52-3.688 1.605-.674 2.964-.892 4.1-.893.838 0 1.545.126 2.144.293-.55.827-.955 1.702-1.244 2.568-.57 1.713-.73 3.41-.73 4.86.003 2.342.42 4.063.443 4.162.14.583.54 1.075 1.08 1.333 2.157 1.03 3.938 2.444 5.407 4.012 2.203 2.348 3.69 5.046 4.605 7.147.458 1.05.774 1.95.974 2.574.1.313.17.558.213.718l.047.178.01.037v.003c.213.905 1.02 1.543 1.947 1.543 1.308 0 2.222.228 2.874.51.973.432 1.434.996 1.72 1.47.138.233.22.444.262.575l.008.028v8.39c0 1.153-.198 1.937-.448 2.478-.19.406-.406.686-.65.912-.363.337-.815.563-1.33.708-.51.146-1.063.194-1.52.194-.306 0-.564-.02-.736-.04l-.188-.025-.036-.005c-.53-.1-1.082.018-1.522.326-.443.313-.745.794-.828 1.328-.28 1.805-1.063 3.715-2.13 5.543-1.594 2.744-3.797 5.283-5.596 7.104-.897.912-1.693 1.647-2.26 2.148-.283.25-.51.442-.66.57l-.172.143-.04.033-.01.008.004.005c-1.243.86-2.16 2.012-2.83 3.238-1.048 1.927-1.57 4.06-1.87 5.983-.22 1.425-.305 2.738-.334 3.763h-14.72v-2.117c0-.526-.214-1.042-.587-1.414-.37-.373-.888-.587-1.413-.587H58.712c-.526 0-1.042.214-1.414.586-.373.37-.586.887-.586 1.413v2.116H43.614c.007-.194.026-.396.026-.585-.002-3.45-1.094-6.277-2.168-8.232-1.08-1.958-2.15-3.072-2.236-3.164l-.03-.03c-4.73-4.683-7.5-9.582-9.11-14.128-1.608-4.544-2.047-8.74-2.046-11.946 0-1.902.153-3.455.305-4.52.075-.53.15-.937.204-1.206.025-.134.048-.233.062-.295l.016-.063.002-.012c.268-1.068-.38-2.154-1.447-2.426-1.07-.27-2.16.376-2.43 1.445-.03.12-.71 2.838-.712 7.073 0 3.568.485 8.223 2.275 13.282 1.784 5.048 4.88 10.493 10.034 15.6h-.002c.026.025.875.936 1.69 2.46.816 1.53 1.594 3.648 1.593 6.16 0 .71-.06 1.45-.2 2.23-.106.583.052 1.183.432 1.638s.942.72 1.535.72h17.306c.526 0 1.042-.216 1.414-.587.372-.373.586-.89.586-1.414v-2.117h7.915v2.117c0 .525.213 1.04.586 1.414.372.37.888.586 1.414.586h18.728c.55 0 1.076-.23 1.453-.627.376-.4.573-.94.542-1.488v-.006c-.004-.054-.02-.388-.02-.915-.002-1.244.096-3.576.626-5.773.263-1.097.63-2.154 1.104-3.018.474-.865 1.033-1.516 1.666-1.93l.155-.113c.06-.048 2.695-2.163 5.548-5.43 1.425-1.635 2.906-3.558 4.144-5.682.933-1.606 1.73-3.332 2.232-5.15.598-.012 1.278-.065 2.03-.245.638-.153 1.315-.393 1.985-.767 1.004-.556 1.98-1.446 2.65-2.685.673-1.236 1.03-2.77 1.03-4.583v-8.63c0-.118-.007-.2-.025-.316-.037-.22-.286-1.66-1.582-3.166z"/><path d="M24.022 49.758c.002 10.643 8.627 19.27 19.263 19.274 10.648 0 19.273-8.63 19.274-19.274-.002-10.638-8.628-19.26-19.275-19.262-10.635.002-19.26 8.624-19.263 19.262zm34.538 0c0 4.223-1.706 8.03-4.473 10.8-2.77 2.767-6.576 4.473-10.802 4.474-4.218 0-8.02-1.707-10.79-4.474-2.767-2.77-4.472-6.577-4.473-10.8 0-4.22 1.706-8.023 4.472-10.792 2.77-2.765 6.572-4.47 10.79-4.47 4.227 0 8.033 1.705 10.803 4.47 2.767 2.77 4.472 6.573 4.473 10.792zM79.033 18.277c-.002-7.343-5.955-13.284-13.29-13.286-7.34.002-13.293 5.944-13.294 13.287 0 7.342 5.953 13.287 13.293 13.29 7.336-.003 13.288-5.947 13.29-13.29zm-22.584 0c0-2.572 1.036-4.88 2.722-6.566 1.688-1.682 4-2.717 6.57-2.718 2.57 0 4.88 1.036 6.568 2.72 1.686 1.686 2.722 3.994 2.723 6.565 0 2.57-1.037 4.88-2.723 6.568-1.688 1.684-3.998 2.72-6.567 2.72-2.572 0-4.883-1.037-6.57-2.72-1.687-1.687-2.723-3.996-2.724-6.568z"/></svg>