<?xml version="1.0" encoding="iso-8859-1"?>
<!-- Generator: Adobe Illustrator 16.0.0, SVG Export Plug-In . SVG Version: 6.00 Build 0)  -->
<!DOCTYPE svg PUBLIC "-//W3C//DTD SVG 1.1//EN" "http://www.w3.org/Graphics/SVG/1.1/DTD/svg11.dtd">
<svg version="1.1" id="Layer_1" xmlns="http://www.w3.org/2000/svg" xmlns:xlink="http://www.w3.org/1999/xlink" x="0px" y="0px"
	 width="36px" height="36px" viewBox="0 0 36 36" style="enable-background:new 0 0 36 36;" xml:space="preserve">
<g>
	<path style="fill:#FFFFFF;" d="M24.023,8.095h-0.008c-1.589,0-1.645-1.586-1.646-1.766c0-0.134-0.052-0.26-0.146-0.355
		c-0.095-0.094-0.221-0.146-0.354-0.146H18.3c-0.136,0-0.265,0.054-0.36,0.15c-0.093,0.096-0.145,0.227-0.14,0.36
		c0.04,1.62-1.585,1.73-1.77,1.737c-0.27,0.01-0.483,0.23-0.483,0.5v6.798c0,0.276,0.224,0.5,0.5,0.5c0.276,0,0.5-0.224,0.5-0.5
		V9.02c0.89-0.172,2.036-0.767,2.227-2.19h2.649c0.076,0.437,0.271,1.076,0.763,1.568c0.357,0.357,0.808,0.58,1.338,0.66v10.224
		c-0.828,0.266-1.92,0.987-2.125,2.448h-0.606c-0.274,0-0.5,0.224-0.5,0.5c0,0.274,0.226,0.5,0.5,0.5h1.071
		c0.277,0,0.5-0.226,0.5-0.5c0-1.728,1.562-2.033,1.736-2.063c0.246-0.038,0.424-0.247,0.424-0.494V8.595
		c0-0.133-0.053-0.26-0.146-0.354c-0.094-0.093-0.22-0.145-0.354-0.145V8.095L24.023,8.095z"/>
	<path style="fill:#FFFFFF;" d="M25.917,3.25H14.413c-0.69,0-1.25,0.56-1.25,1.25v11.958c-3.86,1.25-3.62,5.021-3.62,5.021v8.563
		c0,0.276,0.225,0.5,0.5,0.5s0.5-0.224,0.5-0.5v-8.601c-0.008-0.121-0.16-2.834,2.62-3.924v3.549l-1.09,0.941
		c-0.208,0.182-0.23,0.495-0.05,0.704s0.498,0.229,0.705,0.052l3.71-3.219l1.396-1.586c0.448,0.22,1.242,0.87,0.885,2.665
		l-1.592,1.66c-0.115,0.118-0.163,0.29-0.127,0.45c0.004,0.018,0.343,1.634-0.402,2.699c-0.363,0.521-0.918,0.822-1.697,0.933
		c-0.273,0.036-0.464,0.29-0.426,0.563c0.035,0.25,0.25,0.432,0.495,0.432c0.02,0,0.045-0.002,0.068-0.004
		c1.058-0.146,1.86-0.604,2.384-1.354c0.167-0.239,0.287-0.496,0.383-0.755h2.792c-0.021,0.827-0.267,2.636-1.969,3.01
		c-0.23,0.053-0.393,0.256-0.393,0.49v1.125c0,0.275,0.224,0.5,0.5,0.5c0.277,0,0.5-0.225,0.5-0.5v-0.747
		c1.845-0.632,2.351-2.569,2.367-3.878h4.313c0.689,0,1.25-0.561,1.25-1.25V4.5C27.167,3.81,26.607,3.25,25.917,3.25z M26.167,24
		c0,0.139-0.112,0.25-0.25,0.25h-7.874c0.07-0.604,0.025-1.145-0.02-1.454l1.516-1.58c0.063-0.065,0.105-0.147,0.126-0.235
		c0.271-1.196,0.16-2.189-0.325-2.949c-0.585-0.92-1.51-1.13-1.55-1.14c-0.178-0.038-0.362,0.022-0.482,0.158l-1.573,1.793
		l-1.572,1.362V4.5c0-0.138,0.112-0.25,0.25-0.25h11.503c0.139,0,0.25,0.112,0.25,0.25L26.167,24L26.167,24z M21,31.252H8.672
		c-0.276,0-0.5,0.225-0.5,0.5v1.141c0,0.274,0.224,0.5,0.5,0.5c0.276,0,0.5-0.226,0.5-0.5v-0.641H20.5v0.7
		c0,0.276,0.225,0.5,0.5,0.5s0.5-0.224,0.5-0.5v-1.2C21.5,31.477,21.275,31.252,21,31.252z"/>
</g>
</svg>
