<?xml version="1.0" encoding="iso-8859-1"?>
<!-- Generator: Adobe Illustrator 16.0.0, SVG Export Plug-In . SVG Version: 6.00 Build 0)  -->
<!DOCTYPE svg PUBLIC "-//W3C//DTD SVG 1.1//EN" "http://www.w3.org/Graphics/SVG/1.1/DTD/svg11.dtd">
<svg version="1.1" id="Layer_1" xmlns="http://www.w3.org/2000/svg" xmlns:xlink="http://www.w3.org/1999/xlink" x="0px" y="0px"
	 width="36px" height="36px" viewBox="0 0 36 36" style="enable-background:new 0 0 36 36;" xml:space="preserve">
<path style="fill:#FFFFFF;" d="M5.938,22.604c0,0.276,0.224,0.5,0.5,0.5H30c0.275,0,0.5-0.224,0.5-0.5c0-0.274-0.225-0.5-0.5-0.5
	H6.438C6.161,22.104,5.938,22.328,5.938,22.604z M6.438,25.104c-0.276,0-0.5,0.226-0.5,0.5c0,0.276,0.224,0.5,0.5,0.5h7.656
	c0.276,0,0.5-0.224,0.5-0.5c0-0.274-0.224-0.5-0.5-0.5H6.438z M30,18.104c0.275,0,0.5-0.224,0.5-0.5s-0.225-0.5-0.5-0.5h-7.563
	c-0.276,0-0.5,0.224-0.5,0.5s0.224,0.5,0.5,0.5H30z M8.825,20.264c0.074,0,0.148-0.017,0.218-0.05l3.756-1.82
	c0.072-0.035,0.136-0.087,0.184-0.152l7.394-10.005c0.16-0.216,0.12-0.52-0.09-0.687l-2.845-2.29
	c-0.105-0.084-0.243-0.123-0.376-0.104c-0.135,0.017-0.257,0.088-0.338,0.196l-7.6,10.153c-0.048,0.063-0.08,0.135-0.093,0.212
	l-0.704,3.96c-0.033,0.187,0.04,0.374,0.19,0.487c0.09,0.066,0.195,0.104,0.302,0.104L8.825,20.264z M10,16.008l7.22-9.643
	l2.067,1.664l-7.035,9.52l-2.763,1.338L10,16.008L10,16.008z"/>
<path style="fill:#FFFFFF;" d="M31.5,13.958H19.346c-0.277,0-0.5,0.224-0.5,0.5s0.223,0.5,0.5,0.5H31.5c0.275,0,0.5,0.224,0.5,0.5
	V28.29c0,0.276-0.225,0.5-0.5,0.5h-27c-0.274,0-0.5-0.224-0.5-0.5V15.46c0-0.276,0.226-0.5,0.5-0.5h2.422c0.276,0,0.5-0.224,0.5-0.5
	s-0.224-0.5-0.5-0.5h-2.42c-0.828,0-1.5,0.673-1.5,1.5v12.83c0,0.828,0.672,1.5,1.5,1.5h27c0.826,0,1.5-0.672,1.5-1.5V15.46
	c0-0.827-0.674-1.5-1.5-1.5L31.5,13.958z"/>
</svg>
