<?xml version="1.0" encoding="iso-8859-1"?>
<!-- Generator: Adobe Illustrator 16.0.0, SVG Export Plug-In . SVG Version: 6.00 Build 0)  -->
<!DOCTYPE svg PUBLIC "-//W3C//DTD SVG 1.1//EN" "http://www.w3.org/Graphics/SVG/1.1/DTD/svg11.dtd">
<svg version="1.1" id="Layer_1" xmlns="http://www.w3.org/2000/svg" xmlns:xlink="http://www.w3.org/1999/xlink" x="0px" y="0px"
	 width="36px" height="36px" viewBox="0 0 36 36" style="enable-background:new 0 0 36 36;" xml:space="preserve">
<g>
	<path style="fill:#FFFFFF;" d="M32.252,9.1L18.208,2.87c-0.13-0.06-0.276-0.06-0.405,0L3.75,9.1C3.57,9.18,3.454,9.358,3.454,9.556
		v3.94c0,0.276,0.224,0.5,0.5,0.5H32.05c0.276,0,0.5-0.224,0.5-0.5v-3.94C32.55,9.358,32.434,9.179,32.252,9.1L32.252,9.1z
		 M31.549,12.996H4.453V9.88l13.552-6.007L31.55,9.88L31.549,12.996L31.549,12.996z M6.372,29.036c-0.276,0-0.5,0.224-0.5,0.5v1.92
		h1v-1.42l0.91,0.003l0.036-13.58H7.383v-0.015H6.918v-1.42h-1v1.92c0,0.276,0.224,0.5,0.5,0.5h0.397l-0.03,11.59H6.372V29.036z
		 M11.488,17.445c0.276,0,0.5-0.224,0.5-0.5v-1.92h-1v1.42h-0.46v0.005H10.02L9.995,30.048l0.946,0.002v1.405h1v-1.92
		c0-0.275-0.223-0.5-0.5-0.5h-0.443l0.02-11.59H11.488z M15.372,29.036c-0.276,0-0.5,0.224-0.5,0.5v1.92h1v-1.42l0.91,0.003
		l0.037-13.58h-0.436v-0.015h-0.464v-1.42h-1v1.92c0,0.276,0.224,0.5,0.5,0.5h0.397l-0.03,11.59h-0.415L15.372,29.036z
		 M20.488,17.445c0.275,0,0.5-0.224,0.5-0.5v-1.92h-1v1.42h-0.461v0.005H19.02l-0.023,13.6h0.945v1.406h1v-1.92
		c0-0.275-0.224-0.5-0.5-0.5h-0.442l0.021-11.59L20.488,17.445L20.488,17.445z M24.512,29.036c-0.275,0-0.5,0.224-0.5,0.5v1.92h1
		v-1.42l0.91,0.003l0.037-13.58h-0.436v-0.015h-0.465v-1.42h-1v1.92c0,0.276,0.225,0.5,0.5,0.5h0.396l-0.03,11.59h-0.413V29.036
		L24.512,29.036z M29.628,17.445c0.276,0,0.5-0.224,0.5-0.5v-1.92h-1v1.42h-0.46v0.005H28.16l-0.025,13.6h0.946v1.406h1v-1.92
		c0-0.275-0.224-0.5-0.5-0.5h-0.442l0.021-11.59L29.628,17.445L29.628,17.445z"/>
	<path style="fill:#FFFFFF;" d="M15.688,8.75c0,1.275,1.038,2.313,2.313,2.313c1.274,0,2.313-1.038,2.313-2.313
		S19.273,6.438,18,6.438C16.726,6.438,15.688,7.475,15.688,8.75z M19.313,8.75c0,0.724-0.59,1.313-1.313,1.313
		c-0.723,0-1.313-0.59-1.313-1.313S17.277,7.438,18,7.438C18.723,7.438,19.313,8.026,19.313,8.75z M31.792,32.703H3.97
		c-0.277,0-0.5,0.224-0.5,0.5c0,0.275,0.223,0.5,0.5,0.5h27.82c0.276,0,0.5-0.225,0.5-0.5c0-0.276-0.224-0.5-0.5-0.5H31.792z"/>
</g>
</svg>
