<?xml version="1.0" encoding="iso-8859-1"?>
<!-- Generator: Adobe Illustrator 16.0.0, SVG Export Plug-In . SVG Version: 6.00 Build 0)  -->
<!DOCTYPE svg PUBLIC "-//W3C//DTD SVG 1.1//EN" "http://www.w3.org/Graphics/SVG/1.1/DTD/svg11.dtd">
<svg version="1.1" id="Layer_1" xmlns="http://www.w3.org/2000/svg" xmlns:xlink="http://www.w3.org/1999/xlink" x="0px" y="0px"
	 width="36px" height="36px" viewBox="0 0 36 36" style="enable-background:new 0 0 36 36;" xml:space="preserve">
<g>
	<path style="fill:#FFFFFF;" d="M20.837,26.99h-9.492c-0.276,0-0.5-0.225-0.5-0.5s0.224-0.5,0.5-0.5h9.492
		c0.276,0,0.5,0.223,0.5,0.5S21.113,26.99,20.837,26.99z M15.22,24.962h-3.875c-0.276,0-0.5-0.224-0.5-0.5s0.224-0.5,0.5-0.5h3.876
		c0.277,0,0.5,0.224,0.5,0.5S15.499,24.962,15.22,24.962L15.22,24.962z M29.118,20.21h-6.155c-1.014,0-1.838-0.826-1.838-1.84
		v-0.167c0-1.014,0.824-1.838,1.838-1.838h6.155c1.015,0,1.84,0.825,1.84,1.838v0.168C30.958,19.386,30.133,20.211,29.118,20.21
		L29.118,20.21z M22.963,17.365c-0.462,0-0.838,0.376-0.838,0.838v0.168c0,0.463,0.376,0.84,0.838,0.84h6.155
		c0.463,0,0.84-0.377,0.84-0.84v-0.167c0-0.462-0.377-0.838-0.84-0.838L22.963,17.365L22.963,17.365z"/>
	<g>
		<path style="fill:#FFFFFF;" d="M32.596,30.05H9.543c-0.695,0-1.26-0.563-1.26-1.26V14.164c0-0.695,0.565-1.26,1.26-1.26h23.053
			c0.693,0,1.26,0.565,1.26,1.26v14.63c0,0.692-0.565,1.258-1.26,1.258V30.05z M9.543,13.903c-0.143,0-0.26,0.117-0.26,0.26v14.63
			c0,0.143,0.117,0.26,0.26,0.26h23.053c0.143,0,0.26-0.117,0.26-0.26V14.16c0-0.143-0.117-0.26-0.26-0.26H9.543V13.903z"/>
	</g>
	<g>
		<path style="fill:#FFFFFF;" d="M4.818,22.939c-0.593,0-1.108-0.442-1.182-1.045L2.154,9.642c-0.038-0.316,0.05-0.628,0.245-0.878
			s0.478-0.41,0.793-0.447L22.7,5.957c0.642-0.07,1.243,0.388,1.323,1.04l0.22,1.41c0.042,0.273-0.146,0.528-0.417,0.57
			c-0.27,0.044-0.528-0.142-0.57-0.416l-0.223-1.425c-0.016-0.12-0.102-0.196-0.215-0.183L3.313,9.31
			c-0.068,0.008-0.11,0.048-0.127,0.07c-0.018,0.024-0.047,0.074-0.04,0.142L4.63,21.773c0.013,0.104,0.11,0.181,0.213,0.166
			c0.286-0.032,0.524,0.164,0.557,0.438c0.033,0.273-0.163,0.523-0.437,0.557c-0.047,0.004-0.095,0.008-0.142,0.008L4.818,22.939z"
			/>
	</g>
</g>
</svg>
