<?xml version="1.0" encoding="iso-8859-1"?>
<!-- Generator: Adobe Illustrator 16.0.0, SVG Export Plug-In . SVG Version: 6.00 Build 0)  -->
<!DOCTYPE svg PUBLIC "-//W3C//DTD SVG 1.1//EN" "http://www.w3.org/Graphics/SVG/1.1/DTD/svg11.dtd">
<svg version="1.1" id="Layer_1" xmlns="http://www.w3.org/2000/svg" xmlns:xlink="http://www.w3.org/1999/xlink" x="0px" y="0px"
	 width="36px" height="36px" viewBox="0 0 36 36" style="enable-background:new 0 0 36 36;" xml:space="preserve">
<g>
	<path style="fill:#FFFFFF;" d="M23.6,18.787c-3.582,0-6.5,2.916-6.5,6.5c0,3.585,2.917,6.5,6.5,6.5c3.586,0,6.502-2.915,6.502-6.5
		c0-3.584-2.916-6.5-6.5-6.5H23.6z M23.6,30.787c-3.029,0-5.5-2.467-5.5-5.5c0-3.032,2.468-5.5,5.5-5.5
		c3.034,0,5.502,2.468,5.502,5.5c0,3.033-2.468,5.5-5.5,5.5H23.6z"/>
	<path style="fill:#FFFFFF;" d="M24.266,22.416c-0.203-0.184-0.521-0.168-0.707,0.038c-0.186,0.205-0.17,0.521,0.037,0.706
		l1.775,1.597H20.49c-0.276,0-0.5,0.224-0.5,0.5s0.224,0.5,0.5,0.5h4.949l-1.844,1.658c-0.205,0.185-0.224,0.5-0.037,0.706
		c0.1,0.109,0.233,0.167,0.371,0.167c0.119,0,0.237-0.042,0.334-0.128l2.779-2.5c0.104-0.096,0.166-0.23,0.166-0.372
		s-0.061-0.277-0.166-0.372l-2.779-2.5H24.266z M15.442,18.424c0.47-0.105,0.95-0.178,1.43-0.216
		c0.076-0.006,0.145-0.032,0.208-0.07c0.47,0.11,0.96,0.174,1.464,0.174c3.583,0,6.5-2.916,6.5-6.5c0-3.585-2.916-6.5-6.5-6.5
		c-3.585,0-6.5,2.915-6.5,6.5c0,2.4,1.312,4.497,3.253,5.623c-0.024,0.005-0.05,0.008-0.074,0.014
		c-5.088,1.14-9.084,5.699-10.18,11.615c-0.028,0.146,0.01,0.297,0.106,0.41c0.094,0.113,0.235,0.181,0.383,0.181h9.75
		c0.275,0,0.5-0.224,0.5-0.5c0-0.277-0.225-0.5-0.5-0.5H6.145C7.315,23.423,10.915,19.438,15.442,18.424L15.442,18.424z
		 M13.042,11.811c0-3.03,2.47-5.498,5.502-5.498c3.033,0,5.5,2.467,5.5,5.5c0,3.032-2.467,5.5-5.5,5.5c-3.033,0-5.5-2.468-5.5-5.5
		L13.042,11.811z"/>
</g>
</svg>
