<?xml version="1.0" encoding="utf-8"?>
<!-- Generator: Adobe Illustrator 19.0.0, SVG Export Plug-In . SVG Version: 6.00 Build 0)  -->
<svg version="1.1" id="Layer_1" xmlns="http://www.w3.org/2000/svg" xmlns:xlink="http://www.w3.org/1999/xlink" x="0px" y="0px"
	 width="36px" height="36px" viewBox="6 -6 36 36" style="enable-background:new 6 -6 36 36;" xml:space="preserve">
<style type="text/css">
	.st0{fill:#FFFFFF;}
</style>
<g>
	<g>
		<path class="st0" d="M19.4,21.8l4.7-17.6l7.6-3.1l1.6-3.9l7.4,6.6l-3.5,2.6L36,14L19.4,21.8z M24.9,5l-4.1,15l14.2-6.6l1.2-7.5
			l2.9-2.1L33.7-1l-1.3,3L24.9,5z"/>
	</g>
	<g>
		<path class="st0" d="M30,11.2c-1.3,0-2.3-1.1-2.3-2.3s1.1-2.3,2.3-2.3s2.3,1.1,2.3,2.3S31.3,11.2,30,11.2z M30,7.6
			c-0.7,0-1.3,0.6-1.3,1.3s0.6,1.3,1.3,1.3s1.3-0.6,1.3-1.3S30.8,7.6,30,7.6z"/>
	</g>
	<g>
		<rect x="23.9" y="8.8" transform="matrix(0.7826 0.6226 -0.6226 0.7826 14.9907 -11.7777)" class="st0" width="1" height="13.6"/>
	</g>
	<g>
		<path class="st0" d="M28.3,26.3H10.8c-1.5,0-2.7-1.2-2.7-2.7V7.1c0-0.9,0.4-1.8,1-2.4l5.1-5.1c0.7-0.7,1.5-1,2.5-1H30v1H16.7
			c-0.7,0-1.3,0.3-1.8,0.7L9.8,5.4C9.3,5.8,9.1,6.5,9.1,7.1v16.5c0,0.9,0.8,1.7,1.7,1.7h17.5c0.9,0,1.7-0.7,1.7-1.7v-4.3h1v4.3
			C30.9,25.1,29.7,26.3,28.3,26.3z"/>
	</g>
	<g>
		<rect x="13.6" y="20.4" class="st0" width="6.7" height="1"/>
	</g>
	<g>
		<path class="st0" d="M13.8,6.3H8.6v-1h5.3c0.6,0,1.1-0.5,1.1-1.1v-5.2h1v5.2C15.9,5.4,15,6.3,13.8,6.3z"/>
	</g>
</g>
</svg>
