<svg id="Layer_1" xmlns="http://www.w3.org/2000/svg" width="36" height="36" viewBox="-96 33 36 36"><style>.st0{fill:#FFFFFF;}</style><path class="st0" d="M-79.7 64.3c-1.1 0-4.5-.3-5.1-4.3 0 0-1.7-7.4-5.8-12.2l-.1-.1c-.1-.2-.8-2 .1-2.9.6-.6 1.6-.6 3.1.1.1.1 3 1.5 4.4 5.4 1.7-1.7 7-6.5 14.4-8.3.2 0 3.1-.5 4.3 1 0 0 .4.4.2 1.1-.3 1.2-2.1 2.2-5.6 3.2-1.7.7-6.6 2.7-7.6 3.9-.1.1-4.3 3.8-4.2 7.7 0 1.7.9 3.3 2.7 4.6l1 .8-1.2.1c-.2-.2-.4-.1-.6-.1zm-10-17.1c4.2 5 5.9 12.3 6 12.6.3 2.3 1.8 3.1 3 3.4-1.2-1.3-1.9-2.7-1.9-4.3-.1-4.4 4.3-8.3 4.5-8.5 1.4-1.5 7.8-4 8-4.1 4.3-1.2 4.9-2.2 5-2.5v-.2c-.7-.9-2.6-.8-3.3-.7-8.5 2.1-14.4 8.6-14.4 8.7l-.6.7-.2-.9c-1.1-4.1-4-5.6-4-5.6-1.5-.6-1.9-.4-2-.3-.6.2-.3 1.2-.1 1.7z"/><path class="st0" d="M-74.1 64.3h-.3-.1c-3.8 0-4.3-3.2-4.3-3.2-1.2-5.4 3.6-9.3 3.8-9.4 1.4-1 2.8-1.4 4-1.1 1.7.4 2.6 1.8 2.7 1.9.6.8.8 1.7.7 2.6-.4 2.1-2.5 3.6-2.6 3.7-1.1.9-2.2 1.2-3.1 1.1-.9-.2-1.3-.8-1.3-.9-.3-.5-.3-1.1-.1-1.6.4-1.2 1.9-2 2.6-2.4-.1-.1-.1-.2-.1-.2-.3-.2-1 0-1.2.1-1.2.5-2.1 2.3-2.3 3-.3 1.2-.1 2.2.4 2.7.8.8 2.2.5 2.2.5 3.1-.8 5-3.3 5-3.3l.4-.5.4.5c.6.7.8 1.4.7 2.1-.3 1.8-2.8 3.2-2.9 3.2-2.1 1.1-3.9 1.2-4.6 1.2zm-.3-1c.1 0 2.1.1 4.2-1 .6-.3 2.2-1.4 2.4-2.5 0-.3 0-.5-.1-.8-.8.9-2.6 2.6-5.2 3.2-.1 0-2 .4-3.1-.8-.8-.8-1-2-.6-3.7.1-.2 1-2.9 2.9-3.7.1-.1 1.3-.6 2.1-.1.3.2.7.5.7 1.3v.4l-.3.1c-.6.2-2.1 1-2.5 1.9-.1.3-.1.5.1.8 0 0 .2.3.6.4.6.1 1.4-.2 2.3-.9 0 0 2-1.4 2.2-3 .1-.7-.1-1.3-.5-1.9 0 0-.7-1.2-2.1-1.4-1-.2-2.1.1-3.2.9 0 0-4.5 3.6-3.5 8.4 0 .1.5 2.4 3.4 2.4h.2zM-84 44c-.1 0-.3-.1-.4-.2l-2-2.3c-.2-.2-.2-.5.1-.7.2-.2.5-.1.7.1l2 2.3c.2.2.2.5-.1.7-.1.1-.2.1-.3.1zM-81.5 42.4c-.3 0-.5-.2-.5-.5v-4.4c0-.3.2-.5.5-.5s.5.2.5.5v4.4c0 .2-.3.5-.5.5zM-79.2 44.4c-.1 0-.2 0-.3-.1-.2-.1-.3-.5-.1-.7l1.9-2.9c.1-.2.5-.3.7-.1.2.1.3.5.1.7l-1.9 2.9c0 .1-.2.2-.4.2z"/></svg>