<?xml version="1.0" encoding="utf-8"?>
<!-- Generator: Adobe Illustrator 22.0.1, SVG Export Plug-In . SVG Version: 6.00 Build 0)  -->
<svg version="1.1" id="Layer_1" xmlns="http://www.w3.org/2000/svg" xmlns:xlink="http://www.w3.org/1999/xlink" x="0px" y="0px"
	 viewBox="0 0 700 480" style="enable-background:new 0 0 700 480;" xml:space="preserve">
<style type="text/css">
	.bc0{enable-background:new    ;}
	.bc1{fill:#DFE3ED;}
	.bc2{fill:url(#SVGBCID_1_);}
	.bc3{fill:#3E4265;}
	.bc4{font-family:'AvenirLTStd-Roman';}
	.bc5{font-size:10.1082px;}
	.bc6{font-size:9.4343px;}
	.bc7{fill:#224372;}
	.bc8{fill:#5CE593;}
	.bc9{fill:#EF5350;}
	.bc10{fill:#FFFFFF;}
	.bc11{font-family:'Averta-Bold';}
	.bc12{font-size:8.7604px;}
	.bc13{fill:url(#SVGBCID_2_);}
</style>
<g>
	<g class="bc0">
		<rect x="557.6" y="115.2" class="bc1" width="1.2" height="211"/>
	</g>
	<linearGradient id="SVGBCID_1_" gradientUnits="userSpaceOnUse" x1="530.7168" y1="371.2866" x2="530.7168" y2="326.3016">
		<stop  offset="0" style="stop-color:#DFE3ED;stop-opacity:0"/>
		<stop  offset="0.7275" style="stop-color:#DFE3ED;stop-opacity:0.7291"/>
		<stop  offset="0.8481" style="stop-color:#DFE3ED;stop-opacity:0.85"/>
		<stop  offset="1" style="stop-color:#DFE3ED"/>
	</linearGradient>
	<polygon class="bc2" points="420.4,326.6 369,368.9 646.2,371.3 692.4,326.3 	"/>
	<g>
		<text transform="matrix(1 0 0 1 550.1543 346.1768)" class="bc3 st4 st5">2018</text>
	</g>
	<g>
		<text transform="matrix(1 0 0 1 395.7471 315.873)" class="bc3 bc4 bc6">10</text>
	</g>
	<g>
		<text transform="matrix(1 0 0 1 395.7471 284.8682)" class="bc3 bc4 bc6">20</text>
	</g>
	<g>
		<text transform="matrix(1 0 0 1 395.7471 253.8633)" class="bc3 bc4 bc6">30</text>
	</g>
	<g>
		<text transform="matrix(1 0 0 1 395.7471 222.856)" class="bc3 bc4 bc6">40</text>
	</g>
	<g>
		<text transform="matrix(1 0 0 1 395.7471 191.8511)" class="bc3 bc4 bc6">50</text>
	</g>
	<g>
		<text transform="matrix(1 0 0 1 395.7471 160.8452)" class="bc3 bc4 bc6">60</text>
	</g>
	<g>
		<text transform="matrix(1 0 0 1 395.7471 129.8408)" class="bc3 bc4 bc6">70</text>
	</g>
	<g>
		<text transform="matrix(0 -1 1 0 381.9307 260.1807)" class="bc3 bc4 bc6">INR Million</text>
	</g>
	<path class="bc7" d="M420.7,318.5v7.7h271.7L692.4,90L420.7,318.5z"/>
	<g>
		<g>
			<g>
				<path class="bc8" d="M623.8,186.8c-4.5,3.8-8,7.9-12.3,10.4c-4.5,2.5-9.6,7.6-14.1,11.4c-5.9,5-9.1,8.2-14.3,13.6
					c-1.9,2-5.2,6.2-7.3,7.6c-2,1.3-4.2,3.8-6.4,5c-2.1,2.2-3.1,2.9-6.3,7.1c-2.7,3.5-5.4,3.3-7.5,6.6c-1.1,1.5-3.5,3.6-5.2,4.8
					c-1.1,0.8-9.8,10-10.9,11.1c-1.9,1.6-16.3,16.5-23.6,24.5c0.4,2.7,12.1-3.2,15.1-4.6l53.1-15.8c9.5-4.2,11.1-3.4,16.3-6.4
					c9.8-2.1,20.8-4.3,24.5-7.4c7.5-6.2,17.7-3.2,24.9-6c5.8-2.2,11.5-2.7,17.1-6.7c11.8-8.3,16.7-5.3,25.6-9.4V126.4
					c-5.2,4.1-5.1,4.7-11.1,10.2c-3.2,3.7-11.5,11.2-14.7,13.7c-0.6,0.5-1.2,0.9-1.8,1.4L623.8,186.8z"/>
			</g>
		</g>
	</g>
	<g>
		<polygon class="bc9" points="420.7,326.3 692.4,326.3 692.4,226.5 420.7,318.5 		"/>
	</g>
	<g class="bc0">
		<polygon class="bc1" points="420.1,326.9 420.1,115 421.3,115 421.3,325.7 695.7,325.6 695.7,326.8 		"/>
	</g>
</g>
<g>
	<g>
		<g>
			<g class="bc0">
				<g>
					<path class="bc3" d="M351.3,382.6v3.9c-0.9,0.5-1.9,0.7-3.1,0.7c-1.3,0-2.3-0.4-3.1-1.2c-0.8-0.8-1.2-1.9-1.2-3.1
						c0-1.3,0.4-2.3,1.2-3.1c0.8-0.8,1.8-1.2,3.1-1.2c1.2,0,2.2,0.4,3,1.1l-0.6,0.6c-0.2-0.3-0.6-0.6-1.1-0.7
						c-0.5-0.2-0.9-0.3-1.4-0.3c-1.1,0-1.9,0.3-2.6,1c-0.6,0.7-1,1.6-1,2.6c0,1.1,0.3,1.9,1,2.6c0.6,0.7,1.5,1,2.6,1
						c1,0,1.8-0.2,2.3-0.5v-2.8h-2v-0.7H351.3z"/>
				</g>
			</g>
			<g class="bc0">
				<g>
					<path class="bc3" d="M353.4,387.1v-3.9c0-0.1,0-0.4,0-0.8c0-0.4,0-0.6,0-0.7h0.7c0,0.6,0,0.9,0,0.9c0.4-0.7,1-1.1,1.7-1.1
						c0.1,0,0.3,0,0.4,0.1l-0.1,0.7c-0.1,0-0.2,0-0.3,0c-0.6,0-1,0.2-1.3,0.5c-0.3,0.4-0.4,0.8-0.4,1.4v2.9H353.4z"/>
				</g>
			</g>
			<g class="bc0">
				<g>
					<path class="bc3" d="M357.6,386.4c-0.5-0.5-0.8-1.2-0.8-2c0-0.8,0.3-1.5,0.8-2c0.5-0.5,1.2-0.8,2-0.8c0.8,0,1.5,0.3,2,0.8
						c0.5,0.5,0.8,1.2,0.8,2c0,0.8-0.3,1.5-0.8,2c-0.5,0.5-1.2,0.8-2,0.8C358.8,387.2,358.1,386.9,357.6,386.4z M358.1,382.8
						c-0.4,0.4-0.6,0.9-0.6,1.6c0,0.6,0.2,1.1,0.6,1.6c0.4,0.4,0.9,0.6,1.6,0.6s1.2-0.2,1.6-0.6c0.4-0.4,0.6-0.9,0.6-1.6
						c0-0.6-0.2-1.1-0.6-1.6c-0.4-0.4-0.9-0.6-1.6-0.6S358.4,382.4,358.1,382.8z"/>
				</g>
				<g>
					<path class="bc3" d="M363.4,386.1l0.6-0.4c0.1,0.3,0.4,0.5,0.6,0.7c0.3,0.2,0.6,0.2,0.9,0.2c0.3,0,0.6-0.1,0.9-0.3
						c0.2-0.2,0.4-0.4,0.4-0.7c0-0.3-0.1-0.5-0.3-0.6c-0.2-0.1-0.5-0.2-0.8-0.3c-0.3-0.1-0.6-0.1-0.9-0.2c-0.3-0.1-0.6-0.2-0.8-0.5
						c-0.2-0.2-0.3-0.5-0.3-0.9c0-0.5,0.2-0.9,0.6-1.1c0.4-0.3,0.8-0.4,1.3-0.4c0.9,0,1.6,0.3,1.9,1l-0.6,0.4
						c-0.3-0.5-0.7-0.8-1.3-0.8c-0.3,0-0.5,0.1-0.8,0.2s-0.4,0.4-0.4,0.6c0,0.3,0.1,0.5,0.3,0.6c0.2,0.1,0.5,0.2,0.8,0.3
						c0.3,0.1,0.6,0.1,0.9,0.2c0.3,0.1,0.6,0.2,0.8,0.5c0.2,0.2,0.3,0.5,0.3,1c0,0.5-0.2,0.9-0.6,1.2c-0.4,0.3-0.8,0.4-1.4,0.4
						C364.6,387.2,363.8,386.8,363.4,386.1z"/>
				</g>
				<g>
					<path class="bc3" d="M368.4,386.1l0.6-0.4c0.1,0.3,0.4,0.5,0.6,0.7c0.3,0.2,0.6,0.2,0.9,0.2c0.3,0,0.6-0.1,0.9-0.3
						c0.2-0.2,0.4-0.4,0.4-0.7c0-0.3-0.1-0.5-0.3-0.6c-0.2-0.1-0.5-0.2-0.8-0.3c-0.3-0.1-0.6-0.1-0.9-0.2c-0.3-0.1-0.6-0.2-0.8-0.5
						c-0.2-0.2-0.3-0.5-0.3-0.9c0-0.5,0.2-0.9,0.6-1.1c0.4-0.3,0.8-0.4,1.3-0.4c0.9,0,1.6,0.3,1.9,1l-0.6,0.4
						c-0.3-0.5-0.7-0.8-1.3-0.8c-0.3,0-0.5,0.1-0.8,0.2s-0.4,0.4-0.4,0.6c0,0.3,0.1,0.5,0.3,0.6c0.2,0.1,0.5,0.2,0.8,0.3
						c0.3,0.1,0.6,0.1,0.9,0.2c0.3,0.1,0.6,0.2,0.8,0.5c0.2,0.2,0.3,0.5,0.3,1c0,0.5-0.2,0.9-0.6,1.2c-0.4,0.3-0.8,0.4-1.4,0.4
						C369.5,387.2,368.8,386.8,368.4,386.1z"/>
				</g>
				<g>
					<path class="bc3" d="M377.2,387.1v-8.3h5.1v0.7H378v2.9h4v0.7h-4v3.2h4.5v0.7H377.2z"/>
				</g>
				<g>
					<path class="bc3" d="M383.1,387.1l2.2-2.9l-1.9-2.5h0.9l1.5,2l1.5-2h0.9l-1.9,2.5l2.3,2.9h-0.9l-1.9-2.4l-1.8,2.4H383.1z"/>
				</g>
				<g>
					<path class="bc3" d="M389.5,389.7v-8.1h0.7v0.9h0c0.2-0.4,0.5-0.6,0.9-0.8c0.4-0.2,0.8-0.3,1.3-0.3c0.8,0,1.5,0.3,2,0.8
						c0.5,0.5,0.8,1.2,0.8,2c0,0.8-0.3,1.5-0.8,2c-0.5,0.5-1.2,0.8-2,0.8c-0.4,0-0.9-0.1-1.3-0.3c-0.4-0.2-0.7-0.5-0.9-0.8h0v3.6
						H389.5z M390.7,382.8c-0.4,0.4-0.7,1-0.7,1.6c0,0.6,0.2,1.1,0.7,1.6c0.4,0.4,1,0.6,1.6,0.6c0.6,0,1.2-0.2,1.6-0.6
						c0.4-0.4,0.6-0.9,0.6-1.6c0-0.6-0.2-1.1-0.6-1.6c-0.4-0.4-0.9-0.6-1.6-0.6C391.7,382.1,391.2,382.4,390.7,382.8z"/>
				</g>
				<g>
					<path class="bc3" d="M401,385.6l0.5,0.4c-0.5,0.8-1.3,1.2-2.3,1.2c-0.8,0-1.5-0.3-2-0.8c-0.5-0.5-0.8-1.2-0.8-2.1
						c0-0.8,0.3-1.5,0.8-2c0.5-0.5,1.2-0.8,1.9-0.8c0.8,0,1.4,0.3,1.9,0.8c0.5,0.5,0.7,1.1,0.7,1.8v0.5h-4.5c0,0.1,0,0.3,0.1,0.4
						c0,0.2,0.1,0.3,0.2,0.5c0.1,0.2,0.2,0.4,0.4,0.5c0.1,0.2,0.3,0.3,0.6,0.4c0.2,0.1,0.5,0.2,0.8,0.2c0.4,0,0.7-0.1,1-0.3
						C400.6,386.1,400.8,385.9,401,385.6z M397.2,383.9h3.8c0-0.5-0.2-0.9-0.6-1.2c-0.4-0.3-0.8-0.5-1.3-0.5c-0.4,0-0.7,0.1-0.9,0.2
						c-0.3,0.2-0.5,0.3-0.6,0.5c-0.1,0.2-0.2,0.4-0.3,0.6C397.2,383.7,397.2,383.8,397.2,383.9z"/>
				</g>
				<g>
					<path class="bc3" d="M403.3,387.1v-3.9c0-0.1,0-0.4,0-0.8c0-0.4,0-0.6,0-0.7h0.7c0,0.6,0,0.9,0,0.9h0c0.1-0.3,0.4-0.6,0.7-0.8
						c0.3-0.2,0.7-0.3,1.1-0.3c1.4,0,2.1,0.8,2.1,2.3v3.2h-0.7v-3.2c0-1.2-0.5-1.7-1.4-1.7c-0.5,0-1,0.2-1.3,0.6
						c-0.4,0.4-0.5,0.9-0.5,1.6v2.7H403.3z"/>
				</g>
				<g>
					<path class="bc3" d="M414.5,387.1v-0.9h0c-0.2,0.4-0.5,0.6-0.9,0.8c-0.4,0.2-0.8,0.3-1.3,0.3c-0.8,0-1.5-0.3-2-0.8
						c-0.5-0.5-0.8-1.2-0.8-2c0-0.8,0.3-1.5,0.8-2c0.5-0.5,1.2-0.8,2-0.8c0.4,0,0.9,0.1,1.3,0.3c0.4,0.2,0.7,0.5,0.9,0.8h0v-4.4h0.7
						v8.8H414.5z M413.9,385.9c0.4-0.4,0.7-1,0.7-1.6c0-0.6-0.2-1.1-0.7-1.6c-0.4-0.4-1-0.6-1.6-0.6c-0.6,0-1.2,0.2-1.6,0.6
						c-0.4,0.4-0.6,0.9-0.6,1.6c0,0.6,0.2,1.1,0.6,1.6c0.4,0.4,0.9,0.6,1.6,0.6C412.9,386.6,413.5,386.4,413.9,385.9z"/>
				</g>
				<g>
					<path class="bc3" d="M417,379.9c-0.1-0.1-0.2-0.2-0.2-0.4s0-0.3,0.2-0.4c0.1-0.1,0.2-0.2,0.4-0.2c0.1,0,0.3,0.1,0.4,0.2
						c0.1,0.1,0.2,0.2,0.2,0.4s-0.1,0.3-0.2,0.4c-0.1,0.1-0.2,0.2-0.4,0.2C417.2,380,417.1,380,417,379.9z M417,387.1v-5.4h0.7v5.4
						H417z"/>
				</g>
				<g>
					<path class="bc3" d="M422.4,381.7v0.6h-1.5v3.5c0,0.2,0.1,0.4,0.2,0.6c0.1,0.1,0.3,0.2,0.5,0.2c0.2,0,0.5-0.1,0.8-0.2l0.1,0.6
						c-0.3,0.1-0.6,0.2-0.9,0.2c-0.5,0-0.8-0.1-1.1-0.4c-0.2-0.3-0.3-0.6-0.3-1v-3.5H419v-0.6h1.2v-1.6h0.7v1.6H422.4z"/>
				</g>
				<g>
					<path class="bc3" d="M428.2,381.7v3.9c0,0.1,0,0.4,0,0.8c0,0.4,0,0.6,0,0.7h-0.7c0-0.6,0-0.9,0-0.9h0c-0.1,0.3-0.4,0.6-0.7,0.8
						c-0.3,0.2-0.7,0.3-1.1,0.3c-1.4,0-2.1-0.8-2.1-2.3v-3.2h0.7v3.2c0,1.2,0.5,1.7,1.4,1.7c0.5,0,1-0.2,1.3-0.6
						c0.4-0.4,0.5-0.9,0.5-1.6v-2.7H428.2z"/>
				</g>
			</g>
			<g class="bc0">
				<g>
					<path class="bc3" d="M430.1,387.1v-3.9c0-0.1,0-0.4,0-0.8c0-0.4,0-0.6,0-0.7h0.7c0,0.6,0,0.9,0,0.9c0.4-0.7,1-1.1,1.7-1.1
						c0.1,0,0.3,0,0.4,0.1l-0.1,0.7c-0.1,0-0.2,0-0.3,0c-0.6,0-1,0.2-1.3,0.5c-0.3,0.4-0.4,0.8-0.4,1.4v2.9H430.1z"/>
				</g>
			</g>
			<g class="bc0">
				<g>
					<path class="bc3" d="M438.1,385.6l0.5,0.4c-0.5,0.8-1.3,1.2-2.3,1.2c-0.8,0-1.5-0.3-2-0.8c-0.5-0.5-0.8-1.2-0.8-2.1
						c0-0.8,0.3-1.5,0.8-2c0.5-0.5,1.2-0.8,1.9-0.8c0.8,0,1.4,0.3,1.9,0.8c0.5,0.5,0.7,1.1,0.7,1.8v0.5h-4.5c0,0.1,0,0.3,0.1,0.4
						c0,0.2,0.1,0.3,0.2,0.5c0.1,0.2,0.2,0.4,0.4,0.5c0.1,0.2,0.3,0.3,0.6,0.4c0.2,0.1,0.5,0.2,0.8,0.2c0.4,0,0.7-0.1,1-0.3
						C437.7,386.1,437.9,385.9,438.1,385.6z M434.2,383.9h3.8c0-0.5-0.2-0.9-0.5-1.2c-0.4-0.3-0.8-0.5-1.3-0.5
						c-0.4,0-0.7,0.1-0.9,0.2c-0.3,0.2-0.5,0.3-0.6,0.5c-0.1,0.2-0.2,0.4-0.3,0.6C434.3,383.7,434.2,383.8,434.2,383.9z"/>
				</g>
			</g>
		</g>
		<g>
			<g>
				<path class="bc9" d="M333,389.5c-3.2,0-5.8-2.6-5.8-5.8c0-3.2,2.6-5.8,5.8-5.8c3.2,0,5.8,2.6,5.8,5.8
					C338.9,386.9,336.2,389.5,333,389.5z M333,380.2c-1.9,0-3.5,1.6-3.5,3.5s1.6,3.5,3.5,3.5c1.9,0,3.5-1.6,3.5-3.5
					S335,380.2,333,380.2z"/>
			</g>
		</g>
	</g>
	<g>
		<g>
			<g class="bc0">
				<path class="bc3" d="M537.6,386l0.7-0.5c0.4,0.7,1,1,1.9,1c0.5,0,1-0.1,1.3-0.4c0.4-0.3,0.5-0.7,0.5-1.2c0-0.4-0.1-0.7-0.3-0.9
					c-0.2-0.2-0.5-0.4-0.8-0.5c-0.3-0.1-0.7-0.2-1-0.4c-0.4-0.1-0.7-0.3-1-0.4c-0.3-0.1-0.6-0.4-0.8-0.7c-0.2-0.3-0.3-0.7-0.3-1.2
					c0-0.7,0.3-1.3,0.8-1.7s1.1-0.6,1.9-0.6c1,0,1.7,0.3,2.3,1l-0.7,0.5c-0.4-0.5-0.9-0.8-1.6-0.8c-0.5,0-1,0.1-1.3,0.4
					c-0.4,0.3-0.5,0.7-0.5,1.2c0,0.3,0.1,0.6,0.2,0.8c0.2,0.2,0.4,0.4,0.6,0.5s0.5,0.2,0.8,0.3c0.3,0.1,0.6,0.2,0.9,0.3
					c0.3,0.1,0.6,0.2,0.8,0.4s0.5,0.4,0.6,0.7c0.2,0.3,0.2,0.6,0.2,1.1c0,0.7-0.3,1.3-0.8,1.7c-0.5,0.4-1.1,0.6-1.8,0.6
					C539.1,387.3,538.2,386.9,537.6,386z"/>
				<path class="bc3" d="M548.6,383.5v1.3c0,1,0,1.7,0.1,2.3h-0.7c0-0.3-0.1-0.6-0.1-0.9h0c-0.4,0.7-1,1-1.9,1c-0.5,0-1-0.1-1.3-0.4
					c-0.4-0.3-0.6-0.7-0.6-1.2c0-1.2,1-1.8,3-1.8h0.8v-0.3c0-0.4-0.1-0.8-0.4-1c-0.3-0.2-0.6-0.3-1.1-0.3c-0.6,0-1.2,0.2-1.7,0.6
					l-0.4-0.5c0.2-0.2,0.6-0.4,0.9-0.6c0.4-0.1,0.8-0.2,1.1-0.2c0.7,0,1.2,0.2,1.6,0.5C548.4,382.3,548.6,382.8,548.6,383.5z
					 M548,384.3h-0.8c-0.7,0-1.2,0.1-1.7,0.3c-0.4,0.2-0.7,0.5-0.7,0.9c0,0.3,0.1,0.6,0.4,0.7c0.2,0.2,0.5,0.3,0.9,0.3
					c0.7,0,1.2-0.2,1.5-0.5c0.3-0.4,0.4-0.8,0.4-1.3V384.3z"/>
				<path class="bc3" d="M552,387.1l-2.2-5.4h0.8l1.8,4.6l1.8-4.6h0.7l-2.1,5.4H552z"/>
				<path class="bc3" d="M556,379.9c-0.1-0.1-0.2-0.2-0.2-0.4s0.1-0.3,0.2-0.4c0.1-0.1,0.2-0.2,0.4-0.2s0.3,0.1,0.4,0.2
					c0.1,0.1,0.2,0.2,0.2,0.4s-0.1,0.3-0.2,0.4c-0.1,0.1-0.2,0.2-0.4,0.2S556.1,380,556,379.9z M556,387.1v-5.4h0.7v5.4H556z"/>
				<path class="bc3" d="M558.7,387.1v-3.9c0-0.1,0-0.4,0-0.8c0-0.4,0-0.6,0-0.7h0.7c0,0.6,0,0.9,0,0.9h0c0.1-0.3,0.4-0.6,0.7-0.8
					c0.3-0.2,0.7-0.3,1.1-0.3c1.4,0,2.1,0.8,2.1,2.3v3.2h-0.7v-3.2c0-1.2-0.5-1.7-1.4-1.7c-0.5,0-1,0.2-1.3,0.6
					c-0.4,0.4-0.5,0.9-0.5,1.6v2.7H558.7z"/>
				<path class="bc3" d="M570.7,381.7v5.1c0,0.5-0.1,1-0.2,1.4c-0.1,0.4-0.3,0.7-0.5,0.9c-0.2,0.2-0.4,0.4-0.7,0.5
					c-0.3,0.1-0.5,0.2-0.8,0.3c-0.2,0-0.5,0.1-0.7,0.1c-0.5,0-1.1-0.1-1.5-0.3c-0.5-0.2-0.9-0.5-1.1-0.8l0.5-0.5
					c0.5,0.7,1.2,1,2.1,1c1.5,0,2.2-0.8,2.2-2.5V386h0c-0.4,0.7-1.1,1.1-2,1.1c-0.8,0-1.5-0.3-2-0.8c-0.6-0.5-0.8-1.2-0.8-2
					c0-0.8,0.3-1.4,0.8-2c0.6-0.5,1.2-0.8,2-0.8c0.9,0,1.6,0.4,2,1.1h0v-0.9H570.7z M569.4,385.8c0.4-0.4,0.6-0.9,0.6-1.5
					c0-0.6-0.2-1.1-0.6-1.5c-0.4-0.4-0.9-0.6-1.5-0.6c-0.6,0-1.1,0.2-1.5,0.6c-0.4,0.4-0.6,0.9-0.6,1.5c0,0.6,0.2,1.1,0.6,1.5
					c0.4,0.4,0.9,0.6,1.5,0.6C568.4,386.4,568.9,386.2,569.4,385.8z"/>
				<path class="bc3" d="M571.8,386.1l0.6-0.4c0.1,0.3,0.4,0.5,0.6,0.7c0.3,0.2,0.6,0.2,0.9,0.2c0.3,0,0.6-0.1,0.9-0.3
					c0.2-0.2,0.4-0.4,0.4-0.7c0-0.3-0.1-0.5-0.3-0.6s-0.5-0.2-0.8-0.3c-0.3-0.1-0.6-0.1-0.9-0.2c-0.3-0.1-0.6-0.2-0.8-0.5
					c-0.2-0.2-0.3-0.5-0.3-0.9c0-0.5,0.2-0.9,0.6-1.1c0.4-0.3,0.8-0.4,1.3-0.4c0.9,0,1.6,0.3,1.9,1l-0.6,0.4
					c-0.3-0.5-0.7-0.8-1.3-0.8c-0.3,0-0.5,0.1-0.8,0.2s-0.4,0.4-0.4,0.6c0,0.3,0.1,0.5,0.3,0.6c0.2,0.1,0.5,0.2,0.8,0.3
					c0.3,0.1,0.6,0.1,0.9,0.2c0.3,0.1,0.6,0.2,0.8,0.5c0.2,0.2,0.3,0.5,0.3,1c0,0.5-0.2,0.9-0.6,1.2c-0.4,0.3-0.8,0.4-1.4,0.4
					C572.9,387.2,572.2,386.8,571.8,386.1z"/>
			</g>
		</g>
		<g>
			<path class="bc8" d="M525.9,377.9c-3.2,0-5.8,2.6-5.8,5.8c0,3.2,2.6,5.8,5.8,5.8c3.2,0,5.8-2.6,5.8-5.8
				C531.7,380.5,529.1,377.9,525.9,377.9z M525.9,387.2c-1,0-1.8-0.4-2.5-1c-0.6-0.6-1-1.5-1-2.5c0-1,0.4-1.8,1-2.5
				c0.6-0.6,1.5-1,2.5-1c1,0,1.8,0.4,2.5,1c0.6,0.6,1,1.5,1,2.5c0,1-0.4,1.8-1,2.5C527.7,386.8,526.9,387.2,525.9,387.2z"/>
		</g>
	</g>
	<g>
		<g>
			<g class="bc0">
				<path class="bc3" d="M153.6,382.6v3.9c-0.9,0.5-1.9,0.7-3.1,0.7c-1.3,0-2.3-0.4-3.1-1.2c-0.8-0.8-1.2-1.9-1.2-3.1
					c0-1.3,0.4-2.3,1.2-3.1c0.8-0.8,1.8-1.2,3.1-1.2c1.2,0,2.2,0.4,3,1.1l-0.6,0.6c-0.2-0.3-0.6-0.6-1.1-0.7
					c-0.5-0.2-0.9-0.3-1.4-0.3c-1.1,0-1.9,0.3-2.6,1c-0.6,0.7-1,1.6-1,2.6c0,1.1,0.3,1.9,1,2.6c0.6,0.7,1.5,1,2.6,1
					c1,0,1.8-0.2,2.3-0.5v-2.8h-2v-0.7H153.6z"/>
			</g>
			<g class="bc0">
				<path class="bc3" d="M155.7,387.1v-3.9c0-0.1,0-0.4,0-0.8c0-0.4,0-0.6,0-0.7h0.7c0,0.6,0,0.9,0,0.9c0.4-0.7,1-1.1,1.7-1.1
					c0.1,0,0.3,0,0.4,0.1l-0.1,0.7c-0.1,0-0.2,0-0.3,0c-0.6,0-1,0.2-1.3,0.5c-0.3,0.4-0.4,0.8-0.4,1.4v2.9H155.7z"/>
			</g>
			<g class="bc0">
				<path class="bc3" d="M159.8,386.4c-0.5-0.5-0.8-1.2-0.8-2c0-0.8,0.3-1.5,0.8-2c0.5-0.5,1.2-0.8,2-0.8c0.8,0,1.5,0.3,2,0.8
					c0.5,0.5,0.8,1.2,0.8,2c0,0.8-0.3,1.5-0.8,2c-0.5,0.5-1.2,0.8-2,0.8C161,387.2,160.3,386.9,159.8,386.4z M160.3,382.8
					c-0.4,0.4-0.6,0.9-0.6,1.6c0,0.6,0.2,1.1,0.6,1.6c0.4,0.4,0.9,0.6,1.6,0.6s1.2-0.2,1.6-0.6c0.4-0.4,0.6-0.9,0.6-1.6
					c0-0.6-0.2-1.1-0.6-1.6c-0.4-0.4-0.9-0.6-1.6-0.6S160.7,382.4,160.3,382.8z"/>
				<path class="bc3" d="M165.6,386.1l0.6-0.4c0.1,0.3,0.4,0.5,0.6,0.7c0.3,0.2,0.6,0.2,0.9,0.2c0.3,0,0.6-0.1,0.9-0.3
					c0.2-0.2,0.4-0.4,0.4-0.7c0-0.3-0.1-0.5-0.3-0.6c-0.2-0.1-0.5-0.2-0.8-0.3c-0.3-0.1-0.6-0.1-0.9-0.2c-0.3-0.1-0.6-0.2-0.8-0.5
					c-0.2-0.2-0.3-0.5-0.3-0.9c0-0.5,0.2-0.9,0.6-1.1c0.4-0.3,0.8-0.4,1.3-0.4c0.9,0,1.6,0.3,1.9,1l-0.6,0.4
					c-0.3-0.5-0.7-0.8-1.3-0.8c-0.3,0-0.5,0.1-0.8,0.2c-0.2,0.2-0.4,0.4-0.4,0.6c0,0.3,0.1,0.5,0.3,0.6c0.2,0.1,0.5,0.2,0.8,0.3
					c0.3,0.1,0.6,0.1,0.9,0.2c0.3,0.1,0.6,0.2,0.8,0.5c0.2,0.2,0.3,0.5,0.3,1c0,0.5-0.2,0.9-0.6,1.2c-0.4,0.3-0.8,0.4-1.4,0.4
					C166.8,387.2,166.1,386.8,165.6,386.1z"/>
				<path class="bc3" d="M170.6,386.1l0.6-0.4c0.1,0.3,0.4,0.5,0.6,0.7c0.3,0.2,0.6,0.2,0.9,0.2c0.3,0,0.6-0.1,0.9-0.3
					c0.2-0.2,0.4-0.4,0.4-0.7c0-0.3-0.1-0.5-0.3-0.6c-0.2-0.1-0.5-0.2-0.8-0.3c-0.3-0.1-0.6-0.1-0.9-0.2c-0.3-0.1-0.6-0.2-0.8-0.5
					c-0.2-0.2-0.3-0.5-0.3-0.9c0-0.5,0.2-0.9,0.6-1.1c0.4-0.3,0.8-0.4,1.3-0.4c0.9,0,1.6,0.3,1.9,1l-0.6,0.4
					c-0.3-0.5-0.7-0.8-1.3-0.8c-0.3,0-0.5,0.1-0.8,0.2c-0.2,0.2-0.4,0.4-0.4,0.6c0,0.3,0.1,0.5,0.3,0.6c0.2,0.1,0.5,0.2,0.8,0.3
					c0.3,0.1,0.6,0.1,0.9,0.2c0.3,0.1,0.6,0.2,0.8,0.5c0.2,0.2,0.3,0.5,0.3,1c0,0.5-0.2,0.9-0.6,1.2c-0.4,0.3-0.8,0.4-1.4,0.4
					C171.8,387.2,171,386.8,170.6,386.1z"/>
				<path class="bc3" d="M179,386l0.7-0.5c0.4,0.7,1,1,1.9,1c0.5,0,1-0.1,1.3-0.4c0.4-0.3,0.5-0.7,0.5-1.2c0-0.4-0.1-0.7-0.3-0.9
					c-0.2-0.2-0.5-0.4-0.8-0.5c-0.3-0.1-0.7-0.2-1-0.4c-0.4-0.1-0.7-0.3-1-0.4c-0.3-0.1-0.6-0.4-0.8-0.7c-0.2-0.3-0.3-0.7-0.3-1.2
					c0-0.7,0.3-1.3,0.8-1.7c0.5-0.4,1.1-0.6,1.9-0.6c1,0,1.7,0.3,2.3,1l-0.7,0.5c-0.4-0.5-0.9-0.8-1.6-0.8c-0.5,0-1,0.1-1.3,0.4
					c-0.4,0.3-0.5,0.7-0.5,1.2c0,0.3,0.1,0.6,0.2,0.8c0.2,0.2,0.4,0.4,0.6,0.5c0.3,0.1,0.5,0.2,0.8,0.3c0.3,0.1,0.6,0.2,0.9,0.3
					c0.3,0.1,0.6,0.2,0.8,0.4c0.3,0.2,0.5,0.4,0.6,0.7c0.2,0.3,0.2,0.6,0.2,1.1c0,0.7-0.3,1.3-0.8,1.7c-0.5,0.4-1.1,0.6-1.8,0.6
					C180.4,387.3,179.5,386.9,179,386z"/>
				<path class="bc3" d="M190,383.5v1.3c0,1,0,1.7,0.1,2.3h-0.7c0-0.3-0.1-0.6-0.1-0.9h0c-0.4,0.7-1,1-1.9,1c-0.5,0-1-0.1-1.3-0.4
					c-0.4-0.3-0.6-0.7-0.6-1.2c0-1.2,1-1.8,3-1.8h0.8v-0.3c0-0.4-0.1-0.8-0.4-1c-0.3-0.2-0.6-0.3-1.1-0.3c-0.6,0-1.2,0.2-1.7,0.6
					l-0.4-0.5c0.2-0.2,0.6-0.4,0.9-0.6c0.4-0.1,0.8-0.2,1.1-0.2c0.7,0,1.2,0.2,1.6,0.5C189.8,382.3,190,382.8,190,383.5z
					 M189.3,384.3h-0.8c-0.7,0-1.2,0.1-1.7,0.3s-0.7,0.5-0.7,0.9c0,0.3,0.1,0.6,0.4,0.7c0.2,0.2,0.5,0.3,0.9,0.3
					c0.7,0,1.2-0.2,1.5-0.5c0.3-0.4,0.4-0.8,0.4-1.3V384.3z"/>
				<path class="bc3" d="M192,387.1v-8.8h0.7v8.8H192z"/>
				<path class="bc3" d="M198.9,385.6l0.5,0.4c-0.5,0.8-1.3,1.2-2.3,1.2c-0.8,0-1.5-0.3-2-0.8c-0.5-0.5-0.8-1.2-0.8-2.1
					c0-0.8,0.3-1.5,0.8-2c0.5-0.5,1.2-0.8,1.9-0.8c0.8,0,1.4,0.3,1.9,0.8c0.5,0.5,0.7,1.1,0.7,1.8v0.5h-4.5c0,0.1,0,0.3,0.1,0.4
					c0,0.2,0.1,0.3,0.2,0.5c0.1,0.2,0.2,0.4,0.4,0.5c0.1,0.2,0.3,0.3,0.6,0.4c0.2,0.1,0.5,0.2,0.8,0.2c0.4,0,0.7-0.1,1-0.3
					C198.5,386.1,198.7,385.9,198.9,385.6z M195.1,383.9h3.8c0-0.5-0.2-0.9-0.5-1.2c-0.4-0.3-0.8-0.5-1.3-0.5
					c-0.4,0-0.7,0.1-0.9,0.2c-0.3,0.2-0.5,0.3-0.6,0.5c-0.1,0.2-0.2,0.4-0.3,0.6C195.1,383.7,195.1,383.8,195.1,383.9z"/>
				<path class="bc3" d="M200.6,386.1l0.6-0.4c0.1,0.3,0.4,0.5,0.6,0.7c0.3,0.2,0.6,0.2,0.9,0.2c0.3,0,0.6-0.1,0.9-0.3
					c0.2-0.2,0.4-0.4,0.4-0.7c0-0.3-0.1-0.5-0.3-0.6c-0.2-0.1-0.5-0.2-0.8-0.3c-0.3-0.1-0.6-0.1-0.9-0.2c-0.3-0.1-0.6-0.2-0.8-0.5
					c-0.2-0.2-0.3-0.5-0.3-0.9c0-0.5,0.2-0.9,0.6-1.1c0.4-0.3,0.8-0.4,1.3-0.4c0.9,0,1.6,0.3,1.9,1l-0.6,0.4
					c-0.3-0.5-0.7-0.8-1.3-0.8c-0.3,0-0.5,0.1-0.8,0.2c-0.2,0.2-0.4,0.4-0.4,0.6c0,0.3,0.1,0.5,0.3,0.6c0.2,0.1,0.5,0.2,0.8,0.3
					c0.3,0.1,0.6,0.1,0.9,0.2c0.3,0.1,0.6,0.2,0.8,0.5c0.2,0.2,0.3,0.5,0.3,1c0,0.5-0.2,0.9-0.6,1.2c-0.4,0.3-0.8,0.4-1.4,0.4
					C201.7,387.2,201,386.8,200.6,386.1z"/>
				<path class="bc3" d="M205.3,387.3l3.6-8.9l0.6,0.2l-3.5,8.9L205.3,387.3z"/>
				<path class="bc3" d="M213.7,387.1v-8.3h2.2c2,0,2.9,0.7,2.9,2.2c0,1.2-0.7,2-2.1,2.1l2.4,4h-0.9l-2.3-3.9h-1.4v3.9H213.7z
					 M214.5,379.5v2.9h1.6c0.4,0,0.7,0,1-0.1c0.3-0.1,0.5-0.2,0.6-0.4c0.1-0.2,0.2-0.3,0.3-0.5c0.1-0.2,0.1-0.3,0.1-0.5
					c0-0.2,0-0.3-0.1-0.5c-0.1-0.2-0.1-0.3-0.3-0.5c-0.1-0.2-0.3-0.3-0.6-0.4c-0.3-0.1-0.6-0.1-1-0.1H214.5z"/>
				<path class="bc3" d="M224.7,385.6l0.5,0.4c-0.5,0.8-1.3,1.2-2.3,1.2c-0.8,0-1.5-0.3-2-0.8c-0.5-0.5-0.8-1.2-0.8-2.1
					c0-0.8,0.3-1.5,0.8-2c0.5-0.5,1.2-0.8,1.9-0.8c0.8,0,1.4,0.3,1.9,0.8c0.5,0.5,0.7,1.1,0.7,1.8v0.5h-4.5c0,0.1,0,0.3,0.1,0.4
					c0,0.2,0.1,0.3,0.2,0.5c0.1,0.2,0.2,0.4,0.4,0.5c0.1,0.2,0.3,0.3,0.6,0.4c0.2,0.1,0.5,0.2,0.8,0.2c0.4,0,0.7-0.1,1-0.3
					C224.3,386.1,224.6,385.9,224.7,385.6z M220.9,383.9h3.8c0-0.5-0.2-0.9-0.5-1.2c-0.4-0.3-0.8-0.5-1.3-0.5
					c-0.4,0-0.7,0.1-0.9,0.2c-0.3,0.2-0.5,0.3-0.6,0.5c-0.1,0.2-0.2,0.4-0.3,0.6C220.9,383.7,220.9,383.8,220.9,383.9z"/>
				<path class="bc3" d="M228.4,387.1l-2.2-5.4h0.8l1.8,4.6l1.8-4.6h0.7l-2.1,5.4H228.4z"/>
				<path class="bc3" d="M236.6,385.6l0.5,0.4c-0.5,0.8-1.3,1.2-2.3,1.2c-0.8,0-1.5-0.3-2-0.8c-0.5-0.5-0.8-1.2-0.8-2.1
					c0-0.8,0.3-1.5,0.8-2c0.5-0.5,1.2-0.8,1.9-0.8c0.8,0,1.4,0.3,1.9,0.8c0.5,0.5,0.7,1.1,0.7,1.8v0.5h-4.5c0,0.1,0,0.3,0.1,0.4
					c0,0.2,0.1,0.3,0.2,0.5c0.1,0.2,0.2,0.4,0.4,0.5c0.1,0.2,0.3,0.3,0.6,0.4c0.2,0.1,0.5,0.2,0.8,0.2c0.4,0,0.7-0.1,1-0.3
					C236.2,386.1,236.5,385.9,236.6,385.6z M232.8,383.9h3.8c0-0.5-0.2-0.9-0.5-1.2c-0.4-0.3-0.8-0.5-1.3-0.5
					c-0.4,0-0.7,0.1-0.9,0.2c-0.3,0.2-0.5,0.3-0.6,0.5c-0.1,0.2-0.2,0.4-0.3,0.6C232.8,383.7,232.8,383.8,232.8,383.9z"/>
				<path class="bc3" d="M238.9,387.1v-3.9c0-0.1,0-0.4,0-0.8c0-0.4,0-0.6,0-0.7h0.7c0,0.6,0,0.9,0,0.9h0c0.1-0.3,0.4-0.6,0.7-0.8
					c0.3-0.2,0.7-0.3,1.1-0.3c1.4,0,2.1,0.8,2.1,2.3v3.2h-0.7v-3.2c0-1.2-0.5-1.7-1.4-1.7c-0.5,0-1,0.2-1.3,0.6
					c-0.4,0.4-0.5,0.9-0.5,1.6v2.7H238.9z"/>
				<path class="bc3" d="M250,381.7v3.9c0,0.1,0,0.4,0,0.8c0,0.4,0,0.6,0,0.7h-0.7c0-0.6,0-0.9,0-0.9h0c-0.1,0.3-0.4,0.6-0.7,0.8
					c-0.3,0.2-0.7,0.3-1.1,0.3c-1.4,0-2.1-0.8-2.1-2.3v-3.2h0.7v3.2c0,1.2,0.5,1.7,1.4,1.7c0.5,0,1-0.2,1.3-0.6
					c0.4-0.4,0.5-0.9,0.5-1.6v-2.7H250z"/>
				<path class="bc3" d="M256.2,385.6l0.5,0.4c-0.5,0.8-1.3,1.2-2.3,1.2c-0.8,0-1.5-0.3-2-0.8c-0.5-0.5-0.8-1.2-0.8-2.1
					c0-0.8,0.3-1.5,0.8-2c0.5-0.5,1.2-0.8,1.9-0.8c0.8,0,1.4,0.3,1.9,0.8c0.5,0.5,0.7,1.1,0.7,1.8v0.5h-4.5c0,0.1,0,0.3,0.1,0.4
					c0,0.2,0.1,0.3,0.2,0.5c0.1,0.2,0.2,0.4,0.4,0.5c0.1,0.2,0.3,0.3,0.6,0.4c0.2,0.1,0.5,0.2,0.8,0.2c0.4,0,0.7-0.1,1-0.3
					C255.7,386.1,256,385.9,256.2,385.6z M252.3,383.9h3.8c0-0.5-0.2-0.9-0.5-1.2c-0.4-0.3-0.8-0.5-1.3-0.5c-0.4,0-0.7,0.1-0.9,0.2
					c-0.3,0.2-0.5,0.3-0.6,0.5c-0.1,0.2-0.2,0.4-0.3,0.6C252.3,383.7,252.3,383.8,252.3,383.9z"/>
			</g>
		</g>
		<g>
			<path class="bc7" d="M135.5,389.5c-3.2,0-5.8-2.6-5.8-5.8c0-3.2,2.6-5.8,5.8-5.8c3.2,0,5.8,2.6,5.8,5.8
				C141.3,386.9,138.7,389.5,135.5,389.5z M135.5,380.2c-1.9,0-3.5,1.6-3.5,3.5s1.6,3.5,3.5,3.5c1.9,0,3.5-1.6,3.5-3.5
				S137.4,380.2,135.5,380.2z"/>
		</g>
	</g>
</g>
<g>
	<g>
		<g>
			<g>
				<path class="bc10" d="M669.3,191.8h-85.4c-1.7,0-3.1,1.3-3.1,3.1v26c0,1.7,1.3,3.1,3.1,3.1h33.2c0.5,0,1,0.2,1.3,0.6l5.6,5.6
					c1.4,1.4,3.6,1.4,5,0l5.6-5.6c0.4-0.4,0.8-0.6,1.3-0.6h33.2c1.7,0,3.1-1.3,3.1-3.1v-26C672.4,193.2,670.9,191.8,669.3,191.8z"/>
			</g>
		</g>
	</g>
	<circle class="bc10" cx="627.6" cy="236.1" r="2.6"/>
	<text transform="matrix(1 0 0 1 594.7686 204.7681)"><tspan x="0" y="0" class="bc3 bc11 bc12">Save more with</tspan><tspan x="15.9" y="10.5" class="bc3 bc11 bc12">Kobster</tspan></text>
</g>
<g>
	<g class="bc0">
		<rect x="193.7" y="115.2" class="bc1" width="1.2" height="211"/>
	</g>
	<linearGradient id="SVGBCID_2_" gradientUnits="userSpaceOnUse" x1="166.7029" y1="371.2866" x2="166.7029" y2="326.3016">
		<stop  offset="0" style="stop-color:#DFE3ED;stop-opacity:0"/>
		<stop  offset="0.7275" style="stop-color:#DFE3ED;stop-opacity:0.7291"/>
		<stop  offset="0.8481" style="stop-color:#DFE3ED;stop-opacity:0.85"/>
		<stop  offset="1" style="stop-color:#DFE3ED"/>
	</linearGradient>
	<polygon class="bc13" points="57,326.3 5,368.9 282.2,371.3 328.4,326.3 	"/>
	<path class="bc7" d="M57,318.6v7.7h271.5l0.1-236.2L57,318.6z"/>
	<g>
		<text transform="matrix(1 0 0 1 168.5146 346.1768)" class="bc3 bc4 bc5">2017</text>
	</g>
	<g>
		<text transform="matrix(1 0 0 1 31.853 315.873)" class="bc3 bc4 bc6">10</text>
	</g>
	<g>
		<text transform="matrix(1 0 0 1 31.853 284.8682)" class="bc3 bc4 bc6">20</text>
	</g>
	<g>
		<text transform="matrix(1 0 0 1 31.853 253.8633)" class="bc3 bc4 bc6">30</text>
	</g>
	<g>
		<text transform="matrix(1 0 0 1 31.853 222.856)" class="bc3 bc4 bc6">40</text>
	</g>
	<g>
		<text transform="matrix(1 0 0 1 31.853 191.8511)" class="bc3 bc4 bc6">50</text>
	</g>
	<g>
		<text transform="matrix(1 0 0 1 31.853 160.8452)" class="bc3 bc4 bc6">60</text>
	</g>
	<g>
		<text transform="matrix(1 0 0 1 31.853 129.8408)" class="bc3 bc4 bc6">70</text>
	</g>
	<g>
		<text transform="matrix(0 -1 1 0 18.0371 260.1807)" class="bc3 bc4 bc6">INR Million</text>
	</g>
	<g>
		<g>
			<g>
				<path class="bc8" d="M309.5,185.9c-3.8,3.8-5.9,6-10,8.6c-5,3.2-10.5,8.2-15.5,14c-2.5,2.9-9,8.9-15.8,12.1
					c-4.1,1.9-7.6,3.1-14.1,7.8c-4.9,3.6-8.6,7.5-13.4,9.8c-4.9,2.4-10.5,7.2-15.3,10.8c-6.4,4.7-11.3,11.6-16.9,16.7
					c-2.1,1.9-4.2,3.6-6.6,4.9c-2.2,1.2-4.5,2-6.9,3.1c-3.2,1.6-3.9,1.8-7.4,5.7c-2.9,3.3-5.3,4-7.6,7.2c-1.3,1.4-3.8,3.4-5.6,4.6
					c-1.1,0.7-3.2,3.3-4.5,4.4c-2,1.5-13.1,12.7-21,20.3c2.9-1.8,5.9-3.4,9.2-4.7c7.7-3,16.5-7.6,24.1-9.1c7.3-1.6,13.2-5.5,21-8.5
					c10.2-4,15.6-4.5,22-5.7c10.6-2,21-7.7,25-10.6c8.1-5.9,16.8-10.5,24.6-13.1c6.3-2.1,9.7-4.2,15.8-7.9
					c12.7-7.8,28.1-9.6,37.8-13.5v-71.6C322.9,175.1,315.6,179.7,309.5,185.9z"/>
			</g>
		</g>
	</g>
	<g>
		<polygon class="bc9" points="57,326.3 328.4,326.3 328.4,207.7 57,318.5 		"/>
	</g>
	<g class="bc0">
		<polygon class="bc1" points="56.2,326.9 56.2,115 57.4,115 57.4,325.7 328.5,325.6 328.5,326.8 		"/>
	</g>
</g>
</svg>
