<?xml version="1.0" encoding="utf-8"?>
<!-- Generator: Adobe Illustrator 22.0.1, SVG Export Plug-In . SVG Version: 6.00 Build 0)  -->
<svg version="1.1" id="Layer_1" xmlns="http://www.w3.org/2000/svg" xmlns:xlink="http://www.w3.org/1999/xlink" x="0px" y="0px"
	 viewBox="0 0 1920 900" style="enable-background:new 0 0 1920 900;" xml:space="preserve">
<style type="text/css">
	.st0{opacity:0.4;}
	.st1{fill:url(#SVGID_1_);}
	.st2{opacity:0.9;}
	.st3{fill:#FCFCFC;}
	.st4{fill:#F4F5FA;}
	.st5{fill:#E4E7EF;}
	.st6{fill:#D8D8E2;}
	.st7{fill:#FFFFFF;}
	.st8{fill:none;stroke:#96BDFF;stroke-miterlimit:10;}
	.st9{fill:none;stroke:#FFFFFF;stroke-miterlimit:10;}
	.st10{fill:url(#SVGID_2_);}
	.st11{fill:url(#SVGID_3_);}
	.st12{opacity:0.5;fill:#E4E7EF;enable-background:new    ;}
	.st13{fill:#D3D7E5;}
	.st14{opacity:0.3;fill:#D3D7E5;enable-background:new    ;}
	.st15{opacity:0.7;fill:#F4F5FA;enable-background:new    ;}
	.st16{opacity:0.8;}
	.st17{fill:none;stroke:#356DD5;stroke-miterlimit:10;}
	.st18{fill:none;}
	.st19{opacity:0.1;fill:#062244;enable-background:new    ;}
	.st20{opacity:3.000000e-02;fill:#062244;enable-background:new    ;}
	.st21{fill:#4A4F70;}
	.st22{fill:#356DD5;}
	.st23{fill:#021B2D;}
	.st24{fill:#18345E;}
	.st25{fill:#09253D;}
	.st26{fill:#E7C189;}
	.st27{fill:#C40D3C;}
	.st28{fill:#9B815C;}
	.st29{fill:#EFEFEF;}
	.st30{fill:#E5E5E5;}
	.st31{fill:#27497C;}
	.st32{fill:#F4F4F4;}
	.st33{fill:#2B4F82;}
	.st34{fill:#FF4438;}
	.st35{fill:#C1A078;}
	.st36{fill:#D6D6D6;}
	.st37{fill:#062244;}
	.st38{fill:#EB0045;}
	.st39{fill:none;stroke:#5FEA50;stroke-miterlimit:10;}
	.st40{fill:#DCDEDF;}
	.st41{fill:url(#SVGID_4_);}
</style>
<g class="st0">
	
		<linearGradient id="SVGID_1_" gradientUnits="userSpaceOnUse" x1="1049.8005" y1="1055.4398" x2="901.2118" y2="212.7517" gradientTransform="matrix(1 0 0 -1 0 902)">
		<stop  offset="0" style="stop-color:#DFE3ED;stop-opacity:0"/>
		<stop  offset="0.8587" style="stop-color:#DFE3ED;stop-opacity:0.6011"/>
		<stop  offset="1" style="stop-color:#DFE3ED;stop-opacity:0.7"/>
	</linearGradient>
	<path class="st1" d="M3.1,0v143.4c0,235,201.7,436.1,475.6,470.5c2.1,0.4,4.5,0.5,6.6,0.7c38.8,4.5,38.1,5.4,77.3,5.4
		c159.3,0,354.6-11.6,492.4,12.1c84.8,14.5,164.4,44.3,245.6,69.6c100.7,31.5,205.5,56.1,312.9,59.3
		c107.1,3.3,217.7-16.3,306.5-67.3V0H3.1z"/>
</g>
<g class="st2">
	<g>
		<g>
			<rect x="897.8" y="208.4" class="st3" width="26.2" height="5.1"/>
			<polygon class="st4" points="1136.7,275.7 1136.7,231.5 1183,231.5 1183,266.1 1201.3,266.1 1201.3,257.1 1231,257.1 1231,275.7 
				1257.6,275.7 1272.2,261 1282.3,261 1282.3,296.1 1136.7,296.1 			"/>
			<polygon class="st4" points="986.8,218.7 995.5,218.7 995.5,208.4 1012.6,208.4 1012.6,223.4 1020.8,223.4 1020.8,228.1 
				1028.4,228.1 1028.4,252.7 986.8,252.7 			"/>
			<rect x="928.7" y="192.1" class="st5" width="16.5" height="40.9"/>
			<rect x="891.8" y="213.3" class="st4" width="36.9" height="82.8"/>
			<polygon class="st4" points="882,218 900.3,222.3 900.3,273.5 882,273.5 			"/>
			<polygon class="st4" points="637.8,275.7 652.5,275.7 652.5,227.8 677.6,227.8 677.6,265.4 717.1,265.4 717.1,256.7 755.8,256.7 
				755.8,234.8 790.7,234.8 790.7,257.1 822.9,257.1 822.9,212.2 849.5,212.2 849.5,228.8 849.5,296.1 637.8,296.1 			"/>
			<polygon class="st4" points="761.2,267.2 761.2,296.1 836.1,296.1 836.1,267.2 827.6,256.3 769.2,256.3 			"/>
			<polygon class="st3" points="769.2,255.6 760.5,266.5 819.6,266.5 827.6,255.6 			"/>
			<rect x="811.9" y="277.1" class="st6" width="4.3" height="4.3"/>
			<g>
				<path class="st7" d="M830.5,281.8h-5.1v-5.1h5.1V281.8z M826.1,281.1h3.6v-3.6h-3.6V281.1z"/>
			</g>
			<polygon class="st4" points="836.1,227 882,218 882,273.5 836.1,273.5 			"/>
			<rect x="873.2" y="234.8" class="st6" width="4" height="4"/>
			<g>
				<path class="st6" d="M891.4,239.1h-4.7v-4.7h4.7V239.1z M887.5,238.4h3.3v-3.3h-3.3V238.4z"/>
			</g>
			<circle class="st8" cx="960.9" cy="231.9" r="10.1"/>
			<rect x="945.2" y="192.5" class="st4" width="41.6" height="103.6"/>
			<polygon class="st5" points="900.7,295.4 900.7,281.8 910.1,274.2 910.1,295.4 			"/>
			<rect x="986.8" y="231.9" class="st4" width="28.4" height="64.2"/>
			<rect x="990.8" y="235.9" class="st7" width="4.3" height="4.3"/>
			<rect x="1028.4" y="207.3" class="st4" width="42.7" height="88.6"/>
			<polygon class="st3" points="1089.3,296.1 1028.7,296.1 1028.7,231 1042.3,222.7 1089.3,222.7 			"/>
			<polygon class="st4" points="1089.3,262.5 1122.1,247.8 1122.1,266.5 1161.9,275.3 1161.9,296.1 1089.3,296.1 			"/>
			<rect x="836.1" y="273.5" class="st3" width="64.2" height="22.6"/>
			<rect x="928.7" y="231.9" class="st4" width="32.9" height="34.4"/>
			<rect x="931.6" y="234.8" class="st9" width="2.5" height="2.5"/>
			<polygon class="st5" points="913.7,239.9 928.7,231.9 928.7,262.5 913.7,262.5 			"/>
			<rect x="910.1" y="261.8" class="st3" width="83.9" height="34.4"/>
			<polygon class="st5" points="1041.9,252.7 1028.4,252.7 1028.4,230.6 1041.9,222.7 			"/>
			<rect x="1015.2" y="252.7" class="st5" width="13.6" height="43.4"/>
			<rect x="1022.2" y="258.9" class="st6" width="2.5" height="2.5"/>
			<rect x="1022.2" y="267.5" class="st6" width="2.5" height="2.5"/>
			<rect x="1111.9" y="258.1" class="st7" width="3.6" height="4"/>
			<rect x="1111.9" y="262.8" class="st7" width="3.6" height="4"/>
		</g>
		<g>
			<g>
				<path class="st4" d="M1291.6,305.2H628.4V146.7h663.1V305.2z M637.5,296.1h644.9V155.9H637.5V296.1z"/>
			</g>
		</g>
	</g>
	
		<linearGradient id="SVGID_2_" gradientUnits="userSpaceOnUse" x1="301.2555" y1="685.829" x2="302.5883" y2="724.0426" gradientTransform="matrix(-1 0 0 -1 1486.14 898.8)">
		<stop  offset="0" style="stop-color:#F4F5FA;stop-opacity:0"/>
		<stop  offset="0.15" style="stop-color:#F4F5FA;stop-opacity:0.12"/>
		<stop  offset="0.46" style="stop-color:#F4F5FA;stop-opacity:0.42"/>
		<stop  offset="0.9" style="stop-color:#F4F5FA;stop-opacity:0.89"/>
		<stop  offset="1" style="stop-color:#F4F5FA"/>
	</linearGradient>
	<path class="st10" d="M1237.8,211.1h-118.3h-1.1c-5.1-1.4-5.1-3.6-5.1-5.1c-0.4-3.3,4.7-6.2,4.7-6.2c3.3-1.4,6.5-3.3,9.8-5.1
		c8.3-5.4,11.8-10.7,11.8-10.7c19.4-18.3,33.6,0,33.6,0c5.8,7.6,13.2,5.4,13.2,5.4c23-6.9,31.5,3.6,35.5,6.5
		c4,2.9,17.9,4.3,17.9,4.3s14.7,1.4,15,6.9c0,0,7.2,4-14.7,4L1237.8,211.1z"/>
	
		<linearGradient id="SVGID_3_" gradientUnits="userSpaceOnUse" x1="738.1026" y1="685.8425" x2="739.435" y2="724.0552" gradientTransform="matrix(-1 0 0 -1 1486.14 898.8)">
		<stop  offset="0" style="stop-color:#F4F5FA;stop-opacity:0"/>
		<stop  offset="0.15" style="stop-color:#F4F5FA;stop-opacity:0.12"/>
		<stop  offset="0.46" style="stop-color:#F4F5FA;stop-opacity:0.42"/>
		<stop  offset="0.9" style="stop-color:#F4F5FA;stop-opacity:0.89"/>
		<stop  offset="1" style="stop-color:#F4F5FA"/>
	</linearGradient>
	<path class="st11" d="M801.4,211.1H683.1h-1.4c-5.1-1.4-5.1-3.6-5.1-5.1c-0.4-3.3,4.7-6.2,4.7-6.2c3.3-1.4,6.5-3.3,9.8-5.1
		c8.3-5.4,11.8-10.7,11.8-10.7c19.4-18.3,33.6,0,33.6,0c5.8,7.6,13.2,5.4,13.2,5.4c23-6.9,31.5,3.6,35.5,6.5
		c4,2.9,17.9,4.3,17.9,4.3s14.7,1.4,15,6.9c0,0,7.2,4-14.7,4L801.4,211.1z"/>
</g>
<g>
	<path class="st4" d="M1690.7,362.3h-273c-10.3,0-19-8.5-19-19V190.8c0-10.3,8.5-19,19-19h273c10.3,0,19,8.5,19,19v152.5
		C1709.7,353.8,1701.1,362.3,1690.7,362.3z"/>
	<polygon class="st5" points="1533.7,188.1 1531.9,254.3 1591.4,254.9 1591.1,237.2 	"/>
	<polygon class="st5" points="1423.2,194.3 1421.2,255.8 1480.4,257.1 1478.6,193.6 	"/>
	<polygon class="st7" points="1423.6,193.6 1423.6,254.5 1481.8,254.5 1482.2,189.9 1429.4,189.9 	"/>
	<polygon class="st5" points="1420.3,193.6 1423.9,195.7 1431.3,189.4 1429.4,187.6 	"/>
	<g>
		<polygon class="st5" points="1440.4,208 1435,199.7 1436.2,199 1440.8,206 1445.3,201.2 1448.9,204.4 1454.3,200.6 1457.4,203.5 
			1461,199.9 1466.4,202.6 1469.2,200.3 1470.1,201.2 1466.8,204.2 1461.4,201.5 1457.4,205.3 1454.3,202.1 1448.5,206.2 
			1445.3,203 		"/>
	</g>
	<g>
		<rect x="1436.8" y="216.9" class="st5" width="36.5" height="1.3"/>
	</g>
	<g>
		<rect x="1431.7" y="225.6" class="st5" width="41.6" height="1.3"/>
	</g>
	<g>
		<rect x="1431.7" y="234.1" class="st5" width="41.6" height="1.3"/>
	</g>
	<g>
		<rect x="1431.7" y="243.5" class="st5" width="41.6" height="1.3"/>
	</g>
	<polygon class="st7" points="1533.7,188.1 1534.6,254 1586.9,252.2 1592.7,244 1592,187.2 	"/>
	<g>
		
			<rect x="1541.1" y="203" transform="matrix(0.9992 -3.907367e-02 3.907367e-02 0.9992 -6.7702 60.7959)" class="st5" width="21.7" height="1.3"/>
	</g>
	<g>
		
			<rect x="1541.3" y="210.2" transform="matrix(0.9998 -1.952789e-02 1.952789e-02 0.9998 -3.8209 30.3808)" class="st5" width="24.8" height="1.3"/>
	</g>
	<g>
		
			<rect x="1541.3" y="218.3" transform="matrix(0.9998 -1.952789e-02 1.952789e-02 0.9998 -3.9797 30.4)" class="st5" width="26.6" height="1.3"/>
	</g>
	<g>
		
			<rect x="1541.3" y="225.2" transform="matrix(0.9999 -1.269479e-02 1.269479e-02 0.9999 -2.7411 19.8568)" class="st5" width="42.9" height="1.3"/>
	</g>
	<g>
		
			<rect x="1541.3" y="232.8" transform="matrix(0.9999 -1.269479e-02 1.269479e-02 0.9999 -2.8376 19.8574)" class="st5" width="42.9" height="1.3"/>
	</g>
	<g>
		
			<rect x="1541.3" y="240.8" transform="matrix(0.9999 -1.269479e-02 1.269479e-02 0.9999 -2.9386 19.858)" class="st5" width="42.9" height="1.3"/>
	</g>
	<g>
		<path class="st5" d="M1578.8,216.9c-4,0-7.2-3.3-7.2-7.2s3.3-7.2,7.2-7.2s7.2,3.3,7.2,7.2C1586.4,213.5,1582.9,216.9,1578.8,216.9
			z M1578.8,203.3c-3.3,0-6,2.7-6,6c0,3.3,2.7,6,6,6s6-2.7,6-6C1584.7,206,1582,203.3,1578.8,203.3z"/>
	</g>
	<polygon class="st12" points="1586.9,252.2 1586.9,244 1592.7,244 	"/>
	<polygon class="st13" points="1425.7,295.6 1418.1,319.8 1439.8,326.2 1441.7,319.5 	"/>
	<polygon class="st7" points="1425.7,295.6 1419,319.8 1438.4,324.9 1441.3,322.5 1447.4,301.4 	"/>
	<g>
		
			<rect x="1430.6" y="299.3" transform="matrix(0.2422 -0.9702 0.9702 0.2422 789.8098 1618.2539)" class="st13" width="0.5" height="8.5"/>
	</g>
	<g>
		
			<rect x="1430.5" y="301.3" transform="matrix(0.2612 -0.9653 0.9653 0.2612 761.7023 1607.157)" class="st13" width="0.5" height="9.4"/>
	</g>
	<g>
		
			<rect x="1430.1" y="304.1" transform="matrix(0.2607 -0.9654 0.9654 0.2607 758.9061 1609.4939)" class="st13" width="0.5" height="10.3"/>
	</g>
	<g>
		
			<rect x="1432.1" y="304.4" transform="matrix(0.2678 -0.9635 0.9635 0.2678 747.6361 1608.9205)" class="st13" width="0.5" height="16.3"/>
	</g>
	<g>
		
			<rect x="1431.2" y="307" transform="matrix(0.2678 -0.9635 0.9635 0.2678 744.4599 1609.9792)" class="st13" width="0.5" height="16.3"/>
	</g>
	<g>
		
			<rect x="1430.3" y="309.9" transform="matrix(0.2678 -0.9635 0.9635 0.2678 741.0729 1611.2101)" class="st13" width="0.5" height="16.3"/>
	</g>
	<g>
		<path class="st13" d="M1440.2,311c-0.4,0-0.5,0-0.9,0c-1.4-0.4-2.4-2.2-2.2-3.6c0.4-0.5,0.5-1.3,1.4-1.8c0.5-0.4,1.4-0.5,2.2-0.4
			c1.4,0.4,2.4,2.2,2.2,3.6l0,0C1442.6,310.1,1441.3,311,1440.2,311z M1440.2,305.9c-0.4,0-0.5,0-1.3,0.4c-0.5,0.4-0.9,0.9-1.3,1.3
			c-0.4,1.3,0.4,2.4,1.4,2.7s2.4-0.4,2.7-1.4l0,0c0.4-1.3-0.4-2.4-1.4-2.7C1440.4,305.9,1440.4,305.9,1440.2,305.9z"/>
	</g>
	<polygon class="st14" points="1438.6,324.7 1439.3,321.6 1441.3,322.2 	"/>
	<polygon class="st13" points="1557.2,279.3 1554.5,304.6 1577.1,306.8 1577.9,299.9 	"/>
	<polygon class="st7" points="1557.2,279.3 1555.4,304.4 1575.3,305.5 1577.9,302.6 1579.7,281.1 	"/>
	<g>
		
			<rect x="1563.6" y="281.7" transform="matrix(4.916174e-02 -0.9988 0.9988 4.916174e-02 1201.3781 1833.8978)" class="st13" width="0.5" height="8.5"/>
	</g>
	<g>
		
			<rect x="1564.1" y="284.3" transform="matrix(6.873019e-02 -0.9976 0.9976 6.873019e-02 1168.5502 1829.7579)" class="st13" width="0.5" height="9.4"/>
	</g>
	<g>
		
			<rect x="1564.2" y="286.8" transform="matrix(6.818400e-02 -0.9977 0.9977 6.818400e-02 1166.557 1832.9377)" class="st13" width="0.5" height="10.3"/>
	</g>
	<g>
		
			<rect x="1566.8" y="286.9" transform="matrix(7.558023e-02 -0.9971 0.9971 7.558023e-02 1154.4641 1835.2612)" class="st13" width="0.5" height="16.3"/>
	</g>
	<g>
		
			<rect x="1566.6" y="289.7" transform="matrix(7.558523e-02 -0.9971 0.9971 7.558523e-02 1151.4808 1837.6678)" class="st13" width="0.5" height="16.3"/>
	</g>
	<g>
		
			<rect x="1566.1" y="292.7" transform="matrix(7.559319e-02 -0.9971 0.9971 7.559319e-02 1148.0013 1839.9808)" class="st13" width="0.5" height="16.3"/>
	</g>
	<g>
		<path class="st13" d="M1574.4,292c-0.4,0-0.5,0-0.9,0c-1.4,0-2.7-1.4-2.7-3.1c0-0.9,0.4-1.4,0.9-1.8c0.5-0.5,1.3-0.5,2.2-0.5
			c1.4,0,2.7,1.4,2.7,3.1l0,0C1576.6,290.5,1575.7,291.8,1574.4,292z M1573.3,286.9c-0.4,0-0.5,0.4-0.9,0.5
			c-0.5,0.4-0.5,0.9-0.9,1.4c0,1.3,0.9,2.4,2.2,2.4s2.4-0.9,2.4-2.2l0,0c0-1.3-0.9-2.4-2.2-2.4
			C1573.9,286.9,1573.5,286.9,1573.3,286.9z"/>
	</g>
	<polygon class="st14" points="1575.3,305.5 1575.7,302.6 1577.9,302.6 	"/>
	<polygon class="st13" points="1593.2,281.5 1594.5,306.4 1617.3,305.4 1616.8,298.3 	"/>
	<polygon class="st7" points="1593.2,281.5 1595.6,306.4 1615.5,304.4 1617.3,301 1615.5,279.3 	"/>
	<g>
		
			<rect x="1596.7" y="286.7" transform="matrix(0.9938 -0.1115 0.1115 0.9938 -22.0157 180.2927)" class="st13" width="8.5" height="0.5"/>
	</g>
	<g>
		
			<rect x="1597.1" y="289.3" transform="matrix(0.9958 -9.202152e-02 9.202152e-02 0.9958 -19.8463 148.628)" class="st13" width="9.4" height="0.5"/>
	</g>
	<g>
		
			<rect x="1597.2" y="292.3" transform="matrix(0.9957 -9.256726e-02 9.256726e-02 0.9957 -20.2042 149.5828)" class="st13" width="10.3" height="0.5"/>
	</g>
	<g>
		
			<rect x="1597.3" y="294.7" transform="matrix(0.9964 -8.518375e-02 8.518375e-02 0.9964 -19.2909 137.8262)" class="st13" width="16.3" height="0.5"/>
	</g>
	<g>
		
			<rect x="1597.6" y="297.4" transform="matrix(0.9964 -8.517881e-02 8.517881e-02 0.9964 -19.5193 137.8587)" class="st13" width="16.3" height="0.5"/>
	</g>
	<g>
		
			<rect x="1597.8" y="300.5" transform="matrix(0.9964 -8.517087e-02 8.517087e-02 0.9964 -19.7802 137.8728)" class="st13" width="16.3" height="0.5"/>
	</g>
	<g>
		<path class="st13" d="M1612.2,290.9c-0.4,0-0.5,0.4-0.9,0.4c-1.4,0-3.1-1.3-3.1-2.7c0-0.9,0.4-1.4,0.5-2.2
			c0.5-0.5,1.3-0.9,2.2-0.9c1.4,0,3.1,1.3,3.1,2.7l0,0C1614,289.3,1613.5,290.5,1612.2,290.9z M1610.4,286c-0.4,0-0.5,0.4-0.9,0.5
			c-0.4,0.5-0.5,0.9-0.5,1.4c0,1.3,1.3,2.2,2.4,2.2c1.3,0,2.2-1.3,2.2-2.4l0,0c0-1.3-1.3-2.2-2.4-2.2
			C1610.8,286,1610.4,286,1610.4,286z"/>
	</g>
	<polygon class="st14" points="1615.5,304.4 1615.3,301 1617.3,301 	"/>
	<polygon class="st13" points="1577,319.5 1576.2,344.8 1599.2,345.1 1599.2,338.3 	"/>
	<polygon class="st7" points="1577,319.5 1577.5,344.8 1597.4,343.9 1599.6,341 1599.6,319.1 	"/>
	<g>
		
			<rect x="1580.1" y="325.3" transform="matrix(0.9992 -4.066717e-02 4.066717e-02 0.9992 -11.9277 64.6993)" class="st13" width="8.5" height="0.5"/>
	</g>
	<g>
		
			<rect x="1580.1" y="328" transform="matrix(0.9998 -2.108104e-02 2.108104e-02 0.9998 -6.5675 33.4815)" class="st13" width="9.4" height="0.5"/>
	</g>
	<g>
		
			<rect x="1580.1" y="331" transform="matrix(0.9998 -2.161925e-02 2.161925e-02 0.9998 -6.7924 34.3491)" class="st13" width="10.3" height="0.5"/>
	</g>
	<g>
		
			<rect x="1579.9" y="333.8" transform="matrix(0.9999 -1.421623e-02 1.421623e-02 0.9999 -4.5881 22.6091)" class="st13" width="16.3" height="0.5"/>
	</g>
	<g>
		
			<rect x="1579.9" y="336.6" transform="matrix(0.9999 -1.421119e-02 1.421119e-02 0.9999 -4.6277 22.6013)" class="st13" width="16.3" height="0.5"/>
	</g>
	<g>
		
			<rect x="1579.9" y="339.4" transform="matrix(0.9999 -1.420311e-02 1.420311e-02 0.9999 -4.6637 22.5887)" class="st13" width="16.3" height="0.5"/>
	</g>
	<g>
		<path class="st13" d="M1595.4,330.3c-0.4,0-0.5,0-0.9,0c-1.4,0-3.1-1.3-3.1-3.1c0-0.9,0.4-1.4,0.9-2.2c0.5-0.5,1.3-0.9,2.2-0.9
			c1.4,0,3.1,1.3,3.1,3.1l0,0C1597.2,328.9,1596.5,330.1,1595.4,330.3z M1593.8,325.6c-0.4,0-0.5,0.4-0.9,0.5
			c-0.4,0.2-0.5,0.9-0.5,1.4c0,1.3,0.9,2.2,2.2,2.2s2.2-0.9,2.2-2.2l0,0c0-1.3-0.9-2.2-2.2-2.2
			C1594.1,325.6,1593.8,325.6,1593.8,325.6z"/>
	</g>
	<polygon class="st14" points="1597.4,343.9 1597.4,341 1599.6,341 	"/>
	<polygon class="st7" points="1480.4,277 1480.4,341.5 1535.9,341.2 1539.2,332.8 1540.4,276 	"/>
	<g>
		<path class="st5" d="M1499.4,305.4c-4,0-7.2-3.3-7.2-7.2c0-4,3.3-7.2,7.2-7.2c4,0,7.2,3.3,7.2,7.2
			C1506.2,302.3,1503.3,305.4,1499.4,305.4z M1499.4,292.7c-3.1,0-5.8,2.4-5.8,5.8c0,3.1,2.4,5.8,5.8,5.8c3.1,0,5.8-2.4,5.8-5.8
			C1505.1,295,1502.4,292.7,1499.4,292.7z"/>
	</g>
	<circle class="st5" cx="1520.7" cy="298.3" r="6.3"/>
	<g>
		
			<rect x="1487.7" y="314.4" transform="matrix(0.9999 -1.074247e-02 1.074247e-02 0.9999 -3.2983 16.1623)" class="st5" width="30.2" height="1.4"/>
	</g>
	<g>
		
			<rect x="1488" y="322" transform="matrix(1 -6.835458e-03 6.835458e-03 1 -2.1707 10.327)" class="st5" width="43.4" height="1.4"/>
	</g>
	<g>
		
			<rect x="1488.9" y="328.9" transform="matrix(0.9993 -3.809351e-02 3.809351e-02 0.9993 -11.4595 57.7664)" class="st5" width="42.5" height="1.4"/>
	</g>
	<polygon class="st13" points="1480,277 1480,343.3 1538.6,343.9 1539.2,332.8 1537.3,337 1535.9,341.2 1480.4,341.5 	"/>
	<rect x="1636.5" y="244.9" class="st5" width="58.2" height="67.1"/>
	<polygon class="st7" points="1694.7,302.8 1689.3,309.5 1636.5,309.5 1636.5,244.9 1694.7,244.9 	"/>
	<polygon class="st12" points="1689.3,309.5 1688.9,300.8 1694.7,300.8 1694.7,302.8 	"/>
	<g>
		
			<rect x="1644.2" y="250.9" transform="matrix(0.9993 -3.710278e-02 3.710278e-02 0.9993 -8.1916 61.6554)" class="st5" width="25.7" height="1.3"/>
	</g>
	<g>
		
			<rect x="1644" y="282" transform="matrix(0.9998 -1.757701e-02 1.757701e-02 0.9998 -4.7107 29.3139)" class="st5" width="42.5" height="1.3"/>
	</g>
	<g>
		
			<rect x="1644.2" y="297.2" transform="matrix(0.9999 -1.367078e-02 1.367078e-02 0.9999 -3.9161 22.7965)" class="st5" width="42.5" height="1.3"/>
	</g>
	<g>
		
			<rect x="1665" y="269.7" transform="matrix(8.795317e-03 -1 1 8.795317e-03 1360.2994 1953.7732)" class="st5" width="1.3" height="42"/>
	</g>
	<rect x="1643.3" y="260.3" class="st5" width="4.5" height="15.9"/>
	<rect x="1653.3" y="261.2" class="st5" width="4.5" height="15.4"/>
	<rect x="1662.9" y="268.1" class="st5" width="4" height="8.5"/>
	<rect x="1672.7" y="270.3" class="st5" width="4.2" height="6.3"/>
</g>
<g>
	<g>
		<g>
			<path class="st15" d="M398.7,545.6c-1.2,1.2-5.4-0.8-7-2.3c-1.2-1.9-3.9-5-5.4-7.4c-3.1-5-7.4-9.3-12.6-12.2
				c-15.7-7.8-31.6-0.8-48.1-0.8c-5,0.4-10.1-1.2-14.5-3.5c-3.1-1.9-5.4-4.3-7.8-7c-1.2-1.6-1.9-5-3.1-6.6
				c-2.7-3.5-8.1-1.2-12.6-1.2c-8.1,0.8-16.1,0-23.8-2.3c-3.1-0.8-6.2-1.6-3.5-4.7c3.1-1.9,6.6-3.1,10.5-3.9
				c5.8-1.9,11.8-3.5,18-3.9c10.9-1.6,22.3-1.2,33.2,0.8c8.1,1.9,14.9,7.8,22.7,10.1c5.8,1.6,11.8-0.8,17.3,0.4
				c8.5,1.9,18.4,3.5,25.4,9.3c7,7,10.5,16.9,10.1,27C398.3,537.9,398.7,545.3,398.7,545.6z"/>
		</g>
		<g class="st2">
			<path class="st4" d="M388.3,490.2c0-2.7,0-5.4,0.4-8.1c2.3-12.2-0.8-25-8.9-34.5c-3.1-3.1-6.2-4.7-7.4-9.3
				c-1.6-5.8-5-10.9-9.7-14.5c-7.4-5.8-17.6-9.3-24.2-16.5c-4.7-5-6.2-12.6-10.5-18c-5-6.6-12.6-10.9-20.7-12.6
				c-2.3-0.4-7.8-1.2-9.3,0.8c-4.3,3.5,1.2,14.5,3.1,18c9.3,17.6,21.1,34.1,34.5,48.9c2.7,2.7,5.4,5.4,8.5,7.8
				c0.8,0.8,1.6,0.8,1.9,1.9c2.3,3.1,1.9,8.5,4.3,12.2c4.7,7,13.8,8.9,20.7,13.8c1.9,1.6,3.5,1.9,3.9,4.7
				C374.5,484.8,387.9,506.7,388.3,490.2z"/>
		</g>
		<g class="st2">
			<path class="st4" d="M410.5,560.2c0.8,0.8,1.6,1.2,2.7,1.6c2.3,0.4,4.7,0.8,7,0.4c1.9,0,3.9-0.4,5.8-1.2c1.9-0.8,3.9-0.8,5.8-0.8
				c1.9,0,4.3-0.4,6.2-1.2c3.9-0.8,8.1-0.8,12.2,0c3.9,0.4,7.8,0,11.4,0.4c2.7,0.4,5.4,0.4,8.1,0c-0.4-1.9-5-2.7-6.6-3.9
				c-1.6-0.8-1.2-1.6-2.3-2.7c-3.1-2.3-8.1-0.8-11.8-2.7c-0.4,0-0.4-0.8-0.8-1.2c-1.9-0.8-4.3-1.6-6.6-1.2c-3.9,0-9.7,1.2-13.4-0.8
				c0,0,0-0.8-0.8-1.2c-1.6-0.4-2.7-0.4-4.3,0c-6.6,0.4-13,3.9-16.9,9.3C406.3,555.5,405.9,557.5,410.5,560.2z"/>
		</g>
		<g class="st2">
			<path class="st4" d="M399.5,529c-0.4-0.8-3.9-2.3-4.7-3.5c-0.4-1.6-1.6-3.1-2.7-4.3c-1.6-1.2-3.5-1.9-5-2.7
				c-1.9-0.8-3.5-1.9-4.7-3.1c-1.6-1.6-3.5-2.3-5.4-3.1c-3.5-1.2-6.6-5.4-8.9-7.8s-5.8-4.7-8.5-7.4c-1.6-1.9-3.9-3.9-6.2-5
				c-1.2,1.6,1.9,5.4,2.7,7.4c0.4,1.9,0,1.9,0,3.5c0.8,3.9,5.8,5.8,7.4,9.3c0,0.4-0.4,1.2,0,1.6c0.8,1.9,2.3,3.9,4.3,5.4
				c2.7,2.7,8.5,5.4,9.7,8.9c0,0.4-0.4,0.8-0.4,1.2c0,0.4,2.3,1.9,3.1,2.7c5.4,3.9,12.6,10.1,19.2,8.5
				C399.9,537.1,400.3,532.8,399.5,529z"/>
		</g>
		<g class="st2">
			<path class="st4" d="M416.8,541c4.3,2.7,9.7,4.3,14.9,3.9c3.1,0.4,6.6,0,9.3-1.2c0.4-0.4,1.2-0.8,1.6-1.2
				c1.9-0.8,3.9-1.2,6.2-0.8c5.4,0,10.9,0.4,16.5,0.8c3.9,0.8,7.8,1.2,11.8,0.8c2.7-0.4,1.2-1.2,0.4-2.3c-0.8-1.6,0.4-1.9,1.2-3.1
				c1.2-2.3-3.1-2.7-4.7-3.1c-3.1-0.8-6.6-1.2-9.7-1.9c-1.6,0-2.7-0.4-3.9-1.2c-0.4-0.4-0.8-1.2-1.2-1.6c-2.3-1.9-6.6-1.6-9.3-1.6
				c-5,0-10.1-0.4-14.9-1.2c-2.3-0.4-4.7,0-6.6,1.2c-2.7,0.8-5.4,2.3-7.8,3.9c-1.2,0.8-3.9,2.3-4.7,3.9
				C414.4,538.7,415.2,540.2,416.8,541z"/>
		</g>
		<g class="st2">
			<path class="st4" d="M409,546.4c1.6-13.8,9.3-23.5,18-33.2c6.6-7,18-9.3,27-10.5c7.4-0.8,20-2.3,26.6,0.8
				c-1.6,4.7-3.9,8.9-7.4,12.6c-2.7,3.9-6.6,3.1-11.4,5.4s-7.4,6.6-13.4,7.4c-8.9,1.6-20-1.6-28.1,3.5c-5,3.1-5.8,11.4-11.8,14.2
				L409,546.4z"/>
		</g>
		<g class="st2">
			<path class="st4" d="M411.7,518.3c9.3,0,18.4-4.7,23.5-12.6c5-8.1,17.3-6.2,23.8-13.4c1.9-2.7,4.3-5.4,6.6-7.8
				c5-3.1,10.1-5,16.1-6.6c6.6-3.1,45-24.2,32.8-30.8c-5.8-3.5-16.9-1.2-23.5-1.2h-16.5c-11.4,0-22.7,2.7-32.8,8.1
				c-5,2.7-10.1,5.4-15.3,7.4c-8.1,2.7-16.1,6.6-20.4,15.3c-5,10.9,1.2,25.8,0.8,37.6c0,2.3,1.9,3.9,3.9,3.9
				C411.3,518.3,411.3,518.3,411.7,518.3z"/>
		</g>
		<g class="st2">
			<path class="st4" d="M405.9,494.5c-2.7-3.5-3.9-8.1-3.5-12.6c0.8-10.9,5.4-21.1,13.4-28.9c10.5-12.2,26.6-16.1,36.8-28.1
				c10.3-12,23.8-8.1,37.6-7.4h14.5c1.9,0,9.3-1.2,10.5,0.4c3.5,3.5-8.9,10.1-12.2,12.6c-10.1,8.1-22.3,14.5-35.3,18
				c-3.1,0.8-5.8,2.3-8.5,4.3c-4.7,2.7-9.7,3.9-14.9,3.5c-6.6,0-15.3-1.9-18.4,5.4c-1.6,3.1-3.5,6.2-5.4,8.9
				c-6.6,9.3-5.4,19.6-12.2,27.7L405.9,494.5z"/>
		</g>
		<g class="st16">
			<path class="st4" d="M410.5,521.4c1.6-5.8-0.4-11.4-0.4-17.3s1.2-12.6,1.6-18.4c1.6-18.4-0.8-40.3,16.9-51.6
				c6.6-4.3,10.5-5.4,14.5-13c5.8-10.1,12.6-20,19.6-29.3c1.9-2.7,1.9-6.2,3.5-8.5s7-3.1,8.1-6.2c0.4-3.9-0.4-7.8-1.9-11.4
				c-2.7-4.3-7-2.7-12.6-1.6c-10.5,1.9-20.7,5.4-30.1,10.5c-8.5,4.7-12.6,11.4-19.6,18c-2.7,2.7-6.2,3.9-8.5,7
				c-4.7,6.6-6.6,14.9-5.4,22.7c1.9,18.4,2.7,36.1,2.7,54.7c0.4,10.9,1.6,21.5,3.9,32c0.8,3.5,1.9,11.8,5.4,13
				C408.6,522.6,409.8,523.7,410.5,521.4z"/>
		</g>
		<path class="st13" d="M400.3,570.3c0.4-7.4,0-14.9-0.8-22.3c-1.2-16.5-5-32.4-10.9-47.7c-1.6-3.9-3.5-8.1-5.4-12.2
			c-1.2-1.9-2.3-3.9-3.5-5.8c-1.2-1.9-2.3-3.5-3.5-5c-1.2-1.6-2.3-3.5-3.9-4.7c-1.6-1.6-2.7-3.1-3.9-4.3s-2.7-2.7-3.9-3.9
			c-1.6-1.2-2.7-2.3-3.9-3.1c-1.6-0.8-2.7-1.9-3.9-2.7l-3.9-2.3c-2.3-1.2-4.7-2.3-6.2-3.1l-5.8-2.3l0,0l5.8,1.9
			c1.9,0.8,3.9,1.6,6.2,3.1c1.2,0.8,2.3,1.2,3.9,1.9c1.6,0.8,2.7,1.6,3.9,2.7c1.6,0.8,2.7,1.9,4.3,3.1c1.6,1.2,2.7,2.3,4.3,3.9
			c1.6,1.2,2.7,2.7,3.9,4.3c1.6,1.6,2.7,3.1,3.9,4.7c1.2,1.6,2.3,3.5,3.5,5c1.2,1.9,2.3,3.9,3.5,5.4c1.9,3.9,3.9,8.1,5.4,12.2
			c1.6,4.3,3.1,8.1,4.3,12.6c1.2,4.3,2.3,8.5,3.1,12.6c0.8,3.9,1.6,8.1,1.9,12.2c0.4,3.9,0.8,7.4,1.2,10.5c1.2,13.4,1.6,25,1.6,25
			L400.3,570.3z"/>
		<path class="st13" d="M424.5,411.9c0,0-1.6,2.3-3.5,6.2c-1.2,1.9-2.3,4.7-3.5,7.4c-0.8,1.6-1.2,3.1-1.9,4.7
			c-0.8,1.9-1.2,3.5-1.9,5.4c-0.8,1.9-1.2,3.9-1.9,5.8c-0.4,1.9-1.2,4.3-1.6,6.2c-0.4,1.9-1.2,4.3-1.6,6.6c-0.4,2.3-0.8,4.7-1.2,7
			c-0.4,2.3-0.8,4.7-0.8,7.4c0,2.7-0.4,5-0.4,7.4c0,2.7,0,5,0,7.8l0.4,7.8c0.4,5,1.2,10.5,1.9,15.7c0.8,5,1.6,10.1,1.9,14.9
			c0.8,4.7,0.8,9.3,0.4,14.5c-0.4,4.3-1.6,8.5-3.1,12.6c-1.2,3.5-2.7,7-4.3,9.7c-1.6,2.7-2.7,9.3-3.9,11.4c-2.3,3.9-3.1,1.9-3.1,1.9
			l0,0l3.1-6.6c0.8-1.9,2.3-4.7,3.5-7.4c1.6-3.1,2.7-6.6,3.9-9.7c1.6-3.9,2.3-8.1,2.7-12.2c0.4-4.7,0-9.3-0.4-14.2
			c-0.4-4.7-1.2-9.7-1.9-14.9c-0.8-5-1.2-10.1-1.9-15.7c0-2.7-0.4-5-0.4-7.8s0-5,0-7.8c0-2.7,0.4-5,0.4-7.8c0-2.3,0.8-4.7,0.8-7.4
			c0.4-2.7,0.8-4.7,1.2-7c0.4-2.3,1.2-4.7,1.6-6.6c0.4-1.9,1.2-4.3,1.9-6.2c0.4-1.9,1.2-3.9,1.9-5.8c0.8-1.9,1.2-3.5,1.9-5
			s1.6-3.1,1.9-4.7c1.2-2.7,2.3-5.4,3.5-7.4C422.2,416.3,423.3,414.2,424.5,411.9L424.5,411.9z"/>
		<path class="st13" d="M446,437.8c0,0-1.2,0.4-3.5,1.2c-2.7,1.2-5.4,2.7-8.1,4.3c-3.9,2.3-7.4,5-10.5,8.1c-1.6,1.9-3.1,3.5-4.7,5.4
			c-1.6,1.9-3.1,4.3-4.3,6.6c-1.2,2.3-2.3,4.7-3.5,7c-0.4,1.2-0.8,2.3-1.2,3.5c-0.4,1.2-0.8,2.3-0.8,3.5l-0.8,3.5
			c0,1.2-0.4,2.3-0.4,3.5s-0.4,2.3-0.4,3.1c0,1.2,0,1.9,0,3.1c0,1.9,0,3.9,0,5.4c0,1.6,0,3.1,0,4.3c0,2.3,0,3.5,0,3.5l0,0
			c0,0,0-1.2-0.4-3.5c-0.4-1.6-0.4-2.7-0.4-4.3c0-1.9,0-3.5,0-5.4c0-1.2,0-1.9,0-3.1s0-2.3,0-3.1c0-2.3,0.8-4.7,1.2-7
			c0.4-1.2,0.8-2.3,1.2-3.5c0.4-1.2,0.8-2.3,1.2-3.5c0.8-2.3,1.9-4.7,3.5-7c1.2-2.3,2.7-4.3,4.3-6.6c1.6-1.9,3.1-3.9,5-5.4
			c3.1-3.1,6.6-5.8,10.5-8.1c2.7-1.6,5.4-3.1,8.5-4.3C444.5,438.2,446,437.8,446,437.8L446,437.8z"/>
		<path class="st13" d="M429.7,475.3c-0.8,0.4-1.2,0.8-1.9,1.2c-0.8,0.4-1.6,1.2-1.9,1.6c-0.8,0.8-1.6,1.6-2.3,2.3l-1.2,1.6
			c-0.4,0.4-0.8,1.2-1.2,1.6c-0.8,1.2-1.6,2.3-2.3,3.9c-0.8,1.6-1.6,2.7-1.9,4.3c-0.4,1.6-0.8,1.6-0.8,2.3c-0.4,0.8-0.4,1.6-0.8,2.3
			l-0.8,2.3c0,0.8-0.4,1.6-0.4,2.3l-0.4,2.3c0,0.8,0,1.6-0.4,2.3c0,1.6-0.4,3.1-0.8,4.3c0,1.6-0.4,2.7-0.4,3.9
			c-0.4,2.3-0.4,4.7-0.4,5.8c0,1.6,0,2.3,0,2.3l0,0c0,0,0-0.8,0-2.3c0-0.8,0-1.6,0-2.7c0-1.2,0-2.3,0-3.5s0-2.7,0.4-3.9
			c0.4-1.6,0.4-3.1,0.8-4.7c0-0.8,0-1.6,0.4-2.3c0.4-0.8,0.4-1.6,0.8-2.3c0-0.8,0.4-1.6,0.8-2.3l0.8-2.3c0.4-0.8,0.4-1.6,0.8-2.3
			l1.2-2.3c0.8-1.6,1.2-3.1,2.3-4.3c0.8-1.2,1.6-2.7,2.3-3.9c0.4-0.4,0.8-1.2,1.2-1.6c0.4-0.4,0.8-1.2,1.2-1.6
			c0.8-0.8,1.6-1.6,2.3-2.3c0.8-0.8,1.6-1.2,1.9-1.6C428.6,476,429.4,475.7,429.7,475.3L429.7,475.3z"/>
		<path class="st13" d="M452,520.2c-0.8-0.4-1.6-0.4-2.3-0.4s-1.6-0.4-2.7-0.4c-1.2,0-2.3,0-3.5,0c-1.6,0-2.7,0.4-3.9,0.8
			c-1.6,0.4-3.1,0.8-4.3,1.6L433,523l-1.2,0.4l-1.2,0.8l-1.9,1.2c-0.8,0.4-1.2,1.2-1.9,1.6l-1.9,1.6c-0.8,0.4-1.2,1.2-1.9,1.9
			c-0.4,0.8-1.2,1.2-1.9,1.6c-0.8,0.4-1.2,1.2-1.6,1.9c-0.4,0.4-1.9,2.3-3.1,3.5l-2.3,3.1c-0.8,0.8-1.6,1.9-1.9,2.7
			c-0.4,0.8-1.2,1.6-1.6,2.3l-1.2,1.9l0,0l1.2-1.9c0.4-0.8,0.8-1.6,1.2-2.3c0.4-1.2,1.2-1.9,1.9-3.1l2.3-3.5
			c0.8-1.2,1.9-2.3,3.1-3.5l1.6-1.9l1.9-1.6l1.9-1.9l1.9-1.6c0.8-0.4,1.2-1.2,1.9-1.6l2.3-1.2l1.2-0.8l1.2-0.4l2.3-1.2
			c1.6-0.4,2.7-1.2,4.3-1.2c1.2-0.4,2.7-0.4,4.3-0.8c1.2,0,2.3,0,3.5,0c0.8,0,1.9,0,2.7,0.4L452,520.2L452,520.2z"/>
		<path class="st13" d="M443.7,537.5c-0.4-0.4-0.8-0.8-0.8-0.8c-0.8-0.8-1.9-1.2-3.1-1.6c-0.8-0.4-1.6-0.4-2.3-0.4
			c-0.8,0-1.6-0.4-2.3-0.4h-2.7c-0.8,0-1.9,0.4-2.7,0.4s-1.9,0.4-2.7,0.4c-0.8,0-1.9,0.4-2.7,0.8c-1.6,0.4-3.1,0.8-4.7,1.2
			c-1.6,0.4-2.3,0.8-3.1,0.8l-1.2,0.4l0,0l1.2-0.4c0.4-0.4,0.8-0.4,1.2-0.8l1.9-0.8l1.9-0.8c0.8-0.4,1.6-0.4,2.3-0.8
			c0.8,0,1.9-0.4,2.7-0.4l2.7-0.4c0.8,0,1.9,0,2.7,0s1.9,0,2.7,0c0.8,0,1.6,0,2.7,0.4c0.8,0,1.6,0.4,2.3,0.8
			c1.2,0.4,1.9,0.8,3.1,1.6C442.9,537.1,443.3,537.1,443.7,537.5L443.7,537.5z"/>
		<path class="st13" d="M429.7,552c-1.2-0.4-2.7-0.8-3.9-1.2c-1.2-0.4-2.7-0.4-3.9-0.4c-1.6,0-3.1,0-4.7,0.4c-0.8,0-1.6,0.4-2.3,0.8
			c-0.8,0-1.6,0.4-2.3,0.8c-0.8,0.4-1.2,0.8-1.9,0.8c-0.8,0.4-1.2,0.4-1.6,0.8c-0.4,0.4-0.8,0.4-1.6,0.8c-0.4,0.4-0.8,0.4-1.2,0.8
			l-0.8,0.4l0,0l0.8-0.8l1.2-0.8c0.4-0.4,0.8-0.8,1.2-1.2c0.4-0.4,1.2-0.8,1.6-1.2c0.8-0.4,1.2-0.8,1.9-0.8c0.8-0.4,1.6-0.4,2.3-0.8
			l2.3-0.4c1.6,0,3.1,0,4.7,0c1.6,0,2.7,0.4,4.3,0.4C427.4,551.3,428.6,551.7,429.7,552L429.7,552z"/>
		<path class="st13" d="M362.9,487.5c0,0,2.3,0.4,5.4,0.8c1.6,0.4,3.5,0.8,5.4,1.6l3.1,1.2c1.2,0.4,1.9,1.2,3.1,1.6
			c1.2,0.4,1.9,1.2,2.7,1.6c0.8,0.4,1.9,1.2,2.7,1.9c0.8,0.8,1.6,1.6,1.9,1.9c0.4,0.8,1.2,1.6,1.6,1.9l1.2,1.9
			c0.4,0.4,0.4,1.2,0.8,1.6l0.4,1.6l0,0l-0.8-1.2c-0.4-0.4-0.4-0.8-0.8-1.6l-1.2-1.9c-0.4-0.8-1.2-1.2-1.6-1.9
			c-0.8-0.8-1.2-1.6-1.9-1.9c-0.8-0.8-1.6-1.2-2.3-1.9c-0.8-0.8-1.9-1.2-2.7-1.9c-0.8-0.4-1.9-1.2-2.7-1.6c-0.8-0.4-1.9-0.8-2.7-1.2
			c-1.9-0.8-3.9-1.2-5.4-1.6C366.3,488.3,364.8,487.9,362.9,487.5L362.9,487.5z"/>
		<path class="st13" d="M353,510.2c3.5,0,7,0.4,10.1,1.2c7.4,1.2,14.5,4.3,20.7,8.5c1.6,1.2,3.1,2.3,4.7,3.9s2.7,2.7,3.9,4.7
			c1.2,1.6,1.9,3.1,2.7,4.7s1.6,3.1,1.9,4.7s0.8,2.7,1.2,3.9c0.4,1.2,0.4,1.9,0.8,3.1c0.4,1.9,0.4,2.7,0.4,2.7l0,0
			c0,0,0-1.2-0.4-2.7c0-0.8-0.4-1.9-0.8-3.1c-0.4-1.2-0.8-2.3-1.6-3.9c-0.4-1.6-1.2-2.7-1.9-4.3c-0.8-1.6-1.9-3.1-2.7-4.7
			c-1.2-1.6-2.3-3.1-3.9-4.3c-1.6-1.6-2.7-2.7-4.3-3.9c-5.8-4.3-13-7.4-20.4-8.9C360.1,510.9,356.5,510.2,353,510.2L353,510.2z"/>
		<g class="st2">
			<path class="st4" d="M382,503.4c-10.5,0-26.2-10.5-34.9-18c-9.3-8.1-6.2-17.3-7.8-28.1c-1.9-15.3-21.5-29.7-4.7-45
				c11.4-9.7,7.4,10.5,8.1,18.4c1.6,14.2,7,27,15.7,38.4c6.6,8.1,23.8,18,23.1,30.1"/>
		</g>
	</g>
	<g>
		<path class="st4" d="M420.2,635.2h-44.6c-0.8,0-1.2-0.4-1.2-1.2l-7.4-57.6c-0.4-0.8,0.4-1.6,1.2-1.6H427c0.8,0,1.6,0.8,1.2,1.6
			l-6.2,57.6C421.4,634.8,421,635.2,420.2,635.2z"/>
	</g>
	<path class="st13" d="M428.2,577.4h-61.5c-1.2,0-1.9-0.8-1.9-1.9v-3.1h65.7v3.1C430.5,576.7,429.4,577.4,428.2,577.4z"/>
	<rect x="349.1" y="635.2" class="st4" width="96.9" height="2.1"/>
</g>
<line class="st17" x1="1175.6" y1="708" x2="1235.1" y2="708"/>
<line class="st18" x1="510.3" y1="373.7" x2="631.8" y2="373.7"/>
<g>
	<path class="st19" d="M1435.7,402.3c-2.5,0-15.6,0.9-35.6,0.4c-27.3-0.4,37.4,9.6,34,8.3c-5.1-1.6-10.1-1.6-15.2-1.6
		c-2.9,0-5.4,0.4-8,0.4s-8,0.4-15.2,0.9c-17.7-0.9-38.7-2.5-42.5-3.8c-5.4-1.6-10.9-1.6-16.5-1.6c-2.9,0-6,0.4-8.9,0.4
		c-10.1,0.4-107.1,6.7-116.9,5.4h-10.1c-12.7,1.3-61.7,1.3-79.4,0c-2.5,1.3-23.9-0.4-28.6,0c-3.4,0.4,15.9,7.1,29.5,11.8
		c6.3,0,30.2,1.3,34,2.2c4.2,0.9,8,2.5,11.8,3.8c24.8,9.2,55.9,19,81.6,19c18.5,0,29.5-8.3,47.4-8c2.9,0,6.3-0.4,9.6-1.6
		c10.5,0.4,21,0,31.1,0c33.6,0,19,16.5,30.8,16.8c12.7,0,41.6-5.1,53.4-7.6c8.9-1.6,17.2-7.6,26-7.6c5.1,0,74.7-13.4,79-15.6
		C1533.5,421.3,1451.6,402.3,1435.7,402.3z"/>
	<path class="st20" d="M1141.6,498.5c-2.9,0-19,0.9-43.8,0.4c-33.1-0.4,45.8,9.6,41.6,8.3c-6-1.6-12.1-1.6-18.5-1.6
		c-3.4,0-6.7,0.4-10.1,0.4c-2.9,0-9.6,0.4-18.5,0.9c-21.9-0.9-47.4-2.5-52.1-3.8c-6.7-1.6-13.4-1.6-20.1-1.6
		c-3.8,0-7.6,0.4-10.9,0.4c-6,0-26,4.2-57.2,5.4c-34,1.6-79.4,0.4-85.7-0.4h-12.1c-15.6,1.3-75.6,1.3-97.1,0
		c-3.4,1.3-28.9-0.4-35.3,0c-4.2,0.4,19.7,7.1,35.6,11.8c7.6,0,36.9,1.3,41.6,2.2c5.1,0.9,9.6,2.5,14.3,3.8c30.2,9.2,68,19,99.5,19
		c22.2,0,36.2-8.3,58.1-8c3.8,0,8-0.4,11.8-1.6c13,0.4,25.7,0,37.8,0c40.7,0,23.5,16.5,37.4,16.8c15.2,0,50.8-5.1,65.1-7.6
		c10.9-1.6,21-7.6,32-7.6c6,0,91.2-13.4,96.6-15.6C1261.3,517.5,1160.9,498.5,1141.6,498.5z"/>
	<path class="st19" d="M1122.6,877.5c21.9-1.3,156.6-11.8,168.4-10.5h12.1c15.6-1.3,75.6-1.3,97.1,0c3.4-1.3,28.9,0.4,35.3,0
		c4.2-0.4-19.7-7.1-35.6-11.8c-7.6,0-11.8-5.1-16.5-6c-5.1-0.9-9.6-2.5-14.3-3.8c-30.2-9.2-27.3-13-58.8-13
		c-22.2,0-102,6.7-123.9,6.3c-3.8,0-8,0.4-11.8,1.6c-13-0.4-25.7,0-37.8,0c-40.7,0-25.7-2.2-40-2.5c-15.2,0-58.8-2.5-89.9,2.5
		c-10.5,1.6-49.6,3.4-60.4,5.1c-24.4,3.8-52.1,6-41.2,8.9c24.8,8.9,92.1,20.6,110.9,20.6c2.9,0,19-0.9,43.8-0.4
		c27.7,0.4,45.4,1.3,52.5,2.2l6.7,0.9C1119.7,877.5,1121.3,877.5,1122.6,877.5z"/>
	<g>
		<g>
			<rect x="873.1" y="510.7" class="st21" width="35.6" height="1.3"/>
		</g>
		<g>
			<g class="st2">
				<polygon class="st22" points="978.9,500.7 978.6,500.7 978.9,498.5 950.4,482.6 950.4,482.1 979.8,498.2 				"/>
			</g>
			<g class="st2">
				<polygon class="st22" points="944.9,498.9 944.6,498.2 973.5,481.7 973.9,482.6 				"/>
			</g>
			<polygon class="st22" points="935.7,516.3 939.5,516.6 951.3,482.1 947.8,480.8 			"/>
			<polygon class="st22" points="988.7,516.6 984.4,516.6 972.2,480.8 975.5,480.1 			"/>
			<path class="st23" d="M912.2,466.2c0,0,11.4-69.3,31.5-69.8c13-1.3,26.4-1.6,39.4-0.4c6,0.4,10.9,3.8,13,9.2
				c9.2,18.5,15.2,38.2,18.5,58.4c0,1.3,0.9,2.5,1.3,3.8c0,0,1.6,2.9-0.4,4.2c-1.6-0.4-3.4,0-4.7,0.9c-2.5,1.3-40.7,32-88.3,4.7
				l-4.2-2.5c-1.3-0.9-2.5-1.6-3.8-2.2C915.1,472.9,908.8,472.9,912.2,466.2z"/>
			<path class="st24" d="M921.8,447.7c0,0,8.9-43.8,15.2-45.4c6.3-1.6,12.1-6,49.2-2.9c3.4,0.4,6,2.5,6.7,5.4
				c8,16.5,13.4,34,16.8,51.7c0,0,1.6,11.4-1.3,13l-11.8,5.1c0,0,4.7-1.3,2.9-13.9c-1.6-12.7-4.2-19.4-13.4-26
				c-9.2-6.3-18.1-8.9-20.6-13.4c-2.5-4.2-5.1-12.1-12.7-11.8c-7.6,0.4-13.4,2.2-17.2,13.4C936.4,423.8,926.8,445.5,921.8,447.7z"/>
		</g>
		<g>
			<path class="st24" d="M938.2,402.7c0,0,20.6,12.1,48.3-2.2c0,0,6.7,12.7,0.9,57.5c-6,45.4-2.9,87.7-2.9,87.7h-10.1l-10.5-119.4
				L948.4,547h-12.3C936.1,547.2,926.8,436.3,938.2,402.7z"/>
			<path class="st25" d="M978.9,540c0,0,3.4,5.1,6.3,6.7c5.1,2.9,3.8,7.1,0.9,8.3c-2.9,1.3-19,0-16.8-15.2
				C970.6,529.9,978.9,540,978.9,540z"/>
			<rect x="609.7" y="494.7" class="st23" width="241.1" height="144.2"/>
			<polygon class="st21" points="864.6,484.3 854.7,517.5 850.3,517.5 860.5,483 			"/>
			<path d="M983.2,490.6c0,0-1.6,8-3.8,9.2c-2.2,0.9-3.8,4.7-1.3,6c2.5,1.3,19,0,16.8-15.2C993.7,480.1,983.2,490.6,983.2,490.6z"/>
			<path class="st24" d="M823,374.6c0,0,11.4-16.8,28.9-21l21,16.5c0,0,16.8,5.4,18.1,32.4c0,0-7.1-2.2-19.4,5.1L823,374.6z"/>
			<path class="st26" d="M890.7,402.3c0,0,5.1,16.5,6,21.3c0.9,7.1,2.9,10.1,8.9,10.5l4.2,1.3l-20.1,14.3l-13-15.6l-4.2-27
				C871.9,407.4,882.7,400.7,890.7,402.3z"/>
			<path class="st23" d="M793.7,430.5c0,0-11.4-36.9,0-46.7c11.4-9.6,32.4-15.2,58.1,2.2c0,0,24.8,15.6,30.2,49.9
				c0,0,2.9,16.5,15.2,5.1c12.3-11.4,23.2-15.2,31.1-11.8c8,3.4,5.4,23.2-14.3,39.1c0,0-27.3,20.6-70.5,19.4
				C843.3,487.1,805.8,488.1,793.7,430.5z"/>
			<path class="st24" d="M733.7,455.7c0,0-6,6-21.3,6.7c0,0,8,76,7.1,80.7c-0.9,4.7-15.6,6.7-23.5,9.2c-5.1,1.3-16.8-0.9-16.8-0.9
				s-6-1.6-13.4,0.4c-10.9,3.4-21.3,14.7-19.7,43.8h203c0,0,18.5-17.7,14.3-45.4c0,0-7.6-23.5-8.9-32.7c-1.3-9.2,8-52.5-3.4-61
				c-10.1-8-5.4-5.4-49.2-0.9h-68V455.7z"/>
			<path class="st26" d="M852.5,350.2c0,0-1.3,4.7-1.3,6.3s0,6,10.9,9.2c10.1,2.9,6-1.3,9.2-5.1c0,0,7.1,4.2,9.2-1.6
				c2.9-7.6,4.7-23.5,4.7-23.5c2.2-12.7-1.3-14.3-16.8-13c0,0-9.6,0.4-13.4,7.6c-1.3,2.2-1.6,4.7-1.3,7.1
				C853.8,339.4,854.1,344.8,852.5,350.2z"/>
			<g>
				<path class="st27" d="M1209.2,499.8v-2.9c3.4,0,6-2.9,6-6c0-1.6-0.9-2.9-1.6-4.2c-1.3-1.3-2.5-1.6-4.2-1.6v-2.9
					c2.5,0,4.7,0.9,6.3,2.5s2.9,3.8,2.9,6.3C1218.1,495.6,1214.3,499.4,1209.2,499.8z"/>
			</g>
			<path class="st28" d="M1338.2,509c0,0,9.6-13,14.7-13.9c5.1-0.9,16.5,1.6,20.6,2.2c4.2,0.4,14.7,6.7,13,9.6
				S1338.2,509,1338.2,509z"/>
			<path class="st29" d="M1458.3,509.9h-100.8c-1.6,0-2.9-1.3-2.9-2.9l0,0c0-1.6,1.3-2.9,2.9-2.9h100.8c1.6,0,2.9,1.3,2.9,2.9l0,0
				C1461.2,508.7,1459.9,509.9,1458.3,509.9z"/>
			<path class="st30" d="M1074.8,675.5h-19.7l-1.3-125.5l0,0c12.1,0.9,17.2,27.7,17.2,39.4L1074.8,675.5z"/>
			<path class="st25" d="M1214.3,769.9c0,0,2.5,6.7,15.2,11.8c12.1,5.1,80.3,18.1,131.1-18.1c0,0,68-36.9,73.4-143.3
				c0,0,6.3-82.8-87-45.8c0,0-34,20.6-39.4,29.8L1214.3,769.9z"/>
			<path class="st23" d="M1016.4,470c0,0,0.4-4.2,13.4-5.1c0,0,17.7-3.8,22.6-6.3c5.1-2.5,24.4-10.9,26-14.7
				c2.2-3.8,1.6-15.2,13.9-27c12.1-11.8,20.1-31.1,25.7-36.2c5.4-5.1,13.9-13.9,19,1.6c5.1,15.6,10.9,39.1,9.6,49.2
				c-1.3,10.1,1.3,30.2-23.9,44.1c0,0-12.7,10.1-47.4,7.6c0,0-27,2.2-50.5-7.6C1024.7,476.3,1016.4,473.4,1016.4,470z"/>
			<path class="st25" d="M998.7,446.4c0,0-22.2,33.6-22.6,34c-0.4,0.4-6.7,7.1,0.9,10.1c7.6,2.9,21.9-15.6,21.9-15.6L998.7,446.4
				L998.7,446.4z"/>
			<path class="st25" d="M1027.2,753.6c0,0,6.7-1.3,7.1,19c0,7.1-0.4,13,0,18.1c0.4,5.1,0,12.1,0,12.1h-68.9l-1.6-21.9l6-19.7
				c0,0,14.7,2.2,19.4,1.6C994.1,762.8,1024,751.1,1027.2,753.6z"/>
			<g>
				<path class="st24" d="M1060,625.5c0-11.9-7.2-19-10.1-32c-2.9-13-22.3-12-29.3-13.3c-7.1-1.3-31.4-5.3-33.6-1.5
					c6.3,3.8,20.6,1.9,17.7,4.8s-9.6,4.2-10.9,5.1c-1.3,0.9-10.9,6.7-14.7,9.2c-0.7,0.5-1.6,0.9-2.9,0.9l-16.5,0.4
					c-17.9,0.4-21.3-10.5-21.3-10.5c0-0.2,0.5-2.8,1.1-5.5c-9,0.7-34.1,4.5-39.3,25.5c-6.3,25.1-14.3,41.6-14.7,42.9
					c-0.4,1.3-9.2,13,8.9,19.7c18.1,6.7,45.2,92.8,45.2,92.8s36.2,5.1,63.9-1.6c27.7-6.2,23.2,6.9,26-8.3l32-119.4
					C1061.6,634.8,1060,628.4,1060,625.5z"/>
				<path class="st26" d="M942,584.3c0,0-8,8.9,18.1,10.9c26,2.2,15.2-1.3,26.4-6c10.9-5.1-1.6-6.6,0.4-10.4
					c-6.3-3.8,0.6-11.1,0.6-32.6c0.7-23.2,1.6-38.4-4.4-35.5c-1.3,0.4-2.2,1.6-2.5,2.9c-1.3,2.9-3.8,9.6-3.8,18.1
					c0,10.5,5.4,29.5-4.7,36.5c-10.1,7.1-30.2,6.7-31.1,9.6c-0.4,1.2-0.9,3.4-1.4,5.4c2-0.2,3.2-0.2,3.2-0.2L942,584.3z"/>
				<path class="st24" d="M959.8,599.1l16.5-0.4c1.3,0,2.2-0.4,2.9-0.9c3.8-2.5,13.4-8.3,14.7-9.2c1.3-0.9,8-2.2,10.9-5.1
					s-11.4-1-17.7-4.8c-2,3.8,10.5,5.4-0.4,10.4c-11.2,4.7-0.4,8.1-26.4,6c-26-2-18.1-10.9-18.1-10.9l0.7-1.3c0,0-1.2,0-3.2,0.2
					c-0.6,2.7-1.1,5.2-1.1,5.5C938.4,588.6,941.9,599.5,959.8,599.1z"/>
			</g>
			<path class="st25" d="M936.4,541.1c0,0-1.6,7.6-3.8,9.2c-6.7,4.7-6.3,5.1-3.4,6.3c2.9,1.3,21,0,19-15.6
				C947.1,530.6,936.4,541.1,936.4,541.1z"/>
			<polygon class="st21" points="878.9,483 888.1,511.9 891.9,511.9 882.7,482.1 			"/>
			<polygon class="st21" points="889,480.1 911.7,525.9 917.3,525.9 893.2,478.5 			"/>
			<path class="st25" d="M929.7,638.9c0,0-1.6-2.5-2.5,2.9c-0.9,5.4-5.1,9.6-6,16.5c-0.9,6.7-2.2,19.7,8.3,18.1
				c10.5-1.6,17.7-7.1,31.1-1.3c13.4,6,26.4,1.3,27-3.8c0.4-5.1-28.6,2.5-41.2-8C934.1,652.7,934.4,644.7,929.7,638.9z"/>
			<path class="st25" d="M617.7,638.9c21-6,11.8-19,13-24.8c0.9-6.3,1.6-80.7,4.2-96.6c2.5-15.9-91.5-45.8-91.5-45.8
				s-39.1-14.3-53,7.1c0,0-10.1,14.7-2.9,54.3c0,0,6.7,34.9-6.7,74.7c0,0,0,0,0,0.4c-6,13.9,0,30.8,14.7,31.1L617.7,638.9z"/>
			<path class="st31" d="M583.2,441.4c0,0-16.8,2.5-20.6,5.4c-3.8,2.9-15.2,9.6-21.9,30.2c-6.7,20.6-9.2,25.7-11.4,28.9
				c-2.2,2.9-8.3,12.1-2.5,19.7c0,0,10.9,13,39.1,14.3c0,0,21.3-2.9,29.5-15.2c8-12.1,13.9-26.4,16.5-27c2.5-0.9,9.6,5.4,9.6,5.4
				s7.1-14.3,13.9-16.5l6-12.1c0,0-15.9-22.2-19.7-23.5C621.9,451.5,599.1,440.5,583.2,441.4z"/>
			<path class="st26" d="M622.2,502c0,0,12.1,10.1,24.8,9.6v-26.4l-8-8.3C639.4,476.7,620.6,496,622.2,502z"/>
			<path class="st32" d="M626,472.9c0,0-5.1-9.6,1.6-9.6h84.8l6,64.8l-71.5-1.6L626,472.9z"/>
			<path d="M663.5,631c0,0-0.9-1.6-0.9,8.9c0,10.5,9.2,12.7,8,25.7c-1.3,13-0.9,31.5-20.6,42.9c-19.7,11.4-23.5,62.9-31.5,66.7
				c-8,3.8-7.6,29.5-7.6,29.5h-16.6c0,0-6.3-28.9,6-53.7c11.8-24.8,2.5-55,19-71.5c15.9-16.5,8-16.8,13.4-41.6
				c5.4-25.1-5.1-47.4,14.7-60.1c20.1-12.7,36.5-17.2,47-12.1c10.9,5.1,16.8,20.6,16.8,20.6s7.6,19,8.3,24.8
				c1.6,11.8,0,10.9,0.9,28.6c0.9,17.7-4.7,35.3,7.6,43.8c23.2,15.9,17.2,62.6,17.2,62.6l-13.4-1.6l-49.2-51.7l0.4-53.7"/>
			<path class="st24" d="M605,804.8c0,0,12.1-32,12.1-38.2c0-6.3-1.6-49.9,3.8-55.9c5.4-6,43.8-25.1,43.8-25.1s45,7.1,51.7,8.9
				c7.1,1.3,16.8,4.2,15.9,19.7c-0.9,15.2,7.6,32.7,8.9,43.2c1.3,10.5,6,47.9,6,47.9H605V804.8z"/>
			<g>
				<path d="M970.1,262.8c-4.7-1.3-8.9,0.4-13.9,0c-5.1-0.4-8.3,3.8-12.1,6.7c-3.4,2.5-5.1,4.7-6,8.9c-1.3,6,0.4,7.1-2.2,13
					c-1.6,4.2-6,7.6-7.1,12.1c-1.6,5.4,1.3,11.4,0.4,17.2c0,1.3-0.9,2.9-2.2,2.9c0,0-10.9,1.6-8.3,12.7c2.5,10.5,2.2,17.7,7.1,20.6
					c5.1,2.9,31.1,5.4,39.1-3.4c8-8.9,22.6-19,25.1-26c2.5-7.1-2.9,2.2,3.4-9.6c4.2-8,3.4-19.7-2.9-23.2
					c-6.3-3.4,1.6-18.5-15.6-23.5C975.5,270.8,975.1,264.1,970.1,262.8z"/>
			</g>
			<path class="st31" d="M719.4,772c0,0-3.8-4.2-2.2-6.7s8.9-3.8,8.3-9.2c-0.4-5.4,1.6-5.1,3.8-6c2.2-0.9-3.4-4.7,0.9-6.7
				c4.3-2,8.3-0.4,9.6-3.4c1.3-3.1,7.6-23.5,23.9-54.6c6.7-12.7,10.5-23.2,21.3-29.8c10.9-6.3,28.9-8.9,28.9-8.9l72.7,1.3
				c0,0,48.7-3.4,59.7,44.5c0,0,6,8.9,8,27.7c0,0,8,4.2,7.1,21.9c0,0,5.1-3.4,11.8-0.9c6.3,2.5,6.7,2.2,6.7,4.7
				c-0.4,2.9-1.3,2.9,0,3.8c1.6,0.9,3.4,1.6,3.4,4.7s-1.3,3.8-0.4,5.4s0.4,5.1,0.4,5.4C983.1,766.3,719.4,772,719.4,772z"/>
			<path class="st28" d="M985.3,324.2c2.5-1.3,5.1,0.4,6,2.9c0.9,3.4,1.3,8.9,0.4,16.5c-2.2,12.7-4.2,22.6-0.4,20.1s29.8-8,31.5-7.1
				s6,6.7,11.4,7.6c5.4,0.9,10.1,0.4,7.6,2.5c-2.5,2.2-12.1,1.6-15.6-0.9c-3.4-2.5-4.2-5.1-10.5-1.6c-6.3,3.4-28.6,13.9-36.9,12.1
				c-8.3-1.8-4.7-1.3-3.4-7.1C976,363.6,973.2,329.6,985.3,324.2z"/>
			<path class="st33" d="M1252.1,259c0,0-21.3,0-21.3,22.6c0,11.8,13.4,82.3,14.3,87.4c0.9,5.1,19.4,44.1,36.9,44.1
				s40.3-19.4,71.1-19.4s11.8-14.7,8-21.9c-3.8-7.1-9.6-40.3-1.6-60.4c8-20.1,4.7-44.5-21-49.9C1317.6,256.5,1252.1,259,1252.1,259z
				"/>
			<path class="st26" d="M640.3,546.8c-5.1-0.4-19.4,3.8-34.4,2.2c-14.3-1.3-17.2-0.4-19.7,0c-2.5,0.4-8.9,0.9-10.9-3.4
				c-2.2-3.8-2.5-4.7-2.5-4.7s-13.9-17.7-15.9-34.4c0,0,13-11.8,30.8-6.7c0,0,9.2,17.2,6.3,25.7c0,0,0.9,2.5,5.4,2.5
				c4.7-0.4,27.3,3.8,37.8,5.4c0,0,11.4,0.4,15.6-0.9c4.2-0.9,16.5,6.3,22.6,9.2c6.2,2.9-11.8,7.1-20.6,4.7
				C647.9,545.2,640.3,546.8,640.3,546.8z"/>
			<path class="st28" d="M701.3,432.5c0,0,7.6,22.2,25.1,23.5c0,0,2.9,0.4,6-1.6c0,0,23.2-34.4,8.3-39.4c-15.2-5.1-25.1-8-27.3-6.7
				c-2.2,1.6-11.4,9.6-13,13.9C698.7,425.8,701.3,432.5,701.3,432.5z"/>
			<path class="st21" d="M813.4,462.4c0,0,15.6-8.9,17.7,0.9c2.2,9.6,6,23.5-18.5,45c0,0-26.4,10.5-31.1,15.6
				c-5.1,5.1-31.1,30.2-44.5,34.9c-13.4,4.7-20.6,10.9-33.6,5.1c0,0-2.5-3.4,11.8-5.4c0,0,25.1-7.1,34.9-20.1
				c9.6-13,22.6-49.9,41.6-60.1C810.5,467.8,813.4,462.4,813.4,462.4z"/>
			<path class="st28" d="M681.6,551.5c0,0,4.7-5.1,9.2-5.1c4.7,0,8.3,1.6,10.9,0.9c2.5-0.9,6-0.9,8.9-4.7c2.9-3.8,1.6-6.7,1.6-9.2
				c0-2.5-2.5-9.6-2.9-11.8c-1.6-10.5-4.2-18.5-3.8-27c0.9-8-1.3-17.7-1.3-22.2s2.2-10.9,8.3-10.1c0,0,10.5-0.4,10.9,12.7
				c0,0,0.4,16.8,0,22.2c-0.4,5.1,4.2,19.4,2.2,30.2c-2.2,10.9-0.9,23.2-1.6,23.5c-0.9,0.9-12.7,4.7-17.2,4.7
				c-4.2,0-15.2,0.9-18.5-0.4C684.8,554.1,681,554.4,681.6,551.5z"/>
			<path class="st25" d="M729.9,458.2c0,0-2.2,3.4-1.6,5.4c0.5,2,0.9,2.5,4.2,2.2c3.4-0.4,3.8,0.9,4.7,1.6c0.4,0.4,3.8,2.9,2.5,7.1
				c-1.3,4.2-3.4,7.6-5.4,10.5c-2.2,2.9-4.7,9.2-4.7,13.4s-2.5,10.1,1.3,17.2c3.8,7.1,8,8,11.4,6c3.4-2.5,3.4-4.7,2.9-6
				c-0.4-1.3-2.5,0.9-6.3,0.4c-3.4-0.4-6.3-1.3-6.3-5.4c0-4.7-0.9-9.2-0.9-11.8c0-2.5,0.4-7.6,3.8-10.9c3.4-2.9,9.2-10.1,10.5-17.2
				s3.4-13.4-2.5-15.2c0,0-2.9-0.9-7.1,2.5c0,0-4.7,1.6-6-0.9C731.5,456.9,730.2,457.3,729.9,458.2z"/>
			<g>
				
					<rect x="890.5" y="484.9" transform="matrix(0.5133 -0.8582 0.8582 0.5133 9.9078 1005.2739)" class="st21" width="1.6" height="18.1"/>
			</g>
			<g>
				<polygon class="st21" points="885.6,501.1 884.3,499.8 897.4,488.1 898.3,489.3 				"/>
			</g>
			<path class="st26" d="M1051.7,328c0,0,0,4.7,0,8.3c0,3.8,2.2,12.7,2.2,14.7c0,2.2,0.9,10.1,2.2,10.9c1.3,0.9,19.4-14.3,20.1-16.8
				c0.9-2.5,2.2-15.9,2.2-18.1c0-2.2,4.2-7.6-3.8-5.4C1066.9,323.8,1051.7,327.1,1051.7,328z"/>
			<path class="st26" d="M1071.4,366.7c0,0,1.6,4.2,1.3,6c0,1.6-1.6,5.4-1.6,7.6c0,1.6,0.4,7.6,6,3.4c5.4-4.2,11.8-12.7,15.2-13
				c2.9-0.4,6.3-0.9,5.1-2.9c-1.3-2.2-2.5-4.7-2.9-7.1c-0.9-5.1-1.3-8.9-0.4-15.6c0.4-3.8-2.2-19.4-8.9-15.9
				c-6.7,3.4-7.1,12.7-7.1,13.4C1076.8,342.6,1071.4,366.7,1071.4,366.7z"/>
			<path class="st26" d="M1012.6,399.4c0,0-6,0.4-7.6,1.3c-1.6,0.9-4.2,3.8-4.7,6c-0.4,2.2,0,4.2,1.3,3.8c1.3,0,18.5,0,18.5,0
				s2.5,0.4,2.5-2.9c0-3.4,2.2-4.2,2.2-4.2S1015.1,399.4,1012.6,399.4z"/>
			<path class="st24" d="M1010.4,400.3c0,0,0-2.2,0.4-2.5c0.9-0.4,9.6-6,11.4-6c1.8,0,23.2,2.9,24.8,2.9s9.6-4.2,10.9-5.4
				c1.3-1.3,5.1-7.1,7.1-8.3c1.6-1.3,7.1-6,7.1-6s-3.4,7.6,1.3,7.6c0,0,5.1,0,12.7-10.1c0,0,6.7-8.9,19-2.9c0,0,8.3,4.7,12.1,10.1
				c3.8,5.4,11.8,6.3,14.7,8.9s16.5,14.3,15.6,19.4c-0.9,5.4-3.4,7.6-2.9,8c0,0.4-3.8,18.5-17.2,18.5c0,0-4.7,0.9-12.7-4.7
				c0,0-10.9-6.7-21,2.2c0,0-17.7,16.5-25.1,19c0,0-10.9-6.7-10.9-11.4c0-4.2,2.9-3.4,4.2-8c1.3-4.7,3.4-19-7.6-23.5
				c0,0-17.7,0.9-19.7,0.4c-2.2-0.4-11.4-0.4-13.4-2.5C1019.6,404.5,1010.4,400.3,1010.4,400.3z"/>
			<path class="st24" d="M1059.6,439.4c0,0-10.9-4.7-21.9-6c-12.1-1.3-24.8-6-29.8,2.2c-5.1,7.6-9.2,9.6-9.6,11.8
				c-0.4,2.5-14.1,42.1-15.7,51.7c0,0,9.2,2.9,13-1.6c3.8-4.7,24.2-26.6,24.2-26.6s23.2-6.7,33.6-9.6c10.5-2.9,14.7-5.1,16.5-10.9
				c0.9-3.4,0.9-4.2,0.9-4.2l0,0L1059.6,439.4z"/>
			<polygon class="st21" points="1045.7,481.7 1025.2,527.5 1030.7,527.5 1051.3,482.6 			"/>
			<polygon class="st21" points="1057.4,483.3 1047.9,515.7 1052,513.2 1061.2,483.3 			"/>
			<polygon class="st21" points="1074.8,483.3 1086,530.9 1089.8,527.5 1080.2,483.3 			"/>
			<polygon class="st21" points="1101.6,483 1121.3,526.2 1127.3,528.4 1106.3,481.7 			"/>
			<g>
				<polygon class="st21" points="1118,508.7 1100,503.2 1107.9,492.6 1105.9,490.9 1097.1,502 1082.8,497.6 1081.9,500.7 
					1094.9,504.5 1086.6,515.7 1088.6,517.5 1098.3,505.6 1116.8,511.6 				"/>
				<polygon class="st21" points="1055.8,492.6 1048.2,496.9 1044.4,493.5 1043.7,494.7 1047,497.6 1040.8,501.1 1041.5,502.3 
					1048.2,498.9 1052.9,502.7 1054.2,502 1049.5,498.2 1056.7,493.8 				"/>
			</g>
			<path class="st34" d="M1035.2,387.7h18.5c0.4,0,0.9,0.4,0.9,0.9v15.2c0,0,0.9,10.5-8.9,10.9c0,0-10.9,1.6-10.9-9.2l-0.4-16.8
				C1034.5,388,1034.8,387.7,1035.2,387.7z"/>
			<g>
				<path class="st27" d="M1053.8,406.1l-0.4-1.6c3.4-0.9,5.1-2.5,4.2-6.3c-0.4-3.4-3.8-3.4-3.8-3.4v-1.6c1.6,0,5.1,0.9,5.4,4.7
					C1060,402.7,1058.4,405.2,1053.8,406.1z"/>
			</g>
			<path class="st26" d="M1056.2,400.7c0,0,1.6-3.4,4.7-3.4c2.5,0,6,1.3,8,1.3c2.2,0.4,3.8,2.2,4.7,4.2c0.4,2.2,3.8,7.1,2.2,8.9
				c-1.6,1.6-3.4,5.1-6.3,3.4c-2.9-2.2-8-3.8-9.2-6.3C1058.7,406.1,1054.9,402.7,1056.2,400.7z"/>
			<path class="st25" d="M1077.3,400.7c0,0,10.9-4.2,11.8-8c0.9-3.8,7.6,6.3,12.7,6.7C1106.6,399.8,1077.3,400.7,1077.3,400.7z"/>
			<path class="st25" d="M1073,414.4c0,0,14.7,4.2,21.9,4.2c7.6,0-20.6,2.2-23.9,12.1c-3.4,10.1-0.4,15.2,0.4,17.2
				c0.9,2.5-4.7,1.6-9.2-3.4c0,0-5.4-3.8-3.4-8c0,0,2.2-2.2,3.8-4.7c0,0,2.9-8,0.9-14.7c0,0-1.3-5.4-6-8.3c0,0-2.9-1.6-2.2-3.4
				c0.9-1.6,1.3-3.8,2.2-2.2c0.9,1.6,2.2,6,5.4,7.1c2.9,1.3,5.1,2.9,6,3.4C1068.8,414.4,1070.5,415.7,1073,414.4z"/>
			<path class="st27" d="M1052,390.9c0,0-1.6-1.6-2.2-1.3c0,0.4,0.4,5.1,0.4,5.1S1052.6,393.4,1052,390.9z"/>
			<path class="st27" d="M1052,394.3c0,0-1.6,2.2-1.6,2.9c0,0.9,0,3.8,0,5.1c0,1.3,0,1.3,0,1.3s-1.3,5.1-2.2,5.1
				c-0.9,0-1.3,0.4-1.3,0.4s2.2,0.9,2.9,0.4c0.9-0.4,4.2-2.5,3.8-6.7C1052.6,398.1,1054.2,393.4,1052,394.3z"/>
			<path class="st26" d="M742.9,759.9c0,0-21.3,3.8-25.7,15.6c-3.4,9.6-9.2,17.7-4.7,19.4c4.7,1.6,21.9,9.6,33.1,9.6
				c11.8,0,101.7-1.6,101.7-1.6l-2.5-15.2c0,0-69.8-24.8-81-27C755,759.4,746.1,759,742.9,759.9z"/>
			<path class="st26" d="M969.7,761.6c0,0,21.3,3.8,25.7,15.6c3.4,9.6,9.2,17.7,4.7,19.4c-4.7,1.6-21.9,9.6-33.1,9.6
				c-11.8,0-101.7-1.6-101.7-1.6l2.5-15.2c0,0,69.3-26.4,81-27C960.5,761.9,965.9,760.3,969.7,761.6z"/>
			<path class="st25" d="M955.4,751.4c0,0,1.6-4.7,10.1-5.1c8.5-0.4,10.5-1.6,11.4-0.9c0.9,0.9,1.6,3.8,0.4,4.2
				c-1.3,0.4-6.7-2.2-8.9-1.3C966.3,749.4,957.1,749.4,955.4,751.4z"/>
			<path class="st25" d="M963.7,755.6c0,0,4.2-3.4,10.1-2.9c6,0,6.7,0.4,6.7,1.6c0.4,1.6,0.9,1.6,0.4,2.5c-0.9,0.9-1.6-0.4-3.8-0.9
				C974.8,755.6,965.9,754,963.7,755.6z"/>
			<path class="st26" d="M815.6,609.4c0,0-3.4-0.4-3.8,1.3c-0.4,1.6,2.5,13,3.8,14.3c1.3,1.3,4.2,1.3,4.2,1.3l1.3,3.4l3.8,8.3
				l20.6-0.9c2.2,0.9,4.7,0.4,7.1-0.4l14.7,1.3l6.7-10.1l1.6-6.3c0,0,4.2,1.6,5.1-2.2c0.9-4.2,3.4-8.9,2.5-10.5
				c-0.9-1.6-0.4-5.4-4.7-5.1c0,0-6.7-21.3-32.7-19.7C845.3,584.6,817.6,585.9,815.6,609.4z"/>
			<path d="M873.5,628.4c0.9,0,20.6,25.1-25.1,59.7c-6.3,5.1-27.7-24.4-32.7-35.3c-1.3-2.9-2.2-6-1.6-9.2c0.9-9.2,7.1-13.9,7.1-13.9
				s2.5,5.1,7.1,6.3c3.4,0.9,8-2.5,13-2.2c2.2,0,4.7,2.9,6.7,2.9c2.2,0,3.4-2.9,5.1-2.9c3.8-0.4,8.3,2.9,12.1,1.6
				C868.4,635.1,871,630,873.5,628.4z"/>
			<path class="st26" d="M936.5,489.7c0,0-11.8,8.9-11.3,24.8c0.5,15.9,3.4,29.5,3.4,36.5c0,7.1,13.4,29.8,28.2,23.5
				c14.7-6.3,21.9-28.6,21.9-37.8s1.3-20.1,2.2-28.9c1.3-9.2-2.5-28.2-13.4-23.5C956.7,488.4,936.5,489.7,936.5,489.7z"/>
			<path d="M931.9,494.4c0,0,3.8-1.6,4.2,0.9s-2.5,10.1,5.1,8.3c7.6-2.2,19-11.8,26-10.1c7.1,1.6,9.2,8,7.1,26
				c-1.6,18.1,0,18.5-2.5,26c-2.5,7.6-3.8,15.9-11.8,11.4c-8-4.7-3.4-8.9-10.1-8.9c-6.3,0-5.1,2.2-10.1,0
				c-5.4-2.5-12.1-3.4-12.7,1.3c-0.4,4.7-0.9,13-0.9,17.7c0,4.7,0.4,15.9,15.9,17.2c15.6,1.3,25.7,2.5,31.5-7.1
				c6-9.6,7.6-11.4,6.7-24.8c-1.3-13-1.6-21.9,0-27.3c1.6-5.4,7.1-10.5,6.7-2.2c-0.3,7.4,1.6,17.3-0.3,17.3c-2.2,0-1.5,7.8-1.4,8.8
				c0.3,7.2-0.3,17.1,0.3,16.7c0.9-0.4,8.3-1,8.1-58.9c-1.6-5.1-1.6-29.8-29.8-29.5C964.7,477.6,940.2,476.3,931.9,494.4z"/>
			<path class="st25" d="M930.3,591.3c0,0-9.2-1.3-10.9,2.5c-2.2,4.2-9.2,12.1-3.8,13.9c5.4,1.8,22.2,4.7,28.9,3.4
				c6.7-1.3,27.7,0,44.1-15.2c0,0-13,12.1-31.5,6.7C939.5,598,932.3,594.8,930.3,591.3z"/>
			<rect x="501.2" y="803.2" class="st21" width="586.1" height="21"/>
			<path class="st35" d="M1110.1,543.9c0,0,10.9,19,12.1,21c1.3,2.2,16.5,4.7,18.1,8.9c1.6,4.7,23.2,58.8,23.2,58.8
				s2.5-29.8,2.2-31.5s-16.8-30.8-17.2-33.6s-3.4-6-13-6.7C1125.6,560.2,1113,540.1,1110.1,543.9z"/>
			<polygon class="st3" points="1054.6,455.3 1052,456 1140.7,648.5 1145.4,646 			"/>
			<path class="st30" d="M1052.9,461.6c0,0,13.4,47.9,28.6,85.2c0,0,42,81.6,52.1,93.3l6,6.7l1.6-1.3l-88.3-190.3l-2.2,0.9
				L1052.9,461.6z"/>
			<path class="st36" d="M1083.1,549.7l-15.9,17.2l2.9,32.7c0,0,4.2-10.9,4.7-13.9c0.5-3.1,18.1-17.7,18.1-17.7L1083.1,549.7z"/>
			<path class="st31" d="M1164.2,598.9l-7.6,21.9c0,0,17.7,34.9,21.9,34.9c4.2,0,45.4-28.9,47.4-33.1c0,0-0.4,9.6,5.1,16.5
				c5.4,6.7,14.7,14.7,13.9,16.8l-26,4.7c-0.9,0-0.4,3.8,0,4.2c3.8,3.4,13,10.1,20.1,10.9c8.9,1.3,58.8,1.6,65.1,1.6
				c6.7-0.4,8.9-4.2,11.4-14.3c2.5-10.1,15.6-54.6,7.1-66.4c-8.5-11.8-42.9,6-55,3.8c-12.1-2.2-42-8.9-48.3-1.6
				c-6.3,7.1-31.1,34-35.3,32.7C1180.3,629.7,1168.5,596.9,1164.2,598.9z"/>
			<path class="st25" d="M1241.6,638.9c0,0,37.8,2.2,42-0.9s17.7-19.7,18.1-17.7c0.4,2.2-5.4,13.4-5.4,18.5c0,5.1,0.9,10.9-0.4,13.4
				c-1.3,2.5,0,6.7-13,2.9C1270.2,651.4,1241.6,644,1241.6,638.9z"/>
			<path d="M1119.3,838.4c3.8-0.9,7.6,0.9,10.1,3.4c5.1,5.1-0.9,10.9-4.2,12.7c-6.7,3.4-2.2-2.2-7.1,0.9c-4.9,3.1-10.1,8.9-22.6,8.3
				c-7.1-0.4-13-6.3-10.1-10.1c5.1-5.4,13.9-3.8,18.1-7.6C1109.5,841,1115.5,838.8,1119.3,838.4z"/>
			<path d="M1168,872.1c0.4-0.4,0,1.6,1.3,1.6c2.5,0,3.4-1.6,6.7-6c1.6-2.2,0.9-7.1-0.9-8.9c-2.9-2.9-3.4-8.9-7.1-7.6
				c-4.2,1.3-5.1-1.3-16.5,11.4c-4.2,4.7-11.4,7.6-15.9,13.9c-2.9,4.2,1.6,7.1,9.2,6.7C1144.5,882.9,1149.5,883.8,1168,872.1z"/>
			<path class="st35" d="M1115.9,841.9l27.3-66l17.2,16.8c0,0-20.6,25.7-23.9,30.2c-3.4,4.7-10.5,16.8-10.5,16.8
				S1121.3,847.3,1115.9,841.9z"/>
			<path class="st35" d="M1165.4,815.8l-2.9,42c0,1.6,1.3,3.4,2.9,2.9c1.3,0,2.5-0.4,2.9-1.3c0.4-1.6,16.5-34,16.5-34L1165.4,815.8z
				"/>
			<path class="st25" d="M1145.7,766.6c0,0-0.9,0-1.6,2.9c-0.7,2.9-3.4,4.7-3.4,6.7c0,2,5.1,6,6.7,9.2c1.6,3.4,10.9,11.8,13,10.9
				c2.2-0.9,5.1-2.2,4.7-6.3c-0.4-4.2-2.9-6.3-8.3-12.1C1151.1,772.4,1147,765.7,1145.7,766.6z"/>
			<path class="st25" d="M1146.6,768.2c0,0,26-62.9,29.5-65.5c3.4-2.2,7.1-2.9,13.9-2.5c6.9,0.4,65.5,1.6,66.7,1.6
				s6.3,33.1,6.3,33.1l-28.6,15.6l-71.1,38.2L1146.6,768.2z"/>
			<path class="st31" d="M1262.6,732.6c0,0-76.9-3.8-82.3,8.3c-6,12.1-15.2,57.5-15.2,68c0,0,21.9,11.4,23.5,9.2s11.4-30.2,13-49.2
				c0,0,37.4,4.7,58.1-16.8C1259.7,753.2,1270.5,745.6,1262.6,732.6z"/>
			<path class="st24" d="M1383,572c0,0,27.3-10.1,39.1,19.4c0,0,6.7,17.7,0,21c0,0-6-12.1-15.9-21.3c-4.2-3.8-6.7-6-14.7-9.2
				C1384.3,578.9,1372.2,576.3,1383,572z"/>
			<path class="st24" d="M1278.5,691.4c0,0-4.7,0.9-2.9,2.5c1.8,1.6,27.3,18.5,71.5,29.8c0,0,5.1,0.4,4.2,0
				c-0.9-0.4-30.8-14.7-34-18.1C1312.1,701.1,1298.2,688.8,1278.5,691.4z"/>
			<path class="st24" d="M1355.7,758.7c-62.9,36.5-124.3,19.7-124.3,19.7s-2.9-1.6,4.2-2.5c7.1-0.9,23.5-4.2,31.1-21.3
				c0,0,1.6-8,13.9-2.9c12.1,5.1,21.9,16.5,51.2,12.1c1.3,0,2.2-0.4,2.9-0.9C1341.1,760.3,1366.8,752,1355.7,758.7z"/>
			<path class="st21" d="M1223.5,778.7l-36.9,81c0,0,0,6.7,8.3,0l36.5-77.2C1231.5,782.2,1230.2,780.9,1223.5,778.7z"/>
			<path class="st21" d="M1271.8,784.7l-20.6,85.2c0,0,0,6.7,4.7,2.9c5.1-3.8,4.7-8,5.4-9.2c0.9-1.3,20.6-77.2,20.6-77.2
				L1271.8,784.7z"/>
			<polygon class="st21" points="1222.6,794.7 1259.1,843.9 1260,837.5 1224.2,791.4 			"/>
			<path class="st21" d="M1206.7,825l62.9-18.5l-2.2,6l-58.8,17.2c-1.6,0.4-3.4-0.4-4.2-1.6C1204.1,827,1204.5,825.8,1206.7,825z"/>
			<path class="st21" d="M1310.9,783.8l15.9,55.9c0,0,3.4,0,8,0.4l-18.1-60.1L1310.9,783.8z"/>
			<path class="st21" d="M1330.2,777.1l31.1,68.6c0,0,7.1,19.7,14.7,19.7c7.1,0,0.9-8.9,0-10.1s-38.7-81.6-38.7-81.6L1330.2,777.1z"
				/>
			<polygon class="st21" points="1349.9,812.7 1337.8,805.7 1343.3,800.6 1341.1,798.1 1334.8,803.5 1319.7,794.3 1317.6,797.2 
				1331.9,806.1 1323.5,813.3 1325.5,816.2 1335.3,807.7 1348.3,815.8 			"/>
			<path class="st24" d="M1322.3,604c0,0,52.5-15.2,43.2,3.4c-9.2,18.5-26,37.4-26,70.2c0,32.7-9.6,43.2,19,43.2s36.5-7.1,39.4-36.9
				c2.9-29.8,8-90.8-19.4-92.1C1351.6,590.1,1360.8,578.9,1322.3,604z"/>
			<path class="st24" d="M947.8,322.2c0,0-15.6,0.9-15.2,1.6c0.4,0.9,4.7,6,5.4,7.1c1.6,4.7,0,15.2-4.2,18.1c0,0,1.6,9.6,6,19.7
				c4.2,10.1-5.1,36.9-5.1,36.9s25.1,13,55.5,0.9c0,0-12.1-23.5-6.7-36.5c5.1-13,1.3-20.6-1.3-34c-1.6-8.9,6.7-12.1,5.4-12.7
				c-0.4,0-1.6-0.4-12.7-1.3"/>
			<path class="st28" d="M933.2,323.3c0,0-2.5,0.9-3.8,3.4c-1.3,2.5-7.6,15.2-10.5,24.8c-3.4,10.9-6.7,18.5-7.1,24.4
				c-0.4,6,4.7,28.2,4.7,30.8s-2.5,3.8-2.5,5.1c-0.9,4.7,6.7,4.2,10.1,2.9c2.2-0.9,1.3-2.5,1.3-3.4c-0.4-2.5-2.9-2.5-3.4-7.6
				c-0.4-5.1-0.4-18.1-1.3-27.3c0,0,0.4-2.2,2.2-4.7c2.2-2.5,11.8-19.4,13.9-22.6c2.2-3.8,5.4-5.4,4.2-11.8
				C939.5,330.9,935.7,322.9,933.2,323.3z"/>
			<path class="st28" d="M957.1,311.5c0,0-0.9,10.5-3.8,11.8c-2.9,1.3,7.1,18.1,9.2,18.5c2.2,0.4,8-13,7.6-15.9
				c-0.9-3.4-8-2.9-6.3-13.9h-6.7V311.5z"/>
			<path class="st37" d="M1151.1,280c2.2,3.4,23.9,4.2,34.4,15.6c10.5,11.4-2.2,36.9,0.9,59.7c3.1,22.8,42,16.5,52.1,12.7
				s12.7,1.3,19.7,4.2c7.1,2.9,4.2,32.4,3.8,39.4c-0.9,7.1-24.4,6.3-39.1,4.7c-6-0.9-20.6,5.4-48.7,0.4c-30.2-6-32.4-49.9-30.2-69.3
				c2.2-19.4-9.6-23.9-17.2-44.5c-7.6-20.6,28.9-36.9,28.9-36.9S1148.6,275.9,1151.1,280z"/>
			<path class="st34" d="M1181,446.8l27-15.6l10.9,19.7c0,0,2.9,9.2-8.3,14.3l-24.8-10.1L1181,446.8z"/>
			<path class="st27" d="M1184.4,453.1l28.2,10.9c0,0,0.4,3.4-0.9,7.1c-1.6,3.8-3.4,8-3.4,8l-30.2-0.9c0,0-1.6-2.9-1.3-5.4
				C1177.2,470.3,1184.4,453.1,1184.4,453.1z"/>
			<g>
				<path d="M1294.1,237.2c4.7-1.3,8.9,0.4,13.9,0c4.7,0,8.3,3.8,12.1,6.7c3.4,2.5,5.1,4.7,6,8.9c1.3,6-0.4,7.1,2.2,13
					c1.6,4.2,6,7.6,7.1,12.1c1.6,5.4-1.3,11.4-0.4,17.2c0,1.3,0.9,2.9,2.2,2.9c0,0,10.9,1.6,8.3,12.7c-2.5,10.5-2.2,17.7-7.1,20.6
					c-5.1,2.9-31.1,5.4-39.1-3.4c-8-8.9-21.9-6-24.8-13c-2.5-7.1,11.8-8.9,5.4-20.1c-4.2-8-6.3-16.5,0-19.7c6.3-3.4-8-23.9,9.2-29.5
					C1288.3,245.1,1289,238.4,1294.1,237.2z"/>
			</g>
			<path class="st3" d="M1194.4,457c0,0-0.9,1.3-2.2,2.2s-2.9,2.9-1.6,4.2c0.9,1.3,5.1-2.2,6.7-1.3c1.6,0.9,0,0.9-0.9,3.8
				c-0.9,2.9-0.9,6,2.2,5.1c2.9-0.9,4.2-1.6,4.7-5.1c0.4-3.4,2.2-1.6,2.9-1.3c0.9,0,2.9,0.9,0.9,2.9c-1.6,2.2-7.6,4.2-6.7,7.1
				c0.9,2.9,5.1,5.1,6,2.2c1.3-2.9,2.5-8,3.4-8s1.3,4.7,2.2,5.1c0.9,0.4,3.8,1.3,3.8-2.2c0-3.4,0-6-1.3-6.7
				c-0.6-0.2-3.4-1.6-4.2-1.6C1209.6,463,1194.4,457,1194.4,457z"/>
			<path class="st34" d="M1178.1,479.2l0.4,19.7c0,0,0.4,9.6,16.5,10.1c0,0,13,0.9,14.7-9.6v-21.3h-31.5L1178.1,479.2L1178.1,479.2z
				"/>
			<path class="st27" d="M1206.3,481.7c0,0-1.6-0.9-2.5,0.9c-1.3,1.6-5.1,4.7-5.1,9.6c0,5.1-2.2,9.6-3.8,10.1
				c-1.6,0-11.4,0-10.9,1.3c0.4,1.3,8,4.7,12.7,3.8c5.1-0.9,9.6-3.4,9.6-9.2V481.7z"/>
			<g>
				<path class="st27" d="M1176.5,472.1c-2.2-0.9-3.8-2.5-4.7-4.2c-0.9-2.2-1.3-4.2-0.4-6.3s2.5-3.8,4.2-4.7c2.2-0.9,4.2-0.9,6.3,0
					l0,0c-0.4,1.3-1.6,2.5-3.4,2.5c-0.9,0-1.3,0-2.2,0.4c-1.3,0.4-2.2,1.6-2.9,2.9c-0.4,1.3-0.4,2.5,0,3.8c0.4,0.4,0.4,0.9,0.9,1.6
					C1176.8,468.7,1177.2,470.3,1176.5,472.1L1176.5,472.1z"/>
			</g>
			<g>
				<path class="st27" d="M1218.1,449.3L1218.1,449.3c-0.9-1.3-0.4-2.9,0.4-4.2c0.4-0.4,0.9-1.3,1.3-2.2c0.4-1.3,0.4-2.9,0-3.8
					c-0.9-1.3-1.6-2.2-3.4-2.2c-0.9,0-1.6,0-2.5,0c-1.6,0.4-2.9-0.4-3.8-1.6l0,0c2.2-1.3,4.7-1.6,6.7-1.3c2.5,0.4,4.2,1.6,5.4,3.8
					c1.3,2.2,1.3,4.2,0.4,6.7C1221.9,446.1,1220.1,448.1,1218.1,449.3z"/>
			</g>
			<path class="st34" d="M1205.8,484.3c0,0-2.2-0.9-1.6,1.6c0.4,2.5,0.9,11.4,1.6,7.1C1205.8,492.2,1206.7,485.2,1205.8,484.3z"/>
			<path class="st34" d="M1202.5,490.6c0,0,0.9,4.7-0.4,6.7c-1.3,2.2-2.2,3.8-0.9,5.1c0.9,1.6,3.4,0.4,3.4-0.9
				c0-1.3-0.4-7.1-0.9-8.9C1202.9,490.6,1202,490.2,1202.5,490.6z"/>
			<path class="st27" d="M1207.6,436.9c0,0-0.9,0.4-0.4,1.3c0.4,0.9,2.5,7.6,5.1,9.6c2.5,2.2,3.4,2.2,2.5,0.4
				c-0.9-1.8-4.2-5.1-4.7-6.7C1209.6,440.1,1208.9,436.9,1207.6,436.9z"/>
			<path class="st27" d="M1213.4,449.3c0,0-1.3-0.9-1.3,0s1.3,4.2,1.6,4.7c0.4,0.4,2.2,0,2.2-1.3
				C1215.9,451.9,1213.7,449.3,1213.4,449.3z"/>
			<path class="st3" d="M1218.8,475c0,0-1.3,0-1.3,1.3s0.9,3.8,1.6,4.7c0.9,0.9,2.5,1.3,2.9,0.4c0.4-0.9,0-1.3-0.9-2.9
				C1220.6,476.7,1219.3,474.7,1218.8,475z"/>
			<path class="st3" d="M1220.6,463.6c0,0-3.4-0.4-3.4,0c0,0.4,2.9,2.5,3.8,2.9c0.9,0.4,4.2,1.6,4.7-0.4
				C1226.4,464.2,1221,463.6,1220.6,463.6z"/>
			<path class="st24" d="M1201.3,332.1c0,0,7.1,2.2,9.6,19c0.4,2.9,7.1,8.3,10.1,12.7c3.1,4.3,6,9.2,6,10.1s-38.2,21.3-41.6-3.8
				c-3.4-25.1-13.4-33.1-7.6-36.2C1184.1,330.9,1201.3,332.1,1201.3,332.1z"/>
			<path class="st33" d="M1190.9,352.1c0,0-0.9,1.3-0.4,3.4c0.4,2.2,5.1,9.2,13.4,6.7c0.4,0,0.4-0.4,0.9-0.4
				c0.9-0.9,2.9-2.5,2.5-4.2C1205.9,355.9,1198.9,362,1190.9,352.1z"/>
			<path class="st38" d="M1217.5,317.8l13-0.9c0.4,0,0.4,0,0.9,0.4c0.4,2.2,1.3,9.2,1.3,10.1c0,0,0.4,8-6.3,9.2c0,0-7.1,0.9-8-6.7
				c-0.4-5.4-0.9-10.1-1.3-11.4C1216.8,318.4,1217.2,317.8,1217.5,317.8z"/>
			<path class="st35" d="M1219.7,333c0,0,2.2-0.4,4.2,0.4c2.2,0.9,4.7-1.6,5.4-2.9c1.3-1.3,2.9-4.2,3.4-2.2
				c0.4,2.2-0.4,9.6-2.9,10.5c-2.5,0.9-7.1,3.4-8.9-0.4C1219.3,334.3,1217.5,333.9,1219.7,333z"/>
			<path class="st35" d="M1221,338.1l-10.1,13.9c0,0,8.3,11.3,8.9,11.3c0.4,0,7.2-15.9,5.9-23C1224.8,333,1221,338.1,1221,338.1z"/>
			<path class="st33" d="M1180.6,373.4c-0.9-0.9-2.2,0-1.6,0.9c0,0.9,0.4,2.2,1.3,3.4c1.6,3.8,10.9,22.6,36.9,21.9
				c0,0,19.4-3.4,22.6-0.4c3.4,2.5,11.8,14.3,14.3,8.3c2.5-6,2.2-20.1,0-21.9s-5.1-2.9-9.6-1.3c-5.1,2.2-27.3,10.9-42,6.7
				C1193.3,388.4,1193.7,386.8,1180.6,373.4z"/>
			<path class="st28" d="M1299.1,287.6c0,0-0.4,8.3-1.6,10.5c-1.6,1.6-5.4,4.2-9.6,4.7c0,0,3.8,6.7,7.6,8.3c1.6,0.9,6,3.8,10.9,4.2
				c6.3,0,11.4-5.4,12.1-8.3c2.2-5.1,0.4-6,0.4-6s-7.1-1.3-7.6-2.9c-0.4-1.6-2.2-8-1.6-9.6h-10.5V287.6z"/>
			<path class="st24" d="M1318.8,300.3c0,0,10.9-0.9,12.1-0.4c1.3,0.4,6.3,1.6,8.3,7.1c1.6,5.4,6.7,15.6,7.1,20.1
				c0.4,4.7-12.1,27.3-14.7,28.2c-2.5,0.9-49.9,3.4-49.9,3.4s-21-8.3-21-13.9c0-5.6,2.9-19.4,3.4-22.2c0.4-2.9-2.2-22.2,6.7-22.2
				c8.9,0,21.3,0.9,21.3,0.9s-0.9,3.8,5.4,6.7C1303.6,310.8,1316.3,309.9,1318.8,300.3z"/>
			<path class="st25" d="M1278.5,317.1c0-0.4-0.9-0.9-1.3-0.4c-0.9,1.6-2.5,4.7-2.9,8c-0.9,5.4-2.5,13.9-2.2,14.3
				c0.4,0.4,16.8,14.3,16.8,14.3s3.4,2.9,2.9-5.1c0-8.3-4.7-11.4-6.7-18.1C1283.2,324.2,1279.8,328.9,1278.5,317.1z"/>
			<path class="st25" d="M1334,313.3c0,0-1.6-2.2-1.6,1.6c0,3.8-0.4,13-2.5,17.7c-2.2,4.7-2.9,12.7-1.3,13.4
				c1.6,0.9,9.6-14.3,9.6-16.8C1338.2,326.7,1334,313.3,1334,313.3z"/>
			<path class="st25" d="M1281.9,358.7c0,0-2.2,1.6-1.3,5.4c0.9,5.1,15.2,23.9,15.9,28.2c0.9,4.2,6.3,18.5,7.1,21.3
				c1.3,2.9,9.2,8.3,9.2,8.3l10.5-14.3c0,0-5.4-23.9-6.7-27c0,0,11.4,2.9,11.8,5.4s1.6,14.3,1.6,14.3l17.7-8.3
				c0,0,0.9-16.5-1.3-19.7c-2.2-3.8-7.1-4.2-8-4.7c-0.9-0.5-23.5-12.1-23.5-12.1L1281.9,358.7z"/>
			<path class="st39" d="M1374.4,394c0,0-2.2,2.9-1.3,6.7s6.7,8.9,6.3,15.2c-0.4,6.3,0.4,10.5,2.5,11.4c0,0,4.7-11.8,8-14.7
				c0,0,1.3-1.6-2.2-4.2C1384,406.1,1374.4,399.8,1374.4,394z"/>
			<path class="st31" d="M1357.5,390.9c0,0-27-0.4-29.8,6c-2.9,6.3-21.3,17.2-21.9,23.9c-0.4,6.3-11.4,26-12.7,31.5
				s-14.7,15.2-14.3,27.3c0.4,11.8,5.1,10.9,7.1,15.9c2.2,5.1,14.7,11.4,27.7,13.4c13,1.6,27.7-0.4,28.9-0.9
				c1.3-0.5,12.7-12.7,12.7-13c0-0.4,95.3-27.7,95.3-27.7s-0.9-40-2.2-45.4s-3.8-17.2-11.8-19.4c-8.3-2.2-23.9-14.3-23.9-14.3
				L1357.5,390.9z"/>
			<path class="st25" d="M1344.9,431.8c0,0-10.9,10.9-13.4,13s-6,3.4-6.7,8.9c-0.9,5.4-3.8,15.9-10.9,18.1c-6.7,2.2-4.7,6.3,0,8.3
				c4.7,2.2,19.4,6.7,22.2,10.9c2.9,4.2,17.7,2.5,20.6,2.9c2.9,0.4-3.4-9.6-3.4-11.4c0-1.6-17.2-3.4-19.7-4.7
				c-2.5-1.3-10.1-2.9-6-10.1c4.2-7.1,12.7-12.1,14.7-23.9S1344.9,431.8,1344.9,431.8z"/>
			<path class="st24" d="M1411.6,406.1c0,0,2.5,1.3,2.9,7.6c0.4,6.3,9.2,6.7,10.1,11.4c0.4,4.2,0.9,4.7-15.2,4.2
				c-15.9-0.4-24.4,3.8-22.2-2.2c2.2-6,2.9-9.2,7.6-10.1C1398.6,415.7,1410,412.8,1411.6,406.1z"/>
			<path class="st21" d="M1512,528.4h-333c-1.3,0-2.5-1.3-2.5-2.5v-13c0-1.3,1.3-2.5,2.5-2.5h333.2c1.3,0,2.5,1.3,2.5,2.5v13
				C1514.6,527.1,1513.3,528.4,1512,528.4z"/>
			<path class="st26" d="M654.2,463.3c0,0,3.4-12.7,23.9-11.4c0,0,9.6,1.3,8.3,5.4c0,0-0.4,2.5-1.6,5.1c-1.3,2.5-2.9,8-6.3,8.3
				c-3.4,0.4-8.3,1.6-9.6,1.6c-1.3,0-3.4,0-2.9-4.2c0-1.3,0.4-2.5,0.4-3.4s-0.9-1.6-2.2-1.6h-9.9V463.3z"/>
			<path class="st26" d="M602.2,430.5c0,0-5.1,7.6-11.8,10.1c0,0-7.1,0.4-8.3,2.2c-1.3,1.3-5.1,5.4-4.2,8.3
				c0.9,2.9,7.1,4.7,10.9,9.6c3.4,5.1,15.2,11.8,12.1,36.2c0,0,8.3-11.8,8.9-14.7c0.4-2.9-0.4-17.7,0.9-22.6
				c1.3-5.1,1.6-8.9,2.5-9.6c0,0,0.9,0,2.5,1.3c1.6,1.3,20.6,8.9,30.2-10.1c0,0,8.9-18.5,10.1-22.2c1.3-3.8,6.7-15.9-2.2-19.4
				c-8.9-3.4-13-2.5-25.1-1.3c-12.1,1.3-16.8,4.7-23.2,8c-6.3,3.4-8.3,0-8.9,6.7C596.2,419.5,602.2,430.5,602.2,430.5z"/>
			<path d="M626.4,373c2.9-0.9,10.1-2.2,15.2,0.9c5.4,2.9,12.7,9.6,15.2,13c2.5,3.8,6.7,7.1,6.3,12.7s0.9,12.1,0,14.3
				c-0.9,2.2-6.7,7.1-7.6,8.9c-1.3,1.6-5.4,9.2-5.4,9.2s7.1-19.4,6-22.6c-1.1-3.3-7.1-0.4-10.1-3.8c-2.2-2.2-4.7-4.2-8-2.9
				c-8.9,3.4-6.7,10.5-9.2,10.5s-6.3-2.2-9.6-2.2c-7.6,0.9-4.2,18.1-8.3,15.2c0,0-2.2-18.1-8.3-14.3c0,0-3.8,2.9-1.6,13l2.2,5.1
				c0,0-3.4,5.1-5.4,6.3c0,0-2.2-2.9-3.4-4.7c-1.6-1.3-0.9-2.5-1.3-7.1c-0.4-4.7-5.1-10.1-4.7-13c0.4-2.9,1.6-5.1,4.7-11.8
				C592,399.4,597.4,380.4,626.4,373z"/>
			<g>
				<path class="st40" d="M936.1,803.2H772.7c-2.2,0-4.2-1.6-4.2-4.2l0,0c0-2.2,1.6-4.2,4.2-4.2h163.3c2.2,0,4.2,1.6,4.2,4.2l0,0
					C940.2,801.5,938.6,803.2,936.1,803.2z"/>
				<path class="st32" d="M934.1,794.7h-161c-2.2,0-3.8-1.6-3.8-4.2L758.4,691c0-2.2,1.6-4.2,3.8-4.2h181.4c2.2,0,3.8,1.6,3.8,4.2
					l-9.6,99.5C937.7,793,936.1,794.7,934.1,794.7z"/>
			</g>
			<path class="st26" d="M842.5,644c-0.4,0.4-0.4,0.9-0.4,1.3c1.3,1.3,3.4,2.2,6.7,2.2c3.4,0,5.4-0.4,6.7-1.6
				c0.4-0.4,0.4-1.3-0.4-1.6c-0.9-0.4-2.5-1.3-3.8-0.9c-3.4,0.9-6.3-0.9-7.6,0.4C843.2,643.6,842.9,644,842.5,644z"/>
			<path d="M816.9,612.3c0,0-6.3-4.7-6.3-13.9s-3.4-17.7,1.3-21.9c5.1-4.2,22.2-15.6,32.7-13c10.5,2.5,34.4,4.7,35.3,13
				c0.9,8.3-1.3,25.7-2.2,27.7c-0.9,2.2-2.2,8-4.2,9.6c-0.9,0.9,2.2-9.2-0.9-13.4c-2.9-3.8-18.1,7.1-22.2-2.2
				c-4.2-9.2-11.8,6.7-18.1,2.5s-12.1,11.8-12.1,15.2S816.9,612.3,816.9,612.3z"/>
			<path d="M864.6,336.8c-0.9-1.6-2.5-1.3-3.4,0c-0.9,1.3-0.4,5.1-0.4,6.3c-0.4,1.3-2.5,2.9-4.2,3.4c-1.6,0.4-3.8,6.3-4.7,5.4
				c-0.9-0.9-1.6-13.4-1.3-15.2c0.4-1.8,1.6-4.7,0.9-7.6c-0.4-3.4-2.2-11.4,5.1-13c7.1-1.6,10.5,0.9,15.9,1.6
				c3.8,0.4,8-0.9,10.5-1.6c1.3-0.4,2.9,0,3.4,1.6c1.3,2.5,2.2,7.1-0.9,11.4c0,0-1.6,7.1-10.1,3.4c0,0-4.7-0.9-6,0.9
				c-1.6,2.2-2.2,11.4-2.2,13l-2.9-1.3v-8.5H864.6z"/>
			<path d="M1225.1,490.9c-1.6,0.9-2.9,1.3-4.7,1.3c-2.9,0.4-6.7,1.6-7.1,7.1c-0.9,8,14.3,22.2,13.4,26
				c-1.3,4.2-12.1,16.8-13.9,21.9c-1.6,6-10.1,44.1,33.1,42c42.5-2.2,92.4-15.9,101.7-28.2c12.1-15.9-28.6-27-47-62.6
				c-11.8-23.2-39.1-2.2-46.7-4.7C1247,492.2,1234,487.1,1225.1,490.9z"/>
			<path class="st35" d="M1150.8,666.9c0,0,17.7-6.3,20.1-6.3c2.5,0,26,6.7,30.8,5.4c3.8-1.3,16.5-2.5,21.3-4.7
				c0.9-0.4,2.2,0,2.9,0.4c3.4,2.5,11.8,9.6,10.5,10.1c-1.6,0.9-32.4-0.4-34.9,0.9c-2.5,1.3-14.3,7.1-20.6,0
				C1174.7,665.3,1154.2,673.3,1150.8,666.9z"/>
			<path class="st36" d="M1147.3,677.1h37.4c0,0,0-14.7-34.4-7.1C1150.8,670,1147.9,672.9,1147.3,677.1z"/>
			<path class="st28" d="M1248.3,574.5c0,0,7.6,21.3,2.2,28.9c-5.4,7.6,27.7,4.7,28.2,0c0.4-4.2-15.6-24.8-13.9-33.1
				c0-0.9,0.4-1.6,0.9-2.2C1271.4,561.1,1254.6,579.6,1248.3,574.5z"/>
			<path class="st35" d="M1239.8,514.1c0,0-3.4,0.4-4.7,6.3c-1.3,6-6.7,26-1.3,41.2c5.4,15.2,15.2,21.3,30.8,12.1
				c15.9-9.2,19.7-13.9,20.6-24.4c1.3-10.5,8-30.2,0-34C1277.2,511.2,1243.6,509.4,1239.8,514.1z"/>
			<path class="st40" d="M1291.5,322.2c0,0-3.8-0.4-3.8,3.4c0,2.5,1.6,34.4,1.6,34.9c0,0.4,0,7.6,6,8.9c2.2,0.4,4.7,0.4,8.3,0.4h55
				c0,0,3.4,0,3.8-2.9l-2.5-37.4c-0.4-2.9-2.9-5.4-6-5.4l0,0L1291.5,322.2z"/>
			<path class="st25" d="M1166,806.4c0,0-2.9,1.3-2.9,3.4c0,2.5-0.9,7.1-0.4,7.6c0,0.4-0.4,0.9,2.9,3.4c3.4,2.5,10.1,7.6,21.3,8.3
				c0.9,0,0.4-3.4,2.2-7.1c1.6-3.4,3.8-6,2.9-8.3c-0.9-2.5-13,2.2-15.6-0.9C1173.9,809.9,1168.9,804.4,1166,806.4z"/>
			<path d="M1367.1,387.7c0,0-5.1-2.2-4.7-6.3c0.4-4.2-0.9-6.7-2.2-9.6c-1.3-2.9-3.8-4.2-2.2-9.2c1.6-5.1-0.4-12.7,0.9-14.7
				c1.3-2.2,6-5.1,8.9-5.4c2.9-0.4,8,1.3,10.5-1.3c2.5-2.9,4.7-7.6,10.1-6c6,1.3,13,3.4,18.1-1.3c5.1-4.2,23.9-8.3,29.8-0.9
				c5.4,7.6,0,15.2-2.9,18.1c-2.9,2.9-10.5,18.1-12.1,22.6c0,0,2.9-17.2,0.9-17.7s-9.6,1.6-13.4-1.3c-3.8-2.9-13.9-6-17.7-3.4
				c-3.8,2.5-8.3,16.5-8.3,16.5L1367.1,387.7z"/>
			<path class="st35" d="M1374.4,369.2c0,0-1.3-4.7-4.2-4.2c-2.5,0.4-3.8,3.4-2.9,8c0.9,4.7,3.8,5.4,2.2,9.6c-1.6,4.2-2.9,8-6,8.3
				c-2.9,0.4-6,0-6,0s-1.3,4.2,2.5,9.2c3.8,5.1,12.1,8,14.3,14.3s6.7,14.7,8,11.8c1.3-2.9,6-14.3,8.3-14.3c2.5,0,13,3.8,16.5-2.9
				c3.4-7.1,13.4-13.4,14.3-28.2c0.9-14.7,2.9-21.9,2.9-21.9s-0.4-6.7-6.7-8c-6.7-1.3-9.6,3.8-23.5-2.9c-4.2-2.2-7.1,5.4-8.3,8
				c-1.3,2.5-8,17.2-8.9,17.2C1376,373,1373.5,372.1,1374.4,369.2z"/>
			<path class="st29" d="M1439.8,504h-63.5c-13,0-23.5-10.5-23.5-23.5v-33.6c0-13,10.5-23.5,23.5-23.5h63.5
				c13,0,23.5,10.5,23.5,23.5v33.6C1463.4,493.5,1452.9,504,1439.8,504z"/>
			<path class="st26" d="M1288.3,261.2c0,0-0.4,3.4,0,9.2c0.4,6,1.3,17.7,13,20.1c12.1,2.5,16.5-10.9,16.5-17.2
				c0-6.3,0.4-6.3-0.9-10.1c-0.4-1.3-11.4,6.3-18.5,0C1293.7,259.4,1288.3,260.3,1288.3,261.2z"/>
			<path class="st28" d="M975.1,290.2c0,0,2.9,0.9,1.6,3.4c-0.9,2.5-3.4,6-3.4,6S971.9,291.4,975.1,290.2z"/>
			<path d="M700.9,432.2c0,0-17.2,4.2-18.1-8c0,0-2.2-10.1,12.1-20.1c0,0,13.4-6,15.2-7.1c2.2-1.3,8-4.5,18.2-4.9
				c9.8-0.4,15.6,6.9,18.2,10.7c2.5,3.8,17.4,13.6,26.6,16.7c8.9,2.9,25.1,13,26,20.6c1.3,7.6,1.3,8.3-0.9,9.6
				c-2.2,1.3-3.4,3.8,1.6,6c5.1,2.2,32.4,15.2,20.6,35.3c0,0-4.7,11.8-21.9,10.5c0,0-6.7-0.9-6.7,4.2c0,5.1,0.4,12.7-8.9,12.7
				s-14.3-0.9-15.6,0.4s-5.4,2.9-6.7,7.6c-0.9,5.1,1.6,14.7-8.3,12.7c-10.1-2.2-13.4-10.1-10.5-15.2c2.5-5.1,4.2-8,2.2-8.3
				c-2.2,0-12.7,3.8-11.8-4.2c0.9-8-3.4-12.1,0.9-19.7c4.2-7.6,10.9-10.1,13.4-23.9s-4.7-12.1-8-10.5c-2.5,1.3-6.3,6.3-12.1-5.4
				c-6-11.8,2.2-26.4,2.5-28.6c0.4-1.6,0-8.3-5.4-8c-2.2,0-3.8,2.2-3.8,4.2c0,1.3,1.3,5.1,1.6,6.7c0.4,1.3-2.5,0-3.4-0.9
				c-2.2-1.6-4.2-4.2-4.7-3.8C714.7,421.3,713,430.9,700.9,432.2z"/>
			<path class="st28" d="M947.5,292.3c0,0-3.8-2.2-3.8,1.3c0,3.4,4.7,6.7,4.7,6.7S947.1,293.1,947.5,292.3z"/>
			<path class="st35" d="M972.2,278c2.9,2.2,3.8,8.3,2.9,11.4c-0.9,4.7-0.9,4.7-0.9,6c-0.4,9.6-6.3,17.2-13.9,17.2
				c-7.6,0-13.9-7.6-13.9-17.2l-0.4-2.5c-0.4-2.9,2.2-5.1,4.7-6.3C951.3,286,970.6,276.8,972.2,278z"/>
			<path class="st28" d="M670.5,663.2c0,0,0.4,11.8-1.6,14.7s-8.3,8.3-1.3,11.8c7.1,3.4,16.8,21.3,16.8,25.7c0,4.2,15.2-23.9,8.9-26
				c-4.2-1.3-8-3.8-6.7-19.4C687,662.8,670.5,663.2,670.5,663.2z"/>
			<path class="st26" d="M687.3,598c-2.2-1.3-2.2,2.2-3.4,4.2c-3.4,8.3-2.2,8.9-18.5,25.1c-4.7,5.1-5.4,28.9,0,33.1
				c5.4,4.2,21.3,11.8,26.4,7.6c5.1-4.2,13.4-16.5,13-25.1c-0.4-9.2,4.7-26.4-3.4-34C697.5,605.3,691.5,601.1,687.3,598z"/>
			<g>
				<path class="st25" d="M639.4,754.9c-0.4,8.3-1.6,13.4-3.8,20.6c-0.9,2.5,0.9,5.1,3.4,5.4c4.7,0.9,8.9,0.4,13.4-0.9
					c13-4.2,30.2,5.1,42.9-0.4c0.9-0.4,1.6-0.9,2.2-1.6c0.4-1.3-4.7-3.4-5.4-4.2c-0.7-0.7-8.3-4.2-9.6-4.7
					c-9.2-4.7-7.1,1.6-15.6-5.4c-3.4-2.9-17.2-10.9-22.2-12.7c-1.6-0.9-3.4,0.4-4.7,2.2l0,0C640,753.2,639.4,754,639.4,754.9z"/>
			</g>
			<g>
				<path class="st25" d="M715.6,741.8c0,4.7-3.8,7.6-6.3,9.6c-2.5,2.5-6,4.2-9.2,4.7c0,0,9.6,5.4,16.8-0.9c7.1-6.3,0-28.6,0-28.6
					L715.6,741.8z"/>
			</g>
			<path class="st35" d="M1165.4,288.4c0,0,1.3,3.4,4.7,9.2c3.8,5.4,10.1,17.2,23.2,13.4c13.4-3.8,8.3-18.1,5.1-24.4
				c-3.4-6.3-3.4-11.8-6.3-13.4C1189.3,271.6,1164.5,286.3,1165.4,288.4z"/>
			<g>
				<path class="st25" d="M1018,716.5c-1.3-11.8-2.2-23.5-3.4-35.6c-0.4-5.1-0.9-9.6-0.9-14.7c0-4.7,0.9-8.9,1.6-13.4
					c1.3-8.9,2.5-17.7,3.8-26.4c0,0-0.9,35.6,1.3,43.8c2.2,8,6,31.1,6,39.4c0.4,8.3,2.2,33.1-2.2,34.9
					C1020.2,746.4,1018,716.5,1018,716.5z"/>
			</g>
			<path d="M1147,286.4c0,0,2.2-17.2,6-19.4c3.8-2.2,14.3-10.9,27.3-8.3c10.9,2.2,14.3,10.5,13,21.3c-2.5,21,12.1,34.4,18.5,36.5
				c6.3,2.2,10.5,8,5.1,13c-5.1,5.1-13.4,9.6-18.1,10.5c-4.7,0.9-13.4,5.4-15.9,4.2C1180.3,343.2,1148.3,322.5,1147,286.4z"/>
			<rect x="1061.2" y="677.1" class="st21" width="240.4" height="12.1"/>
			<g>
				<path class="st3" d="M1410.9,459.1c0.4-0.4,0.4-0.9,0.4-1.6c-0.4,0-1.3,0.4-1.6,0.9c-0.4,0.4-0.9,0.9-0.4,1.3
					C1410,459.8,1410.4,459.5,1410.9,459.1z M1412.2,463.3c0-1.3,0.9-1.6,0.9-1.6c-0.4-0.9-1.3-0.9-1.6-0.9c-0.9,0-1.3,0.4-1.6,0.4
					c-0.4,0-0.9-0.4-1.6-0.4c-0.9,0-1.6,0.4-2.2,1.3c-0.9,1.6-0.4,3.8,0.4,5.1c0.4,0.4,0.9,1.3,1.6,1.3c0.4,0,0.9-0.4,1.6-0.4
					s0.9,0.4,1.6,0.4c0.9,0,1.3-0.4,1.3-1.3c0.4-0.9,0.9-1.3,0.9-1.3C1413.4,464.9,1412.2,464.5,1412.2,463.3z"/>
			</g>
			<g>
				<path class="st3" d="M1324.8,341.9c0.4-0.4,0.4-0.9,0.4-1.3c-0.4,0-0.9,0.4-1.3,0.4c-0.4,0.4-0.4,0.9-0.4,1.3
					C1323.9,342.6,1324.8,342.3,1324.8,341.9z M1326.1,345.1c0-0.9,0.9-1.6,0.9-1.6c-0.4-0.9-1.3-0.9-1.3-0.9
					c-0.4,0-1.3,0.4-1.3,0.4c-0.4,0-0.9-0.4-1.3-0.4c-0.9,0-1.3,0.4-1.6,0.9c-0.9,1.3,0,2.9,0.4,3.8c0.4,0.4,0.9,0.9,1.3,0.9
					s0.9-0.4,1.3-0.4s0.9,0.4,1.3,0.4s0.9-0.4,1.3-0.9c0.4-0.4,0.4-1.3,0.4-1.3C1326.8,346.4,1326.1,346.1,1326.1,345.1z"/>
			</g>
			<g>
				<path class="st7" d="M856.7,722.1c0.9-0.9,1.6-2.5,1.3-3.8c-1.3,0-2.9,0.9-3.8,1.6c-0.9,0.9-1.6,2.2-1.3,3.8
					C854.1,723.7,855.9,722.8,856.7,722.1z M859.6,731.3c0-2.9,2.5-4.7,2.5-4.7c-1.3-2.2-3.4-2.5-4.2-2.5c-1.6,0-3.4,1.3-4.7,1.3
					c-0.9,0-2.5-1.3-3.8-1.3c-2.2,0-3.8,1.3-5.1,2.9c-2.2,3.8-0.4,9.2,1.6,12.1c0.9,1.3,2.2,2.9,3.8,2.9s2.2-0.9,3.8-0.9
					s2.2,0.9,3.8,0.9s2.5-1.6,3.8-2.9c1.3-1.6,1.6-3.4,1.6-3.4C862.6,736.4,859.6,735.1,859.6,731.3z"/>
			</g>
			<g>
				<path class="st27" d="M1248.3,492.2c0,0,11.4-10.9,28.6-1.3c0,0,13.9,5.4,15.6,34h-5.1c0,0,0.4-29.8-21.3-31.1l-8.9,0.9
					L1248.3,492.2z"/>
				<circle class="st34" cx="1286.5" cy="539.2" r="15.2"/>
				<circle class="st27" cx="1287.7" cy="539.2" r="9.2"/>
				<polygon class="st27" points="1289.3,538 1285.2,538 1260.9,559.5 1255.9,560.8 1255.9,564.6 1261.7,562.8 1285.7,541.4 
					1289.3,541.4 				"/>
				<circle class="st34" cx="1253.7" cy="562.8" r="3.4"/>
			</g>
			<rect x="897.4" y="410.3" class="st21" width="241.7" height="8.9"/>
			<path class="st36" d="M1128.2,677.1h-73.4v-8h65.5C1124.7,669.1,1128.2,672.9,1128.2,677.1L1128.2,677.1z"/>
			<path class="st26" d="M1024.3,662.8c0,0-0.4,2.2,0.9,6c1.3,3.4,4.7,19.4,7.6,23.2c2.9,3.8,1.3,3.4,0.9,6.7
				c-0.4,2.9,1.3,3.4,0.9,5.4c-0.9,2.2-2.9,7.6-5.1,18.5s1.3,23.2-1.6,25.7c-2.9,2.5-6.7,0.4-8,4.2c-1.3,3.4-1.3,7.1-2.5,7.6
				c-1.3,0.4-2.9,0.4-2.9,2.2c0,1.6,7.6,8.3,11.8,6c4.2-2.4,10.1-13.4,13.9-18.1s21-33.6,22.2-35.6c1.3-2,2.2-3.4,2.2-7.1
				c0-3.8-2.9-18.5-1.6-22.6c1.3-4.2,4.7-29.5-3.8-37.4L1024.3,662.8z"/>
			<path class="st25" d="M1024.7,651.4c0,0-4.7,1.3-4.2,3.4c0.4,2.2,0.9,5.1,1.6,7.1c0.4,1.6-0.4,5.4,1.3,3.8
				c1.6-1.6,7.1-7.6,22.2-12.1c6.3-2.2,15.2-5.4,15.9-2.5c0.9,3.4,1.3,6.3,1.6,4.2c0.4-2.2,4.2-2.9,2.9-12.1c0-1.3,1.3-6.3-0.9-8
				c-2.2-1.6-2.2-1.6-4.7-0.4c-1.6,0.9-21,8.9-25.1,11.8C1034.8,646.9,1026.5,651.9,1024.7,651.4z"/>
			
				<linearGradient id="SVGID_4_" gradientUnits="userSpaceOnUse" x1="1216.5493" y1="145.1925" x2="1228.3728" y2="177.6768" gradientTransform="matrix(1 0 0 1 0 140)">
				<stop  offset="0" style="stop-color:#FFFFFF;stop-opacity:0"/>
				<stop  offset="1" style="stop-color:#FFFFFF;stop-opacity:0.4"/>
			</linearGradient>
			<path class="st41" d="M1217.5,317.8l13-0.9c0,0,1.6-5.4-2.5-11.4c-3.8-6-3.4-13.9-1.6-23.9c0,0-0.9,1.6-2.9,3.8
				c-2.5,2.2-7.1,5.1-6.3,9.2c0.4,1.3,0.9,2.5,0.9,3.4c0.9,2.9-2.2,2.2-2.5,5.1c0,1.6-0.4,3.4-0.9,3.4
				C1213,308.2,1217.5,317.8,1217.5,317.8z"/>
		</g>
		<path class="st28" d="M1071.4,366.7c0,0,1.3,1.6,1.3,3.8s-1.6,8-1.6,8s17.2-13,19.7-21.3c2.5-8.3,2.2-6,1.6-9.6
			c-0.4-3.8-12.7-16.8-13.9-11.8c-1.3,5.1-2.2,3.8-2.9,7.1C1075.2,346.1,1070.5,365.8,1071.4,366.7z"/>
		<path d="M1050.8,313.3c0,0-11.4,7.6-0.4,17.2c0,0,8,3.8,18.5-1.3c0,0,4.2-2.5,5.1,0.9c0.4,3.4,0.4,7.6,0.9,9.6
			c0.4,2.2,0.9,5.4-2.5,8.3c-3.8,2.9-17.2,10.1-18.1,12.7s-0.9,6.3-0.4,10.1c0.9,3.8,0.4,9.2,6,5.4c5.4-3.8,19-7.1,18.5-13.9
			c-0.9-10.5-2.2-19-0.9-21.3c1.3-2.5,4.2-4.2,5.1-2.5c0.9,1.6-0.9,4.7-0.4,6.3c0.4,1.6,3.4,2.9,5.4,2.9c2.5,0,4.2,4.2,5.1,2.9
			c0.9-1.3,2.5-8,2.2-10.1c-0.9-2.2-2.2-6-1.3-9.6c0.9-4.2,2.5-14.3-6.3-16.8c-8.9-2.5-13.4,0.9-20.1,1.6
			C1059.6,317.1,1050.8,313.3,1050.8,313.3z"/>
	</g>
</g>
<g>
	<circle class="st4" cx="482.8" cy="228.5" r="39.4"/>
	<g>
		<path class="st13" d="M483.1,235.7l-11.6-28.9c-0.4-0.5,0-1.4,0.9-1.8l0,0l11.6,28.8l17-13.2l0,0c0.5,0.5,0.4,1.4-0.4,2.2
			L483.1,235.7z"/>
	</g>
</g>
<g>
	<path class="st25" d="M983.3,355.5c-0.7-2.8-2.9,7.4-5.2,9.2c-3,2.3-7.2,1.3-10.9,0.8c-3.8-0.6-7.7-0.6-11.5-0.1
		c-3.2,0.4-6.5,1.2-9.5,0.1c-2.2-0.9-3.9-2.7-5.1-4.8c-1.1-2.1-1.8-4.4-2.4-6.7c0,0-2.8-2.8-4.3-1.3c0,0,3.2,11.7,6,16.7
		c0,0,1.7,11.5-2.3,25.3l-2.8,9.5l-0.5,1.6c0,0,8.9,4.9,30.2,6.4c0,0,15.3-0.5,20.2-3.3c0,0-7.2-9.8-6.3-18.3
		C979.7,381.8,985,362.5,983.3,355.5z"/>
</g>
<g>
	<g>
		<rect x="1489.8" y="757.6" class="st4" width="171.4" height="1.6"/>
	</g>
	<g>
		<path class="st4" d="M1616.5,686.9c1.2,3.5,11.9,41.9,10.7,47c-1.2,5.1,0,15.2-8,24.2h-24.8c-8-9-6.2-18.7-8-24.2
			c-1.2-5.7,9.6-42.9,10.7-47H1616.5z"/>
		<path class="st13" d="M1618.1,739.5c-0.6-2.3-0.6-3.5-2.9-3.9c-4.5-1.6-11.9-2.3-10.7-9.6c0.6-5.7,2.9-10.3-2.3-14.8
			c-4.5-3.9-6.8-9-7.4-15.2c0,0,0,0,0,0.6c-3.5,12.5-8.4,33.5-8,36.8c1.2,5.7,0,15.2,7.4,24.2h24.8c2.9-3.5,4.5-6.8,5.7-11.3
			C1621.6,745.7,1618.7,743,1618.1,739.5z"/>
		<path class="st4" d="M1593.9,676.7c-3.9-2.3-5.1-12.9-10.3-18.7s-7.4-12.9-9.7-20.3c-3.9-13.6,3.5-26.5-1.6-40.7
			c-3.9-10.7-11.9-32.2,2.9-39c5.7-2.9,5.1,1.6,5.7,7.4c0,6.8-1.2,14.2,0.6,20.9c1.6,4.5,5.1,6.2,7.4,10.3c2.3,3.5,3.5,7.4,3.5,11.9
			c0,3.5-0.6,7.4,0.6,10.7c1.6,4.5,6.8,8,9,12.9c3.5,7.4,7.4,17,1.6,23.8c-3.9,5.1-9,9.6-10.7,16.4c0,0.6,0,1.2,0,1.6L1593.9,676.7z
			"/>
		<path class="st13" d="M1611.3,687.5c0.6-3.9-6.2-19.3-7.4-41.3c-0.6-9,5.1-21.6,3.9-31.2c-1.2-10.7,3.5-12.5,9.6-20.3
			c4.5-5.7,4.5-14.8,2.9-21.6c-1.2-5.1-3.5-9.6-1.6-14.8c1.6-3.9,5.1-6.2,6.2-10.7c0.6-5.1-0.6-10.7,1.2-15.8
			c1.6-5.1,5.7-9.6,10.3-12.9c5.7-3.5,6.2,0,8,5.7c2.3,9,2.9,19.3,1.2,28.3c-1.6,8-4.5,17-2.3,25.5c4.5,14.2,22,29.4,12.9,45.2
			c-1.6,3.9-5.1,6.2-7.4,10.3c-2.3,3.5-3.9,7.4-6.8,11.3c-3.9,5.7-5.1,13.6-10.3,18.7c-7.4,7.4-14.8,14.8-19.7,24.8L1611.3,687.5z"
			/>
		<path class="st7" d="M1579.7,619c0,5.7-1.2,17.5,6.8,19.3c0.6,0,0.6,0,1.2-0.6c1.6-1.6,0-4.5-1.2-6.2c-0.6-0.6-0.6-0.6-1.2-0.6
			h-0.6c-0.6,0-0.6,0.6-0.6,0.6c-0.6,3.5,0,6.8,1.6,9.6c1.2,2.3,2.9,3.9,5.1,6.2c2.9,3.5,2.9,6.8,3.9,10.7c0.6,1.2,1.2,2.3,1.6,2.9
			c1.2,2.9,1.2,6.2,1.2,9c0,2.9-0.6,5.7-1.2,8c-0.6,3.9,0,7.4,3.5,9.6c1.2,0.6,2.3-1.2,1.2-2.3c-4.5-3.5-1.2-12.9-1.2-17.5
			c0-2.9,0-5.7-1.2-8c-1.2-2.9-1.2-6.2-2.3-9c-2.3-5.1-8.4-9-9-14.8c0-0.6,0-0.6,0-1.2c0.6-1.2-0.6-1.6-2.3-1.2
			c-1.2-1.6-1.6-3.9-1.6-6.2c0-2.9,0-5.7,0-8.4c0-0.6-0.6-1.2-1.2-1.2C1580.3,617.9,1579.7,618.4,1579.7,619z"/>
		<path class="st7" d="M1641.9,592.5c-1.2,3.9-2.9,8-5.7,11.3c-2.3,2.9-5.7,2.3-8,3.9c-3.9,3.5,0,10.7,1.2,14.8
			c1.6,5.1,3.9,11.3,0,15.8c-1.6,2.3-3.9,3.9-6.2,5.7c-3.9,2.9-5.7,7.4-5.1,11.9c-4.5,3.5-6.8,9-9,14.2s-5.1,11.9-2.9,17.5
			c0.6,1.2,2.9,0.6,2.3-0.6c-2.3-5.1,1.2-11.9,3.5-16.4c1.6-3.9,3.9-8,6.8-11.3c0.6,0.6,0.6,0.6,1.2,0.6c1.2,0,2.3-1.6,2.3-2.9v-0.6
			c0-0.6-0.6-1.2-1.2-0.6c0-7.4,7.4-9.6,11.9-15.2c3.5-4.5,1.6-10.3,0-15.2c-1.2-3.5-2.3-6.8-2.9-10.3c-1.2-3.9,5.1-5.1,6.8-6.8
			c3.9-2.9,6.2-8.4,7.4-13.6c0-0.6,0-1.2-0.6-1.6C1642.9,592.5,1642.5,591.9,1641.9,592.5z"/>
		<path class="st4" d="M1602.3,556.8c-1.2,7.4,0.6,12.9,1.6,19.7c0,2.3,0.6,3.9,0.6,6.2c0.6,3.5,3.5,5.1,4.5,8
			c1.2,5.1-1.2,10.7-1.6,15.8c0,4.5,3.5,6.8,6.2,9.6c6.8,6.2-2.9,11.3-6.2,16.4c-3.5,4.5-3.5,10.3-3.5,15.8c0,8,1.2,14.2-1.2,22
			c0,0.6-0.6,3.5-3.5,15.8c-0.6,1.6,1.6,2.3,1.6,1.2c2.3-7.4,0.6-6.8,2.9-14.8c2.3-5.7,2.9-11.9,2.3-18.7c-0.6-8-1.6-16.4,4.5-22.6
			c3.5-3.5,6.8-6.2,7.4-11.3c0.6-3.5-4.5-6.8-6.8-9c-4.5-3.9-1.6-11.3-1.2-16.4c0-1.6,0-3.9,0-5.7c-0.6-3.5-3.5-5.1-4.5-8.4
			s-0.6-6.2-1.2-9c-1.6-5.1-1.6-10.7-1.2-15.8C1605.2,556.1,1602.9,555.7,1602.3,556.8z"/>
		<path class="st7" d="M1604.5,686.9c2.3-5.1,3.9-10.7,5.1-16.4c1.6-7.4,5.7-14.2,10.3-19.7c3.9-4.5,6.8-9,9.6-14.8
			c2.3-5.7,2.3-12.5,1.6-18.7c-0.6-11.3,0.6-22.6,1.2-33.5c0-14.8,2.3-28.9,5.7-42.9c0.6-1.6-1.6-2.3-2.3-0.6
			c-2.9,12.9-5.1,26.1-5.1,39c-0.6,10.3-1.2,19.7-1.6,30c0,8,1.2,15.2-0.6,23.2c-1.2,6.8-6.8,12.9-11.3,18.1
			c-3.5,3.9-6.2,9-8.4,14.2c-2.9,6.8-3.5,14.8-6.2,21.6C1601.7,687.5,1603.9,688.6,1604.5,686.9z"/>
		<rect x="1593.3" y="685.3" class="st13" width="26.1" height="3.5"/>
	</g>
</g>
</svg>
