<?xml version="1.0" encoding="utf-8"?>
<!-- Generator: Adobe Illustrator 22.0.1, SVG Export Plug-In . SVG Version: 6.00 Build 0)  -->
<svg version="1.1" id="Layer_1" xmlns="http://www.w3.org/2000/svg" xmlns:xlink="http://www.w3.org/1999/xlink" x="0px" y="0px"
	 viewBox="0 0 700 480" style="enable-background:new 0 0 700 480;" xml:space="preserve">
<style type="text/css">
	.cs0{fill:url(#SVGCSID_1_);}
	.cs1{fill:url(#Path-72-Copy-5_2_);}
	.cs2{fill:url(#SVGCSID_2_);}
	.cs3{fill:#CE3A49;}
	.cs4{fill:#9D2229;}
	.cs5{fill:#B73542;}
	.cs6{fill:#DD444D;}
	.cs7{fill:#C93241;}
	.cs8{fill:#EF5350;}
	.cs9{fill:#E53935;}
	.cs10{fill:#C73541;}
	.cs11{fill:#A50C47;}
	.cs12{fill:#FF8080;}
	.cs13{opacity:0.9;}
	.cs14{opacity:0.5;fill:url(#SVGCSID_3_);enable-background:new    ;}
	.cs15{opacity:0.4;fill:url(#SVGCSID_4_);enable-background:new    ;}
	.cs16{opacity:0.33;fill:#FFFFFF;enable-background:new    ;}
	.cs17{fill:#153456;}
</style>
<linearGradient id="SVGCSID_1_" gradientUnits="userSpaceOnUse" x1="408.2994" y1="479.7303" x2="408.2994" y2="88.6639" gradientTransform="matrix(1 0 0 1 -51.6 35)">
	<stop  offset="0" style="stop-color:#FFFFFF;stop-opacity:0.2"/>
	<stop  offset="0.54" style="stop-color:#DFE3ED"/>
	<stop  offset="1" style="stop-color:#DFE3ED"/>
</linearGradient>
<polygon class="cs0" points="580.7,479.3 514.9,180.6 494.2,130.3 481.8,131.7 481.8,131.8 459.1,130.4 443.7,128 443.6,127.8 
	423.5,124.1 423.6,126 422.4,125.9 422.2,123.8 394.4,123.8 394.3,124.6 352.5,127.2 352.5,127.3 333.9,129.5 305,131.9 305,132 
	267.4,129.1 267.5,128.5 266.5,129 255.3,128.1 255.2,128.1 231,126 204.1,147.7 132.7,479.3 "/>
<linearGradient id="Path-72-Copy-5_2_" gradientUnits="userSpaceOnUse" x1="229.5232" y1="61.0851" x2="229.5232" y2="8.4832">
	<stop  offset="0" style="stop-color:#DFE3ED;stop-opacity:0"/>
	<stop  offset="0.3175" style="stop-color:#DFE3ED;stop-opacity:0.32"/>
	<stop  offset="0.5913" style="stop-color:#DFE3ED;stop-opacity:0.59"/>
	<stop  offset="0.8481" style="stop-color:#DFE3ED;stop-opacity:0.85"/>
	<stop  offset="1" style="stop-color:#DFE3ED"/>
</linearGradient>
<path id="Path-72-Copy-5_1_" class="cs1" d="M140.6,49.6c13.1-7.5,12-12.1,20.2-13.3c8.2-1.2,10.4,4.6,22.9,2.3
	C196.2,36.2,196,8,232.1,8.5s34.8,36.3,45.8,36.3c11,0,10.5-8.5,27.1-8.5c16.5,0,23.9,24.8,59,24.8H95
	C116.6,58.4,131.8,54.6,140.6,49.6z"/>
<linearGradient id="SVGCSID_2_" gradientUnits="userSpaceOnUse" x1="-198.3711" y1="366.3494" x2="-198.3711" y2="424.3205" gradientTransform="matrix(-1 0 0 -1 284.14 480.8)">
	<stop  offset="0" style="stop-color:#DFE3ED;stop-opacity:0"/>
	<stop  offset="0.3175" style="stop-color:#DFE3ED;stop-opacity:0.32"/>
	<stop  offset="0.5913" style="stop-color:#DFE3ED;stop-opacity:0.59"/>
	<stop  offset="0.8481" style="stop-color:#DFE3ED;stop-opacity:0.85"/>
	<stop  offset="1" style="stop-color:#DFE3ED"/>
</linearGradient>
<path class="cs2" d="M571.4,114.5H378h-2.5c-8.2-2.2-8.3-5.9-8.6-8.6c-0.5-5.6,7.9-10.1,7.9-10.1c5.5-2.5,10.8-5.3,16-8.5
	c13.8-9.2,19.4-17.3,19.4-17.3c31.6-30.1,54.8-0.3,54.8-0.3c9.4,12.6,21.3,8.8,21.3,8.8c37.5-11.1,51.4,6.1,58.2,10.9
	s29.2,7.2,29.2,7.2s23.7,2.2,24.5,11.2c0,0,0.4,6.8-23.2,6.8H571.4z"/>
<polygon class="cs3" points="264.3,290 264.8,286 265,280.9 262.2,281.7 258.4,281.9 251.3,288 250.7,292.3 248.3,297.4 
	248.6,300.8 250.9,303 252.9,303 255.2,303 258.5,300.3 260.9,300.3 265,293.3 "/>
<polygon class="cs4" points="449.5,344.4 446.5,343.2 442.3,343 442.3,342.9 442.1,343 442,343 442,343 437.9,343.7 435,345.1 
	432.4,346.5 432.8,347.8 433.8,350.4 438.8,353.6 438.4,357 441.3,359.5 443.3,362.8 443.3,362.8 443.3,362.8 443.3,362.8 
	443.3,362.8 444.9,359.3 447.4,356.4 446.6,353.1 451.3,349.4 451.9,346.7 452.2,345.5 "/>
<polygon class="cs4" points="336.7,3 352.6,37.3 374.5,64.2 374.5,68.8 381,80 393.4,126.9 366,127.3 350.7,86.5 333.8,55.3 "/>
<polygon class="cs3" points="228,133.7 252.7,127.5 304,129.9 299.8,173.8 288.6,265.3 256.5,241.6 "/>
<polygon class="cs4" points="229,126.9 242.4,114.7 277.8,105.3 264.6,128.1 250.8,127.5 "/>
<polygon class="cs5" points="324.9,410.5 324.9,357.9 290.3,265.9 258.4,243 289.9,310.9 "/>
<polygon class="cs5" points="324.9,410.5 389.5,290 391.8,125.4 349.9,126.9 332.3,162.5 333,261.6 324,356.7 "/>
<polygon class="cs5" points="204,147.7 208.1,173 256.5,241.6 251.6,178.8 264.8,128.2 "/>
<polygon class="cs6" points="204,147.7 229.3,126.5 253.1,127.6 229.7,139.8 "/>
<polygon class="cs6" points="302.4,129.7 331.4,128.3 350.1,127 332.3,162.8 "/>
<polygon class="cs4" points="332.4,133.4 332,158.4 332.6,162.6 350.1,127.2 "/>
<polygon class="cs7" points="345.1,372.7 365.4,397.6 393.6,355.3 410.4,298.7 425.4,171.7 419.7,124.8 391.7,124.8 391.2,127.1 
	389.1,288.7 "/>
<polygon class="cs8" points="275.6,109.2 282.2,65.5 303.1,77.5 302.6,129.8 278,128.7 264.3,128 "/>
<polygon class="cs9" points="303.7,77.9 327.7,48.3 329.1,79 320.3,127 308.7,82.8 297.7,128.1 "/>
<polygon class="cs8" points="282.2,65.5 303,58.7 336.7,3 344.7,71 356.5,81.4 329,79 302.9,77.4 "/>
<polygon class="cs4" points="329.1,79 320.5,124.8 335.4,124.8 357.5,79.3 "/>
<polygon class="cs10" points="356.5,81.4 328.9,125.3 330.5,128.5 371,126.1 "/>
<polygon class="cs9" points="352.6,37.4 376.9,32.7 374.6,64.5 "/>
<polygon class="cs4" points="376.8,32.8 392.3,65.8 374.4,69 374.5,62.3 "/>
<polygon class="cs9" points="425.2,112 444.7,103.8 448.4,130.8 "/>
<polygon class="cs11" points="444.7,103.8 464.3,129.1 449,134.6 448,129 "/>
<polygon class="cs8" points="392.3,65.8 428.5,80.6 423.3,105.9 434.1,127.5 408.4,127.7 386.6,126.3 371.7,73.5 374.6,68.9 "/>
<polygon class="cs4" points="396.5,100 400.7,118.4 402.8,126.2 409.3,126.5 405.3,113.2 "/>
<polygon class="cs4" points="427.9,83.2 423.3,105.9 434.1,127.5 445.1,128 428.4,80.6 "/>
<polygon class="cs3" points="388.6,423.5 424.5,321.6 455.4,218.4 458.7,153.4 438.9,127.5 422.4,127.6 424.5,172.8 409.6,298.1 
	391.7,354.7 366.4,332.5 "/>
<polygon class="cs5" points="411.1,360.3 481.4,250.2 489.9,160.3 480.5,129.7 451.9,128.7 457.9,153.2 455.4,217.5 "/>
<polygon class="cs3" points="494.2,129.9 514.9,180.6 484.8,214.8 489.9,160.3 479.3,129.7 "/>
<polygon class="cs5" points="438.8,127.4 456.8,128.9 457.5,152.2 "/>
<polygon class="cs4" points="308.7,82.9 314.1,77.8 327.9,48.3 302.9,77.6 297.6,127.9 308.7,82.9 "/>
<polygon class="cs10" points="331.5,128.3 308.7,82.8 297.7,128.1 302.1,130.1 "/>
<polygon class="cs4" points="392.6,127.6 426.1,174 422.4,127.6 "/>
<polygon class="cs10" points="302.4,129.7 284.6,263.2 325,360.5 338.8,211.5 331.9,158.1 "/>
<polygon class="cs6" points="376.8,129.9 371.9,170.6 368.9,126.9 "/>
<path class="cs12" d="M387.8,234.8c-0.1,0-0.2,0.1-0.1,0.2s0.1,0.2,0.2,0.1c0.1-0.1,0.2-0.1,0.1-0.2
	C387.9,234.8,387.9,234.8,387.8,234.8z"/>
<g class="cs13">
	
		<linearGradient id="SVGCSID_3_" gradientUnits="userSpaceOnUse" x1="2388.7549" y1="-1845.897" x2="2480.7644" y2="-1833.2618" gradientTransform="matrix(-0.8172 -0.5765 -0.5765 0.8172 1323.6102 3129.7954)">
		<stop  offset="0" style="stop-color:#FFFFFF;stop-opacity:0.8"/>
		<stop  offset="1" style="stop-color:#FFFFFF;stop-opacity:0"/>
	</linearGradient>
	<polygon class="cs14" points="438.1,239.8 338.2,232.2 368.9,171.4 439.1,236.6 	"/>
	
		<radialGradient id="SVGCSID_4_" cx="3224.3801" cy="-1505.4506" r="40.8846" gradientTransform="matrix(-0.6845 -0.4827 -0.4801 0.6807 1836.5179 2782.4661)" gradientUnits="userSpaceOnUse">
		<stop  offset="0" style="stop-color:#FFFFFF;stop-opacity:0.5"/>
		<stop  offset="1" style="stop-color:#FFFFFF;stop-opacity:5.000000e-02"/>
	</radialGradient>
	<path class="cs15" d="M324.4,181.5c10.8-15.4,32.2-19,47.6-8.1c15.4,10.9,19.2,32.2,8.4,47.6c-10.8,15.4-32.2,19-47.6,8.1
		C317.4,218.1,313.6,196.8,324.4,181.5z"/>
</g>
<polygon class="cs4" points="334.7,282.6 334.4,279.4 334,279.5 333.9,279.6 333.9,278.2 333.5,276.3 333.2,271.3 332.7,269.7 
	332.2,268.4 331.5,269.1 331,272.5 330.7,279.4 330.5,281.2 330.3,281.4 330.2,281.5 330.1,281.5 329.9,281.6 329.7,281.7 
	329.4,281.1 329.1,281.9 329.1,281.9 329,282.2 328.7,283.4 328.7,283.5 328.2,285.4 328,290.6 327.7,291.4 327.3,292.2 
	327.4,295.5 327.8,295.5 328.1,295.5 328.6,295.5 328.7,299.6 329.4,301.2 329.9,306.1 330.4,307.4 331,308.5 331.7,307.4 
	332,303.8 331.9,296.9 332,295.5 332.4,295.5 332.8,295.5 333,294.4 333.2,294.6 333.7,292 333.7,291.9 334.2,289.8 334.2,284.6 
	334.4,283.6 "/>
<polygon class="cs4" points="289.5,381.8 288.2,379.8 286.8,377.7 286.1,374.5 285.5,372.1 282.9,370.5 281.1,369.4 277.8,369.8 
	274.5,364.8 275.6,369.7 275.7,376.2 282,384.5 286.6,383.6 287.7,385.2 "/>
<g>
	<path class="cs16" d="M437.3,229.3c0.7,0.1,1.3-0.4,1.4-1.1c0.1-0.7-0.4-1.3-1.1-1.4c-0.7-0.1-1.3,0.4-1.4,1c0,0,0,0,0,0
		C436.2,228.6,436.7,229.2,437.3,229.3z"/>
	<path class="cs16" d="M437.4,230.7c-0.4-0.1-0.7,0.2-0.8,0.6c-0.1,0.4,0.2,0.7,0.6,0.8c0.4,0.1,0.7-0.2,0.8-0.6
		C438.1,231.1,437.8,230.8,437.4,230.7z"/>
	<path class="cs16" d="M440.8,227.7c1.2,0.2,2.3-0.7,2.5-1.9c0.2-1.2-0.7-2.3-1.9-2.5c0,0,0,0,0,0c-1.2-0.2-2.3,0.7-2.5,1.9
		C438.7,226.4,439.6,227.5,440.8,227.7z"/>
	<path class="cs17" d="M316.2,257.5c-0.3-0.2-30-18.9-30-18.9c0.6-0.3,1.1-0.5,1.8-0.6c0.6,0,2,1.8,2.9,0.9c0.9-0.8,3.1-2.8,3.4-3.1
		s0.6-2.7,1.4-4.6c0.9-2.1,0.8-2.5-0.5-3.9s-6.5-5.9-9-2.5s-4.5,6.1-5.4,6c-0.9-0.1-8-9.7-8.6-10.1c-0.6-0.3-0.9-0.7-3.5,0.3
		c0,0-1.2,0.3-0.2,2.9l1.5,3.6c0,0.1,0,0.2,0.1,0.2l-6.2-4.2c-0.2-0.1-0.6-0.1-0.7,0.1c-0.1,0.2-0.1,0.6,0.1,0.7l7.3,4.9
		c0,0.6-0.2,1-1.2,0.9c-3.3-1.2-6.2-3.4-8.3-6.2c0,0-2.5-2.7-5-2.7c-1,0-2-0.3-2.8-0.9c-2.5-1.9-5-3.7-7.7-5.3
		c-0.3-3-1.1-5.8-2.2-8.6c0,0-1.6-5.7,0.4-9c0,0,1.3-0.8,0.1-2.7c-0.4-1-1.1-1.7-2.1-2.2c-0.7-0.2-0.6-0.4-3.1-2.2
		c-2.5-1.9-7-1.4-4.5,0c2.6,1.4,5,6.3,5,6.3s0.7,2.8-0.8,9.1c0,0-1.9,6.8,1.9,11.1c0.9,1,1.8,2.7,1.9,4c0,0-10.3-0.8-11.8-1.7
		c-1.5-0.8-2.7-7.6-14.3-11.3c-1.5-0.8-2.5-2.3-2.8-4c0,0,0.4-3.2-1.6-3.8c-5.9,0.6-17.5,0.5-14.2,1.4c4.7,1.4,7.5,2.4,7.5,2.4
		s6.6,3.3,8.8,6.3c0,0,8.9,12.7,10.1,14.4c0,0,8,0.9,20.4,6.6c5.8,2.6,7.1,2.6,19.5,11c0,0,6.6,3.5,15.6,5c0,0,2.8,1.3,3.6,1.6
		c0.8,0.3,4.2,1.2,4.9,1.8c0.5,0.5,4.6,3.3,8.7,6.5c1.6,1.1,3.5,1.7,5.4,1.6c0,0,11,0.8,12,1c1.1,0.5,2.2,1,3.3,1.6
		c1.6,1,3.3,1.6,5.1,1.8l9.3,5.3l-13-11.8C318.7,257.1,316.6,257.7,316.2,257.5z M301.1,253.1c-0.6-0.4-1-0.5-1.2-0.8
		c0,0-5.8-7.6-10.4-10h0.3L313,257C312.8,256.9,304.3,255,301.1,253.1z"/>
	<path class="cs17" d="M531,264.5c-1.4-0.5-4.2-1.7-7.7-2.8c-6.5-2-12.6-4.1-13.2-3.6c-1,0.7-0.7,2.2-1.1,3.7
		c-0.4,1.5-4.7,4-7.1,5.3c-2.4,1.3-7.5,5.3-8.5,5.4c-1.1,0.1-2.5-2.3-5.2-4.8c-1.5-1.3-2.2-2-2.3-2.5c0.1,0,0.1-0.1,0.1-0.1
		c0-0.1,0-0.3,0.1-0.4c0.1-0.1,0.5-0.1,0.7-0.2c1.6-0.2,4.7,1,5.4,0.8s1.2,0.1,6.3-3.5c5-3.6,12.6-7.7,12.6-7.7
		c0.8-0.3,1.6-0.3,2.4-0.1c1.6,0.1,3.3-0.3,4.6-1.3c1-0.6,2.2-0.4,3.5,1.7s7.7,6.4,7.7,6.4c0.9,0.4,1.6,0.3,2,0.2
		c0.5-0.2,0.6-0.9,0.2-1.2c-7.1-5.9-11.7-14.7-11.7-14.7c-1-1.6-1.6,0-2.6,1.1s-1.9,0.2-2.3,0.7c-0.4,0.5-2.3,1.1-4.8,2.4
		c-2.5,1.3-10.7,3.2-12.3,4.1c-1.6,0.8-1.7,1.3-3.3,2.8s-2.3-0.1-4.6-0.8c-0.8-0.2-1.6-0.4-2.4-0.6c-0.4-0.1-0.7-0.5-0.6-0.9
		c0.3-0.7,0.6-1.4,0.9-2.1c0.5-1.1-1.4-2.9-1.2-4.2s-0.4-1.8-2-3.3c-1.7-1.5-21.3-12.2-21.9-12.6c-0.6-0.4-4-0.8-5-0.7
		s-3.1-0.8-3.8-1.1c-0.7-0.3-1.1-0.5-2.5,0.6s-0.6,3.5-0.6,4s-0.8,0.8-0.8,0.6c-0.1-0.5-0.2-1-0.3-1.4c0-0.1-0.1-0.2-0.1-0.2
		c-1.6-2.5-4.8-3.5-7.5-2.3c-2,0.6-3.1,3.3-3.3,3.8c-0.2,0.5-0.8,0.2-1.7,1.4c-0.6,1.1-0.6,2.1-0.3,3.2c0.1,0.3,0.3,0.5,0.5,0.7
		c0.4,0.2,1,0.4,1.1,0.8c0.1,0.6,0,0.5-0.8,1c-0.8,0.5,0.8,2.5,0.8,2.9c0,0.4-0.8,0.8-0.8,0.8c-1.3,1.4-2.8,0.4-5.1-0.4
		c-2.7-0.8-5.4-1.4-8.2-1.7h-0.8L410.5,221l0.6-1l-1.7-2.2l-1,0.2l-2.5,2c0,0-0.1,0.6-1.9,1.1c0,0-0.1,0-0.1,0.1
		c-1,0.5-1.8,1.1-2.6,1.9c-0.2,0.2-0.3,0.5-0.1,0.8c0.6,1.2,2.3,4.4,4.1,5.9c0.3,0.2,0.7,0.2,1-0.1l0.7-0.8l0.6-0.8
		c0.2-0.2,0.2-0.6,0-0.8c-0.7-1.1-1.3-2.2-1.9-3.4c-0.1-0.2-0.1-0.4,0-0.6c0.2-0.4,0.5-1,1-1.2c0.3-0.1,0.7,0,0.8,0.3l13.5,22.9
		c-0.2,0.6-0.4,1.1-0.6,1.2c-0.5,0.4-0.2,1.3-0.1,2.3c0.1,1,0.6,2,2.5,2.8c0.6,0.2,1.2,0.3,1.8,0.3c0.3,0,0.5,0.1,0.7,0.3l0.9,1.5
		c0.2,0.3,0.5,0.4,0.8,0.3c0.7-0.1,1.3-0.5,1.7-1.2l-0.1-0.2c1.7,2.1,3.5,4.1,5.4,6c1.6,1.3,2,2.6,2.9,2s5.3-0.7,5.3-0.7
		c3,0.5,6.8-1.2,8-1.8c0.2-0.1,0.5-0.1,0.7,0.1c3.1,2.3,17.3,5.7,19,6.1c0.1,0,0.2,0.1,0.3,0.2c18.5,15.9,21.6,16.1,23.4,17.2
		c1.8,1.1,12.3-10,12.7-10.4c0,0,0,0,0,0l7.7-7c0.1-0.1,0.1-0.1,0.2-0.1c3.6-1.7,13.2,2.8,14.8,3c1,0.2,2,0.2,3,0
		C533.3,266.8,535.1,265.8,531,264.5z M445.2,251.7L445.2,251.7c0,0-6,2.2-7,2.5s-1.3,0.5-2-0.1c-0.7-0.6-3.7-2.9-4.1-3.3
		c-0.4-0.4,3.5,1.7,4.4,1.9s7.5-1.4,8.2-1.4C445.5,251.3,445.7,251.1,445.2,251.7z M481.1,245.7c-2-1.2-17.1-8.5-19.8-9.7
		c-2.6-1.2-3.6-0.5-4.3-0.1c-0.2,0.2-0.6,0.1-0.7-0.1c-0.1-0.1-0.1-0.2-0.1-0.3c1-1.3,1.8-1.4,3.1-1.2c2.2,0.4,21.2,10.7,22.6,11.5
		L481.1,245.7z"/>
</g>
<polygon class="cs16" points="580.7,479.3 514.9,180.5 494.2,130 485.5,129.8 479.5,129.9 459.3,129.7 443.9,127.4 443.8,127.2 
	422.5,126.9 386.7,125.7 354.3,126.4 352.7,126.5 352.7,126.5 332.1,127.6 303.3,129.2 302.1,129.1 283.7,128.2 269.2,127.6 
	266.8,127.5 264.5,127.4 254.2,127 229.3,126.6 204,147.8 132.8,479.3 "/>
</svg>
