<svg xmlns="http://www.w3.org/2000/svg" viewBox="0 0 700 480"><path fill="#fff" id="canvas_background" d="M-1-1h542v482H-1z"/><g><style>.st6{fill:#dfe3ed}.st10{fill:#5e728e}.st32{fill:#162b4d}.st33{fill:#0c0c0c}.st34{fill:#c1a172}.st35{fill:#224372}.st36{fill:#e7c189}.st40{fill:#fff}.st46{fill:#6d86a3}.st51{fill:#28507f}.st52{opacity:.3;fill:#6d86a3}.st56{fill:#f9f9f9}.st93{fill:#16110d}</style><g id="svg_485"><g id="svg_217"><g id="svg_432"><path id="svg_433" d="M-39814.327-104719.538s1 2.4 1 4.6c0 2.2-.8 5.6-.9 7.9 0 2.3 2.2 12.9 4.6 14.5 2.4 1.6 6.5-.6 6.8-.8 0 0-2.2 8.6-.4 11 1.9 2.4 12.4 6.9 14 1.7 1.6-5.2-1.5-25.2-1.2-27 .3-1.8 1.2-3.9 1.2-3.9s-3.8-16-10.6-15.1c-6.7.9-14.1 2.8-14.5 7.1z" class="st36"/><path id="svg_434" d="M-39813.027-104715.938s3.9 4.8 3.9 5.7-.3 2.3.1 5.2 2.3 8.3 3.8 9.7.2 2.6 2.4 1.9c0 0-.3 7.3 2.1 8.4 2.4 1.1 7.6-7.2 6.7-9.7-.8-2.5-3.2-8.7-3.6-10.4s-2.7-7.6-4.6-8.4c-1.9-.8-2.7-1.2-2.7-1.2s-3.2-4.4-4.5-5.1c-1.3-.6-4.3-2.2-3.6 3.9z" class="st34"/><path id="svg_435" d="M-39813.627-104714.038s-3.6-.9-3.4-3c.2-2.1.3-2.7.3-2.7s-2.3-5.6 1.4-7 7.5-4.3 9.8-5.5 6.4-4.8 17.1 1.6c0 0 10.2 5.5 8.7 20.5 0 .5-.2 1-.3 1.4-.6 2.1-2.7 7.7-7.2 11.7 0 0-2.9 2.5-9.2.6 0 0-6.4-4.4-6.5-5.4 0-1 .1-1.8.1-1.8s1.4-6.4-1.6-7.5-2.9 1.1-3.3.5c-.4-.6-.5-.8-.5-.8s-.9-4.7-1.1-4.9-.7-.5-.7-.5-1.5-2.4-2.3-1.3c-1.1 1.4-1.3 4.1-1.3 4.1z" class="st33"/><path id="svg_436" fill="#3f3f3f" opacity=".4" d="M-39813.927-104714.637s-2.1-5.6-1.5-6.7 2.5-3.1 5.2-2.5c2.8.7 4.6 2.9 6.3 5.8 1.7 2.9 9.3 7 10.4 11.2 1.1 4.2 4.8 6.5.5 9.2 0 0-1.7 1.9-4.8 0-.5-.3-1.2-.6-1.8-1.1-1.5-1.2-2.5-1.9-3-2.4-.5-.4-.4-1.3-.3-1.9.4-2.1.8-6.5-1.5-7.8-1.5-.8-2.2-.5-2.6-.2-.3.2-.6.7-.6.7s-1.2.8-1.6-5.4c0-.2-.7-.7-1-.9-.7-.5-1.5-1.6-1.6-1.5-1.9 1-2.1 3.5-2.1 3.5z"/><linearGradient y2=".501" x2="1" y1=".501" id="svg_430"><stop stop-opacity="0" stop-color="#dfe3ed" offset="0"/><stop stop-opacity=".729" stop-color="#dfe3ed" offset=".728"/><stop stop-opacity=".85" stop-color="#dfe3ed" offset=".848"/><stop stop-color="#dfe3ed" offset="1"/></linearGradient><path id="svg_437" d="M-39808.627-104497.238l-77.1 1.1-55.5-25.2-67.6-9.3 135.7-20.2 91.2 10.4-26.7 43.2z" fill="url(#svg_430)"/><linearGradient y2=".499" x2="1" y1=".499" id="svg_429"><stop stop-opacity="0" stop-color="#dfe3ed" offset="0"/><stop stop-opacity=".729" stop-color="#dfe3ed" offset=".627"/><stop stop-opacity=".85" stop-color="#dfe3ed" offset=".731"/><stop stop-color="#dfe3ed" offset="1"/></linearGradient><path id="svg_438" d="M-39846.027-104527.938l-74.6 1.4-22.4-6.6-7.9-5.8-95.3-22.3 177.8 2.7 16.8 2.8 5.6 27.8z" fill="url(#svg_429)"/><path id="svg_439" d="M-39865.527-104557.837l-.4 6.5s8.6 3.1 13.6 1.6v-6s-3.7 1.9-13.2-2.1z" class="st34"/><path id="svg_440" d="M-39868.027-104556.137v-40.4h20.8v43.3s-9.2 2.9-20.8-2.9z" class="st32"/><path id="svg_441" d="M-39866.027-104552.637s-10.6-.1-14.7-.4c-.6-.1-1.2.4-1.3 1.1-.1 1.2 0 3.3 1.2 5.1 2 3 3.2 6.3 13.8 6.3 0 0 8.6 3.5 11.4 2.4 0 0 7.2-.6 4-11.6l-14.4-2.9z" class="st33"/><path id="svg_442" d="M-39881.727-104552.438s-1.9 9.7 14.3 10.8c0 0 2 .1 3.7.8 1.7.7 9.7 3.3 12.9-1.8 0 0-.7 7.8-12.9 3.3l-3.2-1.2s-9.4 1-13.4-5.5c0 0-2.3-3.4-1.4-6.4z" class="st35"/><path id="svg_443" d="M-39856.827-104577.938l49.9-16.3 50.9 16.8-50.3 17.9-50.5-18.4z" fill="#e23934"/><path id="svg_444" d="M-39925.127-104550.337s-.5 1.5.1 2.5 10.5 8.1 12.6 7.9c2.1-.1 30-30.4 33.4-37.9s7.6-14.4 10.2-14.3c0 0 50.1 16.9 59.8 18 7.9.9 47.2 3.2 39.9-30.7 0 0-24.7-14.7-60-21.9-35.3-7.3-60.1 19.1-60.1 19.1s-18.7 30.7-35.9 57.3z" class="st32"/><path id="svg_445" d="M-39855.727-104615.337l40.1 8s2.5-15.1-20.6-14.5c0 .1-13 1.5-19.5 6.5z" class="st35"/><linearGradient y2="-.248" x2=".736" y1="1.205" x1=".264" id="svg_428"><stop stop-color="#fff" offset="0"/><stop stop-color="#f0f2f6" offset=".195"/><stop stop-color="#e3e7ef" offset=".447"/><stop stop-color="#dfe3ed" offset=".687"/><stop stop-color="#dfe3ed" offset="1"/></linearGradient><path id="svg_446" fill="url(#svg_428)" d="M-39991.027-104635.438l135.4-50.5c.5-.2 1-.2 1.5 0l80.5 26.6c2 .7 2.1 3.5.1 4.3l-134.5 54.1c-.5.2-1.1.2-1.7 0l-81.3-30.2c-2-.7-2-3.5 0-4.3z"/><path id="svg_447" d="M-39814.627-104677.938l10.8-6.7.2.1c.9 2.9 6.5 5.6 9.5 4.4l17.5-10.5s1.7 53.1 1.7 56.9 9 22.4 5.8 28.8c0 0-3.1 3.9-11.6 7-8.8 3.3-21.8 5.7-31.5-1.8 0 0 12.3-24.8-5.7-41.6l3.3-36.6z" class="st51"/><path id="svg_448" d="M-39841.827-104681.837l-119.3 46.9 6.9 2.3 30.5-12.7 26.9 1.4 15-16 46.1-20-6.1-1.9z" class="st52"/><path id="svg_449" d="M-39856.827-104515.438v-62.6l50.5 18.5v62.4l-50.5-18.3z" fill="#c62828"/><path id="svg_450" d="M-39806.327-104559.538l50.3-17.9v62.7l-50.3 17.6v-62.4z" fill="#f44336"/><path id="svg_451" d="M-39927.127-104544.938s-17.7 2.3-20.8 2-3.2 2.4-3 3.6c.2 1.3 4.3 7.5 20.5 8.8 0 0 1.6.5 3.2 1.3s13 5.2 12.3-3.4c0 0-.4-6.2.6-7.7l-12.8-4.6z" class="st33"/><path id="svg_452" d="M-39924.427-104546.637l-2.4 2.9s6 6.5 10 5l3.1-3.1-10.7-4.8z" class="st34"/><path id="svg_453" d="M-39923.427-104548.738s33.5-49.3 36.2-52.1c3.1-3.2 10.3-12.9 20.8-10.8 10.5 2.1 42.1 8.8 54.6 11l16.9 5.4s-7.2 10.2 5.6 12.8c0 0 9.7.9 16.2-.5 0 0-8.4 11.2-34.9 8.9 0 0-13.2-2.1-55.7-16.4 0 0-3.9-1.5-5.1-1.8-1.2-.3-6.4 5.4-7.6 9.2-.4 1.2-2.6 5.4-5.4 9.6-6.3 9.3-17.1 22.6-29.1 32.5 0 .1-10.2-1-12.5-7.8z" class="st51"/><path id="svg_454" d="M-39838.627-104653.038c-.6 0-3.2-6.1-3.9-7.2-.7-1.2-3.7-1-6.3-1.5-1.5-.3-3.5.4-4.8 1-2.4-.1-5.8 0-6.5 1.6-.9 1.8-.4 3.7 2 5.1 1 .6 2.9 1 4.7 1.2.5.5 1.3 1.3 1.9 2.6.9 2 9.3 1 10.4 1.4 1.1.4 11.2 7.3 11.2 7.3l5.2-7.9c-.2.1-13.3-3.5-13.9-3.6z" class="st52"/><path id="svg_455" d="M-39856.227-104661.337s4-2.8 6.8-2.4c2.8.4 6 0 6.8 1.2.8 1.2 3.9 7.7 4.6 7.7.7 0 14.8 3.1 14.8 3.1l-5 9s-11.1-6.9-12.3-7.3c-1.2-.4-10 1.3-11.1-.8-1.1-2.2-2.7-3.2-2.7-3.2s5.6-1.5 5.6-2.2-.9-5.3-7.5-5.1z" class="st34"/><path id="svg_456" d="M-39851.827-104662.238s-8.2-.7-9.4 2.2c-.8 2-.2 4.1 2.5 5.5 2.7 1.4 10.7 1.5 11.1.8.6-1.3 1.4-3.2.5-6-.6-1.4-1.8-1.9-4.7-2.5z" class="st40"/><path id="svg_457" opacity=".5" d="M-39788.027-104659.938c2.5 8.7 1.5 18.4-2.6 26.4-1.5 2.9-3.5 5.7-4.2 9-.6 2.5-.4 5.1-.3 7.7.2 2.9.4 5.7 1 8.5.4 2 1 4 1 6.1 0 2.1-.5 2.5-2.3 3.4l-16.3-2s9.3-26-4.7-38.8c0 0 15.4-30.3 1.9-38.5l10.5-6.5s-.5 2.3 3.2 4.1c0 0 3.3 1.7 5.7 2.2l7.1 18.4z" class="st32"/><path id="svg_458" d="M-39887.227-104621.837l-15.6 6.7c-.4.2-.9.2-1.3 0l-18.7-6.5c-.2-.1-.2-.4 0-.5l56.2-20.2h.2l18 5c.2.1.3.4 0 .5l-38.8 15z" class="st52"/><linearGradient y2=".923" x2=".562" y1=".208" x1=".356" id="svg_427"><stop stop-color="#e5e5e5" offset="0"/><stop stop-color="#f3f3f3" offset=".091"/><stop stop-color="#fcfcfc" offset=".207"/><stop stop-color="#fff" offset=".365"/><stop stop-color="#fff" offset="1"/></linearGradient><path id="svg_459" fill="url(#svg_427)" d="M-39910.327-104666.038c-.1 0-.2.1-.3.3-.5 1.6-4.1 12.5-2.7 15 1.4 2.6 14.7 6.3 16.2 6.7h.3l25.2-10c.4-.2.4-.7 0-.9-3-1-10.5-3.9-10.8-5.8-.3-2 2.6-13 3.4-16.2.1-.4-.3-.7-.6-.5l-30.7 11.4z"/><path id="svg_460" d="M-39887.027-104623.238l-15.6 6.7c-.4.2-.9.2-1.3 0l-18.7-6.5c-.2-.1-.2-.4 0-.5l56.2-20.2h.2l18 5c.2.1.3.4 0 .5l-38.8 15z" class="st40"/><path id="svg_461" d="M-39889.927-104629.938s-1.9 2-1.4 3.1 3.5 5.1 4.8 4.9 2.5-2.9 7.2-2.5c4.8.5 4.1-.2 8.5-1 4.3-.8 44.3 7.1 48.2-3.3 0 0 26.2-39.4 10.1-49-.3-.2-.6-.3-1-.3-1.6-.1-5.8.4-8.4 8.9 0 0-4.5 15.7-4.9 17.5-.4 1.8-6.8 15.9-7.4 15.9-.6 0-29.3 1.5-34.8 2.3-5.5.8-22.4.1-23.6.8-1.1.7-5.8 2.3-5.8 2.3s.2 1.5 2 1.2c1.7-.2 4-.5 4-.6l2.5-.2z" class="st36"/><path id="svg_462" d="M-39958.827-104730.938l.4 80.9c0 2 2 3.3 3.8 2.6l117.1-43.9c1.1-.4 1.8-1.5 1.8-2.6v-78.6c0-1.9-1.9-3.3-3.8-2.7l-117.5 41.6c-1 .4-1.8 1.5-1.8 2.7z" class="st40"/><linearGradient y2=".499" x2="1" y1=".499" id="svg_426"><stop stop-opacity=".8" stop-color="#dfe3ed" offset="0"/><stop stop-opacity=".972" stop-color="#dfe3ed" offset=".858"/><stop stop-color="#dfe3ed" offset="1"/></linearGradient><path id="svg_463" fill="url(#svg_426)" d="M-39954.127-104728.738v73.8c0 .9.9 1.6 1.8 1.3l111.7-40.5c.5-.2.9-.7.9-1.3v-73.1c0-.9-.9-1.6-1.8-1.3l-111.7 39.9c-.6.1-.9.6-.9 1.2z"/><path id="svg_464" d="M-39950.927-104540.938s4.5 7.2 13.7 7.1c0 0 8.1.6 9.7 1.4 1.6.8 10.3 3.6 11.7.9 0 0 .3-.3.4-.8.3-.9.5-2 .6 1.1 0 0 .1 5-6.9 3.7 0 0-3-.3-6.7-2.2 0 0-1.6-.7-2-.7 0 0-13.4-.6-19-6.6-.3-.3-.7-.6-.9-1-.2-.3-.4-.6-.5-.9-.1-.2-.1-.4-.2-.6l.1-1.4z" class="st35"/><path id="svg_465" d="M-39867.427-104725.538c-1.1 0-2.2-.2-3.1-.7-4.7-2.2-6-9.2-3-15.6 1.5-3.1 3.8-5.6 6.5-7l.3.6c-2.6 1.3-4.8 3.7-6.2 6.7-2.9 6-1.7 12.6 2.7 14.7.9.4 1.8.6 2.9.6h.1l-.2.7zm1.1.1l-.2-1.1c2.4-.3 4.9-1.8 6.9-4.2l.9.7c-2.1 2.6-4.9 4.2-7.6 4.6zm6.4 4c-.1 0-.2 0-.2-.1l-2.5-4c-.1-.1 0-.3.1-.4.1-.1.3 0 .4.1l2.3 3.8 2.4-1c.1-.1.3 0 .4.1.1.1 0 .3-.1.4l-2.6 1.1h-.2z" class="st56"/><path id="svg_466" d="M-39848.327-104724.637l-8.9 3.2v-3.2l8.9-3.2v3.2z" class="st46"/><path id="svg_467" d="M-39873.927-104741.938c-.1 0-.2-.1-.3-.2l-.8-2.4-5.3 1.8c-.1.1-.3 0-.4-.2-.1-.1 0-.3.2-.4l5.5-1.9h.2c.1 0 .1.1.1.2l.8 2.7c.3.2.2.3 0 .4zm16.4-5.7c-.2 0-.3-.2-.3-.3l.6-3.7c0-.1.1-.1.1-.2l6.3-4.1c.1-.1.3-.1.4.1.1.1 0 .3-.1.4l-6.2 4.1-.5 3.6c-.1 0-.2.1-.3.1zm-84.9 81.1c-.5 0-.8-.4-.8-.8l-.1-13.4c0-.5.4-.8.8-.8.5 0 .8.4.8.8l.1 13.4c0 .4-.3.8-.8.8zm7.1-2.5c-.5 0-.8-.4-.8-.8l-.1-9c0-.5.4-.8.8-.8.5 0 .8.4.8.8l.1 9c.1.4-.3.8-.8.8zm7.1-2.5c-.5 0-.8-.4-.8-.8l-.1-6.2c0-.5.4-.8.8-.8.5 0 .8.4.8.8l.1 6.2c.1.4-.3.8-.8.8zm7.1-2.6c-.5 0-.8-.4-.8-.8l-.1-12.1c0-.5.4-.8.8-.8.5 0 .8.4.8.8l.1 12.1c.1.4-.3.8-.8.8zm7.2-2.5c-.5 0-.8-.4-.8-.8l-.1-14.4c0-.5.4-.8.8-.8s.8.4.8.8l.1 14.4c0 .4-.4.8-.8.8zm7.1-2.5c-.5 0-.8-.4-.8-.8l-.2-19.5c0-.5.4-.8.8-.8.5 0 .8.4.8.8l.2 19.5c0 .4-.4.8-.8.8zm7.1-2.5c-.5 0-.8-.4-.8-.8l-.1-17.5c0-.5.4-.8.8-.8.5 0 .8.4.8.8l.1 17.5c0 .4-.4.8-.8.8z" class="st56"/><g id="svg_468"><path id="svg_469" d="M-39947.727-104694.038c-.2 0-.5-.2-.5-.4-.1-.3.1-.6.4-.7 2.2-.6 3.5-2.9 3.9-4.8.4-1.7.3-3.4.3-5.2v-1.8c0-2 .2-4.9 1.9-7.1 1-1.3 2.4-2 3.7-1.8 1.5.2 2.5 1.4 3.4 2.6 1.8 2.5 3.4 5.1 4.8 7.8.2.4.5.9.8 1.1.5.3 1.2.1 1.6-.3.5-.5.8-1.1 1.1-1.8.5-1.2.8-2.6 1.1-3.9.7-2.8 1.5-5.7 3.5-8 .7-.8 1.5-1.4 2.3-1.6 2-.5 3.8 1 5.3 2.6 1.7 1.8 3 2.5 4.2 2.1.8-.3 1.4-1 2.1-1.9.8-1 1.7-2.1 3.1-2.3h1.4c1.2-.1 1.9-1.2 2.7-2.3.3-.5.7-1 1-1.4.2-.3.5-.6 1-.7.8-.2 1.6.3 2 .6 1.6 1.2 3.3 2.2 5.1 3.1 1.2.6 2.7 1.2 3.6.4.6-.6.7-1.6.8-2.6 0-.3.3-.6.6-.5.3 0 .5.3.5.6-.1 1.2-.2 2.6-1.2 3.4-1.1 1-2.8.9-4.9-.2-1.8-.9-3.6-2-5.2-3.2-.4-.2-.7-.5-1-.4-.1 0-.3.2-.4.3-.3.4-.6.8-1 1.3-.9 1.3-1.9 2.7-3.6 2.8h-1.3c-.9.1-1.6.9-2.3 1.8-.7.9-1.5 1.9-2.6 2.2-2.2.7-4.1-1-5.4-2.4-1.3-1.3-2.7-2.6-4.2-2.3-.6.1-1.1.5-1.7 1.2-1.8 2-2.5 4.7-3.2 7.5-.3 1.3-.7 2.7-1.2 4-.3.8-.7 1.6-1.4 2.3-.8.7-2 .9-2.9.4-.6-.4-1-1-1.3-1.6-1.4-2.6-3-5.2-4.7-7.6-.7-1-1.6-2-2.6-2.2-1.1-.1-2.1.6-2.7 1.4-1.1 1.5-1.7 3.5-1.7 6.4v1.8c0 1.8.1 3.6-.3 5.4-.5 2.3-2 4.9-4.7 5.6-.1.3-.2.3-.2.3z" class="st46"/></g><g id="svg_470"><path id="svg_471" d="M-39945.927-104702.738c-.9 0-1.7-.3-2.2-1.1-.2-.3-.1-.6.2-.8.3-.2.6-.1.8.2.5.8 1.8.7 2.6.2.9-.6 1.5-1.7 2-2.7l1.6-3c.4-.7 1-1.9 2.3-2.1.5-.1.9 0 1.3.1.5.1.8.2 1.1 0 .3-.2.4-.7.5-1.2l.8-5.2c.1-.7.2-1.5.8-2.1.8-1 2.4-1.2 4.2-.6.2.1.5.2.7.3.9.4 1.8.7 2.6.6 1.3-.2 2.2-1.4 3.1-2.9.9-1.4 2.2-3.1 4.1-3.2 1.1 0 2.2.5 3 1.5.6.7 1 1.4 1.4 2.1l.3.5c1.1 2 2.3 3.3 3.6 4.1 1.6 1 3.6 1.1 5 .4.1-.1.3-.2.4-.2.5-.3 1-.6 1.7-.6 1.2 0 2 .9 2.7 1.7.3.4.6.7.9 1 .9.7 2.2.9 3.2.3 1.2-.7 1.7-2.2 2.1-3.7.3-.9.6-1.9 1.1-2.7 1.1-1.9 3.2-3.2 5.4-3.3.4 0 .6.2.6.5s-.2.6-.5.6c-1.8.1-3.5 1.2-4.4 2.7-.4.7-.7 1.6-1 2.5-.5 1.6-1.1 3.4-2.6 4.3-1.4.8-3.3.7-4.5-.4-.4-.3-.7-.7-1-1.1-.7-.8-1.1-1.3-1.7-1.3-.4 0-.7.2-1.1.5-.2.1-.3.2-.5.3-1.8.9-4.1.8-6.1-.4-1.5-.9-2.8-2.3-4-4.5l-.3-.5c-.4-.7-.8-1.4-1.3-1.9-.7-.7-1.5-1.1-2.2-1.1-1.4 0-2.4 1.4-3.2 2.6-.8 1.3-2 3.1-3.8 3.4-1.2.2-2.2-.2-3.2-.7-.2-.1-.5-.2-.7-.3-1-.4-2.3-.5-2.9.2-.3.4-.4 1-.5 1.6l-.8 5.2c-.1.5-.2 1.5-1 1.9-.6.4-1.3.2-1.9.1-.3-.1-.7-.1-.9-.1-.6.1-1.1.8-1.5 1.6l-1.6 3c-.5 1-1.2 2.4-2.4 3.1-1 .4-1.7.6-2.3.6z" class="st56"/></g><g id="svg_472"><path id="svg_473" d="M-39797.327-104693.038c-1.9 2.8-2.1 7.4-.6 10.4 1.1 2.1 3 4.2 2.5 6.5-.2 1.1-1 2.1-1.6 3.1-1 1.8-1.3 4-.8 5.9.2 1 .7 2 .6 3-.1.7-.3 1.3-.5 1.9-.6 2-.6 4.1-.5 6.2.2 3.6.7 7.3 2.7 10.3 2.9 4.5 8.3 6.6 13.5 8.1 5.9 1.7 12.4 3 18.2.8 3.8-1.4 6.9-4.3 9.1-7.7s3.5-7.3 4.3-11.2c.7-3.7 1-7.5.3-11.3-.3-2-1-3.9-2.2-5.5-1.4-1.7-3.3-2.7-5.2-3.7-4.2-2.3-6.4-2.7-10.2-5.6-1.4-1-3.9-3-4.3-4.7-.3-1.2-1.3-2.7-1.5-3.9-.6-2.5-2.6-4.4-5.2-5.4-2.1-.8-5.7-1.3-7.7-.1l-10.9 2.9z" class="st33"/></g><path id="svg_474" d="M-39889.127-104741.538v3.3l8.7-3.3v-3l-8.7 3zm38-15.8v3.3l8.7-3.3v-3l-8.7 3z" class="st46"/><g id="svg_475"><path id="svg_476" d="M-39858.027-104730.238l-1.5-1.2c.7-.9 1.3-1.8 1.7-2.9 1.3-2.8 1.8-5.8 1.3-8.5-.5-2.5-1.8-4.5-3.7-5.4-1.7-.8-3.7-.8-5.7.1l-.8-1.8c2.5-1.1 5.1-1.1 7.3-.1 2.5 1.2 4.2 3.6 4.7 6.7.6 3.1.1 6.5-1.5 9.7-.4 1.3-1 2.4-1.8 3.4z" class="st56"/></g><path id="svg_477" d="M-39797.427-104696.238v3.1c0 .4.2.7.6.8 1.5.4 5.6 1.2 9.9-1.4.3-.2.4-.4.4-.7v-3.7c0-.2-.2-.3-.4-.2-1.2.8-5.2 3.1-9.6 1.4-.5-.2-.9.2-.9.7z" class="st40"/><path id="svg_478" d="M-39811.927-104669.438s-12.5 37.6-16.7 39-43.3-.2-44.1 1c-.8 1.2-9.6 1.4-11.4 2.4-1.8 1-3.3 3.6-3.2 4.2.1.6.9-.4 4-1s8.9-.2 12.4-1.5c3.6-1.3 34.2 5.9 46.4-.7 0 0 17.7-24 16.9-42.7 0-.1-1.3-7.4-4.3-.7z" class="st34"/><path id="svg_479" d="M-39758.127-104707.738l-17.7-.5-2.9 3.5 25.6.8-5-3.8z" fill="url(#SVGID_39_)"/></g><g id="svg_218"><g id="svg_480" opacity=".4"><path d="M-39924.727-104630.337l-11-4.9c-.7-.3-1.5-.2-2.3.1l-26.2 11.8s-.1 0-.1.1c-.9.5-.9 1.6.1 2.1l11 4.9c.7.3 1.5.2 2.2-.1l26.1-11.7s.1 0 .1-.1c1.1-.6 1.1-1.7.1-2.2z" class="st46" id="svg_425"/><path d="M-39924.727-104630.337l-11-4.9c-.7-.3-1.6-.2-2.3.1l-26.2 11.8s-.1 0-.1.1c-.4.3-.7.7-.7 1.1 0 .4.3.8.8 1.1l11 4.9c.3.1.7.2 1.1.2.4 0 .8-.1 1.2-.3l26.1-11.7s.1 0 .1-.1c.5-.2.8-.7.8-1.1 0-.6-.3-1-.8-1.2zm-26.3 11.6s.3 1.1 0 1.6-1 .6-1 .6c-.4 0-.8 0-1.1-.2l-11-4.9c-.4-.2-.6-.4-.7-.7 0-.4.2-.8.6-1l.1-.1 26.2-11.8c.1-.1.3-.1.5-.2.3-.1 1.1-.2 2 .3.1 0 .1.1.2.1l-15.8 16.3z" class="st46" id="svg_424"/><path d="M-39948.027-104617.938l-.4.2c-.1.1-.2 0-.2-.1s.1-.2.2-.3l.4-.2c.1-.1.2 0 .2.1s-.1.2-.2.3z" class="st46" id="svg_423"/><path id="svg_481" d="M-39947.827-104618.238c-.1.1-.2.2-.2.3 0 .1.1.2.2.1s.2-.2.2-.3c0-.1-.1-.2-.2-.1z" class="st46"/><path d="M-39948.027-104617.938c0-.1.1-.2.2-.3h.1l-.1-.1h-.1c-.1.1-.2.2-.2.3v.1l.2.1-.1-.1z" class="st46" id="svg_422"/><path d="M-39947.227-104618.337c0-.1.1-.2.2-.3l1.2-.5h.1l-.2-.1h-.1l-1.2.5c-.1.1-.2.2-.2.3v.1l.2.1v-.1z" class="st46" id="svg_421"/><path d="M-39947.227-104618.137l-.2-.1s-.1-.1 0-.1c0-.1.1-.3.2-.3l1.2-.5h.2l.2.1h-.1l-1.2.5c-.1 0-.2.2-.2.3-.1 0-.1 0-.1.1zm1.2-1.1l-1.2.5c-.1 0-.2.2-.2.3v.1l.1.1c0-.1.1-.3.2-.3l1.2-.5-.1-.2c.1 0 .1 0 0 0z" class="st46" id="svg_420"/><path d="M-39945.927-104618.738l-1.2.5c-.1.1-.2 0-.2-.1s.1-.2.2-.3l1.2-.5c.1-.1.2 0 .2.1.1.1 0 .3-.2.3z" class="st46" id="svg_419"/><path d="M-39947.127-104618.137s-.1 0 0 0c-.1 0-.1-.1-.1-.2s.1-.3.2-.3l1.2-.5h.2c.1 0 .1.1.1.1 0 .1-.1.3-.2.3l-1.4.6c.1 0 0 0 0 0zm1.4-1c-.1 0-.1 0 0 0l-1.2.5c-.1 0-.2.2-.2.3v.1h.1l1.2-.5c.1 0 .2-.2.2-.3-.1 0-.1-.1-.1-.1z" class="st46" id="svg_418"/><path d="M-39945.327-104619.137c0-.1.1-.2.2-.3l1.2-.5h.1l-.2-.1h-.1l-1.2.5c-.1.1-.2.2-.2.3v.1l.2.1v-.1z" class="st46" id="svg_417"/><path d="M-39943.927-104619.637l-1.2.5c-.1.1-.2 0-.2-.1s.1-.2.2-.3l1.2-.5c.1-.1.2 0 .2.1 0 .2-.1.3-.2.3z" class="st46" id="svg_416"/><path d="M-39945.227-104619.038c-.1 0-.1-.1-.1-.2s.1-.3.2-.3l1.2-.5h.2c.1 0 .1.1.1.1 0 .1-.1.3-.2.3l-1.4.6c.1 0 0 0 0 0zm1.4-1c-.1 0-.1 0 0 0l-1.2.5c-.1 0-.2.2-.2.3v.1h.1l1.2-.5c.1 0 .2-.2.2-.3 0 0-.1 0-.1-.1z" class="st46" id="svg_415"/><path d="M-39964.227-104623.238l26.2-11.7c.7-.3 1.6-.4 2.3-.1l11 4.9c.6.3.6 1 0 1.3l-26.1 11.7c-.7.3-1.5.4-2.2.1l-11-4.9c-.9-.4-.8-1-.2-1.3z" class="st46" id="svg_414"/><path d="M-39952.127-104616.837c-.4 0-.7-.1-1-.2l-11-4.9c-.4-.2-.6-.4-.6-.7 0-.2.2-.5.5-.6l26.2-11.8c.7-.3 1.6-.4 2.3-.1l11 4.9c.3.2.5.5.5.8 0 .2-.2.4-.5.6l-26.1 11.7c-.5.2-.9.3-1.3.3zm-12.1-6.4c-.3.1-.4.4-.4.6 0 .2.2.5.6.6l11 4.9c.7.3 1.5.2 2.2-.1l26.1-11.7c.3-.1.4-.3.5-.5 0-.3-.1-.5-.4-.7l-11-4.9c-.7-.3-1.5-.2-2.2.1l-26.4 11.7z" class="st46" id="svg_413"/><path d="M-39926.727-104629.637l-10.6-4.7c-.5-.2-1.1-.2-1.6.1l-24.5 11c-.4.2-.5.6.1.9l10.6 4.7c.5.2 1.1.2 1.6-.1l24.4-11c.5-.2.5-.7 0-.9z" class="st46" id="svg_412"/><path d="M-39932.927-104632.837c-.1 0-.1-.1 0-.1h.3c.1 0 .1.1 0 .1h-.3z" class="st46" id="svg_411"/><path d="M-39930.027-104631.637l-2.4-1.1c-.1 0-.1-.1 0-.1h.3l2.4 1.1c.1 0 .1.1 0 .1-.1.1-.3.1-.3 0z" class="st46" id="svg_410"/><path d="M-39932.827-104632.938h-.1s-.1 0-.1-.1c0 0 0-.1.1-.1s.2-.1.3 0c0 0 .1 0 .1.1 0 0 0 .1-.1.1h-.2zm.1-.2h-.2.3c0 .1-.1 0-.1 0z" class="st46" id="svg_409"/><path d="M-39929.927-104631.637h-.1l-2.4-1.1s-.1 0-.1-.1c0 0 0-.1.1-.1s.2-.1.3 0l2.4 1.1s.1 0 .1.1c0 0 0 .1-.1.1h-.2zm-2.4-1.3h-.2l2.4 1.1h.3l-2.4-1.1h-.1z" class="st46" id="svg_408"/><path d="M-39954.527-104620.137l-3.7-1.6c-.6-.3-.5-.8.3-1.2.8-.4 2-.4 2.6-.1l3.7 1.6c.6.3.5.8-.3 1.2-.7.3-1.9.4-2.6.1z" class="st46" id="svg_407"/><path d="M-39953.327-104620.337c-.4 0-.8-.1-1.1-.2l-3.7-1.6c-.3-.1-.5-.3-.4-.5 0-.3.3-.5.7-.7.8-.4 2-.4 2.7-.1l3.7 1.6c.3.1.5.3.4.5 0 .3-.3.5-.7.7-.5.2-1.1.3-1.6.3z" class="st46" id="svg_406"/><path d="M-39955.227-104622.637c.2.1.2.3 0 .4-.3.1-.6.1-.8 0l-.3-.1-.5.2h-.1v-.1l1.2-.6h.1l.4.2zm-.7.3c.2.1.4.1.6 0 .2-.1.2-.2 0-.3l-.3-.1-.6.3.3.1z" class="st46" id="svg_405"/><path d="M-39956.127-104621.837c-.1-.1-.1-.1 0 0l1.8-.4h.1v.1l-.7.8h-.1v-.1l.3-.3-.6-.2-.7.1h-.1zm1.7-.3l-.7.1.4.2.3-.3z" class="st46" id="svg_404"/><path d="M-39954.727-104621.238l.5-.1.5-.6h.1l-.4.5 1.1-.2h.1v.1l-1.8.3h-.1z" class="st46" id="svg_403"/><path d="M-39934.227-104620.538c-.3-.1-.5-.1-.7 0-.7.3-1.4 1.8-1.8 3-.1.3-.3.6-.5.7l4.2-1.9c-.2-.9-.6-1.6-1.2-1.8z" class="st46" id="svg_402"/><path d="M-39933.027-104621.438c-1-1.1-1.4-3.3-1.8-5.3-.4-2.3-1.1-5.5-3-6.2-.6-.3-1.2-.3-1.7-.1l-7.8 3.5c.5-.2 1-.1 1.6.1.9.4 1.5 1.3 2 2.4.5 1.2.8 2.6 1 3.8.4 2.3.9 4.7 2.1 5.6.6.5 1.8.8 1.8.8s1.6.7 2.1-.7c.4-1.2 1-2.8 1.9-3l1.8-.9z" class="st46" id="svg_401"/><path d="M-39948.127-104628.938c-.1 0-.3-.1-1-.4-1-.4-1.3-.5-2-.3s-1.3-.1-1.3-.1l-1.8-.8-7.8 3.4 1.8.8s.7.3 1.3.1c.7-.2 1-.1 2 .3l1 .4 2.7 1.2c.3.1.7.3 1 .5.5.3 1.8.6 2.6-1.9.5-1.4 1-2.5 1.5-3.2z" class="st46" id="svg_400"/><path d="M-39922.027-104616.238c-1.1-.5-2.2-1.3-2.5-3.1-.3-1.7-.6-4.2-1.8-4.7-.2-.1-.4-.1-.6 0l-6 2.7-1.9.9c.2-.1.5-.1.7 0 1.2.5 1.5 3 1.8 4.7.3 1.7 1.4 2.6 2.5 3.1s3 1.3 3 1.3l7.9-3.5c-.1-.1-2-.9-3.1-1.4z" class="st46" id="svg_399"/><path d="M-39951.127-104629.238c-.7.2-1.3-.1-1.3-.1l-1.8-.8-7.3 3.2 1.4.6s.7.3 1.3.1 1-.1 2 .3l1 .4 2.7 1.2c.3.1.7.3 1 .5.5.3 1.8.6 2.6-1.9.4-1.2.8-2.2 1.2-2.9-.1-.1-.4-.2-.9-.4-.9-.3-1.2-.4-1.9-.2z" class="st46" id="svg_398"/><path d="M-39938.127-104632.538c-.6-.3-1.2-.3-1.7-.1l-6.4 2.9c.2 0 .4.1.6.2.9.4 1.5 1.3 2 2.4.5 1.2.8 2.6 1 3.8.4 2.3.9 4.7 2.1 5.6.6.5 1.8.8 1.8.8s1.2.5 1.8-.2c.2-.7.6-1.5 1-2.1.3-.7.7-1.2 1.2-1.4l1.3-.6c-.8-1.1-1.2-3.1-1.6-5.1-.5-2.2-1.2-5.4-3.1-6.2z" class="st46" id="svg_397"/><path d="M-39932.427-104615.837c.3 1.7 1.4 2.6 2.5 3.1s3 1.3 3 1.3l7-3.1c-.6-.3-1.7-.8-2.4-1.1-1.1-.5-2.2-1.3-2.5-3.1-.3-1.7-.6-4.2-1.8-4.7-.2-.1-.4-.1-.6 0l-6 2.7-.7.3c.9.7 1.2 3 1.5 4.6z" class="st46" id="svg_396"/><path id="svg_482" d="M-39921.927-104616.337c-1.4-.6-2.2-1.6-2.5-3 0-.2-.1-.3-.1-.5-.3-1.7-.7-3.7-1.7-4.2-.2-.1-.5-.1-.7 0l-6 2.7c-1-1.1-1.4-3.4-1.8-5.3-.4-1.9-1-5.4-3-6.3-.7-.3-1.2-.3-1.7-.1l-7.6 3.4s-.1 0-.1.1c-.5.3-.9.6-.9.7l-.9-.4c-1-.4-1.3-.5-2-.3-.6.2-1.3-.1-1.3-.1l-1.8-.8-8 3.5 1.9.8s.7.3 1.4.1c.6-.2.9-.1 1.9.3l1 .4 2.7 1.2c.3.1.7.3 1 .5.2.1.5.2.8.2.1 0 .3 0 .4-.1.1 0 .3-.1.4-.2l6.9-3.2c.5 1.1.7 2.5 1 3.8.4 2.1.9 4.7 2.1 5.7.6.5 1.7.8 1.8.8 0 0 .4.2.9.2.2 0 .3 0 .5-.1.1 0 .1-.1.2-.1l4.1-1.9c.2.7.4 1.6.5 2.3 0 .2.1.4.1.5.3 1.4 1.1 2.5 2.5 3.1l3 1.3 8-3.6-3-1.4zm-29.1-7.4c-.1 0 0 0 0 0-.4.1-.8 0-1.1-.1-.3-.2-.6-.3-1-.5l-2.7-1.2-1-.4c-1-.4-1.3-.5-2-.3-.6.2-1.3-.1-1.3-.1l-1.6-.7 7.6-3.4 1.7.8s.7.3 1.4.1c.6-.2.9-.1 1.9.3l.9.4c-.5.6-.9 1.6-1.4 3.1-.4 1.1-.8 1.7-1.4 2zm14.1 6.5l-.1.1-.1.1-.1.1h-.1c-.1 0-.1.1-.2.1-.6.2-1.3-.1-1.3-.1s-1.1-.3-1.7-.8c-1.2-.9-1.7-3.5-2.1-5.6-.2-1.3-.5-2.7-1-3.8-.5-1.3-1.2-2.1-2-2.4-.4-.2-.7-.2-1-.2l7.2-3.2c.4-.2 1-.2 1.6.1 2 .8 2.6 4.3 3 6.2.4 1.9.8 4.2 1.8 5.3l-1.7.8c-.8.3-1.4 1.6-1.9 2.9 0 0 0 .1-.1.1l-.1.2-.1.1c0-.1 0 0 0 0zm.1.2s0-.1 0 0c0-.1 0-.1 0 0l.1-.1v-.1s0-.1.1-.1c.6-1.7 1.2-2.8 1.8-2.9h.9l.1.1s0 .1.1.1c.2.3.4.7.6 1.2l-3.7 1.8zm7 4.2c-1.4-.6-2.2-1.6-2.5-3 0-.2-.1-.3-.1-.5-.1-.8-.3-1.6-.5-2.4-.2-.7-.5-1.2-.8-1.5 0 0-.1 0-.1-.1 0 0-.1 0-.1-.1 0 0-.1 0-.1-.1H-39934.327l7.5-3.3c.2-.1.4-.1.5 0 1 .4 1.4 2.5 1.7 4.1 0 .2.1.4.1.5.3 1.4 1.1 2.5 2.5 3.1l2.9 1.3-7.7 3.4-3-1.4z" class="st46"/><path d="M-39926.027-104615.238l-2.4 1.1-.4-.1 2.5-1.1.3.1z" class="st46" id="svg_395"/><path d="M-39928.827-104613.938l-.7.3-.4-.1.8-.4.3.2z" class="st46" id="svg_394"/><path d="M-39925.427-104614.938l-3.5 1.6-.3-.1 3.5-1.6.3.1z" class="st46" id="svg_393"/><path d="M-39926.827-104613.637l-1.5.6-.3-.2 1.4-.6.4.2z" class="st46" id="svg_392"/><path d="M-39926.727-104612.538c-.1.1-.3.1-.4 0-.1-.1-.2-.1 0-.2.1-.1.3-.1.4 0 .1.1.2.2 0 .2zm-.4-.2c-.1 0-.1.1 0 .2s.2.1.3 0c.1 0 .1-.1 0-.2h-.3z" class="st46" id="svg_391"/><path d="M-39926.227-104612.738c-.1.1-.3.1-.4 0-.1-.1-.2-.1 0-.2.1-.1.3-.1.4 0 .1.1.1.2 0 .2zm-.5-.2c-.1 0-.1.1 0 .2s.2.1.3 0c.1 0 .1-.1 0-.2h-.3z" class="st46" id="svg_390"/><path d="M-39925.827-104612.938c-.1.1-.3.1-.4 0-.1-.1-.2-.1 0-.2.1-.1.3-.1.4 0 .1.1.2.2 0 .2zm-.4-.2c-.1 0-.1.1 0 .2s.2.1.3 0c.1 0 .1-.1 0-.2h-.3z" class="st46" id="svg_389"/><path d="M-39925.327-104613.137c-.1.1-.3.1-.4 0-.1-.1-.2-.1 0-.2.1-.1.3-.1.4 0 .1.1.1.2 0 .2zm-.5-.2c-.1 0-.1.1 0 .2s.2.1.3 0c.1 0 .1-.1 0-.2h-.3z" class="st46" id="svg_388"/><path d="M-39924.927-104613.337c-.1.1-.3.1-.4 0-.1-.1-.2-.1 0-.2.1-.1.3-.1.4 0 .1.1.2.2 0 .2zm-.4-.2c-.1 0-.1.1 0 .2s.2.1.3 0c.1 0 .1-.1 0-.2h-.3z" class="st46" id="svg_387"/><path d="M-39924.427-104613.538c-.1.1-.3.1-.4 0-.1-.1-.2-.1 0-.2.1-.1.3-.1.4 0 .1.1.1.2 0 .2zm-.5-.2c-.1 0-.1.1 0 .2s.2.1.3 0c.1 0 .1-.1 0-.2h-.3z" class="st46" id="svg_386"/><path d="M-39923.827-104613.837c-.1.1-.3.1-.4 0-.1-.1-.2-.1 0-.2.1-.1.3-.1.4 0 .1.1.2.2 0 .2zm-.4-.2c-.1 0-.1.1 0 .2s.2.1.3 0c.1 0 .1-.1 0-.2h-.3z" class="st46" id="svg_385"/><path d="M-39923.327-104614.038c-.1.1-.3.1-.4 0-.1-.1-.2-.1 0-.2.1-.1.3-.1.4 0 .1.1.1.2 0 .2zm-.5-.2c-.1 0-.1.1 0 .2s.2.1.3 0c.1 0 .1-.1 0-.2h-.3z" class="st46" id="svg_384"/><path d="M-39922.927-104614.238c-.1.1-.3.1-.4 0-.1-.1-.2-.1 0-.2.1-.1.3-.1.4 0 .1.1.2.2 0 .2zm-.4-.2c-.1 0-.1.1 0 .2s.2.1.3 0c.1 0 .1-.1 0-.2h-.3z" class="st46" id="svg_383"/><path d="M-39922.427-104614.438l-.4-.2h.1l.3.2c.1 0 .1 0 0 0z" class="st46" id="svg_382"/><path d="M-39956.327-104628.438l-3.5 1.6-.4-.2 3.6-1.6.3.2z" class="st46" id="svg_381"/><path d="M-39954.927-104629.038l-1 .4-.4-.1 1-.5.4.2z" class="st46" id="svg_380"/><path d="M-39957.827-104627.238l-1.4.7-.4-.2 1.5-.6.3.1z" class="st46" id="svg_379"/><path d="M-39954.327-104628.738l-3.1 1.4-.4-.2 3.1-1.4.4.2z" class="st46" id="svg_378"/><path d="M-39952.527-104627.837l-2.4 1.1-.4-.2 2.4-1.1.4.2z" class="st46" id="svg_377"/><path d="M-39955.327-104626.637l-.7.4-.4-.2.7-.3.4.1z" class="st46" id="svg_376"/><path d="M-39951.927-104627.538l-3.5 1.6-.3-.2 3.5-1.6.3.2z" class="st46" id="svg_375"/><path d="M-39953.327-104625.738l-.8.3-.3-.1.7-.4.4.2z" class="st46" id="svg_374"/><path d="M-39951.527-104626.038l-1.9.9-.4-.1 2-.9.3.1z" class="st46" id="svg_373"/><path d="M-39953.327-104626.337l-1.5.6-.3-.1 1.4-.7.4.2z" class="st46" id="svg_372"/><path d="M-39949.927-104627.938l-3.1 1.4-.3-.1 3.1-1.4.3.1z" class="st46" id="svg_371"/><path d="M-39942.827-104627.337l-.1-.4 5.7-2.6.1.4-5.7 2.6z" class="st46" id="svg_370"/><path d="M-39942.527-104626.738l-.1-.3 1.6-.8.1.4-1.6.7z" class="st46" id="svg_369"/><path d="M-39940.327-104627.738l-.1-.3 3.4-1.5.1.3-3.4 1.5z" class="st46" id="svg_368"/><path d="M-39942.427-104626.038l-.1-.3 3.4-1.5.1.4-3.4 1.4z" class="st46" id="svg_367"/><path d="M-39942.227-104625.238l-.1-.4 1-.4.1.3-1 .5z" class="st46" id="svg_366"/><path d="M-39940.827-104625.938l-.1-.3 3.2-1.4.1.4-3.2 1.3z" class="st46" id="svg_365"/><path d="M-39941.727-104622.438l-.1-.4 5.5-2.4.1.3-5.5 2.5z" class="st46" id="svg_364"/><path d="M-39941.627-104621.738l-.1-.4 1.7-.7.1.4-1.7.7z" class="st46" id="svg_363"/><path d="M-39939.427-104622.738l-.1-.3 3.3-1.5.1.4-3.3 1.4z" class="st46" id="svg_362"/><path d="M-39932.427-104619.738l-.2-.3 1.7-.8.1.4-1.6.7z" class="st46" id="svg_361"/><path d="M-39930.227-104620.738l-.1-.3 3.3-1.5.1.4-3.3 1.4z" class="st46" id="svg_360"/><path d="M-39932.227-104619.038l-.1-.3 3.3-1.5.2.3-3.4 1.5z" class="st46" id="svg_359"/></g><g id="svg_219"><linearGradient y2=".482" x2=".995" y1=".515" x1=".004" id="svg_358"><stop stop-color="#e5e5e5" offset="0"/><stop stop-color="#f3f3f3" offset=".091"/><stop stop-color="#fcfcfc" offset=".207"/><stop stop-color="#fff" offset=".365"/><stop stop-color="#fff" offset="1"/></linearGradient><path fill="url(#svg_358)" d="M-39925.727-104632.337l-11-4.9c-.7-.3-1.5-.2-2.3.1l-26.2 11.8s-.1 0-.1.1c-.9.5-.9 1.6.1 2.1l11 4.9c.7.3 1.5.2 2.2-.1l26.1-11.7s.1 0 .1-.1c1.1-.6 1.1-1.7.1-2.2z" id="svg_357"/><path d="M-39925.727-104632.337l-11-4.9c-.7-.3-1.6-.2-2.3.1l-26.2 11.8s-.1 0-.1.1c-.4.3-.7.7-.7 1.1 0 .4.3.8.8 1.1l11 4.9c.3.1.7.2 1.1.2.4 0 .8-.1 1.2-.3l26.1-11.7s.1 0 .1-.1c.5-.2.8-.7.8-1.1 0-.6-.3-1-.8-1.2zm-26.3 11.6s.3 1.1 0 1.6-1 .6-1 .6c-.4 0-.8 0-1.1-.2l-11-4.9c-.4-.2-.6-.4-.7-.7 0-.4.2-.8.6-1l.1-.1 26.2-11.8c.1-.1.3-.1.5-.2.3-.1 1.1-.2 2 .3.1 0 .1.1.2.1l-15.8 16.3z" class="st10" id="svg_356"/><g id="svg_349"><linearGradient y2=".424" x2="1.015" y1=".442" x1=".037" id="svg_355"><stop stop-color="#fff" offset="0"/><stop stop-color="#f0f2f6" offset=".195"/><stop stop-color="#e3e7ef" offset=".447"/><stop stop-color="#dfe3ed" offset=".687"/><stop stop-color="#dfe3ed" offset="1"/></linearGradient><path fill="url(#svg_355)" d="M-39949.027-104619.938l-.4.2c-.1.1-.2 0-.2-.1s.1-.2.2-.3l.4-.2c.1-.1.2 0 .2.1s-.1.2-.2.3z" id="svg_354"/><path id="svg_483" d="M-39948.827-104620.238c-.1.1-.2.2-.2.3 0 .1.1.2.2.1s.2-.2.2-.3c0-.1-.1-.2-.2-.1z" class="st40"/><g id="svg_350"><g id="svg_351"><linearGradient y2=".424" x2="1.035" y1=".44" x1="-.207" id="svg_353"><stop stop-color="#fff" offset="0"/><stop stop-color="#f0f2f6" offset=".195"/><stop stop-color="#e3e7ef" offset=".447"/><stop stop-color="#dfe3ed" offset=".687"/><stop stop-color="#dfe3ed" offset="1"/></linearGradient><path fill="url(#svg_353)" d="M-39949.027-104619.938c0-.1.1-.2.2-.3h.1l-.1-.1h-.1c-.1.1-.2.2-.2.3v.1l.2.1-.1-.1z" id="svg_352"/></g></g></g><g id="svg_337"><g id="svg_343"><g id="svg_344"><linearGradient y2=".498" x2=".994" y1=".525" x1="-.008" id="svg_348"><stop stop-color="#fff" offset="0"/><stop stop-color="#f0f2f6" offset=".195"/><stop stop-color="#e3e7ef" offset=".447"/><stop stop-color="#dfe3ed" offset=".687"/><stop stop-color="#dfe3ed" offset="1"/></linearGradient><path fill="url(#svg_348)" d="M-39948.227-104620.337c0-.1.1-.2.2-.3l1.2-.5h.1l-.2-.1h-.1l-1.2.5c-.1.1-.2.2-.2.3v.1l.2.1v-.1z" id="svg_347"/><linearGradient y2=".437" x2=".969" y1=".471" x1="-.018" id="svg_346"><stop stop-color="#fff" offset="0"/><stop stop-color="#f0f2f6" offset=".195"/><stop stop-color="#e3e7ef" offset=".447"/><stop stop-color="#dfe3ed" offset=".687"/><stop stop-color="#dfe3ed" offset="1"/></linearGradient><path fill="url(#svg_346)" d="M-39948.227-104620.137l-.2-.1s-.1-.1 0-.1c0-.1.1-.3.2-.3l1.2-.5h.2l.2.1h-.1l-1.2.5c-.1 0-.2.2-.2.3-.1 0-.1 0-.1.1zm1.2-1.1l-1.2.5c-.1 0-.2.2-.2.3v.1l.1.1c0-.1.1-.3.2-.3l1.2-.5-.1-.2c.1 0 .1 0 0 0z" id="svg_345"/></g></g><g id="svg_340"><g id="svg_341"><path d="M-39946.927-104620.738l-1.2.5c-.1.1-.2 0-.2-.1s.1-.2.2-.3l1.2-.5c.1-.1.2 0 .2.1.1.1 0 .3-.2.3z" class="st40" id="svg_342"/></g></g><g id="svg_338"><path d="M-39948.127-104620.137s-.1 0 0 0c-.1 0-.1-.1-.1-.2s.1-.3.2-.3l1.2-.5h.2c.1 0 .1.1.1.1 0 .1-.1.3-.2.3l-1.4.6c.1 0 0 0 0 0zm1.4-1c-.1 0-.1 0 0 0l-1.2.5c-.1 0-.2.2-.2.3v.1h.1l1.2-.5c.1 0 .2-.2.2-.3-.1 0-.1-.1-.1-.1z" class="st10" id="svg_339"/></g></g><g id="svg_327"><g id="svg_333"><g id="svg_334"><linearGradient y2=".43" x2="1.002" y1=".457" x1=".001" id="svg_336"><stop stop-color="#fff" offset="0"/><stop stop-color="#f0f2f6" offset=".195"/><stop stop-color="#e3e7ef" offset=".447"/><stop stop-color="#dfe3ed" offset=".687"/><stop stop-color="#dfe3ed" offset="1"/></linearGradient><path fill="url(#svg_336)" d="M-39946.327-104621.137c0-.1.1-.2.2-.3l1.2-.5h.1l-.2-.1h-.1l-1.2.5c-.1.1-.2.2-.2.3v.1l.2.1v-.1z" id="svg_335"/></g></g><g id="svg_330"><g id="svg_331"><path d="M-39944.927-104621.637l-1.2.5c-.1.1-.2 0-.2-.1s.1-.2.2-.3l1.2-.5c.1-.1.2 0 .2.1 0 .2-.1.3-.2.3z" class="st40" id="svg_332"/></g></g><g id="svg_328"><path d="M-39946.227-104621.038c-.1 0-.1-.1-.1-.2s.1-.3.2-.3l1.2-.5h.2c.1 0 .1.1.1.1 0 .1-.1.3-.2.3l-1.4.6c.1 0 0 0 0 0zm1.4-1c-.1 0-.1 0 0 0l-1.2.5c-.1 0-.2.2-.2.3v.1h.1l1.2-.5c.1 0 .2-.2.2-.3 0 0-.1 0-.1-.1z" class="st10" id="svg_329"/></g></g><g id="svg_325"><path d="M-39965.227-104625.238l26.2-11.7c.7-.3 1.6-.4 2.3-.1l11 4.9c.6.3.6 1 0 1.3l-26.1 11.7c-.7.3-1.5.4-2.2.1l-11-4.9c-.9-.4-.8-1-.2-1.3z" class="st40" id="svg_326"/></g><g id="svg_322"><g id="svg_323"><path d="M-39953.127-104618.837c-.4 0-.7-.1-1-.2l-11-4.9c-.4-.2-.6-.4-.6-.7 0-.2.2-.5.5-.6l26.2-11.8c.7-.3 1.6-.4 2.3-.1l11 4.9c.3.2.5.5.5.8 0 .2-.2.4-.5.6l-26.1 11.7c-.5.2-.9.3-1.3.3zm-12.1-6.4c-.3.1-.4.4-.4.6 0 .2.2.5.6.6l11 4.9c.7.3 1.5.2 2.2-.1l26.1-11.7c.3-.1.4-.3.5-.5 0-.3-.1-.5-.4-.7l-11-4.9c-.7-.3-1.5-.2-2.2.1l-26.4 11.7z" class="st6" id="svg_324"/></g></g><linearGradient y2="-.079" x2=".589" y1="1.077" x1=".41" id="svg_321"><stop stop-color="#fff" offset="0"/><stop stop-color="#f0f2f6" offset=".195"/><stop stop-color="#e3e7ef" offset=".447"/><stop stop-color="#dfe3ed" offset=".687"/><stop stop-color="#dfe3ed" offset="1"/></linearGradient><path fill="url(#svg_321)" d="M-39927.727-104631.637l-10.6-4.7c-.5-.2-1.1-.2-1.6.1l-24.5 11c-.4.2-.5.6.1.9l10.6 4.7c.5.2 1.1.2 1.6-.1l24.4-11c.5-.2.5-.7 0-.9z" id="svg_320"/><g id="svg_309"><g id="svg_317"><linearGradient y2=".116" x2=".99" y1=".182" x1=".067" id="svg_319"><stop stop-color="#fff" offset="0"/><stop stop-color="#f0f2f6" offset=".195"/><stop stop-color="#e3e7ef" offset=".447"/><stop stop-color="#dfe3ed" offset=".687"/><stop stop-color="#dfe3ed" offset="1"/></linearGradient><path fill="url(#svg_319)" d="M-39933.927-104634.837c-.1 0-.1-.1 0-.1h.3c.1 0 .1.1 0 .1h-.3z" id="svg_318"/></g><g id="svg_314"><linearGradient y2=".477" x2=".992" y1=".513" x1="-.033" id="svg_316"><stop stop-color="#fff" offset="0"/><stop stop-color="#f0f2f6" offset=".195"/><stop stop-color="#e3e7ef" offset=".447"/><stop stop-color="#dfe3ed" offset=".687"/><stop stop-color="#dfe3ed" offset="1"/></linearGradient><path fill="url(#svg_316)" d="M-39931.027-104633.637l-2.4-1.1c-.1 0-.1-.1 0-.1h.3l2.4 1.1c.1 0 .1.1 0 .1-.1.1-.3.1-.3 0z" id="svg_315"/></g><g id="svg_312"><path d="M-39933.827-104634.938h-.1s-.1 0-.1-.1c0 0 0-.1.1-.1s.2-.1.3 0c0 0 .1 0 .1.1 0 0 0 .1-.1.1h-.2zm.1-.2h-.2.3c0 .1-.1 0-.1 0z" class="st93" id="svg_313"/></g><g id="svg_310"><path d="M-39930.927-104633.637h-.1l-2.4-1.1s-.1 0-.1-.1c0 0 0-.1.1-.1s.2-.1.3 0l2.4 1.1s.1 0 .1.1c0 0 0 .1-.1.1h-.2zm-2.4-1.3h-.2l2.4 1.1h.3l-2.4-1.1h-.1z" class="st93" id="svg_311"/></g></g><g id="svg_299"><g id="svg_306"><linearGradient y2=".496" x2="1.006" y1=".496" x1=".002" id="svg_308"><stop stop-color="#fff" offset="0"/><stop stop-color="#f0f2f6" offset=".195"/><stop stop-color="#e3e7ef" offset=".447"/><stop stop-color="#dfe3ed" offset=".687"/><stop stop-color="#dfe3ed" offset="1"/></linearGradient><path fill="url(#svg_308)" d="M-39955.527-104622.137l-3.7-1.6c-.6-.3-.5-.8.3-1.2.8-.4 2-.4 2.6-.1l3.7 1.6c.6.3.5.8-.3 1.2-.7.3-1.9.4-2.6.1z" id="svg_307"/></g><g id="svg_304"><path d="M-39954.327-104622.337c-.4 0-.8-.1-1.1-.2l-3.7-1.6c-.3-.1-.5-.3-.4-.5 0-.3.3-.5.7-.7.8-.4 2-.4 2.7-.1l3.7 1.6c.3.1.5.3.4.5 0 .3-.3.5-.7.7-.5.2-1.1.3-1.6.3z" class="st10" id="svg_305"/></g><g id="svg_300"><path d="M-39956.227-104624.637c.2.1.2.3 0 .4-.3.1-.6.1-.8 0l-.3-.1-.5.2h-.1v-.1l1.2-.6h.1l.4.2zm-.7.3c.2.1.4.1.6 0 .2-.1.2-.2 0-.3l-.3-.1-.6.3.3.1z" class="st40" id="svg_303"/><path d="M-39957.127-104623.837c-.1-.1-.1-.1 0 0l1.8-.4h.1v.1l-.7.8h-.1v-.1l.3-.3-.6-.2-.7.1h-.1zm1.7-.3l-.7.1.4.2.3-.3z" class="st40" id="svg_302"/><path d="M-39955.727-104623.238l.5-.1.5-.6h.1l-.4.5 1.1-.2h.1v.1l-1.8.3h-.1z" class="st40" id="svg_301"/></g></g><g id="svg_220"><g id="svg_287"><path d="M-39935.227-104622.538c-.3-.1-.5-.1-.7 0-.7.3-1.4 1.8-1.8 3-.1.3-.3.6-.5.7l4.2-1.9c-.2-.9-.6-1.6-1.2-1.8z" class="st10" id="svg_298"/><g id="svg_288"><path d="M-39934.027-104623.438c-1-1.1-1.4-3.3-1.8-5.3-.4-2.3-1.1-5.5-3-6.2-.6-.3-1.2-.3-1.7-.1l-7.8 3.5c.5-.2 1-.1 1.6.1.9.4 1.5 1.3 2 2.4.5 1.2.8 2.6 1 3.8.4 2.3.9 4.7 2.1 5.6.6.5 1.8.8 1.8.8s1.6.7 2.1-.7c.4-1.2 1-2.8 1.9-3l1.8-.9z" class="st6" id="svg_297"/><path d="M-39949.127-104630.938c-.1 0-.3-.1-1-.4-1-.4-1.3-.5-2-.3s-1.3-.1-1.3-.1l-1.8-.8-7.8 3.4 1.8.8s.7.3 1.3.1c.7-.2 1-.1 2 .3l1 .4 2.7 1.2c.3.1.7.3 1 .5.5.3 1.8.6 2.6-1.9.5-1.4 1-2.5 1.5-3.2z" class="st6" id="svg_296"/><path d="M-39923.027-104618.238c-1.1-.5-2.2-1.3-2.5-3.1-.3-1.7-.6-4.2-1.8-4.7-.2-.1-.4-.1-.6 0l-6 2.7-1.9.9c.2-.1.5-.1.7 0 1.2.5 1.5 3 1.8 4.7.3 1.7 1.4 2.6 2.5 3.1s3 1.3 3 1.3l7.9-3.5c-.1-.1-2-.9-3.1-1.4z" class="st6" id="svg_295"/><linearGradient y2=".497" x2=".994" y1=".529" x1="-.002" id="svg_294"><stop stop-color="#e5e5e5" offset="0"/><stop stop-color="#f3f3f3" offset=".091"/><stop stop-color="#fcfcfc" offset=".207"/><stop stop-color="#fff" offset=".365"/><stop stop-color="#fff" offset="1"/></linearGradient><path fill="url(#svg_294)" d="M-39952.127-104631.238c-.7.2-1.3-.1-1.3-.1l-1.8-.8-7.3 3.2 1.4.6s.7.3 1.3.1 1-.1 2 .3l1 .4 2.7 1.2c.3.1.7.3 1 .5.5.3 1.8.6 2.6-1.9.4-1.2.8-2.2 1.2-2.9-.1-.1-.4-.2-.9-.4-.9-.3-1.2-.4-1.9-.2z" id="svg_293"/><linearGradient y2=".499" x2="1.012" y1=".512" x1="-.023" id="svg_292"><stop stop-color="#e5e5e5" offset="0"/><stop stop-color="#f3f3f3" offset=".091"/><stop stop-color="#fcfcfc" offset=".207"/><stop stop-color="#fff" offset=".365"/><stop stop-color="#fff" offset="1"/></linearGradient><path fill="url(#svg_292)" d="M-39939.127-104634.538c-.6-.3-1.2-.3-1.7-.1l-6.4 2.9c.2 0 .4.1.6.2.9.4 1.5 1.3 2 2.4.5 1.2.8 2.6 1 3.8.4 2.3.9 4.7 2.1 5.6.6.5 1.8.8 1.8.8s1.2.5 1.8-.2c.2-.7.6-1.5 1-2.1.3-.7.7-1.2 1.2-1.4l1.3-.6c-.8-1.1-1.2-3.1-1.6-5.1-.5-2.2-1.2-5.4-3.1-6.2z" id="svg_291"/><linearGradient y2=".493" x2="1.015" y1=".512" x1="-.021" id="svg_290"><stop stop-color="#e5e5e5" offset="0"/><stop stop-color="#f3f3f3" offset=".091"/><stop stop-color="#fcfcfc" offset=".207"/><stop stop-color="#fff" offset=".365"/><stop stop-color="#fff" offset="1"/></linearGradient><path fill="url(#svg_290)" d="M-39933.427-104617.837c.3 1.7 1.4 2.6 2.5 3.1s3 1.3 3 1.3l7-3.1c-.6-.3-1.7-.8-2.4-1.1-1.1-.5-2.2-1.3-2.5-3.1-.3-1.7-.6-4.2-1.8-4.7-.2-.1-.4-.1-.6 0l-6 2.7-.7.3c.9.7 1.2 3 1.5 4.6z" id="svg_289"/><path id="svg_484" d="M-39922.927-104618.337c-1.4-.6-2.2-1.6-2.5-3 0-.2-.1-.3-.1-.5-.3-1.7-.7-3.7-1.7-4.2-.2-.1-.5-.1-.7 0l-6 2.7c-1-1.1-1.4-3.4-1.8-5.3-.4-1.9-1-5.4-3-6.3-.7-.3-1.2-.3-1.7-.1l-7.6 3.4s-.1 0-.1.1c-.5.3-.9.6-.9.7l-.9-.4c-1-.4-1.3-.5-2-.3-.6.2-1.3-.1-1.3-.1l-1.8-.8-8 3.5 1.9.8s.7.3 1.4.1c.6-.2.9-.1 1.9.3l1 .4 2.7 1.2c.3.1.7.3 1 .5.2.1.5.2.8.2.1 0 .3 0 .4-.1.1 0 .3-.1.4-.2l6.9-3.2c.5 1.1.7 2.5 1 3.8.4 2.1.9 4.7 2.1 5.7.6.5 1.7.8 1.8.8 0 0 .4.2.9.2.2 0 .3 0 .5-.1.1 0 .1-.1.2-.1l4.1-1.9c.2.7.4 1.6.5 2.3 0 .2.1.4.1.5.3 1.4 1.1 2.5 2.5 3.1l3 1.3 8-3.6-3-1.4zm-29.1-7.4c-.1 0 0 0 0 0-.4.1-.8 0-1.1-.1-.3-.2-.6-.3-1-.5l-2.7-1.2-1-.4c-1-.4-1.3-.5-2-.3-.6.2-1.3-.1-1.3-.1l-1.6-.7 7.6-3.4 1.7.8s.7.3 1.4.1c.6-.2.9-.1 1.9.3l.9.4c-.5.6-.9 1.6-1.4 3.1-.4 1.1-.8 1.7-1.4 2zm14.1 6.5l-.1.1-.1.1-.1.1h-.1c-.1 0-.1.1-.2.1-.6.2-1.3-.1-1.3-.1s-1.1-.3-1.7-.8c-1.2-.9-1.7-3.5-2.1-5.6-.2-1.3-.5-2.7-1-3.8-.5-1.3-1.2-2.1-2-2.4-.4-.2-.7-.2-1-.2l7.2-3.2c.4-.2 1-.2 1.6.1 2 .8 2.6 4.3 3 6.2.4 1.9.8 4.2 1.8 5.3l-1.7.8c-.8.3-1.4 1.6-1.9 2.9 0 0 0 .1-.1.1l-.1.2-.1.1c0-.1 0 0 0 0zm.1.2s0-.1 0 0c0-.1 0-.1 0 0l.1-.1v-.1s0-.1.1-.1c.6-1.7 1.2-2.8 1.8-2.9h.9l.1.1s0 .1.1.1c.2.3.4.7.6 1.2l-3.7 1.8zm7 4.2c-1.4-.6-2.2-1.6-2.5-3 0-.2-.1-.3-.1-.5-.1-.8-.3-1.6-.5-2.4-.2-.7-.5-1.2-.8-1.5 0 0-.1 0-.1-.1 0 0-.1 0-.1-.1 0 0-.1 0-.1-.1H-39935.327l7.5-3.3c.2-.1.4-.1.5 0 1 .4 1.4 2.5 1.7 4.1 0 .2.1.4.1.5.3 1.4 1.1 2.5 2.5 3.1l2.9 1.3-7.7 3.4-3-1.4z" class="st10"/></g></g><g id="svg_278"><g id="svg_285"><path d="M-39927.027-104617.238l-2.4 1.1-.4-.1 2.5-1.1.3.1z" class="st6" id="svg_286"/></g><g id="svg_283"><path d="M-39929.827-104615.938l-.7.3-.4-.1.8-.4.3.2z" class="st6" id="svg_284"/></g><g id="svg_281"><path d="M-39926.427-104616.938l-3.5 1.6-.3-.1 3.5-1.6.3.1z" class="st6" id="svg_282"/></g><g id="svg_279"><path d="M-39927.827-104615.637l-1.5.6-.3-.2 1.4-.6.4.2z" class="st6" id="svg_280"/></g></g><g id="svg_267"><path d="M-39927.727-104614.538c-.1.1-.3.1-.4 0-.1-.1-.2-.1 0-.2.1-.1.3-.1.4 0 .1.1.2.2 0 .2zm-.4-.2c-.1 0-.1.1 0 .2s.2.1.3 0c.1 0 .1-.1 0-.2h-.3z" class="st6" id="svg_277"/><path d="M-39927.227-104614.738c-.1.1-.3.1-.4 0-.1-.1-.2-.1 0-.2.1-.1.3-.1.4 0 .1.1.1.2 0 .2zm-.5-.2c-.1 0-.1.1 0 .2s.2.1.3 0c.1 0 .1-.1 0-.2h-.3z" class="st6" id="svg_276"/><path d="M-39926.827-104614.938c-.1.1-.3.1-.4 0-.1-.1-.2-.1 0-.2.1-.1.3-.1.4 0 .1.1.2.2 0 .2zm-.4-.2c-.1 0-.1.1 0 .2s.2.1.3 0c.1 0 .1-.1 0-.2h-.3z" class="st6" id="svg_275"/><path d="M-39926.327-104615.137c-.1.1-.3.1-.4 0-.1-.1-.2-.1 0-.2.1-.1.3-.1.4 0 .1.1.1.2 0 .2zm-.5-.2c-.1 0-.1.1 0 .2s.2.1.3 0c.1 0 .1-.1 0-.2h-.3z" class="st6" id="svg_274"/><path d="M-39925.927-104615.337c-.1.1-.3.1-.4 0-.1-.1-.2-.1 0-.2.1-.1.3-.1.4 0 .1.1.2.2 0 .2zm-.4-.2c-.1 0-.1.1 0 .2s.2.1.3 0c.1 0 .1-.1 0-.2h-.3z" class="st6" id="svg_273"/><path d="M-39925.427-104615.538c-.1.1-.3.1-.4 0-.1-.1-.2-.1 0-.2.1-.1.3-.1.4 0 .1.1.1.2 0 .2zm-.5-.2c-.1 0-.1.1 0 .2s.2.1.3 0c.1 0 .1-.1 0-.2h-.3z" class="st6" id="svg_272"/><path d="M-39924.827-104615.837c-.1.1-.3.1-.4 0-.1-.1-.2-.1 0-.2.1-.1.3-.1.4 0 .1.1.2.2 0 .2zm-.4-.2c-.1 0-.1.1 0 .2s.2.1.3 0c.1 0 .1-.1 0-.2h-.3z" class="st6" id="svg_271"/><path d="M-39924.327-104616.038c-.1.1-.3.1-.4 0-.1-.1-.2-.1 0-.2.1-.1.3-.1.4 0 .1.1.1.2 0 .2zm-.5-.2c-.1 0-.1.1 0 .2s.2.1.3 0c.1 0 .1-.1 0-.2h-.3z" class="st6" id="svg_270"/><path d="M-39923.927-104616.238c-.1.1-.3.1-.4 0-.1-.1-.2-.1 0-.2.1-.1.3-.1.4 0 .1.1.2.2 0 .2zm-.4-.2c-.1 0-.1.1 0 .2s.2.1.3 0c.1 0 .1-.1 0-.2h-.3z" class="st6" id="svg_269"/><path d="M-39923.427-104616.438l-.4-.2h.1l.3.2c.1 0 .1 0 0 0z" class="st6" id="svg_268"/></g><g id="svg_265"><path d="M-39957.327-104630.438l-3.5 1.6-.4-.2 3.6-1.6.3.2z" class="st6" id="svg_266"/></g><g id="svg_263"><path d="M-39955.927-104631.038l-1 .4-.4-.1 1-.5.4.2z" class="st6" id="svg_264"/></g><g id="svg_261"><path d="M-39958.827-104629.238l-1.4.7-.4-.2 1.5-.6.3.1z" class="st6" id="svg_262"/></g><g id="svg_259"><path d="M-39955.327-104630.738l-3.1 1.4-.4-.2 3.1-1.4.4.2z" class="st6" id="svg_260"/></g><g id="svg_257"><path d="M-39953.527-104629.837l-2.4 1.1-.4-.2 2.4-1.1.4.2z" class="st6" id="svg_258"/></g><g id="svg_255"><path d="M-39956.327-104628.637l-.7.4-.4-.2.7-.3.4.1z" class="st6" id="svg_256"/></g><g id="svg_253"><path d="M-39952.927-104629.538l-3.5 1.6-.3-.2 3.5-1.6.3.2z" class="st6" id="svg_254"/></g><g id="svg_251"><path d="M-39954.327-104627.738l-.8.3-.3-.1.7-.4.4.2z" class="st6" id="svg_252"/></g><g id="svg_249"><path d="M-39952.527-104628.038l-1.9.9-.4-.1 2-.9.3.1z" class="st6" id="svg_250"/></g><g id="svg_247"><path d="M-39954.327-104628.337l-1.5.6-.3-.1 1.4-.7.4.2z" class="st6" id="svg_248"/></g><g id="svg_245"><path d="M-39950.927-104629.938l-3.1 1.4-.3-.1 3.1-1.4.3.1z" class="st6" id="svg_246"/></g><g id="svg_243"><path d="M-39943.827-104629.337l-.1-.4 5.7-2.6.1.4-5.7 2.6z" class="st6" id="svg_244"/></g><g id="svg_241"><path d="M-39943.527-104628.738l-.1-.3 1.6-.8.1.4-1.6.7z" class="st6" id="svg_242"/></g><g id="svg_239"><path d="M-39941.327-104629.738l-.1-.3 3.4-1.5.1.3-3.4 1.5z" class="st6" id="svg_240"/></g><g id="svg_237"><path d="M-39943.427-104628.038l-.1-.3 3.4-1.5.1.4-3.4 1.4z" class="st6" id="svg_238"/></g><g id="svg_235"><path d="M-39943.227-104627.238l-.1-.4 1-.4.1.3-1 .5z" class="st6" id="svg_236"/></g><g id="svg_233"><path d="M-39941.827-104627.938l-.1-.3 3.2-1.4.1.4-3.2 1.3z" class="st6" id="svg_234"/></g><g id="svg_231"><path d="M-39942.727-104624.438l-.1-.4 5.5-2.4.1.3-5.5 2.5z" class="st6" id="svg_232"/></g><g id="svg_229"><path d="M-39942.627-104623.738l-.1-.4 1.7-.7.1.4-1.7.7z" class="st6" id="svg_230"/></g><g id="svg_227"><path d="M-39940.427-104624.738l-.1-.3 3.3-1.5.1.4-3.3 1.4z" class="st6" id="svg_228"/></g><g id="svg_225"><path d="M-39933.427-104621.738l-.2-.3 1.7-.8.1.4-1.6.7z" class="st6" id="svg_226"/></g><g id="svg_223"><path d="M-39931.227-104622.738l-.1-.3 3.3-1.5.1.4-3.3 1.4z" class="st6" id="svg_224"/></g><g id="svg_221"><path d="M-39933.227-104621.038l-.1-.3 3.3-1.5.2.3-3.4 1.5z" class="st6" id="svg_222"/></g></g></g></g></g></g><style>.st6{fill:#dfe3ed}.st10{fill:#5e728e}.st32{fill:#162b4d}.st33{fill:#0c0c0c}.st34{fill:#c1a172}.st35{fill:#224372}.st36{fill:#e7c189}.st40{fill:#fff}.st46{fill:#6d86a3}.st51{fill:#28507f}.st52{opacity:.3;fill:#6d86a3}.st56{fill:#f9f9f9}.st93{fill:#16110d}</style><g stroke="null" id="svg_970"><g transform="matrix(1.81707 0 0 1.71596 -16304.418 -8951.717)" id="svg_702"><g id="svg_917"><path id="svg_918" d="M9205.17 5273.122s1 2.4 1 4.6c0 2.2-.8 5.6-.9 7.9 0 2.3 2.2 12.9 4.6 14.5 2.4 1.6 6.5-.6 6.8-.8 0 0-2.2 8.6-.4 11 1.9 2.4 12.4 6.9 14 1.7 1.6-5.2-1.5-25.2-1.2-27 .3-1.8 1.2-3.9 1.2-3.9s-3.8-16-10.6-15.1c-6.7.9-14.1 2.8-14.5 7.1z" class="st36"/><path id="svg_919" d="M9206.47 5276.722s3.9 4.8 3.9 5.7-.3 2.3.1 5.2 2.3 8.3 3.8 9.7.2 2.6 2.4 1.9c0 0-.3 7.3 2.1 8.4 2.4 1.1 7.6-7.2 6.7-9.7-.8-2.5-3.2-8.7-3.6-10.4s-2.7-7.6-4.6-8.4c-1.9-.8-2.7-1.2-2.7-1.2s-3.2-4.4-4.5-5.1c-1.3-.6-4.3-2.2-3.6 3.9z" class="st34"/><path id="svg_920" d="M9205.87 5278.622s-3.6-.9-3.4-3c.2-2.1.3-2.7.3-2.7s-2.3-5.6 1.4-7 7.5-4.3 9.8-5.5 6.4-4.8 17.1 1.6c0 0 10.2 5.5 8.7 20.5 0 .5-.2 1-.3 1.4-.6 2.1-2.7 7.7-7.2 11.7 0 0-2.9 2.5-9.2.6 0 0-6.4-4.4-6.5-5.4 0-1 .1-1.8.1-1.8s1.4-6.4-1.6-7.5-2.9 1.1-3.3.5c-.4-.6-.5-.8-.5-.8s-.9-4.7-1.1-4.9-.7-.5-.7-.5-1.5-2.4-2.3-1.3c-1.1 1.4-1.3 4.1-1.3 4.1z" class="st33"/><path id="svg_921" fill="#3f3f3f" opacity=".4" d="M9205.57 5278.022s-2.1-5.6-1.5-6.7 2.5-3.1 5.2-2.5c2.8.7 4.6 2.9 6.3 5.8 1.7 2.9 9.3 7 10.4 11.2 1.1 4.2 4.8 6.5.5 9.2 0 0-1.7 1.9-4.8 0-.5-.3-1.2-.6-1.8-1.1-1.5-1.2-2.5-1.9-3-2.4-.5-.4-.4-1.3-.3-1.9.4-2.1.8-6.5-1.5-7.8-1.5-.8-2.2-.5-2.6-.2-.3.2-.6.7-.6.7s-1.2.8-1.6-5.4c0-.2-.7-.7-1-.9-.7-.5-1.5-1.6-1.6-1.5-1.9 1-2.1 3.5-2.1 3.5z"/><linearGradient y2=".501" x2="1" y1=".501" id="svg_915"><stop stop-opacity="0" stop-color="#dfe3ed" offset="0"/><stop stop-opacity=".729" stop-color="#dfe3ed" offset=".728"/><stop stop-opacity=".85" stop-color="#dfe3ed" offset=".848"/><stop stop-color="#dfe3ed" offset="1"/></linearGradient><path id="svg_922" d="M9210.87 5495.422l-77.1 1.1-55.5-25.2-67.6-9.3 135.7-20.2 91.2 10.4-26.7 43.2z" fill="url(#svg_915)"/><linearGradient y2=".499" x2="1" y1=".499" id="svg_914"><stop stop-opacity="0" stop-color="#dfe3ed" offset="0"/><stop stop-opacity=".729" stop-color="#dfe3ed" offset=".627"/><stop stop-opacity=".85" stop-color="#dfe3ed" offset=".731"/><stop stop-color="#dfe3ed" offset="1"/></linearGradient><path id="svg_923" d="M9173.47 5464.722l-74.6 1.4-22.4-6.6-7.9-5.8-95.3-22.3 177.8 2.7 16.8 2.8 5.6 27.8z" fill="url(#svg_914)"/><path id="svg_924" d="M9153.97 5434.822l-.4 6.5s8.6 3.1 13.6 1.6v-6s-3.7 1.9-13.2-2.1z" class="st34"/><path id="svg_925" d="M9151.47 5436.522v-40.4h20.8v43.3s-9.2 2.9-20.8-2.9z" class="st32"/><path id="svg_926" d="M9153.47 5440.022s-10.6-.1-14.7-.4c-.6-.1-1.2.4-1.3 1.1-.1 1.2 0 3.3 1.2 5.1 2 3 3.2 6.3 13.8 6.3 0 0 8.6 3.5 11.4 2.4 0 0 7.2-.6 4-11.6l-14.4-2.9z" class="st33"/><path id="svg_927" d="M9137.77 5440.222s-1.9 9.7 14.3 10.8c0 0 2 .1 3.7.8 1.7.7 9.7 3.3 12.9-1.8 0 0-.7 7.8-12.9 3.3l-3.2-1.2s-9.4 1-13.4-5.5c0 0-2.3-3.4-1.4-6.4z" class="st35"/><path id="svg_928" d="M9162.67 5414.722l49.9-16.3 50.9 16.8-50.3 17.9-50.5-18.4z" fill="#e23934"/><path id="svg_929" d="M9094.37 5442.322s-.5 1.5.1 2.5 10.5 8.1 12.6 7.9c2.1-.1 30-30.4 33.4-37.9s7.6-14.4 10.2-14.3c0 0 50.1 16.9 59.8 18 7.9.9 47.2 3.2 39.9-30.7 0 0-24.7-14.7-60-21.9-35.3-7.3-60.1 19.1-60.1 19.1s-18.7 30.7-35.9 57.3z" class="st32"/><path id="svg_930" d="M9163.77 5377.322l40.1 8s2.5-15.1-20.6-14.5c0 .1-13 1.5-19.5 6.5z" class="st35"/><linearGradient y2="-.248" x2=".736" y1="1.205" x1=".264" id="svg_913"><stop stop-color="#fff" offset="0"/><stop stop-color="#f0f2f6" offset=".195"/><stop stop-color="#e3e7ef" offset=".447"/><stop stop-color="#dfe3ed" offset=".687"/><stop stop-color="#dfe3ed" offset="1"/></linearGradient><path id="svg_931" fill="url(#svg_913)" d="M9028.47 5357.222l135.4-50.5c.5-.2 1-.2 1.5 0l80.5 26.6c2 .7 2.1 3.5.1 4.3l-134.5 54.1c-.5.2-1.1.2-1.7 0l-81.3-30.2c-2-.7-2-3.5 0-4.3z"/><path id="svg_932" d="M9204.87 5314.722l10.8-6.7.2.1c.9 2.9 6.5 5.6 9.5 4.4l17.5-10.5s1.7 53.1 1.7 56.9 9 22.4 5.8 28.8c0 0-3.1 3.9-11.6 7-8.8 3.3-21.8 5.7-31.5-1.8 0 0 12.3-24.8-5.7-41.6l3.3-36.6z" class="st51"/><path id="svg_933" d="M9177.67 5310.822l-119.3 46.9 6.9 2.3 30.5-12.7 26.9 1.4 15-16 46.1-20-6.1-1.9z" class="st52"/><path id="svg_934" d="M9162.67 5477.222v-62.6l50.5 18.5v62.4l-50.5-18.3z" fill="#c62828"/><path id="svg_935" d="M9213.17 5433.122l50.3-17.9v62.7l-50.3 17.6v-62.4z" fill="#f44336"/><path id="svg_936" d="M9092.37 5447.722s-17.7 2.3-20.8 2-3.2 2.4-3 3.6c.2 1.3 4.3 7.5 20.5 8.8 0 0 1.6.5 3.2 1.3s13 5.2 12.3-3.4c0 0-.4-6.2.6-7.7l-12.8-4.6z" class="st33"/><path id="svg_937" d="M9095.07 5446.022l-2.4 2.9s6 6.5 10 5l3.1-3.1-10.7-4.8z" class="st34"/><path id="svg_938" d="M9096.07 5443.922s33.5-49.3 36.2-52.1c3.1-3.2 10.3-12.9 20.8-10.8 10.5 2.1 42.1 8.8 54.6 11l16.9 5.4s-7.2 10.2 5.6 12.8c0 0 9.7.9 16.2-.5 0 0-8.4 11.2-34.9 8.9 0 0-13.2-2.1-55.7-16.4 0 0-3.9-1.5-5.1-1.8-1.2-.3-6.4 5.4-7.6 9.2-.4 1.2-2.6 5.4-5.4 9.6-6.3 9.3-17.1 22.6-29.1 32.5 0 .1-10.2-1-12.5-7.8z" class="st51"/><path id="svg_939" d="M9180.87 5339.622c-.6 0-3.2-6.1-3.9-7.2-.7-1.2-3.7-1-6.3-1.5-1.5-.3-3.5.4-4.8 1-2.4-.1-5.8 0-6.5 1.6-.9 1.8-.4 3.7 2 5.1 1 .6 2.9 1 4.7 1.2.5.5 1.3 1.3 1.9 2.6.9 2 9.3 1 10.4 1.4 1.1.4 11.2 7.3 11.2 7.3l5.2-7.9c-.2.1-13.3-3.5-13.9-3.6z" class="st52"/><path id="svg_940" d="M9163.27 5331.322s4-2.8 6.8-2.4c2.8.4 6 0 6.8 1.2.8 1.2 3.9 7.7 4.6 7.7.7 0 14.8 3.1 14.8 3.1l-5 9s-11.1-6.9-12.3-7.3c-1.2-.4-10 1.3-11.1-.8-1.1-2.2-2.7-3.2-2.7-3.2s5.6-1.5 5.6-2.2-.9-5.3-7.5-5.1z" class="st34"/><path id="svg_941" d="M9167.67 5330.422s-8.2-.7-9.4 2.2c-.8 2-.2 4.1 2.5 5.5 2.7 1.4 10.7 1.5 11.1.8.6-1.3 1.4-3.2.5-6-.6-1.4-1.8-1.9-4.7-2.5z" class="st40"/><path id="svg_942" opacity=".5" d="M9231.47 5332.722c2.5 8.7 1.5 18.4-2.6 26.4-1.5 2.9-3.5 5.7-4.2 9-.6 2.5-.4 5.1-.3 7.7.2 2.9.4 5.7 1 8.5.4 2 1 4 1 6.1 0 2.1-.5 2.5-2.3 3.4l-16.3-2s9.3-26-4.7-38.8c0 0 15.4-30.3 1.9-38.5l10.5-6.5s-.5 2.3 3.2 4.1c0 0 3.3 1.7 5.7 2.2l7.1 18.4z" class="st32"/><path id="svg_943" d="M9132.27 5370.822l-15.6 6.7c-.4.2-.9.2-1.3 0l-18.7-6.5c-.2-.1-.2-.4 0-.5l56.2-20.2h.2l18 5c.2.1.3.4 0 .5l-38.8 15z" class="st52"/><linearGradient y2=".923" x2=".562" y1=".208" x1=".356" id="svg_912"><stop stop-color="#e5e5e5" offset="0"/><stop stop-color="#f3f3f3" offset=".091"/><stop stop-color="#fcfcfc" offset=".207"/><stop stop-color="#fff" offset=".365"/><stop stop-color="#fff" offset="1"/></linearGradient><path id="svg_944" fill="url(#svg_912)" d="M9109.17 5326.622c-.1 0-.2.1-.3.3-.5 1.6-4.1 12.5-2.7 15 1.4 2.6 14.7 6.3 16.2 6.7h.3l25.2-10c.4-.2.4-.7 0-.9-3-1-10.5-3.9-10.8-5.8-.3-2 2.6-13 3.4-16.2.1-.4-.3-.7-.6-.5l-30.7 11.4z"/><path id="svg_945" d="M9132.47 5369.422l-15.6 6.7c-.4.2-.9.2-1.3 0l-18.7-6.5c-.2-.1-.2-.4 0-.5l56.2-20.2h.2l18 5c.2.1.3.4 0 .5l-38.8 15z" class="st40"/><path id="svg_946" d="M9129.57 5362.722s-1.9 2-1.4 3.1 3.5 5.1 4.8 4.9 2.5-2.9 7.2-2.5c4.8.5 4.1-.2 8.5-1 4.3-.8 44.3 7.1 48.2-3.3 0 0 26.2-39.4 10.1-49-.3-.2-.6-.3-1-.3-1.6-.1-5.8.4-8.4 8.9 0 0-4.5 15.7-4.9 17.5-.4 1.8-6.8 15.9-7.4 15.9-.6 0-29.3 1.5-34.8 2.3-5.5.8-22.4.1-23.6.8-1.1.7-5.8 2.3-5.8 2.3s.2 1.5 2 1.2c1.7-.2 4-.5 4-.6l2.5-.2z" class="st36"/><path id="svg_947" d="M9060.67 5261.722l.4 80.9c0 2 2 3.3 3.8 2.6l117.1-43.9c1.1-.4 1.8-1.5 1.8-2.6v-78.6c0-1.9-1.9-3.3-3.8-2.7l-117.5 41.6c-1 .4-1.8 1.5-1.8 2.7z" class="st40"/><linearGradient y2=".499" x2="1" y1=".499" id="svg_911"><stop stop-opacity=".8" stop-color="#dfe3ed" offset="0"/><stop stop-opacity=".972" stop-color="#dfe3ed" offset=".858"/><stop stop-color="#dfe3ed" offset="1"/></linearGradient><path id="svg_948" fill="url(#svg_911)" d="M9065.37 5263.922v73.8c0 .9.9 1.6 1.8 1.3l111.7-40.5c.5-.2.9-.7.9-1.3v-73.1c0-.9-.9-1.6-1.8-1.3l-111.7 39.9c-.6.1-.9.6-.9 1.2z"/><path id="svg_949" d="M9068.57 5451.722s4.5 7.2 13.7 7.1c0 0 8.1.6 9.7 1.4 1.6.8 10.3 3.6 11.7.9 0 0 .3-.3.4-.8.3-.9.5-2 .6 1.1 0 0 .1 5-6.9 3.7 0 0-3-.3-6.7-2.2 0 0-1.6-.7-2-.7 0 0-13.4-.6-19-6.6-.3-.3-.7-.6-.9-1-.2-.3-.4-.6-.5-.9-.1-.2-.1-.4-.2-.6l.1-1.4z" class="st35"/><path id="svg_950" d="M9152.07 5267.122c-1.1 0-2.2-.2-3.1-.7-4.7-2.2-6-9.2-3-15.6 1.5-3.1 3.8-5.6 6.5-7l.3.6c-2.6 1.3-4.8 3.7-6.2 6.7-2.9 6-1.7 12.6 2.7 14.7.9.4 1.8.6 2.9.6h.1l-.2.7zm1.1.1l-.2-1.1c2.4-.3 4.9-1.8 6.9-4.2l.9.7c-2.1 2.6-4.9 4.2-7.6 4.6zm6.4 4c-.1 0-.2 0-.2-.1l-2.5-4c-.1-.1 0-.3.1-.4.1-.1.3 0 .4.1l2.3 3.8 2.4-1c.1-.1.3 0 .4.1.1.1 0 .3-.1.4l-2.6 1.1h-.2z" class="st56"/><path id="svg_951" d="M9171.17 5268.022l-8.9 3.2v-3.2l8.9-3.2v3.2z" class="st46"/><path id="svg_952" d="M9145.57 5250.722c-.1 0-.2-.1-.3-.2l-.8-2.4-5.3 1.8c-.1.1-.3 0-.4-.2-.1-.1 0-.3.2-.4l5.5-1.9h.2c.1 0 .1.1.1.2l.8 2.7c.3.2.2.3 0 .4zm16.4-5.7c-.2 0-.3-.2-.3-.3l.6-3.7c0-.1.1-.1.1-.2l6.3-4.1c.1-.1.3-.1.4.1.1.1 0 .3-.1.4l-6.2 4.1-.5 3.6c-.1 0-.2.1-.3.1zm-84.9 81.1c-.5 0-.8-.4-.8-.8l-.1-13.4c0-.5.4-.8.8-.8.5 0 .8.4.8.8l.1 13.4c0 .4-.3.8-.8.8zm7.1-2.5c-.5 0-.8-.4-.8-.8l-.1-9c0-.5.4-.8.8-.8.5 0 .8.4.8.8l.1 9c.1.4-.3.8-.8.8zm7.1-2.5c-.5 0-.8-.4-.8-.8l-.1-6.2c0-.5.4-.8.8-.8.5 0 .8.4.8.8l.1 6.2c.1.4-.3.8-.8.8zm7.1-2.6c-.5 0-.8-.4-.8-.8l-.1-12.1c0-.5.4-.8.8-.8.5 0 .8.4.8.8l.1 12.1c.1.4-.3.8-.8.8zm7.2-2.5c-.5 0-.8-.4-.8-.8l-.1-14.4c0-.5.4-.8.8-.8s.8.4.8.8l.1 14.4c0 .4-.4.8-.8.8zm7.1-2.5c-.5 0-.8-.4-.8-.8l-.2-19.5c0-.5.4-.8.8-.8.5 0 .8.4.8.8l.2 19.5c0 .4-.4.8-.8.8zm7.1-2.5c-.5 0-.8-.4-.8-.8l-.1-17.5c0-.5.4-.8.8-.8.5 0 .8.4.8.8l.1 17.5c0 .4-.4.8-.8.8z" class="st56"/><g id="svg_953"><path id="svg_954" d="M9071.77 5298.622c-.2 0-.5-.2-.5-.4-.1-.3.1-.6.4-.7 2.2-.6 3.5-2.9 3.9-4.8.4-1.7.3-3.4.3-5.2v-1.8c0-2 .2-4.9 1.9-7.1 1-1.3 2.4-2 3.7-1.8 1.5.2 2.5 1.4 3.4 2.6 1.8 2.5 3.4 5.1 4.8 7.8.2.4.5.9.8 1.1.5.3 1.2.1 1.6-.3.5-.5.8-1.1 1.1-1.8.5-1.2.8-2.6 1.1-3.9.7-2.8 1.5-5.7 3.5-8 .7-.8 1.5-1.4 2.3-1.6 2-.5 3.8 1 5.3 2.6 1.7 1.8 3 2.5 4.2 2.1.8-.3 1.4-1 2.1-1.9.8-1 1.7-2.1 3.1-2.3h1.4c1.2-.1 1.9-1.2 2.7-2.3.3-.5.7-1 1-1.4.2-.3.5-.6 1-.7.8-.2 1.6.3 2 .6 1.6 1.2 3.3 2.2 5.1 3.1 1.2.6 2.7 1.2 3.6.4.6-.6.7-1.6.8-2.6 0-.3.3-.6.6-.5.3 0 .5.3.5.6-.1 1.2-.2 2.6-1.2 3.4-1.1 1-2.8.9-4.9-.2-1.8-.9-3.6-2-5.2-3.2-.4-.2-.7-.5-1-.4-.1 0-.3.2-.4.3-.3.4-.6.8-1 1.3-.9 1.3-1.9 2.7-3.6 2.8h-1.3c-.9.1-1.6.9-2.3 1.8-.7.9-1.5 1.9-2.6 2.2-2.2.7-4.1-1-5.4-2.4-1.3-1.3-2.7-2.6-4.2-2.3-.6.1-1.1.5-1.7 1.2-1.8 2-2.5 4.7-3.2 7.5-.3 1.3-.7 2.7-1.2 4-.3.8-.7 1.6-1.4 2.3-.8.7-2 .9-2.9.4-.6-.4-1-1-1.3-1.6-1.4-2.6-3-5.2-4.7-7.6-.7-1-1.6-2-2.6-2.2-1.1-.1-2.1.6-2.7 1.4-1.1 1.5-1.7 3.5-1.7 6.4v1.8c0 1.8.1 3.6-.3 5.4-.5 2.3-2 4.9-4.7 5.6-.1.3-.2.3-.2.3z" class="st46"/></g><g id="svg_955"><path id="svg_956" d="M9073.57 5289.922c-.9 0-1.7-.3-2.2-1.1-.2-.3-.1-.6.2-.8.3-.2.6-.1.8.2.5.8 1.8.7 2.6.2.9-.6 1.5-1.7 2-2.7l1.6-3c.4-.7 1-1.9 2.3-2.1.5-.1.9 0 1.3.1.5.1.8.2 1.1 0 .3-.2.4-.7.5-1.2l.8-5.2c.1-.7.2-1.5.8-2.1.8-1 2.4-1.2 4.2-.6.2.1.5.2.7.3.9.4 1.8.7 2.6.6 1.3-.2 2.2-1.4 3.1-2.9.9-1.4 2.2-3.1 4.1-3.2 1.1 0 2.2.5 3 1.5.6.7 1 1.4 1.4 2.1l.3.5c1.1 2 2.3 3.3 3.6 4.1 1.6 1 3.6 1.1 5 .4.1-.1.3-.2.4-.2.5-.3 1-.6 1.7-.6 1.2 0 2 .9 2.7 1.7.3.4.6.7.9 1 .9.7 2.2.9 3.2.3 1.2-.7 1.7-2.2 2.1-3.7.3-.9.6-1.9 1.1-2.7 1.1-1.9 3.2-3.2 5.4-3.3.4 0 .6.2.6.5s-.2.6-.5.6c-1.8.1-3.5 1.2-4.4 2.7-.4.7-.7 1.6-1 2.5-.5 1.6-1.1 3.4-2.6 4.3-1.4.8-3.3.7-4.5-.4-.4-.3-.7-.7-1-1.1-.7-.8-1.1-1.3-1.7-1.3-.4 0-.7.2-1.1.5-.2.1-.3.2-.5.3-1.8.9-4.1.8-6.1-.4-1.5-.9-2.8-2.3-4-4.5l-.3-.5c-.4-.7-.8-1.4-1.3-1.9-.7-.7-1.5-1.1-2.2-1.1-1.4 0-2.4 1.4-3.2 2.6-.8 1.3-2 3.1-3.8 3.4-1.2.2-2.2-.2-3.2-.7-.2-.1-.5-.2-.7-.3-1-.4-2.3-.5-2.9.2-.3.4-.4 1-.5 1.6l-.8 5.2c-.1.5-.2 1.5-1 1.9-.6.4-1.3.2-1.9.1-.3-.1-.7-.1-.9-.1-.6.1-1.1.8-1.5 1.6l-1.6 3c-.5 1-1.2 2.4-2.4 3.1-1 .4-1.7.6-2.3.6z" class="st56"/></g><g id="svg_957"><path id="svg_958" d="M9222.17 5299.622c-1.9 2.8-2.1 7.4-.6 10.4 1.1 2.1 3 4.2 2.5 6.5-.2 1.1-1 2.1-1.6 3.1-1 1.8-1.3 4-.8 5.9.2 1 .7 2 .6 3-.1.7-.3 1.3-.5 1.9-.6 2-.6 4.1-.5 6.2.2 3.6.7 7.3 2.7 10.3 2.9 4.5 8.3 6.6 13.5 8.1 5.9 1.7 12.4 3 18.2.8 3.8-1.4 6.9-4.3 9.1-7.7s3.5-7.3 4.3-11.2c.7-3.7 1-7.5.3-11.3-.3-2-1-3.9-2.2-5.5-1.4-1.7-3.3-2.7-5.2-3.7-4.2-2.3-6.4-2.7-10.2-5.6-1.4-1-3.9-3-4.3-4.7-.3-1.2-1.3-2.7-1.5-3.9-.6-2.5-2.6-4.4-5.2-5.4-2.1-.8-5.7-1.3-7.7-.1l-10.9 2.9z" class="st33"/></g><path id="svg_959" d="M9130.37 5251.122v3.3l8.7-3.3v-3l-8.7 3zm38-15.8v3.3l8.7-3.3v-3l-8.7 3z" class="st46"/><g id="svg_960"><path id="svg_961" d="M9161.47 5262.422l-1.5-1.2c.7-.9 1.3-1.8 1.7-2.9 1.3-2.8 1.8-5.8 1.3-8.5-.5-2.5-1.8-4.5-3.7-5.4-1.7-.8-3.7-.8-5.7.1l-.8-1.8c2.5-1.1 5.1-1.1 7.3-.1 2.5 1.2 4.2 3.6 4.7 6.7.6 3.1.1 6.5-1.5 9.7-.4 1.3-1 2.4-1.8 3.4z" class="st56"/></g><path id="svg_962" d="M9222.07 5296.422v3.1c0 .4.2.7.6.8 1.5.4 5.6 1.2 9.9-1.4.3-.2.4-.4.4-.7v-3.7c0-.2-.2-.3-.4-.2-1.2.8-5.2 3.1-9.6 1.4-.5-.2-.9.2-.9.7z" class="st40"/><path id="svg_963" d="M9207.57 5323.222s-12.5 37.6-16.7 39-43.3-.2-44.1 1c-.8 1.2-9.6 1.4-11.4 2.4-1.8 1-3.3 3.6-3.2 4.2.1.6.9-.4 4-1s8.9-.2 12.4-1.5c3.6-1.3 34.2 5.9 46.4-.7 0 0 17.7-24 16.9-42.7 0-.1-1.3-7.4-4.3-.7z" class="st34"/><path id="svg_964" d="M9261.37 5284.922l-17.7-.5-2.9 3.5 25.6.8-5-3.8z" fill="url(#SVGID_39_)"/></g><g id="svg_703"><g id="svg_965" opacity=".4"><path d="M9094.77 5362.322l-11-4.9c-.7-.3-1.5-.2-2.3.1l-26.2 11.8s-.1 0-.1.1c-.9.5-.9 1.6.1 2.1l11 4.9c.7.3 1.5.2 2.2-.1l26.1-11.7s.1 0 .1-.1c1.1-.6 1.1-1.7.1-2.2z" class="st46" id="svg_910"/><path d="M9094.77 5362.322l-11-4.9c-.7-.3-1.6-.2-2.3.1l-26.2 11.8s-.1 0-.1.1c-.4.3-.7.7-.7 1.1 0 .4.3.8.8 1.1l11 4.9c.3.1.7.2 1.1.2.4 0 .8-.1 1.2-.3l26.1-11.7s.1 0 .1-.1c.5-.2.8-.7.8-1.1 0-.6-.3-1-.8-1.2zm-26.3 11.6s.3 1.1 0 1.6-1 .6-1 .6c-.4 0-.8 0-1.1-.2l-11-4.9c-.4-.2-.6-.4-.7-.7 0-.4.2-.8.6-1l.1-.1 26.2-11.8c.1-.1.3-.1.5-.2.3-.1 1.1-.2 2 .3.1 0 .1.1.2.1l-15.8 16.3z" class="st46" id="svg_909"/><path d="M9071.47 5374.722l-.4.2c-.1.1-.2 0-.2-.1s.1-.2.2-.3l.4-.2c.1-.1.2 0 .2.1s-.1.2-.2.3z" class="st46" id="svg_908"/><path id="svg_966" d="M9071.67 5374.422c-.1.1-.2.2-.2.3 0 .1.1.2.2.1s.2-.2.2-.3c0-.1-.1-.2-.2-.1z" class="st46"/><path d="M9071.47 5374.722c0-.1.1-.2.2-.3h.1l-.1-.1h-.1c-.1.1-.2.2-.2.3v.1l.2.1-.1-.1z" class="st46" id="svg_907"/><path d="M9072.27 5374.322c0-.1.1-.2.2-.3l1.2-.5h.1l-.2-.1h-.1l-1.2.5c-.1.1-.2.2-.2.3v.1l.2.1v-.1z" class="st46" id="svg_906"/><path d="M9072.27 5374.522l-.2-.1s-.1-.1 0-.1c0-.1.1-.3.2-.3l1.2-.5h.2l.2.1h-.1l-1.2.5c-.1 0-.2.2-.2.3-.1 0-.1 0-.1.1zm1.2-1.1l-1.2.5c-.1 0-.2.2-.2.3v.1l.1.1c0-.1.1-.3.2-.3l1.2-.5-.1-.2c.1 0 .1 0 0 0z" class="st46" id="svg_905"/><path d="M9073.57 5373.922l-1.2.5c-.1.1-.2 0-.2-.1s.1-.2.2-.3l1.2-.5c.1-.1.2 0 .2.1.1.1 0 .3-.2.3z" class="st46" id="svg_904"/><path d="M9072.37 5374.522s-.1 0 0 0c-.1 0-.1-.1-.1-.2s.1-.3.2-.3l1.2-.5h.2c.1 0 .1.1.1.1 0 .1-.1.3-.2.3l-1.4.6c.1 0 0 0 0 0zm1.4-1c-.1 0-.1 0 0 0l-1.2.5c-.1 0-.2.2-.2.3v.1h.1l1.2-.5c.1 0 .2-.2.2-.3-.1 0-.1-.1-.1-.1z" class="st46" id="svg_903"/><path d="M9074.17 5373.522c0-.1.1-.2.2-.3l1.2-.5h.1l-.2-.1h-.1l-1.2.5c-.1.1-.2.2-.2.3v.1l.2.1v-.1z" class="st46" id="svg_902"/><path d="M9075.57 5373.022l-1.2.5c-.1.1-.2 0-.2-.1s.1-.2.2-.3l1.2-.5c.1-.1.2 0 .2.1 0 .2-.1.3-.2.3z" class="st46" id="svg_901"/><path d="M9074.27 5373.622c-.1 0-.1-.1-.1-.2s.1-.3.2-.3l1.2-.5h.2c.1 0 .1.1.1.1 0 .1-.1.3-.2.3l-1.4.6c.1 0 0 0 0 0zm1.4-1c-.1 0-.1 0 0 0l-1.2.5c-.1 0-.2.2-.2.3v.1h.1l1.2-.5c.1 0 .2-.2.2-.3 0 0-.1 0-.1-.1z" class="st46" id="svg_900"/><path d="M9055.27 5369.422l26.2-11.7c.7-.3 1.6-.4 2.3-.1l11 4.9c.6.3.6 1 0 1.3l-26.1 11.7c-.7.3-1.5.4-2.2.1l-11-4.9c-.9-.4-.8-1-.2-1.3z" class="st46" id="svg_899"/><path d="M9067.37 5375.822c-.4 0-.7-.1-1-.2l-11-4.9c-.4-.2-.6-.4-.6-.7 0-.2.2-.5.5-.6l26.2-11.8c.7-.3 1.6-.4 2.3-.1l11 4.9c.3.2.5.5.5.8 0 .2-.2.4-.5.6l-26.1 11.7c-.5.2-.9.3-1.3.3zm-12.1-6.4c-.3.1-.4.4-.4.6 0 .2.2.5.6.6l11 4.9c.7.3 1.5.2 2.2-.1l26.1-11.7c.3-.1.4-.3.5-.5 0-.3-.1-.5-.4-.7l-11-4.9c-.7-.3-1.5-.2-2.2.1l-26.4 11.7z" class="st46" id="svg_898"/><path d="M9092.77 5363.022l-10.6-4.7c-.5-.2-1.1-.2-1.6.1l-24.5 11c-.4.2-.5.6.1.9l10.6 4.7c.5.2 1.1.2 1.6-.1l24.4-11c.5-.2.5-.7 0-.9z" class="st46" id="svg_897"/><path d="M9086.57 5359.822c-.1 0-.1-.1 0-.1h.3c.1 0 .1.1 0 .1h-.3z" class="st46" id="svg_896"/><path d="M9089.47 5361.022l-2.4-1.1c-.1 0-.1-.1 0-.1h.3l2.4 1.1c.1 0 .1.1 0 .1-.1.1-.3.1-.3 0z" class="st46" id="svg_895"/><path d="M9086.67 5359.722h-.1s-.1 0-.1-.1c0 0 0-.1.1-.1s.2-.1.3 0c0 0 .1 0 .1.1 0 0 0 .1-.1.1h-.2zm.1-.2h-.2.3c0 .1-.1 0-.1 0z" class="st46" id="svg_894"/><path d="M9089.57 5361.022h-.1l-2.4-1.1s-.1 0-.1-.1c0 0 0-.1.1-.1s.2-.1.3 0l2.4 1.1s.1 0 .1.1c0 0 0 .1-.1.1h-.2zm-2.4-1.3h-.2l2.4 1.1h.3l-2.4-1.1h-.1z" class="st46" id="svg_893"/><path d="M9064.97 5372.522l-3.7-1.6c-.6-.3-.5-.8.3-1.2.8-.4 2-.4 2.6-.1l3.7 1.6c.6.3.5.8-.3 1.2-.7.3-1.9.4-2.6.1z" class="st46" id="svg_892"/><path d="M9066.17 5372.322c-.4 0-.8-.1-1.1-.2l-3.7-1.6c-.3-.1-.5-.3-.4-.5 0-.3.3-.5.7-.7.8-.4 2-.4 2.7-.1l3.7 1.6c.3.1.5.3.4.5 0 .3-.3.5-.7.7-.5.2-1.1.3-1.6.3z" class="st46" id="svg_891"/><path d="M9064.27 5370.022c.2.1.2.3 0 .4-.3.1-.6.1-.8 0l-.3-.1-.5.2h-.1v-.1l1.2-.6h.1l.4.2zm-.7.3c.2.1.4.1.6 0 .2-.1.2-.2 0-.3l-.3-.1-.6.3.3.1z" class="st46" id="svg_890"/><path d="M9063.37 5370.822c-.1-.1-.1-.1 0 0l1.8-.4h.1v.1l-.7.8h-.1v-.1l.3-.3-.6-.2-.7.1h-.1zm1.7-.3l-.7.1.4.2.3-.3z" class="st46" id="svg_889"/><path d="M9064.77 5371.422l.5-.1.5-.6h.1l-.4.5 1.1-.2h.1v.1l-1.8.3h-.1z" class="st46" id="svg_888"/><path d="M9085.27 5372.122c-.3-.1-.5-.1-.7 0-.7.3-1.4 1.8-1.8 3-.1.3-.3.6-.5.7l4.2-1.9c-.2-.9-.6-1.6-1.2-1.8z" class="st46" id="svg_887"/><path d="M9086.47 5371.222c-1-1.1-1.4-3.3-1.8-5.3-.4-2.3-1.1-5.5-3-6.2-.6-.3-1.2-.3-1.7-.1l-7.8 3.5c.5-.2 1-.1 1.6.1.9.4 1.5 1.3 2 2.4.5 1.2.8 2.6 1 3.8.4 2.3.9 4.7 2.1 5.6.6.5 1.8.8 1.8.8s1.6.7 2.1-.7c.4-1.2 1-2.8 1.9-3l1.8-.9z" class="st46" id="svg_886"/><path d="M9071.37 5363.722c-.1 0-.3-.1-1-.4-1-.4-1.3-.5-2-.3s-1.3-.1-1.3-.1l-1.8-.8-7.8 3.4 1.8.8s.7.3 1.3.1c.7-.2 1-.1 2 .3l1 .4 2.7 1.2c.3.1.7.3 1 .5.5.3 1.8.6 2.6-1.9.5-1.4 1-2.5 1.5-3.2z" class="st46" id="svg_885"/><path d="M9097.47 5376.422c-1.1-.5-2.2-1.3-2.5-3.1-.3-1.7-.6-4.2-1.8-4.7-.2-.1-.4-.1-.6 0l-6 2.7-1.9.9c.2-.1.5-.1.7 0 1.2.5 1.5 3 1.8 4.7.3 1.7 1.4 2.6 2.5 3.1s3 1.3 3 1.3l7.9-3.5c-.1-.1-2-.9-3.1-1.4z" class="st46" id="svg_884"/><path d="M9068.37 5363.422c-.7.2-1.3-.1-1.3-.1l-1.8-.8-7.3 3.2 1.4.6s.7.3 1.3.1 1-.1 2 .3l1 .4 2.7 1.2c.3.1.7.3 1 .5.5.3 1.8.6 2.6-1.9.4-1.2.8-2.2 1.2-2.9-.1-.1-.4-.2-.9-.4-.9-.3-1.2-.4-1.9-.2z" class="st46" id="svg_883"/><path d="M9081.37 5360.122c-.6-.3-1.2-.3-1.7-.1l-6.4 2.9c.2 0 .4.1.6.2.9.4 1.5 1.3 2 2.4.5 1.2.8 2.6 1 3.8.4 2.3.9 4.7 2.1 5.6.6.5 1.8.8 1.8.8s1.2.5 1.8-.2c.2-.7.6-1.5 1-2.1.3-.7.7-1.2 1.2-1.4l1.3-.6c-.8-1.1-1.2-3.1-1.6-5.1-.5-2.2-1.2-5.4-3.1-6.2z" class="st46" id="svg_882"/><path d="M9087.07 5376.822c.3 1.7 1.4 2.6 2.5 3.1s3 1.3 3 1.3l7-3.1c-.6-.3-1.7-.8-2.4-1.1-1.1-.5-2.2-1.3-2.5-3.1-.3-1.7-.6-4.2-1.8-4.7-.2-.1-.4-.1-.6 0l-6 2.7-.7.3c.9.7 1.2 3 1.5 4.6z" class="st46" id="svg_881"/><path id="svg_967" d="M9097.57 5376.322c-1.4-.6-2.2-1.6-2.5-3 0-.2-.1-.3-.1-.5-.3-1.7-.7-3.7-1.7-4.2-.2-.1-.5-.1-.7 0l-6 2.7c-1-1.1-1.4-3.4-1.8-5.3-.4-1.9-1-5.4-3-6.3-.7-.3-1.2-.3-1.7-.1l-7.6 3.4s-.1 0-.1.1c-.5.3-.9.6-.9.7l-.9-.4c-1-.4-1.3-.5-2-.3-.6.2-1.3-.1-1.3-.1l-1.8-.8-8 3.5 1.9.8s.7.3 1.4.1c.6-.2.9-.1 1.9.3l1 .4 2.7 1.2c.3.1.7.3 1 .5.2.1.5.2.8.2.1 0 .3 0 .4-.1.1 0 .3-.1.4-.2l6.9-3.2c.5 1.1.7 2.5 1 3.8.4 2.1.9 4.7 2.1 5.7.6.5 1.7.8 1.8.8 0 0 .4.2.9.2.2 0 .3 0 .5-.1.1 0 .1-.1.2-.1l4.1-1.9c.2.7.4 1.6.5 2.3 0 .2.1.4.1.5.3 1.4 1.1 2.5 2.5 3.1l3 1.3 8-3.6-3-1.4zm-29.1-7.4c-.1 0 0 0 0 0-.4.1-.8 0-1.1-.1-.3-.2-.6-.3-1-.5l-2.7-1.2-1-.4c-1-.4-1.3-.5-2-.3-.6.2-1.3-.1-1.3-.1l-1.6-.7 7.6-3.4 1.7.8s.7.3 1.4.1c.6-.2.9-.1 1.9.3l.9.4c-.5.6-.9 1.6-1.4 3.1-.4 1.1-.8 1.7-1.4 2zm14.1 6.5l-.1.1-.1.1-.1.1h-.1c-.1 0-.1.1-.2.1-.6.2-1.3-.1-1.3-.1s-1.1-.3-1.7-.8c-1.2-.9-1.7-3.5-2.1-5.6-.2-1.3-.5-2.7-1-3.8-.5-1.3-1.2-2.1-2-2.4-.4-.2-.7-.2-1-.2l7.2-3.2c.4-.2 1-.2 1.6.1 2 .8 2.6 4.3 3 6.2.4 1.9.8 4.2 1.8 5.3l-1.7.8c-.8.3-1.4 1.6-1.9 2.9 0 0 0 .1-.1.1l-.1.2-.1.1c0-.1 0 0 0 0zm.1.2s0-.1 0 0c0-.1 0-.1 0 0l.1-.1v-.1s0-.1.1-.1c.6-1.7 1.2-2.8 1.8-2.9h.9l.1.1s0 .1.1.1c.2.3.4.7.6 1.2l-3.7 1.8zm7 4.2c-1.4-.6-2.2-1.6-2.5-3 0-.2-.1-.3-.1-.5-.1-.8-.3-1.6-.5-2.4-.2-.7-.5-1.2-.8-1.5 0 0-.1 0-.1-.1 0 0-.1 0-.1-.1 0 0-.1 0-.1-.1H9085.17l7.5-3.3c.2-.1.4-.1.5 0 1 .4 1.4 2.5 1.7 4.1 0 .2.1.4.1.5.3 1.4 1.1 2.5 2.5 3.1l2.9 1.3-7.7 3.4-3-1.4z" class="st46"/><path d="M9093.47 5377.422l-2.4 1.1-.4-.1 2.5-1.1.3.1z" class="st46" id="svg_880"/><path d="M9090.67 5378.722l-.7.3-.4-.1.8-.4.3.2z" class="st46" id="svg_879"/><path d="M9094.07 5377.722l-3.5 1.6-.3-.1 3.5-1.6.3.1z" class="st46" id="svg_878"/><path d="M9092.67 5379.022l-1.5.6-.3-.2 1.4-.6.4.2z" class="st46" id="svg_877"/><path d="M9092.77 5380.122c-.1.1-.3.1-.4 0-.1-.1-.2-.1 0-.2.1-.1.3-.1.4 0 .1.1.2.2 0 .2zm-.4-.2c-.1 0-.1.1 0 .2s.2.1.3 0c.1 0 .1-.1 0-.2h-.3z" class="st46" id="svg_876"/><path d="M9093.27 5379.922c-.1.1-.3.1-.4 0-.1-.1-.2-.1 0-.2.1-.1.3-.1.4 0 .1.1.1.2 0 .2zm-.5-.2c-.1 0-.1.1 0 .2s.2.1.3 0c.1 0 .1-.1 0-.2h-.3z" class="st46" id="svg_875"/><path d="M9093.67 5379.722c-.1.1-.3.1-.4 0-.1-.1-.2-.1 0-.2.1-.1.3-.1.4 0 .1.1.2.2 0 .2zm-.4-.2c-.1 0-.1.1 0 .2s.2.1.3 0c.1 0 .1-.1 0-.2h-.3z" class="st46" id="svg_874"/><path d="M9094.17 5379.522c-.1.1-.3.1-.4 0-.1-.1-.2-.1 0-.2.1-.1.3-.1.4 0 .1.1.1.2 0 .2zm-.5-.2c-.1 0-.1.1 0 .2s.2.1.3 0c.1 0 .1-.1 0-.2h-.3z" class="st46" id="svg_873"/><path d="M9094.57 5379.322c-.1.1-.3.1-.4 0-.1-.1-.2-.1 0-.2.1-.1.3-.1.4 0 .1.1.2.2 0 .2zm-.4-.2c-.1 0-.1.1 0 .2s.2.1.3 0c.1 0 .1-.1 0-.2h-.3z" class="st46" id="svg_872"/><path d="M9095.07 5379.122c-.1.1-.3.1-.4 0-.1-.1-.2-.1 0-.2.1-.1.3-.1.4 0 .1.1.1.2 0 .2zm-.5-.2c-.1 0-.1.1 0 .2s.2.1.3 0c.1 0 .1-.1 0-.2h-.3z" class="st46" id="svg_871"/><path d="M9095.67 5378.822c-.1.1-.3.1-.4 0-.1-.1-.2-.1 0-.2.1-.1.3-.1.4 0 .1.1.2.2 0 .2zm-.4-.2c-.1 0-.1.1 0 .2s.2.1.3 0c.1 0 .1-.1 0-.2h-.3z" class="st46" id="svg_870"/><path d="M9096.17 5378.622c-.1.1-.3.1-.4 0-.1-.1-.2-.1 0-.2.1-.1.3-.1.4 0 .1.1.1.2 0 .2zm-.5-.2c-.1 0-.1.1 0 .2s.2.1.3 0c.1 0 .1-.1 0-.2h-.3z" class="st46" id="svg_869"/><path d="M9096.57 5378.422c-.1.1-.3.1-.4 0-.1-.1-.2-.1 0-.2.1-.1.3-.1.4 0 .1.1.2.2 0 .2zm-.4-.2c-.1 0-.1.1 0 .2s.2.1.3 0c.1 0 .1-.1 0-.2h-.3z" class="st46" id="svg_868"/><path d="M9097.07 5378.222l-.4-.2h.1l.3.2c.1 0 .1 0 0 0z" class="st46" id="svg_867"/><path d="M9063.17 5364.222l-3.5 1.6-.4-.2 3.6-1.6.3.2z" class="st46" id="svg_866"/><path d="M9064.57 5363.622l-1 .4-.4-.1 1-.5.4.2z" class="st46" id="svg_865"/><path d="M9061.67 5365.422l-1.4.7-.4-.2 1.5-.6.3.1z" class="st46" id="svg_864"/><path d="M9065.17 5363.922l-3.1 1.4-.4-.2 3.1-1.4.4.2z" class="st46" id="svg_863"/><path d="M9066.97 5364.822l-2.4 1.1-.4-.2 2.4-1.1.4.2z" class="st46" id="svg_862"/><path d="M9064.17 5366.022l-.7.4-.4-.2.7-.3.4.1z" class="st46" id="svg_861"/><path d="M9067.57 5365.122l-3.5 1.6-.3-.2 3.5-1.6.3.2z" class="st46" id="svg_860"/><path d="M9066.17 5366.922l-.8.3-.3-.1.7-.4.4.2z" class="st46" id="svg_859"/><path d="M9067.97 5366.622l-1.9.9-.4-.1 2-.9.3.1z" class="st46" id="svg_858"/><path d="M9066.17 5366.322l-1.5.6-.3-.1 1.4-.7.4.2z" class="st46" id="svg_857"/><path d="M9069.57 5364.722l-3.1 1.4-.3-.1 3.1-1.4.3.1z" class="st46" id="svg_856"/><path d="M9076.67 5365.322l-.1-.4 5.7-2.6.1.4-5.7 2.6z" class="st46" id="svg_855"/><path d="M9076.97 5365.922l-.1-.3 1.6-.8.1.4-1.6.7z" class="st46" id="svg_854"/><path d="M9079.17 5364.922l-.1-.3 3.4-1.5.1.3-3.4 1.5z" class="st46" id="svg_853"/><path d="M9077.07 5366.622l-.1-.3 3.4-1.5.1.4-3.4 1.4z" class="st46" id="svg_852"/><path d="M9077.27 5367.422l-.1-.4 1-.4.1.3-1 .5z" class="st46" id="svg_851"/><path d="M9078.67 5366.722l-.1-.3 3.2-1.4.1.4-3.2 1.3z" class="st46" id="svg_850"/><path d="M9077.77 5370.222l-.1-.4 5.5-2.4.1.3-5.5 2.5z" class="st46" id="svg_849"/><path d="M9077.87 5370.922l-.1-.4 1.7-.7.1.4-1.7.7z" class="st46" id="svg_848"/><path d="M9080.07 5369.922l-.1-.3 3.3-1.5.1.4-3.3 1.4z" class="st46" id="svg_847"/><path d="M9087.07 5372.922l-.2-.3 1.7-.8.1.4-1.6.7z" class="st46" id="svg_846"/><path d="M9089.27 5371.922l-.1-.3 3.3-1.5.1.4-3.3 1.4z" class="st46" id="svg_845"/><path d="M9087.27 5373.622l-.1-.3 3.3-1.5.2.3-3.4 1.5z" class="st46" id="svg_844"/></g><g id="svg_704"><linearGradient y2=".482" x2=".995" y1=".515" x1=".004" id="svg_843"><stop stop-color="#e5e5e5" offset="0"/><stop stop-color="#f3f3f3" offset=".091"/><stop stop-color="#fcfcfc" offset=".207"/><stop stop-color="#fff" offset=".365"/><stop stop-color="#fff" offset="1"/></linearGradient><path fill="url(#svg_843)" d="M9093.77 5360.322l-11-4.9c-.7-.3-1.5-.2-2.3.1l-26.2 11.8s-.1 0-.1.1c-.9.5-.9 1.6.1 2.1l11 4.9c.7.3 1.5.2 2.2-.1l26.1-11.7s.1 0 .1-.1c1.1-.6 1.1-1.7.1-2.2z" id="svg_842"/><path d="M9093.77 5360.322l-11-4.9c-.7-.3-1.6-.2-2.3.1l-26.2 11.8s-.1 0-.1.1c-.4.3-.7.7-.7 1.1 0 .4.3.8.8 1.1l11 4.9c.3.1.7.2 1.1.2.4 0 .8-.1 1.2-.3l26.1-11.7s.1 0 .1-.1c.5-.2.8-.7.8-1.1 0-.6-.3-1-.8-1.2zm-26.3 11.6s.3 1.1 0 1.6-1 .6-1 .6c-.4 0-.8 0-1.1-.2l-11-4.9c-.4-.2-.6-.4-.7-.7 0-.4.2-.8.6-1l.1-.1 26.2-11.8c.1-.1.3-.1.5-.2.3-.1 1.1-.2 2 .3.1 0 .1.1.2.1l-15.8 16.3z" class="st10" id="svg_841"/><g id="svg_834"><linearGradient y2=".424" x2="1.015" y1=".442" x1=".037" id="svg_840"><stop stop-color="#fff" offset="0"/><stop stop-color="#f0f2f6" offset=".195"/><stop stop-color="#e3e7ef" offset=".447"/><stop stop-color="#dfe3ed" offset=".687"/><stop stop-color="#dfe3ed" offset="1"/></linearGradient><path fill="url(#svg_840)" d="M9070.47 5372.722l-.4.2c-.1.1-.2 0-.2-.1s.1-.2.2-.3l.4-.2c.1-.1.2 0 .2.1s-.1.2-.2.3z" id="svg_839"/><path id="svg_968" d="M9070.67 5372.422c-.1.1-.2.2-.2.3 0 .1.1.2.2.1s.2-.2.2-.3c0-.1-.1-.2-.2-.1z" class="st40"/><g id="svg_835"><g id="svg_836"><linearGradient y2=".424" x2="1.035" y1=".44" x1="-.207" id="svg_838"><stop stop-color="#fff" offset="0"/><stop stop-color="#f0f2f6" offset=".195"/><stop stop-color="#e3e7ef" offset=".447"/><stop stop-color="#dfe3ed" offset=".687"/><stop stop-color="#dfe3ed" offset="1"/></linearGradient><path fill="url(#svg_838)" d="M9070.47 5372.722c0-.1.1-.2.2-.3h.1l-.1-.1h-.1c-.1.1-.2.2-.2.3v.1l.2.1-.1-.1z" id="svg_837"/></g></g></g><g id="svg_822"><g id="svg_828"><g id="svg_829"><linearGradient y2=".498" x2=".994" y1=".525" x1="-.008" id="svg_833"><stop stop-color="#fff" offset="0"/><stop stop-color="#f0f2f6" offset=".195"/><stop stop-color="#e3e7ef" offset=".447"/><stop stop-color="#dfe3ed" offset=".687"/><stop stop-color="#dfe3ed" offset="1"/></linearGradient><path fill="url(#svg_833)" d="M9071.27 5372.322c0-.1.1-.2.2-.3l1.2-.5h.1l-.2-.1h-.1l-1.2.5c-.1.1-.2.2-.2.3v.1l.2.1v-.1z" id="svg_832"/><linearGradient y2=".437" x2=".969" y1=".471" x1="-.018" id="svg_831"><stop stop-color="#fff" offset="0"/><stop stop-color="#f0f2f6" offset=".195"/><stop stop-color="#e3e7ef" offset=".447"/><stop stop-color="#dfe3ed" offset=".687"/><stop stop-color="#dfe3ed" offset="1"/></linearGradient><path fill="url(#svg_831)" d="M9071.27 5372.522l-.2-.1s-.1-.1 0-.1c0-.1.1-.3.2-.3l1.2-.5h.2l.2.1h-.1l-1.2.5c-.1 0-.2.2-.2.3-.1 0-.1 0-.1.1zm1.2-1.1l-1.2.5c-.1 0-.2.2-.2.3v.1l.1.1c0-.1.1-.3.2-.3l1.2-.5-.1-.2c.1 0 .1 0 0 0z" id="svg_830"/></g></g><g id="svg_825"><g id="svg_826"><path d="M9072.57 5371.922l-1.2.5c-.1.1-.2 0-.2-.1s.1-.2.2-.3l1.2-.5c.1-.1.2 0 .2.1.1.1 0 .3-.2.3z" class="st40" id="svg_827"/></g></g><g id="svg_823"><path d="M9071.37 5372.522s-.1 0 0 0c-.1 0-.1-.1-.1-.2s.1-.3.2-.3l1.2-.5h.2c.1 0 .1.1.1.1 0 .1-.1.3-.2.3l-1.4.6c.1 0 0 0 0 0zm1.4-1c-.1 0-.1 0 0 0l-1.2.5c-.1 0-.2.2-.2.3v.1h.1l1.2-.5c.1 0 .2-.2.2-.3-.1 0-.1-.1-.1-.1z" class="st10" id="svg_824"/></g></g><g id="svg_812"><g id="svg_818"><g id="svg_819"><linearGradient y2=".43" x2="1.002" y1=".457" x1=".001" id="svg_821"><stop stop-color="#fff" offset="0"/><stop stop-color="#f0f2f6" offset=".195"/><stop stop-color="#e3e7ef" offset=".447"/><stop stop-color="#dfe3ed" offset=".687"/><stop stop-color="#dfe3ed" offset="1"/></linearGradient><path fill="url(#svg_821)" d="M9073.17 5371.522c0-.1.1-.2.2-.3l1.2-.5h.1l-.2-.1h-.1l-1.2.5c-.1.1-.2.2-.2.3v.1l.2.1v-.1z" id="svg_820"/></g></g><g id="svg_815"><g id="svg_816"><path d="M9074.57 5371.022l-1.2.5c-.1.1-.2 0-.2-.1s.1-.2.2-.3l1.2-.5c.1-.1.2 0 .2.1 0 .2-.1.3-.2.3z" class="st40" id="svg_817"/></g></g><g id="svg_813"><path d="M9073.27 5371.622c-.1 0-.1-.1-.1-.2s.1-.3.2-.3l1.2-.5h.2c.1 0 .1.1.1.1 0 .1-.1.3-.2.3l-1.4.6c.1 0 0 0 0 0zm1.4-1c-.1 0-.1 0 0 0l-1.2.5c-.1 0-.2.2-.2.3v.1h.1l1.2-.5c.1 0 .2-.2.2-.3 0 0-.1 0-.1-.1z" class="st10" id="svg_814"/></g></g><g id="svg_810"><path d="M9054.27 5367.422l26.2-11.7c.7-.3 1.6-.4 2.3-.1l11 4.9c.6.3.6 1 0 1.3l-26.1 11.7c-.7.3-1.5.4-2.2.1l-11-4.9c-.9-.4-.8-1-.2-1.3z" class="st40" id="svg_811"/></g><g id="svg_807"><g id="svg_808"><path d="M9066.37 5373.822c-.4 0-.7-.1-1-.2l-11-4.9c-.4-.2-.6-.4-.6-.7 0-.2.2-.5.5-.6l26.2-11.8c.7-.3 1.6-.4 2.3-.1l11 4.9c.3.2.5.5.5.8 0 .2-.2.4-.5.6l-26.1 11.7c-.5.2-.9.3-1.3.3zm-12.1-6.4c-.3.1-.4.4-.4.6 0 .2.2.5.6.6l11 4.9c.7.3 1.5.2 2.2-.1l26.1-11.7c.3-.1.4-.3.5-.5 0-.3-.1-.5-.4-.7l-11-4.9c-.7-.3-1.5-.2-2.2.1l-26.4 11.7z" class="st6" id="svg_809"/></g></g><linearGradient y2="-.079" x2=".589" y1="1.077" x1=".41" id="svg_806"><stop stop-color="#fff" offset="0"/><stop stop-color="#f0f2f6" offset=".195"/><stop stop-color="#e3e7ef" offset=".447"/><stop stop-color="#dfe3ed" offset=".687"/><stop stop-color="#dfe3ed" offset="1"/></linearGradient><path fill="url(#svg_806)" d="M9091.77 5361.022l-10.6-4.7c-.5-.2-1.1-.2-1.6.1l-24.5 11c-.4.2-.5.6.1.9l10.6 4.7c.5.2 1.1.2 1.6-.1l24.4-11c.5-.2.5-.7 0-.9z" id="svg_805"/><g id="svg_794"><g id="svg_802"><linearGradient y2=".116" x2=".99" y1=".182" x1=".067" id="svg_804"><stop stop-color="#fff" offset="0"/><stop stop-color="#f0f2f6" offset=".195"/><stop stop-color="#e3e7ef" offset=".447"/><stop stop-color="#dfe3ed" offset=".687"/><stop stop-color="#dfe3ed" offset="1"/></linearGradient><path fill="url(#svg_804)" d="M9085.57 5357.822c-.1 0-.1-.1 0-.1h.3c.1 0 .1.1 0 .1h-.3z" id="svg_803"/></g><g id="svg_799"><linearGradient y2=".477" x2=".992" y1=".513" x1="-.033" id="svg_801"><stop stop-color="#fff" offset="0"/><stop stop-color="#f0f2f6" offset=".195"/><stop stop-color="#e3e7ef" offset=".447"/><stop stop-color="#dfe3ed" offset=".687"/><stop stop-color="#dfe3ed" offset="1"/></linearGradient><path fill="url(#svg_801)" d="M9088.47 5359.022l-2.4-1.1c-.1 0-.1-.1 0-.1h.3l2.4 1.1c.1 0 .1.1 0 .1-.1.1-.3.1-.3 0z" id="svg_800"/></g><g id="svg_797"><path d="M9085.67 5357.722h-.1s-.1 0-.1-.1c0 0 0-.1.1-.1s.2-.1.3 0c0 0 .1 0 .1.1 0 0 0 .1-.1.1h-.2zm.1-.2h-.2.3c0 .1-.1 0-.1 0z" class="st93" id="svg_798"/></g><g id="svg_795"><path d="M9088.57 5359.022h-.1l-2.4-1.1s-.1 0-.1-.1c0 0 0-.1.1-.1s.2-.1.3 0l2.4 1.1s.1 0 .1.1c0 0 0 .1-.1.1h-.2zm-2.4-1.3h-.2l2.4 1.1h.3l-2.4-1.1h-.1z" class="st93" id="svg_796"/></g></g><g id="svg_784"><g id="svg_791"><linearGradient y2=".496" x2="1.006" y1=".496" x1=".002" id="svg_793"><stop stop-color="#fff" offset="0"/><stop stop-color="#f0f2f6" offset=".195"/><stop stop-color="#e3e7ef" offset=".447"/><stop stop-color="#dfe3ed" offset=".687"/><stop stop-color="#dfe3ed" offset="1"/></linearGradient><path fill="url(#svg_793)" d="M9063.97 5370.522l-3.7-1.6c-.6-.3-.5-.8.3-1.2.8-.4 2-.4 2.6-.1l3.7 1.6c.6.3.5.8-.3 1.2-.7.3-1.9.4-2.6.1z" id="svg_792"/></g><g id="svg_789"><path d="M9065.17 5370.322c-.4 0-.8-.1-1.1-.2l-3.7-1.6c-.3-.1-.5-.3-.4-.5 0-.3.3-.5.7-.7.8-.4 2-.4 2.7-.1l3.7 1.6c.3.1.5.3.4.5 0 .3-.3.5-.7.7-.5.2-1.1.3-1.6.3z" class="st10" id="svg_790"/></g><g id="svg_785"><path d="M9063.27 5368.022c.2.1.2.3 0 .4-.3.1-.6.1-.8 0l-.3-.1-.5.2h-.1v-.1l1.2-.6h.1l.4.2zm-.7.3c.2.1.4.1.6 0 .2-.1.2-.2 0-.3l-.3-.1-.6.3.3.1z" class="st40" id="svg_788"/><path d="M9062.37 5368.822c-.1-.1-.1-.1 0 0l1.8-.4h.1v.1l-.7.8h-.1v-.1l.3-.3-.6-.2-.7.1h-.1zm1.7-.3l-.7.1.4.2.3-.3z" class="st40" id="svg_787"/><path d="M9063.77 5369.422l.5-.1.5-.6h.1l-.4.5 1.1-.2h.1v.1l-1.8.3h-.1z" class="st40" id="svg_786"/></g></g><g id="svg_705"><g id="svg_772"><path d="M9084.27 5370.122c-.3-.1-.5-.1-.7 0-.7.3-1.4 1.8-1.8 3-.1.3-.3.6-.5.7l4.2-1.9c-.2-.9-.6-1.6-1.2-1.8z" class="st10" id="svg_783"/><g id="svg_773"><path d="M9085.47 5369.222c-1-1.1-1.4-3.3-1.8-5.3-.4-2.3-1.1-5.5-3-6.2-.6-.3-1.2-.3-1.7-.1l-7.8 3.5c.5-.2 1-.1 1.6.1.9.4 1.5 1.3 2 2.4.5 1.2.8 2.6 1 3.8.4 2.3.9 4.7 2.1 5.6.6.5 1.8.8 1.8.8s1.6.7 2.1-.7c.4-1.2 1-2.8 1.9-3l1.8-.9z" class="st6" id="svg_782"/><path d="M9070.37 5361.722c-.1 0-.3-.1-1-.4-1-.4-1.3-.5-2-.3s-1.3-.1-1.3-.1l-1.8-.8-7.8 3.4 1.8.8s.7.3 1.3.1c.7-.2 1-.1 2 .3l1 .4 2.7 1.2c.3.1.7.3 1 .5.5.3 1.8.6 2.6-1.9.5-1.4 1-2.5 1.5-3.2z" class="st6" id="svg_781"/><path d="M9096.47 5374.422c-1.1-.5-2.2-1.3-2.5-3.1-.3-1.7-.6-4.2-1.8-4.7-.2-.1-.4-.1-.6 0l-6 2.7-1.9.9c.2-.1.5-.1.7 0 1.2.5 1.5 3 1.8 4.7.3 1.7 1.4 2.6 2.5 3.1s3 1.3 3 1.3l7.9-3.5c-.1-.1-2-.9-3.1-1.4z" class="st6" id="svg_780"/><linearGradient y2=".497" x2=".994" y1=".529" x1="-.002" id="svg_779"><stop stop-color="#e5e5e5" offset="0"/><stop stop-color="#f3f3f3" offset=".091"/><stop stop-color="#fcfcfc" offset=".207"/><stop stop-color="#fff" offset=".365"/><stop stop-color="#fff" offset="1"/></linearGradient><path fill="url(#svg_779)" d="M9067.37 5361.422c-.7.2-1.3-.1-1.3-.1l-1.8-.8-7.3 3.2 1.4.6s.7.3 1.3.1 1-.1 2 .3l1 .4 2.7 1.2c.3.1.7.3 1 .5.5.3 1.8.6 2.6-1.9.4-1.2.8-2.2 1.2-2.9-.1-.1-.4-.2-.9-.4-.9-.3-1.2-.4-1.9-.2z" id="svg_778"/><linearGradient y2=".499" x2="1.012" y1=".512" x1="-.023" id="svg_777"><stop stop-color="#e5e5e5" offset="0"/><stop stop-color="#f3f3f3" offset=".091"/><stop stop-color="#fcfcfc" offset=".207"/><stop stop-color="#fff" offset=".365"/><stop stop-color="#fff" offset="1"/></linearGradient><path fill="url(#svg_777)" d="M9080.37 5358.122c-.6-.3-1.2-.3-1.7-.1l-6.4 2.9c.2 0 .4.1.6.2.9.4 1.5 1.3 2 2.4.5 1.2.8 2.6 1 3.8.4 2.3.9 4.7 2.1 5.6.6.5 1.8.8 1.8.8s1.2.5 1.8-.2c.2-.7.6-1.5 1-2.1.3-.7.7-1.2 1.2-1.4l1.3-.6c-.8-1.1-1.2-3.1-1.6-5.1-.5-2.2-1.2-5.4-3.1-6.2z" id="svg_776"/><linearGradient y2=".493" x2="1.015" y1=".512" x1="-.021" id="svg_775"><stop stop-color="#e5e5e5" offset="0"/><stop stop-color="#f3f3f3" offset=".091"/><stop stop-color="#fcfcfc" offset=".207"/><stop stop-color="#fff" offset=".365"/><stop stop-color="#fff" offset="1"/></linearGradient><path fill="url(#svg_775)" d="M9086.07 5374.822c.3 1.7 1.4 2.6 2.5 3.1s3 1.3 3 1.3l7-3.1c-.6-.3-1.7-.8-2.4-1.1-1.1-.5-2.2-1.3-2.5-3.1-.3-1.7-.6-4.2-1.8-4.7-.2-.1-.4-.1-.6 0l-6 2.7-.7.3c.9.7 1.2 3 1.5 4.6z" id="svg_774"/><path id="svg_969" d="M9096.57 5374.322c-1.4-.6-2.2-1.6-2.5-3 0-.2-.1-.3-.1-.5-.3-1.7-.7-3.7-1.7-4.2-.2-.1-.5-.1-.7 0l-6 2.7c-1-1.1-1.4-3.4-1.8-5.3-.4-1.9-1-5.4-3-6.3-.7-.3-1.2-.3-1.7-.1l-7.6 3.4s-.1 0-.1.1c-.5.3-.9.6-.9.7l-.9-.4c-1-.4-1.3-.5-2-.3-.6.2-1.3-.1-1.3-.1l-1.8-.8-8 3.5 1.9.8s.7.3 1.4.1c.6-.2.9-.1 1.9.3l1 .4 2.7 1.2c.3.1.7.3 1 .5.2.1.5.2.8.2.1 0 .3 0 .4-.1.1 0 .3-.1.4-.2l6.9-3.2c.5 1.1.7 2.5 1 3.8.4 2.1.9 4.7 2.1 5.7.6.5 1.7.8 1.8.8 0 0 .4.2.9.2.2 0 .3 0 .5-.1.1 0 .1-.1.2-.1l4.1-1.9c.2.7.4 1.6.5 2.3 0 .2.1.4.1.5.3 1.4 1.1 2.5 2.5 3.1l3 1.3 8-3.6-3-1.4zm-29.1-7.4c-.1 0 0 0 0 0-.4.1-.8 0-1.1-.1-.3-.2-.6-.3-1-.5l-2.7-1.2-1-.4c-1-.4-1.3-.5-2-.3-.6.2-1.3-.1-1.3-.1l-1.6-.7 7.6-3.4 1.7.8s.7.3 1.4.1c.6-.2.9-.1 1.9.3l.9.4c-.5.6-.9 1.6-1.4 3.1-.4 1.1-.8 1.7-1.4 2zm14.1 6.5l-.1.1-.1.1-.1.1h-.1c-.1 0-.1.1-.2.1-.6.2-1.3-.1-1.3-.1s-1.1-.3-1.7-.8c-1.2-.9-1.7-3.5-2.1-5.6-.2-1.3-.5-2.7-1-3.8-.5-1.3-1.2-2.1-2-2.4-.4-.2-.7-.2-1-.2l7.2-3.2c.4-.2 1-.2 1.6.1 2 .8 2.6 4.3 3 6.2.4 1.9.8 4.2 1.8 5.3l-1.7.8c-.8.3-1.4 1.6-1.9 2.9 0 0 0 .1-.1.1l-.1.2-.1.1c0-.1 0 0 0 0zm.1.2s0-.1 0 0c0-.1 0-.1 0 0l.1-.1v-.1s0-.1.1-.1c.6-1.7 1.2-2.8 1.8-2.9h.9l.1.1s0 .1.1.1c.2.3.4.7.6 1.2l-3.7 1.8zm7 4.2c-1.4-.6-2.2-1.6-2.5-3 0-.2-.1-.3-.1-.5-.1-.8-.3-1.6-.5-2.4-.2-.7-.5-1.2-.8-1.5 0 0-.1 0-.1-.1 0 0-.1 0-.1-.1 0 0-.1 0-.1-.1H9084.17l7.5-3.3c.2-.1.4-.1.5 0 1 .4 1.4 2.5 1.7 4.1 0 .2.1.4.1.5.3 1.4 1.1 2.5 2.5 3.1l2.9 1.3-7.7 3.4-3-1.4z" class="st10"/></g></g><g id="svg_763"><g id="svg_770"><path d="M9092.47 5375.422l-2.4 1.1-.4-.1 2.5-1.1.3.1z" class="st6" id="svg_771"/></g><g id="svg_768"><path d="M9089.67 5376.722l-.7.3-.4-.1.8-.4.3.2z" class="st6" id="svg_769"/></g><g id="svg_766"><path d="M9093.07 5375.722l-3.5 1.6-.3-.1 3.5-1.6.3.1z" class="st6" id="svg_767"/></g><g id="svg_764"><path d="M9091.67 5377.022l-1.5.6-.3-.2 1.4-.6.4.2z" class="st6" id="svg_765"/></g></g><g id="svg_752"><path d="M9091.77 5378.122c-.1.1-.3.1-.4 0-.1-.1-.2-.1 0-.2.1-.1.3-.1.4 0 .1.1.2.2 0 .2zm-.4-.2c-.1 0-.1.1 0 .2s.2.1.3 0c.1 0 .1-.1 0-.2h-.3z" class="st6" id="svg_762"/><path d="M9092.27 5377.922c-.1.1-.3.1-.4 0-.1-.1-.2-.1 0-.2.1-.1.3-.1.4 0 .1.1.1.2 0 .2zm-.5-.2c-.1 0-.1.1 0 .2s.2.1.3 0c.1 0 .1-.1 0-.2h-.3z" class="st6" id="svg_761"/><path d="M9092.67 5377.722c-.1.1-.3.1-.4 0-.1-.1-.2-.1 0-.2.1-.1.3-.1.4 0 .1.1.2.2 0 .2zm-.4-.2c-.1 0-.1.1 0 .2s.2.1.3 0c.1 0 .1-.1 0-.2h-.3z" class="st6" id="svg_760"/><path d="M9093.17 5377.522c-.1.1-.3.1-.4 0-.1-.1-.2-.1 0-.2.1-.1.3-.1.4 0 .1.1.1.2 0 .2zm-.5-.2c-.1 0-.1.1 0 .2s.2.1.3 0c.1 0 .1-.1 0-.2h-.3z" class="st6" id="svg_759"/><path d="M9093.57 5377.322c-.1.1-.3.1-.4 0-.1-.1-.2-.1 0-.2.1-.1.3-.1.4 0 .1.1.2.2 0 .2zm-.4-.2c-.1 0-.1.1 0 .2s.2.1.3 0c.1 0 .1-.1 0-.2h-.3z" class="st6" id="svg_758"/><path d="M9094.07 5377.122c-.1.1-.3.1-.4 0-.1-.1-.2-.1 0-.2.1-.1.3-.1.4 0 .1.1.1.2 0 .2zm-.5-.2c-.1 0-.1.1 0 .2s.2.1.3 0c.1 0 .1-.1 0-.2h-.3z" class="st6" id="svg_757"/><path d="M9094.67 5376.822c-.1.1-.3.1-.4 0-.1-.1-.2-.1 0-.2.1-.1.3-.1.4 0 .1.1.2.2 0 .2zm-.4-.2c-.1 0-.1.1 0 .2s.2.1.3 0c.1 0 .1-.1 0-.2h-.3z" class="st6" id="svg_756"/><path d="M9095.17 5376.622c-.1.1-.3.1-.4 0-.1-.1-.2-.1 0-.2.1-.1.3-.1.4 0 .1.1.1.2 0 .2zm-.5-.2c-.1 0-.1.1 0 .2s.2.1.3 0c.1 0 .1-.1 0-.2h-.3z" class="st6" id="svg_755"/><path d="M9095.57 5376.422c-.1.1-.3.1-.4 0-.1-.1-.2-.1 0-.2.1-.1.3-.1.4 0 .1.1.2.2 0 .2zm-.4-.2c-.1 0-.1.1 0 .2s.2.1.3 0c.1 0 .1-.1 0-.2h-.3z" class="st6" id="svg_754"/><path d="M9096.07 5376.222l-.4-.2h.1l.3.2c.1 0 .1 0 0 0z" class="st6" id="svg_753"/></g><g id="svg_750"><path d="M9062.17 5362.222l-3.5 1.6-.4-.2 3.6-1.6.3.2z" class="st6" id="svg_751"/></g><g id="svg_748"><path d="M9063.57 5361.622l-1 .4-.4-.1 1-.5.4.2z" class="st6" id="svg_749"/></g><g id="svg_746"><path d="M9060.67 5363.422l-1.4.7-.4-.2 1.5-.6.3.1z" class="st6" id="svg_747"/></g><g id="svg_744"><path d="M9064.17 5361.922l-3.1 1.4-.4-.2 3.1-1.4.4.2z" class="st6" id="svg_745"/></g><g id="svg_742"><path d="M9065.97 5362.822l-2.4 1.1-.4-.2 2.4-1.1.4.2z" class="st6" id="svg_743"/></g><g id="svg_740"><path d="M9063.17 5364.022l-.7.4-.4-.2.7-.3.4.1z" class="st6" id="svg_741"/></g><g id="svg_738"><path d="M9066.57 5363.122l-3.5 1.6-.3-.2 3.5-1.6.3.2z" class="st6" id="svg_739"/></g><g id="svg_736"><path d="M9065.17 5364.922l-.8.3-.3-.1.7-.4.4.2z" class="st6" id="svg_737"/></g><g id="svg_734"><path d="M9066.97 5364.622l-1.9.9-.4-.1 2-.9.3.1z" class="st6" id="svg_735"/></g><g id="svg_732"><path d="M9065.17 5364.322l-1.5.6-.3-.1 1.4-.7.4.2z" class="st6" id="svg_733"/></g><g id="svg_730"><path d="M9068.57 5362.722l-3.1 1.4-.3-.1 3.1-1.4.3.1z" class="st6" id="svg_731"/></g><g id="svg_728"><path d="M9075.67 5363.322l-.1-.4 5.7-2.6.1.4-5.7 2.6z" class="st6" id="svg_729"/></g><g id="svg_726"><path d="M9075.97 5363.922l-.1-.3 1.6-.8.1.4-1.6.7z" class="st6" id="svg_727"/></g><g id="svg_724"><path d="M9078.17 5362.922l-.1-.3 3.4-1.5.1.3-3.4 1.5z" class="st6" id="svg_725"/></g><g id="svg_722"><path d="M9076.07 5364.622l-.1-.3 3.4-1.5.1.4-3.4 1.4z" class="st6" id="svg_723"/></g><g id="svg_720"><path d="M9076.27 5365.422l-.1-.4 1-.4.1.3-1 .5z" class="st6" id="svg_721"/></g><g id="svg_718"><path d="M9077.67 5364.722l-.1-.3 3.2-1.4.1.4-3.2 1.3z" class="st6" id="svg_719"/></g><g id="svg_716"><path d="M9076.77 5368.222l-.1-.4 5.5-2.4.1.3-5.5 2.5z" class="st6" id="svg_717"/></g><g id="svg_714"><path d="M9076.87 5368.922l-.1-.4 1.7-.7.1.4-1.7.7z" class="st6" id="svg_715"/></g><g id="svg_712"><path d="M9079.07 5367.922l-.1-.3 3.3-1.5.1.4-3.3 1.4z" class="st6" id="svg_713"/></g><g id="svg_710"><path d="M9086.07 5370.922l-.2-.3 1.7-.8.1.4-1.6.7z" class="st6" id="svg_711"/></g><g id="svg_708"><path d="M9088.27 5369.922l-.1-.3 3.3-1.5.1.4-3.3 1.4z" class="st6" id="svg_709"/></g><g id="svg_706"><path d="M9086.27 5371.622l-.1-.3 3.3-1.5.2.3-3.4 1.5z" class="st6" id="svg_707"/></g></g></g></g></g></g></g></svg>