<?xml version="1.0" encoding="utf-8"?>
<!-- Generator: Adobe Illustrator 22.0.1, SVG Export Plug-In . SVG Version: 6.00 Build 0)  -->
<svg version="1.1" id="Layer_1" xmlns="http://www.w3.org/2000/svg" xmlns:xlink="http://www.w3.org/1999/xlink" x="0px" y="0px"
	 viewBox="0 0 700 480" style="enable-background:new 0 0 700 480;" xml:space="preserve">
<style type="text/css">
	.mi0{fill:url(#SVGMIID_1_);}
	.mi1{fill:url(#SVGMIID_2_);}
	.mi2{fill:url(#SVGMIID_3_);}
	.mi3{fill:url(#SVGMIID_4_);}
	.mi4{fill:url(#SVGMIID_5_);}
	.mi5{fill:url(#SVGMIID_6_);}
	.mi6{fill:url(#SVGMIID_7_);}
	.mi7{fill:url(#SVGMIID_8_);}
	.mi8{fill:url(#SVGMIID_9_);}
	.mi9{fill:url(#SVGMIID_10_);}
	.mi10{fill:url(#SVGMIID_11_);}
	.mi11{fill:url(#SVGMIID_12_);}
	.mi12{fill:url(#SVGMIID_13_);}
	.mi13{opacity:0.6;fill:url(#SVGMIID_14_);}
	.mi14{fill:#AEB3C4;}
	.mi15{fill:#B71C1C;}
	.mi16{fill:#FF7673;}
	.mi17{fill:#FFFFFF;}
	.mi18{fill:#61CCC1;}
	.mi19{fill:none;}
	.mi20{fill:url(#SVGMIID_15_);}
	.mi21{fill:url(#SVGMIID_16_);}
	.mi22{fill:url(#SVGMIID_17_);}
	.mi23{fill:#DD3B37;}
	.mi24{fill:#9D2229;}
	.mi25{fill:#C62828;}
	.mi26{fill:#162B4D;}
	.mi27{fill:#C1A172;}
	.mi28{fill:#09253D;}
	.mi29{fill:#29417C;}
	.mi30{clip-path:url(#SVGMIID_20_);}
	.mi31{opacity:0.6;fill:url(#SVGMIID_22_);enable-background:new    ;}
	.mi32{fill:#1C1C1C;}
	.mi33{fill:#E7C189;}
	.mi34{fill:#224372;}
	.mi35{fill:#EF5350;}
	.mi36{fill:url(#SVGMIID_23_);}
	.mi37{fill:#F23A30;}
	.mi38{fill:url(#Path-72-Copy-5_2_);}
	.mi39{fill:url(#SVGMIID_24_);}
	.mi40{opacity:0.6;}
	.mi41{fill:#3F3F3F;}
	.mi42{opacity:0.5;fill:url(#SVGMIID_25_);}
	.mi43{fill:url(#SVGMIID_26_);}
	.mi44{fill:url(#SVGMIID_27_);}
	.mi45{fill:#841924;}
	.mi46{opacity:0.7;fill:#841924;}
	.mi47{opacity:0.4;fill:#841924;}
	.mi48{fill:#AA2929;}
	.mi49{fill:#C73541;}
	.mi50{opacity:0.6;fill:#991F31;}
	.mi51{fill:#991F31;}
	.mi52{opacity:0.5;fill:#991F31;}
	.mi53{fill:url(#SVGMIID_28_);}
	.mi54{fill:url(#SVGMIID_29_);}
	.mi55{fill:#0C0C0C;}
	.mi56{opacity:0.7;fill:#162B4D;}
	.mi57{fill:#1E3960;}
</style>
<g>
	<g>
		
			<linearGradient id="SVGMIID_1_" gradientUnits="userSpaceOnUse" x1="95.4245" y1="167.5793" x2="95.4245" y2="297.0061" gradientTransform="matrix(1 0 0 -1 0 480)">
			<stop  offset="0" style="stop-color:#DFE3ED;stop-opacity:0"/>
			<stop  offset="0.3175" style="stop-color:#DFE3ED;stop-opacity:0.32"/>
			<stop  offset="0.5913" style="stop-color:#DFE3ED;stop-opacity:0.59"/>
			<stop  offset="0.8481" style="stop-color:#DFE3ED;stop-opacity:0.85"/>
			<stop  offset="1" style="stop-color:#DFE3ED"/>
		</linearGradient>
		<path class="mi0" d="M79.4,183v129.4h32V183L79.4,183L79.4,183z M107.6,252.8H83.3V249h24.3V252.8z M107.6,245.3H83.3v-3.8h24.3
			V245.3z M107.6,237.7H83.3v-3.8h24.3V237.7z M107.6,230.2H83.3v-3.8h24.3V230.2z M107.6,222.7H83.3v-3.8h24.3V222.7z M107.6,215.2
			H83.3v-3.8h24.3V215.2z M107.6,207.7H83.3v-3.8h24.3V207.7z M107.6,200.1H83.3v-3.8h24.3V200.1z M107.6,192.6H83.3v-3.8h24.3
			V192.6z"/>
	</g>
	<g>
		
			<linearGradient id="SVGMIID_2_" gradientUnits="userSpaceOnUse" x1="463.7014" y1="210.255" x2="463.7014" y2="290.1762" gradientTransform="matrix(1 0 0 -1 0 480)">
			<stop  offset="0" style="stop-color:#DFE3ED;stop-opacity:0"/>
			<stop  offset="0.3175" style="stop-color:#DFE3ED;stop-opacity:0.32"/>
			<stop  offset="0.5913" style="stop-color:#DFE3ED;stop-opacity:0.59"/>
			<stop  offset="0.8481" style="stop-color:#DFE3ED;stop-opacity:0.85"/>
			<stop  offset="1" style="stop-color:#DFE3ED"/>
		</linearGradient>
		<path class="mi1" d="M447.7,189.8v79.9h32v-79.9L447.7,189.8L447.7,189.8z M475.8,259.6h-24.3v-3.8h24.3V259.6z M475.8,252.1
			h-24.3v-3.8h24.3V252.1z M475.8,244.5h-24.3v-3.8h24.3V244.5z M475.8,237.1h-24.3v-3.8h24.3V237.1z M475.8,229.5h-24.3v-3.8h24.3
			V229.5z M475.8,222h-24.3v-3.8h24.3V222z M475.8,214.5h-24.3v-3.8h24.3V214.5z M475.8,206.9h-24.3v-3.8h24.3V206.9z M475.8,199.5
			h-24.3v-3.8h24.3V199.5z"/>
	</g>
	<g>
		
			<linearGradient id="SVGMIID_3_" gradientUnits="userSpaceOnUse" x1="360.4605" y1="244.0322" x2="360.4605" y2="342.7716" gradientTransform="matrix(1 0 0 -1 0 480)">
			<stop  offset="0" style="stop-color:#DFE3ED;stop-opacity:0"/>
			<stop  offset="0.3175" style="stop-color:#DFE3ED;stop-opacity:0.32"/>
			<stop  offset="0.5913" style="stop-color:#DFE3ED;stop-opacity:0.59"/>
			<stop  offset="0.8481" style="stop-color:#DFE3ED;stop-opacity:0.85"/>
			<stop  offset="1" style="stop-color:#DFE3ED"/>
		</linearGradient>
		<path class="mi2" d="M337,137.2V236h47v-98.7H337z M347.9,178h-5.4v-5.4h5.4V178z M347.9,168.6h-5.4v-5.4h5.4V168.6z M347.9,159.4
			h-5.4v-5.3h5.4V159.4z M347.9,150.2h-5.4v-5.4h5.4V150.2z M357.7,178h-5.4v-5.4h5.4V178z M357.7,168.6h-5.4v-5.4h5.4V168.6z
			 M357.7,159.4h-5.4v-5.3h5.4V159.4z M357.7,150.2h-5.4v-5.4h5.4V150.2z M367.5,178H362v-5.4h5.4V178z M367.5,168.6H362v-5.4h5.4
			V168.6z M367.5,159.4H362v-5.3h5.4V159.4z M367.5,150.2H362v-5.4h5.4V150.2z M377.2,178h-5.4v-5.4h5.4V178z M377.2,168.6h-5.4
			v-5.4h5.4V168.6z M377.2,159.4h-5.4v-5.3h5.4V159.4z M377.2,150.2h-5.4v-5.4h5.4V150.2z"/>
	</g>
	
		<linearGradient id="SVGMIID_4_" gradientUnits="userSpaceOnUse" x1="271.2314" y1="265.9079" x2="271.2314" y2="321.8509" gradientTransform="matrix(1 0 0 -1 0 480)">
		<stop  offset="0" style="stop-color:#DFE3ED;stop-opacity:0"/>
		<stop  offset="0.3175" style="stop-color:#DFE3ED;stop-opacity:0.32"/>
		<stop  offset="0.5913" style="stop-color:#DFE3ED;stop-opacity:0.59"/>
		<stop  offset="0.8481" style="stop-color:#DFE3ED;stop-opacity:0.85"/>
		<stop  offset="1" style="stop-color:#DFE3ED"/>
	</linearGradient>
	<rect x="256.4" y="158.2" class="mi3" width="29.6" height="55.9"/>
	<g>
		
			<linearGradient id="SVGMIID_5_" gradientUnits="userSpaceOnUse" x1="250.396" y1="265.2439" x2="250.396" y2="334.2869" gradientTransform="matrix(1 0 0 -1 0 480)">
			<stop  offset="0" style="stop-color:#DFE3ED;stop-opacity:0"/>
			<stop  offset="0.3175" style="stop-color:#DFE3ED;stop-opacity:0.32"/>
			<stop  offset="0.5913" style="stop-color:#DFE3ED;stop-opacity:0.59"/>
			<stop  offset="0.8481" style="stop-color:#DFE3ED;stop-opacity:0.85"/>
			<stop  offset="1" style="stop-color:#DFE3ED"/>
		</linearGradient>
		<path class="mi4" d="M235.9,145.7v69h29v-69H235.9z M259.4,182h-17.1v-0.8h17.1V182z M259.4,178.6h-17.1v-0.8h17.1V178.6z
			 M259.4,175.3h-17.1v-0.8h17.1V175.3z M259.4,172h-17.1v-0.8h17.1V172z M259.4,168.6h-17.1v-0.8h17.1V168.6z M259.4,165.3h-17.1
			v-0.8h17.1V165.3z M259.4,162h-17.1v-0.8h17.1V162z M259.4,158.7h-17.1v-0.8h17.1V158.7z M259.4,155.3h-17.1v-0.8h17.1V155.3z
			 M259.4,152.1h-17.1v-0.8h17.1V152.1z"/>
	</g>
	
		<linearGradient id="SVGMIID_6_" gradientUnits="userSpaceOnUse" x1="160.6656" y1="232.1736" x2="180.2393" y2="343.1818" gradientTransform="matrix(1 0 0 -1 0 480)">
		<stop  offset="0" style="stop-color:#DFE3ED;stop-opacity:0"/>
		<stop  offset="0.3175" style="stop-color:#DFE3ED;stop-opacity:0.32"/>
		<stop  offset="0.5913" style="stop-color:#DFE3ED;stop-opacity:0.59"/>
		<stop  offset="0.8481" style="stop-color:#DFE3ED;stop-opacity:0.85"/>
		<stop  offset="1" style="stop-color:#DFE3ED"/>
	</linearGradient>
	<rect x="151.3" y="138.5" class="mi5" width="38.4" height="107.7"/>
	<g>
		
			<linearGradient id="SVGMIID_7_" gradientUnits="userSpaceOnUse" x1="99.74" y1="251.888" x2="154.2435" y2="346.2908" gradientTransform="matrix(1 0 0 -1 0 480)">
			<stop  offset="0" style="stop-color:#DFE3ED;stop-opacity:0"/>
			<stop  offset="0.3175" style="stop-color:#DFE3ED;stop-opacity:0.32"/>
			<stop  offset="0.5913" style="stop-color:#DFE3ED;stop-opacity:0.59"/>
			<stop  offset="0.8481" style="stop-color:#DFE3ED;stop-opacity:0.85"/>
			<stop  offset="1" style="stop-color:#DFE3ED"/>
		</linearGradient>
		<path class="mi6" d="M103.5,131.5v98.7h47v-98.7H103.5z M114.4,172.3H109v-5.4h5.4V172.3z M114.4,163.1H109v-5.4h5.4V163.1z
			 M114.4,153.8H109v-5.4h5.4V153.8z M114.4,144.5H109v-5.3h5.4V144.5z M124.2,172.3h-5.4v-5.4h5.4V172.3z M124.2,163.1h-5.4v-5.4
			h5.4V163.1z M124.2,153.8h-5.4v-5.4h5.4V153.8z M124.2,144.5h-5.4v-5.3h5.4V144.5z M134,172.3h-5.4v-5.4h5.4V172.3z M134,163.1
			h-5.4v-5.4h5.4V163.1z M134,153.8h-5.4v-5.4h5.4V153.8z M134,144.5h-5.4v-5.3h5.4V144.5z M143.8,172.3h-5.4v-5.4h5.4V172.3z
			 M143.8,163.1h-5.4v-5.4h5.4V163.1z M143.8,153.8h-5.4v-5.4h5.4V153.8z M143.8,144.5h-5.4v-5.3h5.4V144.5z"/>
	</g>
	
		<linearGradient id="SVGMIID_8_" gradientUnits="userSpaceOnUse" x1="303.6318" y1="255.2907" x2="303.6318" y2="351.8157" gradientTransform="matrix(1 0 0 -1 0 480)">
		<stop  offset="0" style="stop-color:#DFE3ED;stop-opacity:0"/>
		<stop  offset="0.3175" style="stop-color:#DFE3ED;stop-opacity:0.32"/>
		<stop  offset="0.5913" style="stop-color:#DFE3ED;stop-opacity:0.59"/>
		<stop  offset="0.8481" style="stop-color:#DFE3ED;stop-opacity:0.85"/>
		<stop  offset="1" style="stop-color:#DFE3ED"/>
	</linearGradient>
	<rect x="286.1" y="128.2" class="mi7" width="35.2" height="96.5"/>
	
		<linearGradient id="SVGMIID_9_" gradientUnits="userSpaceOnUse" x1="329.0858" y1="230.7923" x2="329.0858" y2="330.6506" gradientTransform="matrix(1 0 0 -1 0 480)">
		<stop  offset="0" style="stop-color:#DFE3ED;stop-opacity:0"/>
		<stop  offset="0.3175" style="stop-color:#DFE3ED;stop-opacity:0.32"/>
		<stop  offset="0.5913" style="stop-color:#DFE3ED;stop-opacity:0.59"/>
		<stop  offset="0.8481" style="stop-color:#DFE3ED;stop-opacity:0.85"/>
		<stop  offset="1" style="stop-color:#DFE3ED"/>
	</linearGradient>
	<rect x="321" y="149.3" class="mi8" width="16.1" height="99.9"/>
	
		<linearGradient id="SVGMIID_10_" gradientUnits="userSpaceOnUse" x1="441.9583" y1="246.0368" x2="441.9583" y2="341.5414" gradientTransform="matrix(1 0 0 -1 0 480)">
		<stop  offset="0" style="stop-color:#DFE3ED;stop-opacity:0"/>
		<stop  offset="0.3175" style="stop-color:#DFE3ED;stop-opacity:0.32"/>
		<stop  offset="0.5913" style="stop-color:#DFE3ED;stop-opacity:0.59"/>
		<stop  offset="0.8481" style="stop-color:#DFE3ED;stop-opacity:0.85"/>
		<stop  offset="1" style="stop-color:#DFE3ED"/>
	</linearGradient>
	<rect x="423.9" y="138.5" class="mi9" width="36.2" height="95.5"/>
	
		<linearGradient id="SVGMIID_11_" gradientUnits="userSpaceOnUse" x1="426.5665" y1="218.112" x2="426.5665" y2="324.5435" gradientTransform="matrix(1 0 0 -1 0 480)">
		<stop  offset="0" style="stop-color:#DFE3ED;stop-opacity:0"/>
		<stop  offset="0.3175" style="stop-color:#DFE3ED;stop-opacity:0.32"/>
		<stop  offset="0.5913" style="stop-color:#DFE3ED;stop-opacity:0.59"/>
		<stop  offset="0.8481" style="stop-color:#DFE3ED;stop-opacity:0.85"/>
		<stop  offset="1" style="stop-color:#DFE3ED"/>
	</linearGradient>
	<rect x="405.5" y="155.5" class="mi10" width="42.1" height="106.4"/>
	
		<linearGradient id="SVGMIID_12_" gradientUnits="userSpaceOnUse" x1="212.5379" y1="281.0279" x2="212.5379" y2="381.5388" gradientTransform="matrix(1 0 0 -1 0 480)">
		<stop  offset="0" style="stop-color:#DFE3ED;stop-opacity:0"/>
		<stop  offset="0.3175" style="stop-color:#DFE3ED;stop-opacity:0.32"/>
		<stop  offset="0.5913" style="stop-color:#DFE3ED;stop-opacity:0.59"/>
		<stop  offset="0.8481" style="stop-color:#DFE3ED;stop-opacity:0.85"/>
		<stop  offset="1" style="stop-color:#DFE3ED"/>
	</linearGradient>
	<path class="mi11" d="M230.4,110.4V98.5h-4v11.9h-2.9V104h-7.9v6.4h-25.9V199h45.8v-88.6H230.4z M229.2,179.6h-33v-3.6h33
		L229.2,179.6L229.2,179.6z M229.2,173.7h-33v-3.6h33L229.2,173.7L229.2,173.7z M229.2,167.8h-33v-3.6h33L229.2,167.8L229.2,167.8z
		 M229.2,161.9h-33v-3.6h33L229.2,161.9L229.2,161.9z M229.2,156h-33v-3.6h33L229.2,156L229.2,156z M229.2,150.1h-33v-3.6h33
		L229.2,150.1L229.2,150.1z M229.2,144.1h-33v-3.6h33L229.2,144.1L229.2,144.1z M229.2,138.3h-33v-3.6h33L229.2,138.3L229.2,138.3z
		 M229.2,132.4h-33v-3.6h33L229.2,132.4L229.2,132.4z M229.2,126.4h-33v-3.6h33L229.2,126.4L229.2,126.4z M229.2,120.3h-33v-3.6h33
		L229.2,120.3L229.2,120.3z"/>
	<g>
		
			<linearGradient id="SVGMIID_13_" gradientUnits="userSpaceOnUse" x1="392.5345" y1="225.4778" x2="392.5345" y2="303.1453" gradientTransform="matrix(1 0 0 -1 0 480)">
			<stop  offset="0" style="stop-color:#DFE3ED;stop-opacity:0"/>
			<stop  offset="0.3175" style="stop-color:#DFE3ED;stop-opacity:0.32"/>
			<stop  offset="0.5913" style="stop-color:#DFE3ED;stop-opacity:0.59"/>
			<stop  offset="0.8481" style="stop-color:#DFE3ED;stop-opacity:0.85"/>
			<stop  offset="1" style="stop-color:#DFE3ED"/>
		</linearGradient>
		<path class="mi12" d="M379.6,176.9v77.7h25.9v-77.7H379.6z M402.5,219.3h-19.3v-3.5h19.3V219.3z M402.5,212.8h-19.3v-3.5h19.3
			V212.8z M402.5,206.2h-19.3v-3.5h19.3V206.2z M402.5,199.7h-19.3v-3.5h19.3V199.7z"/>
	</g>
</g>
<linearGradient id="SVGMIID_14_" gradientUnits="userSpaceOnUse" x1="571.5392" y1="330.3774" x2="571.5392" y2="312.1617">
	<stop  offset="0" style="stop-color:#DFE3ED;stop-opacity:0"/>
	<stop  offset="1" style="stop-color:#DFE3ED;stop-opacity:0.8"/>
</linearGradient>
<path class="mi13" d="M489.5,312.2l-38.8,17.3l192.2,0.9c9.9,0,19.6-2.3,28.3-7l21.3-11.3L489.5,312.2z"/>
<rect x="491.3" y="262.6" class="mi14" width="3" height="3"/>
<rect x="496.8" y="262.6" class="mi14" width="3" height="3"/>
<rect x="501.9" y="262.6" class="mi14" width="3" height="3"/>
<polygon class="mi14" points="672.4,290.3 671.2,290.3 671.2,295.3 638.9,295.3 638.9,291.3 641.9,291.3 641.9,288.3 638.9,288.3 
	638.9,290.3 637,290.3 637,288.3 634,288.3 634,291.3 636.5,291.3 636.5,295.3 520.1,295.3 520.1,291.3 522.1,291.3 522.1,288.3 
	519.1,288.3 519.1,290.3 517.7,290.3 517.7,295.3 485.3,295.3 485.3,290.3 483.8,290.3 483.8,288.3 480.8,288.3 480.8,291.3 
	482.9,291.3 482.9,295.3 482.9,296.5 482.9,310.2 481.8,310.2 481.8,312.4 486.4,312.4 486.4,310.2 485.3,310.2 485.3,296.5 
	517.7,296.5 517.7,310.2 516.6,310.2 516.6,312.4 521.2,312.4 521.2,310.2 520.1,310.2 520.1,296.5 636.5,296.5 636.5,310.2 
	635.3,310.2 635.3,312.4 640,312.4 640,310.2 638.9,310.2 638.9,296.5 671.2,296.5 671.2,310.2 670,310.2 670,312.4 674.7,312.4 
	674.7,310.2 673.4,310.2 673.4,291.3 675.4,291.3 675.4,288.3 672.4,288.3 "/>
<path class="mi14" d="M686.6,286.3l-0.5-0.5c0.4-0.1,0.7-0.4,1.1-0.6l0.5,0.9c0,0,0.1-0.1,0.4-0.1c0.2-0.1,0.5-0.2,0.7-0.4l0.4-0.2
	l0.2-0.2c0.1-0.1,0.2-0.2,0.2-0.2L689,284c0.2-0.2,0.5-0.6,0.9-1l1,0.9l0.1-0.1l0.1-0.2l0.2-0.2l0.2-0.4c0.1-0.2,0.4-0.5,0.5-0.6
	c0.1-0.1,0.1-0.2,0.1-0.2l-1.4-0.7c0.1-0.4,0.2-0.7,0.4-1.1l1.5,0.6c0,0,0.2-0.5,0.4-1.1c0.1-0.2,0.1-0.6,0.1-0.7c0-0.2,0-0.4,0-0.4
	l-1.7-0.2c0-0.2,0-0.4,0-0.6c0-0.1,0-0.4,0-0.5h1.9c0,0,0-0.1,0-0.4v-0.4c0-0.1,0-0.2,0-0.4c0-0.6-0.2-1.1-0.2-1.1l-1.9,0.5
	c-0.1-0.4-0.2-0.7-0.4-1.1l1.9-0.7c0,0-0.2-0.5-0.5-1.1c-0.1-0.2-0.2-0.5-0.4-0.7l-0.1-0.2v-0.1l-1.6,1.1c-0.2-0.2-0.5-0.6-0.7-0.9
	l1.5-1.4c0,0-0.1-0.1-0.2-0.2c-0.1-0.1-0.4-0.4-0.6-0.5l-0.1-0.1l-0.1-0.1l-0.2-0.2c-0.1-0.1-0.2-0.2-0.2-0.2l-1.1,1.6
	c-0.2-0.2-0.6-0.4-1-0.6l0.9-1.7h-0.1l-0.2-0.1l-0.4-0.1l-0.4-0.1c-0.5-0.2-1.1-0.4-1.1-0.4l-0.4,1.7c-0.4-0.1-0.7-0.2-1.1-0.2
	l0.1-1.7h-0.1H684h-0.4h-0.2h-0.2c-0.5,0-1,0-1,0v1.7h-1.2v-1.7h-2.1v1.7h-1.2v-1.7h-2.1v1.7h-1.2v-1.7h-2.1v1.7h-1.2v-1.7h-2.4v1.7
	h-1.2v-1.7h-2.1v1.7h-1.2v-1.7h-2.1v1.7h-1.2v-1.7h-2.1v1.7h-1.2v-1.7H655v1.7h-1.2v-1.7h-2.1v1.7h-1.2v-1.7h-2.1v1.7h-1.2v-1.7H645
	v1.7h-1.2v-1.7h-2.1v1.7h-1.2v-1.7h-2.1v1.7H637v-1.7h-2.1v1.7h-1.2v-1.7h-2.1v1.7h-1.2v-1.7h-2.1v1.7H627v-1.7h-2v1.7h-1.2v-1.7
	h-2.1v1.7h-1.2v-1.7h-2.1v1.7H617v-1.7h-2.1v1.7h-1.2v-1.7h-2.1v1.7h-1.2v-1.7h-2.1v1.7H607v-1.7h-2.1v1.7h-1.2v-1.7h-2.1v1.7h-1.2
	v-1.7h-2.1v1.7h-1.2v-1.7h-2.1v1.7h-1.2v-1.7h-2.1v1.7h-1.2v-1.7h-2.1v1.7h-1.2v-1.7h-2.1v1.7h-1.2v-1.7h-2.1v1.7h-1.2v-1.7H578v1.7
	h-1.2v-1.7h-2.1v1.7h-1.2v-1.7h-2.1v1.7h-1.2v-1.7h-2.1v1.7h-1.2v-1.7h-2.1v1.7h-1.2v-1.7h-2.1v1.7H560v-1.7h-2.1v1.7h-1.2v-1.7
	h-2.1v1.7h-1.2v-1.7h-2.1v1.7h-1.2v-1.7h-2v1.7h-1.2v-1.7h-2.1v1.7h-1.2v-1.7h-2.1v1.7H540v-1.7h-2.1v1.7h-1.2v-1.7h-2.1v1.7h-1.2
	v-1.7h-2.1v1.7h-1.2v-1.7h-2.1v1.7h-1.2v-1.7h-2.1v1.7h-1.2v-1.7h-2.1v1.7h-1.2v-1.7h-2.1v1.7h-1.2v-1.7h-2.1v1.7h-1.2v-1.7H511v1.7
	h-1.2v-1.7h-2.1v1.7h-1.2v-1.7h-2v1.7h-1.2v-1.7h-2.1v1.7h-1.2v-1.7h-2.1v1.7h-1.2v-1.7h-2.1v1.7h-1.2v-1.7H491v1.7h-1.2v-1.7h-2.1
	v1.7h-1.2v-1.7h-2.1v1.7h-1.2v-1.7H481v1.7h-1.2v-1.7h-2.1v2.1h1.4v1c0.6-0.1,1.2-0.2,1.9-0.2c4,0,7.3,3,7.7,6.9
	c0.5-3.7,3.8-6.7,7.6-6.7c4.2,0,7.7,3.5,7.7,7.7c0.2,3.5-2.1,6.3-5.3,7.3h-2.1v0.4h-0.1c-0.4,0-0.7,0-1.1-0.1v-0.2h-1.2
	c-2.9-0.9-5.1-3.5-5.4-6.7c-0.3,3.1-2.4,5.5-5.3,6.4h-0.1c-0.4,0.1-0.9,0.2-1.2,0.2v-0.2h-2.1v0.2c-0.2,0-0.5-0.1-0.7-0.1v1.4h0.7
	v0.6h2.1v-0.6h1.2v0.6h2.1v-0.6h1.2v0.6h2.1v-0.6h1.2v0.6h2.1v-0.6h1.2v0.6h2.1v-0.6h1.2v0.6h2.1v-0.6h1.2v0.6h2.1v-0.6h1.2v0.6h2.1
	v-0.6h1.2v0.6h2.1v-0.6h1.2v0.6h2.1v-0.6h1.2v0.6h2.1v-0.6h1.2v0.6h2.1v-0.6h1.2v0.6h2.1v-0.6h1.2v0.6h2.1v-0.6h1.2v0.6h2.1v-0.6
	h1.2v0.6h2.1v-0.6h1.2v0.6h2.1v-0.6h1.2v0.6h2.1v-0.6h1.2v0.6h2.1v-0.6h1.2v0.6h2.1v-0.6h1.2v0.6h2.1v-0.6h1.2v0.6h2.1v-0.6h1.2v0.6
	h2.1v-0.6h1.2v0.6h2.1v-0.6h1.2v0.6h2.1v-0.6h1.2v0.6h2.1v-0.6h1.2v0.6h2.1v-0.6h1.2v0.6h2.1v-0.6h1.2v0.6h2.1v-0.6h1.2v0.6h2.1
	v-0.6h1.2v0.6h2.1v-0.6h1.2v0.6h2.1v-0.6h1.2v0.6h2.1v-0.6h1.2v0.6h2.1v-0.6h1.2v0.6h2.1v-0.6h1.2v0.6h2.1v-0.6h1.2v0.6h2.1v-0.6
	h1.2v0.6h2.1v-0.6h1.2v0.6h2.1v-0.6h1.2v0.6h2.1v-0.6h1.2v0.6h2.1v-0.6h1.2v0.6h2.1v-0.6h1.2v0.6h2.1v-0.6h1.2v0.6h2.1v-0.6h1.2v0.6
	h2.1v-0.6h1.2v0.6h2.1v-0.6h1.2v0.6h2.1v-0.6h1.2v0.6h2.1v-0.6h1.2v0.6h2.1v-0.6h1.2v0.6h2.1v-0.6h1.2v0.6h2.1v-0.6h1.2v0.6h2.1
	v-0.6h1.2v0.6h2.1v-0.6h1.2v0.6h2.1v-0.6h1.2v0.6h2.1v-0.6h1.2v0.6h2.1v-0.6h1.2v0.6h2.1v-0.6h1.2v0.6h2.1v-0.6h1.2v0.6h2.1v-0.6
	h1.2v0.6h2.1v-0.6h1.2v0.6h2.1v-0.6c0.4,0,0.9,0,1.2-0.1v0.6c0,0,0.6,0,1.1-0.1c0.2-0.1,0.6-0.1,0.7-0.2l0.2-0.1H686.6z
	 M528.7,285.3v-0.2h-2.1v0.4c-0.4,0-0.9-0.1-1.2-0.2v-0.1h-0.4c-3.1-1-5.5-3.9-5.5-7.3c0.1,3.4-2.2,6.3-5.3,7.3h-1v0.2
	c-0.4,0.1-0.9,0.1-1.2,0.1v-0.4h-2.1v0.1c-3.4-0.9-5.7-3.9-5.7-7.5c0-4.2,3.5-7.7,7.7-7.7c4.2,0,7.7,3.5,7.7,7.7
	c0-4.2,3.5-7.7,7.7-7.7c4.2,0,7.7,3.5,7.7,7.7C535,281.5,532.3,284.7,528.7,285.3z M545.2,285.1h-1.9v0.4c-0.1,0-0.4,0-0.5,0
	c-0.2,0-0.5,0-0.7,0v-0.4h-1.6c-3.1-1-5.3-3.9-5.3-7.3c0-4.2,3.5-7.7,7.7-7.7c4.2,0,7.7,3.5,7.7,7.7
	C550.5,281.1,548.3,284.1,545.2,285.1z M560.6,285.1H560v0.1c-0.4,0.1-0.9,0.1-1.2,0.1V285h-2.1v0.2c-3.5-0.7-6.1-3.9-6.1-7.6
	c0-4.2,3.5-7.7,7.7-7.7c4.2,0,7.7,3.5,7.7,7.7C566.1,281.1,563.8,284.1,560.6,285.1z M575.5,285.2v-0.1h-2.1v0.4
	c-0.4,0-0.9-0.1-1.2-0.1v-0.1h-0.6c-3.1-1-5.5-3.9-5.5-7.3c0-4.2,3.5-7.7,7.7-7.7c4.2,0,7.7,3.5,7.7,7.7
	C581.6,281.4,579,284.5,575.5,285.2z M591.7,285.1h-1.5v0.2c-0.2,0-0.6,0-0.9,0h-0.4V285h-1.9c-3.1-1-5.5-3.9-5.5-7.3
	c0-4.2,3.5-7.7,7.7-7.7c4.2,0,7.7,3.5,7.7,7.7C597.1,281.1,594.8,284.1,591.7,285.1z M607.2,285.1H607v0.1c-0.4,0.1-0.9,0.2-1.2,0.2
	v-0.4h-2.1v0.2c-3.7-0.6-6.5-3.7-6.5-7.6c0-4.2,3.5-7.7,7.7-7.7c4.2,0,7.7,3.5,7.7,7.7C612.5,281.1,610.3,284.1,607.2,285.1z
	 M638.1,285.1H637v0.2c-0.4,0.1-0.9,0.1-1.2,0.1v-0.4h-2.1c-3.2-0.9-5.6-3.9-5.6-7.5c0,3.6-2.4,6.6-5.6,7.5l-2.1-0.1v0.4
	c-0.4,0-0.9,0-1.2-0.1V285h-1c-3.1-1-5.5-3.9-5.5-7.3c0-4.2,3.5-7.7,7.7-7.7c4.2,0,7.7,3.5,7.7,7.7c0-4.2,3.5-7.7,7.7-7.7
	c4.2,0,7.7,3.5,7.7,7.7C643.6,281.1,641.4,284.1,638.1,285.1z M652.6,285.3v-0.2h-2.1v0.2c-0.5,0-0.9-0.1-1.2-0.2h-0.1
	c-3.1-1-5.3-3.9-5.3-7.3c0-4.2,3.5-7.7,7.7-7.7c4.2,0,7.7,3.5,7.7,7.7C659.1,281.6,656.3,284.7,652.6,285.3z M669.2,285.1h-2v0.4
	h-0.4c-0.4,0-0.6,0-0.9,0v-0.2h-1.4c-3.1-1-5.5-3.9-5.5-7.3c0-4.2,3.5-7.7,7.7-7.7c4.2,0,7.7,3.5,7.7,7.7
	C674.6,281.1,672.3,284.1,669.2,285.1z M685.5,284.8c-0.1,0-0.4,0.1-0.6,0.1c-0.5,0.1-0.9,0.1-0.9,0.1v0.2c-0.4,0.1-0.7,0.1-1.2,0.1
	v-0.4h-2.1v0.1c-3.5-0.7-6-3.9-6-7.6c0-4.2,3.5-7.7,7.7-7.7c4.2,0,7.7,3.5,7.7,7.7c0,3.1-1.7,5.8-4.3,7.1L685.5,284.8z"/>
<rect x="509.5" y="288.3" class="mi14" width="3" height="3"/>
<rect x="504.7" y="288.3" class="mi14" width="3" height="3"/>
<rect x="500" y="288.3" class="mi14" width="3" height="3"/>
<rect x="495.1" y="288.3" class="mi14" width="3" height="3"/>
<rect x="490.4" y="288.3" class="mi14" width="3" height="3"/>
<rect x="485.6" y="288.3" class="mi14" width="3" height="3"/>
<rect x="476" y="288.3" class="mi14" width="3" height="3"/>
<path class="mi14" d="M495.9,280.1c1.4,0,2.5-1.1,2.5-2.5c0-1.4-1.1-2.5-2.5-2.5c-1.4,0-2.5,1.1-2.5,2.5
	C493.4,279,494.5,280.1,495.9,280.1z"/>
<g>
	<rect x="539" y="235.5" class="mi15" width="33.7" height="27"/>
	<rect x="561.2" y="235.6" class="mi16" width="4.7" height="7.5"/>
	<polygon class="mi15" points="539,235.6 532,222.8 534.1,223.6 541,235.5 	"/>
	<polygon class="mi15" points="572.7,235.5 579.7,222.8 577.6,223.6 570.7,235.5 	"/>
</g>
<g>
	<rect x="640.5" y="235.5" class="mi15" width="33.7" height="27"/>
	<rect x="645" y="247.3" class="mi17" width="10.6" height="0.9"/>
	<rect x="662.8" y="235.6" class="mi16" width="4.7" height="7.5"/>
</g>
<path class="mi18" d="M657.8,212.4c-4.2,0-7.7,3.5-7.7,7.7c0,4.2,3.5,7.7,7.7,7.7c4.2,0,7.7-3.5,7.7-7.7
	C665.5,215.9,662,212.4,657.8,212.4z"/>
<path class="mi17" d="M660.4,217.1l-4.1,4.1l-1.5-1.5c-0.2-0.2-0.7-0.2-1,0c-0.2,0.2-0.2,0.7,0,1l2,2c0.1,0.1,0.4,0.2,0.5,0.2
	c0.1,0,0.4-0.1,0.5-0.2l4.6-4.6c0.2-0.2,0.2-0.7,0-1C661.1,216.9,660.6,216.9,660.4,217.1z"/>
<polygon class="mi19" points="585.2,140.7 574,140.7 579.6,144.5 "/>
<polygon class="mi19" points="572.3,149.5 572.5,149.5 578.9,145.2 572.5,140.7 572.3,140.7 566,145.2 "/>
<polygon class="mi19" points="588.6,149.5 599.5,149.5 594,145.7 "/>
<polygon class="mi19" points="574.2,149.5 585.1,149.5 579.6,145.7 "/>
<polygon class="mi19" points="586.7,149.5 587,149.5 593.3,145.2 587,140.7 586.7,140.7 580.4,145.2 "/>
<polygon class="mi19" points="608.6,145.7 603.1,149.5 614,149.5 608.8,145.9 "/>
<polygon class="mi19" points="614,140.7 602.9,140.7 608.4,144.5 "/>
<polygon class="mi19" points="601.1,149.5 601.4,149.5 607.7,145.2 601.4,140.7 601.4,140.6 601.1,140.6 594.8,145 "/>
<polygon class="mi19" points="615.2,149.3 615.7,149.6 615.7,149.8 615.9,149.8 622.2,145.4 615.9,140.9 615.8,140.9 609.4,145.3 
	"/>
<polygon class="mi19" points="599.8,140.7 588.6,140.7 594.2,144.5 "/>
<polygon class="mi19" points="643,140.8 631.8,140.8 637.4,144.7 "/>
<polygon class="mi19" points="631.9,149.6 643,149.6 637.4,145.8 "/>
<polygon class="mi19" points="617.5,149.6 628.5,149.6 623,145.8 "/>
<polygon class="mi19" points="630.1,149.6 630.3,149.6 636.7,145.3 630.3,140.8 630.3,140.7 630.1,140.7 623.7,145.2 "/>
<polygon class="mi19" points="628.6,140.8 617.4,140.8 623,144.7 "/>
<path class="mi19" d="M589.3,269.9c-4.2,0-7.7,3.5-7.7,7.7c0,3.5,2.4,6.3,5.5,7.3h1.9v0.4h0.4c0.2,0,0.6,0,0.9,0v-0.2h1.5
	c3.1-1,5.5-4,5.3-7.5C597,273.4,593.5,269.9,589.3,269.9z M589.2,280.1c-1.4,0-2.5-1.1-2.5-2.5c0-1.4,1.1-2.5,2.5-2.5
	s2.5,1.1,2.5,2.5C591.7,279,590.6,280.1,589.2,280.1z"/>
<path class="mi19" d="M666.9,270.2c-4.2,0-7.7,3.5-7.7,7.7c0,3.5,2.4,6.3,5.5,7.3h1.4v0.2c0.2,0,0.5,0,0.9,0h0.4v-0.4h2
	c3.1-1,5.3-4,5.3-7.2C674.6,273.7,671.1,270.2,666.9,270.2z M667,280.1c-1.4,0-2.5-1.1-2.5-2.5c0-1.4,1.1-2.5,2.5-2.5
	s2.6,1.1,2.5,2.5C669.5,279,668.3,280.1,667,280.1z"/>
<path class="mi19" d="M635.8,269.9c-4.2,0-7.7,3.5-7.7,7.7c0,0,0,0,0,0c0,0,0,0,0,0c0,3.6,2.4,6.6,5.6,7.5h2.1v0.4
	c0.4,0,0.9,0,1.2-0.1v-0.2h1.1c3.2-1,5.5-4,5.3-7.5C643.5,273.4,640,269.9,635.8,269.9z M636.2,280.1c-1.4,0-2.5-1.1-2.5-2.5
	c0-1.4,1.1-2.5,2.5-2.5c1.4,0,2.5,1.1,2.5,2.5C638.6,279,637.5,280.1,636.2,280.1z"/>
<path class="mi19" d="M651.4,270c-4.2,0-7.7,3.5-7.7,7.7c0,3.5,2.2,6.3,5.3,7.3h0.1c0.4,0.1,0.7,0.2,1.2,0.2v-0.2h2.1v0.2
	c3.7-0.6,6.6-3.7,6.6-7.6C659.1,273.5,655.7,270,651.4,270z M651.6,280.1c-1.4,0-2.5-1.1-2.5-2.5c0-1.4,1.1-2.5,2.5-2.5
	c1.4,0,2.5,1.1,2.5,2.5C654.1,279,652.9,280.1,651.6,280.1z"/>
<path class="mi19" d="M690.1,277.6c0-4.2-3.5-7.7-7.7-7.7c-4.2,0-7.7,3.5-7.7,7.7c0,3.7,2.5,6.8,6,7.6v-0.1h2.1v0.4
	c0.5,0,0.9,0,1.2-0.1v-0.2c0,0,0.4,0,0.9-0.1c0.2,0,0.5-0.1,0.6-0.1l0.2-0.1C688.3,283.5,690.1,280.7,690.1,277.6z M682.6,280.1
	c-1.4,0-2.5-1.1-2.5-2.5c0-1.4,1.1-2.5,2.5-2.5c1.4,0,2.5,1.1,2.5,2.5C685.1,279,684,280.1,682.6,280.1z"/>
<path class="mi19" d="M628.1,277.6c0-4.2-3.5-7.7-7.7-7.7c-4.2,0-7.7,3.5-7.7,7.7c0,3.5,2.4,6.3,5.5,7.3h1v0.2
	c0.4,0.1,0.9,0.1,1.2,0.1V285l2.1,0.1C625.7,284.2,628.1,281.2,628.1,277.6C628.1,277.6,628.1,277.6,628.1,277.6
	C628.1,277.6,628.1,277.6,628.1,277.6z M620.6,280.1c-1.4,0-2.5-1.1-2.5-2.5c0-1.4,1.1-2.5,2.5-2.5c1.5,0,2.6,1.1,2.5,2.5
	C623.1,279,622,280.1,620.6,280.1z"/>
<path class="mi19" d="M604.8,270c-4.2,0-7.7,3.5-7.7,7.7c0,3.9,2.7,7,6.5,7.6v-0.2h2.1v0.4c0.4,0,0.9-0.1,1.2-0.2v-0.1h0.2
	c3.1-1,5.3-4,5.3-7.3C612.5,273.5,609.1,270,604.8,270z M605.2,280.1c-1.4,0-2.5-1.1-2.5-2.5c0-1.4,1.1-2.5,2.5-2.5
	c1.4,0,2.5,1.1,2.5,2.5C607.7,279,606.6,280.1,605.2,280.1z"/>
<path class="mi19" d="M573.8,270.2c-4.2,0-7.7,3.5-7.7,7.7c0,3.5,2.4,6.3,5.5,7.3h0.6v0.1c0.4,0,0.9,0.1,1.2,0.1v-0.4h2.1v0.1
	c3.5-0.7,6.1-3.9,6-7.3C581.5,273.7,578,270.2,573.8,270.2z M573.8,280.1c-1.4,0-2.5-1.1-2.5-2.5c0-1.4,1.1-2.5,2.5-2.5
	c1.4,0,2.5,1.1,2.5,2.5C576.3,279,575.1,280.1,573.8,280.1z"/>
<rect x="573.7" y="262.6" class="mi14" width="3" height="3"/>
<rect x="578.4" y="262.6" class="mi14" width="3" height="3"/>
<rect x="583.2" y="262.6" class="mi14" width="3" height="3"/>
<rect x="587.9" y="262.6" class="mi14" width="3" height="3"/>
<rect x="592.8" y="262.6" class="mi14" width="3" height="3"/>
<rect x="597.5" y="262.6" class="mi14" width="3" height="3"/>
<rect x="602.4" y="262.6" class="mi14" width="3" height="3"/>
<rect x="607.1" y="262.6" class="mi14" width="3" height="3"/>
<rect x="611.9" y="262.6" class="mi14" width="3" height="3"/>
<rect x="616.8" y="262.6" class="mi14" width="3" height="3"/>
<rect x="621.5" y="262.6" class="mi14" width="3" height="3"/>
<rect x="626.3" y="262.6" class="mi14" width="3" height="3"/>
<rect x="631.1" y="262.6" class="mi14" width="3" height="3"/>
<rect x="635.9" y="262.6" class="mi14" width="3" height="3"/>
<rect x="640.6" y="262.6" class="mi14" width="3" height="3"/>
<rect x="645.5" y="262.6" class="mi14" width="3" height="3"/>
<rect x="650.2" y="262.6" class="mi14" width="3" height="3"/>
<rect x="655" y="262.6" class="mi14" width="3" height="3"/>
<rect x="659.8" y="262.6" class="mi14" width="3" height="3"/>
<rect x="664.6" y="262.6" class="mi14" width="3" height="3"/>
<rect x="669.3" y="262.6" class="mi14" width="3" height="3"/>
<rect x="674.2" y="262.6" class="mi14" width="3" height="3"/>
<rect x="679" y="262.6" class="mi14" width="3" height="3"/>
<path class="mi14" d="M684.5,265.6c0.1,0,0.4,0,0.5,0c0.4,0,0.6,0.1,0.9,0.1s0.4,0.1,0.4,0.1l0.7-2.9c0,0-0.2,0-0.5-0.1
	c-0.2-0.1-0.7-0.1-1.1-0.2c-0.2,0-0.4,0-0.6-0.1c-0.2,0-0.4,0-0.5,0c-0.4,0-0.5,0-0.5,0l-0.1,3c0,0,0.1,0,0.4,0
	C684.2,265.6,684.4,265.6,684.5,265.6z"/>
<path class="mi14" d="M689,267.1l0.2,0.1l0.2,0.1l0.4,0.2c0.2,0.1,0.4,0.2,0.4,0.2l1.7-2.4c0,0-0.1-0.1-0.4-0.2
	c-0.1-0.1-0.2-0.1-0.5-0.2l-0.2-0.1l-0.2-0.1c-0.4-0.2-0.7-0.4-1-0.5c-0.2-0.1-0.5-0.2-0.5-0.2l-1.2,2.7c0,0,0.1,0.1,0.4,0.1
	C688.5,266.8,688.7,266.9,689,267.1z"/>
<path class="mi14" d="M692.2,269.8c0.2,0.2,0.4,0.5,0.5,0.7c0.1,0.2,0.2,0.4,0.2,0.4l2.5-1.6c0,0-0.1-0.1-0.2-0.5
	c-0.1-0.2-0.4-0.6-0.7-0.9c-0.5-0.6-1.1-1.2-1.1-1.2l-2.1,2.1C691.3,268.8,691.8,269.3,692.2,269.8z"/>
<path class="mi14" d="M693.7,272.4l0.1,0.2c0,0.1,0.1,0.2,0.1,0.4c0,0.1,0.1,0.2,0.1,0.5c0,0.1,0.1,0.4,0.1,0.5
	c0,0.1,0.1,0.2,0.1,0.4c0,0.2,0.1,0.4,0.1,0.4l3-0.5c0,0,0-0.2-0.1-0.5c0-0.1-0.1-0.4-0.1-0.5c0-0.2-0.1-0.4-0.1-0.6
	c-0.1-0.2-0.1-0.4-0.2-0.6c-0.1-0.1-0.1-0.4-0.2-0.5c0-0.1-0.1-0.2-0.1-0.4V271L693.7,272.4z"/>
<path class="mi14" d="M694.7,276.4c0,0,0,0.1,0,0.4c0,0.1,0,0.2,0,0.4c0,0.1,0,0.4,0,0.5c0,0.4-0.1,0.6-0.1,0.9
	c0,0.2-0.1,0.4-0.1,0.4l3,0.5c0,0,0-0.2,0.1-0.5c0-0.2,0.1-0.7,0.1-1.1c0-0.2,0-0.4,0-0.6c0-0.2,0-0.4,0-0.5s0-0.4,0-0.4
	L694.7,276.4z"/>
<path class="mi14" d="M693.9,281c0,0.1-0.1,0.2-0.1,0.4s-0.1,0.2-0.2,0.5c-0.1,0.2-0.2,0.6-0.4,0.7c-0.1,0.2-0.2,0.4-0.2,0.4
	l2.5,1.6c0,0,0.1-0.1,0.2-0.5c0.1-0.2,0.4-0.6,0.5-1c0.4-0.7,0.6-1.5,0.6-1.5l-2.7-0.9L693.9,281z"/>
<path class="mi14" d="M691.8,284.2l0.1,0.1C692,284.2,692,284.2,691.8,284.2z"/>
<path class="mi14" d="M691.7,284.6c-0.1,0.1-0.4,0.4-0.6,0.6l-0.4,0.4l-0.4,0.2c-0.2,0.1-0.4,0.2-0.4,0.2l1.7,2.4
	c0,0,0.1-0.1,0.4-0.4c0.1-0.1,0.2-0.2,0.4-0.4c0.1-0.1,0.2-0.2,0.5-0.4c0.2-0.2,0.6-0.6,0.7-0.9c0.2-0.2,0.4-0.4,0.4-0.4l-2.1-1.8
	C691.9,284.4,691.8,284.5,691.7,284.6z"/>
<path class="mi14" d="M687.6,287.4c-0.2,0.1-0.6,0.2-0.9,0.2c-0.2,0.1-0.4,0.1-0.4,0.1l0.7,2.9c0,0,0.2,0,0.5-0.1
	c0.2-0.1,0.7-0.2,1.1-0.4c0.7-0.4,1.5-0.7,1.5-0.7l-1.4-2.6C688.7,286.9,688.2,287.2,687.6,287.4z"/>
<path class="mi14" d="M683.4,288.3c-0.7,0-1.5,0-1.5,0v3c0,0,0.7,0,1.5,0c0.9,0,1.6-0.1,1.6-0.1l-0.4-3
	C684.7,288.2,684.1,288.3,683.4,288.3z"/>
<rect x="677.2" y="288.3" class="mi14" width="3" height="3"/>
<rect x="667.6" y="288.3" class="mi14" width="3" height="3"/>
<rect x="662.8" y="288.3" class="mi14" width="3" height="3"/>
<rect x="658" y="288.3" class="mi14" width="3" height="3"/>
<rect x="653.2" y="288.3" class="mi14" width="3" height="3"/>
<rect x="648.5" y="288.3" class="mi14" width="3" height="3"/>
<rect x="643.6" y="288.3" class="mi14" width="3" height="3"/>
<rect x="629.3" y="288.3" class="mi14" width="3" height="3"/>
<rect x="624.5" y="288.3" class="mi14" width="3" height="3"/>
<rect x="619.8" y="288.3" class="mi14" width="3" height="3"/>
<rect x="614.9" y="288.3" class="mi14" width="3" height="3"/>
<rect x="610.1" y="288.3" class="mi14" width="3" height="3"/>
<rect x="605.3" y="288.3" class="mi14" width="3" height="3"/>
<rect x="600.5" y="288.3" class="mi14" width="3" height="3"/>
<rect x="595.8" y="288.3" class="mi14" width="3" height="3"/>
<rect x="590.9" y="288.3" class="mi14" width="3" height="3"/>
<rect x="586.2" y="288.3" class="mi14" width="3" height="3"/>
<rect x="581.4" y="288.3" class="mi14" width="3" height="3"/>
<rect x="576.6" y="288.3" class="mi14" width="3" height="3"/>
<rect x="571.8" y="288.3" class="mi14" width="3" height="3"/>
<polygon class="mi14" points="628.1,277.6 628.1,277.6 628.1,277.6 628.1,277.6 "/>
<path class="mi14" d="M682.6,275.1c-1.4,0-2.5,1.1-2.5,2.5c0,1.4,1.1,2.5,2.5,2.5c1.4,0,2.5-1.1,2.5-2.5
	C685.1,276.3,684,275.1,682.6,275.1z"/>
<path class="mi14" d="M667,275.1c-1.4,0-2.5,1.1-2.5,2.5c0,1.4,1.1,2.5,2.5,2.5c1.4,0,2.5-1.1,2.5-2.5
	C669.6,276.3,668.3,275.1,667,275.1z"/>
<path class="mi14" d="M651.6,275.1c-1.4,0-2.5,1.1-2.5,2.5c0,1.4,1.1,2.5,2.5,2.5c1.4,0,2.5-1.1,2.5-2.5
	C654.1,276.3,652.9,275.1,651.6,275.1z"/>
<path class="mi14" d="M636.2,275.1c-1.4,0-2.5,1.1-2.5,2.5c0,1.4,1.1,2.5,2.5,2.5c1.4,0,2.5-1.1,2.5-2.5
	C638.6,276.3,637.5,275.1,636.2,275.1z"/>
<path class="mi14" d="M620.6,275.1c-1.4,0-2.5,1.1-2.5,2.5c0,1.4,1.1,2.5,2.5,2.5c1.4,0,2.5-1.1,2.5-2.5
	C623.2,276.3,622.1,275.1,620.6,275.1z"/>
<path class="mi14" d="M605.2,275.1c-1.4,0-2.5,1.1-2.5,2.5c0,1.4,1.1,2.5,2.5,2.5c1.4,0,2.5-1.1,2.5-2.5
	C607.7,276.3,606.6,275.1,605.2,275.1z"/>
<path class="mi14" d="M589.2,275.1c-1.4,0-2.5,1.1-2.5,2.5c0,1.4,1.1,2.5,2.5,2.5s2.5-1.1,2.5-2.5
	C591.7,276.3,590.6,275.1,589.2,275.1z"/>
<path class="mi14" d="M573.8,275.1c-1.4,0-2.5,1.1-2.5,2.5c0,1.4,1.1,2.5,2.5,2.5c1.4,0,2.5-1.1,2.5-2.5
	C576.3,276.3,575.1,275.1,573.8,275.1z"/>
<path class="mi14" d="M617.7,198.4c-0.7,2-2,3.7-3.6,5l7.6,5l-1.1,14.7l2.1,0.6l4.6-18.4L617.7,198.4z"/>
<path class="mi14" d="M595.6,198.4l-8.4,7l4.6,18.4l2.1-0.6l-1.1-14.7l6.7-5C597.7,202.1,596.4,200.4,595.6,198.4z"/>
<path class="mi14" d="M603.9,151.6l17.2,0l24.8,0.1v-1.4h-2v-1l-5.7-4l5.7-4v-1.6h2v-1.4H468v1.4h0.5v10.6H468v1.4h9.8v110.8h-0.1v3
	h3v-3h1.7v3h3v-3h1.9v3h3v-3h-0.1V151.5h43.3L603.9,151.6z M628.6,140.8l-5.6,3.9l-5.6-3.9H628.6z M614,140.7l-5.6,3.9l-5.6-3.9H614
	z M599.8,140.7l-5.6,3.9l-5.6-3.9H599.8z M585.2,140.7l-5.6,3.9l-5.6-3.9H585.2z M570.8,140.7l-5.6,3.9l-5.6-3.9H570.8z
	 M556.4,140.6l-5.6,3.9l-5.6-3.9H556.4z M541.8,140.6l-5.6,3.9l-5.6-3.9H541.8z M527.4,140.6l-5.6,3.9l-5.6-3.9H527.4z M513,140.4
	l-5.6,3.9l-5.6-3.9H513z M498.6,140.4l-5.6,3.9l-5.6-3.9H498.6z M484.1,140.4l-5.6,3.9l-5.6-3.9H484.1z M469.5,149.3v-8.8h1.9
	l6.3,4.5l-6.3,4.3H469.5z M473,149.3l5.5-3.9l5.5,3.9H473z M485.8,149.3h-0.2l-6.3-4.5l6.3-4.5h0.2v0.1l6.3,4.5L485.8,149.3z
	 M487.4,149.3l5.5-3.9l5.5,3.9H487.4z M500.1,149.3l-6.3-4.3l6.3-4.5h0.2l6.3,4.5l-6.3,4.3H500.1z M502,149.3l5.5-3.9l5.5,3.9H502z
	 M514.5,149.3l-6.3-4.5l6.3-4.5h0.2v0.1l6.3,4.5l-6.3,4.3H514.5z M516.4,149.4l5.5-3.9l5.5,3.9H516.4z M528.9,149.4l-6.3-4.3
	l6.3-4.5h0.2l6.3,4.5l-6.3,4.3H528.9z M530.8,149.4l5.5-3.9l5.5,3.9H530.8z M543.3,149.4l-6.3-4.5l6.3-4.5h0.2v0.1l6.3,4.5l-6.3,4.3
	H543.3z M545.3,149.4l5.5-3.9l5.5,3.9H545.3z M557.9,149.4l-6.3-4.3l6.3-4.5h0.2l6.3,4.5l-6.3,4.3H557.9z M559.7,149.4l5.5-3.9
	l5.5,3.9H559.7z M572.3,149.5l-6.3-4.3l6.3-4.5h0.2l6.3,4.5l-6.3,4.3H572.3z M574.2,149.5l5.5-3.9l5.5,3.9H574.2z M586.7,149.5
	l-6.3-4.3l6.3-4.5h0.2l6.3,4.5l-6.3,4.3H586.7z M588.6,149.5l5.5-3.9l5.5,3.9H588.6z M601.1,149.5l-6.3-4.5l6.3-4.5h0.2v0.1l6.3,4.5
	l-6.3,4.3H601.1z M603.1,149.5l5.5-3.9l0.2,0.2l5.2,3.6L603.1,149.5z M615.7,149.8v-0.1l-0.5-0.4l-5.7-4l6.3-4.3h0.1l6.3,4.5
	l-6.3,4.3H615.7z M617.5,149.6l5.5-3.9l5.5,3.9H617.5z M630.1,149.6l-6.3-4.5l6.3-4.5h0.2v0.1l6.3,4.5l-6.3,4.3H630.1z M643,149.6
	h-11.1l5.5-3.9L643,149.6z M637.4,144.7l-5.6-3.9H643L637.4,144.7z"/>
<path class="mi14" d="M504.7,151.7v1.3h2.2v1.1h2.4c-0.2,0.4-0.4,0.9-0.4,1.5c0,1.5,1.2,2.7,2.7,2.7v10.9c-0.5,0.1-0.9,0.6-0.9,1.1
	v2.7H509v2.5h1.1v1.9l1.1,1.4h2.1v4h2v-7h8.4v7.1h2v-4h2.1l1.1-1.4v-1.9h0.7v-2.5h-1.6v-2.7c0-0.4-0.2-0.7-0.5-1v-11.2h0.2
	c1.1-0.4,1.9-1.4,1.9-2.6c0-0.5-0.1-1-0.4-1.5h1.9v17h0.4v-17h0.1v-1.1h2.2v-1.4H504.7z M527,169.3c-0.4,0.2-0.8,0.6-0.8,1.1v2.7
	h-13v-2.7c0-0.5-0.3-0.9-0.8-1.1v-11H527V169.3z"/>
<g>
	<path class="mi14" d="M609.6,183.2v-31.2h-5.7v31.3c1-0.3,2-0.4,3-0.4C607.8,182.8,608.7,182.9,609.6,183.2z"/>
	<g>
		<circle class="mi14" cx="606.7" cy="194.5" r="10.7"/>
		<circle class="mi17" cx="606.7" cy="194.5" r="4.8"/>
	</g>
</g>
<polygon class="mi19" points="556.4,140.6 545.2,140.6 550.8,144.4 "/>
<polygon class="mi19" points="543.3,149.4 543.6,149.4 549.9,145 543.6,140.6 543.6,140.4 543.3,140.4 537,144.9 "/>
<polygon class="mi19" points="570.8,140.7 559.6,140.7 565.2,144.5 "/>
<polygon class="mi19" points="557.9,149.4 558.1,149.4 564.5,145 558.1,140.6 557.9,140.6 551.5,145 "/>
<polygon class="mi19" points="559.7,149.4 570.7,149.4 565.2,145.5 "/>
<polygon class="mi19" points="545.3,149.4 556.3,149.4 550.8,145.5 "/>
<path class="mi19" d="M558.2,269.9c-4.2,0-7.7,3.5-7.7,7.7c0,3.7,2.6,6.8,6.1,7.6V285h2.1v0.4c0.4,0,0.9,0,1.2-0.1v-0.1h0.6
	c3.2-1,5.5-4,5.3-7.5C566,273.4,562.5,269.9,558.2,269.9z M558.2,280.1c-1.4,0-2.5-1.1-2.5-2.5c0-1.4,1.1-2.5,2.5-2.5
	c1.4,0,2.6,1.1,2.5,2.5C560.7,279,559.6,280.1,558.2,280.1z"/>
<path class="mi19" d="M542.8,270c-4.2,0-7.7,3.5-7.7,7.7c0,3.5,2.2,6.3,5.3,7.3h1.6v0.4c0.2,0,0.5,0,0.7,0c0.1,0,0.4,0,0.5,0v-0.4
	h1.9c3.1-1,5.3-4,5.3-7.3C550.5,273.5,547.1,270,542.8,270z M542.8,280.1c-1.4,0-2.5-1.1-2.5-2.5c0-1.4,1.1-2.5,2.5-2.5
	c1.4,0,2.5,1.1,2.5,2.5C545.3,279,544.2,280.1,542.8,280.1z"/>
<rect x="544.8" y="262.6" class="mi14" width="3" height="3"/>
<rect x="549.7" y="262.6" class="mi14" width="3" height="3"/>
<rect x="554.4" y="262.6" class="mi14" width="3" height="3"/>
<rect x="559.2" y="262.6" class="mi14" width="3" height="3"/>
<rect x="564" y="262.6" class="mi14" width="3" height="3"/>
<rect x="568.8" y="262.6" class="mi14" width="3" height="3"/>
<rect x="567.1" y="288.3" class="mi14" width="3" height="3"/>
<rect x="562.2" y="288.3" class="mi14" width="3" height="3"/>
<rect x="557.4" y="288.3" class="mi14" width="3" height="3"/>
<rect x="552.7" y="288.3" class="mi14" width="3" height="3"/>
<rect x="547.8" y="288.3" class="mi14" width="3" height="3"/>
<path class="mi14" d="M558.2,275.1c-1.4,0-2.5,1.1-2.5,2.5c0,1.4,1.1,2.5,2.5,2.5c1.4,0,2.5-1.1,2.5-2.5
	C560.9,276.3,559.6,275.1,558.2,275.1z"/>
<linearGradient id="SVGMIID_15_" gradientUnits="userSpaceOnUse" x1="1370.9888" y1="337.0727" x2="1373.1122" y2="397.9637" gradientTransform="matrix(-1 0 0 -1 1860.14 474.8)">
	<stop  offset="0" style="stop-color:#DFE3ED;stop-opacity:0"/>
	<stop  offset="1" style="stop-color:#DFE3ED"/>
</linearGradient>
<path class="mi20" d="M575,134.5H387.4h-2.4c-8-2.1-8.1-5.7-8.3-8.4c-0.5-5.4,7.7-9.8,7.7-9.8c5.3-2.4,10.5-5.2,15.5-8.2
	c13.4-8.9,18.8-16.8,18.8-16.8c30.6-29.2,53.1-0.3,53.1-0.3c9.1,12.2,20.7,8.5,20.7,8.5c36.4-10.8,49.9,5.9,56.5,10.5
	c6.5,4.7,28.3,7,28.3,7s23,2.1,23.7,10.9c0,0,0.4,6.6-22.5,6.6H575z"/>
<g>
	<g>
		<linearGradient id="SVGMIID_16_" gradientUnits="userSpaceOnUse" x1="3.6667" y1="344.1186" x2="252.4074" y2="344.1186">
			<stop  offset="0" style="stop-color:#DFE3ED;stop-opacity:0"/>
			<stop  offset="0.3175" style="stop-color:#DFE3ED;stop-opacity:0.32"/>
			<stop  offset="0.5913" style="stop-color:#DFE3ED;stop-opacity:0.59"/>
			<stop  offset="0.8481" style="stop-color:#DFE3ED;stop-opacity:0.85"/>
			<stop  offset="1" style="stop-color:#DFE3ED"/>
		</linearGradient>
		<polygon class="mi21" points="3.7,336.9 163.2,353.3 252.4,344.9 178.5,335 		"/>
		<linearGradient id="SVGMIID_17_" gradientUnits="userSpaceOnUse" x1="163.1682" y1="345.756" x2="366.9872" y2="345.756">
			<stop  offset="0" style="stop-color:#DFE3ED;stop-opacity:0"/>
			<stop  offset="9.859687e-02" style="stop-color:#DFE3ED;stop-opacity:9.859687e-02"/>
			<stop  offset="1" style="stop-color:#DFE3ED"/>
		</linearGradient>
		<polygon class="mi22" points="163.2,353.3 367,352 324.3,338.3 		"/>
		<g>
			<polyline class="mi23" points="89.5,157.4 104.5,194.8 143,221.7 256.4,218.4 235.4,168 233.5,163.6 232.2,160.4 89.5,157.4 			
				"/>
			<polygon class="mi24" points="255.7,218.3 325,228.5 361.7,216.6 309.9,210.9 			"/>
			<polygon class="mi25" points="116.5,224.4 163.2,235.6 325,228.5 256.4,218.4 108.8,222.6 			"/>
			<polygon class="mi24" points="59.9,190.5 108.8,222.6 163.2,235.6 104.4,194.8 			"/>
			<g>
				<path class="mi26" d="M265.2,266.3l-0.4,6.6c0,0-7.8,8.6-13.6,8.8c0,0-1.3,1.4,2.1,1.7c0,0,10,0.9,12.7-2.4l0.3-0.3v2.1h3.9
					c0,0,1.8-3.2,1.3-7.3c0,0,1.4-7.8,1.5-8.3C273,266.8,265.2,266.3,265.2,266.3z"/>
				<path class="mi26" d="M284.2,273.2c0,0-5.3,9.8-7.1,10.3c0,0-1.7,0.7-0.4,1.7c0,0,4.9,2.3,8.1-2.3c0,0,3.5-3.6,3.9-3.9
					s0.9,0.4,1,0.4c0.1,0,2.3-2.1,2.3-3.4c-0.1-1.3-0.2-2.4-0.2-4.4c0-1.9,0.2-6.4,0.3-6.8c0.1-0.4-7.9-0.6-7.9-0.6L284.2,273.2z"/>
				<path class="mi27" d="M300,192.8l-3.2,5.1l-1.1,1.7c-3.2,5.6-7.2,3.4-7.2,3.4l-22.3-11.8c-8.4,0.1-6.9-4.9-6.9-4.9l27,9.2
					l2.9,0.5l2-4.8l2.7-7.2c0,0,2.8-1.5,8.9,1.5L300,192.8z"/>
				<path class="mi26" d="M330.9,212.9c0,0,2.6,16.7-15.4,15.7c0,0-11,8.1-18.4,11.6c0,0-0.5,15.6-4.8,29.2l-9.7-0.9
					c0,0-1.7-23.6,0.7-31.1c0,0,4.1-4.1,6-5.3c1.8-1.2-7.9,5-7.9,5s-2,25.7-8.3,35.4l-9.5-1.2c0,0,2.6-37.8,2.9-38.5
					c0.3-0.7-0.2-3.6,5.6-5.8c0,0,25-11.8,28.3-13.4c0,0,22.8-0.1,26,0.4C329,213.8,330.8,213.5,330.9,212.9z"/>
				<path class="mi28" d="M289.1,232.2c1.8-1.2-7.9,5-7.9,5s-2,25.7-8.3,35.4l-9.5-1.2c0,0,2.6-37.8,2.9-38.5
					c0.3-0.7-0.2-3.6,5.6-5.8c0,0,25-11.8,28.3-13.4c0,0,18.2-7.4,0.7,7.8L289.1,232.2z"/>
				<g>
					<g>
						<path class="mi29" d="M256.5,171.5c-4.1-14.4-25.2-28.1-47.1-30.6c-19.3-2.2-32.7,5-32.8,16.5c2.8-5.5,9.3-9.2,18.3-10.4
							c3.9-0.5,8.2-0.6,13,0c14,1.6,27.6,7.8,36.7,15.8c5.2,4.5,8.8,9.6,10.4,14.8c0.5,1.7,0.8,3.4,0.7,4.9
							C257.3,179.4,257.6,175.6,256.5,171.5z"/>
						<path class="mi26" d="M255.1,177.7c-1.5-5.2-5.2-10.3-10.4-14.8c-9.1-8-22.9-14.1-36.8-15.8c-4.7-0.6-9.1-0.5-13.1,0
							c-9,1.2-15.6,5-18.4,10.4c-1.6,3.2-1.9,6.9-0.8,11.1c4.1,14.3,25.3,28.1,47.2,30.6c19.3,2.2,32.8-5,32.9-16.5
							C255.8,181,255.6,179.4,255.1,177.7z M221.5,194.2c-13.7-1.5-27-8.6-33.9-17c-2-2.5-3.6-5.2-4.3-7.8c-1.1-3.6-0.7-6.8,0.9-9.5
							c3.5-6.1,12.9-9.3,25.2-7.9c17.8,2,34.9,13.2,38.2,24.8c0.3,1.2,0.5,2.3,0.6,3.4c0.3,6-3.8,10.6-10.7,12.9
							C233.1,194.4,227.8,194.9,221.5,194.2z"/>
						<path class="mi29" d="M223.1,188c-17.8-2-34.9-13.2-38.2-24.8c-0.3-1.2-0.5-2.3-0.6-3.4c-1.5,2.7-1.9,5.9-0.9,9.5
							c0.8,2.7,2.3,5.3,4.3,7.8c6.9,8.5,20.3,15.4,33.9,17c6.1,0.7,11.6,0.2,16-1.2c6.9-2.2,11-6.8,10.7-12.9
							C244.7,186.2,235.4,189.5,223.1,188z"/>
						
							<rect x="270.9" y="170.1" transform="matrix(0.3425 -0.9395 0.9395 0.3425 1.2037 382.1433)" class="mi26" width="5.5" height="40.3"/>
						
							<rect x="272.6" y="168.1" transform="matrix(0.3425 -0.9395 0.9395 0.3425 3.4774 381.5169)" class="mi29" width="3.4" height="40.3"/>
						<g>
							<g>
								<path id="SVGMIID_19_" class="mi29" d="M184.2,160.5c-0.2,0.4-0.3,0.7-0.4,1.1c-3.1,9.6,8.7,21.9,26.3,27.6
									c6,1.9,11.7,2.8,17,2.8c10.4,0,18.4-3.6,20.5-9.9c0.2-0.5,0.3-1,0.4-1.5c-1.5,2.5-4.1,4.4-7.4,5.8c-3.3,1.3-7.4,2.1-12,2.1
									c-1.7,0-3.6-0.1-5.5-0.3c-17.8-2-34.9-13.2-38.2-24.8C184.4,162.3,184.3,161.4,184.2,160.5"/>
							</g>
							<g>
								<defs>
									<path id="SVGMIID_18_" d="M184.2,160.5c-0.2,0.4-0.3,0.7-0.4,1.1c-3.1,9.6,8.7,21.9,26.3,27.6c6,1.9,11.7,2.8,17,2.8
										c10.4,0,18.4-3.6,20.5-9.9c0.2-0.5,0.3-1,0.4-1.5c-1.5,2.5-4.1,4.4-7.4,5.8c-3.3,1.3-7.4,2.1-12,2.1
										c-1.7,0-3.6-0.1-5.5-0.3c-17.8-2-34.9-13.2-38.2-24.8C184.4,162.3,184.3,161.4,184.2,160.5"/>
								</defs>
								<clipPath id="SVGMIID_20_">
									<use xlink:href="#SVGMIID_18_"  style="overflow:visible;"/>
								</clipPath>
								<g class="mi30">
									<g>
										<rect id="SVGMIID_21_" x="179.1" y="159.6" class="mi29" width="70.1" height="33.4"/>
									</g>
								</g>
							</g>
						</g>
					</g>
					
						<linearGradient id="SVGMIID_22_" gradientUnits="userSpaceOnUse" x1="-143.4417" y1="105.2569" x2="-72.7287" y2="134.2878" gradientTransform="matrix(-0.8099 -0.3029 -0.2759 0.7378 161.6007 51.2827)">
						<stop  offset="0" style="stop-color:#FFFFFF;stop-opacity:0"/>
						<stop  offset="0.1436" style="stop-color:#FFFFFF;stop-opacity:0.1436"/>
						<stop  offset="1" style="stop-color:#FFFFFF"/>
					</linearGradient>
					<path class="mi31" d="M183.8,160.9c3.7-9.9,20.1-13.1,38.3-7c18.2,6,30.2,20,26.4,29.9s-21.9,13.4-39.9,6.6
						C190.6,183.6,180,170.8,183.8,160.9z"/>
				</g>
				<path class="mi32" d="M317,171.1c4.6,2.4,12.7,3.6,10.4,8.7c-3,6.7-6.5,7.3-4.4,13.5c2,5.9,6.9,7,11.2,6.5s13.1-6,6-15.1
					c-5.4-7-4.2-7.8-4-12.6c0.3-5.9-6-5.4-5.8-10.6c0.2-5.3,1.5-9-1.4-12.8c-2.9-3.8-6.7-3.8-9.7-8c-2.2-3.1-7.4-4-13.2-0.8
					c-3.7,2-3.9,3.6-3.9,3.6c-0.5,1.2-1.2,3.6,0.7,5.3c0,0-1.6,1.1-0.8,3.3c0.8,2.2,0.9,2.9,2.2,4.2
					C305.6,157.4,312.2,168.5,317,171.1z"/>
				<path class="mi27" d="M305.7,169.3c0,0,2-3.9,1-7.7c0,0,3,1.9,8.2-1.1c0,0-0.5,6.3,2.6,7.3c0-0.1-4.6,9.5-8.2,9.1
					C305.7,176.5,305.2,171.9,305.7,169.3z"/>
				<path class="mi33" d="M317.8,159c-2.6,5.4-6.5,5.9-7.8,6c-0.2,0-0.5,0-0.7-0.1c-3.7-0.9-4.8-3.3-5.7-8.4
					c-0.5-3.2-0.2-6.3-0.1-7.8c0-0.4,0.4-0.5,0.7-0.3c5.4,4.1,11.4,2.1,11.8,3.3c0.2,0.7,0.4,1.3,0.6,1.7c0.2,0.4,0.7,0.5,0.7,0.1
					c0.1-1.5,1.1-1.9,1.1-1.9c1.8-0.3,0.9,3.6,0.9,3.6c-0.3,0.9-0.4,1.2-0.6,1.2c-0.2,0-0.4,0.1-0.4,0.2
					C318.4,156.6,318.5,157.7,317.8,159z"/>
				<path class="mi34" d="M296.8,184.3c-1.5-0.2-3,0.1-3,0.1s1.4-10.9,5-12c0,0,1.6-0.6,4.9-2.3c0.2-0.1,0.4-0.2,0.5-0.4
					c0.5-0.8,1.5-0.8,1.7-0.7c0,0,2.2,6.3,3.7,7.5c0.5,0.4,5.5-6.5,7.6-8.5c0.8-0.8,1.4-0.8,3.5,1.3c0,0,16.4,3.3,12.5,12.6
					l-1.7,3.7c0,0-5.1,7.7-2.7,18.1c0,0,0.5,7.7,2.6,9.6c1.2,1.3-13.7,1.7-21.9,1.7c-3.7,0-8.8-0.4-9.5-1c0,0,4.3-5.5,1.2-18.5
					c0,0-4.3-3.7-2.9-10.6L296.8,184.3z"/>
				<g>
					<path class="mi26" d="M301.6,197.4c0.2,1.8,0.3,2,0.5,4.1c0.3,3.5,0.2,8.2-2.1,12.1c-1.4,2.3,19.1-2.1,23.8-7
						c0.6-0.6,1.3-1.5,1.3-2.2c-0.2-5.5,0.6-10.7,2.7-16c0.7-1.7-2.4,4.4-4.6,5.1c-1.8,0.5-4.4,0.9-4.4,0.9c-2.9,1-7.5,0.5-8.9-0.6
						c-1.2-0.9-3.4-0.5-3.4-0.5c-2.4,0.2-6.3-1.1-8.2-3.2c0,0,0.7,2.8,3,5.8C301.1,196,301.5,197,301.6,197.4z"/>
				</g>
				<path class="mi33" d="M318.7,185.2l9,3.3l-8,15.8c0,0,0,0.1-0.1,0.1c-1.3,1.8-3.7,2.5-5.8,1.7c-3.8-1.4-13.4-5-15.6-6.1
					c-2.8-1.4-6.4-2.5-6.4-2.5c-6.6-0.7-9.4-2.7-8.2-3.9c0.4-0.2,1.6,0.3,1.6,0c0.1-0.9,0.5-1.3-2.2-2.3c-1.9-0.6-3-2-3-2.7
					c0-0.5,0.5-1,1-1.1c4.3-1.4,6.7,1.3,9.3,3.4c2.7,2.3,9.2,4.1,9.2,4.1c8.2,2.5,10.9,3.1,13.4,3.5c0.4,0.1,0.8-0.1,0.9-0.5
					C313.8,198,315.6,191.9,318.7,185.2z"/>
				<g>
					<path class="mi27" d="M289.9,195.3c0,0,3.5,0.2,4.1,1c1.4,2.1,14.2,5,18,6.4c2.1,0.8,4.5,0.1,5.8-1.7c0,0,0-0.1,0.1-0.1
						l6.8-13.5l3,1.1l-8,15.8c0,0,0,0.1-0.1,0.1c-1.3,1.8-3.7,2.5-5.8,1.7c-3.8-1.4-13.4-5-15.6-6.1c-2.8-1.4-6.4-2.5-6.4-2.5
						c-6.6-0.7-9.4-2.7-8.2-3.9c0.4-0.2,1.6,0.3,1.6,0C285.2,193.5,287.4,194.8,289.9,195.3z"/>
				</g>
				<path class="mi26" d="M329.4,183l-2,4.1c-0.1,0.2-0.3,0.3-0.5,0.2c-2.4-0.5-4.5-1.2-6.8-2.4c-0.2-0.1-0.2-0.2-0.2-0.4l0.5-4.6
					l-1.3,4.4c0,0-0.2,0.3-0.2,0.3l-0.4,0.9c1.7,1.2,5.8,2.8,9.1,3.3l0.3-0.9L329.4,183z"/>
				<g>
					<g>
						<path class="mi27" d="M317.8,159c0.6-1.3,0.6-2.4,0.6-2.4c0-0.2,0.2-0.3,0.4-0.2c0.1,0,0.3-0.3,0.6-1.2c0,0,0.4-1.9,0.1-3
							c-0.1-0.2-0.3-0.4-0.4-0.6c-0.1-0.1-0.3-0.1-0.6-0.1c0,0-1,0.4-1.1,1.9c0,0.4-0.5,0.2-0.7-0.1c-0.3-0.4-0.5-1-0.6-1.7
							c-0.3-1-4.9,0.4-9.6-1.9c0.1,0.6,0.3,1.1,0.6,1.6c0.4,0.6,0.8,1.2,1.3,1.7c0.8,0.9,1.9,1.7,2.3,2.8c0.5,1.3,0.1,2.7,0.5,4
							c0.5,1.4,1.9,2.4,3.4,2.8c0.2,0.1,0.4,0.1,0.7,0.2C316,162,317,160.7,317.8,159z"/>
					</g>
				</g>
				<path class="mi26" d="M298.5,181.7l-0.8,1.3c-0.3,0.4-0.8,0.7-1.3,0.6c-0.3,0-0.5-0.1-0.8-0.1c0,0,0,0,0,0c-0.2,0-0.5,0-0.7,0
					c-0.4,0-0.7,0.1-1.1,0l-0.2,1.2c0.5,0.1,1,0.1,1.4,0c0.2,0,0.4,0,0.6,0c0,0,0,0,0,0c0.4,0,1.1,0.1,1.6,0.3
					c0.3,0.1,0.5,0.1,0.7,0.1l0-0.4l0.1-0.3L298.5,181.7z"/>
				<g>
					<path class="mi32" d="M311.9,144.6c-1.8,0.4-2.8,2.5-1.8,4.1c0,0,0,0,0,0c0.7,1,1.6,2,2.7,2.5c0.2,0.1,0.5,0.2,0.7,0.3
						c0.3,0.2,0.4,0.5,0.5,0.8c0.5,1.2,0.7,2.5,1,3.7s0.8,2.5,1.8,3.4c0.8,0.7,1.9,1.1,3,1.3c1.3,0.3,2.7,0.4,4.1,0.1
						c1.3-0.3,2.6-1.2,3.1-2.5c0.2-0.5,0.3-1.1,0.4-1.6c0.2-2.2-0.3-4.4-1.3-6.3c-0.7-1.4-1.6-2.8-2.8-3.9c-1.3-1.2-3-1.8-4.8-2.1
						c-1.7-0.3-3.4-0.2-5.1,0c-0.1,0-0.3,0-0.4,0.1L311.9,144.6z"/>
				</g>
			</g>
			<polygon class="mi35" points="163.2,235.6 325,228.5 325,338.2 163.2,353.3 			"/>
		</g>
	</g>
	<polyline class="mi25" points="108.8,326.8 163.2,353.3 163.4,235.7 108.8,222.6 108.8,326.8 	"/>
</g>
<g>
	<linearGradient id="SVGMIID_23_" gradientUnits="userSpaceOnUse" x1="302.163" y1="349.4958" x2="503.9342" y2="349.4958">
		<stop  offset="0" style="stop-color:#DFE3ED;stop-opacity:0"/>
		<stop  offset="0.3175" style="stop-color:#DFE3ED;stop-opacity:0.32"/>
		<stop  offset="0.5913" style="stop-color:#DFE3ED;stop-opacity:0.59"/>
		<stop  offset="0.8481" style="stop-color:#DFE3ED;stop-opacity:0.85"/>
		<stop  offset="1" style="stop-color:#DFE3ED"/>
	</linearGradient>
	<polygon class="mi36" points="302.2,336.9 392.8,364 503.9,338.9 477,335 	"/>
	<g>
		<path class="mi35" d="M367,242.3l137.2-6.3c0,0,1.4-0.2,1.3,2.5v98.9c0,0,0.2,1.6-2.5,1.7l-135.9,13.1L367,242.3L367,242.3z"/>
		<polygon class="mi37" points="321.6,229.2 418.2,225.6 504.3,236 367,242.3 318.1,234.7 301,232.1 314,230.1 		"/>
		<polygon class="mi24" points="321.6,229.2 318.1,234.7 423.9,229.2 394.4,226.6 		"/>
		<polygon class="mi25" points="318.1,336.2 367.1,352 367.1,242.3 318.1,234.7 317.6,335.4 		"/>
	</g>
</g>
<linearGradient id="Path-72-Copy-5_2_" gradientUnits="userSpaceOnUse" x1="228.435" y1="86.573" x2="228.435" y2="34.5737">
	<stop  offset="0" style="stop-color:#DFE3ED;stop-opacity:0"/>
	<stop  offset="1" style="stop-color:#DFE3ED"/>
</linearGradient>
<path id="Path-72-Copy-5_1_" class="mi38" d="M140.5,75.2c13-7.4,11.8-12,19.9-13.1c8.1-1.2,10.3,4.5,22.7,2.2
	c12.4-2.3,12.2-30.2,47.9-29.7c35.8,0.5,34.4,35.8,45.3,35.8c10.9,0,10.4-8.4,26.8-8.4s23.6,24.5,58.4,24.5h-266
	C116.8,83.9,131.8,80.1,140.5,75.2z"/>
<g>
	
		<linearGradient id="SVGMIID_24_" gradientUnits="userSpaceOnUse" x1="76.6493" y1="215.1959" x2="136.5663" y2="143.7897" gradientTransform="matrix(1 0 0 -1 0 480)">
		<stop  offset="0" style="stop-color:#FFFFB4;stop-opacity:0.7"/>
		<stop  offset="0.5183" style="stop-color:#A7DB8E;stop-opacity:0.8555"/>
		<stop  offset="1" style="stop-color:#47B464"/>
	</linearGradient>
	<path class="mi39" d="M148.2,302.7c-1.6-4.6-3.8-7.9-7.3-11c-1.3-1.1-1.8-0.7-2.3-2.3c-0.6-1.5,0-3.8-0.2-5.2
		c-0.6-4.8-1.6-9.6-4.8-13.2c-2.9-3.1-7.3-3.6-8.3-7.7c-1.5-6-2.5-13.2-7.6-17.3c0,0-3.4-2.2-7.9-2.5c-1.5-0.2-2.6,0-2.6,0
		c-4.5,0.3-7.9,2.5-7.9,2.5c-5,4.2-6.2,11.4-7.6,17.3c-1.1,4.2-5.4,4.7-8.3,7.7c-3.3,3.6-4.4,8.3-4.8,13.2c-0.2,1.5,0.4,3.8-0.2,5.2
		c-0.6,1.6-1.1,1.3-2.3,2.3c-3.4,3.1-5.6,6.5-7.3,11c-2.5,7.6-2,16.5,2.3,23.3c4.2,6.3,10.6,11.6,17.5,14.5
		c6.1,2.5,12.2,3.8,18.3,3.9c0,0,3.1,0,3.4,0c6.1-0.1,12.2-1.4,18.3-3.9c6.9-2.9,13.4-8.1,17.5-14.5
		C150.1,319.1,150.7,310.3,148.2,302.7z"/>
</g>
<polygon class="mi19" points="514.5,149.3 514.8,149.3 521.1,144.9 514.8,140.4 514.8,140.3 514.5,140.3 508.2,144.8 "/>
<polygon class="mi19" points="541.8,140.6 530.7,140.6 536.3,144.4 "/>
<polygon class="mi19" points="528.9,149.4 529.2,149.4 535.5,145 529.2,140.6 528.9,140.6 522.6,145 "/>
<polygon class="mi19" points="527.4,140.6 516.2,140.6 521.8,144.4 "/>
<polygon class="mi19" points="471.4,140.4 469.5,140.4 469.5,149.3 471.4,149.3 477.7,144.9 "/>
<polygon class="mi19" points="478.5,145.4 473,149.3 483.9,149.3 "/>
<polygon class="mi19" points="513,140.4 501.8,140.4 507.4,144.3 "/>
<polygon class="mi19" points="500.1,149.3 500.3,149.3 506.7,144.9 500.3,140.4 500.1,140.4 493.8,144.9 "/>
<polygon class="mi19" points="498.6,140.4 487.4,140.4 493,144.3 "/>
<polygon class="mi19" points="485.6,149.3 485.8,149.3 492.1,144.9 485.8,140.4 485.8,140.3 485.6,140.3 479.2,144.8 "/>
<polygon class="mi19" points="484.1,140.4 472.9,140.4 478.5,144.3 "/>
<polygon class="mi19" points="530.8,149.4 541.7,149.4 536.3,145.5 "/>
<polygon class="mi19" points="507.4,145.4 502,149.3 512.9,149.3 "/>
<polygon class="mi19" points="487.4,149.3 498.4,149.3 492.9,145.4 "/>
<path class="mi19" d="M512.4,169.3c0.5,0.2,0.8,0.6,0.8,1.1v2.7h13v-2.7c0-0.5,0.3-0.9,0.8-1.1v-11h-14.6V169.3z"/>
<polygon class="mi19" points="516.4,149.4 527.3,149.4 521.8,145.5 "/>
<path class="mi19" d="M527.2,270c-4.2,0-7.7,3.5-7.7,7.7c0,0,0,0,0,0c0,0,0,0,0,0c0,3.5,2.4,6.3,5.5,7.3h0.4v0.1
	c0.4,0.1,0.9,0.2,1.2,0.2v-0.4h2.1v0.2c3.6-0.6,6.3-3.9,6.2-7.6C534.9,273.5,531.4,270,527.2,270z M527.4,280.1
	c-1.4,0-2.5-1.1-2.5-2.5c0-1.4,1.1-2.5,2.5-2.5c1.4,0,2.5,1.1,2.5,2.5C529.9,279,528.8,280.1,527.4,280.1z"/>
<path class="mi19" d="M493.9,285.1h1.2v0.2c0.4,0.1,0.7,0.1,1.1,0.1h0.1v-0.4h2.1c3.2-1,5.6-3.9,5.3-7.3c0-4.2-3.5-7.7-7.7-7.7
	c-3.9,0-7.1,2.9-7.6,6.7c0,0.3,0,0.5,0,0.8c0,0.3,0,0.6-0.1,0.9C488.7,281.6,491,284.2,493.9,285.1z M495.9,275.1
	c1.4,0,2.5,1.1,2.5,2.5c0,1.4-1.1,2.5-2.5,2.5c-1.4,0-2.5-1.1-2.5-2.5C493.4,276.3,494.5,275.1,495.9,275.1z"/>
<path class="mi19" d="M519.5,277.8c0-4.2-3.5-7.7-7.7-7.7c-4.2,0-7.7,3.5-7.7,7.7c0,3.6,2.4,6.6,5.7,7.5v-0.1h2.1v0.4
	c0.4,0,0.9,0,1.2-0.1v-0.2h1C517.2,284.1,519.6,281.1,519.5,277.8C519.5,277.8,519.5,277.8,519.5,277.8
	C519.5,277.8,519.5,277.8,519.5,277.8z M512,280.1c-1.4,0-2.5-1.1-2.5-2.5c0-1.4,1.1-2.5,2.5-2.5c1.4,0,2.5,1.1,2.5,2.5
	C514.5,279,513.4,280.1,512,280.1z"/>
<rect x="506.6" y="262.6" class="mi14" width="3" height="3"/>
<rect x="511.3" y="262.6" class="mi14" width="3" height="3"/>
<rect x="516.1" y="262.6" class="mi14" width="3" height="3"/>
<rect x="521" y="262.6" class="mi14" width="3" height="3"/>
<rect x="525.7" y="262.6" class="mi14" width="3" height="3"/>
<rect x="530.5" y="262.6" class="mi14" width="3" height="3"/>
<rect x="535.3" y="262.6" class="mi14" width="3" height="3"/>
<rect x="540.1" y="262.6" class="mi14" width="3" height="3"/>
<rect x="543.1" y="288.3" class="mi14" width="3" height="3"/>
<rect x="538.2" y="288.3" class="mi14" width="3" height="3"/>
<rect x="533.5" y="288.3" class="mi14" width="3" height="3"/>
<rect x="528.7" y="288.3" class="mi14" width="3" height="3"/>
<rect x="524" y="288.3" class="mi14" width="3" height="3"/>
<rect x="514.4" y="288.3" class="mi14" width="3" height="3"/>
<polygon class="mi14" points="519.5,277.8 519.5,277.8 519.5,277.8 519.5,277.8 "/>
<path class="mi14" d="M542.8,275.1c-1.4,0-2.5,1.1-2.5,2.5c0,1.4,1.1,2.5,2.5,2.5c1.4,0,2.5-1.1,2.5-2.5
	C545.3,276.3,544.2,275.1,542.8,275.1z"/>
<g class="mi40">
	<path class="mi41" d="M324.3,183.8c0.9,0.3,1.1-0.1,1.7-0.8c0.6-0.7,0.8-1.7,1-2.6c0.5-2.1,1-4.2,0.7-6.4c-0.1-0.4-0.1-0.7-0.1-1.1
		c0.1-0.9,1.1-1.4,1.5-2.2c0.6-1.2-1.9-2.7-1.1-3.8c0.3-0.3,0.6-0.6,1-0.8c0.8-0.4,1.7-0.7,2.5-0.3c0.6,0.3,3,1.5,3.8,3.5
		c1.2,3.1-0.5,6.4,0.7,9.5c0.4,0.9,0.8,1.6,1.3,2.4c1.4,2.4,3.3,3.7,4.1,6.3c0.8,2.7,0.9,5.4-0.6,7.8c-1.6,2.4-4.5,3.6-7.4,3.8
		c-3,0.2-6.2-0.6-8.5-2.5c-2.3-1.9-3.8-5-3.3-8c0.3-1.9,1.4-3,1.9-4.9L324.3,183.8z"/>
</g>
<path class="mi14" d="M527.4,275.1c-1.4,0-2.5,1.1-2.5,2.5c0,1.4,1.1,2.5,2.5,2.5c1.4,0,2.5-1.1,2.5-2.5
	C529.9,276.3,528.8,275.1,527.4,275.1z"/>
<path class="mi14" d="M512,275.1c-1.4,0-2.5,1.1-2.5,2.5c0,1.4,1.1,2.5,2.5,2.5c1.4,0,2.5-1.1,2.5-2.5
	C514.5,276.3,513.4,275.1,512,275.1z"/>
<g>
	<g>
		
			<radialGradient id="SVGMIID_25_" cx="246.3012" cy="405.4656" r="102.6532" gradientTransform="matrix(0.4676 0 0 0.1016 156.2043 362.1688)" gradientUnits="userSpaceOnUse">
			<stop  offset="0" style="stop-color:#DFE3ED;stop-opacity:0.73"/>
			<stop  offset="0.1412" style="stop-color:#DFE3ED;stop-opacity:0.6269"/>
			<stop  offset="1" style="stop-color:#DFE3ED;stop-opacity:0"/>
		</radialGradient>
		<ellipse class="mi42" cx="271.4" cy="403.3" rx="67.3" ry="10.2"/>
		
			<radialGradient id="SVGMIID_26_" cx="194.2004" cy="399.4469" r="102.6532" gradientTransform="matrix(0.4676 0 0 0.1016 156.2043 359.458)" gradientUnits="userSpaceOnUse">
			<stop  offset="0" style="stop-color:#DFE3ED;stop-opacity:0.73"/>
			<stop  offset="0.1412" style="stop-color:#DFE3ED;stop-opacity:0.6269"/>
			<stop  offset="1" style="stop-color:#DFE3ED;stop-opacity:0"/>
		</radialGradient>
		<ellipse class="mi43" cx="247" cy="400" rx="67.3" ry="10.2"/>
		
			<radialGradient id="SVGMIID_27_" cx="155.0522" cy="363.5522" r="102.6532" gradientTransform="matrix(0.3314 0 0 8.783685e-02 202.3325 351.6823)" gradientUnits="userSpaceOnUse">
			<stop  offset="0" style="stop-color:#DFE3ED"/>
			<stop  offset="0.1412" style="stop-color:#DFE3ED;stop-opacity:0.8588"/>
			<stop  offset="1" style="stop-color:#DFE3ED;stop-opacity:0"/>
		</radialGradient>
		<ellipse class="mi44" cx="253.7" cy="383.6" rx="47.7" ry="8.8"/>
		<g>
			<polygon class="mi45" points="278.9,385.6 279.1,399.8 262.8,406 262.6,392 			"/>
			<polygon class="mi23" points="278.9,385.6 262.4,379.7 246,386.9 262.6,392 			"/>
			<polygon class="mi15" points="262.6,392 246,386.9 246.2,399.9 262.8,406 			"/>
			<polygon class="mi46" points="262.6,393.6 253,389 256,401.4 262.8,406 			"/>
		</g>
		<g>
			<polygon class="mi45" points="299.1,386.7 299.3,400.9 283,407.1 282.8,393.1 			"/>
			<polygon class="mi23" points="299.1,386.7 282.6,380.8 266.2,388 282.8,393.1 			"/>
			<polygon class="mi15" points="282.8,393.1 266.2,388 266.4,401 283,407.1 			"/>
		</g>
		<g>
			<polygon class="mi45" points="281.5,371.4 281.6,385.6 265.3,391.9 265.1,377.9 			"/>
			<polygon class="mi23" points="281.5,371.4 265,365.5 248.5,372.7 265.1,377.9 			"/>
			<polygon class="mi15" points="265.1,377.9 248.5,372.7 248.7,385.7 265.3,391.9 			"/>
		</g>
		<g>
			<polygon class="mi45" points="279.9,375.8 285,387.7 273.5,398.5 268.5,386.9 			"/>
			<polygon class="mi23" points="279.9,375.8 264.1,376.6 252.8,388.3 268.5,386.9 			"/>
			<polygon class="mi15" points="268.5,386.9 252.8,388.3 257.4,399.1 273.5,398.5 			"/>
		</g>
		<polygon class="mi47" points="274.2,390.4 285,387.2 295.4,388.1 282.8,393.1 		"/>
	</g>
	<polygon class="mi48" points="412.8,331.7 337.2,300 274.7,331.7 343.8,362.1 	"/>
	<g>
		<polygon class="mi45" points="375.5,319.5 375.5,349.5 346,362.3 346,332.7 		"/>
		<polygon class="mi23" points="375.5,319.5 346,306.6 316.1,321.4 346,332.7 		"/>
		<polygon class="mi45" points="346,332.7 316.1,321.4 316.1,348.8 346,362.3 		"/>
	</g>
	<g>
		<polygon class="mi45" points="344.6,334.1 345.1,364.1 315.7,377.4 315.2,347.7 		"/>
		<polygon class="mi23" points="344.6,334.1 314.8,321.7 285.2,337 315.2,347.7 		"/>
		<polygon class="mi49" points="315.2,347.7 285.2,337 285.6,364.4 315.7,377.4 		"/>
	</g>
	<g>
		<polygon class="mi45" points="407.4,332.3 407.8,361.7 377.1,374.5 376.8,345.6 		"/>
		<polygon class="mi23" points="407.4,332.3 376.4,320.1 345.6,335 376.8,345.6 		"/>
		<polygon class="mi15" points="376.8,345.6 345.6,335 345.9,361.8 377.1,374.5 		"/>
	</g>
	<polygon class="mi25" points="274.7,331.7 274.7,406.4 343.8,440.5 343.8,362 	"/>
	<path class="mi50" d="M373.3,317.4c-0.3-2.1-2.1-3.3-4.1-4c-3.4-1.2-6.7-3.5-10.2-4.7c-1.5-0.5-3.5-0.1-5.1,0
		c-1.2,0-2.4,0.3-3.6,0.7c-3,1-5.9,2.4-8.6,4.1c-0.9,0.6-1.8,1.2-2.9,1.5c-1.1,0.3-2.4,0.2-3.5,0c-2.6-0.4-5.1-1-7.5-1.9
		c-2.5-0.9-5.4-2-7.6-0.5c-0.9,0.6-1.5,1.6-2.2,2.4c-1.9,2.4-4.4,4.3-7.2,5.4c-2.6,1-5.4,1.4-7.9,2.8c-4.9,2.8-6.9,10.2-8.3,15.7
		l0,0v0c0,0.1,0,0.2-0.1,0.2l0,0l-6.1,74.1l12.9,6.4l6.9-41.4c0.3-1.5,0.7-3,1.3-4.5l9.5-22.4c0.2,0.1,0.4,0.2,0.7,0.2
		c1,0.1,1.5-1.2,1.7-2.3c0.4-2,1-3.9,1.9-5.7c0.5-0.9,1-1.9,2-2.3c0.7-0.3,1.6-0.3,2.4-0.3c4.9,0.1,9.8,0.1,14.7-0.1
		c0.7,0,1.5-0.1,2.2-0.4c0.7-0.3,1.3-1,1.8-1.6c1-1.2,2.1-2.4,3.1-3.6c0.5-0.6,1-1.2,1.3-1.9c0.4-1.1,0.2-2.4,0.2-3.6
		c0-1.2,0.5-2.6,1.6-3c0.5-0.2,1-0.1,1.6-0.1c1.4,0.1,2.8,0.2,4.1,0.3c1.6,0.1,1.5-2.2,3.1-2.5c2.8-0.6,3.5-0.8,5.7-2.6
		C368.6,320.4,373.6,319.4,373.3,317.4z"/>
	<polygon class="mi51" points="412.8,331.7 378.3,269.3 293.5,238.5 337.2,300 	"/>
	<polygon class="mi49" points="378.4,269.3 367,275.3 284.7,245.6 293.7,238.4 	"/>
	<polygon class="mi35" points="412.8,331.7 412.8,406.4 343.8,440.5 343.8,362 	"/>
	<path class="mi52" d="M355.5,361.7c1.5,0.3,7.2-1.2,10.5-3.4c0.1-0.1,0.2-0.2,0.3-0.3c0.3-0.4-0.1-0.6-0.3-3.1
		c-0.1-1.3-0.6-2.4-0.6-2.4l-10,3.8c0,0,0,2.5-1.3,4.9C353.9,361.6,355.1,361.6,355.5,361.7z"/>
	<g>
		<g>
			<linearGradient id="SVGMIID_28_" gradientUnits="userSpaceOnUse" x1="226.7039" y1="397.6338" x2="235.2557" y2="446.1333">
				<stop  offset="0" style="stop-color:#DFE3ED;stop-opacity:0"/>
				<stop  offset="0.3175" style="stop-color:#DFE3ED;stop-opacity:0.32"/>
				<stop  offset="0.5913" style="stop-color:#DFE3ED;stop-opacity:0.59"/>
				<stop  offset="0.8481" style="stop-color:#DFE3ED;stop-opacity:0.85"/>
				<stop  offset="1" style="stop-color:#DFE3ED"/>
			</linearGradient>
			<polygon class="mi53" points="281.8,434.9 265,440.9 179.7,406 221.6,398.5 			"/>
			<linearGradient id="SVGMIID_29_" gradientUnits="userSpaceOnUse" x1="256.0546" y1="400.5042" x2="264.0598" y2="445.9039">
				<stop  offset="0" style="stop-color:#DFE3ED;stop-opacity:0"/>
				<stop  offset="0.3175" style="stop-color:#DFE3ED;stop-opacity:0.32"/>
				<stop  offset="0.5913" style="stop-color:#DFE3ED;stop-opacity:0.59"/>
				<stop  offset="0.8481" style="stop-color:#DFE3ED;stop-opacity:0.85"/>
				<stop  offset="1" style="stop-color:#DFE3ED"/>
			</linearGradient>
			<polygon class="mi54" points="306.3,434.7 285.8,442.1 214.2,413.6 246.6,402.2 			"/>
		</g>
		<path class="mi27" d="M324.4,296.3l-3.1,4.6l10.2,2.4l0.8-4.3c0,0-1.7-2.9-4.9-3.8C326.3,294.8,325.1,295.3,324.4,296.3z"/>
		<path class="mi33" d="M344.1,285.4c0,0,1.2,3.2-3,10.6c-2.3,3.7-4.3,6.5-7.6,5.2c-0.9-0.4-3.6-1.2-5.2-3.1
			c-1.5-1.7-1.9-4.8-1.5-5.8C327.6,290.4,343.6,282.3,344.1,285.4z"/>
		<path class="mi55" d="M282.5,435.8c0.9-0.7-0.1-2.3-1.4-2.3c-1.1,0-4.3,0.3-6.4,0.1c-1.6-0.1-1.6-0.5-2.2-0.4
			c-2.3,0.4-4.7,0.4-6.9,1.2c-0.8,0.3-1.3,5.8-1.3,5.8c-0.2,1.5,3.5,1.3,4.3,1c2.3-0.7,1.5-1.4,2.5-1.2
			C271.1,439.9,278.3,439.1,282.5,435.8z"/>
		<path class="mi33" d="M345.8,323.7l15.5,21.5c0,0,2.1,3.2,3.3,6.2c0.4,1.6,3.7,4,2,6.2c-1.6,2.1-8.5,3.5-8.7,2.4s2.5-4,0-6.4
			s-18.5-23.1-18.5-23.1S343.2,322.7,345.8,323.7z"/>
		<path class="mi55" d="M286.5,433.1c2.5-0.9,5-0.1,7.6-0.5c0.7-0.1,1.3,1,3.1,1.2c2.4,0.3,4,0,5.3,0c3.3,0,4.8,1.8,4.1,2.9
			c-0.7,1.1-3.7,1.8-8.5,3.5c-4.8,1.8-5.5,0.9-5.9,1.1c-0.4,0.2,0.8,0.2-2.7,1.5c-2.7,0.5-4.8,0-4.6-1.7
			C284.9,441,285.6,433.4,286.5,433.1z"/>
		<path class="mi27" d="M286.5,430.3v3.2c0,0.5,0.4,0.9,0.9,0.9l4.6-0.3c0.7,0,2.2,0,2.2-0.8l0-2.8L286.5,430.3z"/>
		<path class="mi27" d="M265.8,430.2v4.1l5.3,0.2c0.9,0,1.7-0.7,1.8-1.3l0.3-2.9L265.8,430.2z"/>
		<path class="mi26" d="M268.4,345.5c0,0-3,3.7-3.2,12.2c-0.2,8.6-0.4,10-0.2,11.6c0.3,1.9,0.6,29.7,0.8,34.5
			c0.2,4.7-0.3,28.1-0.3,28.1l7.6,0.2l5.2-31.9l1-26.7l5.2,21.9l1.4,36.2l8.7-0.3c0,0,2.8-22.3,4.3-34.5c0.1-1,0.1-1.9,0-2.6
			c-0.8-23.8,0-34.5,0-34.5L268.4,345.5z"/>
		<path class="mi34" d="M299,359.5c0,0-0.8,10.7,0,34.5c0,0.7,0.1,1.6,0,2.6c-1.5,12.2-4.3,34.5-4.3,34.5l-8.7,0.3l-1.4-36.2
			l-5.2-21.9c0,0-1.5-1.6-5.3-5.5c-3.4-3.5-8.8-9.6-6.2-21.7L299,359.5z"/>
		<path class="mi56" d="M299.1,394.1c-0.8-23.8,0-34.5,0-34.5l-10-4.3c-0.9,6.4-1.4,12.8-0.4,19.1c1.3,7.5,3.5,14.5,3.2,22.2
			c-0.6,11.6-0.6,23.2-1.1,34.8l4-0.1c0,0,2.8-22.3,4.3-34.5C299.1,395.6,299.1,394.8,299.1,394.1z"/>
		<path class="mi57" d="M298.3,359.7c1.6,0.4,1.6-1.1,2.4-2.5c1.2-2.4,6.2-10.9,13.4-20.7c8-13.9,7-10.3,8.8-13.8
			c0.6-1.3,1.1-1.8,2.3-0.9c2.7,2.4,12.1,9,12.9,9.8c0.7,0.8,6.8-6.1,8.3-7.7c0.2-0.2,0.3-0.4,0.2-0.7c-1-3.3-11.9-19.9-11.9-19.9
			c-10.8-6.3-13-5.5-19-5.5c-21.9,3.2-42.8,38.3-47.4,47.1c0,0-0.8,1.7,0.2,3.3C269.4,349.7,284.2,357.3,298.3,359.7z"/>
		<g>
			<path class="mi26" d="M267.1,354.2c0.1,2,2,0.6,3.8,1.5c4.8,2.5,11.4,4,17,4.7c0,0,10.8,1.3,11.2-0.9c0,0-29.1-8.4-30.8-11.9
				l-0.4-1.1C267.8,346.5,267,353.5,267.1,354.2z"/>
		</g>
		<g>
			<path class="mi26" d="M280.7,352.2c-2.9-4,8.9-4.2,12.2-7.8c3.3-3.6,5.9-7.8,8.9-11.7c5.2-7,11.4-13.3,18.4-18.5
				c1.1-0.8,2.4-1.7,3.8-1.3c0.7,0.2,1.3,0.7,1.9,1.2c3.5,3.1,7.1,6.3,10.6,9.4c0.7,0.7,1.5,1.3,1.8,2.3c0.2,0.6,0.3,1.2,0.5,1.7
				c0.5,0.9,2.2,1.5,1.7,2.4c-0.4,0.7-1.4,1.6-2.3,1.8c-0.1,0-0.1-0.6-0.2-0.6c-0.9-0.3-1.5-1.1-2.2-1.7c-1-0.9-2.1-1.7-3.2-2.4
				c-2.4-1.6-4.7-3.2-7.1-4.8c0,0-2-0.9-2.6,0.4c-0.6,1.3-11.9,18.4-11.9,18.4l-0.5,0.7c0,0-9.6,13.4-10.2,16.2s-1.4,3-3.1,1.2
				C295.5,357.2,283.8,356.4,280.7,352.2z"/>
		</g>
		<g>
			<path class="mi27" d="M331.5,298c1.2,0.3,2.6-0.3,3.4-1.3c0.5-0.6,0.7-1.3,1.3-1.7c1.1-0.8,2.7-0.5,3.9-1c1-0.5,1.6-1.5,2.1-2.4
				c0.8-1.6,1.5-3.1,2.2-4.7c0.4-0.8,0.7-1.7,0.6-2.6c0-0.1,0-0.3-0.1-0.4c-0.1-0.2-0.4-0.3-0.7-0.3c-3.1-0.5-6,1.2-8.6,2.8
				c-1,0.6-2.1,1.3-3.1,1.9c-1,0.6-2.1,1.4-2.4,2.5c-0.3,1.2,0.6,2.5,0.4,3.8c-0.1,0.5-0.4,0.9-0.5,1.4c-0.1,0.5-0.1,1.1,0.4,1.4
				C330.4,297.2,331.2,297.9,331.5,298z"/>
		</g>
		<path class="mi32" d="M323.2,296.2c3.1,1,5.4,2.3,7.2,1.8c1.7-0.5,2.8-2.7,3.9-3.9c1.2-1.3,2.2-2.8,2.9-5.2
			c0.4-2.3,3.6-1.4,1.5,3.2l1.7,0.6c0,0,0.4-1.1,1.1-2.3c0.3-0.5,0.5-0.5,0.9-0.9c1.1-1.1,1.3-2.4,1.8-2.2c2.6,0.9,7.4-6.5,4.3-8.3
			c0,0-4.2-1-12.7-5.8c0,0-7.3-4.3-11.2,8.6c0,0-1.5,5.8-1.5,9.4C323,293.5,321.5,295.7,323.2,296.2z"/>
	</g>
</g>
<g>
	<rect x="591.5" y="221.3" class="mi15" width="31.3" height="25.1"/>
	<rect x="612.3" y="221.5" class="mi16" width="4.5" height="7"/>
</g>
</svg>
