<svg version="1" id="Layer_1" xmlns="http://www.w3.org/2000/svg" xmlns:xlink="http://www.w3.org/1999/xlink" viewBox="0 0 700 480"><style>.st3{fill:#dfe3ed}.st4{fill:#f4f5fa}.st5{fill:#3f3f3f}.st17{fill:#162b4d}.st18{fill:#0c0c0c}.st19{fill:#c1a172}.st20{fill:#224372}.st21{fill:#e7c189}.st22{fill:#5e728e}.st23{fill:#fff}.st29{fill:#6d86a3}.st33{fill:#4f6772}.st35{fill:#28507f}.st36{opacity:.3;fill:#6d86a3;enable-background:new}.st38{fill:#5e728e}.st39{opacity:.5}.st41{fill:#f9f9f9}.st50{fill:#445466}.st59{opacity:.4}.st70{fill:#718aa8}</style><g id="Layer_7"><linearGradient id="SVGID_1_" gradientUnits="userSpaceOnUse" x1="448" y1="142" x2="548" y2="316" gradientTransform="matrix(1 0 0 -1 0 482)"><stop offset="0" stop-color="#dfe3ed" stop-opacity="0"/><stop offset="1" stop-color="#dfe3ed"/><stop offset="1" stop-color="#dfe3ed"/><stop offset="1" stop-color="#dfe3ed"/></linearGradient><path fill="url(#SVGID_1_)" d="M583 211l-218 81 176 11 89-89z"/><linearGradient id="SVGID_2_" gradientUnits="userSpaceOnUse" x1="583" y1="278" x2="630" y2="278" gradientTransform="matrix(1 0 0 -1 0 482)"><stop offset="0" stop-color="#fff"/><stop offset="0" stop-color="#fff"/><stop offset="1" stop-color="#dfe3ed"/><stop offset="1" stop-color="#dfe3ed"/></linearGradient><path d="M630 213c0 4-10 8-23 8s-24-4-24-8v-25h48l-1 25z" fill="url(#SVGID_2_)"/><linearGradient id="SVGID_3_" gradientUnits="userSpaceOnUse" x1="617" y1="281" x2="596" y2="306" gradientTransform="matrix(1 0 0 -1 0 482)"><stop offset="0" stop-color="#fff"/><stop offset="1" stop-color="#dfe3ed"/><stop offset="1" stop-color="#dfe3ed"/></linearGradient><ellipse cx="607" cy="188" rx="23" ry="8" fill="url(#SVGID_3_)"/><ellipse class="st3" cx="607" cy="190" rx="17" ry="6"/><path class="st3" d="M615 191h-3c1-13 16-57 17-59l3 1s-16 46-17 58z"/><path class="st4" d="M529 173s-1 7 1 10c3 2 5-4 8-6 2-3 7-7 13-8s15-1 18-9c2-8-8-11-15-9-8 2-15 9-19 13-3 5-7 5-6 9z"/><path class="st3" d="M599 193l-10-18c-2-4-16-12-22-16l2-2c2 2 19 12 22 16l10 18-2 2z"/><path class="st3" d="M570 157s8-4 12-3c4 0 11 2 11 8v8s-11-10-15-10c-4-1-10 0-8-3z"/><path transform="rotate(-24 597 178)" class="st3" d="M596 165h2v27h-2z"/><path class="st4" d="M567 93s-5 3-5 5 7 8 10 11c2 3 2 6 6 6s12 10 7 20c-6 11 4 9 7 11l3 4s2 4 3 3l1-3s-2-5 0-9c3-5-4-16-5-18l-2-4s0-7-4-13-13-11-15-12-4-2-6-1z"/><path class="st3" d="M602 192c-1-31-6-41-6-41l2-1s6 10 7 41l-3 1z"/><path class="st4" d="M588 84s-4-7-2-10 10-17 13-19c4-2 14-8 15-6s4 8 1 10l-3 1c-6 0-8-1-8 3-1 4 1 22-10 23 0 0-3 1-6-2z"/><path class="st3" d="M599 55l7 4c2 0 11 3 10-4 0-6-4-8-7-6l-10 6zM603 102s5 3 5 6v12l9-9-1-14c-2-1-10-4-12 0s-1 5-1 5z"/><path transform="scale(.99996) rotate(-88 609 155)" class="st3" d="M572 153h74v2h-74z"/><path class="st4" d="M595 138s0-7 2-9c2-1 6-3 10-3s13 1 14 6c1 4-5 8-7 10-2 3-4-2-7-4-2-2-9 0-10 1s-2-1-2-1z"/><path class="st3" d="M596 139l8-2 13-3c1-1 5-2 4-3s-5-7-16-6c0 0-9 2-9 9v5z"/><path transform="rotate(-87 611 166) scale(.99998)" class="st3" d="M587 165h50v2h-50z"/><path class="st3" d="M605 192l-5-63c0-3-6-8-9-11l2-2c1 1 9 8 10 12l4 63-2 1z"/><path class="st4" d="M601 92s-4-2-5 2c0 3-2 12 3 12 4 0 8-5 10-8 1-2 3 0 7-1l-3-1-12-4zM632 133c9-11 17-6 19-13l3-16c0-2 5-2 3-3-2-2-11 0-16 6s-13 11-12 14c0 4-2 8 0 10 1 2 3 2 3 2z"/><path class="st3" d="M630 122s3 2 11-8c9-9 19-11 16-14-3-2-10 0-14 4-3 4-10 9-11 12-2 3-5 4-2 6zM568 156s-7-2-9 0c-3 1-5 5-8 7s-8 1-8 3h16c3-2 9-5 10-7s-1-3-1-3z"/><g><path class="st5" d="M492 19s1 6 3 8 2-7-3-8z"/><linearGradient id="SVGID_4_" gradientUnits="userSpaceOnUse" x1="532" y1="415" x2="464" y2="357" gradientTransform="matrix(1 0 0 -1 0 482)"><stop offset="0" stop-color="#dfe3ed" stop-opacity="0"/><stop offset="0" stop-color="#dfe3ed" stop-opacity="0"/><stop offset="1" stop-color="#dfe3ed"/><stop offset="1" stop-color="#dfe3ed"/><stop offset="1" stop-color="#dfe3ed"/></linearGradient><path fill="url(#SVGID_4_)" d="M472 104h79V90l-104-3v17z"/><linearGradient id="SVGID_5_" gradientUnits="userSpaceOnUse" x1="378" y1="214" x2="362" y2="303" gradientTransform="matrix(1 0 0 -1 0 482)"><stop offset="0" stop-color="#dfe3ed" stop-opacity="0"/><stop offset="0" stop-color="#dfe3ed" stop-opacity="0"/><stop offset="1" stop-color="#dfe3ed"/><stop offset="1" stop-color="#dfe3ed"/><stop offset="1" stop-color="#dfe3ed"/></linearGradient><path fill="url(#SVGID_5_)" d="M311 188v25l116 46v-36z"/><linearGradient id="SVGID_6_" gradientUnits="userSpaceOnUse" x1="324" y1="259" x2="449" y2="305" gradientTransform="matrix(1 0 0 -1 0 482)"><stop offset="0" stop-color="#dfe3ed" stop-opacity="0"/><stop offset="0" stop-color="#dfe3ed" stop-opacity="0"/><stop offset="1" stop-color="#dfe3ed"/><stop offset="1" stop-color="#dfe3ed"/><stop offset="1" stop-color="#dfe3ed"/></linearGradient><path fill="url(#SVGID_6_)" d="M427 223l35-11-119-30-32 6z"/><linearGradient id="SVGID_7_" gradientUnits="userSpaceOnUse" x1="409" y1="260" x2="396" y2="330" gradientTransform="matrix(1 0 0 -1 0 482)"><stop offset="0" stop-color="#dfe3ed" stop-opacity="0"/><stop offset="0" stop-color="#dfe3ed" stop-opacity="0"/><stop offset="1" stop-color="#dfe3ed"/><stop offset="1" stop-color="#dfe3ed"/><stop offset="1" stop-color="#dfe3ed"/></linearGradient><path fill="url(#SVGID_7_)" d="M462 212v-26l-119-24v20z"/><linearGradient id="SVGID_8_" gradientUnits="userSpaceOnUse" x1="343" y1="311" x2="490" y2="311" gradientTransform="matrix(1 0 0 -1 0 482)"><stop offset="0" stop-color="#dfe3ed" stop-opacity="0"/><stop offset="0" stop-color="#dfe3ed" stop-opacity="0"/><stop offset="1" stop-color="#dfe3ed"/><stop offset="1" stop-color="#dfe3ed"/><stop offset="1" stop-color="#dfe3ed"/></linearGradient><path fill="url(#SVGID_8_)" d="M462 186l28-7-130-22-17 5z"/><linearGradient id="SVGID_9_" gradientUnits="userSpaceOnUse" x1="435" y1="293" x2="425" y2="351" gradientTransform="matrix(1 0 0 -1 0 482)"><stop offset="0" stop-color="#dfe3ed" stop-opacity="0"/><stop offset="0" stop-color="#dfe3ed" stop-opacity="0"/><stop offset="1" stop-color="#dfe3ed"/><stop offset="1" stop-color="#dfe3ed"/><stop offset="1" stop-color="#dfe3ed"/></linearGradient><path fill="url(#SVGID_9_)" d="M490 179v-25l-122-13v17z"/><linearGradient id="SVGID_10_" gradientUnits="userSpaceOnUse" x1="368" y1="336" x2="515" y2="336" gradientTransform="matrix(1 0 0 -1 0 482)"><stop offset="0" stop-color="#dfe3ed" stop-opacity="0"/><stop offset="0" stop-color="#dfe3ed" stop-opacity="0"/><stop offset="1" stop-color="#dfe3ed"/><stop offset="1" stop-color="#dfe3ed"/><stop offset="1" stop-color="#dfe3ed"/></linearGradient><path fill="url(#SVGID_10_)" d="M490 154l25-4-123-11-24 2z"/><linearGradient id="SVGID_11_" gradientUnits="userSpaceOnUse" x1="457" y1="365" x2="452" y2="333" gradientTransform="matrix(1 0 0 -1 0 482)"><stop offset="0" stop-color="#dfe3ed" stop-opacity="0"/><stop offset="0" stop-color="#dfe3ed" stop-opacity="0"/><stop offset="1" stop-color="#dfe3ed"/><stop offset="1" stop-color="#dfe3ed"/><stop offset="1" stop-color="#dfe3ed"/></linearGradient><path fill="url(#SVGID_11_)" d="M515 150v-23l-123-5v17z"/><linearGradient id="SVGID_12_" gradientUnits="userSpaceOnUse" x1="392" y1="358" x2="537" y2="358" gradientTransform="matrix(1 0 0 -1 0 482)"><stop offset="0" stop-color="#dfe3ed" stop-opacity="0"/><stop offset="0" stop-color="#dfe3ed" stop-opacity="0"/><stop offset="1" stop-color="#dfe3ed"/><stop offset="1" stop-color="#dfe3ed"/><stop offset="1" stop-color="#dfe3ed"/></linearGradient><path fill="url(#SVGID_12_)" d="M515 127l22-1-118-6-27 2z"/><linearGradient id="SVGID_13_" gradientUnits="userSpaceOnUse" x1="482" y1="347" x2="475" y2="388" gradientTransform="matrix(1 0 0 -1 0 482)"><stop offset="0" stop-color="#dfe3ed" stop-opacity="0"/><stop offset="0" stop-color="#dfe3ed" stop-opacity="0"/><stop offset="1" stop-color="#dfe3ed"/><stop offset="1" stop-color="#dfe3ed"/><stop offset="1" stop-color="#dfe3ed"/></linearGradient><path fill="url(#SVGID_13_)" d="M537 126v-22H419v16z"/><path class="st17" d="M463 57l12 12 1-1 22-25c2-1 14-8 27-9 0 0 16-1 18 18v17c1 4 5 9 5 20l-7-4c-4-3-9-6-19-8l-10 2c0 1-7-17-12-18l-19 20c-2 1-8 0-13-6l-10-13 5-5z"/><path class="st18" d="M454 149h7v-10l-9-2s-2 4-6 6c-4 3-10 4-11 5v3l16-1 2-2 1 1z"/><path class="st19" d="M506 33s5 5 4 10 2 5 2 5 12-6 7-13l-6-12s-4 9-7 10z"/><path class="st17" d="M464 127l12-28 20 2s31-4 33-9-18-11-18-11l-44 1s-5 0-6 9c0 0-7 45-9 47l9 1 3-12z"/><path class="st20" d="M487 116s19-41 26-40c0 0 15-2 35 12 0 0 3 15-10 16h-16c1 0-3-1-5-6 0 0-17 17-23 20 0 0-3 2-7-2z"/><path class="st18" d="M487 116l-12 4c-2 1-8 5-2 9s13 0 15-2c1-2 7-3 8-5v-7l-9 1z"/><path class="st20" d="M538 57c-2 6-6 11-7 13-1 1-34 13-35 12l-4-5 27-15 7-18s2-5 6-5 11 7 6 18z"/><path class="st21" d="M494 18v2l4 11c1 0 3 6 7 7 2 0 5-1 9-7 0 0 2-4 1-12 0-6-7-12-10-11s-11 7-11 10z"/><path class="st22" d="M435 258l-8 1v-36l35-11v-26l28-7v-25l26-4-1-23 22-1v-22l22-1v7l-16 2v22l-21 2v21l-24 5v25l-29 7v26l-34 11z"/><path class="st21" d="M459 61l3-2c1-2 0-4-1-7l-7-7-2-2-1 1 2 2 2 2-2 1v1l-2 1v3l3 4 5 3z"/><path class="st19" d="M451 51c1-2 0 3 3 5l3 2 2 2-1 1-7-6v-4z"/><path class="st23" d="M454 62l10 20 1 1h44c1 0 2-2 1-3l-5-22-1-1-48 2c-2 0-2 2-2 3z"/><linearGradient id="SVGID_14_" gradientUnits="userSpaceOnUse" x1="263" y1="185" x2="320" y2="284" gradientTransform="matrix(1 0 0 -1 0 482)"><stop offset="0" stop-color="#dfe3ed" stop-opacity="0"/><stop offset="1" stop-color="#dfe3ed"/><stop offset="1" stop-color="#dfe3ed"/><stop offset="1" stop-color="#dfe3ed"/></linearGradient><path fill="url(#SVGID_14_)" d="M311 213l-154 22 160 56 110-32z"/><g><path class="st19" d="M515 23v-5l-2-3-4-4h-5c-2 0-3 2-4 4l-7 2c0 4 9 3 11 7l2 4 3 5 1 3 4-5 1-8z"/></g><path class="st18" d="M507 21l2 1 1 3 1-1-1-2c0-2 2-3 3-2l1 9 2-4c1-9-2-19-6-21-5-1-6-2-10 0l-8 5s-3 3-2 6 1 7 4 7c0 0 10-2 13-7v6z"/></g><g><linearGradient id="SVGID_15_" gradientUnits="userSpaceOnUse" x1="1506" y1="183" x2="1519" y2="206" gradientTransform="rotate(150 1015 -5)"><stop offset="0" stop-color="#6d86a3"/><stop offset="0" stop-color="#728aa6"/><stop offset="0" stop-color="#8096af"/><stop offset="0" stop-color="#98a9bf"/><stop offset="0" stop-color="#b9c4d4"/><stop offset="0" stop-color="#dfe3ed"/></linearGradient><path d="M465 69l1-2h29l3 5-1 2-2-2h-26v-1l-1-1-3-1z" fill="url(#SVGID_15_)"/><linearGradient id="SVGID_16_" gradientUnits="userSpaceOnUse" x1="1522" y1="183" x2="1514" y2="200" gradientTransform="rotate(150 1015 -5)"><stop offset="0" stop-color="#6d86a3"/><stop offset="0" stop-color="#728aa6"/><stop offset="0" stop-color="#8096af"/><stop offset="0" stop-color="#98aabe"/><stop offset="1" stop-color="#b9c5d3"/><stop offset="1" stop-color="#e3e8ee"/><stop offset="1" stop-color="#fff"/></linearGradient><path d="M468 74h28l1-1-3-4h-29l2 4 1 1z" fill="url(#SVGID_16_)"/><path class="st3" d="M470 71h23l-1 3h-22v-3z"/><path class="st17" d="M468 72h27l-1-1h-27v1h1z"/><linearGradient id="SVGID_17_" gradientUnits="userSpaceOnUse" x1="467" y1="411" x2="495" y2="411" gradientTransform="matrix(1 0 0 -1 0 482)"><stop offset="0" stop-color="#dfe3ed" stop-opacity="0"/><stop offset="0" stop-color="#dfe3ed" stop-opacity="0"/><stop offset="1" stop-color="#dfe3ed"/><stop offset="1" stop-color="#dfe3ed"/><stop offset="1" stop-color="#dfe3ed"/></linearGradient><path d="M467 71h27l1 1h-27-1v-1z" fill="url(#SVGID_17_)"/><path class="st29" d="M470 71h24-24c-1 0 0 0 0 0z"/></g><g><path class="st21" d="M585 244l1 5-1 9c0 2 3 13 5 15 3 1 7-1 7-1s-2 9 0 11c2 3 13 8 14 2 2-5-1-26-1-28l1-4s-4-17-11-16-14 3-15 7z"/><path class="st19" d="M587 248l4 6v5c0 4 2 9 4 11s0 2 2 2c0 0 0 7 2 8 3 2 8-7 7-10l-3-11c-1-1-3-7-5-8l-3-2-5-5c-1-1-4-2-3 4z"/><path class="st18" d="M586 250s-4-1-4-3l1-3s-3-6 1-7l10-6c3-1 7-5 18 2 0 0 11 6 9 21v2c-1 2-3 8-7 12 0 0-3 3-10 1l-7-6v-2s2-7-1-8c-4-1-3 1-4 1v-1l-1-5-1-1s-2-2-3-1l-1 4z"/><linearGradient id="SVGID_18_" gradientUnits="userSpaceOnUse" x1="382" y1="33" x2="619" y2="33" gradientTransform="matrix(1 0 0 -1 0 482)"><stop offset="0" stop-color="#dfe3ed" stop-opacity="0"/><stop offset="1" stop-color="#dfe3ed"/><stop offset="1" stop-color="#dfe3ed"/><stop offset="1" stop-color="#dfe3ed"/></linearGradient><path fill="url(#SVGID_18_)" d="M591 477l-80 1-58-26-71-10 142-21 95 11z"/><linearGradient id="SVGID_19_" gradientUnits="userSpaceOnUse" x1="343" y1="54" x2="552" y2="54" gradientTransform="matrix(1 0 0 -1 0 482)"><stop offset="0" stop-color="#dfe3ed" stop-opacity="0"/><stop offset="1" stop-color="#dfe3ed"/><stop offset="1" stop-color="#dfe3ed"/><stop offset="1" stop-color="#dfe3ed"/></linearGradient><path fill="url(#SVGID_19_)" d="M552 445l-78 1-23-7-9-6-99-23 186 3 17 3z"/><path class="st19" d="M532 413l-1 7s9 3 14 2v-6s-3 2-13-3z"/><path class="st17" d="M529 415v-42h22v45s-10 3-22-3z"/><path class="st18" d="M531 419l-15-1-2 2c0 1 0 3 2 5 2 3 3 6 14 6 0 0 9 4 12 3 0 0 7-1 4-12l-15-3z"/><path class="st20" d="M515 419s-2 10 15 11l4 1c1 1 10 4 13-2 0 0-1 8-13 4l-4-2s-10 1-14-5c0 0-2-4-1-7z"/><path class="st33" d="M541 392l52-17 53 18-52 19z"/><path class="st17" d="M470 421l-1 2v1l14 8a229 229 0 0 0 45-54s53 17 63 18c8 1 49 4 42-32 0 0-26-15-63-23-37-7-63 20-63 20l-37 60z"/><path class="st20" d="M542 353l42 9s2-16-22-16c0 1-13 2-20 7z"/><linearGradient id="SVGID_20_" gradientUnits="userSpaceOnUse" x1="460" y1="95" x2="568" y2="225" gradientTransform="matrix(1 0 0 -1 0 482)"><stop offset="0" stop-color="#fff"/><stop offset="0" stop-color="#f0f2f6"/><stop offset="0" stop-color="#e3e7ef"/><stop offset="1" stop-color="#dfe3ed"/><stop offset="1" stop-color="#dfe3ed"/></linearGradient><path d="M401 332l141-52h2l84 27c2 1 2 4 0 5l-141 56h-1l-85-31c-3-1-3-4 0-5z" fill="url(#SVGID_20_)"/><path class="st35" d="M585 288l11-7c1 3 7 6 10 5l18-11 2 59c0 4 10 23 6 30 0 0-3 4-12 7-9 4-23 6-33-1 0 0 13-26-6-44l4-38z"/><path class="st36" d="M556 284l-124 49 7 2 32-13 28 1 16-16 48-21z"/><path fill="#4f6772" d="M541 458v-66l53 20v65z"/><path class="st38" d="M594 412l52-19v65l-52 19z"/><path class="st18" d="M467 427l-21 2c-4 0-4 2-3 4 0 1 4 8 21 9l3 1c2 1 14 6 13-3l1-8-14-5z"/><path class="st19" d="M470 425l-2 2v2c2 1 7 6 10 4l3-3-10-5h-1z"/><path class="st35" d="M471 424v-2l38-54c3-3 11-13 22-11l57 12 17 5s-7 11 6 14l17-1s-9 12-36 9c0 0-14-2-58-17l-6-2-8 10-5 10a178 178 0 0 1-32 34c-2 0-9-2-12-7z"/><path class="st36" d="M560 314l-4-8-7-1c-2-1-4 0-5 1l-7 1c-1 2 0 4 2 6l5 1c1 1 2 1 2 3 1 2 10 1 11 1l12 8 5-8-14-4z"/><path class="st19" d="M541 305s4-3 7-2l7 1 5 8 16 3-5 10-13-8c-1 0-11 1-12-1l-3-3 6-2s-1-6-8-6z"/><path class="st23" d="M546 304s-9-1-10 2 0 5 3 6c3 2 11 2 11 1 1-1 2-3 1-6-1-2-2-2-5-3z"/><g class="st39"><path class="st17" d="M613 307c2 9 1 19-3 27l-5 10v8l1 9 1 6c0 2 0 2-2 3l-17-2s10-27-5-40c0 0 16-32 2-40l11-7s-1 2 3 4l6 2 8 20z"/></g><path class="st36" d="M509 347l-16 7h-2l-19-7v-1l58-21h1l18 5v1l-40 16z"/><linearGradient id="SVGID_21_" gradientUnits="userSpaceOnUse" x1="497" y1="186" x2="506" y2="161" gradientTransform="matrix(1 0 0 -1 0 482)"><stop offset="0" stop-color="#e5e5e5"/><stop offset="0" stop-color="#f3f3f3"/><stop offset="0" stop-color="#fcfcfc"/><stop offset="0" stop-color="#fff"/><stop offset="1" stop-color="#fff"/></linearGradient><path d="M485 300v1c-1 1-5 13-3 15 1 3 15 7 17 7l26-10v-1c-3-1-11-4-11-6l3-17c1 0 0-1 0 0l-32 11z" fill="url(#SVGID_21_)"/><path class="st23" d="M509 345l-16 7h-2l-19-7 59-21 19 5-41 16z"/><path class="st21" d="M506 338s-2 2-1 3c0 1 3 5 5 5 1 0 2-3 7-2l9-1c5-1 46 7 50-4 0 0 28-41 11-51h-1c-2 0-6 0-9 9l-5 18-8 17-36 2-25 1-6 3 2 1 5-1h2z"/><path class="st23" d="M434 232l1 85c0 2 2 3 4 3l122-46 2-3v-82c0-2-2-3-4-3l-123 44-2 2z"/><path class="st3" d="M439 235v77l2 1 117-42 1-2v-76c0-1-1-2-2-1l-117 42-1 1z"/><path class="st20" d="M442 431s5 8 15 7l10 2c2 1 11 4 12 1v-1c1-1 1-2 1 1 0 0 0 5-7 4l-7-2-2-1s-14-1-20-7l-1-1-1-1v-2z"/><path class="st41" d="M530 238l-4-1c-5-2-6-9-3-16 2-3 4-6 7-7-2 2-5 4-6 7-3 7-2 14 3 16h3v1zM531 238v-1l7-4h1c-2 3-5 5-8 5zM538 242h-1l-2-4 3 4 2-1c1 0 0 0 0 0l-2 1z"/><path class="st29" d="M550 239l-10 3v-3l10-3z"/><path class="st41" d="M523 221h-1v-3l-6 2 6-2 1 3zM540 215v-4l7-5v1l-6 4-1 4zM451 300v-1l-1-14 1-1 1 1v14l-1 1zM459 297l-1-1v-9l1-1v11zM466 295l-1-1v-7l1-1 1 1v7l-1 1zM474 292l-1-1v-13h1v14zM481 289l-1-1v-15h2v15l-1 1zM489 287l-1-1-1-21h2v22zM496 284l-1-1v-18l1-1 1 1v18l-1 1z"/><g><path class="st29" d="M446 271h-1l1-1 4-5v-5-2c0-2 0-5 2-8l4-2 3 3a53 53 0 0 1 6 9h2l1-2 1-4 4-8 2-2c2-1 4 1 6 3l4 2 2-2 4-3h1l3-2 1-1 1-1h2l5 4h4l1-3h1l-1 4h-5l-6-3-1-1-1 2c-1 1-2 3-4 3h-1l-3 2-2 2c-3 1-5-1-6-3l-4-2-2 1-4 8-1 4-1 3h-3l-2-2-5-7-2-3-3 2-2 6v8c-1 2-2 5-5 6z"/></g><g><path class="st41" d="M448 262l-3-1 1-1h3l2-2 2-4 2-2h3v-1l1-5 1-3h5l3 1 3-3 4-4 3 2 2 2v1l4 4h7l3 1 1 1 3 1 2-4 1-3 6-3h1l-1 1c-2 0-3 1-4 3l-1 2c-1 2-1 4-3 5l-5-1-1-1-2-1h-1v1l-7-1-4-5-1-2-3-1-3 3c-1 1-2 3-4 3l-3-1h-4l-1 2v5l-1 2-2 1-1-1-2 2-2 3-2 3-2 1z"/></g><g><path class="st18" d="M603 272c-2 3-2 8-1 11 1 2 3 4 3 7l-2 3-1 6 1 3v2l-1 7c0 4 1 7 3 11 3 4 8 7 14 8 6 2 13 3 19 1 4-2 7-5 9-8 3-4 4-8 5-12v-12l-2-5-6-4-10-6-5-5-1-4c-1-3-3-5-6-6h-8l-11 3z"/></g><path class="st29" d="M507 221v4l9-4v-3zM547 205v3l9-3v-3z"/><g><path class="st41" d="M540 233l-2-1 2-3c1-3 2-6 1-9 0-3-2-5-4-6h-6l-1-1c3-2 6-2 8-1 3 2 4 4 5 7 0 4 0 7-2 11l-1 3z"/></g><path class="st23" d="M603 269v4c2 0 6 1 11-2v-4-1c-2 1-6 4-10 2l-1 1z"/><path class="st19" d="M588 297s-13 39-18 40c-4 2-45 0-46 2l-12 2-3 4 4-1 13-1c4-2 36 6 49-1 0 0 18-25 17-45 0 0-1-7-4 0z"/></g><g><linearGradient id="SVGID_22_" gradientUnits="userSpaceOnUse" x1="282" y1="341" x2="471" y2="450" gradientTransform="matrix(1 0 0 -1 0 482)"><stop offset="0" stop-color="#fff" stop-opacity="0"/><stop offset="1" stop-color="#dfe3ed"/></linearGradient><path d="M469 71c-17 12-47 13-68 9-16-3-30-11-46-15-15-5-33-7-47 2l-19 17c-7 6-24 15-32 12l30 53c8 1 24-6 29-17 4-8 9-15 16-21 11-11 29-13 45-12s32 5 48 5c22-1 67-17 69-33h-25z" fill="url(#SVGID_22_)"/></g><g><defs><path id="SVGID_23_" d="M467 75c-17 9-45 9-64 7-15-3-29-8-43-12-15-3-31-4-44 2-7 3-12 9-19 13-6 4-21 11-29 9l27 39c8 1 23-4 28-13 3-5 9-11 14-15 11-9 28-10 43-9s30 4 45 3c20 0 62-12 65-24h-23z"/></defs><clipPath id="SVGID_24_"><use xlink:href="#SVGID_23_" overflow="visible"/></clipPath><g clip-path="url(#SVGID_24_)"><path class="st23" d="M487 72h-11 11zM493 72h-4 4zM496 72h-1 1zM501 72h-3 4z"/><g><path class="st23" d="M478 72h-3 3zM492 72h-12 12zM495 72h-1 1zM500 72h-3 4zM475 73h-1v-1h2zM480 73h-2v-1h2zM483 73h-1v-1h1zM488 73h-3v-1h4zM476 73h-3 3zM482 73h-4 5zM485 73h-1 2zM491 73h-4 4z"/></g><g><path class="st23" d="M482 73h-10 11zM488 73h-3 4zM491 73h-1 2zM497 73h-4 5z"/><g><path class="st23" d="M474 74h-3v-1l3 1zM487 74h-11 12zM490 74h-1 2zM496 74h-4 5zM471 74h-1 2zM475 74h-1 2zM478 74h-1 2zM484 74h-4 5zM472 75h-3v-1h3zM478 75h-4l1-1h3zM481 75h-1v-1h2zM487 75h-4v-1h4z"/></g></g><g><path class="st23" d="M478 75h-10 11zM484 75h-4 5zM487 75h-1 2zM493 75h-4 5z"/><g><path class="st23" d="M470 75h-3 3zM483 75h-11 12zM486 75h-1 2zM492 75h-4 4zM467 76h-1v-1h2zM471 76h-2l1-1h2zM474 76h-1l1-1 1 1zM480 76h-4 5zM468 76h-3 3zM474 76h-4 4zM477 76h-1 1zM483 76h-4 4z"/></g></g><g><path class="st23" d="M493 77h-10l1-1h9zM498 77h-3v-1l4 1zM501 77h-1 2zM506 77h-3 4z"/><g><path class="st23" d="M485 77h-3 4zM497 77h-10 11zM500 77h-1 2zM505 77h-3 4zM483 77h-1 1zM487 77h-2 2zM489 77h-1 2zM495 77h-4 4zM483 78h-2 3zM489 78h-4 4zM492 78h-1 1zM497 78h-4 4z"/></g><g><path class="st23" d="M489 78h-9 10zM495 78h-4 4zM497 78h-1 2zM503 78h-4 4z"/><g><path class="st23" d="M482 79l-3-1h3zM494 79h-10v-1h10zM497 79h-1v-1h1zM502 79h-4l1-1 3 1zM479 79h-1 2zM483 79h-2 2zM486 79h-1 1zM491 79h-4 4zM480 79h-3 3zM485 79h-3 4zM488 79h-1 1zM493 79h-3 4z"/></g></g><g><path class="st23" d="M485 80h-9 10zM491 80h-4 4zM494 80h-1 1zM499 80h-4 4z"/><g><path class="st23" d="M478 80h-3 3zM490 80h-10 10zM493 80h-1 1zM498 80h-4 4zM475 80h-1 2zM479 80h-2 3zM482 80h-1 1zM487 81h-3v-1h4zM476 81h-3 3zM481 81h-3 4zM484 81h-1 2zM489 81h-3 4z"/></g></g></g><g><path class="st23" d="M466 77h-11l1-1 11 1zM473 77h-4 4zM476 77h-1 1zM482 77h-4 4z"/><g><path class="st23" d="M458 77h-4 4zM472 77h-12 12zM475 77h-2 2zM481 77h-4 4zM455 77h-2 2zM459 78l-2-1h3zM462 78h-1l1-1h1zM468 78h-4l1-1h4zM455 78h-3 4zM462 78h-4 4zM465 78h-1 1zM471 78h-4 4z"/></g><g><path class="st23" d="M462 78h-11 11zM468 78h-4 5zM471 78h-1 2zM477 78h-4 5z"/><g><path class="st23" d="M453 79h-3l1-1h3zM467 79h-11v-1l12 1zM470 79h-1 2zM476 79h-4 5zM451 79h-2 2zM455 79h-2 2zM458 79h-1 2zM464 79h-4 4zM451 79h-3 4zM457 79h-3 4zM461 79h-2 2zM467 80h-4v-1h4z"/></g></g><g><path class="st23" d="M458 80h-11 11zM464 80h-4 5zM467 80h-1 2zM473 80h-4 5z"/><g><path class="st23" d="M449 80h-3 4zM463 80h-12 12zM466 80h-1 2zM472 80h-4 5zM446 81h-1v-1h2zM451 81h-2v-1h2zM454 81h-1v-1h1zM460 81h-4v-1h4zM447 81h-3 3zM453 81h-4 5zM456 81h-1 2zM462 81h-4 5z"/></g></g></g></g></g><g><path class="st18" d="M250 157l5-3c1-2 3-2 5-2 1 0 4 0 4 2 1 1 2 3 1 4l-1 2c-2 0-2 1-2 7s-5 9-7 14c-3 5 3 6 0 16-3 9-11 8-13 8-4 0-9-1-11-4s-2-6-1-9c0-3 0-10 2-13 0 0 2-5 7-8 3-1 5-5 6-8s2-6 5-6z"/><linearGradient id="SVGID_25_" gradientUnits="userSpaceOnUse" x1="281" y1="142" x2="370" y2="142" gradientTransform="matrix(1 0 0 -1 0 482)"><stop offset="0" stop-color="#dfe3ed" stop-opacity="0"/><stop offset="1" stop-color="#dfe3ed"/><stop offset="1" stop-color="#dfe3ed"/><stop offset="1" stop-color="#dfe3ed"/></linearGradient><path fill="url(#SVGID_25_)" d="M353 334l-61-2-11 12 90 3z"/><path class="st22" d="M225 214l-1 1v6l3 39c1 5 0 14 3 15 3 0 9-2 9-4l-6-16c-1-5-4-12-4-20s-3-18-2-19 8-6 26-13c0 1-21 4-28 11z"/><path class="st35" d="M258 180l-2 8s-9 8-9 11c0 4 0 13 2 20h2l-5 26s-2 6 15 5c0 0 15-1 18-9l7-15c2-2 6-6 4-15v-1l4-3-7-14-7-6-22-7z"/><path d="M266 187s-2 5-5 6c-2 2-6 3-7 7-1 5-2 11 0 19l-5 1s-3-9-2-20c0 0-1-4 8-12l3-8 10 4-2 3z" fill="#162b4d"/><linearGradient id="SVGID_26_" gradientUnits="userSpaceOnUse" x1="277" y1="183" x2="287" y2="183" gradientTransform="matrix(1 0 0 -1 0 482)"><stop offset="0" stop-color="#fff"/><stop offset="0" stop-color="#f0f2f6"/><stop offset="0" stop-color="#e3e7ef"/><stop offset="1" stop-color="#dfe3ed"/><stop offset="1" stop-color="#dfe3ed"/></linearGradient><path fill="url(#SVGID_26_)" d="M282 292l-4 16h4l5-17z"/><path class="st22" d="M232 273s39 21 75 14h5l-1 3s-10 7-43 4c0 0-24-4-37-14l1-7z"/><linearGradient id="SVGID_27_" gradientUnits="userSpaceOnUse" x1="297" y1="153" x2="346" y2="153" gradientTransform="matrix(1 0 0 -1 0 482)"><stop offset="0" stop-color="#dfe3ed" stop-opacity="0"/><stop offset="1" stop-color="#dfe3ed"/><stop offset="1" stop-color="#dfe3ed"/><stop offset="1" stop-color="#dfe3ed"/></linearGradient><path fill="url(#SVGID_27_)" d="M343 328h-38l-8 3 49-1z"/><linearGradient id="SVGID_28_" gradientUnits="userSpaceOnUse" x1="328" y1="191" x2="349" y2="191" gradientTransform="matrix(1 0 0 -1 0 482)"><stop offset="0" stop-color="#fff"/><stop offset="0" stop-color="#f0f2f6"/><stop offset="0" stop-color="#e3e7ef"/><stop offset="1" stop-color="#dfe3ed"/><stop offset="1" stop-color="#dfe3ed"/></linearGradient><path d="M349 328s-10-46-10-58c-1-16-7-17-7-17l-4 2c1 0 7 3 6 13l12 62 3-2z" fill="url(#SVGID_28_)"/><linearGradient id="SVGID_29_" gradientUnits="userSpaceOnUse" x1="292" y1="195" x2="346" y2="195" gradientTransform="matrix(1 0 0 -1 0 482)"><stop offset="0" stop-color="#fff"/><stop offset="0" stop-color="#f0f2f6"/><stop offset="0" stop-color="#e3e7ef"/><stop offset="1" stop-color="#dfe3ed"/><stop offset="1" stop-color="#dfe3ed"/></linearGradient><path d="M292 248s1-5 9-4l27 10s6 0 7 10v3l11 63-4-1-11-67s0-5-6-6l-26-10s-4-1-5 3l-2-1z" fill="url(#SVGID_29_)"/><path class="st21" d="M294 207s4 10 6 9l18-9v-3-2l1-4c1-1 2 1 2 3h2l6-1 5 3c1 0-2 2-6 0-1-1 3 4-2 7s-4 0-5 1l-22 17c-1 0-9-6-10-10-1-3-4-7-3-10 2-2 7-3 8-1z"/><path class="st19" d="M292 210s5 10 6 9l22-11 2-5 3 1v1c-1 2-3 4-4 3v3l-9 8-13 9c-1 0-6-3-9-8l-4-10s0-3 4-3l2 3z"/><path class="st50" d="M323 250l-28-8c-2-1-2-2-2-4h-1c0 2 1 4 3 5l28 9c2 0 4-1 5-3v-1c-1 2-3 3-5 2z"/><path class="st22" d="M325 245l-28-9c-1 0-3 0-4 2 0 2 0 3 2 4l28 8c2 1 4 0 5-1 0-2-1-4-3-4z"/><path class="st17" d="M266 182s-8-5-8-2c-1 3 15 15 23 10l-1-2c-6-4-14-6-14-6z"/><path class="st21" d="M278 186c-2 2 0 5 0 5l-6-1c-6-1-8-4-8-4 2-1 3-5 4-8v-2s-4-2-2-5c1-4 3-3 4 1s3 3 5 0c1-4 2-12 10-9 0 0 2 1 2 3l2 6-1 6s-6 12-10 8z"/><path class="st18" d="M292 157s4 2 4 7l-3 16-1 5-1-4c-2-3-3-5-2-8 1-2-2-7-2-7s-1-3-4-3c0 0-5-2-7 5 0 0-3 12-9 11 0 0-6-9-3-17s10-12 17-8l11 3z"/><path class="st35" d="M246 245s-12 21 9 31a1485 1485 0 0 0 54 13c1 1-4 13-2 18s5 22 5 28v10s8 2 9 0l4-56 22 36c1 0 7 1 8-2l-18-48c-2-4-3-8-8-11l-8-3-44-17-31 1z"/><path class="st17" d="M279 252l-1 1 16 10c6 3 29 10 30 16l2 11 22 35 1-1-25-53-28-9-17-10z"/><path class="st17" d="M275 246l-2 1-14 8c-6 3-7 13 2 15s47 8 52 10 7 5 3 12-6 7-4 16c1 9 2 28 0 37 0 0 2-12-3-29l-3-12 3-15s1-1-14-5l-40-8s-19-8-10-29l1-2h3l28-1-2 2z"/><path class="st33" d="M315 228l3-7v-1l8-3 1 1-8 17v1l-8 3-1-1 5-10z"/><path d="M315 228l3-6 7-3 1 1-7 14-7 3v-1l3-8z" fill="#b53030"/><linearGradient id="SVGID_30_" gradientUnits="userSpaceOnUse" x1="264" y1="176" x2="288" y2="176" gradientTransform="matrix(1 0 0 -1 0 482)"><stop offset="0" stop-color="#fff"/><stop offset="0" stop-color="#f0f2f6"/><stop offset="0" stop-color="#e3e7ef"/><stop offset="1" stop-color="#dfe3ed"/><stop offset="1" stop-color="#dfe3ed"/></linearGradient><path d="M285 346l4-2-13-70s-1-6-10-8l-2 2s8 3 9 8l12 70z" fill="url(#SVGID_30_)"/><linearGradient id="SVGID_31_" gradientUnits="userSpaceOnUse" x1="234" y1="127" x2="335" y2="127" gradientTransform="matrix(1 0 0 -1 0 482)"><stop offset="0" stop-color="#dfe3ed" stop-opacity="0"/><stop offset="1" stop-color="#dfe3ed"/><stop offset="1" stop-color="#dfe3ed"/><stop offset="1" stop-color="#dfe3ed"/></linearGradient><path fill="url(#SVGID_31_)" d="M312 347l-64 2-14 14 101-3z"/><path class="st19" d="M268 176c-2-1-1-4-1-6-1-2 2-3 3 0 1 4 4 5 5 1l3-6s2-3 5-2l3 1 2 4s-5-2-9 2c-3 5-3 11-3 11l1 4h-2c-1 0-2 2-1 3v3l-3-1-5-2-2-2s4-5 4-10z"/><linearGradient id="SVGID_32_" gradientUnits="userSpaceOnUse" x1="172" y1="159" x2="224" y2="159" gradientTransform="matrix(1 0 0 -1 0 482)"><stop offset="0" stop-color="#dfe3ed" stop-opacity="0"/><stop offset="1" stop-color="#dfe3ed"/><stop offset="1" stop-color="#dfe3ed"/><stop offset="1" stop-color="#dfe3ed"/></linearGradient><path fill="url(#SVGID_32_)" d="M218 322h-38l-8 3 49-1 3-1z"/><linearGradient id="SVGID_33_" gradientUnits="userSpaceOnUse" x1="237" y1="138" x2="288" y2="138" gradientTransform="matrix(1 0 0 -1 0 482)"><stop offset="0" stop-color="#dfe3ed" stop-opacity="0"/><stop offset="1" stop-color="#dfe3ed"/><stop offset="1" stop-color="#dfe3ed"/><stop offset="1" stop-color="#dfe3ed"/></linearGradient><path fill="url(#SVGID_33_)" d="M283 343h-38l-8 3h48l4-1z"/><linearGradient id="SVGID_34_" gradientUnits="userSpaceOnUse" x1="232" y1="175" x2="283" y2="175" gradientTransform="matrix(1 0 0 -1 0 482)"><stop offset="0" stop-color="#dfe3ed" stop-opacity="0"/><stop offset="1" stop-color="#dfe3ed"/><stop offset="1" stop-color="#dfe3ed"/><stop offset="1" stop-color="#dfe3ed"/></linearGradient><path fill="url(#SVGID_34_)" d="M277 305h-37l-8 3 51-1z"/><path class="st5" d="M269 156l-1-2-4-2h-1l-2 5c-1 2 2 3 3 4h1c1-1 4-3 4-5z"/><path class="st18" d="M312 345s-3 4-2 9v2l1 1 23 3c4 1 9-3 5-5 0 0-17-6-17-8l-1-2h-9zM348 325l2 8 3 3 7 6c1 2 9 8 17 3 5-3-5-8-9-11a36 36 0 0 1-13-10l-2-1-5 2z"/><linearGradient id="SVGID_35_" gradientUnits="userSpaceOnUse" x1="215" y1="188" x2="242" y2="192" gradientTransform="matrix(1 0 0 -1 0 482)"><stop offset="0" stop-color="#fff"/><stop offset="0" stop-color="#f0f2f6"/><stop offset="0" stop-color="#e3e7ef"/><stop offset="1" stop-color="#dfe3ed"/><stop offset="1" stop-color="#dfe3ed"/></linearGradient><path d="M221 324l3-1 11-52 2-10c0 1-3-1-4 2l-12 61z" fill="url(#SVGID_35_)"/><linearGradient id="SVGID_36_" gradientUnits="userSpaceOnUse" x1="281" y1="192" x2="220" y2="157" gradientTransform="matrix(1 0 0 -1 0 482)"><stop offset="0" stop-color="#fff"/><stop offset="0" stop-color="#f0f2f6"/><stop offset="0" stop-color="#e3e7ef"/><stop offset="1" stop-color="#dfe3ed"/><stop offset="1" stop-color="#dfe3ed"/></linearGradient><path d="M285 346l-13-73s-1-3-9-6l-28-8h-1c-1 0-2 0-3 3l-13 59 1 2 2 1 12-59s0-5 6-3l27 10s4 1 4 5l1 6 10 62 4 1z" fill="url(#SVGID_36_)"/><path class="st50" d="M265 267l-28-9c-2 0-2-2-2-3h-1c0 2 1 4 3 5l28 9c2 0 4-1 5-3v-1c-1 2-3 3-5 2z"/><path class="st22" d="M267 262l-28-9c-2-1-4 0-5 2l3 4 28 8c2 1 4 0 5-2 0-1-1-3-3-3z"/><path class="st17" d="M251 219l-5 26c-2 2 7 6 14 4 4-1 9-10 10-11 0-1 15-14 16-17s-8 2-14 4-7-3-7-6l-3-12 1 10c-4 2-12 2-12 2"/><path class="st21" d="M251 218s9 23 12 25c2 1 24 0 48-10l10-1c1-2 3-5 2-7h-2l-5 3c-1-2 2-4 1-4-2-1-2 1-4 2l-5 3c-2 0-37 6-39 4l-7-18c0-2-6-2-11 3z"/><path class="st19" d="M254 216l1 2s10 20 12 21h25s-13 4-23 4h-6l-2-2-10-23 3-2z"/><path class="st21" d="M268 170h-1v1l1 3c1 1 1-1 1-1v-1l-1-2z"/><g class="st59"><path class="st5" d="M247 166c-5 4-9 9-12 14l-4 7c-1 3-1 6 1 8s5 3 7 1l3-6 2-7 3-3 2-4 5-10 1-3-2-3-3 2-3 3v1z"/></g></g><g><path class="st3" d="M338 206l-11-6h-1v12l2 1v3l1-1 7 4h1l1-1v-10-2z"/><path class="st23" d="M337 206l-12-6v13l2 1v3l2-2 8 4v-11-2z"/><path class="st3" d="M329 209h-1v-1c0-1 0 0 0 0l1 1zM331 210v1l-1-1 1-1v1zM334 212h-1v-1c0-1 0 0 0 0l1 1z"/></g><g><path class="st3" d="M540 10l-14-7-1 1v12l1 2 2 1v4l2-1 9 4 2-1V13l-1-3z"/><path class="st4" d="M539 11l-14-8-1 1v12l1 3 2 1v3l2-2 10 5 1-1V13l-1-2z"/><path class="st3" d="M529 14l-1-1h1v1zM532 16l-1-1 1-1v2zM535 17v1l-1-1 1-1v1z"/></g><g id="_x37__3_"><g class="st59"><path id="XMLID_2965_" class="st29" d="M467 329l-13-6h-3l-31 14v3l13 6h3l31-14c2-1 2-2 0-3z"/><path id="XMLID_2962_" class="st29" d="M467 329l-13-6h-3l-31 14-1 2 1 1 13 6h3l31-14 1-2-1-1zm-31 14v2h-3l-13-6h-1l1-2 31-14h4l-19 20z"/><path id="XMLID_2961_" class="st29" d="M440 344h-1v-1h1v1z"/><path class="st29" d="M440 343l-1 1h1v-1z"/><path id="XMLID_2960_" class="st29" d="M440 344v-1l-1 1h1z"/><path id="XMLID_2959_" class="st29" d="M440 343h1l1-1-2 1z"/><path id="XMLID_2956_" class="st29" d="M440 344v-1l2-1-1 1h-1v1zm2-2l-2 1h1l1-1z"/><path id="XMLID_2955_" class="st29" d="M442 343h-1-1 1l1-1v1z"/><path id="XMLID_2952_" class="st29" d="M441 344s-1 0 0 0v-1l1-1v1l-1 1zm1-2l-1 1h1v-1z"/><path id="XMLID_2951_" class="st29" d="M443 342l1-1-1 1h-1 1z"/><path id="XMLID_2950_" class="st29" d="M444 342h-1l1-1h1l-1 1z"/><path id="XMLID_2947_" class="st29" d="M443 342l1-1h1l-1 1h-1zm2-1c-1 0-1 0 0 0l-2 1h1l1-1z"/><path id="XMLID_2946_" class="st29" d="M420 337l31-14h3l13 6v2l-31 14h-2l-14-6v-2z"/><path id="XMLID_2943_" class="st29" d="M435 345h-2l-13-6v-1-1l31-14h3l13 6 1 1-1 1-31 14h-1zm-15-8v2l14 6h2l31-14 1-1-1-1-13-6h-2l-32 14z"/><path id="XMLID_2942_" class="st29" d="M465 330l-13-6h-2l-29 13v1l13 6h2l29-13v-1z"/><path id="XMLID_2941_" class="st29" d="M458 326c-1 0-1 0 0 0z"/><path id="XMLID_2940_" class="st29" d="M461 327l-3-1h1l2 1c0 1 0 1 0 0z"/><path id="XMLID_2937_" class="st29" d="M458 326h-1 1s0-1 0 0zm0 0z"/><path id="XMLID_2934_" class="st29" d="M461 327l-3-1h1l2 1c1 0 1 0 0 0zm-3-1l3 1-3-1z"/><path id="XMLID_2933_" class="st29" d="M432 341l-5-2 1-1h3l4 2v1h-3z"/><path id="XMLID_2931_" class="st29" d="M433 341h-1l-5-2v-1l1-1h3l4 2 1 1-1 1h-2z"/><path id="XMLID_2928_" class="st29" d="M431 338v1h-2l1-1h1zm-1 1h1v-1h-1v1z"/><path id="XMLID_2925_" class="st29" d="M430 339h2l-1 1 1-1h-2zm2 0h-1 1z"/><path id="XMLID_2923_" class="st29" d="M432 340l1-1-1 1 2-1v1h-2z"/><path id="XMLID_2922_" class="st29" d="M456 341h-1l-2 3-1 1 5-2-1-2z"/><path id="XMLID_2921_" class="st29" d="M457 340l-2-7c0-3-1-6-3-7h-2l-10 4h2l3 3 1 4 2 7 2 1s2 1 3-1l2-3 2-1z"/><path id="XMLID_2920_" class="st29" d="M439 331l-1-1h-4l-2-1-9 4 2 1h4l1 1 3 1 1 1c1 0 3 0 4-3l1-3z"/><path id="XMLID_2919_" class="st29" d="M471 346c-2-1-3-2-3-4-1-2-1-5-3-5 0-1 0-1 0 0l-7 3-3 1h1l2 5c0 2 2 4 3 4l4 2 9-4-3-2z"/><path id="XMLID_2918_" class="st29" d="M436 330h-2l-2-1-9 4 2 1h4l1 1 3 1 2 1s2 0 3-3l1-3-1-1h-2z"/><path id="XMLID_2917_" class="st29" d="M451 326h-2l-7 4 3 3 1 4 2 7 3 1h2l1-3 1-1 2-1-2-6c-1-3-1-7-4-8z"/><path id="XMLID_2916_" class="st29" d="M458 346l3 4 4 1 8-3-3-1-3-4c0-2 0-5-2-6h-1l-7 3-1 1 2 5z"/><path class="st29" d="M471 346c-2-1-3-2-3-4v-1l-2-5h-1l-7 4c-2-2-2-5-3-7 0-2-1-6-3-7h-2l-9 4-2 1-1-1h-4l-2-1-9 4 2 1h4l1 1 3 1 1 1h2l9-4 1 4 2 7 3 1h2l4-2 1 3 3 4 4 2 9-5-3-1zm-35-9h-1l-2-1-3-1-1-1h-4l-2-1 9-4 2 1h4l1 1-1 3-2 3zm17 8h-2l-2-1c-2-1-2-4-3-7l-1-4-3-3h-1l9-4h2c2 1 3 5 3 7 1 3 1 5 3 7l-2 1-3 3v1c0-1 0-1 0 0 0-1 0 0 0 0zm0 0v-1l2-3h1l1 2-4 2zm8 5l-3-4v-3l-1-2h-1l9-4c2 0 2 3 3 5 0 2 1 3 3 4l3 1-9 5-4-2z"/><path id="XMLID_2915_" class="st29" d="M466 347l-3 1 2-1z"/><path id="XMLID_2914_" class="st29" d="M463 349h-2l1-1z"/><path id="XMLID_2913_" class="st29" d="M467 347l-5 2 4-2z"/><path id="XMLID_2912_" class="st29" d="M465 349l-2 1v-1h1z"/><path id="XMLID_2909_" class="st29" d="M465 350c-1 0-1 0 0 0zm0 0c-1 0-1 0 0 0z"/><path id="XMLID_2906_" class="st29" d="M466 350h-1 1zm-1 0z"/><path id="XMLID_2903_" class="st29" d="M466 350v-1 1c0 1 0 0 0 0zm0 0v-1 1z"/><path id="XMLID_2900_" class="st29" d="M467 350h-1v-1h1v1zm-1-1z"/><path id="XMLID_2897_" class="st29" d="M467 349s-1 0 0 0zm0 0z"/><path id="XMLID_2894_" class="st29" d="M468 349h-1 1zm-1 0h0z"/><path id="XMLID_2891_" class="st29" d="M468 349v-1 1zm0-1v0z"/><path id="XMLID_2888_" class="st29" d="M469 348c-1 0-1 0 0 0zm-1 0h0z"/><path id="XMLID_2885_" class="st29" d="M470 348h-1 1zm-1 0z"/><path id="XMLID_2883_" class="st29" d="M470 348z"/><path id="XMLID_2882_" class="st29" d="M430 331l-5 2 4-2z"/><path id="XMLID_2881_" class="st29" d="M431 330l-1 1 1-1z"/><path id="XMLID_2880_" class="st29" d="M428 333h-2 1z"/><path id="XMLID_2879_" class="st29" d="M432 331l-4 2v-1l4-1z"/><path id="XMLID_2878_" class="st29" d="M434 332l-3 1 3-1z"/><path id="XMLID_2877_" class="st29" d="M431 333l-1 1h-1l1-1z"/><path id="XMLID_2876_" class="st29" d="M435 332l-4 2h-1l5-2z"/><path id="XMLID_2875_" class="st29" d="M433 334l-1 1 1-1z"/><path id="XMLID_2874_" class="st29" d="M435 334l-2 1 2-1z"/><path id="XMLID_2873_" class="st29" d="M433 334h-2l2-1z"/><path id="XMLID_2872_" class="st29" d="M437 332l-3 1h-1l4-1z"/><path id="XMLID_2871_" class="st29" d="M446 333v-1l6-3h1z"/><path id="XMLID_2870_" class="st29" d="M446 333l2-1z"/><path id="XMLID_2869_" class="st29" d="M449 332l4-2z"/><path id="XMLID_2868_" class="st29" d="M446 334l4-2z"/><path id="XMLID_2867_" class="st29" d="M446 335l2-1z"/><path id="XMLID_2866_" class="st29" d="M448 334l4-2v1z"/><path id="XMLID_2865_" class="st29" d="M447 338l7-3z"/><path id="XMLID_2864_" class="st29" d="M447 339l2-1z"/><path id="XMLID_2863_" class="st29" d="M450 338l4-2z"/><path id="XMLID_2862_" class="st29" d="M458 342v-1l2-1v1z"/><path id="XMLID_2861_" class="st29" d="M461 340l4-2v1z"/><path id="XMLID_2860_" class="st29" d="M458 342l4-2 1 1z"/></g><g id="XMLID_2422_"><path id="XMLID_2584_" class="st22" d="M466 327l-13-6h-3l-31 14-1 1 1 2 13 5 1 1 2-1 31-14 1-1-1-1z"/><g id="XMLID_2552_"><path id="XMLID_2553_" class="st23" d="M419 335l31-14h3l13 6v1l-31 14h-3l-13-5v-2z"/></g><g id="XMLID_2547_"><g id="XMLID_2548_"><path id="XMLID_2549_" class="st3" d="M419 335l-1 1h1l13 6h3l31-14h1l-1-1-13-6h-3l-31 14z"/></g></g><linearGradient id="XMLID_2_" gradientUnits="userSpaceOnUse" x1="437" y1="137" x2="446" y2="160" gradientTransform="scale(1 -1) rotate(1 24198 -75)"><stop offset="0" stop-color="#fff"/><stop offset="0" stop-color="#f0f2f6"/><stop offset="0" stop-color="#e3e7ef"/><stop offset="1" stop-color="#dfe3ed"/><stop offset="1" stop-color="#dfe3ed"/></linearGradient><path id="XMLID_2546_" d="M464 327l-13-5h-2l-29 13v1l13 6h2l29-14v-1z" fill="url(#XMLID_2_)"/><g id="XMLID_2518_"><g id="XMLID_2528_"><path id="XMLID_2529_" class="st22" d="M432 339l-1-1-5-2 1-1h3l4 2h1l-1 1-2 1z"/></g></g><g id="XMLID_2423_"><g id="XMLID_2509_"><path id="XMLID_2517_" class="st22" d="M455 338h-1l-2 4-1 1 5-3-1-2z"/><g id="XMLID_2510_"><path id="XMLID_2516_" class="st3" d="M456 337l-2-6c0-3-1-7-4-8h-2l-9 5h2c1 0 2 1 2 3l2 4 2 7 2 1 3-1 2-4 2-1z"/><path id="XMLID_2515_" class="st3" d="M438 328h-1l-2-1h-2l-2-1-9 4 2 1h1l3 1h1l3 2h1c1 1 2 1 3-2l2-4z"/><path id="XMLID_2514_" class="st3" d="M469 343l-3-3c0-2 0-5-2-6h-1 1l-8 3-2 1h1l2 6c0 2 2 3 3 4l4 1 9-4-4-2z"/><linearGradient id="XMLID_3_" gradientUnits="userSpaceOnUse" x1="416" y1="148" x2="429" y2="148" gradientTransform="matrix(1.1372 -.01806 .05802 -.8803 -59 469)"><stop offset="0" stop-color="#e5e5e5"/><stop offset="0" stop-color="#f3f3f3"/><stop offset="0" stop-color="#fcfcfc"/><stop offset="0" stop-color="#fff"/><stop offset="1" stop-color="#fff"/></linearGradient><path id="XMLID_2513_" d="M435 328h-2l-2-1-9 3 2 1h1l3 1h1l3 2h1c1 1 3 1 3-2l2-4h-3z" fill="url(#XMLID_3_)"/><linearGradient id="XMLID_4_" gradientUnits="userSpaceOnUse" x1="431" y1="145" x2="445" y2="145" gradientTransform="matrix(1.1372 -.01806 .05802 -.8803 -59 469)"><stop offset="0" stop-color="#e5e5e5"/><stop offset="0" stop-color="#f3f3f3"/><stop offset="0" stop-color="#fcfcfc"/><stop offset="0" stop-color="#fff"/><stop offset="1" stop-color="#fff"/></linearGradient><path id="XMLID_2512_" d="M450 324h-2l-8 3h1l3 3 1 5 2 7 2 1 3-1 1-2 1-2 2-1-2-6c-1-2-2-6-4-7z" fill="url(#XMLID_4_)"/><linearGradient id="XMLID_5_" gradientUnits="userSpaceOnUse" x1="445" y1="135" x2="460" y2="135" gradientTransform="matrix(1.1372 -.01806 .05802 -.8803 -59 469)"><stop offset="0" stop-color="#e5e5e5"/><stop offset="0" stop-color="#f3f3f3"/><stop offset="0" stop-color="#fcfcfc"/><stop offset="0" stop-color="#fff"/><stop offset="1" stop-color="#fff"/></linearGradient><path id="XMLID_2511_" d="M457 344c0 2 2 3 3 4l4 1 8-4-3-1-3-4-2-5h-1l-7 3h-1l2 6z" fill="url(#XMLID_5_)"/><path class="st22" d="M470 343l-3-3-1-1c0-2 0-4-2-5l-8 3-2-6c0-2-1-7-3-8h-2l-10 4-1 1h-1l-2-1h-2l-2-1-10 4 3 1 1 1h4l3 2h1l1 1h1v-1l9-3 1 4 2 7 2 1h2l5-2 1 2v1c0 2 1 3 3 4l4 1 9-4-3-2zm-35-9h-2-1l-3-2h-1l-3-1h-1l-2-1 9-4 2 1h2l2 1h1l-2 4-1 2zm17 8h-1v1h-2l-2-1-2-7-1-5-3-3h-1l9-4 2 1c2 1 3 5 3 7l2 6-2 1-2 4zm0 0l2-3h1l1 1-4 2zm8 5c-2 0-2-2-3-3v-1l-1-3-1-2 9-4c2 1 2 3 2 5v1l3 3 4 2-9 4-4-2z"/></g></g><g id="XMLID_2500_"><g id="XMLID_2507_"><path id="XMLID_2508_" class="st3" d="M465 345l-3 1h-1l3-2z"/></g><g id="XMLID_2505_"><path id="XMLID_2506_" class="st3" d="M461 346l-1 1v-1h1z"/></g><g id="XMLID_2503_"><path id="XMLID_2504_" class="st3" d="M465 345l-4 2 4-2z"/></g><g id="XMLID_2501_"><path id="XMLID_2502_" class="st3" d="M464 347h-2l1-1z"/></g></g><g id="XMLID_2470_"><path id="XMLID_2497_" class="st3" d="M464 348h-1 1zm-1 0h1v-1l-1 1z"/><path id="XMLID_2494_" class="st3" d="M464 348v-1 1zm0-1v0z"/><path id="XMLID_2491_" class="st3" d="M465 347h-1 1zm-1 0h0z"/><path id="XMLID_2488_" class="st3" d="M465 347c1 0 1 0 0 0zm0 0z"/><path id="XMLID_2485_" class="st3" d="M466 347h-1 1zm-1 0h0z"/><path id="XMLID_2482_" class="st3" d="M467 347h-1v-1h1v1zm-1-1v0z"/><path id="XMLID_2479_" class="st3" d="M467 346s1 0 0 0zm0 0z"/><path id="XMLID_2476_" class="st3" d="M468 346h-1 1zm-1 0h0z"/><path id="XMLID_2473_" class="st3" d="M468 346s1 0 0 0zm0 0v-1 1z"/><path id="XMLID_2471_" class="st3" d="M469 346l-1-1h1v1z"/></g><g id="XMLID_2468_"><path id="XMLID_2469_" class="st3" d="M428 329l-4 2v-1l4-1z"/></g><g id="XMLID_2466_"><path id="XMLID_2467_" class="st3" d="M430 328l-1 1-1-1h2z"/></g><g id="XMLID_2464_"><path id="XMLID_2465_" class="st3" d="M427 330l-2 1h-1l2-1z"/></g><g id="XMLID_2462_"><path id="XMLID_2463_" class="st3" d="M431 328l-4 2 3-2z"/></g><g id="XMLID_2460_"><path id="XMLID_2461_" class="st3" d="M433 330l-3 1 2-2z"/></g><g id="XMLID_2458_"><path id="XMLID_2459_" class="st3" d="M430 331h-2 1z"/></g><g id="XMLID_2456_"><path id="XMLID_2457_" class="st3" d="M434 330l-5 2 4-2z"/></g><g id="XMLID_2454_"><path id="XMLID_2455_" class="st3" d="M432 332h-1 1z"/></g><g id="XMLID_2452_"><path id="XMLID_2453_" class="st3" d="M434 332l-2 1h-1l3-1z"/></g><g id="XMLID_2450_"><path id="XMLID_2451_" class="st3" d="M432 331l-2 1 2-1z"/></g><g id="XMLID_2448_"><path id="XMLID_2449_" class="st3" d="M436 329l-4 2 4-2z"/></g><g id="XMLID_2446_"><path id="XMLID_2447_" class="st3" d="M445 330h-1l7-3z"/></g><g id="XMLID_2444_"><path id="XMLID_2445_" class="st3" d="M445 331v-1h2z"/></g><g id="XMLID_2442_"><path id="XMLID_2443_" class="st3" d="M448 330l-1-1 5-1z"/></g><g id="XMLID_2440_"><path id="XMLID_2441_" class="st3" d="M445 332v-1l4-1z"/></g><g id="XMLID_2438_"><path id="XMLID_2439_" class="st3" d="M445 333v-1h1z"/></g><g id="XMLID_2436_"><path id="XMLID_2437_" class="st3" d="M447 332v-1l4-1z"/></g><g id="XMLID_2434_"><path id="XMLID_2435_" class="st3" d="M446 336l6-3z"/></g><g id="XMLID_2432_"><path id="XMLID_2433_" class="st3" d="M446 337v-1h2z"/></g><g id="XMLID_2430_"><path id="XMLID_2431_" class="st3" d="M449 336v-1l3-2 1 1z"/></g><g id="XMLID_2428_"><path id="XMLID_2429_" class="st3" d="M457 339l2-1z"/></g><g id="XMLID_2426_"><path id="XMLID_2427_" class="st3" d="M460 338l3-2h1z"/></g><g id="XMLID_2424_"><path id="XMLID_2425_" class="st3" d="M457 340l4-2z"/></g></g></g></g><g><g id="XMLID_1573_"><path id="XMLID_1574_" class="st3" d="M623 69h-1l-2-1v-3l2-2h2l2 2v3l-2 1h-1zm0-5h-1l-1 1v2l1 1h2l1-1v-2l-1-1h-1z"/></g><g id="XMLID_1569_"><path id="XMLID_1570_" class="st3" d="M635 66h-1l-5-2-1-1v-3l1-4 2-2h2l5 2c1 0 2 2 1 3l-1 5-2 2h-1zm-3-11l-1 1-1 1-1 4v1l1 1 4 2h2v-1l2-5-1-2-5-2z"/></g><g id="XMLID_1565_"><path id="XMLID_1566_" class="st3" d="M629 73l-2-2 2-1 2 1-2 2zm0-3l-1 1 1 1a1 1 0 0 0 0-2z"/></g></g><g><linearGradient id="SVGID_37_" gradientUnits="userSpaceOnUse" x1="375" y1="188" x2="398" y2="188" gradientTransform="matrix(1 0 0 -1 0 482)"><stop offset="0" stop-color="#dfe3ed" stop-opacity="0"/><stop offset="1" stop-color="#dfe3ed"/><stop offset="1" stop-color="#dfe3ed"/><stop offset="1" stop-color="#dfe3ed"/></linearGradient><path fill="url(#SVGID_37_)" d="M394 293l-17-1-2 3 23 1z"/><g id="_x34__1_"><g id="XMLID_1553_"><g id="XMLID_1559_"><path class="st3" d="M401 294v-10h-7v10l1 1h5l1-1z" id="XMLID_1564_"/><path class="st23" d="M395 289v6l3 1v-7h-3z" id="XMLID_1563_"/><path class="st22" d="M397 296h-2l-1-2v-10h7v10l-1 2h-3zm-3-2l1 1h4l1-1v-9h-6v9z" id="XMLID_1560_"/></g><ellipse class="st3" cx="397" cy="285" rx="3" ry="2" id="XMLID_1558_"/><path class="st23" d="M400 285h-5-1v2l1 1h5v-3z" id="XMLID_1557_"/><path class="st22" d="M397 287l-2-1-1-2 1-1h5l1 2-1 1-3 1zm0-4h-2l-1 2 1 1h5v-1-2h-3z" id="XMLID_1554_"/></g><g id="XMLID_1551_"><path id="XMLID_1552_" class="st3" d="M401 278l-1-2 2-1v-1-1l1-1h1v-1-2h1v1c0 1 0 0 0 0v2l-1 1h-1v2l-1 1h-1v2z"/></g><g id="XMLID_1547_"><path id="XMLID_1548_" class="st3" d="M406 285c-2 0-3-1-3-3s1-2 2-2 3 1 3 2-1 3-2 3zm0-5c-2 0-3 1-3 2l2 3c2 0 3-1 3-3l-2-2z"/></g></g></g><g><g id="XMLID_1543_"><path id="XMLID_1544_" class="st3" d="M303 160h-1l-1-1v-2l1-1h2l1 1v2l-1 1h-1zm0-4l-1 1-1 1v1l1 1h1l1-1v-1l-1-1v-1z"/></g><g id="XMLID_1539_"><path id="XMLID_1540_" class="st3" d="M311 158h-1l-3-1-1-1v-2l1-3 1-1h1l4 1 1 3-1 3-1 1h-1zm-2-7h-1l-1 4v1l4 1 1-1 1-3-1-1-3-1z"/></g><g id="XMLID_1535_"><path id="XMLID_1536_" class="st3" d="M307 163l-1-1 1-1 1 1-1 1zm0-2l-1 1h2l-1-1z"/></g></g><g><linearGradient id="SVGID_38_" gradientUnits="userSpaceOnUse" x1="286" y1="356" x2="325" y2="356" gradientTransform="matrix(.9468 .04098 -.0307 -1.0575 26 496)"><stop offset="0" stop-color="#fff"/><stop offset="1" stop-color="#dfe3ed"/></linearGradient><path fill="url(#SVGID_38_)" d="M322 116l-36 6v26l37-6z"/><path class="st41" d="M320 125l-1-1-11 1-1 1v14l1 1 11-2 1-1v-13z"/><path fill="#809fbc" d="M285 122l1 25v1-26z"/><path class="st22" d="M322 120v-4l-37 6h1v4z"/><g><path class="st29" d="M296 128l-6 1v1l6-1zM289 131v-1h-1l1 1zM305 127l-7 1v1l7-1zM298 129v-1l-1 1h1zM296 131l-6 1v1l6-1zM289 133v-1h-1l1 1zM305 130v-1l-7 1 1 1zM298 131h-1 1zM290 134v1l6-1v-1zM289 134l-1 1h1v-1zM305 132l-6 1v1l6-2zM298 134v-1h-1l1 1zM296 137l-6 1v1l6-1zM289 139v-1c0-1 0 0 0 0l-1 1h1zM299 136v1l6-1v-1zM298 137h-1 1c0 1 0 0 0 0zM290 141l6-1v-1l-6 1zM289 140l-1 1h1v-1zM299 140l6-1v-1l-6 1zM298 139h-1l1 1v-1zM290 143l6-1v-1l-6 1zM289 143h-1 1c0 1 0 0 0 0zM299 142l6-1v-1l-6 1zM298 141l-1 1h1v-1z"/></g><g><path class="st41" d="M290 123l-1 1v-1h1zM289 124h-1v-1l1 1zM287 124v-1 1z"/></g></g><g><linearGradient id="SVGID_39_" gradientUnits="userSpaceOnUse" x1="220" y1="65" x2="435" y2="65" gradientTransform="matrix(1 0 0 -1 0 482)"><stop offset="0" stop-color="#dfe3ed" stop-opacity="0"/><stop offset="1" stop-color="#dfe3ed"/><stop offset="1" stop-color="#dfe3ed"/><stop offset="1" stop-color="#dfe3ed"/></linearGradient><path fill="url(#SVGID_39_)" d="M315 449l77 2 43-24-45-17 3-27H258l-38 33z"/><g id="box"><g id="XMLID_447_"><path id="XMLID_578_" class="st38" d="M347 384l-18-25 44-23 18 24z"/></g><g id="XMLID_266_"><path id="XMLID_570_" class="st33" d="M435 384l18-25-44-23-18 24z"/></g><g id="XMLID_262_"><path id="XMLID_263_" class="st33" d="M347 427l44 24 44-24v-44l-44 24-44-23"/></g><g id="XMLID_257_"><path id="XMLID_261_" class="st23" d="M435 384l-44 23-44-23 44-24z"/><path id="XMLID_258_" class="st20" d="M391 408l-45-24 45-24 45 24-45 24zm-43-24l43 23 44-23-44-23-43 23z"/></g><g id="XMLID_566_"><path id="XMLID_254_" class="st23" d="M402 430v6l4-2v-6l2-1-4-4-5 9 3-2z"/></g><path id="XMLID_686_" class="st20" d="M397 357l-51 27 45 23 6-3z"/><g id="XMLID_779_"><g id="XMLID_792_"><path id="XMLID_237_" class="st3" d="M370 379l-11-6-11 6v12l11 6v-12z"/><path id="XMLID_236_" class="st23" d="M370 381l-11-6-11 6 11 6z"/><path id="XMLID_231_" class="st20" d="M370 379l-11-6-12 6v12l11 6h1l11-6v-12zm-11-6l5 3-11 6-5-3 11-6zm0 23l-11-5v-12l10 6v11zm4-14l-4 3-5-3 10-6 5 3-6 3z"/><path id="XMLID_228_" class="st23" d="M354 385l-2-1h-1l1 2 2 1h1v-1l-1-1zm1 2h-1l-2-1v-1-1l1 1 2 1v1z"/><path id="XMLID_227_" class="st23" d="M368 387l-2 1v3l2-1v-2-1z"/></g></g><g id="XMLID_225_"><path id="XMLID_553_" fill="#5e728e" d="M391 407l-29 1-45-23 30-1z"/></g><g id="XMLID_21_"><g id="XMLID_22_"><g id="XMLID_54_"><path id="XMLID_55_" class="st23" d="M354 376l-4-2v-1l4-2h2l5 2v1l-4 2h-3z"/></g><g id="XMLID_52_"><path id="XMLID_53_" class="st3" d="M354 378l-4-3v-1l4-2h2l5 2v1l-5 3h-2z"/></g><g id="XMLID_23_"><path id="XMLID_24_" class="st20" d="M355 377l-1-1-4-2h-1l1-1 4-3h3l4 3h1l-1 1-4 2-2 1zm0-6h-1l-4 2v1l5 2h1l5-2v-1l-5-2h-1z"/></g></g></g><g id="XMLID_778_"><g id="XMLID_208_"><path id="XMLID_209_" d="M382 360l2-1v1h-2z" fill="#ffbe2e"/></g></g><path class="st3" d="M357 350h2l6-3 14 8 1-1-15-8z"/><path class="st70" d="M357 351v29l16 8v-29l-16-8zm6 25v6h-1v1l-4-3h1l-1-1v-27l5 3v21zm9-8v9h-1v1h1v8h-1v1l-7-4h1l-1-1v-9 1l1-1h-1v-9h1-1v-9l8 4v9zM357 350v1l1-1z"/><path class="st3" d="M364 356v7l7-3zM364 372l7-3-7-4zM364 382l7-4-7-3z"/><path class="st70" d="M371 361v-1l-6 4h1z"/><path class="st3" d="M366 373l5-3v-1l-6 4zM366 382l5-3v-1l-6 4z"/><path class="st23" d="M364 365l8 3-7-4zM371 367v-6l-5 3zM364 374l7 4v-1l-6-3zM371 376v-6l-5 3zM364 383l7 4v-1l-6-3zM371 386v-7l-5 3zM359 350l14 8 6-3-14-8zM373 358l-15-8-1 1 16 9z"/><path class="st20" d="M365 345l-8 4v31l16 9 8-4v-31l-16-9zm-8 35v-30l1 1 15 8v29l-16-8z"/><path class="st20" d="M364 363v1h1l7 4v-9l-8-4v8zm0-7l7 3-7 4v-7zm7 4v7l-5-3-1-1 6-3zM364 364v9h1l6 4h1v-8l-1-1-7-3v-1zm7 6v6l-6-3 6-4v1zm-7 2v-7l7 4-7 3zM364 374v8l1 1 6 3h1v-8l-8-4zm7 5v6l-6-3 6-4v1zm-7 3v-7l7 3-7 4z"/><path class="st3" d="M362 355l-3-2v26l3-2zM362 378v-1l-3 2h1z"/><path class="st23" d="M358 380l5 3v-1l-4-2zM362 381v-3l-2 1z"/><path class="st20" d="M358 379l1 1 4 1v1-27l-5-3v27zm1-26l3 2v22l-4 1v-25zm3 24v4l-2-1-1-1 3-2z"/><path class="st3" d="M381 358v2-3z"/><g><path class="st3" d="M402 350l6 3h2l-8-4-33 18h1zM369 368l-1 20 8 4v-20zM369 367v1-1z"/><path class="st23" d="M370 367l6 3 32-17-6-3zM376 371l-7-4v1l7 4z"/><path class="st20" d="M402 348l-34 18v22l8 4 34-18v-22l-8-4zm-34 40v-20h1v-1l7 4v20l-8-3zm34-39l7 4h-1l-32 17-6-3h-1l33-18zm6 25l-31 16v-8l31-17v9zm1-10l-32 16v-9l32-16v9z"/><path class="st3" d="M377 390l31-16 1-9-32 16v9zm14-14v-1h1l2-1h1v1l-3 2-1-1zM377 371v9l32-16v-9l-32 16zm14 0v-1h1l2-1h1v1l-3 2-1-1z"/><path class="st23" d="M395 375v-1l-3 2h-1 1zM395 370v-1l-3 2h-1 1z"/><path class="st20" d="M395 374h-1l-2 1v1zM395 369h-1l-2 1v1z"/></g><g><path class="st23" d="M432 367l-11-6h-1l-2 1v5l10 5v-2l1-2 2-1h1z"/><path class="st20" d="M433 367l-12-6h-2v-1l-1-1-3-1-10 5-1 2v4h-1l-2 2-1 2v6l2 6 1 1 11 6h1l1-1 1-1v-1l9-6 2 1h2v-1l3-9v-6-1zm-4 1l-1 2v2l-9-5v-5l1-1h1l11 6-3 1zm-29 11v-6l1-2 3-1h1l10 6-2 1-1 2v6l2 6-11-6-3-6zm15-21l2 1-10 6v6l-2-1-1-1v-4l1-1 10-6zm14 21h-1v5l-1-1v-3l-10 5v-9h-1v-1l-5-2 7-3v-2l10 5v-1l1 1 1 1v4l-1 1z"/><path class="st23" d="M430 375v-1l-1-1-1-1v1l-9-5-1 2-7 3 5 2v1h1v9l10-5v3l1 1v-5h2v-4zM404 365v4l1 1 2 1v-5l1-1 9-5-2-2-10 6-1 1z"/><path class="st23" d="M403 385l11 6-2-6v-6l1-2 2-1-11-6-3 1-1 2v6l3 6z"/></g><g><path class="st23" d="M392 353l4-2h2l4 2v-1l-4-2h-2l-4 2-1 1h1z"/><path class="st3" d="M402 354l-4 2h-2l-5-2v1l5 2h2l4-2v-1z"/><path class="st3" d="M396 351l-4 2 4 3 2-1 4-2-4-2h-2z"/><path class="st20" d="M397 356h1l4-2 1-1-1-1-4-2h-3l-4 2v2l5 2h1zm-6-3l1-1 4-2h2l4 2v1l-4 2-2 1-4-3h-1z"/></g><g><path class="st23" d="M387 389l10 5 2-1-12-6-13 7 3 1z"/><path class="st3" d="M387 401l-11-6-2 1 13 7 13-7-2-1z"/><path class="st3" d="M377 395l9 5 11-6-10-5z"/><path class="st20" d="M398 395l2-2-13-7-14 8 3 1 11 6 11-6zm-11-8l12 6-2 1-11 6-10-5-2-2 13-6z"/></g><g id="XMLID_25_"><path id="XMLID_574_" fill="#5e728e" d="M391 407l29 1 45-23-30-1z"/></g><g><path d="M404 377l3 1v-4l-1-1-2-1v5z" fill="none"/><path class="st23" d="M402 388l-5-3h-1v1l7 4-1-2zM396 392l1 2 6 3v-6l-7-4v5zM400 382zM396 381z"/><path class="st23" d="M403 382l-7-3h-1v15l1 3 7 3h1v-15l-1-3zm1 15l-1 1-1-1-5-3-2-2v-6l1-1h1l6 3 1 2v7zm0-11l-1 1h-1l-6-3-1-2 1-1h1l1 1v-1h1l1 1 1 1 1 1 2 2z"/><path class="st23" d="M403 382l-7-4 7 4 1 1-1-1z"/><path class="st3" d="M408 379h1-1zM410 382zM404 377l3 1-3-1zM401 376h1-1l-1-1 1 1zM409 381l-4 3v1l5-3-1-1z"/><path class="st3" d="M408 380l-7-4h-1l-4 2 7 4 1 1 1 1 4-3-1-1zM401 383l-1-1h-1l1 1h1zM402 385l-1-1-3-2-1-1h-1v1l1 2 6 3v-1l-1-1z"/><path class="st20" d="M403 384l-2-1-1-1-1-1-1 1-1-1h-1l-1 1 2 2 5 3h1l1-1-1-2zm-4-2h1v1h1-1l-1-1zm4 5l-6-3-1-2v-1l2 1 3 2 1 1 1 1v1zM403 388l-6-3h-1-1v7l2 2 5 3 1 1v-1h1v-7l-1-2zm0 9l-6-3-1-2v-5l7 4v6zm0-6l-7-4v-1-1h1l5 3 1 2v1z"/><path class="st23" d="M410 396h-1l-1 2v0l2-2z"/><path class="st20" d="M411 397h-1l-1 1v1h1l1-1v-1zm-1 1v1l-1-1 1-1v1z"/><path class="st20" d="M411 397v-1h-1v-14l-2-3v-5l-2-2-2-1h-1l-1 1v4h-1-1l-5 2-1 2v14l2 3 7 4h1v-1l3-1 1 1h2l2-1-1-2zm-7-25l2 1 1 1v4l-4-1v-5h1zm0 27v1h-1l-7-3-1-3v-14-1h1l7 3 1 3v14zm0-16l-1-1-7-4 4-2h1l7 3 1 2-4 2h-1zm1 2v-1l4-3 1 1-5 3zm3 14v-1l1-2h1l-2 2v1zm3-1l-1 1h-1v-1l1-1h1v1z"/><path class="st23" d="M411 397h-1l-1 1v1h1l1-1v-1zm0 1l-1 1h-1v-1l1-1h1v1z"/><path class="st23" d="M410 397l-1 1 1 1v-1-1z"/></g></g></g><g class="st39"><linearGradient id="SVGID_40_" gradientUnits="userSpaceOnUse" x1="304" y1="314" x2="341" y2="343" gradientTransform="rotate(52 444 252)"><stop offset="0" stop-color="#fff" stop-opacity="0"/><stop offset="1" stop-color="#fff"/></linearGradient><path d="M315 181c-1 11 2 26 10 34l1 2-8 3v1l-1 2-13-10c-9-6-11-15-13-27l24-5z" fill="url(#SVGID_40_)"/></g></g></svg>