<?xml version="1.0" encoding="utf-8"?>
<!-- Generator: Adobe Illustrator 22.0.1, SVG Export Plug-In . SVG Version: 6.00 Build 0)  -->
<svg version="1.1" id="Layer_1" xmlns="http://www.w3.org/2000/svg" xmlns:xlink="http://www.w3.org/1999/xlink" x="0px" y="0px"
	 viewBox="0 0 700 480" style="enable-background:new 0 0 700 480;" xml:space="preserve">
<style type="text/css">
	.pr0{opacity:0.9;}
	.pr1{fill:url(#SVGPRID_1_);}
	.pr2{fill:url(#SVGPRID_2_);}
	.pr3{fill:url(#SVGPRID_3_);}
	.pr4{fill:url(#SVGPRID_4_);}
	.pr5{fill:url(#SVGPRID_5_);}
	.pr6{fill:url(#SVGPRID_6_);}
	.pr7{fill:url(#SVGPRID_7_);}
	.pr8{fill:url(#SVGPRID_8_);}
	.pr9{fill:url(#SVGPRID_9_);}
	.pr10{fill:url(#SVGPRID_10_);}
	.pr11{fill:#DD444D;}
	.pr12{fill:#8E163E;}
	.pr13{fill:#9E323C;}
	.pr14{opacity:0.5;fill:url(#SVGPRID_11_);}
	.pr15{fill:none;stroke:#F23A30;stroke-width:0.75;stroke-miterlimit:10;}
	.pr16{fill:#F14335;}
	.pr17{fill:#9B2326;}
	.pr18{fill:#7E1D1F;}
	.pr19{fill:#C32A30;}
	.pr20{fill:#771239;enable-background:new    ;}
	.pr21{fill:#BC3542;}
	.pr22{fill:#DB3236;}
	.pr23{fill:#CC404E;}
	.pr24{fill:#B22D3A;}
	.pr25{fill:url(#SVGPRID_12_);}
	.pr26{fill:url(#SVGPRID_13_);}
	.pr27{fill:url(#SVGPRID_14_);}
	.pr28{fill:url(#SVGPRID_15_);}
	.pr29{fill:url(#SVGPRID_16_);}
	.pr30{fill:#474D6D;}
	.pr31{fill:#2C345B;}
	.pr32{fill:#162B4D;}
	.pr33{fill:#253E63;}
	.pr34{fill:#010717;}
	.pr35{fill:#545B77;}
	.pr36{fill:#09111E;}
	.pr37{fill:#101529;}
	.pr38{fill:#252C2A;}
	.pr39{fill:#262626;}
	.pr40{fill:#0F1F35;}
	.pr41{fill:#4E545B;}
	.pr42{fill:#E7C189;}
	.pr43{fill:#C1A172;}
	.pr44{fill:#224372;}
	.pr45{fill:#263139;}
	.pr46{fill:#363D4A;}
	.pr47{fill:url(#SVGPRID_17_);}
	.pr48{fill:url(#Path-72-Copy-5_2_);}
	.pr49{fill:url(#SVGPRID_18_);}
	.pr50{fill:url(#SVGPRID_19_);}
	.pr51{fill:#F23A30;}
	.pr52{fill:#ED4A5A;}
	.pr53{opacity:0.5;fill:#772630;enable-background:new    ;}
</style>
<g>
	<g class="pr0">
		<linearGradient id="SVGPRID_1_" gradientUnits="userSpaceOnUse" x1="565.8881" y1="74.3835" x2="338.5052" y2="468.222">
			<stop  offset="0" style="stop-color:#DFE3ED;stop-opacity:0"/>
			<stop  offset="1" style="stop-color:#DFE3ED"/>
		</linearGradient>
		<path class="pr1" d="M697.7,344c-7.7-14.9-22.8-24.5-41.5-25.4c8.7-17.7-4.7-42.1-24.3-44.2c-8.9-1-17.9,2-26.9,2
			c-9,0-19.4-4.8-20.6-13.7c-0.6-4.2,1.1-8.4,2.7-12.3c10.5-25.3,22.7-51.9,18.2-78.9c-4-24.3-22.5-45.6-46-53.1
			c-8.6-2.7-17.8-3.7-26.6-1.5c-23,5.6-35.5,29.6-52.7,45.7c-12.9,12.1-29.4,20.2-46.9,23c-11.3,1.8-22.9,1.5-34,4.2
			c-53.5,13.3-70.5,88.5-122.7,106.4c-33.2,11.4-70.7-4.4-104.6,4.7c-21.7,5.8-39.8,22.5-48.5,43.1H697.7z"/>
	</g>
	<g>
		
			<linearGradient id="SVGPRID_2_" gradientUnits="userSpaceOnUse" x1="171.8336" y1="425.1989" x2="144.0602" y2="267.6879" gradientTransform="matrix(-1 0 0 -1 383.1081 602.4051)">
			<stop  offset="0" style="stop-color:#DFE3ED;stop-opacity:0"/>
			<stop  offset="0.3175" style="stop-color:#DFE3ED;stop-opacity:0.32"/>
			<stop  offset="0.5913" style="stop-color:#DFE3ED;stop-opacity:0.59"/>
			<stop  offset="0.8481" style="stop-color:#DFE3ED;stop-opacity:0.85"/>
			<stop  offset="1" style="stop-color:#DFE3ED"/>
		</linearGradient>
		<path class="pr2" d="M248.3,315.2c9.5-5.7,20.9-7.5,31.7-5c7.4,1.7,15,2.8,22.5,3.2c12.3,0.7,25.3-0.6,35.6-7.4
			c10.3-6.8,16.8-20.5,12.2-31.9c-2.4-6.1-7.5-10.9-9.5-17.2c-4.4-13.9,8-28.9,3.8-42.8c-2.8-9.3-12.4-15-22-16.9
			c-9.5-1.9-19.4-0.9-29-1.6c-18.2-1.2-35.4-8.1-53-12.8s-37-7.1-53.5,0.5c-13.7,6.3-25.2,19.1-40.3,19.2
			c-11.6,0.1-22.8-7.7-34.1-5.2c-9.3,2.1-15.9,11.1-17.9,20.4s-0.3,19,1.7,28.4c5.2,23.6,13.2,47.5,29.9,64.9
			c9.9,10.3,22.5,17.8,35.6,23.4c16.9,7.3,37.4,11.6,53.2,2.1c7-4.2,12.7-10.9,19.9-14.4C239.7,319.9,244.1,317.7,248.3,315.2
			L248.3,315.2z"/>
	</g>
</g>
<g>
	<g>
		<g>
			
				<linearGradient id="SVGPRID_3_" gradientUnits="userSpaceOnUse" x1="621.4539" y1="240.1945" x2="621.4539" y2="321.7624" gradientTransform="matrix(1 0 0 -1 0 482)">
				<stop  offset="0" style="stop-color:#DFE3ED;stop-opacity:0"/>
				<stop  offset="0.3175" style="stop-color:#DFE3ED;stop-opacity:0.32"/>
				<stop  offset="0.5913" style="stop-color:#DFE3ED;stop-opacity:0.59"/>
				<stop  offset="0.8481" style="stop-color:#DFE3ED;stop-opacity:0.85"/>
				<stop  offset="1" style="stop-color:#DFE3ED"/>
			</linearGradient>
			<path class="pr3" d="M602,160.2v81.6h38.8v-81.6H602z M611.1,193.9h-4.5v-4.5h4.5V193.9z M611.1,186.2h-4.5v-4.5h4.5V186.2z
				 M611.1,178.6h-4.5v-4.4h4.5V178.6z M611.1,170.9h-4.5v-4.5h4.5V170.9z M619.1,193.9h-4.5v-4.5h4.5V193.9z M619.1,186.2h-4.5
				v-4.5h4.5V186.2z M619.1,178.6h-4.5v-4.4h4.5V178.6z M619.1,170.9h-4.5v-4.5h4.5V170.9z M627.2,193.9h-4.5v-4.5h4.5V193.9z
				 M627.2,186.2h-4.5v-4.5h4.5V186.2z M627.2,178.6h-4.5v-4.4h4.5V178.6z M627.2,170.9h-4.5v-4.5h4.5V170.9z M635.3,193.9h-4.5
				v-4.5h4.5V193.9z M635.3,186.2h-4.5v-4.5h4.5V186.2z M635.3,178.6h-4.5v-4.4h4.5V178.6z M635.3,170.9h-4.5v-4.5h4.5V170.9z"/>
		</g>
		<g>
			
				<linearGradient id="SVGPRID_4_" gradientUnits="userSpaceOnUse" x1="677.7603" y1="212.5474" x2="677.7603" y2="307.0556" gradientTransform="matrix(1 0 0 -1 0 482)">
				<stop  offset="0" style="stop-color:#DFE3ED;stop-opacity:0"/>
				<stop  offset="0.3175" style="stop-color:#DFE3ED;stop-opacity:0.32"/>
				<stop  offset="0.5913" style="stop-color:#DFE3ED;stop-opacity:0.59"/>
				<stop  offset="0.8481" style="stop-color:#DFE3ED;stop-opacity:0.85"/>
				<stop  offset="1" style="stop-color:#DFE3ED"/>
			</linearGradient>
			<path class="pr4" d="M662.9,174.9v94.5h29.7v-94.5L662.9,174.9L662.9,174.9z M689,239.7h-22.5v-3.5H689V239.7z M689,232.8h-22.5
				v-3.5H689V232.8z M689,225.8h-22.5v-3.5H689V225.8z M689,218.8h-22.5v-3.5H689V218.8z M689,211.8h-22.5v-3.5H689V211.8z
				 M689,204.8h-22.5v-3.5H689V204.8z M689,197.9h-22.5v-3.5H689V197.9z M689,190.8h-22.5v-3.5H689V190.8z M689,183.9h-22.5v-3.5
				H689V183.9z"/>
		</g>
		<g>
			
				<linearGradient id="SVGPRID_5_" gradientUnits="userSpaceOnUse" x1="652.1608" y1="227.3543" x2="652.1608" y2="293.6127" gradientTransform="matrix(1 0 0 -1 0 482)">
				<stop  offset="0" style="stop-color:#DFE3ED;stop-opacity:0"/>
				<stop  offset="0.3175" style="stop-color:#DFE3ED;stop-opacity:0.32"/>
				<stop  offset="0.5913" style="stop-color:#DFE3ED;stop-opacity:0.59"/>
				<stop  offset="0.8481" style="stop-color:#DFE3ED;stop-opacity:0.85"/>
				<stop  offset="1" style="stop-color:#DFE3ED"/>
			</linearGradient>
			<path class="pr5" d="M641.1,188.4v66.3h22.1v-66.3H641.1z M660.6,224.6h-16.4v-3h16.4V224.6z M660.6,219h-16.4v-3h16.4V219z
				 M660.6,213.4h-16.4v-3h16.4V213.4z M660.6,207.9h-16.4v-3h16.4V207.9z"/>
		</g>
	</g>
	<g>
		<linearGradient id="SVGPRID_6_" gradientUnits="userSpaceOnUse" x1="456.0709" y1="280.8035" x2="456.0709" y2="180.2142">
			<stop  offset="0" style="stop-color:#DFE3ED;stop-opacity:0"/>
			<stop  offset="0.3175" style="stop-color:#DFE3ED;stop-opacity:0.32"/>
			<stop  offset="0.5913" style="stop-color:#DFE3ED;stop-opacity:0.59"/>
			<stop  offset="0.8481" style="stop-color:#DFE3ED;stop-opacity:0.85"/>
			<stop  offset="1" style="stop-color:#DFE3ED"/>
		</linearGradient>
		<path class="pr6" d="M430.3,280.8h51.6V180.2h-51.6V280.8z M438.6,190h34.8v1.5h-34.8V190z M438.6,194.9h34.8v1.5h-34.8V194.9z
			 M438.6,199.8h34.8v1.5h-34.8V199.8z M438.6,204.6h34.8v1.5h-34.8V204.6z M438.6,209.5h34.8v1.5h-34.8V209.5z M438.6,214.5h34.8
			v1.5h-34.8V214.5z M438.6,219.4h34.8v1.5h-34.8V219.4z M438.6,224.3h34.8v1.5h-34.8V224.3z M438.6,229.2h34.8v1.5h-34.8V229.2z
			 M438.6,234h34.8v1.5h-34.8V234z"/>
		<linearGradient id="SVGPRID_7_" gradientUnits="userSpaceOnUse" x1="577.462" y1="213.9782" x2="577.462" y2="135.7515">
			<stop  offset="0" style="stop-color:#DFE3ED;stop-opacity:0"/>
			<stop  offset="0.3175" style="stop-color:#DFE3ED;stop-opacity:0.32"/>
			<stop  offset="0.5913" style="stop-color:#DFE3ED;stop-opacity:0.59"/>
			<stop  offset="0.8481" style="stop-color:#DFE3ED;stop-opacity:0.85"/>
			<stop  offset="1" style="stop-color:#DFE3ED"/>
		</linearGradient>
		<polygon class="pr7" points="599.9,146.9 599.9,145.6 580.7,143.1 580.9,138 582.2,137.3 582.2,135.8 561.1,141.2 561.1,138.7 
			561.6,138.7 561.6,137.9 561.1,137.9 561.1,137 562,137 562,135.8 555.3,135.8 555.3,137.2 555.6,137.2 555.6,142.7 554.6,143.1 
			554.6,144.6 555.5,144.3 555.5,157.6 555.5,162.6 555.5,213.8 597.9,213.9 600.4,214 600.4,164 598.3,164 598.3,146.9 		"/>
		<linearGradient id="SVGPRID_8_" gradientUnits="userSpaceOnUse" x1="518.6276" y1="301.34" x2="518.6276" y2="126.4802">
			<stop  offset="0" style="stop-color:#DFE3ED;stop-opacity:0"/>
			<stop  offset="0.3175" style="stop-color:#DFE3ED;stop-opacity:0.32"/>
			<stop  offset="0.5913" style="stop-color:#DFE3ED;stop-opacity:0.59"/>
			<stop  offset="0.8481" style="stop-color:#DFE3ED;stop-opacity:0.85"/>
			<stop  offset="1" style="stop-color:#DFE3ED"/>
		</linearGradient>
		<path class="pr8" d="M484.2,301.3h68.9V126.5h-68.9V301.3z M535.2,135.8h3.6v155.8h-3.6V135.8z M528,135.8h3.6v155.8H528V135.8z
			 M520.8,135.8h3.6v155.8h-3.6V135.8z M513.5,135.8h3.6v155.8h-3.6V135.8z M506.2,135.8h3.6v155.8h-3.6V135.8z"/>
	</g>
</g>
<g>
	
		<linearGradient id="SVGPRID_9_" gradientUnits="userSpaceOnUse" x1="453.94" y1="197.0682" x2="453.94" y2="138.4374" gradientTransform="matrix(1 0 0 -1 0 482)">
		<stop  offset="0" style="stop-color:#FFFFB4;stop-opacity:0.7"/>
		<stop  offset="0.5183" style="stop-color:#A7DB8E;stop-opacity:0.8555"/>
		<stop  offset="1" style="stop-color:#47B464"/>
	</linearGradient>
	<path class="pr9" d="M476.9,319.4c-0.9-2.6-2.2-4.6-4.2-6.4c-0.8-0.6-1-0.4-1.3-1.3c-0.3-0.9,0-2.2-0.1-3c-0.3-2.8-0.9-5.6-2.8-7.7
		c-1.7-1.8-4.2-2.1-4.8-4.5c-0.9-3.5-1.5-7.7-4.4-10c0,0-2-1.3-4.6-1.5c-0.9-0.1-1.5,0-1.5,0c-2.6,0.2-4.6,1.5-4.6,1.5
		c-2.9,2.4-3.6,6.6-4.4,10c-0.6,2.4-3.1,2.7-4.8,4.5c-1.9,2.1-2.5,4.8-2.8,7.7c-0.1,0.9,0.2,2.2-0.1,3c-0.3,0.9-0.6,0.8-1.3,1.3
		c-2,1.8-3.2,3.8-4.2,6.4c-1.5,4.4-1.1,9.6,1.3,13.5c2.4,3.7,6.2,6.7,10.1,8.4c3.5,1.5,7.1,2.2,10.6,2.3c0,0,1.8,0,1.9,0
		c3.5-0.1,7.1-0.8,10.6-2.3c4-1.7,7.8-4.7,10.1-8.4C478.1,328.9,478.4,323.7,476.9,319.4z"/>
</g>
<linearGradient id="SVGPRID_10_" gradientUnits="userSpaceOnUse" x1="654.713" y1="181.1673" x2="654.713" y2="138.3439" gradientTransform="matrix(1 0 0 -1 0 482)">
	<stop  offset="0" style="stop-color:#FFFFB4;stop-opacity:0.7"/>
	<stop  offset="0.5183" style="stop-color:#A7DB8E;stop-opacity:0.8555"/>
	<stop  offset="1" style="stop-color:#47B464"/>
</linearGradient>
<path class="pr10" d="M642,342.5c0,0-1.3-0.6-2.6-1.9c-2.6-2.6-4.7-6.7-0.9-12.2c0,0-2.3-6.6,2.8-10c0,0,4.4-2.8,5.1-8.6
	c0,0,0.9-10.6,10.2-8.6c0,0,6.4,1,6.7,12.2c0,0,6.8,1.1,5.7,8.4c0,0,6.7,5.3,3,15c0,0-2.1,7.2-12.4,6.9h-12.6
	C646.9,343.7,645.1,343.8,642,342.5z"/>
<g>
	<g>
		<g>
			<rect x="120.1" y="277.7" class="pr11" width="32.6" height="21.9"/>
			<rect x="125.8" y="295.5" class="pr12" width="4.1" height="2.7"/>
			<rect x="147.6" y="295.8" class="pr12" width="0.6" height="2.5"/>
			<rect x="148.6" y="295.8" class="pr12" width="0.6" height="2.5"/>
			<rect x="150.2" y="297.6" class="pr12" width="1.6" height="0.6"/>
			<path class="pr12" d="M151.7,295.8v0.6c0,0.4-0.3,0.7-0.7,0.7l0,0c-0.4,0-0.7-0.3-0.7-0.7v-0.6H151.7z"/>
			<rect x="120.1" y="277.7" class="pr13" width="3" height="21.9"/>
		</g>
		<g>
			<rect x="152.6" y="277.7" class="pr11" width="32.6" height="21.9"/>
			<rect x="158.3" y="295.5" class="pr12" width="4.1" height="2.7"/>
			<rect x="180.2" y="295.8" class="pr12" width="0.6" height="2.5"/>
			<rect x="181.2" y="295.8" class="pr12" width="0.6" height="2.5"/>
			<rect x="182.8" y="297.6" class="pr12" width="1.6" height="0.6"/>
			<path class="pr12" d="M184.3,295.8v0.6c0,0.4-0.3,0.7-0.7,0.7l0,0c-0.4,0-0.7-0.3-0.7-0.7v-0.6H184.3z"/>
			<rect x="152.6" y="277.7" class="pr13" width="3" height="21.9"/>
		</g>
		<g>
			<rect x="185.2" y="277.7" class="pr11" width="32.6" height="21.9"/>
			<rect x="190.9" y="295.5" class="pr12" width="4.1" height="2.7"/>
			<rect x="212.8" y="295.8" class="pr12" width="0.6" height="2.5"/>
			<rect x="213.8" y="295.8" class="pr12" width="0.6" height="2.5"/>
			<rect x="215.4" y="297.6" class="pr12" width="1.6" height="0.6"/>
			<path class="pr12" d="M216.9,295.8v0.6c0,0.4-0.3,0.7-0.7,0.7l0,0c-0.4,0-0.7-0.3-0.7-0.7v-0.6H216.9z"/>
			<rect x="185.2" y="277.7" class="pr13" width="3" height="21.9"/>
		</g>
		<g>
			<rect x="217.8" y="277.7" class="pr11" width="32.6" height="21.9"/>
			<rect x="223.5" y="295.5" class="pr12" width="4.1" height="2.7"/>
			<rect x="245.4" y="295.8" class="pr12" width="0.6" height="2.5"/>
			<rect x="246.4" y="295.8" class="pr12" width="0.6" height="2.5"/>
			<rect x="248" y="297.6" class="pr12" width="1.6" height="0.6"/>
			<path class="pr12" d="M249.5,295.8v0.6c0,0.4-0.3,0.7-0.7,0.7l0,0c-0.4,0-0.7-0.3-0.7-0.7v-0.6H249.5z"/>
			<rect x="217.8" y="277.7" class="pr13" width="3" height="21.9"/>
		</g>
	</g>
	<g>
		<g>
			<rect x="103.8" y="299.6" class="pr11" width="32.6" height="21.9"/>
			<rect x="109.5" y="317.4" class="pr12" width="4.1" height="2.7"/>
			<rect x="131.4" y="317.7" class="pr12" width="0.6" height="2.5"/>
			<rect x="132.4" y="317.7" class="pr12" width="0.6" height="2.5"/>
			<rect x="134" y="319.5" class="pr12" width="1.6" height="0.6"/>
			<path class="pr12" d="M135.5,317.7v0.6c0,0.4-0.3,0.7-0.7,0.7l0,0c-0.4,0-0.7-0.3-0.7-0.7v-0.6H135.5z"/>
			<rect x="103.8" y="299.6" class="pr13" width="3" height="21.9"/>
		</g>
		<g>
			<rect x="136.4" y="299.6" class="pr11" width="32.6" height="21.9"/>
			<rect x="142" y="317.4" class="pr12" width="4.1" height="2.7"/>
			<rect x="163.9" y="317.7" class="pr12" width="0.6" height="2.5"/>
			<rect x="164.9" y="317.7" class="pr12" width="0.6" height="2.5"/>
			<rect x="166.5" y="319.5" class="pr12" width="1.6" height="0.6"/>
			<path class="pr12" d="M168,317.7v0.6c0,0.4-0.3,0.7-0.7,0.7l0,0c-0.4,0-0.7-0.3-0.7-0.7v-0.6H168z"/>
			<rect x="136.4" y="299.6" class="pr13" width="3" height="21.9"/>
		</g>
		<g>
			<rect x="168.9" y="299.6" class="pr11" width="32.6" height="21.9"/>
			<rect x="174.6" y="317.4" class="pr12" width="4.1" height="2.7"/>
			<rect x="196.5" y="317.7" class="pr12" width="0.6" height="2.5"/>
			<rect x="197.5" y="317.7" class="pr12" width="0.6" height="2.5"/>
			<rect x="199.1" y="319.5" class="pr12" width="1.6" height="0.6"/>
			<path class="pr12" d="M200.6,317.7v0.6c0,0.4-0.3,0.7-0.7,0.7l0,0c-0.4,0-0.7-0.3-0.7-0.7v-0.6H200.6z"/>
			<rect x="168.9" y="299.6" class="pr13" width="3" height="21.9"/>
		</g>
		<g>
			<rect x="201.5" y="299.6" class="pr11" width="32.6" height="21.9"/>
			<rect x="207.2" y="317.4" class="pr12" width="4.1" height="2.7"/>
			<rect x="229.1" y="317.7" class="pr12" width="0.6" height="2.5"/>
			<rect x="230.1" y="317.7" class="pr12" width="0.6" height="2.5"/>
			<rect x="231.7" y="319.5" class="pr12" width="1.6" height="0.6"/>
			<path class="pr12" d="M233.2,317.7v0.6c0,0.4-0.3,0.7-0.7,0.7l0,0c-0.4,0-0.7-0.3-0.7-0.7v-0.6H233.2z"/>
			<rect x="201.5" y="299.6" class="pr13" width="3" height="21.9"/>
		</g>
		<g>
			<rect x="234.1" y="299.6" class="pr11" width="32.6" height="21.9"/>
			<rect x="239.8" y="317.4" class="pr12" width="4.1" height="2.7"/>
			<rect x="261.7" y="317.7" class="pr12" width="0.6" height="2.5"/>
			<rect x="262.7" y="317.7" class="pr12" width="0.6" height="2.5"/>
			<rect x="264.3" y="319.5" class="pr12" width="1.6" height="0.6"/>
			<path class="pr12" d="M265.8,317.7v0.6c0,0.4-0.3,0.7-0.7,0.7l0,0c-0.4,0-0.7-0.3-0.7-0.7v-0.6H265.8z"/>
			<rect x="234.1" y="299.6" class="pr13" width="3" height="21.9"/>
		</g>
	</g>
	<g>
		<g>
			<rect x="87.5" y="321.5" class="pr11" width="32.6" height="21.9"/>
			<rect x="93.2" y="339.3" class="pr12" width="4.1" height="2.7"/>
			<rect x="115.1" y="339.6" class="pr12" width="0.6" height="2.5"/>
			<rect x="116.1" y="339.6" class="pr12" width="0.6" height="2.5"/>
			<rect x="117.7" y="341.4" class="pr12" width="1.6" height="0.6"/>
			<path class="pr12" d="M119.2,339.6v0.6c0,0.4-0.3,0.7-0.7,0.7l0,0c-0.4,0-0.7-0.3-0.7-0.7v-0.6H119.2z"/>
			<rect x="87.5" y="321.5" class="pr13" width="3" height="21.9"/>
		</g>
		<g>
			<rect x="120.1" y="321.5" class="pr11" width="32.6" height="21.9"/>
			<rect x="125.8" y="339.3" class="pr12" width="4.1" height="2.7"/>
			<rect x="147.6" y="339.6" class="pr12" width="0.6" height="2.5"/>
			<rect x="148.6" y="339.6" class="pr12" width="0.6" height="2.5"/>
			<rect x="150.2" y="341.4" class="pr12" width="1.6" height="0.6"/>
			<path class="pr12" d="M151.7,339.6v0.6c0,0.4-0.3,0.7-0.7,0.7l0,0c-0.4,0-0.7-0.3-0.7-0.7v-0.6H151.7z"/>
			<rect x="120.1" y="321.5" class="pr13" width="3" height="21.9"/>
		</g>
		<g>
			<rect x="152.6" y="321.5" class="pr11" width="32.6" height="21.9"/>
			<rect x="158.3" y="339.3" class="pr12" width="4.1" height="2.7"/>
			<rect x="180.2" y="339.6" class="pr12" width="0.6" height="2.5"/>
			<rect x="181.2" y="339.6" class="pr12" width="0.6" height="2.5"/>
			<rect x="182.8" y="341.4" class="pr12" width="1.6" height="0.6"/>
			<path class="pr12" d="M184.3,339.6v0.6c0,0.4-0.3,0.7-0.7,0.7l0,0c-0.4,0-0.7-0.3-0.7-0.7v-0.6H184.3z"/>
			<rect x="152.6" y="321.5" class="pr13" width="3" height="21.9"/>
		</g>
		<g>
			<rect x="185.2" y="321.5" class="pr11" width="32.6" height="21.9"/>
			<rect x="190.9" y="339.3" class="pr12" width="4.1" height="2.7"/>
			<rect x="212.8" y="339.6" class="pr12" width="0.6" height="2.5"/>
			<rect x="213.8" y="339.6" class="pr12" width="0.6" height="2.5"/>
			<rect x="215.4" y="341.4" class="pr12" width="1.6" height="0.6"/>
			<path class="pr12" d="M216.9,339.6v0.6c0,0.4-0.3,0.7-0.7,0.7l0,0c-0.4,0-0.7-0.3-0.7-0.7v-0.6H216.9z"/>
			<rect x="185.2" y="321.5" class="pr13" width="3" height="21.9"/>
		</g>
		<g>
			<rect x="217.8" y="321.5" class="pr11" width="32.6" height="21.9"/>
			<rect x="223.5" y="339.3" class="pr12" width="4.1" height="2.7"/>
			<rect x="245.4" y="339.6" class="pr12" width="0.6" height="2.5"/>
			<rect x="246.4" y="339.6" class="pr12" width="0.6" height="2.5"/>
			<rect x="248" y="341.4" class="pr12" width="1.6" height="0.6"/>
			<path class="pr12" d="M249.5,339.6v0.6c0,0.4-0.3,0.7-0.7,0.7l0,0c-0.4,0-0.7-0.3-0.7-0.7v-0.6H249.5z"/>
			<rect x="217.8" y="321.5" class="pr13" width="3" height="21.9"/>
		</g>
		<g>
			<rect x="250.4" y="321.5" class="pr11" width="32.6" height="21.9"/>
			<rect x="256.1" y="339.3" class="pr12" width="4.1" height="2.7"/>
			<rect x="277.9" y="339.6" class="pr12" width="0.6" height="2.5"/>
			<rect x="278.9" y="339.6" class="pr12" width="0.6" height="2.5"/>
			<rect x="280.5" y="341.4" class="pr12" width="1.6" height="0.6"/>
			<path class="pr12" d="M282,339.6v0.6c0,0.4-0.3,0.7-0.7,0.7l0,0c-0.4,0-0.7-0.3-0.7-0.7v-0.6H282z"/>
			<rect x="250.4" y="321.5" class="pr13" width="3" height="21.9"/>
		</g>
	</g>
	<g>
		<rect x="168.9" y="211.9" class="pr11" width="32.6" height="21.9"/>
		<rect x="174.6" y="229.7" class="pr12" width="4.1" height="2.7"/>
		<rect x="196.5" y="230" class="pr12" width="0.6" height="2.5"/>
		<rect x="197.5" y="230" class="pr12" width="0.6" height="2.5"/>
		<rect x="199.1" y="231.8" class="pr12" width="1.6" height="0.6"/>
		<path class="pr12" d="M200.6,230v0.6c0,0.4-0.3,0.7-0.7,0.7l0,0c-0.4,0-0.7-0.3-0.7-0.7V230H200.6z"/>
		<rect x="168.9" y="211.9" class="pr13" width="3" height="21.9"/>
	</g>
	<g>
		<g>
			<rect x="152.6" y="233.8" class="pr11" width="32.6" height="21.9"/>
			<rect x="158.3" y="251.6" class="pr12" width="4.1" height="2.7"/>
			<rect x="180.2" y="251.9" class="pr12" width="0.6" height="2.5"/>
			<rect x="181.2" y="251.9" class="pr12" width="0.6" height="2.5"/>
			<rect x="182.8" y="253.7" class="pr12" width="1.6" height="0.6"/>
			<path class="pr12" d="M184.3,251.9v0.6c0,0.4-0.3,0.7-0.7,0.7l0,0c-0.4,0-0.7-0.3-0.7-0.7v-0.6H184.3z"/>
			<rect x="152.6" y="233.8" class="pr13" width="3" height="21.9"/>
		</g>
		<g>
			<rect x="185.2" y="233.8" class="pr11" width="32.6" height="21.9"/>
			<rect x="190.9" y="251.6" class="pr12" width="4.1" height="2.7"/>
			<rect x="212.8" y="251.9" class="pr12" width="0.6" height="2.5"/>
			<rect x="213.8" y="251.9" class="pr12" width="0.6" height="2.5"/>
			<rect x="215.4" y="253.7" class="pr12" width="1.6" height="0.6"/>
			<path class="pr12" d="M216.9,251.9v0.6c0,0.4-0.3,0.7-0.7,0.7l0,0c-0.4,0-0.7-0.3-0.7-0.7v-0.6H216.9z"/>
			<rect x="185.2" y="233.8" class="pr13" width="3" height="21.9"/>
		</g>
	</g>
	<g>
		<g>
			<rect x="136.4" y="255.7" class="pr11" width="32.6" height="21.9"/>
			<rect x="142" y="273.6" class="pr12" width="4.1" height="2.7"/>
			<rect x="163.9" y="273.9" class="pr12" width="0.6" height="2.5"/>
			<rect x="164.9" y="273.9" class="pr12" width="0.6" height="2.5"/>
			<rect x="166.5" y="275.7" class="pr12" width="1.6" height="0.6"/>
			<path class="pr12" d="M168,273.9v0.6c0,0.4-0.3,0.7-0.7,0.7l0,0c-0.4,0-0.7-0.3-0.7-0.7v-0.6H168z"/>
			<rect x="136.4" y="255.7" class="pr13" width="3" height="21.9"/>
		</g>
		<g>
			<rect x="168.9" y="255.7" class="pr11" width="32.6" height="21.9"/>
			<rect x="174.6" y="273.6" class="pr12" width="4.1" height="2.7"/>
			<rect x="196.5" y="273.9" class="pr12" width="0.6" height="2.5"/>
			<rect x="197.5" y="273.9" class="pr12" width="0.6" height="2.5"/>
			<rect x="199.1" y="275.7" class="pr12" width="1.6" height="0.6"/>
			<path class="pr12" d="M200.6,273.9v0.6c0,0.4-0.3,0.7-0.7,0.7l0,0c-0.4,0-0.7-0.3-0.7-0.7v-0.6H200.6z"/>
			<rect x="168.9" y="255.7" class="pr13" width="3" height="21.9"/>
		</g>
		<g>
			<rect x="201.5" y="255.7" class="pr11" width="32.6" height="21.9"/>
			<rect x="207.2" y="273.6" class="pr12" width="4.1" height="2.7"/>
			<rect x="229.1" y="273.9" class="pr12" width="0.6" height="2.5"/>
			<rect x="230.1" y="273.9" class="pr12" width="0.6" height="2.5"/>
			<rect x="231.7" y="275.7" class="pr12" width="1.6" height="0.6"/>
			<path class="pr12" d="M233.2,273.9v0.6c0,0.4-0.3,0.7-0.7,0.7l0,0c-0.4,0-0.7-0.3-0.7-0.7v-0.6H233.2z"/>
			<rect x="201.5" y="255.7" class="pr13" width="3" height="21.9"/>
		</g>
	</g>
</g>
<g>
	<g>
		
			<linearGradient id="SVGPRID_11_" gradientUnits="userSpaceOnUse" x1="379.7819" y1="393.0493" x2="418.9141" y2="446.7446" gradientTransform="matrix(-0.8082 -0.589 0.589 -0.8082 540.7312 936.1971)">
			<stop  offset="0" style="stop-color:#DFE3ED;stop-opacity:0"/>
			<stop  offset="0.3565" style="stop-color:#DFE3ED;stop-opacity:0.5032"/>
			<stop  offset="0.418" style="stop-color:#DFE3ED;stop-opacity:0.59"/>
			<stop  offset="0.8481" style="stop-color:#DFE3ED;stop-opacity:0.85"/>
			<stop  offset="1" style="stop-color:#DFE3ED"/>
		</linearGradient>
		<polygon class="pr14" points="442.2,343.6 259.6,378.1 564.6,377.6 671,343.8 		"/>
	</g>
	<path class="pr15" d="M442,343.5c64.1,0,164.9,0,229,0"/>
	<g>
		<g>
			<g>
				<polygon class="pr16" points="457.5,347.2 631.8,352.1 640.2,196.6 467.4,197.1 				"/>
			</g>
			<g>
				<polygon class="pr17" points="640.2,196.6 657.6,344.8 631.9,348.3 				"/>
			</g>
			<g>
				<polygon class="pr18" points="632.5,338.7 644.5,338.4 657.6,344.8 631.9,348.3 				"/>
			</g>
			<g>
				<polygon class="pr19" points="631.8,352.1 644.5,338.4 632.5,338.7 				"/>
			</g>
		</g>
		<g>
			<polygon class="pr19" points="469.6,339.4 621,343.7 628.4,208.4 478.2,209 			"/>
		</g>
		<g>
			<g>
				<polygon class="pr18" points="476.3,271.2 499.3,272.3 500.4,251.9 477.6,251.6 				"/>
			</g>
			<g>
				<polygon class="pr18" points="474.7,293.3 497.7,294.4 498.8,274 476,273.7 				"/>
			</g>
			<g>
				<polygon class="pr18" points="473.1,315.4 496,316.5 497.2,296.1 474.4,295.8 				"/>
			</g>
			<g>
				<polygon class="pr18" points="471.5,337.6 494.5,338.6 495.6,318.2 472.8,318 				"/>
			</g>
			<g>
				<polygon class="pr18" points="501.1,271.6 524.1,272.6 525.1,252.3 502.3,252 				"/>
			</g>
			<g>
				<polygon class="pr18" points="499.5,293.8 522.5,294.8 523.6,274.4 500.8,274.1 				"/>
			</g>
			<g>
				<polygon class="pr18" points="497.9,315.9 520.8,316.9 522,296.6 499.1,296.2 				"/>
			</g>
			<g>
				<polygon class="pr18" points="496.3,338 519.3,339 520.3,318.7 497.6,318.3 				"/>
			</g>
			<g>
				<polygon class="pr18" points="525.8,272.1 548.8,273.1 549.9,252.7 527.2,252.4 				"/>
			</g>
			<g>
				<polygon class="pr18" points="524.3,294.2 547.2,295.2 548.4,274.8 525.6,274.5 				"/>
			</g>
			<g>
				<polygon class="pr18" points="522.6,316.3 545.6,317.3 546.7,296.9 523.9,296.6 				"/>
			</g>
			<g>
				<polygon class="pr18" points="521,338.4 544,339.4 545.1,319.1 522.4,318.8 				"/>
			</g>
			<g>
				<polygon class="pr18" points="550.6,272.4 573.6,273.5 574.7,253.1 551.9,252.8 				"/>
			</g>
			<g>
				<polygon class="pr18" points="549,294.6 572,295.6 573.1,275.2 550.3,275 				"/>
			</g>
			<g>
				<polygon class="pr18" points="547.4,316.7 570.3,317.8 571.5,297.4 548.7,297.1 				"/>
			</g>
			<g>
				<polygon class="pr18" points="545.8,338.9 568.8,339.9 569.9,319.5 547.1,319.2 				"/>
			</g>
			<g>
				<polygon class="pr18" points="575.4,272.9 598.4,273.9 599.4,253.5 576.6,253.3 				"/>
			</g>
			<g>
				<polygon class="pr18" points="573.8,295 596.8,296.1 597.9,275.7 575.1,275.4 				"/>
			</g>
			<g>
				<polygon class="pr18" points="572.2,317.1 595.1,318.2 596.2,297.8 573.4,297.5 				"/>
			</g>
			<g>
				<polygon class="pr18" points="570.5,339.2 593.6,340.3 594.6,319.9 571.9,319.6 				"/>
			</g>
			<g>
				<polygon class="pr18" points="477.9,249.1 500.8,250.1 502,229.8 479.2,229.5 				"/>
			</g>
			<g>
				<polygon class="pr18" points="502.6,249.5 525.6,250.5 526.7,230.2 503.9,229.8 				"/>
			</g>
			<g>
				<polygon class="pr18" points="527.4,249.9 550.4,251 551.5,230.6 528.7,230.3 				"/>
			</g>
			<g>
				<polygon class="pr18" points="552.2,250.4 575.1,251.4 576.3,231 553.5,230.7 				"/>
			</g>
			<g>
				<polygon class="pr18" points="576.9,250.7 599.9,251.8 601,231.4 578.2,231.1 				"/>
			</g>
			<g>
				<polygon class="pr18" points="601.7,251.2 624.7,252.2 625.8,231.9 603,231.5 				"/>
			</g>
			<g>
				<polygon class="pr18" points="600.1,273.3 623.1,274.3 624.2,254 601.5,253.6 				"/>
			</g>
			<g>
				<polygon class="pr18" points="598.6,295.4 621.5,296.4 622.7,276.1 599.9,275.8 				"/>
			</g>
			<g>
				<polygon class="pr18" points="596.9,317.5 619.9,318.6 621,298.2 598.2,297.9 				"/>
			</g>
			<g>
				<polygon class="pr18" points="595.3,339.7 618.3,340.7 619.4,320.4 596.7,320 				"/>
			</g>
		</g>
		<g>
			<circle class="pr20" cx="483.5" cy="203.1" r="1.3"/>
			<circle class="pr20" cx="503" cy="203.1" r="1.3"/>
			<path class="pr20" d="M522.4,201.9c-0.7,0-1.3,0.6-1.3,1.3c0,0.7,0.6,1.3,1.3,1.3c0.7,0,1.3-0.6,1.3-1.3
				C523.7,202.5,523.1,202,522.4,201.9z"/>
			<circle class="pr20" cx="541.7" cy="203.3" r="1.3"/>
			<circle class="pr20" cx="560.7" cy="203.3" r="1.3"/>
			<circle class="pr20" cx="580.8" cy="203.4" r="1.3"/>
			<circle class="pr20" cx="600.1" cy="203.6" r="1.3"/>
			<path class="pr20" d="M619.6,202.4c-0.7,0-1.3,0.6-1.3,1.3c0,0.7,0.6,1.3,1.3,1.3c0.6,0,1.2-0.6,1.2-1.3
				C620.8,203,620.2,202.4,619.6,202.4z"/>
		</g>
		<g>
			<path class="pr21" d="M483.9,197.1c0,0,0-0.1,0-0.3s0-0.3,0-0.5c0-0.4-0.1-0.9-0.3-1.2c-0.1-0.2-0.3-0.3-0.5-0.4
				c-0.3-0.1-0.6-0.2-1.1-0.1c-0.2,0-0.4,0.1-0.6,0.2c-0.2,0.1-0.2,0.1-0.3,0.1c-0.1,0-0.2,0.1-0.3,0.2c-0.4,0.3-0.7,0.7-0.9,1.1
				c-0.5,0.9-0.7,2.2-0.6,3.3c0.1,0.5,0.3,1,0.6,1.5s0.6,0.8,1,1.1c0.8,0.6,1.6,0.7,2.2,0.8c0.3,0,0.5,0.1,0.7,0.1
				c0.2,0,0.3,0,0.3,0s-0.1,0-0.3,0.1c-0.1,0.1-0.4,0.1-0.7,0.1c-0.6,0.1-1.5,0.1-2.5-0.4c-0.5-0.2-1-0.6-1.5-1
				c-0.4-0.5-0.9-1-1.1-1.8c-0.4-1.3-0.6-2.9-0.1-4.5c0.3-0.8,0.6-1.6,1.2-2.2c0.2-0.2,0.3-0.3,0.5-0.5s0.4-0.4,0.6-0.4
				c0.4-0.3,0.8-0.4,1.1-0.6c0.8-0.3,1.7-0.4,2.6-0.3c0.9,0.1,1.8,0.6,2.3,1.2c0.6,0.6,1,1.3,1.2,1.8c0.3,0.6,0.4,1.1,0.4,1.5
				s0.1,0.8,0.1,0.9c0,0.2,0,0.3,0,0.3L483.9,197.1z"/>
			<path class="pr21" d="M503.2,197c0,0,0-0.1,0-0.3s0-0.3,0.1-0.4c0-0.4-0.1-0.9-0.3-1.2c-0.1-0.2-0.3-0.3-0.4-0.4
				c-0.3-0.1-0.6-0.2-1.1-0.1c-0.2,0-0.4,0.1-0.6,0.2c-0.2,0.1-0.2,0.1-0.3,0.1c-0.1,0-0.2,0.1-0.3,0.2c-0.4,0.3-0.7,0.7-0.9,1.1
				c-0.5,0.9-0.7,2.2-0.6,3.3c0.1,0.5,0.3,1,0.6,1.5s0.6,0.8,1,1.1c0.8,0.6,1.6,0.7,2.2,0.8c0.3,0,0.5,0.1,0.7,0.1
				c0.2,0,0.3,0,0.3,0s-0.1,0-0.3,0.1c-0.1,0.1-0.4,0.1-0.7,0.1c-0.6,0.1-1.5,0.1-2.5-0.4c-0.5-0.2-1-0.6-1.5-1
				c-0.4-0.5-0.9-1-1.1-1.8c-0.4-1.3-0.6-2.9-0.1-4.5c0.3-0.8,0.6-1.6,1.2-2.2c0.2-0.2,0.3-0.3,0.5-0.5s0.4-0.4,0.6-0.4
				c0.4-0.3,0.8-0.4,1.1-0.6c0.8-0.3,1.7-0.4,2.6-0.3c0.9,0.1,1.8,0.6,2.3,1.2c0.6,0.6,1,1.3,1.2,1.8c0.3,0.6,0.4,1.1,0.4,1.5
				s0.1,0.8,0.1,0.9c0,0.2,0,0.3,0,0.3L503.2,197z"/>
			<path class="pr21" d="M522.6,197c0,0,0-0.1,0-0.3s0-0.3,0.1-0.4c0-0.4-0.1-0.9-0.3-1.2c-0.1-0.2-0.2-0.3-0.4-0.4
				c-0.3-0.1-0.6-0.2-1.1-0.1c-0.2,0-0.4,0.1-0.6,0.2c-0.2,0.1-0.2,0.1-0.3,0.1c-0.1,0-0.2,0.1-0.3,0.2c-0.4,0.3-0.7,0.7-0.9,1.1
				c-0.5,0.9-0.7,2.2-0.6,3.3c0.1,0.5,0.3,1,0.6,1.5s0.6,0.8,1,1.1c0.8,0.6,1.6,0.7,2.2,0.8c0.3,0,0.5,0.1,0.7,0.1
				c0.2,0,0.3,0,0.3,0s-0.1,0-0.3,0.1c-0.1,0.1-0.4,0.1-0.7,0.1c-0.6,0.1-1.5,0.1-2.5-0.4c-0.5-0.2-1-0.6-1.5-1
				c-0.4-0.5-0.9-1-1.1-1.8c-0.4-1.3-0.6-2.9-0.1-4.5c0.3-0.8,0.6-1.6,1.2-2.2c0.2-0.2,0.3-0.3,0.5-0.5c0.2-0.2,0.4-0.4,0.6-0.4
				c0.4-0.3,0.8-0.4,1.1-0.6c0.8-0.3,1.7-0.4,2.6-0.3c0.9,0.1,1.8,0.6,2.3,1.2c0.6,0.6,1,1.3,1.2,1.8c0.3,0.6,0.4,1.1,0.4,1.5
				c0.1,0.4,0.1,0.8,0.1,0.9c0,0.2,0,0.3,0,0.3L522.6,197z"/>
			<path class="pr21" d="M542,197c0,0,0-0.1,0-0.3s0-0.3,0.1-0.4c0-0.4-0.1-0.9-0.3-1.2c-0.1-0.2-0.3-0.3-0.4-0.4
				c-0.3-0.1-0.6-0.2-1.1-0.1c-0.2,0-0.4,0.1-0.6,0.2c-0.2,0.1-0.2,0.1-0.3,0.1c-0.1,0-0.2,0.1-0.3,0.2c-0.4,0.3-0.7,0.7-0.9,1.1
				c-0.5,0.9-0.7,2.2-0.6,3.3c0.1,0.5,0.3,1,0.6,1.5c0.3,0.4,0.6,0.8,1,1.1c0.8,0.6,1.6,0.7,2.2,0.8c0.3,0,0.5,0.1,0.7,0.1
				s0.3,0,0.3,0s-0.1,0-0.3,0.1c-0.1,0.1-0.4,0.1-0.7,0.1c-0.6,0.1-1.5,0.1-2.5-0.4c-0.5-0.2-1-0.6-1.5-1c-0.4-0.5-0.9-1-1.1-1.8
				c-0.4-1.3-0.6-2.9-0.1-4.5c0.3-0.8,0.6-1.6,1.2-2.2c0.2-0.2,0.3-0.3,0.5-0.5c0.2-0.2,0.4-0.4,0.6-0.4c0.4-0.3,0.8-0.4,1.1-0.6
				c0.8-0.3,1.7-0.4,2.6-0.3c0.9,0.1,1.8,0.6,2.3,1.2c0.6,0.6,1,1.3,1.2,1.8c0.3,0.6,0.4,1.1,0.4,1.5c0.1,0.4,0.1,0.8,0.1,0.9
				c0,0.2,0,0.3,0,0.3L542,197z"/>
			<path class="pr21" d="M561.4,197c0,0,0-0.1,0-0.3s0-0.3,0.1-0.4c0-0.4-0.1-0.9-0.3-1.2c-0.1-0.2-0.3-0.3-0.4-0.4
				c-0.3-0.1-0.6-0.2-1.1-0.1c-0.2,0-0.4,0.1-0.6,0.2c-0.2,0.1-0.2,0.1-0.3,0.1c-0.1,0-0.2,0.1-0.3,0.2c-0.4,0.3-0.7,0.7-0.9,1.1
				c-0.5,0.9-0.7,2.2-0.6,3.3c0.1,0.5,0.3,1,0.6,1.5c0.3,0.4,0.6,0.8,1,1.1c0.8,0.6,1.6,0.7,2.2,0.8c0.3,0,0.5,0.1,0.7,0.1
				s0.3,0,0.3,0s-0.1,0-0.3,0.1c-0.2,0.1-0.4,0.1-0.7,0.1c-0.6,0.1-1.5,0.1-2.5-0.4c-0.5-0.2-1-0.6-1.5-1c-0.4-0.5-0.9-1-1.1-1.8
				c-0.4-1.3-0.6-2.9-0.1-4.5c0.3-0.8,0.6-1.6,1.2-2.2c0.2-0.2,0.3-0.3,0.5-0.5c0.2-0.2,0.4-0.4,0.6-0.4c0.4-0.3,0.8-0.4,1.1-0.6
				c0.8-0.3,1.7-0.4,2.6-0.3c0.9,0.1,1.8,0.6,2.3,1.2c0.6,0.6,1,1.3,1.2,1.8c0.3,0.6,0.4,1.1,0.4,1.5s0.1,0.8,0.1,0.9
				c0,0.2,0,0.3,0,0.3L561.4,197z"/>
			<path class="pr21" d="M580.8,197c0,0,0-0.1,0-0.3s0-0.3,0.1-0.4c0-0.4-0.1-0.9-0.3-1.2c-0.1-0.2-0.2-0.3-0.4-0.4
				c-0.3-0.1-0.6-0.2-1.1-0.1c-0.2,0-0.4,0.1-0.6,0.2c-0.2,0.1-0.2,0.1-0.3,0.1c-0.1,0-0.2,0.1-0.3,0.2c-0.4,0.3-0.7,0.7-0.9,1.1
				c-0.5,0.9-0.7,2.2-0.6,3.3c0.1,0.5,0.3,1,0.6,1.5c0.3,0.4,0.6,0.8,1,1.1c0.8,0.6,1.6,0.7,2.2,0.8c0.3,0,0.5,0.1,0.7,0.1
				c0.2,0,0.3,0,0.3,0s-0.1,0-0.3,0.1c-0.1,0.1-0.4,0.1-0.7,0.1c-0.6,0.1-1.5,0.1-2.5-0.4c-0.5-0.2-1-0.6-1.5-1
				c-0.4-0.5-0.9-1-1.1-1.8c-0.4-1.3-0.6-2.9-0.1-4.5c0.3-0.8,0.6-1.6,1.2-2.2c0.2-0.2,0.3-0.3,0.5-0.5c0.2-0.2,0.4-0.4,0.6-0.4
				c0.4-0.3,0.8-0.4,1.1-0.6c0.8-0.3,1.7-0.4,2.6-0.3c0.9,0.1,1.8,0.6,2.3,1.2c0.6,0.6,1,1.3,1.2,1.8c0.3,0.6,0.4,1.1,0.4,1.5
				c0.1,0.4,0.1,0.8,0.1,0.9c0,0.2,0,0.3,0,0.3L580.8,197z"/>
			<path class="pr21" d="M600.1,197c0,0,0-0.1,0-0.3s0-0.3,0.1-0.4c0-0.4-0.1-0.9-0.3-1.2c-0.1-0.2-0.2-0.3-0.4-0.4
				c-0.3-0.1-0.6-0.2-1.1-0.1c-0.2,0-0.4,0.1-0.6,0.2c-0.2,0.1-0.2,0.1-0.3,0.1c-0.1,0-0.2,0.1-0.3,0.2c-0.4,0.3-0.7,0.7-0.9,1.1
				c-0.5,0.9-0.7,2.2-0.6,3.3c0.1,0.5,0.3,1,0.6,1.5s0.6,0.8,1,1.1c0.8,0.6,1.6,0.7,2.2,0.8c0.3,0,0.5,0.1,0.7,0.1
				c0.2,0,0.3,0,0.3,0s-0.1,0-0.3,0.1c-0.2,0.1-0.4,0.1-0.7,0.1c-0.6,0.1-1.5,0.1-2.5-0.4c-0.5-0.2-1-0.6-1.5-1
				c-0.4-0.5-0.9-1-1.1-1.8c-0.4-1.3-0.6-2.9-0.1-4.5c0.3-0.8,0.6-1.6,1.2-2.2c0.2-0.2,0.3-0.3,0.5-0.5s0.4-0.4,0.6-0.4
				c0.4-0.3,0.8-0.4,1.1-0.6c0.8-0.3,1.7-0.4,2.6-0.3c0.9,0.1,1.8,0.6,2.3,1.2c0.6,0.6,1,1.3,1.2,1.8c0.3,0.6,0.4,1.1,0.4,1.5
				c0.1,0.4,0.1,0.8,0.1,0.9c0,0.2,0,0.3,0,0.3L600.1,197z"/>
			<path class="pr21" d="M619.5,197c0,0,0-0.1,0-0.3s0-0.3,0.1-0.4c0-0.4-0.1-0.9-0.3-1.2c-0.1-0.2-0.3-0.3-0.4-0.4
				c-0.3-0.1-0.6-0.2-1.1-0.1c-0.2,0-0.4,0.1-0.6,0.2c-0.2,0.1-0.2,0.1-0.3,0.1c-0.1,0-0.2,0.1-0.3,0.2c-0.4,0.3-0.7,0.7-0.9,1.1
				c-0.5,0.9-0.7,2.2-0.6,3.3c0.1,0.5,0.3,1,0.6,1.5c0.3,0.4,0.6,0.8,1,1.1c0.8,0.6,1.6,0.7,2.2,0.8c0.3,0,0.5,0.1,0.7,0.1
				c0.2,0,0.3,0,0.3,0s-0.1,0-0.3,0.1c-0.1,0.1-0.4,0.1-0.7,0.1c-0.6,0.1-1.5,0.1-2.5-0.4c-0.5-0.2-1-0.6-1.5-1
				c-0.4-0.5-0.9-1-1.1-1.8c-0.4-1.3-0.6-2.9-0.1-4.5c0.3-0.8,0.6-1.6,1.2-2.2c0.2-0.2,0.3-0.3,0.5-0.5c0.2-0.2,0.4-0.4,0.6-0.4
				c0.4-0.3,0.8-0.4,1.1-0.6c0.8-0.3,1.7-0.4,2.6-0.3c0.9,0.1,1.8,0.6,2.3,1.2c0.6,0.6,1,1.3,1.2,1.8c0.3,0.6,0.4,1.1,0.4,1.5
				s0.1,0.8,0.1,0.9c0,0.2,0,0.3,0,0.3L619.5,197z"/>
		</g>
		<g>
			<g>
				<polygon class="pr22" points="500.5,249.4 482.7,248.8 483.2,233.8 501.3,234.1 				"/>
			</g>
			<polygon class="pr12" points="488.1,248 485.9,248 485.9,246.1 488.1,246.3 			"/>
			<polygon class="pr12" points="498.1,248.4 497.7,248.4 497.8,246.8 498.1,246.8 			"/>
			
				<rect x="497.7" y="247.5" transform="matrix(3.642574e-02 -0.9993 0.9993 3.642574e-02 232.886 736.8042)" class="pr12" width="1.6" height="0.3"/>
			
				<rect x="499.4" y="247.8" transform="matrix(3.406295e-02 -0.9994 0.9994 3.406295e-02 234.5258 739.1088)" class="pr12" width="0.4" height="0.9"/>
			<path class="pr12" d="M500.1,246.9v0.4c0,0.3-0.2,0.5-0.4,0.4l0,0c-0.3,0-0.4-0.3-0.4-0.5v-0.4L500.1,246.9z"/>
		</g>
		<g>
			<g>
				<polygon class="pr22" points="499,272 481.6,271.2 482,256.5 499.7,257.1 				"/>
			</g>
			<polygon class="pr12" points="486.8,270.7 484.5,270.7 484.6,268.9 486.9,269 			"/>
			<polygon class="pr12" points="496.8,271.1 496.5,271.1 496.5,269.5 496.9,269.5 			"/>
			
				<rect x="496.4" y="270.1" transform="matrix(3.635796e-02 -0.9993 0.9993 3.635796e-02 208.9988 757.3347)" class="pr12" width="1.6" height="0.3"/>
			<polygon class="pr12" points="497.9,271.1 497.9,270.7 498.8,270.8 498.8,271.2 			"/>
			<path class="pr12" d="M498.8,269.6v0.4c0,0.3-0.2,0.5-0.4,0.4l0,0c-0.3,0-0.4-0.3-0.4-0.5v-0.4L498.8,269.6z"/>
		</g>
		<g>
			<g>
				<polygon class="pr22" points="522.4,294.5 504.6,293.8 505.1,278.8 522.9,279.5 				"/>
			</g>
			<polygon class="pr12" points="510,293.1 507.7,293 507.8,291.2 510,291.3 			"/>
			<polygon class="pr12" points="520,293.5 519.6,293.5 519.7,291.8 520,291.8 			"/>
			
				<rect x="519.6" y="292.6" transform="matrix(3.529317e-02 -0.9994 0.9994 3.529317e-02 209.4785 802.4352)" class="pr12" width="1.6" height="0.3"/>
			<polygon class="pr12" points="521.1,293.5 521.1,293.1 522,293.2 522,293.5 			"/>
			<path class="pr12" d="M522,292v0.4c0,0.3-0.2,0.5-0.4,0.4l0,0c-0.3,0-0.4-0.3-0.4-0.5v-0.4L522,292z"/>
		</g>
		<g>
			<g>
				<polygon class="pr22" points="547.2,295.2 529.5,294.5 529.9,279.5 547.7,280.2 				"/>
			</g>
			<polygon class="pr12" points="534.8,293.8 532.6,293.7 532.6,291.9 534.9,292 			"/>
			<polygon class="pr12" points="544.8,294.2 544.5,294.1 544.6,292.5 544.9,292.5 			"/>
			
				<rect x="544.4" y="293.2" transform="matrix(3.455887e-02 -0.9994 0.9994 3.455887e-02 233.2315 828.121)" class="pr12" width="1.6" height="0.3"/>
			
				<rect x="546.2" y="293.6" transform="matrix(3.246464e-02 -0.9995 0.9995 3.246464e-02 234.7544 830.5347)" class="pr12" width="0.4" height="0.9"/>
			<path class="pr12" d="M546.8,292.6v0.4c0,0.3-0.2,0.5-0.4,0.5l0,0c-0.3,0-0.4-0.3-0.4-0.5v-0.4H546.8z"/>
		</g>
		<g>
			<g>
				<polygon class="pr22" points="572,295.4 554.2,294.8 554.7,279.8 572.4,280.4 				"/>
			</g>
			<polygon class="pr12" points="559.5,294 557.3,294 557.4,292.1 559.6,292.3 			"/>
			<polygon class="pr12" points="569.6,294.4 569.3,294.4 569.3,292.8 569.6,292.8 			"/>
			<polygon class="pr12" points="570.1,294.4 569.8,294.4 569.8,292.8 570.1,292.8 			"/>
			
				<rect x="570.9" y="293.8" transform="matrix(3.414220e-02 -0.9994 0.9994 3.414220e-02 257.549 854.9509)" class="pr12" width="0.4" height="0.9"/>
			<path class="pr12" d="M571.5,292.9v0.4c0,0.3-0.2,0.5-0.4,0.5l0,0c-0.3,0-0.4-0.3-0.4-0.5v-0.4H571.5z"/>
		</g>
		<g>
			<g>
				<polygon class="pr22" points="596.7,295.9 578.9,295.2 579.4,280.2 597.2,280.8 				"/>
			</g>
			<polygon class="pr12" points="584.2,294.5 582,294.4 582.1,292.6 584.3,292.7 			"/>
			<polygon class="pr12" points="594.3,294.9 593.9,294.9 594,293.2 594.3,293.2 			"/>
			
				<rect x="593.8" y="293.9" transform="matrix(3.430301e-02 -0.9994 0.9994 3.430301e-02 280.3396 878.3254)" class="pr12" width="1.6" height="0.3"/>
			
				<rect x="595.6" y="294.2" transform="matrix(3.106558e-02 -0.9995 0.9995 3.106558e-02 282.7537 881.0195)" class="pr12" width="0.4" height="0.9"/>
			<path class="pr12" d="M596.2,293.3v0.4c0,0.3-0.2,0.5-0.4,0.4l0,0c-0.3,0-0.4-0.3-0.4-0.5v-0.4L596.2,293.3z"/>
		</g>
		<g>
			<g>
				<polygon class="pr22" points="621.4,296.2 603.7,295.6 604.2,280.6 621.9,281.3 				"/>
			</g>
			<polygon class="pr12" points="609,294.9 606.8,294.8 606.8,293 609.1,293.1 			"/>
			<polygon class="pr12" points="619,295.2 618.7,295.2 618.8,293.6 619.1,293.6 			"/>
			
				<rect x="618.6" y="294.3" transform="matrix(3.257016e-02 -0.9995 0.9995 3.257016e-02 304.9245 903.9896)" class="pr12" width="1.6" height="0.3"/>
			<polygon class="pr12" points="620.1,295.3 620.1,294.9 621,294.9 621,295.3 			"/>
			<path class="pr12" d="M621,293.7v0.4c0,0.3-0.2,0.5-0.4,0.4l0,0c-0.3,0-0.4-0.3-0.4-0.5v-0.4L621,293.7z"/>
		</g>
		<g>
			<g>
				<polygon class="pr22" points="570.3,317.6 552.6,317 553,301.9 570.8,302.6 				"/>
			</g>
			<polygon class="pr12" points="557.9,316.2 555.7,316.1 555.8,314.4 558,314.4 			"/>
			<polygon class="pr12" points="567.9,316.6 567.6,316.6 567.7,314.9 568,315 			"/>
			
				<rect x="567.5" y="315.7" transform="matrix(3.721841e-02 -0.9993 0.9993 3.721841e-02 231.5945 872.0104)" class="pr12" width="1.6" height="0.3"/>
			<polygon class="pr12" points="569.1,316.6 569.1,316.3 570,316.3 569.9,316.6 			"/>
			<path class="pr12" d="M569.9,315.1v0.4c0,0.3-0.2,0.5-0.4,0.4l0,0c-0.3,0-0.4-0.3-0.4-0.5V315L569.9,315.1z"/>
		</g>
		<g>
			<g>
				<polygon class="pr22" points="595.1,317.9 577.3,317.3 577.8,302.2 595.5,302.9 				"/>
			</g>
			<polygon class="pr12" points="582.6,316.5 580.4,316.4 580.5,314.7 582.7,314.7 			"/>
			<polygon class="pr12" points="592.7,316.9 592.4,316.9 592.4,315.3 592.7,315.3 			"/>
			<polygon class="pr12" points="593.2,317 592.9,316.9 592.9,315.3 593.2,315.3 			"/>
			
				<rect x="594" y="316.3" transform="matrix(3.414220e-02 -0.9994 0.9994 3.414220e-02 257.3853 899.81)" class="pr12" width="0.4" height="0.9"/>
			<path class="pr12" d="M594.6,315.4v0.4c0,0.3-0.2,0.5-0.4,0.4l0,0c-0.3,0-0.4-0.3-0.4-0.5v-0.4L594.6,315.4z"/>
		</g>
		<g>
			<g>
				<polygon class="pr22" points="619.8,318.6 602.1,317.9 602.5,302.9 620.3,303.6 				"/>
			</g>
			<polygon class="pr12" points="607.4,317.2 605.2,317.1 605.2,315.3 607.5,315.4 			"/>
			<polygon class="pr12" points="617.4,317.6 617.1,317.5 617.2,315.9 617.5,315.9 			"/>
			<polygon class="pr12" points="618,317.6 617.7,317.6 617.7,315.9 618.1,315.9 			"/>
			<polygon class="pr12" points="618.6,317.6 618.6,317.2 619.4,317.3 619.4,317.6 			"/>
			<path class="pr12" d="M619.4,316.1v0.4c0,0.3-0.2,0.5-0.4,0.4l0,0c-0.3,0-0.4-0.3-0.4-0.5V316L619.4,316.1z"/>
		</g>
		<g>
			<g>
				<polygon class="pr22" points="524.8,250.1 507.1,249.5 507.6,234.4 525.8,235 				"/>
			</g>
			<polygon class="pr12" points="512.4,248.7 510.2,248.7 510.2,246.8 512.5,246.9 			"/>
			<polygon class="pr12" points="522.4,249.1 522.1,249.1 522.2,247.5 522.5,247.5 			"/>
			
				<rect x="522" y="248.2" transform="matrix(3.529317e-02 -0.9994 0.9994 3.529317e-02 256.2047 762.084)" class="pr12" width="1.6" height="0.3"/>
			<polygon class="pr12" points="523.6,249.2 523.6,248.7 524.4,248.8 524.4,249.2 			"/>
			<path class="pr12" d="M524.4,247.6v0.4c0,0.3-0.2,0.5-0.4,0.4l0,0c-0.3,0-0.4-0.3-0.4-0.5v-0.4L524.4,247.6z"/>
		</g>
		<g>
			<g>
				<polygon class="pr22" points="574.6,250.9 556.8,250.3 557.3,235.3 575.1,236 				"/>
			</g>
			<polygon class="pr12" points="562.2,249.5 560,249.5 560,247.7 562.3,247.8 			"/>
			<polygon class="pr12" points="572.2,249.9 571.9,249.9 571.9,248.3 572.3,248.3 			"/>
			<polygon class="pr12" points="572.7,249.9 572.4,249.9 572.5,248.3 572.8,248.3 			"/>
			
				<rect x="573.6" y="249.3" transform="matrix(3.408937e-02 -0.9994 0.9994 3.408937e-02 304.5945 814.6588)" class="pr12" width="0.4" height="0.9"/>
			<path class="pr12" d="M574.2,248.4v0.4c0,0.3-0.2,0.5-0.4,0.4l0,0c-0.3,0-0.4-0.3-0.4-0.5v-0.4L574.2,248.4z"/>
		</g>
		<g>
			<g>
				<polygon class="pr22" points="573,273.1 555.2,272.4 555.7,257.5 573.8,257.9 				"/>
			</g>
			<polygon class="pr12" points="560.6,271.8 558.3,271.6 558.4,269.9 560.6,269.9 			"/>
			<polygon class="pr12" points="570.6,272.1 570.3,272.1 570.3,270.5 570.7,270.5 			"/>
			<polygon class="pr12" points="571.2,272.1 570.8,272.1 570.8,270.5 571.2,270.5 			"/>
			<polygon class="pr12" points="571.7,272.1 571.7,271.8 572.5,271.8 572.5,272.2 			"/>
			<path class="pr12" d="M572.5,270.6v0.4c0,0.3-0.2,0.5-0.4,0.4l0,0c-0.3,0-0.4-0.3-0.4-0.5v-0.4L572.5,270.6z"/>
		</g>
		<g>
			<g>
				<polygon class="pr22" points="597.9,273.6 580.1,273 580.6,257.9 598.4,258.6 				"/>
			</g>
			<polygon class="pr12" points="585.5,272.2 583.2,272.1 583.3,270.3 585.5,270.4 			"/>
			
				<rect x="594.5" y="271.6" transform="matrix(3.728765e-02 -0.9993 0.9993 3.728765e-02 301.5388 856.5051)" class="pr12" width="1.6" height="0.3"/>
			
				<rect x="595.1" y="271.7" transform="matrix(3.814620e-02 -0.9993 0.9993 3.814620e-02 301.5253 856.8955)" class="pr12" width="1.6" height="0.3"/>
			
				<rect x="596.8" y="272" transform="matrix(3.721268e-02 -0.9993 0.9993 3.721268e-02 302.5479 858.8799)" class="pr12" width="0.4" height="0.9"/>
			<path class="pr12" d="M597.4,271.1v0.4c0,0.3-0.2,0.5-0.4,0.5l0,0c-0.3,0-0.4-0.3-0.4-0.5v-0.4H597.4z"/>
		</g>
		<g>
			<g>
				<polygon class="pr22" points="623.7,251.7 605.9,251.1 606.4,236.1 624.1,236.8 				"/>
			</g>
			<polygon class="pr12" points="611.2,250.4 609,250.3 609.1,248.5 611.3,248.6 			"/>
			<polygon class="pr12" points="621.3,250.7 621,250.7 621,249.1 621.3,249.2 			"/>
			
				<rect x="620.9" y="249.8" transform="matrix(3.455887e-02 -0.9994 0.9994 3.455887e-02 350.3748 862.6517)" class="pr12" width="1.6" height="0.3"/>
			
				<rect x="622.6" y="250.1" transform="matrix(3.099344e-02 -0.9995 0.9995 3.099344e-02 353.0739 865.3157)" class="pr12" width="0.4" height="0.9"/>
			<path class="pr12" d="M623.2,249.2v0.4c0,0.3-0.2,0.5-0.4,0.5l0,0c-0.3,0-0.4-0.3-0.4-0.5v-0.4H623.2z"/>
		</g>
		<g>
			<g>
				<path class="pr18" d="M488.6,222.2l-4.3-0.1l-1,2.1l-2.3-0.1l5.2-10.5l2.1,0.1l3.1,10.7l-2.3-0.1L488.6,222.2z M488.1,220.4
					l-1.1-4.2l0,0l-1.9,4.2L488.1,220.4z"/>
			</g>
			<g>
				<path class="pr18" d="M499.1,217.3c0.4,0.1,0.7,0.3,1,0.6c0.3,0.3,0.5,0.5,0.7,0.8c0.2,0.3,0.3,0.7,0.4,1.1
					c0.1,0.4,0.1,0.8,0,1.3c-0.1,0.6-0.2,1.1-0.4,1.5c-0.2,0.4-0.6,0.9-0.9,1.2c-0.4,0.3-0.7,0.6-1.2,0.8c-0.5,0.2-0.9,0.3-1.5,0.3
					c-0.9,0-1.7-0.3-2.2-1l0,0l-0.4,3.8l-2.1-0.1l1.1-10.3l2.1,0.1l-0.1,0.8l0,0c0.6-0.6,1.4-0.9,2.4-0.9
					C498.4,217.1,498.8,217.2,499.1,217.3z M498.4,222.3c0.4-0.4,0.6-0.8,0.7-1.5c0.1-0.6-0.1-1.1-0.4-1.5c-0.3-0.4-0.8-0.6-1.3-0.6
					c-0.3,0-0.6,0.1-0.8,0.1c-0.3,0.1-0.5,0.3-0.7,0.4c-0.2,0.2-0.4,0.4-0.5,0.6c-0.1,0.3-0.2,0.5-0.2,0.8c-0.1,0.4,0,0.8,0.1,1.1
					s0.4,0.6,0.6,0.7c0.3,0.2,0.6,0.3,1,0.3C497.5,222.9,498,222.7,498.4,222.3z"/>
			</g>
			<g>
				<path class="pr18" d="M507.9,217.3l-0.2,2.1c-0.2,0-0.4,0-0.6-0.1c-0.6,0-1.1,0.1-1.5,0.5c-0.4,0.4-0.6,0.8-0.7,1.4l-0.3,3.4
					l-2.1-0.1l0.8-7.3l2.1,0.1l-0.1,1.1l0,0c0.3-0.4,0.7-0.7,1.1-0.9c0.4-0.2,0.9-0.3,1.3-0.3C507.8,217.3,507.8,217.3,507.9,217.3z
					"/>
			</g>
			<g>
				<polygon class="pr18" points="510.5,219.2 515.3,219.3 515.1,221.1 510.3,221.1 				"/>
			</g>
			<g>
				<polygon class="pr18" points="533.4,214.6 532.4,225.2 530.1,225.2 530.8,218.5 530.8,218.5 527.6,223.1 526.2,223.1 
					523.9,218.4 523.9,218.4 523.2,225 521,225 522.1,214.3 524.3,214.4 527.2,220.5 527.2,220.5 531.2,214.5 				"/>
			</g>
			<g>
				<path class="pr18" d="M543,218.1l-0.8,7.3l-2-0.1l0.1-0.9h-0.1c-0.6,0.6-1.4,1-2.4,0.9c-0.5,0-1-0.1-1.5-0.3
					c-0.4-0.2-0.8-0.4-1.1-0.8c-0.3-0.3-0.5-0.8-0.7-1.2c-0.1-0.5-0.2-1-0.1-1.5c0.1-0.6,0.2-1.1,0.4-1.5s0.6-0.9,0.9-1.2
					c0.4-0.3,0.7-0.6,1.2-0.8s0.9-0.3,1.4-0.3c0.9,0,1.6,0.4,2.2,1l0,0l0.1-0.8H543z M539.9,223.1c0.4-0.4,0.7-0.8,0.7-1.5
					c0.1-0.6-0.1-1.1-0.4-1.5c-0.3-0.4-0.8-0.6-1.3-0.6c-0.6,0-1.1,0.2-1.5,0.6c-0.4,0.4-0.7,0.9-0.7,1.5c-0.1,0.6,0.1,1.1,0.4,1.5
					c0.3,0.4,0.8,0.6,1.4,0.6C539,223.7,539.5,223.5,539.9,223.1z"/>
			</g>
			<g>
				<path class="pr18" d="M549.6,218.1l-0.2,2.1c-0.2,0-0.4,0-0.6-0.1c-0.6,0-1.1,0.1-1.5,0.5c-0.4,0.4-0.6,0.8-0.7,1.4l-0.3,3.4
					l-2.1-0.1l0.8-7.3l2.1,0.1l-0.1,1.1l0,0c0.3-0.4,0.7-0.7,1.1-0.9c0.4-0.2,0.9-0.3,1.3-0.3C549.5,218.1,549.5,218.1,549.6,218.1z
					"/>
			</g>
		</g>
	</g>
</g>
<g>
	<polygon class="pr23" points="74.7,360.1 73.1,362.1 68.4,359.6 70.1,357.6 	"/>
	<polygon class="pr11" points="74.7,360.1 71.5,355.9 66.8,353.5 70.1,357.6 	"/>
	<polygon class="pr24" points="70.1,357.6 66.8,353.5 65.2,355.3 68.4,359.6 	"/>
</g>
<g>
	<g>
		<linearGradient id="SVGPRID_12_" gradientUnits="userSpaceOnUse" x1="274.4783" y1="384.3817" x2="279.0984" y2="410.5837">
			<stop  offset="0" style="stop-color:#DFE3ED;stop-opacity:0"/>
			<stop  offset="0.3175" style="stop-color:#DFE3ED;stop-opacity:0.32"/>
			<stop  offset="0.5913" style="stop-color:#DFE3ED;stop-opacity:0.59"/>
			<stop  offset="0.8481" style="stop-color:#DFE3ED;stop-opacity:0.85"/>
			<stop  offset="1" style="stop-color:#DFE3ED"/>
		</linearGradient>
		<polygon class="pr25" points="327.6,402 311.1,403.7 225.9,392.9 270.8,393 		"/>
		<linearGradient id="SVGPRID_13_" gradientUnits="userSpaceOnUse" x1="294.6161" y1="387.0517" x2="298.4371" y2="408.7216">
			<stop  offset="0" style="stop-color:#DFE3ED;stop-opacity:0"/>
			<stop  offset="0.3175" style="stop-color:#DFE3ED;stop-opacity:0.32"/>
			<stop  offset="0.5913" style="stop-color:#DFE3ED;stop-opacity:0.59"/>
			<stop  offset="0.8481" style="stop-color:#DFE3ED;stop-opacity:0.85"/>
			<stop  offset="1" style="stop-color:#DFE3ED"/>
		</linearGradient>
		<polygon class="pr26" points="331.9,402 322.3,404.5 261,393 302.4,393 		"/>
	</g>
	<g>
		<linearGradient id="SVGPRID_14_" gradientUnits="userSpaceOnUse" x1="139.6678" y1="384.3817" x2="144.2879" y2="410.5837">
			<stop  offset="0" style="stop-color:#DFE3ED;stop-opacity:0"/>
			<stop  offset="0.3175" style="stop-color:#DFE3ED;stop-opacity:0.32"/>
			<stop  offset="0.5913" style="stop-color:#DFE3ED;stop-opacity:0.59"/>
			<stop  offset="0.8481" style="stop-color:#DFE3ED;stop-opacity:0.85"/>
			<stop  offset="1" style="stop-color:#DFE3ED"/>
		</linearGradient>
		<polygon class="pr27" points="192.8,402 176.3,403.7 91.1,392.9 136,393 		"/>
		<linearGradient id="SVGPRID_15_" gradientUnits="userSpaceOnUse" x1="159.8056" y1="387.0517" x2="163.6266" y2="408.7216">
			<stop  offset="0" style="stop-color:#DFE3ED;stop-opacity:0"/>
			<stop  offset="0.3175" style="stop-color:#DFE3ED;stop-opacity:0.32"/>
			<stop  offset="0.5913" style="stop-color:#DFE3ED;stop-opacity:0.59"/>
			<stop  offset="0.8481" style="stop-color:#DFE3ED;stop-opacity:0.85"/>
			<stop  offset="1" style="stop-color:#DFE3ED"/>
		</linearGradient>
		<polygon class="pr28" points="197.1,402 187.5,404.5 126.2,393 167.6,393 		"/>
	</g>
	<linearGradient id="SVGPRID_16_" gradientUnits="userSpaceOnUse" x1="389.5769" y1="429.9599" x2="368.2137" y2="371.265">
		<stop  offset="0" style="stop-color:#DFE3ED;stop-opacity:0"/>
		<stop  offset="1" style="stop-color:#DFE3ED"/>
	</linearGradient>
	<polygon class="pr29" points="459.5,404.5 379.9,392.9 338.8,394.7 298.3,396.7 306.9,402.1 314.2,404.1 321.4,404.5 	"/>
	<g>
		<polygon class="pr30" points="305.9,305.8 316.1,297.4 318.9,300.3 318.9,304 307.1,313.4 		"/>
		<g>
			<polygon class="pr31" points="353.4,229.9 437.6,229.9 442.9,232.6 442.9,234.4 353.4,239.2 			"/>
			<rect x="353.4" y="171" class="pr11" width="84.2" height="59"/>
			<rect x="368.1" y="219.2" class="pr12" width="10.6" height="7"/>
			<rect x="424.7" y="220" class="pr12" width="1.6" height="6.4"/>
			<rect x="427.2" y="220" class="pr12" width="1.6" height="6.4"/>
			<rect x="431.5" y="224.7" class="pr12" width="4.1" height="1.6"/>
			<path class="pr12" d="M435.3,220v1.6c0,1.1-0.8,1.9-1.9,1.9l0,0c-1.1,0-1.9-0.8-1.9-1.9V220H435.3z"/>
		</g>
		<path class="pr32" d="M223.2,260.2c0,0,7.3,7,17.1,6.4l18.2-2.4l-1.2,4.2c0,0-19.5,5.5-21.7,5.5s-4.6-1.4-7.4-2.8
			c-2.8-1.6-4.4-4.5-4.4-4.5L223.2,260.2z"/>
		<polygon class="pr31" points="330.5,178.1 323.1,178.1 323.1,285 315.9,285 315.9,304.7 330.9,304.7 330.9,344.3 341,354.2 
			341,170.6 331.3,170.6 331.3,178.1 		"/>
		<rect x="331.2" y="170.6" class="pr33" width="9.8" height="180.2"/>
		<path class="pr34" d="M267.8,340c0,0-0.7,2.4,1.1,3.2l5.2-2.5l-2.1-2.1L267.8,340z"/>
		<path class="pr35" d="M229.5,348.5H253c0,0,12.6,1.1,16.5-6l-0.3,10.9V366h-41.4v-17.2L229.5,348.5z"/>
		<polygon class="pr36" points="230.1,362.4 259.6,362.4 259.6,371.5 229.5,371.5 225.8,371.5 225.8,363.2 		"/>
		<path class="pr36" d="M261.4,285c0,0,9.1,15.4,10.3,20c0,0,1.9,5.4,1.9,15.8v15.1l32.3-11.5l-8.1-30.7h-7.5c0,0-4.8-8.3-12.4-10.2
			l-4.5,2.8l-5-8.1l-8.6,4.4L261.4,285z"/>
		<polygon class="pr37" points="263.6,272.3 265.8,276.1 268.6,275.2 265.9,270.5 		"/>
		<path class="pr38" d="M267,269.6c0,1.9-1.5,3.4-3.4,3.4c-1.9,0-3.4-1.6-3.4-3.4c0-1.9,1.5-3.4,3.4-3.4
			C265.5,266.2,267,267.6,267,269.6z"/>
		<path class="pr32" d="M229.5,303.5l8.8-4.9c0,0,19.6-3.3,22.9,7l11,33l-4.9,1.6l-15.2-30.3c0,0-0.7-1.1-3.4-0.3l-26.3,8.6
			c0,0-1.1,0.3-2.3,0.3c-1.7-0.1-3.8-0.8-4.8-3.6L229.5,303.5z"/>
		<path class="pr39" d="M207.6,315.2v4.2c0,0-1.2,7.4,7.4,7.4h15.9c0,0,5.6-0.8,7.5-4.1c0,0,2-1.6,2.9-7L207.6,315.2z"/>
		<path class="pr40" d="M151.8,385.3c0,0,2.3,7.7,11.3,7.7h81h52.6h34l0.3-54.5H310l-10.9,2.3l-10.1,8.9l-20.7,35.6h-44.9h-6.1h-1.9
			v-31.2h-63.5L151.8,385.3z"/>
		<path class="pr36" d="M350.5,373c0,17.3-14,31.5-31.5,31.5c-17.3,0-31.5-14-31.5-31.5c0-17.3,14-31.5,31.5-31.5
			S350.5,355.7,350.5,373z"/>
		<path class="pr33" d="M323.8,329.6v-4.3c0-0.9-0.7-1.6-1.6-1.6h-40c-1.4,0-2.8,0.8-3.5,2l-20.2,36.5c-2.6,7.1-9,7-9,7h-14
			c-5.7,0-5.7-7.1-5.7-7.1l-0.4-29.9c0-8.7-8.6-9.7-8.6-9.7l-24.4-3.2l-1.6-7c-1.5-9.1-14-10.3-14-10.3c-15.2-2.9-25.2-3.4-25.2-3.4
			c-17.7,0.7-18,18.8-18,18.8l-0.5,53.2c-0.7,8.7,6,11.4,6,11.4l17.2,6.6v-34h42.8c0,0,8.3-0.3,8.3,8.3v25.3h57.3l17.6-31.2
			c0,0,9.4-18.8,36.5-18.4l8.2-0.1v-9.1L323.8,329.6z"/>
		<g>
			<circle class="pr41" cx="319.2" cy="373" r="21.7"/>
		</g>
		<g>
			<path class="pr40" d="M151.8,319h-14.2v2.6h14.2c0.7,0,1.3-0.5,1.3-1.3S152.5,319,151.8,319z"/>
			<path class="pr40" d="M151.8,324.8h-14.2v2.6h14.2c0.7,0,1.3-0.5,1.3-1.3S152.5,324.8,151.8,324.8z"/>
			<path class="pr40" d="M151.8,330.6h-14.2v2.6h14.2c0.7,0,1.3-0.5,1.3-1.3S152.5,330.6,151.8,330.6z"/>
			<path class="pr40" d="M151.8,336.3h-14.2v2.6h14.2c0.7,0,1.3-0.5,1.3-1.3S152.5,336.3,151.8,336.3z"/>
		</g>
		<path class="pr42" d="M228,239.1c0,0,0.1,3.2,0.2,3.3c0.1,0.1,1.6,3.5,1.5,3.8c-0.2,0.4-1.5,0.6-1.6,1.1c-0.1,0.5-0.1,4.8-0.1,4.8
			s0.1,0.9-2.1,1.2c-0.5,0-1.1,0.1-1.8,0.2c0,0-2.9,2.2-3.6,5.1l-6.1-3c0,0,1.3-3.1,0.3-5.7l0.4-5.3l-3.8-3.2l9.9-3.1L228,239.1z"/>
		<path class="pr43" d="M220.9,257.9l-6.6-2.5c0,0,1.3-3.1,0.3-5.7c0,0,0.6,2.6,6.4,3.6c0,0,0.6,0.2,3.1,0c0,0-3.3,2.7-3,4.4
			L220.9,257.9z"/>
		<path class="pr32" d="M205.7,280.3c0,0-3.9-10.8-1.1-18.2c1.4-3.6,5.1-6.7,10.5-6.7c0,0,9.6,2.1,12,6.9l6.3,14
			c0,0,1.2,2.3,2.4,2.3l19.3,2.1l-1.2,3.9l-17.6,0.8c0,0-2.3,0.4-4.9-0.2c-1.7-0.4-3.1-1.5-4.6-3.7l-2.5-4.8c0,0,2.3,3.4,4.2,20.9
			l-16.9,6.4C211.7,304,207.8,294.5,205.7,280.3z"/>
		<path class="pr44" d="M228.5,297.5l19.1,0.7c0,0,10.6,0.4,10.6,11.3l0.6,34.7h-7.1l-3.6-33.6c0,0-0.3-1.3-3.2-1.3h-27.7
			c0,0-1.1,0-2.1-0.5c-1.6-0.7-3.4-2-3.4-4.8L228.5,297.5z"/>
		<path class="pr34" d="M252.7,344.1c0,0-1.2,1.6-0.7,4.4c0,0,11.3,1.2,14.2-2.6c0,0-2-3.2-6.1-1.1c0,0-1.4,0.3-2.2-0.6H252.7
			L252.7,344.1z"/>
		<path class="pr36" d="M205.6,273.3c0,0-1-15.4-6.3-14.2l-3.8,0.9c0,0-2.9,1.3-2,5.7l6,36.1c0,0,2.4,8.9,4.5,9.3
			c0,0,0.7,5.8,5.4,6.1h32.7c0,0,4.2-0.1,4.2-4.2v-3.7l-27.9-2.5c-1.8-0.2-3.3-1.5-3.6-3.3l-5-14.7L205.6,273.3z"/>
		<path class="pr36" d="M249.7,285l25.8-15.2c0,0,2.3-1.2,2.9,1.3c0,0,0.5,1.6-1.9,2.5l-23.8,14.3c0,0-2,1.5-3.2,0
			C249.8,287.9,248.2,286.2,249.7,285z"/>
		<path class="pr43" d="M258.3,264.3c0.6-0.2,1.4-0.4,2.1-0.6c0.6-0.1,1.3-0.1,1.9,0c3.2,0.8,3.4,1.5,4.2,3.5v0.4l-5.6,2
			c0,0-2.8,0.9-3.8-1.1c-0.1,0-0.3-1-0.3-2.1C256.7,265.5,257.3,264.6,258.3,264.3z"/>
		<g>
			<path class="pr32" d="M287.8,268.8c-2.8,0-5.3-1.9-5.9-4.5l-7.5-27.2c-0.4-1.6-0.3-3.3,0.5-4.8c0.8-1.5,2.1-2.5,3.7-2.9l0.8,3
				c-0.8,0.3-1.5,0.8-1.9,1.5c-0.4,0.7-0.5,1.6-0.3,2.4l7.5,27.2c0.4,1.6,2.1,2.7,3.8,2.1l0.8,3C289,268.7,288.4,268.8,287.8,268.8z
				"/>
		</g>
		<path class="pr35" d="M315.9,288.8H330c0,0,3.8-0.1,3.8,3.8v4c0,0,0.1,3.8-3.8,3.8h-14L315.9,288.8z"/>
		<rect x="341" y="187.9" class="pr30" width="5.7" height="87.8"/>
		<g>
			<polygon class="pr40" points="330.8,313.5 327,317.7 330.8,321.3 327,325.5 331.3,329.7 331.3,321.9 331.3,320.7 331.3,314.1 
				331.3,312.9 331.3,305.1 327,309.9 			"/>
			<polygon class="pr40" points="331.3,285.4 331.3,276.4 327,281.1 			"/>
			<polygon class="pr40" points="331.3,267.3 327,272 331.3,276.2 331.3,267.4 331.3,267.2 331.3,258.4 327,263.1 			"/>
			<polygon class="pr40" points="331.3,258.4 331.3,249.5 327,254.1 			"/>
			<polygon class="pr40" points="331.3,249.2 331.3,240.4 327,245 			"/>
			<polygon class="pr40" points="331.3,240.4 331.3,231.5 327,236.1 			"/>
			<polygon class="pr40" points="331.3,222.6 327,227.3 331.3,231.5 331.3,222.6 331.3,222.5 331.3,213.8 327,218.4 			"/>
			<polygon class="pr40" points="327,182.9 331.3,187.1 327,191.8 331.3,196 327,200.7 331.3,204.8 327,209.5 331.3,213.8 
				331.3,204.9 331.3,204.8 331.3,196 331.3,195.9 331.3,187.1 331.3,187 331.3,178.1 			"/>
		</g>
		<rect x="346.7" y="153.5" class="pr33" width="7.1" height="90.1"/>
		<path class="pr36" d="M210.2,244.7c0,0,1.5,7.7,4.3,8.3c0,0,2.3,0.4,3-1.6c0,0,2.4-3,1-3.9c-0.8-0.5-1.3-3.8,0.2-4.9
			c0,0,2-1.2,2.8,1.3v2.9c0,0,2.4-0.7,2-1.6l0.3-2.3c0,0,3.4-1.2,4.3-3.9c0,0-8.4-2.8-9.6-2.8s-6,0.8-6.6,1.3
			c-0.6,0.5-1.9,1.1-2.1,1.6C209.6,239.6,209.6,242.2,210.2,244.7z"/>
		<polygon class="pr36" points="209.7,240.1 210,244.7 219.3,239.6 215.8,238 		"/>
		<path class="pr32" d="M208.5,238c0,1.4,1.1,2.5,2.4,2.4l22.7-2v-1c0,0-3.1-0.4-4.1-2.8s-4.2-8.5-12.3-7.2
			C217.3,227.6,208.7,229.5,208.5,238z"/>
		<path class="pr40" d="M259.3,388.4l19.7-36.7c0,0,10.5-17.3,28.3-20.7c2.1-0.4,6.4-0.8,8.7-0.8l15.2-0.1v3.8h-16
			c0,0-15.4-0.1-29.5,15.8c0,0-1.9,2.5-4,6.2l-17.6,32.4L259.3,388.4z"/>
		<path class="pr36" d="M209.8,381.3c0,12.8-10.3,23.2-23.2,23.2s-23.2-10.3-23.2-23.2c0-12.8,10.3-23.2,23.2-23.2
			C199.4,358.2,209.8,368.5,209.8,381.3z"/>
		<g>
			<circle class="pr41" cx="186.7" cy="381.3" r="15.8"/>
		</g>
		<g>
			<circle class="pr45" cx="186.7" cy="381.3" r="13.2"/>
		</g>
		<circle class="pr36" cx="186.7" cy="381.3" r="9.7"/>
		<g>
			<path class="pr46" d="M189,381.3c0,1.5-1.2,2.5-2.5,2.5c-1.5,0-2.5-1.2-2.5-2.5c0-1.5,1.2-2.5,2.5-2.5
				C187.8,378.8,189,380,189,381.3z"/>
		</g>
		<g>
			<circle class="pr46" cx="180.4" cy="381.7" r="1.6"/>
		</g>
		<g>
			<path class="pr46" d="M191.7,375.6c0,0.9-0.7,1.6-1.6,1.6s-1.6-0.7-1.6-1.6s0.7-1.6,1.6-1.6C191,374.1,191.7,374.9,191.7,375.6z"
				/>
		</g>
		<g>
			<path class="pr46" d="M191.4,386.9c0,0.9-0.7,1.6-1.6,1.6c-0.9,0-1.6-0.7-1.6-1.6s0.7-1.6,1.6-1.6
				C190.8,385.4,191.4,386.1,191.4,386.9z"/>
		</g>
		<path class="pr32" d="M177.4,300.6l10-94.5c0,0,0.8-4.2-5-4.2v-7l104.3-0.1c0,0-4.2,10.5-4.4,14.2c-0.1,3.7,0.1,5.7,0.5,6.9
			l29,108l-7.3,0.8l-29.8-111.5c0,0-2.6-10.9-12-10.9l-62.2-0.7c0,0-5.7,0.1-5.8,5.8l-10.6,96.5l-6.8-2.3L177.4,300.6z"/>
		<g>
			<circle class="pr45" cx="319.3" cy="372.9" r="18"/>
		</g>
		<g>
			<path class="pr41" d="M332.7,371.8c-0.3-4.4-2.6-8.1-6.1-10.2c-2.1-1.3-4.5-2.1-7.1-2.1c-0.4,0-0.8,0-1.3,0
				c-4.1,0.4-7.7,2.6-9.8,5.8c-1.5,2.1-2.3,4.6-2.3,7.4c0,0.4,0,0.7,0,0.9c0.3,4.1,2.5,7.7,5.7,9.9c0.9,0.7,2,1.2,3,1.6
				c0.8,0.3,1.6,0.5,2.5,0.7c0.7,0.1,1.5,0.1,2.1,0.1c0.3,0,0.5,0,0.8,0c4.2-0.3,8.1-2.5,10.3-5.8c1.5-2.1,2.3-4.6,2.3-7.4
				C332.7,372.5,332.7,372.2,332.7,371.8z"/>
		</g>
		<path class="pr36" d="M330.4,372.9c0,6.1-5,11.1-11.1,11.1s-11.1-5-11.1-11.1s5-11.1,11.1-11.1
			C325.5,361.8,330.4,366.6,330.4,372.9z"/>
		<g>
			<g>
				<circle class="pr46" cx="316" cy="366.4" r="2.1"/>
			</g>
			<g>
				<circle class="pr46" cx="323.1" cy="366.6" r="2.1"/>
			</g>
			<g>
				<circle class="pr46" cx="326.7" cy="372.5" r="2.1"/>
			</g>
			<g>
				<path class="pr46" d="M325.6,379.1c0,1.2-0.9,2.1-2.1,2.1c-1.2,0-2.1-0.9-2.1-2.1c0-1.2,0.9-2.1,2.1-2.1
					C324.6,376.8,325.6,377.9,325.6,379.1z"/>
			</g>
			<g>
				<circle class="pr46" cx="316.1" cy="379" r="2.1"/>
			</g>
			<g>
				<circle class="pr46" cx="312.4" cy="372.9" r="2.1"/>
			</g>
		</g>
		<path class="pr43" d="M253.6,281.6c0,0,0.9-1.4,2.8-1.4c2.6,0.3,3.6-0.8,4.7,0.5c1.2,1.2,0.8,1.8-0.2,2.8
			c-1.1,1.1-4.4,3.1-4.4,0.3c0,0-2,0.9-2.4,0.5C253.6,283.9,252.8,283,253.6,281.6z"/>
	</g>
</g>
<linearGradient id="SVGPRID_17_" gradientUnits="userSpaceOnUse" x1="1325.8959" y1="378.9728" x2="1325.8959" y2="425.0032" gradientTransform="matrix(-1 0 0 -1 1860.14 476.8)">
	<stop  offset="0" style="stop-color:#DFE3ED;stop-opacity:0"/>
	<stop  offset="0.3175" style="stop-color:#DFE3ED;stop-opacity:0.32"/>
	<stop  offset="0.5913" style="stop-color:#DFE3ED;stop-opacity:0.59"/>
	<stop  offset="0.8481" style="stop-color:#DFE3ED;stop-opacity:0.85"/>
	<stop  offset="1" style="stop-color:#DFE3ED"/>
</linearGradient>
<path class="pr47" d="M604.8,97.8H451.3h-2c-6.5-1.7-6.6-4.7-6.8-6.8c-0.4-4.5,6.3-8,6.3-8c4.4-2,8.6-4.2,12.7-6.7
	c11-7.3,15.4-13.7,15.4-13.8c25.1-23.9,43.5-0.2,43.5-0.2c7.5,10,16.9,7,16.9,7c29.8-8.8,40.8,4.8,46.2,8.6
	c5.4,3.8,23.2,5.7,23.2,5.7s18.8,1.7,19.4,8.9c0,0,1.1,5.4-13.5,5.4H604.8z"/>
<linearGradient id="Path-72-Copy-5_2_" gradientUnits="userSpaceOnUse" x1="371.6307" y1="144.9009" x2="371.6307" y2="108.0594">
	<stop  offset="0" style="stop-color:#DFE3ED;stop-opacity:0"/>
	<stop  offset="0.3175" style="stop-color:#DFE3ED;stop-opacity:0.32"/>
	<stop  offset="0.5913" style="stop-color:#DFE3ED;stop-opacity:0.59"/>
	<stop  offset="0.8481" style="stop-color:#DFE3ED;stop-opacity:0.85"/>
	<stop  offset="1" style="stop-color:#DFE3ED"/>
</linearGradient>
<path id="Path-72-Copy-5_1_" class="pr48" d="M309.3,136.8c9.2-5.3,8.4-8.5,14.1-9.3s7.3,3.2,16.1,1.6s8.6-21.4,34-21
	c25.3,0.3,24.4,25.4,32.1,25.4c7.7,0,7.4-5.9,19-5.9s16.7,17.4,41.4,17.4H277.4C292.5,143,303.2,140.3,309.3,136.8z"/>
<g>
	<linearGradient id="SVGPRID_18_" gradientUnits="userSpaceOnUse" x1="97.0127" y1="358.3983" x2="98.2405" y2="365.3611">
		<stop  offset="0" style="stop-color:#DFE3ED;stop-opacity:0"/>
		<stop  offset="0.3175" style="stop-color:#DFE3ED;stop-opacity:0.32"/>
		<stop  offset="0.5913" style="stop-color:#DFE3ED;stop-opacity:0.59"/>
		<stop  offset="0.8481" style="stop-color:#DFE3ED;stop-opacity:0.85"/>
		<stop  offset="1" style="stop-color:#DFE3ED"/>
	</linearGradient>
	<polygon class="pr49" points="107.9,362.2 104.5,364.3 87.2,360.4 97.5,358.3 105.7,360.4 	"/>
	<linearGradient id="SVGPRID_19_" gradientUnits="userSpaceOnUse" x1="44.8083" y1="353.3363" x2="48.2866" y2="373.0627">
		<stop  offset="0" style="stop-color:#DFE3ED;stop-opacity:0"/>
		<stop  offset="0.3175" style="stop-color:#DFE3ED;stop-opacity:0.32"/>
		<stop  offset="0.5913" style="stop-color:#DFE3ED;stop-opacity:0.59"/>
		<stop  offset="0.8481" style="stop-color:#DFE3ED;stop-opacity:0.85"/>
		<stop  offset="1" style="stop-color:#DFE3ED"/>
	</linearGradient>
	<polygon class="pr50" points="75.6,367.7 69.1,369.4 17.4,358.2 44.3,354.7 73.5,358.2 	"/>
	<polygon class="pr51" points="49.3,346.9 69.1,354 69.5,353.9 68.6,343 	"/>
	<g>
		<polygon class="pr11" points="49.3,346.9 68.6,353.8 68.6,343 		"/>
		<polygon class="pr11" points="69.5,353.9 68.6,343 68.6,353.8 69.1,354 		"/>
	</g>
	<polygon class="pr23" points="89.3,349.3 68.6,343.1 68.6,343.1 68.6,353.6 69.1,353.9 	"/>
	<g>
		<polygon class="pr52" points="56.2,349.4 63.9,347 68,348.9 67.9,348.9 61,350.8 		"/>
		<polygon class="pr13" points="67.7,348.9 67.2,349 61,350.8 68,352 68,348.7 		"/>
	</g>
	<g>
		<polygon class="pr52" points="64.5,350.2 72.3,347.9 76.4,349.6 76.3,349.6 69.4,351.7 		"/>
		<polygon class="pr13" points="76,349.8 75.5,349.9 69.4,351.7 76.4,354.7 76.4,349.6 		"/>
	</g>
	<g>
		<polygon class="pr52" points="62.7,351.6 69.4,349 74.4,351.8 68.2,354.3 		"/>
		<polyline class="pr13" points="74.4,351.8 74.2,356.1 73,356.6 68.2,354.3 		"/>
	</g>
	<polygon class="pr13" points="49.3,346.9 69.1,354 69.1,369.4 49.3,361 	"/>
	<g>
		<polygon class="pr11" points="75.7,345.7 75.2,351.8 78.3,357.5 82,357.7 78.9,352 79.3,346.4 		"/>
		<polygon class="pr24" points="79.3,346.4 83.8,354.2 82,357.7 78.9,352 		"/>
	</g>
	<polygon class="pr11" points="90,349.2 69.1,354 69.1,369.4 90,363.8 	"/>
	<polygon class="pr13" points="49.3,346.9 63.1,331.4 83.9,329 68.6,343.1 	"/>
	<path class="pr11" d="M83.9,329l-20.8,2.4l0.7,0.6c1.7,1.4,3.9,2.1,6.1,1.8l12.9-1.4C84.6,332.2,85.2,330.1,83.9,329L83.9,329z"/>
	<g>
		<polygon class="pr53" points="64.7,366 64.2,365.8 64.2,363 64.7,363.1 		"/>
		<polygon class="pr53" points="65.4,366.2 65,366 65,363.2 65.4,363.3 		"/>
		<polygon class="pr53" points="66.2,366.4 66.2,365.7 67.3,366 67.3,366.7 		"/>
		<path class="pr53" d="M67.3,363.9v0.8c0,0.4-0.3,0.8-0.6,0.7l0,0c-0.3-0.1-0.6-0.5-0.6-1v-0.8L67.3,363.9z"/>
	</g>
	<g>
		<polygon class="pr24" points="104.5,357.7 101.1,362.2 104.5,364.3 		"/>
		<polygon class="pr23" points="104.5,357.7 107.9,362.2 104.5,364.3 		"/>
	</g>
	<path class="pr52" d="M68.6,343.1l-19.3,3.8l19.8,7.1l20.9-4.9L68.6,343.1z M50,347l18.6-3.7l20.7,5.9l-20.2,4.6L50,347z"/>
</g>
</svg>
