<?xml version="1.0" encoding="utf-8"?>
<!-- Generator: Adobe Illustrator 22.0.1, SVG Export Plug-In . SVG Version: 6.00 Build 0)  -->
<svg version="1.1" id="Layer_1" xmlns="http://www.w3.org/2000/svg" xmlns:xlink="http://www.w3.org/1999/xlink" x="0px" y="0px"
	 viewBox="0 0 700 480" style="enable-background:new 0 0 700 480;" xml:space="preserve">
<style type="text/css">
	.st0{opacity:0.7;}
	.st1{fill:url(#SVGSSID_1_);}
	.st2{fill:#DFE3ED;}
	.st3{fill:none;}
	.st4{fill:url(#SVGSSID_2_);}
	.st5{fill:url(#SVGSSID_3_);}
	.st6{opacity:0.9;fill:#FFFFFF;enable-background:new    ;}
	.st7{opacity:0.4;fill:#FFFFFF;}
	.st8{fill:#DB3235;}
	.st9{fill:#F4F5FA;}
	.st10{fill:#FFFFFF;}
	.st11{fill:#D3D7E5;}
	.st12{fill:#F14335;}
	.st13{fill:#7E1D1F;}
	.st14{opacity:0.8;}
	.st15{fill:#EF5350;}
	.st16{fill:#2D4466;}
	.st17{enable-background:new    ;}
	.st18{opacity:0.4;fill:url(#SVGSSID_4_);}
	.st19{opacity:0.9;fill:none;stroke:#8E0C2B;stroke-miterlimit:10;enable-background:new    ;}
	.st20{fill:none;stroke:#F5F5F5;stroke-miterlimit:10;}
	.st21{opacity:0.8;fill:url(#SVGSSID_5_);}
	.st22{fill:#E5E5E5;}
	.st23{fill:url(#SVGSSID_6_);}
	.st24{fill:#A80F3B;}
	.st25{fill:#890B35;}
	.st26{fill:url(#SVGSSID_7_);}
	.st27{fill:#AF1020;}
	.st28{fill:#8E0C2B;}
	.st29{opacity:0.9;}
	.st30{opacity:0.9;fill:url(#SVGSSID_8_);enable-background:new    ;}
	.st31{opacity:0.9;fill:url(#SVGSSID_9_);enable-background:new    ;}
	.st32{opacity:0.6;}
	.st33{opacity:0.9;fill:#8E0C2B;enable-background:new    ;}
	.st34{fill:#9B1239;}
	.st35{opacity:0.5;fill:url(#SVGSSID_10_);}
	.st36{opacity:0.5;fill:url(#SVGSSID_11_);}
	.st37{fill:url(#SVGSSID_12_);}
	.st38{opacity:0.3;}
	.st39{opacity:0.5;fill:url(#SVGSSID_13_);enable-background:new    ;}
	.st40{opacity:0.4;fill:url(#SVGSSID_14_);enable-background:new    ;}
	.st41{fill:#C1A172;}
	.st42{opacity:0.5;}
	.st43{fill:#153456;}
	.st44{fill:#FFC255;}
	.st45{fill:none;stroke:#FFFFFF;stroke-width:0.5;stroke-miterlimit:10;}
	.st46{fill:#F0F0F0;}
	.st47{fill:#E5A653;}
	.st48{fill:#162B4D;}
	.st49{fill:#49B776;}
	.st50{fill:#224372;}
	.st51{fill:#41A369;}
	.st52{fill:#5CE593;}
	.st53{fill:#1E3960;}
	.st54{fill:#E7C189;}
	.st55{fill:#0C0C0C;}
	.st56{fill:#53D387;}
	.st57{fill:#1E1E1E;}
	.st58{opacity:0.3;fill:#2D4466;}
	.st59{fill:#D89C4C;}
	.st60{opacity:0.8;fill:url(#SVGSSID_15_);}
	.st61{opacity:0.8;fill:url(#SVGSSID_16_);}
	.st62{opacity:0.8;fill:url(#SVGSSID_17_);}
</style>
<g>
	<g>
		<g class="st0">
			
				<linearGradient id="SVGSSID_1_" gradientUnits="userSpaceOnUse" x1="200.8216" y1="767.0429" x2="200.8216" y2="1027.5858" gradientTransform="matrix(1 0 0 1 144 -680)">
				<stop  offset="0" style="stop-color:#DFE3ED;stop-opacity:0"/>
				<stop  offset="0.3175" style="stop-color:#DFE3ED;stop-opacity:0.2"/>
				<stop  offset="0.7751" style="stop-color:#DFE3ED;stop-opacity:0.7175"/>
				<stop  offset="0.8481" style="stop-color:#DFE3ED;stop-opacity:0.8"/>
				<stop  offset="1" style="stop-color:#DFE3ED"/>
			</linearGradient>
			<path class="st1" d="M609.5,346.2c60.6-21.5,96-144.4,29.8-187.3c-63.5-42-128.6,33.6-187.4,40.2c-35.4,4.6-71.8-29.9-98.9-48.5
				c-35.4-25.2-76.5-62.5-123.1-60.6c-20.5,1.9-34.5,15.9-55.1,16.8c-18.6,0.9-26.1-4.6-41.1-12.1c-29.8-15-69.8-7.5-90.3,18.6
				l-5.7,6.5C3.2,162.7,7.9,236.4,48.9,270.9c22.4,19.6,49.4,14.9,77.4,22.4c30.8,7.5,44.8,25.2,69.1,45.7
				c21.1,17.8,63.9,0.2,93.4,1c43.3,1.1,76.5,10.5,112,6.7L609.5,346.2z"/>
		</g>
		<g>
			<polygon class="st2" points="92,162.7 92,162.7 92,162.7 			"/>
			<path class="st2" d="M91.3,162.3c-0.5-0.2-1.2-0.4-2-0.4c-0.2,0-0.4,0-0.7,0c-1-0.1-1.7-0.8-2.4-1.3c-0.4-0.3-0.7-0.3-1.1-0.3
				c-0.4,0-0.9,0.1-1.4,0.3c-0.5,0.2-0.9,0.2-1.3,0.2c-0.5,0-0.9-0.2-1.5-0.6c-1-0.7-1.9-1.3-3.3-1.4c0,0-0.1,0-0.1,0
				c-1.2,0-2.1,0.9-2.9,1.7c-0.3,0.3-0.9,0.8-1.4,0.8c0,0-0.1,0-0.1,0c-0.8-0.1-1.2-0.3-2-0.3c-1.7,0-2.4,1.2-2.5,1.7H92
				C92,162.7,91.7,162.5,91.3,162.3z"/>
			<path class="st2" d="M126.9,179.5c-0.4-0.3-0.9-0.4-1.3-0.4c-0.5,0-0.9,0.1-1.4,0.3c-0.6,0.2-1.1,0.3-1.5,0.3
				c-0.5,0-1-0.2-1.6-0.6c-1.1-0.8-2.2-1.5-3.7-1.5c0,0-0.1,0-0.1,0c-1.4,0-2.4,1-3.3,1.9c-0.4,0.4-1,0.9-1.6,0.9c0,0-0.1,0-0.1,0
				c-0.8-0.1-1.2-0.3-1.9-0.3c-0.1,0-0.3,0-0.4,0c-0.5,0.1-1.4,0.3-1.5,0.9l21.1,0.1C128.5,180.9,127.6,180.1,126.9,179.5z"/>
			<path class="st2" d="M62.3,237.5h37.2v-88.4H62.3V237.5z M89.7,192.3v-2.8h-1.5v-1.6h-2.2v-1.7h-2.3v4.5h-1v-1.4h-3v1.6h-1.3
				v-1.5l-8.3,0l0,2.2h-2.4v-5.9H63v-35.9h35.8v38.6h-0.6v3.8h-2l-0.1-6.5l-2.9,0l0.1,6.5L89.7,192.3z"/>
			<path class="st2" d="M103.3,149.1v88.4h37.2v-88.4H103.3z M133.6,195L133.6,195l-0.1-6.5h0.1V195z M139.8,194.4h-1.3v-1.6h-3v1.4
				h-0.8v-6.5h-4.9v3.8h-3.4v1.6H125v3.1h-2.3v0.7H121v0.2h-0.9v-1.2h-1.5V195h-2.2v-2.8h-5.4v4.9h-1.8v-1h-1.2v-1.6h-2.3v-5.9H104
				v-38.8h35.8V194.4z"/>
		</g>
		<g>
			<path class="st3" d="M624.5,220.3c0-13.6-10.3-24.8-23.6-26.3v41.5h23.6V220.3z"/>
			<rect x="571.7" y="241.2" class="st3" width="23.6" height="22.7"/>
			<path class="st3" d="M571.7,220.3v15.2h23.6V194C582,195.4,571.7,206.7,571.7,220.3z"/>
			<rect x="600.9" y="241.2" class="st3" width="23.6" height="22.7"/>
			<rect x="600.9" y="269.7" class="st3" width="23.6" height="20"/>
			<rect x="571.7" y="269.7" class="st3" width="23.6" height="20"/>
			
				<linearGradient id="SVGSSID_2_" gradientUnits="userSpaceOnUse" x1="442.119" y1="1029.6904" x2="470.1779" y2="870.5608" gradientTransform="matrix(1 0 0 1 144 -680)">
				<stop  offset="0" style="stop-color:#DFE3ED;stop-opacity:0"/>
				<stop  offset="0.7148" style="stop-color:#DFE3ED;stop-opacity:0.85"/>
				<stop  offset="1" style="stop-color:#DFE3ED"/>
			</linearGradient>
			<path class="st4" d="M627.7,207.9c-1.6-3.8-4-7.2-6.9-10.2c-2.9-2.9-6.4-5.3-10.2-6.9c-3.1-1.3-6.3-2.1-9.7-2.4
				c-1-0.1-1.9-0.1-2.9-0.1s-1.9,0.1-2.9,0.1c-3.3,0.3-6.6,1.1-9.7,2.4c-3.8,1.6-7.2,4-10.2,6.9c-2.9,2.9-5.3,6.4-6.9,10.2
				c-1.7,4-2.5,8.2-2.5,12.5v125.8h29.3h5.7h29.3V220.3C630.2,216,629.4,211.8,627.7,207.9z M595.2,289.7h-23.6v-20h23.6V289.7z
				 M595.2,264h-23.6v-22.7h23.6V264z M595.2,235.5h-23.6v-15.2c0-13.6,10.4-24.9,23.6-26.3V235.5z M600.9,194
				c13.3,1.5,23.6,12.7,23.6,26.3v15.2h-23.6V194z M600.9,241.2h23.6V264h-23.6V241.2z M600.9,269.7h23.6v20h-23.6V269.7z
				 M624.8,296.7c-1,0-1.7-0.8-1.7-1.7c0-1,0.8-1.7,1.7-1.7s1.7,0.8,1.7,1.7C626.5,295.9,625.7,296.7,624.8,296.7z"/>
		</g>
		<path class="st2" d="M678.3,243.5v-4.1h5.7v-5.2h-5.6v-4.6h-11.5v4.6h-5.1v5.2h2.8v4.1H662v5.3h32.6v-5.3H678.3z M667.5,230.3
			h10.3v4h-10.3V230.3z M662.4,238.8v-3.9h4.5h5.6v3.4h0.6v-3.4h5.3h4.9v3.9h-5.1h-13.8H662.4z M677.7,239.4v4.1h-12.5v-4.1H677.7z
			 M683,248.1h-20.4v-4h1.9h7.9v2.8h0.6v-2.8h5.3h4.7V248.1z M693.9,248.1h-10.2v-4h10.2V248.1z"/>
		<path class="st2" d="M658,151.3h-6.9v-5.8h-14v5.8h-10.7v6.5h10.8v4.6H624v6.7h21v-5.9h5.9v-5.3h7.1V151.3z M637.8,146.3h12.5v5
			H645h-0.7h-6.5V146.3z M627.1,152.1h9.9h7.2v4.9h-17.1V152.1z M644.2,168.3h-19.4v-5.1h12.3h7.1V168.3z M650.1,162.4H645h-7.1
			v-4.4h12.2V162.4z M657.2,157.1h-12.2v-5h6h6.2V157.1z"/>
		<path class="st2" d="M29.4,141.3V136H16.9v5.1h-6.1v5.8H17v4.7h12.3V147h9.6v-5.8H29.4z M17.6,136.7h11.1v4.4H23h-5.4V136.7z
			 M11.5,146.3v-4.4h5.4h5.4v4.4H11.5z M28.6,151.1H17.7v-4h10.9V151.1z M38.2,146.3H23V142h15.2V146.3z"/>
	</g>
	<g>
		
			<linearGradient id="SVGSSID_3_" gradientUnits="userSpaceOnUse" x1="458.4305" y1="841.3633" x2="470.1421" y2="845.626" gradientTransform="matrix(1 0 0 1 144 -680)">
			<stop  offset="0" style="stop-color:#DFE3ED;stop-opacity:0"/>
			<stop  offset="0.3175" style="stop-color:#DFE3ED;stop-opacity:0.32"/>
			<stop  offset="0.5913" style="stop-color:#DFE3ED;stop-opacity:0.59"/>
			<stop  offset="0.8481" style="stop-color:#DFE3ED;stop-opacity:0.85"/>
			<stop  offset="1" style="stop-color:#DFE3ED"/>
		</linearGradient>
		<path class="st5" d="M608.7,146.3L608.7,146.3v34.4h-1.1v-33.3C607.6,146.8,608.1,146.3,608.7,146.3z"/>
		<g>
			<circle class="st6" cx="608.1" cy="187.8" r="4.5"/>
			<circle class="st7" cx="608.1" cy="188.2" r="11.7"/>
			<path class="st8" d="M596.4,188.2c0-6.4,5.2-11.7,11.7-11.7c6.4,0,11.7,5.2,11.7,11.7H596.4z"/>
		</g>
	</g>
	<g>
		<g>
			<path class="st9" d="M109.8,316.9c0.6,1.6,5.4,18.8,4.8,21.2c-0.6,2.3,0,6.8-3.6,10.9H99.9c-3.6-4.1-2.8-8.4-3.6-10.9
				c-0.6-2.6,4.3-19.3,4.8-21.2H109.8z"/>
			<path class="st2" d="M110.6,340.7c-0.3-1-0.3-1.6-1.3-1.8c-2-0.7-5.4-1-4.8-4.4c0.3-2.6,1.3-4.7-1-6.7c-2-1.8-3-4.1-3.3-6.9
				c0,0,0,0,0,0.3c-1.6,5.7-3.8,15.2-3.6,16.7c0.6,2.6,0,6.9,3.3,11H111c1.3-1.6,2-3.1,2.6-5.1C112.1,343.5,110.8,342.3,110.6,340.7
				z"/>
			<path class="st9" d="M99.7,312.3c-1.8-1-2.3-5.8-4.6-8.4c-2.3-2.6-3.3-5.8-4.3-9.1c-1.8-6.1,1.6-11.9-0.7-18.3
				c-1.8-4.8-5.4-14.5,1.3-17.6c2.6-1.3,2.3,0.7,2.6,3.3c0,3-0.6,6.4,0.3,9.4c0.7,2,2.3,2.8,3.3,4.6c1,1.6,1.6,3.3,1.6,5.4
				c0,1.6-0.3,3.3,0.3,4.8c0.7,2,3,3.6,4.1,5.8c1.6,3.3,3.3,7.7,0.7,10.7c-1.8,2.3-4.1,4.3-4.8,7.4c0,0.3,0,0.6,0,0.7L99.7,312.3z"
				/>
			<path class="st2" d="M107.5,317.2c0.3-1.8-2.8-8.7-3.3-18.6c-0.3-4.1,2.3-9.7,1.8-14c-0.6-4.8,1.6-5.6,4.3-9.1
				c2-2.6,2-6.7,1.3-9.7c-0.6-2.3-1.6-4.3-0.7-6.7c0.7-1.8,2.3-2.8,2.8-4.8c0.3-2.3-0.3-4.8,0.6-7.1c0.7-2.3,2.6-4.3,4.6-5.8
				c2.6-1.6,2.8,0,3.6,2.6c1,4.1,1.3,8.7,0.6,12.7c-0.7,3.6-2,7.7-1,11.5c2,6.4,9.9,13.2,5.8,20.3c-0.7,1.8-2.3,2.8-3.3,4.6
				c-1,1.6-1.8,3.3-3,5.1c-1.8,2.6-2.3,6.1-4.6,8.4c-3.3,3.3-6.7,6.7-8.9,11.2L107.5,317.2z"/>
			<path class="st10" d="M93.3,286.3c0,2.6-0.6,7.9,3,8.7c0.3,0,0.3,0,0.6-0.3c0.7-0.7,0-2-0.6-2.8c-0.3-0.3-0.3-0.3-0.6-0.3h-0.3
				c-0.3,0-0.3,0.3-0.3,0.3c-0.3,1.6,0,3,0.7,4.3c0.6,1,1.3,1.8,2.3,2.8c1.3,1.6,1.3,3,1.8,4.8c0.3,0.6,0.6,1,0.7,1.3
				c0.6,1.3,0.6,2.8,0.6,4.1c0,1.3-0.3,2.6-0.6,3.6c-0.3,1.8,0,3.3,1.6,4.3c0.6,0.3,1-0.6,0.6-1c-2-1.6-0.6-5.8-0.6-7.9
				c0-1.3,0-2.6-0.6-3.6c-0.6-1.3-0.6-2.8-1-4.1c-1-2.3-3.8-4.1-4.1-6.7c0-0.3,0-0.3,0-0.6c0.3-0.6-0.3-0.7-1-0.6
				c-0.6-0.7-0.7-1.8-0.7-2.8c0-1.3,0-2.6,0-3.8c0-0.3-0.3-0.6-0.6-0.6C93.6,285.8,93.3,286,93.3,286.3z"/>
			<path class="st10" d="M121.3,274.4c-0.6,1.8-1.3,3.6-2.6,5.1c-1,1.3-2.6,1-3.6,1.8c-1.8,1.6,0,4.8,0.6,6.7c0.7,2.3,1.8,5.1,0,7.1
				c-0.7,1-1.8,1.8-2.8,2.6c-1.8,1.3-2.6,3.3-2.3,5.4c-2,1.6-3,4.1-4.1,6.4s-2.3,5.4-1.3,7.9c0.3,0.6,1.3,0.3,1-0.3
				c-1-2.3,0.6-5.4,1.6-7.4c0.7-1.8,1.8-3.6,3-5.1c0.3,0.3,0.3,0.3,0.6,0.3c0.6,0,1-0.7,1-1.3v-0.3c0-0.3-0.3-0.6-0.6-0.3
				c0-3.3,3.3-4.3,5.4-6.8c1.6-2,0.7-4.6,0-6.8c-0.6-1.6-1-3-1.3-4.6c-0.6-1.8,2.3-2.3,3-3c1.8-1.3,2.8-3.8,3.3-6.1
				c0-0.3,0-0.6-0.3-0.7C121.7,274.4,121.6,274.1,121.3,274.4z"/>
			<path class="st9" d="M103.5,258.3c-0.6,3.3,0.3,5.8,0.7,8.9c0,1,0.3,1.8,0.3,2.8c0.3,1.6,1.6,2.3,2,3.6c0.6,2.3-0.6,4.8-0.7,7.1
				c0,2,1.6,3,2.8,4.3c3,2.8-1.3,5.1-2.8,7.4c-1.6,2-1.6,4.6-1.6,7.1c0,3.6,0.6,6.4-0.6,9.9c0,0.3-0.3,1.6-1.6,7.1
				c-0.3,0.7,0.7,1,0.7,0.6c1-3.3,0.3-3,1.3-6.7c1-2.6,1.3-5.4,1-8.4c-0.3-3.6-0.7-7.4,2-10.2c1.6-1.6,3-2.8,3.3-5.1
				c0.3-1.6-2-3-3-4.1c-2-1.8-0.7-5.1-0.6-7.4c0-0.7,0-1.8,0-2.6c-0.3-1.6-1.6-2.3-2-3.8c-0.5-1.5-0.3-2.8-0.6-4.1
				c-0.7-2.3-0.7-4.8-0.6-7.1C104.8,258,103.7,257.9,103.5,258.3z"/>
			<path class="st10" d="M104.5,316.9c1-2.3,1.8-4.8,2.3-7.4c0.7-3.3,2.6-6.4,4.6-8.9c1.8-2,3-4.1,4.3-6.7c1-2.6,1-5.6,0.7-8.4
				c-0.3-5.1,0.3-10.2,0.6-15.1c0-6.7,1-13,2.6-19.3c0.3-0.7-0.7-1-1-0.3c-1.3,5.8-2.3,11.7-2.3,17.6c-0.3,4.6-0.6,8.9-0.7,13.5
				c0,3.6,0.6,6.8-0.3,10.4c-0.6,3-3,5.8-5.1,8.1c-1.6,1.8-2.8,4.1-3.8,6.4c-1.3,3-1.6,6.7-2.8,9.7
				C103.2,317.2,104.2,317.6,104.5,316.9z"/>
			<rect x="99.4" y="316.1" class="st11" width="11.7" height="1.6"/>
		</g>
	</g>
</g>
<g>
	<g>
		<g>
			<rect x="124.8" y="93.6" class="st12" width="431.8" height="255.8"/>
		</g>
		<g>
			<g>
				<rect x="129.3" y="98.6" class="st13" width="92.8" height="36.3"/>
			</g>
			<g>
				<rect x="129.3" y="140.3" class="st13" width="92.8" height="38.1"/>
			</g>
			<g>
				<rect x="129.3" y="182.9" class="st13" width="92.8" height="37.7"/>
			</g>
			<g>
				<rect x="129.3" y="224.9" class="st13" width="92.8" height="42"/>
			</g>
			<g>
				<rect x="129.3" y="271.1" class="st13" width="92.8" height="42"/>
			</g>
			<g>
				<rect x="129.3" y="316.9" class="st13" width="92.8" height="27.8"/>
			</g>
			<g>
				<rect x="226.1" y="98.6" class="st13" width="112.4" height="36.3"/>
			</g>
			<g>
				<rect x="226" y="140.3" class="st13" width="112.4" height="38.1"/>
			</g>
			<g>
				<rect x="226" y="182.9" class="st13" width="112.4" height="37.7"/>
			</g>
			<g>
				<rect x="226" y="224.9" class="st13" width="112.4" height="42"/>
			</g>
			<g>
				<rect x="226" y="271.1" class="st13" width="112.4" height="42"/>
			</g>
			<g>
				<rect x="226" y="316.9" class="st13" width="112.4" height="27.8"/>
			</g>
			<g>
				<rect x="342.6" y="98.6" class="st13" width="92.8" height="36.3"/>
			</g>
			<g>
				<rect x="342.8" y="140.3" class="st13" width="92.8" height="38.1"/>
			</g>
			<g>
				<rect x="342.8" y="182.9" class="st13" width="92.8" height="37.7"/>
			</g>
			<g>
				<rect x="342.8" y="224.9" class="st13" width="92.8" height="42"/>
			</g>
			<g>
				<rect x="342.8" y="271.1" class="st13" width="92.8" height="42"/>
			</g>
			<g>
				<rect x="342.8" y="316.9" class="st13" width="92.8" height="27.8"/>
			</g>
			<g>
				<rect x="439.4" y="98.6" class="st13" width="112.4" height="36.3"/>
			</g>
			<g>
				<rect x="439.4" y="140.3" class="st13" width="112.4" height="38.1"/>
			</g>
			<g>
				<rect x="439.4" y="182.9" class="st13" width="112.4" height="37.7"/>
			</g>
			<g>
				<rect x="439.4" y="224.9" class="st13" width="112.4" height="42"/>
			</g>
			<g>
				<rect x="439.4" y="271.1" class="st13" width="112.4" height="42"/>
			</g>
			<g>
				<rect x="439.4" y="316.9" class="st13" width="112.4" height="27.8"/>
			</g>
		</g>
		<g class="st14">
			<rect x="143" y="114.4" class="st15" width="5" height="18.5"/>
			<rect x="136.1" y="106.6" class="st15" width="6.2" height="26.3"/>
			<rect x="130" y="109.7" class="st15" width="5.2" height="23.1"/>
			<rect x="148.9" y="105.9" class="st15" width="5.8" height="27"/>
			<rect x="141.7" y="236.5" class="st15" width="7.7" height="28.7"/>
			<rect x="130.9" y="239" class="st15" width="9.6" height="26.3"/>
			<rect x="150.8" y="238.3" class="st15" width="9" height="27"/>
			<rect x="173.2" y="115.2" class="st15" width="20.8" height="4.6"/>
			<rect x="167.6" y="120.4" class="st15" width="24.6" height="5.1"/>
			<rect x="166.3" y="127" class="st15" width="28.4" height="5.9"/>
			<rect x="196.4" y="103.2" class="st15" width="9.4" height="29.7"/>
			<rect x="155.8" y="103.2" class="st15" width="9.4" height="29.7"/>
			<rect x="208.1" y="106.1" class="st15" width="6.8" height="26.7"/>
			<rect x="216.5" y="108.5" class="st15" width="4.1" height="24.3"/>
			<rect x="488.3" y="114.6" class="st15" width="20.8" height="4.6"/>
			<rect x="482.7" y="107.7" class="st15" width="23.9" height="4.6"/>
			<rect x="482" y="120.2" class="st15" width="24.6" height="5.1"/>
			<rect x="484.2" y="128.7" class="st15" width="24.6" height="5.1"/>
			<rect x="510.9" y="104.1" class="st15" width="9.4" height="29.7"/>
			<rect x="264.9" y="147.3" class="st15" width="5" height="28.7"/>
			<rect x="257.7" y="149.7" class="st15" width="6.2" height="26.3"/>
			<rect x="270.5" y="149" class="st15" width="5.8" height="27"/>
			<rect x="277.4" y="146.3" class="st15" width="9.4" height="29.7"/>
			<rect x="234.1" y="147.6" class="st15" width="5" height="28.7"/>
			<rect x="227.9" y="150" class="st15" width="6.2" height="26.3"/>
			<rect x="240.6" y="149.3" class="st15" width="5.8" height="27"/>
			<rect x="247.5" y="146.6" class="st15" width="9.4" height="29.7"/>
			<rect x="522.5" y="107.1" class="st15" width="6.8" height="26.7"/>
			<rect x="531" y="109.4" class="st15" width="4.1" height="24.3"/>
			<rect x="362" y="151.9" class="st15" width="6.4" height="24.6"/>
			<rect x="354.5" y="151.9" class="st15" width="6.4" height="24.6"/>
			<rect x="383.5" y="145.4" class="st15" width="9.4" height="29.7"/>
			<rect x="344.4" y="147.1" class="st15" width="9.4" height="29.7"/>
			<rect x="395.2" y="148.4" class="st15" width="6.8" height="26.7"/>
			<rect x="321.7" y="147.1" class="st15" width="7.5" height="29.7"/>
			<rect x="331" y="150.1" class="st15" width="5.4" height="26.7"/>
			<rect x="403.7" y="150.8" class="st15" width="4.1" height="24.3"/>
			<rect x="370" y="149.3" class="st15" width="6.8" height="26.7"/>
			<rect x="378.5" y="151.7" class="st15" width="4.1" height="24.3"/>
			<rect x="289.2" y="146.6" class="st15" width="9.4" height="29.7"/>
			<rect x="300.8" y="149.6" class="st15" width="6.8" height="26.7"/>
			<rect x="309.3" y="151.9" class="st15" width="4.1" height="24.3"/>
			<rect x="149.6" y="150.7" class="st15" width="9.7" height="25.7"/>
			<rect x="160" y="146" class="st15" width="10.7" height="30.5"/>
			<rect x="171.5" y="146.4" class="st15" width="4.3" height="30.1"/>
			<rect x="177" y="151.2" class="st15" width="11.6" height="25.3"/>
			<rect x="190" y="148.9" class="st15" width="8.7" height="27.6"/>
			<rect x="200" y="152.6" class="st15" width="7.5" height="23.9"/>
			<rect x="213.1" y="152.6" class="st15" width="7.5" height="23.9"/>
			<rect x="208.4" y="148.8" class="st15" width="4.1" height="27.6"/>
			<rect x="139.3" y="148.2" class="st15" width="9.3" height="28.3"/>
			<rect x="130.7" y="154.2" class="st15" width="7.3" height="22.2"/>
			<rect x="151.9" y="282.9" class="st15" width="10.5" height="28.1"/>
			<rect x="164.1" y="276" class="st15" width="11.5" height="35.1"/>
			<rect x="177.1" y="278.2" class="st15" width="4.6" height="32.8"/>
			<rect x="183" y="283.4" class="st15" width="12.6" height="27.6"/>
			<rect x="197" y="280.9" class="st15" width="9.4" height="30.1"/>
			<rect x="207.8" y="284.8" class="st15" width="8.1" height="26.2"/>
			<rect x="217" y="280.9" class="st15" width="3.6" height="30.2"/>
			<rect x="141" y="280.2" class="st15" width="10" height="30.9"/>
			<rect x="132.3" y="286.8" class="st15" width="7.9" height="24.3"/>
			<rect x="185.5" y="237.1" class="st15" width="9.3" height="28.1"/>
			<rect x="175.2" y="231.9" class="st15" width="9.2" height="33.3"/>
			<rect x="195.6" y="234.3" class="st15" width="8.9" height="30.9"/>
			<rect x="205.5" y="241" class="st15" width="7" height="24.3"/>
			<rect x="132" y="191.6" class="st15" width="4" height="26.7"/>
			<rect x="136.4" y="188.2" class="st15" width="4.9" height="30.1"/>
			<rect x="142.6" y="192.1" class="st15" width="6.1" height="26.2"/>
			<rect x="149.9" y="189.2" class="st15" width="9.5" height="29.1"/>
			<rect x="160.6" y="190.3" class="st15" width="11" height="28"/>
			<rect x="174.5" y="189.9" class="st15" width="6.7" height="28.4"/>
			<rect x="213.7" y="236.8" class="st15" width="6.7" height="28.4"/>
			<rect x="182.9" y="193.9" class="st15" width="10.9" height="24.4"/>
			<rect x="196.2" y="192.1" class="st15" width="9.6" height="26.2"/>
			<rect x="208.1" y="191.4" class="st15" width="6.3" height="26.9"/>
			<rect x="216.7" y="193.9" class="st15" width="4.3" height="24.4"/>
			<rect x="161.1" y="234" class="st15" width="4.1" height="31.2"/>
			<rect x="167" y="240.5" class="st15" width="7.3" height="24.7"/>
			<rect x="232.1" y="102.6" class="st15" width="5.3" height="29.5"/>
			<rect x="237.7" y="104.6" class="st15" width="7.6" height="27.5"/>
			<rect x="246.6" y="110" class="st15" width="9.3" height="21.6"/>
			<rect x="257" y="102.7" class="st15" width="5.6" height="28.9"/>
			<rect x="263.8" y="105.5" class="st15" width="5.8" height="26"/>
			<rect x="270.9" y="107.3" class="st15" width="8" height="24.5"/>
			<rect x="280.2" y="104.2" class="st15" width="9.7" height="27.6"/>
			<rect x="291.2" y="104.4" class="st15" width="7" height="27.7"/>
			<rect x="300.1" y="106.4" class="st15" width="9.8" height="25.3"/>
			<rect x="312.8" y="107.3" class="st15" width="7.9" height="24.7"/>
			<g>
				<rect x="427.5" y="189" class="st15" width="5.3" height="29.5"/>
				<rect x="419.7" y="191" class="st15" width="7.6" height="27.5"/>
				<rect x="409.1" y="196.5" class="st15" width="9.3" height="21.6"/>
				<rect x="402.3" y="189.1" class="st15" width="5.6" height="28.9"/>
				<rect x="395.2" y="191.9" class="st15" width="5.8" height="26"/>
				<rect x="386.1" y="193.7" class="st15" width="8" height="24.5"/>
				<rect x="375" y="190.5" class="st15" width="9.7" height="27.6"/>
				<rect x="366.8" y="190.8" class="st15" width="7" height="27.7"/>
				<rect x="354.5" y="192.8" class="st15" width="9.8" height="25.3"/>
				<rect x="344.2" y="193.7" class="st15" width="7.9" height="24.7"/>
			</g>
			<rect x="323.6" y="104.2" class="st15" width="11.6" height="27.6"/>
			<rect x="346.2" y="103.6" class="st15" width="2.9" height="29.2"/>
			<rect x="350.5" y="105.5" class="st15" width="6" height="27.3"/>
			<rect x="358.1" y="103" class="st15" width="8.7" height="29.6"/>
			<rect x="382.1" y="104.4" class="st15" width="7.2" height="27.8"/>
			<rect x="391.1" y="107.5" class="st15" width="11.3" height="24.5"/>
			<rect x="403.7" y="104.4" class="st15" width="10.3" height="27.9"/>
			<rect x="415.3" y="105.7" class="st15" width="6.8" height="26.8"/>
			<polygon class="st15" points="431.6,132.2 425.6,131.9 426.4,107.4 432.3,107.7 			"/>
			<rect x="441.3" y="106.5" class="st15" width="10.2" height="27.3"/>
			<rect x="452.9" y="102.2" class="st15" width="4.3" height="31.5"/>
			<rect x="537.5" y="102.2" class="st15" width="4.3" height="31.5"/>
			<rect x="459.2" y="105.3" class="st15" width="5.5" height="28.5"/>
			<rect x="466.8" y="109.9" class="st15" width="5.3" height="23.9"/>
			<rect x="543.8" y="109.9" class="st15" width="5.3" height="23.9"/>
			<polygon class="st15" points="482.4,133.1 476.4,134 473,111.2 478.9,110.3 			"/>
			<rect x="304.3" y="200.9" class="st15" width="6.5" height="16.7"/>
			<rect x="312" y="191.8" class="st15" width="11.3" height="25.8"/>
			<rect x="496.3" y="160.1" class="st15" width="6.5" height="16.7"/>
			<rect x="503.9" y="151.1" class="st15" width="11.3" height="25.8"/>
			
				<rect x="512.6" y="164.4" transform="matrix(0.1331 -0.9911 0.9911 0.1331 285.3915 659.6248)" class="st15" width="14.4" height="4.6"/>
			<rect x="324.6" y="198.4" class="st15" width="4.8" height="19.2"/>
			<rect x="330.5" y="192.2" class="st15" width="4.8" height="25.4"/>
			<rect x="441.4" y="149.9" class="st15" width="8.3" height="26.9"/>
			<rect x="450.5" y="152.2" class="st15" width="6.8" height="23.8"/>
			<rect x="458.8" y="148.5" class="st15" width="8.5" height="27.9"/>
			<rect x="464.9" y="190.7" class="st15" width="8.5" height="27.9"/>
			<rect x="468.2" y="152.7" class="st15" width="6.3" height="23.4"/>
			<rect x="440.8" y="234.4" class="st15" width="6" height="30.9"/>
			<rect x="447.9" y="231.5" class="st15" width="7.9" height="33.8"/>
			<rect x="456.8" y="238" class="st15" width="6.8" height="27.3"/>
			<rect x="465.2" y="234.9" class="st15" width="9.3" height="30.2"/>
			<rect x="443.1" y="281.1" class="st15" width="9.3" height="30.2"/>
			<rect x="476" y="240" class="st15" width="11" height="25.3"/>
			<rect x="488.2" y="232.4" class="st15" width="12.9" height="32.8"/>
			<rect x="502.2" y="234.8" class="st15" width="7.4" height="30.5"/>
			<rect x="510.8" y="234.4" class="st15" width="8.4" height="30.9"/>
			<rect x="520.7" y="238.8" class="st15" width="8.3" height="26.4"/>
			<rect x="530.4" y="234.5" class="st15" width="10.7" height="30.6"/>
			<rect x="542.5" y="237.5" class="st15" width="6.2" height="27.7"/>
			<rect x="523.9" y="150.5" class="st15" width="8" height="24.7"/>
			<rect x="533.3" y="154.9" class="st15" width="5.8" height="21.1"/>
			<rect x="541.1" y="150.9" class="st15" width="7.8" height="25.4"/>
			<rect x="281.1" y="239.4" class="st15" width="11.4" height="24"/>
			<rect x="294.6" y="235.1" class="st15" width="9" height="28.3"/>
			<rect x="305.6" y="235.2" class="st15" width="6.4" height="28.1"/>
			<rect x="301.4" y="282.7" class="st15" width="10" height="28.1"/>
			<rect x="299.4" y="320" class="st15" width="10" height="23.4"/>
			<polygon class="st15" points="320.7,263.3 316.7,263.1 317.7,239.1 321.8,239.2 			"/>
			<rect x="324.2" y="236.3" class="st15" width="10.7" height="27"/>
			<rect x="390.7" y="237" class="st15" width="10.7" height="27"/>
			<rect x="228.4" y="289.3" class="st15" width="8.3" height="21.5"/>
			<rect x="237.8" y="282.5" class="st15" width="9" height="28.3"/>
			<rect x="247.6" y="289.2" class="st15" width="3.5" height="21.6"/>
			<rect x="253.3" y="281.3" class="st15" width="4.1" height="29.4"/>
			<rect x="259" y="279.3" class="st15" width="9.3" height="31.4"/>
			<rect x="271.2" y="282.2" class="st15" width="4.5" height="28.6"/>
			<rect x="277.6" y="283.5" class="st15" width="7.6" height="27.3"/>
			<rect x="287.4" y="279.7" class="st15" width="4.9" height="31.1"/>
			<rect x="294.4" y="284.5" class="st15" width="4.7" height="26.3"/>
			<rect x="313.2" y="288" class="st15" width="9.3" height="22.8"/>
			<rect x="323.9" y="279.9" class="st15" width="10.5" height="30.9"/>
			<g>
				<rect x="540.9" y="197.5" class="st15" width="8.3" height="21.5"/>
				<rect x="530.3" y="190.7" class="st15" width="9" height="28.3"/>
				<rect x="525" y="197.3" class="st15" width="3.5" height="21.6"/>
				<rect x="518.7" y="189.5" class="st15" width="4.1" height="29.4"/>
				<rect x="507.7" y="187.5" class="st15" width="9.3" height="31.4"/>
				<rect x="500.4" y="190.4" class="st15" width="4.5" height="28.6"/>
				<rect x="490.9" y="191.6" class="st15" width="7.6" height="27.3"/>
				<rect x="483.8" y="187.8" class="st15" width="4.9" height="31.1"/>
				<rect x="477" y="192.7" class="st15" width="4.7" height="26.3"/>
				<rect x="453.7" y="192.3" class="st15" width="9.2" height="26.6"/>
				<rect x="441.7" y="188.1" class="st15" width="10.5" height="30.9"/>
			</g>
			<rect x="346.2" y="235.4" class="st15" width="4.9" height="28.8"/>
			<rect x="352.7" y="237.7" class="st15" width="6" height="26.5"/>
			<rect x="410" y="146.5" class="st15" width="4.9" height="28.8"/>
			<rect x="315.7" y="147.6" class="st15" width="4.9" height="28.8"/>
			<rect x="416.6" y="149.1" class="st15" width="6" height="26.5"/>
			<polygon class="st15" points="432.5,174.7 427.2,175.7 423.2,153.2 428.5,152.2 			"/>
			<rect x="370.4" y="242.6" class="st15" width="4.7" height="21.7"/>
			<rect x="376.6" y="240.7" class="st15" width="5.2" height="23.5"/>
			<rect x="383.2" y="237.7" class="st15" width="5.7" height="26.6"/>
			<rect x="361.1" y="236.8" class="st15" width="7.4" height="26.6"/>
			<rect x="512.2" y="328.6" class="st15" width="17.3" height="3.8"/>
			<rect x="509.5" y="333.3" class="st15" width="18.8" height="3.8"/>
			<rect x="508.4" y="338" class="st15" width="21.2" height="4.6"/>
			<rect x="403.7" y="234.4" class="st15" width="9.2" height="29.6"/>
			<rect x="414.8" y="237.2" class="st15" width="6.8" height="26.6"/>
			<rect x="531.3" y="319.6" class="st15" width="9.2" height="23"/>
			<rect x="542.4" y="321.8" class="st15" width="6.8" height="20.7"/>
			<rect x="424" y="240.2" class="st15" width="7.4" height="23.7"/>
			<rect x="426" y="287.7" class="st15" width="7.4" height="23.7"/>
			<rect x="268.8" y="189.4" class="st15" width="4.8" height="28.2"/>
			<rect x="262.2" y="187" class="st15" width="5.2" height="30.6"/>
			<rect x="255.1" y="191.1" class="st15" width="5.7" height="26.6"/>
			<rect x="274.8" y="188.1" class="st15" width="9.2" height="29.6"/>
			<rect x="286" y="191" class="st15" width="6.8" height="26.6"/>
			<rect x="295.1" y="193.9" class="st15" width="7.4" height="23.7"/>
			<rect x="477.9" y="150.1" class="st15" width="6.8" height="26.6"/>
			<rect x="487" y="153.1" class="st15" width="7.4" height="23.7"/>
			<g>
				<rect x="467.2" y="294.4" class="st15" width="6.3" height="16.7"/>
				<rect x="454.1" y="285.5" class="st15" width="11" height="25.8"/>
				<rect x="538.8" y="282" class="st15" width="10.5" height="29.2"/>
				<rect x="531.8" y="284.1" class="st15" width="5.6" height="27.1"/>
				<rect x="502.5" y="283.1" class="st15" width="4.7" height="28.3"/>
				<rect x="508.5" y="280.6" class="st15" width="5.1" height="30.6"/>
				<rect x="514.9" y="284.7" class="st15" width="5.7" height="26.6"/>
				<rect x="522.1" y="290.3" class="st15" width="8.2" height="21"/>
				<rect x="492.4" y="281.6" class="st15" width="9" height="29.6"/>
				<rect x="483.8" y="284.4" class="st15" width="6.7" height="26.6"/>
				<rect x="475.3" y="287.4" class="st15" width="7.1" height="23.7"/>
			</g>
			<g>
				<rect x="198.6" y="328.6" class="st15" width="5.3" height="14.4"/>
				<rect x="214.9" y="328.6" class="st15" width="5.3" height="14.4"/>
				<rect x="204.8" y="320.9" class="st15" width="9.2" height="22.2"/>
				<rect x="133.3" y="322.1" class="st15" width="8.7" height="21"/>
				<rect x="143.2" y="323.6" class="st15" width="4.7" height="19.5"/>
				<rect x="165.9" y="322.8" class="st15" width="3.9" height="20.3"/>
				<rect x="160.5" y="321.1" class="st15" width="4.2" height="22.1"/>
				<rect x="149.3" y="321.1" class="st15" width="4.2" height="22.1"/>
				<rect x="154.8" y="324" class="st15" width="4.7" height="19.1"/>
				<rect x="170.8" y="321.8" class="st15" width="7.4" height="21.3"/>
				<rect x="180.4" y="323.8" class="st15" width="8" height="19.2"/>
				<rect x="189.4" y="320.1" class="st15" width="7.7" height="22.9"/>
			</g>
			<rect x="345.2" y="282.8" class="st15" width="4.6" height="28.3"/>
			<rect x="351.4" y="283.2" class="st15" width="6.7" height="27.9"/>
			<rect x="359.9" y="282.7" class="st15" width="10.4" height="28.4"/>
			<rect x="372.2" y="278" class="st15" width="10.1" height="33.1"/>
			<rect x="386.2" y="278.4" class="st15" width="7.2" height="32.7"/>
			<rect x="395.5" y="282.9" class="st15" width="7.5" height="28.2"/>
			<rect x="405" y="279.9" class="st15" width="9.6" height="31.2"/>
			<rect x="416.4" y="285.5" class="st15" width="8.3" height="25.5"/>
			<rect x="442.3" y="325.6" class="st15" width="3.5" height="17"/>
			<rect x="447" y="323.2" class="st15" width="5.1" height="19.4"/>
			<rect x="453.6" y="322.8" class="st15" width="7.9" height="19.8"/>
			<rect x="462.9" y="319.5" class="st15" width="9.2" height="23"/>
			<rect x="473.5" y="319.8" class="st15" width="5.5" height="22.7"/>
			<rect x="480.6" y="323" class="st15" width="9.1" height="19.6"/>
			<rect x="490.9" y="320.9" class="st15" width="7.3" height="21.7"/>
			<rect x="499.2" y="321.2" class="st15" width="6.3" height="21.4"/>
			<rect x="228.3" y="321.8" class="st15" width="6.3" height="21.6"/>
			<rect x="235.6" y="321.4" class="st15" width="3.8" height="22.1"/>
			<rect x="240.6" y="319.9" class="st15" width="5" height="23.4"/>
			<rect x="247" y="325.6" class="st15" width="9.6" height="17.8"/>
			<rect x="257.2" y="318.9" class="st15" width="5.7" height="24.5"/>
			<rect x="264.4" y="321.1" class="st15" width="5.7" height="22.4"/>
			<rect x="271.9" y="318.3" class="st15" width="7.3" height="25.1"/>
			<rect x="280.6" y="320" class="st15" width="9.7" height="23.4"/>
			<rect x="291.8" y="324.4" class="st15" width="6" height="19.1"/>
			<rect x="311.6" y="323.2" class="st15" width="7.3" height="20.2"/>
			<rect x="323.9" y="320.2" class="st15" width="11" height="23.2"/>
			<rect x="346" y="323.6" class="st15" width="5.9" height="19.4"/>
			<rect x="352.9" y="328.3" class="st15" width="4.6" height="14.6"/>
			<rect x="358.3" y="322.5" class="st15" width="4.5" height="20.4"/>
			<rect x="363.5" y="328.3" class="st15" width="5.7" height="14.7"/>
			<rect x="370.2" y="327" class="st15" width="3" height="15.9"/>
			<rect x="391.3" y="323" class="st15" width="7.8" height="20"/>
			<rect x="426.6" y="323.6" class="st15" width="7.4" height="19.4"/>
			<rect x="421" y="328.3" class="st15" width="5.7" height="14.6"/>
			<rect x="413.2" y="322.5" class="st15" width="5.6" height="20.4"/>
			<rect x="404.7" y="328.3" class="st15" width="7" height="14.7"/>
			<rect x="399.7" y="327" class="st15" width="3.7" height="15.9"/>
			<rect x="229.7" y="188.5" class="st15" width="5.1" height="29.2"/>
			<rect x="236.3" y="190.5" class="st15" width="5.7" height="27.1"/>
			
				<rect x="245.9" y="194.6" transform="matrix(0.9944 -0.1054 0.1054 0.9944 -20.3198 27.3385)" class="st15" width="5.3" height="22.7"/>
			<rect x="235.1" y="233.8" class="st15" width="4.6" height="29.6"/>
			<rect x="240.8" y="235.8" class="st15" width="6.3" height="27.6"/>
			<rect x="248.5" y="233.6" class="st15" width="8.7" height="29.7"/>
			<rect x="259.2" y="238.7" class="st15" width="11.7" height="24.7"/>
			<rect x="272.5" y="235.2" class="st15" width="7.1" height="28.2"/>
			<rect x="374.1" y="323" class="st15" width="6.3" height="20"/>
			<rect x="381.4" y="321.5" class="st15" width="7.3" height="21.5"/>
		</g>
	</g>
	<g>
		<rect x="158.3" y="78.9" class="st16" width="31.2" height="19.8"/>
		<g class="st17">
			<path class="st10" d="M168.4,90.4v1.2H164v-0.8l2.1-2.1c0.3-0.3,0.5-0.6,0.7-0.8c0.2-0.2,0.2-0.5,0.2-0.7c0-0.2,0-0.3-0.1-0.5
				c-0.1-0.2-0.2-0.2-0.3-0.3c-0.2-0.1-0.3-0.2-0.5-0.2c-0.5,0-0.8,0.2-1.1,0.7l-0.9-0.7c0.2-0.4,0.5-0.7,0.8-0.9
				c0.3-0.2,0.8-0.3,1.3-0.3c0.3,0,0.5,0.1,0.8,0.2c0.2,0.1,0.5,0.2,0.7,0.4c0.2,0.2,0.4,0.4,0.5,0.6s0.2,0.5,0.2,0.8
				c0,0.4-0.1,0.8-0.2,1.1c-0.2,0.3-0.5,0.7-0.8,1.1l-1.2,1.3l0,0L168.4,90.4L168.4,90.4z"/>
		</g>
		<g class="st17">
			<path class="st10" d="M170.8,91.5c-0.3-0.2-0.6-0.4-0.8-0.7s-0.4-0.6-0.5-1.1c-0.2-0.5-0.2-0.9-0.2-1.5c0-0.5,0.1-1,0.2-1.4
				c0.2-0.4,0.3-0.8,0.5-1.1c0.2-0.3,0.5-0.5,0.8-0.7c0.3-0.2,0.7-0.2,1.1-0.2c0.4,0,0.8,0.1,1.1,0.2c0.3,0.2,0.6,0.4,0.8,0.7
				c0.2,0.3,0.4,0.6,0.5,1.1c0.2,0.5,0.2,0.9,0.2,1.5c0,0.7-0.1,1.3-0.3,1.8c-0.2,0.5-0.5,0.9-0.9,1.2c-0.4,0.3-0.8,0.5-1.4,0.5
				C171.5,91.8,171.1,91.7,170.8,91.5z M172.8,90c0.2-0.4,0.3-0.9,0.3-1.6s-0.1-1.2-0.3-1.6c-0.2-0.4-0.5-0.6-0.9-0.6
				c-0.4,0-0.7,0.2-0.9,0.5c-0.2,0.4-0.3,0.9-0.3,1.6c0,0.5,0.1,0.8,0.2,1.1c0.1,0.3,0.2,0.6,0.5,0.8c0.2,0.2,0.4,0.2,0.7,0.2
				C172.3,90.5,172.6,90.4,172.8,90z"/>
		</g>
		<g class="st17">
			<path class="st10" d="M176.7,86.6l-1.1,0.8l-0.6-1l2-1.5h1.1v6.7h-1.3V86.6z"/>
			<path class="st10" d="M182.4,87.5c0.2,0.1,0.4,0.2,0.5,0.3s0.3,0.3,0.5,0.5c0.2,0.2,0.2,0.4,0.3,0.6s0.1,0.5,0.1,0.7
				c0,0.5-0.1,0.8-0.3,1.1c-0.2,0.3-0.5,0.6-0.8,0.8c-0.4,0.2-0.8,0.3-1.2,0.3c-0.5,0-0.9-0.1-1.3-0.2c-0.4-0.2-0.8-0.5-1-0.8
				L180,90c0.3,0.4,0.8,0.6,1.3,0.6c0.3,0,0.6-0.1,0.8-0.3c0.2-0.2,0.3-0.5,0.3-0.8c0-0.2,0-0.3-0.1-0.5c-0.1-0.2-0.2-0.2-0.2-0.3
				c-0.1-0.1-0.2-0.2-0.4-0.2s-0.3-0.1-0.4-0.1c-0.4,0-0.7,0.1-1,0.3l-0.7-0.2l0.2-3.5h3.6v1.2H181l-0.1,1.3
				c0.3-0.1,0.6-0.2,0.8-0.2C181.9,87.4,182.2,87.5,182.4,87.5z"/>
		</g>
	</g>
	<g>
		<rect x="265.4" y="78.9" class="st16" width="31.2" height="19.8"/>
		<g class="st17">
			<path class="st10" d="M275.5,90.4v1.2h-4.4v-0.8l2.1-2.1c0.3-0.3,0.5-0.6,0.7-0.8s0.2-0.5,0.2-0.7c0-0.2,0-0.3-0.1-0.5
				c-0.1-0.2-0.2-0.2-0.3-0.3c-0.2-0.1-0.3-0.2-0.5-0.2c-0.5,0-0.8,0.2-1.1,0.7l-0.9-0.7c0.2-0.4,0.5-0.7,0.8-0.9
				c0.3-0.2,0.8-0.3,1.3-0.3c0.3,0,0.5,0.1,0.8,0.2c0.2,0.1,0.5,0.2,0.7,0.4c0.2,0.2,0.4,0.4,0.5,0.6c0.2,0.2,0.2,0.5,0.2,0.8
				c0,0.4-0.1,0.8-0.2,1.1c-0.2,0.3-0.5,0.7-0.8,1.1l-1.2,1.3l0,0L275.5,90.4L275.5,90.4z"/>
		</g>
		<g class="st17">
			<path class="st10" d="M278,91.5c-0.3-0.2-0.6-0.4-0.8-0.7s-0.4-0.6-0.5-1.1c-0.2-0.5-0.2-0.9-0.2-1.5c0-0.5,0.1-1,0.2-1.4
				c0.2-0.4,0.3-0.8,0.5-1.1c0.2-0.3,0.5-0.5,0.8-0.7c0.3-0.2,0.7-0.2,1.1-0.2c0.4,0,0.8,0.1,1.1,0.2s0.6,0.4,0.8,0.7
				c0.2,0.3,0.4,0.6,0.5,1.1c0.2,0.5,0.2,0.9,0.2,1.5c0,0.7-0.1,1.3-0.3,1.8c-0.2,0.5-0.5,0.9-0.9,1.2c-0.4,0.3-0.8,0.5-1.4,0.5
				C278.7,91.8,278.3,91.7,278,91.5z M280,90c0.2-0.4,0.3-0.9,0.3-1.6s-0.1-1.2-0.3-1.6c-0.2-0.4-0.5-0.6-0.9-0.6
				c-0.4,0-0.7,0.2-0.9,0.5s-0.3,0.9-0.3,1.6c0,0.5,0.1,0.8,0.2,1.1c0.1,0.3,0.2,0.6,0.5,0.8c0.2,0.2,0.4,0.2,0.7,0.2
				C279.4,90.5,279.7,90.4,280,90z"/>
		</g>
		<g class="st17">
			<path class="st10" d="M283.9,86.6l-1.1,0.8l-0.6-1l2-1.5h1.1v6.7h-1.3V86.6z"/>
			<path class="st10" d="M290,87.5c0.2,0.1,0.5,0.2,0.6,0.4s0.3,0.4,0.5,0.7c0.1,0.3,0.2,0.6,0.2,0.9c0,0.5-0.1,0.8-0.3,1.1
				c-0.2,0.3-0.5,0.6-0.8,0.8s-0.8,0.3-1.2,0.3c-0.3,0-0.7-0.1-0.9-0.2c-0.3-0.2-0.5-0.3-0.8-0.5s-0.4-0.5-0.5-0.8s-0.2-0.7-0.2-1.1
				c0-0.5,0.1-1.1,0.2-1.5s0.4-0.9,0.7-1.3s0.7-0.7,1.1-0.9s0.9-0.5,1.5-0.5l0.4,1.1c-0.6,0.2-1.1,0.4-1.5,0.7
				c-0.4,0.3-0.7,0.7-0.8,1.1l0,0c0.4-0.2,0.8-0.3,1.2-0.3C289.5,87.4,289.8,87.5,290,87.5z M289.7,90.3c0.2-0.2,0.3-0.5,0.3-0.8
				c0-0.3-0.1-0.5-0.3-0.7c-0.2-0.2-0.5-0.3-0.8-0.3c-0.2,0-0.5,0.1-0.6,0.2c-0.2,0.1-0.4,0.2-0.5,0.5v0.1c0,0.4,0.1,0.8,0.3,1
				c0.2,0.2,0.5,0.4,0.8,0.4C289.2,90.6,289.5,90.4,289.7,90.3z"/>
		</g>
	</g>
	<g>
		<rect x="372.6" y="78.9" class="st16" width="31.2" height="19.8"/>
		<g class="st17">
			<path class="st10" d="M382.7,90.4v1.2h-4.4v-0.8l2.1-2.1c0.3-0.3,0.5-0.6,0.7-0.8s0.2-0.5,0.2-0.7c0-0.2,0-0.3-0.1-0.5
				c-0.1-0.2-0.2-0.2-0.3-0.3c-0.2-0.1-0.3-0.2-0.5-0.2c-0.5,0-0.8,0.2-1.1,0.7l-0.9-0.7c0.2-0.4,0.5-0.7,0.8-0.9
				c0.3-0.2,0.8-0.3,1.3-0.3c0.3,0,0.5,0.1,0.8,0.2c0.2,0.1,0.5,0.2,0.7,0.4c0.2,0.2,0.4,0.4,0.5,0.6c0.2,0.2,0.2,0.5,0.2,0.8
				c0,0.4-0.1,0.8-0.2,1.1c-0.2,0.3-0.5,0.7-0.8,1.1l-1.2,1.3l0,0L382.7,90.4L382.7,90.4z"/>
		</g>
		<g class="st17">
			<path class="st10" d="M385.2,91.5c-0.3-0.2-0.6-0.4-0.8-0.7c-0.2-0.3-0.4-0.6-0.5-1.1c-0.2-0.5-0.2-0.9-0.2-1.5
				c0-0.5,0.1-1,0.2-1.4c0.2-0.4,0.3-0.8,0.5-1.1c0.2-0.3,0.5-0.5,0.8-0.7c0.3-0.2,0.7-0.2,1.1-0.2s0.8,0.1,1.1,0.2s0.6,0.4,0.8,0.7
				c0.2,0.3,0.4,0.6,0.5,1.1c0.2,0.5,0.2,0.9,0.2,1.5c0,0.7-0.1,1.3-0.3,1.8c-0.2,0.5-0.5,0.9-0.9,1.2s-0.8,0.5-1.4,0.5
				C385.8,91.8,385.5,91.7,385.2,91.5z M387.1,90c0.2-0.4,0.3-0.9,0.3-1.6s-0.1-1.2-0.3-1.6c-0.2-0.4-0.5-0.6-0.9-0.6
				s-0.7,0.2-0.9,0.5c-0.2,0.4-0.3,0.9-0.3,1.6c0,0.5,0.1,0.8,0.2,1.1c0.1,0.3,0.2,0.6,0.5,0.8c0.2,0.2,0.4,0.2,0.7,0.2
				C386.6,90.5,386.9,90.4,387.1,90z"/>
		</g>
		<g class="st17">
			<path class="st10" d="M391.1,86.6l-1.1,0.8l-0.6-1l2-1.5h1.1v6.7h-1.3V86.6z"/>
			<path class="st10" d="M397.6,85v0.9l-2.3,5.9l-1.3-0.2l2.1-5.4h-2.7v-1.1L397.6,85L397.6,85z"/>
		</g>
	</g>
	<g>
		<g>
			<rect x="479.8" y="78.9" class="st16" width="31.2" height="19.8"/>
		</g>
		<g>
			<path class="st10" d="M489.5,90.3v1.2H485l0-0.9l2.1-2.3c0.3-0.3,0.5-0.6,0.7-0.9s0.2-0.5,0.2-0.7c0-0.2,0-0.3-0.1-0.5
				s-0.2-0.3-0.3-0.3c-0.1-0.1-0.3-0.1-0.5-0.1c-0.5,0-0.9,0.2-1.2,0.7l-1-0.7c0.2-0.4,0.5-0.7,0.9-0.9s0.8-0.4,1.4-0.4
				c0.3,0,0.6,0,0.8,0.1c0.3,0.1,0.5,0.2,0.7,0.4s0.4,0.4,0.5,0.6c0.1,0.3,0.2,0.5,0.2,0.9c0,0.4-0.1,0.8-0.2,1.1
				c-0.2,0.3-0.5,0.7-0.9,1.2l-1.3,1.3v0H489.5z"/>
			<path class="st10" d="M492,91.3c-0.3-0.2-0.6-0.4-0.8-0.7s-0.4-0.7-0.5-1.1s-0.2-0.9-0.2-1.5c0-0.5,0.1-1,0.2-1.4
				s0.3-0.8,0.5-1.1s0.5-0.5,0.8-0.7s0.7-0.3,1.1-0.3c0.4,0,0.8,0.1,1.1,0.2c0.3,0.2,0.6,0.4,0.8,0.7s0.4,0.7,0.5,1.1
				s0.2,0.9,0.2,1.5c0,0.7-0.1,1.3-0.3,1.8c-0.2,0.5-0.5,0.9-0.9,1.2s-0.9,0.4-1.4,0.4C492.7,91.6,492.4,91.5,492,91.3z M494.1,89.7
				c0.2-0.4,0.3-0.9,0.3-1.7c0-0.7-0.1-1.3-0.3-1.7c-0.2-0.4-0.5-0.6-0.9-0.6c-0.4,0-0.7,0.2-0.9,0.6c-0.2,0.4-0.3,0.9-0.3,1.7
				c0,0.5,0.1,0.9,0.2,1.2s0.2,0.6,0.4,0.8s0.4,0.3,0.7,0.3C493.5,90.3,493.8,90.1,494.1,89.7z"/>
			<path class="st10" d="M498.2,86.3l-1.2,0.9l-0.7-1l2.1-1.5h1.1v6.9h-1.4V86.3z"/>
			<path class="st10" d="M505.3,88.5c0.2,0.3,0.3,0.7,0.3,1.1c0,0.4-0.1,0.7-0.3,1.1c-0.2,0.3-0.5,0.5-0.9,0.7s-0.8,0.2-1.3,0.2
				c-0.5,0-0.9-0.1-1.3-0.2c-0.4-0.2-0.7-0.4-0.9-0.7s-0.3-0.6-0.3-1c0-0.4,0.1-0.8,0.3-1.1c0.2-0.3,0.5-0.5,0.9-0.7v0
				c-0.2-0.1-0.4-0.3-0.6-0.5c-0.2-0.3-0.3-0.6-0.3-0.9c0-0.4,0.1-0.7,0.3-1c0.2-0.3,0.4-0.5,0.8-0.6c0.3-0.1,0.7-0.2,1.1-0.2
				c0.4,0,0.8,0.1,1.1,0.2c0.3,0.1,0.6,0.3,0.8,0.6s0.3,0.6,0.3,1c0,0.3-0.1,0.6-0.3,0.9s-0.4,0.4-0.6,0.5v0
				C504.8,87.9,505.1,88.1,505.3,88.5z M504,90.1c0.2-0.2,0.3-0.4,0.3-0.7c0-0.2,0-0.4-0.1-0.5c-0.1-0.2-0.2-0.3-0.4-0.4
				c-0.2-0.1-0.4-0.1-0.6-0.1c-0.3,0-0.6,0.1-0.8,0.3c-0.2,0.2-0.3,0.4-0.3,0.7c0,0.3,0.1,0.5,0.3,0.7c0.2,0.2,0.5,0.3,0.8,0.3
				C503.5,90.4,503.8,90.3,504,90.1z M502.7,85.8c-0.1,0.1-0.2,0.2-0.3,0.3c-0.1,0.1-0.1,0.3-0.1,0.4c0,0.1,0,0.3,0.1,0.4
				s0.2,0.2,0.3,0.3c0.1,0.1,0.3,0.1,0.5,0.1c0.3,0,0.5-0.1,0.6-0.2s0.2-0.3,0.2-0.6s-0.1-0.4-0.3-0.6c-0.2-0.1-0.4-0.2-0.6-0.2
				C503,85.7,502.9,85.7,502.7,85.8z"/>
		</g>
	</g>
</g>
<linearGradient id="SVGSSID_4_" gradientUnits="userSpaceOnUse" x1="317.6336" y1="414.8058" x2="317.6336" y2="349.6695">
	<stop  offset="0" style="stop-color:#DFE3ED;stop-opacity:0"/>
	<stop  offset="0.6174" style="stop-color:#DFE3ED;stop-opacity:0.7542"/>
	<stop  offset="0.6959" style="stop-color:#DFE3ED;stop-opacity:0.85"/>
	<stop  offset="1" style="stop-color:#DFE3ED"/>
</linearGradient>
<polygon class="st18" points="630.1,401.3 560.6,349.7 92.8,349.7 5.2,401.3 "/>
<path class="st19" d="M92.6,349.6c440.9,0,537.2,0,425.4,0"/>
<path class="st20" d="M203.1,203.3"/>
<g>
	<linearGradient id="SVGSSID_5_" gradientUnits="userSpaceOnUse" x1="425.2164" y1="365.762" x2="429.2617" y2="388.7037">
		<stop  offset="0" style="stop-color:#DFE3ED;stop-opacity:0"/>
		<stop  offset="0.8481" style="stop-color:#DFE3ED;stop-opacity:0.85"/>
		<stop  offset="1" style="stop-color:#DFE3ED"/>
	</linearGradient>
	<polygon class="st21" points="465.3,382.4 443.9,383.7 389.2,372.1 426.2,372.1 	"/>
	<path class="st22" d="M441.6,364.7c-3.4,0.5-3.4,1.8-3.4,2.3s1,0,1,0c5.1-4.1,7.4,1.8,7.4,1.8c1.2,2.5,3.3,1.8,3.3,1.8v8.6
		l-0.7,0.4c-1.8,0.9-5.4-0.1-5.4-0.1c2.1,0.7,2.3,3.8,2.3,3.8c-1.5,1-4.8,0.1-5-1.1s0-3.4-3.5-4.8c-3.3-1.4-2.9-6.7-2.9-6.7
		c-3.7-6.3,3.4-9.9,3.4-9.9s1.3-1,3.6,2.8C442.2,363.9,442.1,364.5,441.6,364.7z"/>
	
		<linearGradient id="SVGSSID_6_" gradientUnits="userSpaceOnUse" x1="299.5631" y1="1052.1151" x2="306.9641" y2="1052.1151" gradientTransform="matrix(1 0 0 1 144 -680)">
		<stop  offset="0" style="stop-color:#D1D3D4"/>
		<stop  offset="0.4378" style="stop-color:#B8BABC;stop-opacity:0.5622"/>
		<stop  offset="1" style="stop-color:#939598;stop-opacity:0"/>
	</linearGradient>
	<path class="st23" d="M444.2,366.1c0,0-0.2,2.2-0.5,3.2c-0.3,1.1-0.1,1.8,0.7,2.1c0.8,0.4,2.4,1.2,2.3,2.9
		c-0.1,1.7-0.5,2.2,0.6,2.8c1.2,0.6-1,0.7,2.2,1.1c3.3,0.4,0-7.8,0-7.8s-1.1,0.6-2-0.7C446.7,368.3,446.2,366.3,444.2,366.1z"/>
	<path class="st24" d="M449.6,364.2v18.9l15.3-0.8c1.5-0.1,2.6-1.3,2.6-2.8l-0.1-11.1c0-1.4-1.1-2.6-2.5-2.7L449.6,364.2z"/>
	<g class="st0">
		<path class="st25" d="M449.6,383.2c1.8-4,5.7-2.3,8.7-3.2c2.4-0.6,1.7-3.8,3.5-5.3c2.1-2.4,3.7-2.4,5.6-1.5l0,6.3
			c0,1.6-1,2.8-2.8,2.9L449.6,383.2z"/>
	</g>
	<g>
		<g>
			<linearGradient id="SVGSSID_7_" gradientUnits="userSpaceOnUse" x1="381.3763" y1="383.1857" x2="500.2428" y2="383.1857">
				<stop  offset="0" style="stop-color:#DFE3ED;stop-opacity:0"/>
				<stop  offset="0.3175" style="stop-color:#DFE3ED;stop-opacity:0.32"/>
				<stop  offset="0.5913" style="stop-color:#DFE3ED;stop-opacity:0.59"/>
				<stop  offset="0.8481" style="stop-color:#DFE3ED;stop-opacity:0.85"/>
				<stop  offset="1" style="stop-color:#DFE3ED"/>
			</linearGradient>
			<path class="st26" d="M467.6,379.4c2.3,0.2,4.4,0.7,6.6,1.1c2.2,0.4,4.5,0.4,6.7,0.4c4.7,0.1,9.4-0.1,14.1,0.3
				c1.5,0.1,3.1,0.3,4.5,0.7c1,0.3-1.5,0.7-1.8,0.8c-1.6,0.3-3.2,0.3-4.8,0.4c-5.6,0.1-11.4,0.4-17,0.7c-5.1,0.3-10,1.8-15.3,1.9
				c-5.2,0.1-10.3-0.1-15.6-0.1c-12,0-24.1,0.4-36.1,0.4c-9.1,0-18.5-0.7-27.4,1c-0.2,0.1-0.1,0.4,0.1,0.4c5.9-1,12-1,18-1
				s12.1,0,18.1,0c11.6-0.1,23.2-0.5,34.7-0.3c4.8,0.1,10,0.4,14.7-0.6c5.7-1.2,11.4-1.5,17.2-1.8c4.9-0.2,10,0.3,14.9-0.8
				c2.4-0.6-0.1-1.4-1.2-1.5c-4.7-0.8-9.5-0.7-14.2-0.7c-2.9,0-5.7,0-8.6-0.3c-2.6-0.3-5.1-1-7.7-1.2
				C467.3,379,467.4,379.4,467.6,379.4L467.6,379.4z"/>
		</g>
	</g>
</g>
<g>
	<g>
		<g>
			<rect x="566.7" y="304.3" class="st27" width="106.9" height="1"/>
		</g>
		<polygon class="st27" points="586.1,305.6 583.4,307.9 580.8,305.6 580.8,305.3 586.1,305.3 		"/>
		<polygon class="st27" points="569.4,345.3 581.7,306.9 583.3,308.1 571.9,345.3 		"/>
		<polygon class="st27" points="597.4,345.3 585.2,306.9 583.6,308.1 595,345.3 		"/>
		<g>
			<path class="st27" d="M590.7,331.6h-14.5l-1,3.1h16.4L590.7,331.6z M577.8,333.8c-0.3,0-0.6-0.3-0.6-0.6c0-0.3,0.3-0.6,0.6-0.6
				c0.4,0,0.6,0.3,0.6,0.6C578.4,333.5,578.1,333.8,577.8,333.8z M588.6,333.8c-0.3,0-0.6-0.3-0.6-0.6c0-0.3,0.3-0.6,0.6-0.6
				c0.3,0,0.6,0.3,0.6,0.6C589.3,333.5,589,333.8,588.6,333.8z"/>
		</g>
		<rect x="634.1" y="304.9" class="st27" width="28.2" height="41.2"/>
		<rect x="635.5" y="305.8" class="st8" width="25.4" height="38.5"/>
		<polygon class="st28" points="642.8,312.5 644.2,314 653.3,314 654.8,312.4 		"/>
		<g>
			<polygon class="st28" points="653.1,307.7 654.6,305.8 642.5,305.9 644,307.7 			"/>
			<rect x="635.6" y="312" class="st28" width="25" height="0.5"/>
			<polygon class="st28" points="635.4,318.1 635.4,318.6 644.3,318.6 642.8,318.6 644.2,320.2 653.3,320.2 654.7,318.6 
				660.9,318.6 660.9,318.1 			"/>
			<polygon class="st28" points="635.3,334.7 644.2,334.7 642.7,334.7 644.1,336.2 653.2,336.2 654.6,334.7 660.7,334.7 
				660.7,334.2 635.3,334.2 			"/>
		</g>
		<g class="st29">
			<path class="st28" d="M592,303.3c-0.7,0-1.3-0.3-1.7-0.6c-0.4-0.5-0.5-1.2-0.5-1.2c0-0.8,0.2-1.5,0.6-1.9
				c0.4-0.4,0.8-0.4,0.8-0.4h1.1v0.7h-1c-0.1,0-0.8,0.1-0.8,1.5l0,0c0,0,0.1,0.4,0.3,0.7c0.1,0.1,0.6,0.4,1.5,0.4v0.7
				C592.2,303.2,592.1,303.3,592,303.3z"/>
		</g>
		
			<linearGradient id="SVGSSID_8_" gradientUnits="userSpaceOnUse" x1="448.8089" y1="977.8901" x2="448.8089" y2="962.6789" gradientTransform="matrix(1 0 0 1 144 -680)">
			<stop  offset="0" style="stop-color:#FFFFFF"/>
			<stop  offset="0.1426" style="stop-color:#FFFFFF;stop-opacity:0.8574"/>
			<stop  offset="1" style="stop-color:#FFFFFF;stop-opacity:0"/>
		</linearGradient>
		<path class="st30" d="M595.2,297.9c0,0-0.3-2.2-1.2-3.2c-0.9-1-5.9-3.8-4.3-8.7c1.5-4.9,5.3-4.3,5.2,1.6c0,0,1.9,0,1.3,1.8
			c-0.6,1.8-2.7,2.1-1.5,4.6c0.4,0.9,0.6,1,0.6,1.5C595.4,296.1,595.3,296.8,595.2,297.9z"/>
		
			<linearGradient id="SVGSSID_9_" gradientUnits="userSpaceOnUse" x1="452.8432" y1="975.0126" x2="452.8432" y2="972.1304" gradientTransform="matrix(1 0 0 1 144 -680)">
			<stop  offset="0" style="stop-color:#FFFFFF"/>
			<stop  offset="0.1428" style="stop-color:#FFFFFF;stop-opacity:0.8572"/>
			<stop  offset="1" style="stop-color:#FFFFFF;stop-opacity:0"/>
		</linearGradient>
		<path class="st31" d="M596.2,292.9c0,0-0.9,2.7,0.1,2c1-0.6,1.8-1.6,1.6-2.2c-0.2-0.4-0.5-0.9-1.2-0.4
			C596.4,292.5,596.3,292.6,596.2,292.9z"/>
		<line class="st19" x1="566.1" y1="345.6" x2="573.5" y2="345.6"/>
		<line class="st19" x1="593.2" y1="345.6" x2="599.6" y2="345.6"/>
		<line class="st19" x1="631.3" y1="346.2" x2="665.6" y2="346.2"/>
		<path class="st24" d="M592.3,299.1v3.7c0,0,0,0.4,0.1,0.7c0.1,0.4,0.4,0.8,1.5,0.8h4.4h0.4v-5c0,0,0.1-1-0.6-1h-5
			C593,298.3,592.4,298.4,592.3,299.1z"/>
	</g>
	<g>
		<g class="st32">
			<path class="st28" d="M652.4,292.7c0-0.2,0-0.5,0-0.7c0.2-1,0-2-0.7-2.7c-0.2-0.3-0.5-0.4-0.6-0.8c-0.2-0.5-0.3-0.8-0.8-1.1
				c-0.6-0.5-1.4-0.8-1.9-1.3c-0.4-0.4-0.5-1-0.9-1.4c-0.4-0.5-1-0.9-1.7-1c-0.2,0-0.6-0.1-0.8,0.1c-0.3,0.3,0.1,1.2,0.3,1.4
				c0.7,1.4,1.7,2.7,2.7,3.9c0.2,0.3,0.5,0.4,0.7,0.6c0.1,0,0.1,0.1,0.2,0.2c0.2,0.3,0.2,0.7,0.3,1c0.4,0.6,1.1,0.7,1.6,1.1
				c0.2,0.1,0.3,0.2,0.3,0.4C651.3,292.2,652.3,293.9,652.4,292.7z"/>
		</g>
		<g class="st0">
			<path class="st28" d="M654.1,298.3c0.1,0,0.2,0.1,0.2,0.2c0.2,0.1,0.4,0,0.5,0c0.2,0,0.3,0,0.5-0.1s0.3-0.1,0.5-0.1
				c0.2,0,0.3,0,0.5-0.1c0.3-0.1,0.7,0,1,0c0.3,0,0.6,0,0.9,0c0.2,0,0.5,0.1,0.6,0c0-0.2-0.4-0.2-0.5-0.3c-0.1-0.1-0.1-0.2-0.2-0.2
				c-0.3-0.2-0.7-0.1-1-0.2c0,0,0-0.1-0.1-0.1c-0.2-0.1-0.4-0.1-0.5-0.1c-0.3,0-0.8,0.1-1.1,0c0,0,0-0.1,0-0.1c-0.1,0-0.2,0-0.3,0
				c-0.5,0-1,0.3-1.4,0.8C653.8,297.9,653.8,298,654.1,298.3z"/>
		</g>
		<g class="st0">
			<path class="st28" d="M653.3,295.7c0-0.1-0.3-0.2-0.4-0.3c-0.1-0.2-0.1-0.2-0.2-0.3c-0.2-0.1-0.3-0.2-0.4-0.2
				c-0.2,0-0.3-0.2-0.4-0.3c-0.2-0.1-0.3-0.2-0.5-0.2c-0.3-0.1-0.5-0.4-0.7-0.6c-0.2-0.2-0.5-0.4-0.7-0.6c-0.2-0.2-0.3-0.3-0.5-0.4
				c-0.1,0.2,0.2,0.5,0.2,0.6c0,0.1,0,0.2,0,0.3c0.1,0.3,0.5,0.5,0.6,0.8c0,0,0,0.1,0,0.1c0,0.2,0.2,0.3,0.3,0.4
				c0.2,0.2,0.7,0.5,0.8,0.7c0,0,0,0.1,0,0.1c0,0.1,0.2,0.2,0.3,0.2c0.5,0.3,1,0.8,1.5,0.7C653.2,296.7,653.4,296.2,653.3,295.7z"/>
		</g>
		<g class="st0">
			<path class="st28" d="M654.6,296.7c0.4,0.2,0.8,0.4,1.2,0.3c0.2,0,0.5,0,0.8-0.1c0,0,0.1-0.1,0.1-0.1c0.2-0.1,0.3-0.1,0.5-0.1
				c0.5,0,0.9,0,1.3,0.1c0.3,0,0.6,0.1,0.9,0.1c0.2,0,0.1-0.1,0-0.2c-0.1-0.1,0-0.2,0.1-0.2c0.1-0.2-0.2-0.2-0.4-0.3
				c-0.3-0.1-0.5-0.1-0.8-0.2c-0.1,0-0.2,0-0.3-0.1c0,0-0.1-0.1-0.1-0.1c-0.2-0.2-0.5-0.1-0.8-0.1c-0.4,0-0.8,0-1.2-0.1
				c-0.2,0-0.4,0-0.5,0.1c-0.2,0.1-0.4,0.2-0.6,0.3c-0.1,0.1-0.3,0.2-0.4,0.3C654.5,296.4,654.5,296.6,654.6,296.7z"/>
		</g>
		<g class="st32">
			<path class="st28" d="M654,297.2c0.2-1.1,0.7-1.9,1.4-2.7c0.5-0.6,1.4-0.8,2.2-0.8c0.6-0.1,1.6-0.2,2.1,0.1c0,0.3-0.4,0.8-0.6,1
				c-0.2,0.3-0.5,0.3-0.9,0.5c-0.4,0.2-0.6,0.5-1.1,0.6c-0.7,0.2-1.6-0.2-2.2,0.3c-0.4,0.3-0.5,0.9-0.9,1.1L654,297.2z"/>
		</g>
		<g class="st32">
			<path class="st28" d="M654.2,294.9c0.8,0,1.4-0.3,1.9-1c0.4-0.6,1.4-0.5,1.9-1.1c0.2-0.2,0.3-0.5,0.5-0.6
				c0.4-0.3,0.8-0.3,1.3-0.5c0.5-0.2,3.6-1.9,2.6-2.5c-0.5-0.3-1.3-0.1-1.9-0.1c-0.4,0-0.9,0-1.3,0c-1,0-1.8,0.2-2.6,0.6
				c-0.4,0.2-0.8,0.5-1.2,0.6c-0.6,0.2-1.3,0.5-1.6,1.2c-0.4,0.9,0.1,2.1,0.1,3C653.8,294.6,653.8,294.9,654.2,294.9z"/>
		</g>
		<g class="st0">
			<path class="st28" d="M653.8,293c-0.3-0.4-0.3-0.7-0.3-1c0-0.9,0.5-1.7,1.1-2.3c0.9-1,2.1-1.3,2.9-2.2c0.8-1,1.9-0.6,3-0.6
				c0.4,0,0.8,0,1.1,0c0.2,0,0.7-0.1,0.9,0c0.3,0.3-0.7,0.8-1,1c-0.9,0.7-1.7,1.1-2.8,1.4c-0.3,0.1-0.5,0.2-0.7,0.3
				c-0.3,0.3-0.8,0.3-1.2,0.3c-0.5,0-1.2-0.2-1.4,0.4c-0.2,0.3-0.3,0.5-0.5,0.7c-0.5,0.7-0.4,1.6-1,2.2L653.8,293z"/>
		</g>
		<g class="st0">
			<path class="st28" d="M654.1,295.1c0.1-0.5,0-0.9,0-1.4s0.1-1,0.1-1.4c0.1-1.5,0-3.2,1.3-4.2c0.5-0.3,0.8-0.5,1.1-1
				c0.4-0.8,1-1.6,1.6-2.3c0.2-0.2,0.2-0.5,0.3-0.7c0.2-0.2,0.5-0.3,0.6-0.5c0.1-0.2-0.1-0.8-0.2-0.9c-0.2-0.3-0.6-0.2-1-0.1
				c-0.8,0.1-1.7,0.5-2.4,0.9c-0.7,0.4-1,0.9-1.6,1.4c-0.2,0.2-0.5,0.3-0.7,0.6c-0.4,0.5-0.5,1.2-0.5,1.8c0.2,1.5,0.2,2.9,0.2,4.4
				c0,0.8,0.1,1.8,0.3,2.6c0,0.3,0.2,0.9,0.5,1C654,295.2,654.1,295.3,654.1,295.1z"/>
		</g>
		<g>
			<path class="st28" d="M653.3,299.1c0,0,0-0.7-0.1-1.8c-0.1-1.1-0.3-2.5-0.9-3.8c-0.1-0.3-0.3-0.6-0.5-1c-0.1-0.2-0.2-0.3-0.3-0.5
				c-0.1-0.2-0.2-0.3-0.3-0.4c-0.1-0.1-0.2-0.3-0.3-0.4c-0.1-0.1-0.2-0.2-0.3-0.3c-0.1-0.1-0.2-0.2-0.3-0.3
				c-0.1-0.1-0.2-0.2-0.3-0.3c-0.1-0.1-0.2-0.2-0.3-0.2c-0.1-0.1-0.2-0.1-0.3-0.2c-0.2-0.1-0.4-0.2-0.5-0.3
				c-0.3-0.1-0.5-0.2-0.5-0.2l0,0c0,0,0.2,0.1,0.5,0.2c0.2,0.1,0.3,0.2,0.5,0.2c0.1,0,0.2,0.1,0.3,0.2c0.1,0.1,0.2,0.2,0.3,0.2
				c0.1,0.1,0.2,0.2,0.3,0.3c0.1,0.1,0.2,0.2,0.3,0.3c0.1,0.1,0.2,0.2,0.3,0.3c0.1,0.1,0.2,0.3,0.3,0.4c0.1,0.1,0.2,0.3,0.3,0.4
				c0.1,0.2,0.2,0.3,0.3,0.5c0.2,0.3,0.3,0.6,0.5,1s0.2,0.7,0.3,1c0.1,0.3,0.2,0.7,0.2,1c0.1,0.3,0.1,0.6,0.2,1
				c0,0.3,0.1,0.6,0.1,0.9C653.3,298.3,653.3,299,653.3,299.1L653.3,299.1z"/>
			<path class="st28" d="M655.3,286.4c0,0-0.1,0.2-0.3,0.5c-0.1,0.2-0.2,0.4-0.3,0.6c0,0.1-0.1,0.2-0.2,0.4c0,0.2-0.1,0.3-0.2,0.4
				c0,0.2-0.1,0.3-0.2,0.5c0,0.2-0.1,0.3-0.2,0.5c0,0.2-0.1,0.3-0.1,0.5c0,0.2-0.1,0.4-0.1,0.6c0,0.2,0,0.4-0.1,0.6
				c0,0.2,0,0.4,0,0.6c0,0.2,0,0.4,0,0.6c0,0.2,0,0.4,0,0.6c0,0.4,0.1,0.8,0.2,1.2c0,0.4,0.1,0.8,0.2,1.2c0,0.4,0.1,0.8,0,1.1
				c0,0.4-0.1,0.7-0.2,1s-0.2,0.6-0.3,0.8c-0.1,0.2-0.2,0.8-0.3,0.9c-0.2,0.3-0.3,0.2-0.3,0.2l0,0c0,0,0.1-0.2,0.3-0.5
				c0.1-0.2,0.2-0.3,0.3-0.6c0.1-0.2,0.2-0.5,0.3-0.8c0.1-0.3,0.2-0.6,0.2-1c0-0.3,0-0.7,0-1.1s-0.1-0.8-0.2-1.2
				c0-0.4-0.1-0.8-0.2-1.3c0-0.2,0-0.4,0-0.6c0-0.2,0-0.4,0-0.6s0-0.4,0-0.6c0-0.2,0-0.4,0.1-0.6c0-0.2,0.1-0.4,0.1-0.6
				c0-0.2,0.1-0.4,0.1-0.5c0-0.2,0.1-0.3,0.2-0.5c0-0.2,0.1-0.3,0.2-0.5c0-0.2,0.1-0.3,0.2-0.4c0-0.1,0.1-0.3,0.2-0.4
				c0.1-0.2,0.2-0.4,0.3-0.6C655.1,286.6,655.3,286.4,655.3,286.4L655.3,286.4z"/>
			<path class="st28" d="M657,288.5c0,0-0.1,0-0.3,0.1c-0.2,0.1-0.4,0.2-0.7,0.3c-0.3,0.2-0.6,0.4-0.8,0.6c-0.2,0.1-0.3,0.3-0.4,0.5
				c-0.1,0.2-0.2,0.3-0.3,0.5c-0.1,0.2-0.2,0.4-0.3,0.6c0,0.1-0.1,0.2-0.1,0.3c0,0.1,0,0.2-0.1,0.3c0,0.1,0,0.2,0,0.3s0,0.2,0,0.3
				s0,0.2,0,0.3s0,0.2,0,0.2c0,0.2,0,0.3,0,0.4s0,0.2,0,0.3c0,0.2,0,0.3,0,0.3l0,0c0,0,0-0.1,0-0.3c0-0.1,0-0.2,0-0.3
				c0-0.1,0-0.3,0-0.4c0-0.1,0-0.2,0-0.2s0-0.2,0-0.3c0-0.2,0-0.4,0.1-0.6c0-0.1,0-0.2,0.1-0.3c0-0.1,0.1-0.2,0.1-0.3
				c0.1-0.2,0.2-0.4,0.3-0.6c0.1-0.2,0.2-0.3,0.3-0.5c0.1-0.2,0.3-0.3,0.4-0.5c0.3-0.3,0.6-0.5,0.8-0.6c0.3-0.2,0.5-0.3,0.7-0.3
				C656.9,288.5,657,288.5,657,288.5L657,288.5z"/>
			<path class="st28" d="M655.7,291.5c0,0-0.1,0-0.2,0.1c0,0-0.1,0.1-0.2,0.1c-0.1,0-0.1,0.1-0.2,0.2c0,0-0.1,0.1-0.1,0.1
				s-0.1,0.1-0.1,0.1c-0.1,0.1-0.1,0.2-0.2,0.3c0,0.1-0.1,0.2-0.2,0.3c0,0.1,0,0.1-0.1,0.2c0,0.1,0,0.1-0.1,0.2l-0.1,0.2
				c0,0.1,0,0.1,0,0.2s0,0.1,0,0.2s0,0.1,0,0.2c0,0.1,0,0.2,0,0.3c0,0.1,0,0.2,0,0.3c0,0.2,0,0.4,0,0.5c0,0.1,0,0.2,0,0.2l0,0
				c0,0,0-0.1,0-0.2c0-0.1,0-0.1,0-0.2c0-0.1,0-0.2,0-0.3c0-0.1,0-0.2,0-0.3c0-0.1,0-0.2,0-0.4c0-0.1,0-0.1,0-0.2s0-0.1,0-0.2
				c0-0.1,0-0.1,0-0.2l0.1-0.2c0-0.1,0-0.1,0.1-0.2c0-0.1,0-0.1,0.1-0.2c0-0.1,0.1-0.2,0.2-0.3c0.1-0.1,0.1-0.2,0.2-0.3
				c0,0,0.1-0.1,0.1-0.1c0,0,0.1-0.1,0.1-0.1c0.1-0.1,0.2-0.2,0.2-0.2c0.1,0,0.1-0.1,0.2-0.1C655.6,291.5,655.7,291.5,655.7,291.5
				L655.7,291.5z"/>
			<path class="st28" d="M657.5,295.1c0,0-0.1,0-0.2,0c-0.1,0-0.1,0-0.2,0c-0.1,0-0.2,0-0.3,0c-0.1,0-0.2,0-0.3,0.1
				c-0.1,0-0.2,0.1-0.3,0.1c0,0-0.1,0-0.2,0.1l-0.1,0l-0.1,0c0,0-0.1,0.1-0.2,0.1c0,0-0.1,0.1-0.2,0.1l-0.2,0.1c0,0-0.1,0.1-0.2,0.2
				c0,0-0.1,0.1-0.2,0.2c0,0-0.1,0.1-0.1,0.2c-0.1,0.1-0.2,0.2-0.2,0.3s-0.2,0.2-0.2,0.3c-0.1,0.1-0.1,0.2-0.2,0.2
				c0,0.1-0.1,0.1-0.1,0.2c-0.1,0.1-0.1,0.2-0.1,0.2l0,0c0,0,0-0.1,0.1-0.2c0,0,0.1-0.1,0.1-0.2c0-0.1,0.1-0.2,0.2-0.2
				s0.1-0.2,0.2-0.3c0.1-0.1,0.2-0.2,0.2-0.3c0,0,0.1-0.1,0.1-0.2c0,0,0.1-0.1,0.2-0.2c0,0,0.1-0.1,0.2-0.2l0.2-0.1
				c0,0,0.1-0.1,0.2-0.1c0.1,0,0.1-0.1,0.2-0.1l0.1,0l0.1,0c0.1,0,0.1,0,0.2-0.1c0.1,0,0.2-0.1,0.3-0.1c0.1,0,0.2,0,0.3,0
				c0.1,0,0.2,0,0.3,0s0.2,0,0.2,0C657.4,295,657.5,295.1,657.5,295.1L657.5,295.1z"/>
			<path class="st28" d="M656.8,296.4C656.8,296.4,656.7,296.4,656.8,296.4c-0.1-0.1-0.2-0.2-0.3-0.2c0,0-0.1,0-0.2,0s-0.1,0-0.2,0
				s-0.2,0-0.2,0s-0.2,0-0.2,0c-0.1,0-0.2,0-0.2,0c-0.1,0-0.2,0-0.2,0c-0.2,0-0.3,0.1-0.4,0.1c-0.1,0-0.2,0.1-0.3,0.1s-0.1,0-0.1,0
				l0,0c0,0,0,0,0.1,0c0,0,0.1,0,0.1,0c0,0,0.1,0,0.2-0.1c0,0,0.1,0,0.2-0.1s0.1,0,0.2,0s0.2,0,0.2,0s0.2,0,0.2,0c0.1,0,0.2,0,0.2,0
				s0.2,0,0.2,0s0.2,0,0.2,0c0.1,0,0.1,0,0.2,0c0.1,0,0.2,0.1,0.2,0.1C656.8,296.4,656.8,296.4,656.8,296.4L656.8,296.4z"/>
			<path class="st28" d="M655.7,297.6c0,0-0.1,0-0.3-0.1c-0.1,0-0.2,0-0.3,0c-0.1,0-0.2,0-0.4,0c-0.1,0-0.1,0-0.2,0s-0.1,0-0.2,0.1
				c0,0-0.1,0-0.2,0.1c0,0-0.1,0-0.2,0.1c0,0-0.1,0-0.1,0.1c0,0-0.1,0-0.1,0c0,0-0.1,0-0.1,0l0,0c0,0,0,0,0.1-0.1c0,0,0,0,0.1-0.1
				c0,0,0.1,0,0.1-0.1c0,0,0.1-0.1,0.2-0.1c0,0,0.1,0,0.2-0.1c0.1,0,0.1,0,0.2,0s0.1,0,0.2,0c0.1,0,0.3,0,0.4,0c0.1,0,0.2,0,0.3,0
				C655.6,297.5,655.7,297.6,655.7,297.6L655.7,297.6z"/>
			<path class="st28" d="M650.3,292.4c0,0,0.2,0,0.4,0.1c0.1,0,0.3,0.1,0.4,0.1c0.1,0,0.2,0.1,0.2,0.1c0.1,0,0.2,0.1,0.2,0.1
				c0.1,0,0.2,0.1,0.2,0.2c0.1,0,0.2,0.1,0.2,0.2c0.1,0.1,0.1,0.1,0.2,0.2c0,0.1,0.1,0.1,0.1,0.2c0,0.1,0.1,0.1,0.1,0.2
				c0,0,0,0.1,0,0.1c0,0.1,0,0.1,0,0.1l0,0c0,0,0,0,0-0.1c0,0,0-0.1-0.1-0.1c0,0-0.1-0.1-0.1-0.2c0,0-0.1-0.1-0.1-0.2
				c0,0-0.1-0.1-0.2-0.2c-0.1-0.1-0.1-0.1-0.2-0.2s-0.2-0.1-0.2-0.2c-0.1,0-0.2-0.1-0.2-0.1c-0.1,0-0.2-0.1-0.2-0.1
				c-0.2-0.1-0.3-0.1-0.4-0.2C650.5,292.5,650.3,292.5,650.3,292.4L650.3,292.4z"/>
			<path class="st28" d="M649.5,294.3c0,0,0.3,0,0.8,0.1c0.5,0.1,1.1,0.3,1.6,0.7c0.2,0.1,0.3,0.2,0.4,0.3c0.1,0.1,0.2,0.2,0.3,0.4
				c0.1,0.1,0.2,0.3,0.2,0.4c0.1,0.1,0.1,0.3,0.2,0.4c0,0.1,0.1,0.2,0.1,0.3c0,0.1,0,0.2,0,0.3c0,0.2,0,0.2,0,0.2l0,0
				c0,0,0-0.1,0-0.2c0-0.1,0-0.2-0.1-0.3c0-0.1-0.1-0.2-0.1-0.3c0-0.1-0.1-0.2-0.2-0.3c-0.1-0.1-0.2-0.2-0.2-0.4
				c-0.1-0.1-0.2-0.2-0.3-0.3c-0.1-0.1-0.2-0.2-0.3-0.3c-0.5-0.4-1.1-0.6-1.6-0.7C649.9,294.3,649.5,294.3,649.5,294.3L649.5,294.3z
				"/>
		</g>
		<g class="st32">
			<path class="st28" d="M653.2,297.1c-0.1,0.1-0.5,0-0.5-0.2c-0.1-0.2-0.3-0.4-0.4-0.6c-0.3-0.4-0.6-0.7-1-1
				c-1.3-0.6-2.6-0.1-3.8-0.1c-0.4,0-0.8-0.1-1.1-0.3c-0.2-0.2-0.5-0.3-0.6-0.6c-0.1-0.2-0.2-0.4-0.3-0.5c-0.2-0.3-0.6-0.1-1-0.1
				c-0.6,0-1.3,0-1.9-0.2c-0.3-0.1-0.5-0.2-0.3-0.4c0.2-0.2,0.6-0.2,0.8-0.3c0.5-0.2,1-0.3,1.4-0.3c0.8-0.1,1.8-0.2,2.7,0.1
				c0.6,0.2,1.2,0.6,1.8,0.8c0.5,0.1,0.9-0.1,1.4,0c0.7,0.2,1.5,0.3,2,0.8c0.6,0.5,0.8,1.3,0.8,2.1
				C653.2,296.5,653.2,297.1,653.2,297.1z"/>
		</g>
		<path class="st33" d="M657,301c0,1.7-1.6,3.2-3.6,3.2s-3.6-1.4-3.6-3.2v-0.8v-0.8h7.2L657,301z"/>
		<rect x="649.4" y="298.8" class="st28" width="8" height="0.7"/>
		<g>
			<rect x="649.4" y="299.8" class="st34" width="8" height="0.3"/>
		</g>
		<g>
			<rect x="649.4" y="300.5" class="st34" width="8" height="0.3"/>
		</g>
		<g class="st0">
			<path class="st28" d="M651.9,293.7c-0.8,0-2.1-0.8-2.8-1.4c-0.7-0.6-0.5-1.4-0.6-2.2c-0.2-1.2-1.7-2.4-0.4-3.6
				c0.9-0.8,0.6,0.8,0.6,1.5c0.1,1.1,0.6,2.2,1.3,3c0.5,0.6,1.9,1.4,1.8,2.4"/>
		</g>
	</g>
	<g>
		<g class="st29">
			<polygon class="st28" points="634.5,343.9 634.2,343.8 634.5,342.8 620.8,335.3 620.9,335 634.9,342.7 			"/>
		</g>
		<g class="st29">
			
				<rect x="617.2" y="338.9" transform="matrix(0.8728 -0.4881 0.4881 0.8728 -85.9637 348.2489)" class="st28" width="15.8" height="0.3"/>
		</g>
		<polygon class="st33" points="613.7,351.4 615.6,351.4 621.3,335 619.8,334.5 		"/>
		<polygon class="st33" points="639.1,351.5 637.3,351.6 631.3,334.5 632.9,333.9 		"/>
		<path class="st24" d="M613.5,330.4c0,0,2.7-16.3,7.4-16.3c0,0,4.9-0.6,9.3-0.1c0,0,2-0.1,3.1,2.2c0,0,3.2,6,4.3,13.7
			c0,0,0,0.3,0.3,0.8c0,0,0.4,0.7-0.1,1c0,0-0.4-0.1-1,0.2c-0.6,0.3-9.5,7.5-20.7,1.1c0,0-0.5-0.3-1-0.6c-0.3-0.2-0.4-0.3-0.9-0.4
			C614.2,331.9,612.6,332,613.5,330.4z"/>
		<path class="st33" d="M615.7,326c0,0,2.1-10.2,3.6-10.6c1.5-0.4,2.9-1.4,11.5-0.6c0,0,1-0.1,1.6,1.3c0,0,2.9,5.9,3.9,12.1
			c0,0,0.4,2.6-0.3,3l-2.8,1.2c0,0,1.1-0.3,0.7-3.2c-0.4-2.9-1-4.5-3.1-6.1c-2.2-1.5-4.2-2-4.8-3.1c-0.6-1-1.2-2.8-2.9-2.8
			c-1.7,0.1-3.2,0.5-4,3.1C619.1,320.4,616.9,325.5,615.7,326z"/>
	</g>
</g>
<path d="M559.2,231.6"/>
<g>
	<g>
		<g>
			<linearGradient id="SVGSSID_10_" gradientUnits="userSpaceOnUse" x1="153.9256" y1="374.1881" x2="157.9356" y2="396.9296">
				<stop  offset="0" style="stop-color:#DFE3ED;stop-opacity:0"/>
				<stop  offset="0.3175" style="stop-color:#DFE3ED;stop-opacity:0.32"/>
				<stop  offset="0.5913" style="stop-color:#DFE3ED;stop-opacity:0.59"/>
				<stop  offset="0.8481" style="stop-color:#DFE3ED;stop-opacity:0.85"/>
				<stop  offset="1" style="stop-color:#DFE3ED"/>
			</linearGradient>
			<polygon class="st35" points="180.9,391.6 174.4,394 130.7,378.3 157.8,378.3 			"/>
			<linearGradient id="SVGSSID_11_" gradientUnits="userSpaceOnUse" x1="118.7479" y1="356.8095" x2="123.6817" y2="384.7907">
				<stop  offset="0" style="stop-color:#DFE3ED;stop-opacity:0"/>
				<stop  offset="0.3175" style="stop-color:#DFE3ED;stop-opacity:0.32"/>
				<stop  offset="0.5913" style="stop-color:#DFE3ED;stop-opacity:0.59"/>
				<stop  offset="0.8481" style="stop-color:#DFE3ED;stop-opacity:0.85"/>
				<stop  offset="1" style="stop-color:#DFE3ED"/>
			</linearGradient>
			<polygon class="st36" points="147.4,375.3 146,380.9 94.1,361.2 113.8,361.2 			"/>
		</g>
		<linearGradient id="SVGSSID_12_" gradientUnits="userSpaceOnUse" x1="139.822" y1="371.8087" x2="229.9039" y2="371.8087">
			<stop  offset="0" style="stop-color:#DFE3ED;stop-opacity:0"/>
			<stop  offset="0.5199" style="stop-color:#DFE3ED;stop-opacity:0.85"/>
			<stop  offset="1" style="stop-color:#DFE3ED"/>
		</linearGradient>
		<path class="st37" d="M178.9,384.9c1.8-0.2,2.7-2.4,1.5-3.8l0,0c0-0.2-1.2-1.9-1.3-2.1c-0.1-0.2-0.1-3.5-0.1-4.1c0,0,0,0,0.1,0
			c0.4,0.1,1.4,0.5,1.7,0.6l-0.3-2.8c-0.1-0.1-0.2-0.1-0.3-0.2c-0.2-0.1-0.3-0.2-0.5-0.3c0,0-0.1,0-0.1-0.1c0.5-0.2,1-0.8-2.3-1.7
			l-1.2-0.3l0,0c1,0.2,1.7,0.2,1.7,0l0-0.3c0-0.2-0.7-0.4-1.6-0.6l-0.6-0.1c0,0,0-0.1-0.1-0.2c0,0-0.3-0.5-0.8-0.7c0,0,0,0,0,0
			c-0.1-0.2-0.2-0.4-0.5-0.6c-0.1-0.1-0.3-0.3-0.5-0.6c0.3,0,1.4-0.1,0.5-0.6c0,0-0.6-0.6-3-1.2c0,0-0.6-0.1-1.6-0.3
			c-0.8-0.2-3.7-0.8-6.3-1.1c-0.3-0.1-0.6-0.2-0.9-0.4c-0.4-0.1-0.8-0.3-1.2-0.4c0.4,0,0.7,0,0.8-0.1c0.1-0.1-0.3-0.3-0.9-0.5
			l12.5-1.7c0.8,0.2,1.5,0.2,1.6,0.1c0.1-0.2-0.5-0.4-1.4-0.6c-0.3-0.1-0.5-0.1-0.8-0.1l-11.4-6.4l-0.1-0.1c0.5,0.1,0.9,0,1,0
			c0.1-0.1-0.2-0.3-0.8-0.4l15.8-2c0.2,0.1,0.5,0.2,0.8,0.2c0.9,0.2,1.7,0.2,1.9,0.1c0-0.1-0.1-0.2-0.3-0.3l5.6,0.5
			c1.1,0.2,2.1,0.3,3.1,0.5c1.3,0.2,2.5,0.4,3.8,0.5c2.5,0.3,4.9,0.6,7.2,0.7c1.2,0.1,2.2,0.2,3.3,0.2c1,0,2,0.1,2.9,0.1
			c1,0,2,0,3.1,0l20.9,1c-2.6-0.4-5.1-0.6-7.3-0.8c-2.6-0.2-5.1-0.3-7.4-0.4l-38.8-3.4c-0.2-0.1-0.5-0.2-0.8-0.2
			c-0.9-0.2-1.7-0.3-1.8-0.1c-0.1,0.1,0.3,0.3,0.9,0.5l-16,2c-0.5,0-1,0-1.4,0c-0.2,0-0.4,0-0.6,0c-0.4,0-0.7,0-0.8,0.1
			c0,0,0,0,0,0.1c-0.2,0.1-0.3,0.2-0.3,0.3c0,0.1,0.1,0.3,0.3,0.5c0.1,0.1,0.2,0.2,0.3,0.2l0.1,0.1c0,0,0.1,0,0.1,0.1
			c0.1,0.1,0.2,0.1,0.2,0.1c0.5,0.4,1.4,0.7,2.2,1.1c1.8,0.8,3.7,1.5,5.6,2.2c0.6,0.2,1.1,0.4,1.6,0.6l2.7,1.6
			c-0.5-0.1-0.9,0-0.9,0.1c-0.1,0.1,0.4,0.4,1.1,0.5c0,0-0.1,0-0.2,0.1l-3.8,0.4c-0.8,0-1.7,0-2.6,0.1c-0.9,0-1.8,0-2.6,0.1
			c-0.7,0.1-1.5,0.2-1.9,0.3c-0.2,0.1-0.3,0.2-0.4,0.3l-2.1,0.2c-0.9-0.2-1.7-0.2-1.8-0.1c-0.1,0.1,0.5,0.4,1.4,0.6
			c0.2,0.1,0.4,0.1,0.7,0.1l3.6,1.8c-0.2,0-0.4,0.1-0.3,0.2c0,0-3.7-0.6-1,1.2c0,0,1.1,0.5,1.9,1l-1.6-0.3c-1-0.2-1.7-0.2-1.7,0
			l0,0.3c0,0,0,0.1,0.1,0.1c-1.7-0.3-3.3-0.6-4.6-0.7c0,0,0,0-0.1,0c-2.6-0.4-6.3-0.3-4.8,3.7l0.1,0.4c-1.2,1.9-2.5,4.1-2.5,4.1
			l0.1,0l0,0.2l0.5,0.1c0,0.1-0.4,0.1-1.2,0.1c-0.4,0-0.4,0.1-0.9,0.2c-0.3,0.1-0.7,0.1-0.6,0.2c0,0.1,0.1,0.2,0.4,0.4
			c0.3,0.2,0.6,0.3,0.9,0.4c0.2,0.1,0.4,0.1,0.6,0.2c1.1,0.2,1.6,0.3,2,0.4c0.1,0,0.3,0,0.4,0.1l0.7,0.1c1.7,0.4,1.3,0.1,1.3,0.1
			s-0.6-0.3-0.7-0.5c-0.1-0.1,0.2-0.3,0.5-0.2c0.4,0.1,0.2,0.7,0.9,0.8c0.2,0,0.5-0.1,0.5-0.1c0.3-0.1,0-0.4,0-0.5
			c0-0.1-0.5-0.6-0.5-0.6l0.2-0.2l0.5,0.1l0.2-0.1l-4.3-0.9l4.5,0.9l1.8-1.3c0.2,0.4,0.9,1.9,1,2.2c-0.1,0-0.1,0-0.1,0
			c0.3,1.3,2.8,3.1,3.5,3.5c0.1,0.1,1.9,1.4,3.1,3.3l-11.4-0.2l0.2,0.1l-2.6-0.1c0,0-0.1,0-0.2-0.1c-1.1-0.2-3.9-0.7-5.2-0.8
			c-1.4-0.1-1.1,0-0.1,0.7c1,0.6,2.9,1.5,3,2c0,0.5,1.1,1.6,3.3,1.5c-0.3-0.7-0.2-0.9,0.4-1.2c0.7-0.3,0.6-0.8,0.6-0.8
			c0,0-0.1,0-0.1,0l4.3,0.3l0,0l0.9,0.4l7.8,0.4c0.5,2.1-0.3,3.7-0.3,3.7l2.5,0.5c0.1,0.2,0.2,0.5,0.2,0.5c0,0,0,0,0.1,0.1
			c-0.2-0.1-0.3-0.1-0.3-0.1c-0.7-0.1-1.1,0.2-0.8,0.7c-0.5,0.2,3.3,0.9,3.3,0.9c1,0.2,1.3,0.3,3.6,1c2.3,0.8,8.4,1.7,9.2,1.7
			c0.9,0,0.6-0.5-3.4-1.3c-2.5-0.5-4.2-1.1-5.1-1.6c-0.4-0.2-1-0.4-1.7-0.5c0,0-0.2-0.1-0.2-0.1l0.6-0.5l0.6,0.1l4.7-4.3l-0.2-0.4
			L178.9,384.9z M174.1,350.3c-0.6,0.1-1.1,0.3-1.6,0.4c-1.1,0.3-2,0.5-3.2,0.8s-2.4,0.5-3.9,0.6c-1.5,0.1-3.2,0.2-5.2,0.1
			c-0.3,0-0.6,0-0.9,0L174.1,350.3z M159.4,354.7c-0.9-0.4-1.6-0.7-2.1-1c-0.1,0-0.1-0.1-0.2-0.1l-0.2-0.1c-0.1-0.1-0.2-0.1-0.2-0.2
			c-0.2-0.1-0.2-0.3-0.2-0.4c0,0,0,0,0-0.1c0.1,0,0.3,0.1,0.5,0.1c0.4,0.1,0.7,0.1,1.1,0.2l6,3.5
			C162.5,355.9,160.8,355.3,159.4,354.7z M166.7,357.9c0.1,0,0.1,0,0.2,0.1c0.8,0.4,1.5,0.7,1.9,1c0.1,0.1,0.2,0.1,0.2,0.2
			c0,0,0,0,0,0c0,0-0.1,0-0.1,0L166.7,357.9z M167.7,360c-0.2,0-0.3,0-0.5,0.1c-0.2,0-0.4,0-0.7,0.1L167.7,360z M158.3,360.8
			c0.8-0.3,2.6-0.4,4.4-0.4c0,0,0.1,0,0.1,0L158,361C158.1,360.9,158.2,360.9,158.3,360.8z M162.4,363.6c0.3,0.1,0.5,0.2,0.7,0.3
			c-0.2,0-0.3,0-0.5-0.1l-0.9-0.5C162,363.5,162.2,363.5,162.4,363.6z M162.4,363.8c-0.8-0.1-1.6-0.1-2.3-0.1c0,0-0.5,0-0.8,0
			l-3.5-1.8c0.5,0,0.9,0,1,0c0.1-0.1-0.4-0.4-1.2-0.6l1.7-0.2c0,0.1,0,0.2,0.1,0.3c0.2,0.3,0.8,0.6,1.5,0.9c0,0,0,0-0.1,0
			c-0.2,0.1,0.5,0.4,1.4,0.6c0.2,0.1,0.5,0.1,0.7,0.1c0,0,0,0,0,0L162.4,363.8z M179.9,351.1c-0.2-0.1-0.5-0.2-0.9-0.2
			c-0.9-0.2-1.7-0.3-1.9-0.1c0,0.1,0.1,0.2,0.4,0.3l-15.8,2c-0.1,0-0.2-0.1-0.4-0.1c-0.9-0.2-1.7-0.3-1.8-0.1
			c-0.1,0.2,0.5,0.4,1.4,0.6c0.2,0,0.4,0.1,0.6,0.1l0.1,0.1l11.5,6.5c-0.4,0-0.7,0-0.8,0.1c-0.1,0.1,0.5,0.4,1.3,0.6l-12.4,1.7
			c-0.1,0-0.2,0-0.2-0.1c-0.6-0.1-1.2-0.2-1.6-0.2c-0.7-0.3-1.1-0.5-1.3-0.8c-0.1-0.2-0.1-0.3,0-0.4l6.1-0.7c1.4,0,2.8-0.1,3.9-0.2
			c0.7-0.1,1.3-0.2,1.7-0.4c0.7,0.1,1.3,0.1,1.4,0c0.2-0.1-0.4-0.4-1.1-0.6c0,0,0,0,0-0.1c-0.1-0.1-0.1-0.2-0.2-0.2
			c-0.5-0.3-1.2-0.7-2-1.1c-0.8-0.4-1.8-0.8-2.7-1.1c0,0,0,0,0,0l-6.4-3.8c0.3,0,0.5,0,0.6-0.1c0.1-0.1-0.3-0.3-0.9-0.5
			c0.9,0,1.9,0,3,0.1c2,0,3.9,0,5.5-0.1c1.6-0.1,2.9-0.3,4.1-0.6c1.1-0.2,2.2-0.5,3.3-0.8c0.6-0.1,1.1-0.3,1.6-0.4
			c0.6-0.1,1.1-0.2,2-0.2c0.9,0,2.1,0.2,3.4,0.4c1.3,0.2,2.6,0.4,3.8,0.6L179.9,351.1z"/>
		<g class="st38">
			<path class="st13" d="M175.6,257.3c0,0,4.8,8.3,8.8,10.5c1.3,0.7,1.3,2.8,2.6,3.7c1.1,0.7,2.4,1,3.7,1.3
				c3.5,0.7,6.7-0.4,10.2,0.3c3,0.6,11.1-7.3,11.4-4.3c0.2,1.4-0.5,2.8-1.3,4c-3.7,6.1-14.5,6.7-19.5,11.9c-5,5.2-6,2.2-6,12.6
				c0,3.7-0.6,17.1-0.6,20.7c0.1,10.3-0.2,21-0.1,31.3h-22.3c0,0,2.1-5.2-2.2-14.7c-2.6-5.8-4.9-21-3.6-31.3
				c3.5-27.1-7.2-47.2-7.2-47.2c1.7-8.4,4.3-16.6,7.8-24.5c0.7-1.6-2.6,4.5-1.3,3.2c2.1-1.9,5.1-2.5,7.9-2.4c4.9,0.2,9.5,2,14,3.7
				C179.4,236.8,174.5,256.1,175.6,257.3"/>
		</g>
		<g>
			<g>
				<g>
					<g>
						
							<linearGradient id="SVGSSID_13_" gradientUnits="userSpaceOnUse" x1="2354.6206" y1="1755.4967" x2="2519.78" y2="1732.8163" gradientTransform="matrix(0.8158 -0.5784 0.5784 0.8158 -2711.6965 178.2103)">
							<stop  offset="0" style="stop-color:#FFFFFF"/>
							<stop  offset="1" style="stop-color:#FFFFFF;stop-opacity:0"/>
						</linearGradient>
						<polygon class="st39" points="229.8,252.7 303.2,90.5 388.2,179.2 235,259.5 						"/>
						
							<radialGradient id="SVGSSID_14_" cx="3119.2034" cy="1287.7726" r="73.8072" gradientTransform="matrix(0.6832 -0.4845 0.4818 0.6795 -2404.0952 769.4705)" gradientUnits="userSpaceOnUse">
							<stop  offset="0" style="stop-color:#FFFFFF"/>
							<stop  offset="1" style="stop-color:#FFFFFF;stop-opacity:0"/>
						</radialGradient>
						<path class="st40" d="M397.8,97.5c19.7,27.7,13,66.2-14.9,85.9s-66.3,13.3-86-14.4c-19.7-27.7-13-66.2,14.9-85.9
							C339.7,63.4,378.2,69.8,397.8,97.5z"/>
					</g>
					<g>
						<g>
							<path class="st41" d="M171.1,380l-0.7,4.3c0,0,0.6,0.3,0,0.9c-0.6,0.6-0.5,1.2-2.4,1.2c-1.9,0-2.6-1.7-2.6-2.3
								c0-0.6-0.3-3.9-0.3-3.9S171,378.4,171.1,380z"/>
							<g>
								<g class="st42">
									<path class="st13" d="M359.7,111.6l-7.1-23.2c-0.2-0.7-0.9-1.1-1.6-0.9L329.9,93c0,0-1.3,0.3-1.2,2.2
										c0,0.3,0.3,1.3,0.6,2.4l6.1,23.7c0,0,0.2,1.1,1.9,0.6l20.8-5.6c0.3-0.1,0.5-0.4,0.4-0.7l-0.6-2c0.2-0.3,0.6-0.6,0.7-0.7
										l0.5-0.1C359.5,112.6,359.8,112.1,359.7,111.6z M357.6,113.1L357.6,113.1l0.2-0.1L357.6,113.1z"/>
								</g>
								<path class="st43" d="M331,103.9c-1.5-0.3-4.5-0.9-4.5-0.9l-0.4-2l-0.3-1l4.8,0.9l1.1-0.8l1.4-0.9l0.8,3.1L331,103.9z"/>
								<path class="st44" d="M360.4,104.8c0.5-0.1,0.8-0.7,0.6-1.2L354,80.4c-0.2-0.7-0.9-1.1-1.6-0.9l-21.1,5.6
									c0,0-1.3,0.3-1.2,2.2c0,0.3,0.3,1.3,0.6,2.4l6.1,23.7c0,0,0.2,1.1,1.9,0.6l20.8-5.6c0.3-0.1,0.5-0.4,0.4-0.7l-0.7-2.1
									l-0.2-0.3L360.4,104.8z"/>
								<polyline class="st45" points="160.3,249.9 161.6,239.6 161.5,238.7 154,225.9 170,198.5 156.1,169.5 176.2,133.5 240,96.6 
									323.8,98.9 322.7,101.5 242.6,99.7 								"/>
								<polyline class="st45" points="164.9,249.8 166.2,240.4 166.5,237.9 160.2,226.9 175,199.8 161,172.2 160.5,169.7 
									178.7,136.7 241.5,99.6 								"/>
								<path class="st10" d="M164.3,238.2c-0.1,0.9,0.6,1.9,1.6,2.1c1,0.1,1.9-0.6,2-1.6c0.2-1-0.6-1.9-1.6-2
									C165.5,236.5,164.5,237.2,164.3,238.2z"/>
								<path class="st10" d="M159.8,238.3c-0.2,0.9,0.6,1.9,1.6,2c0.9,0.1,1.9-0.6,2.1-1.6c0.1-1-0.6-1.9-1.6-2.1
									C160.8,236.6,159.9,237.3,159.8,238.3z"/>
								<path class="st10" d="M158.7,226.6c-0.2,1,0.6,1.9,1.6,2.1s1.9-0.6,2.1-1.6c0.1-0.9-0.6-1.9-1.6-2.1
									C159.7,224.9,158.7,225.6,158.7,226.6z"/>
								<path class="st10" d="M152.7,226c-0.1,0.9,0.6,1.9,1.6,2c0.9,0.2,1.9-0.6,2.1-1.6c0.1-0.9-0.6-1.9-1.6-2
									C153.7,224.2,152.8,224.9,152.7,226z"/>
								<path class="st10" d="M172.8,198.8c-0.1,0.9,0.6,1.9,1.6,2c1,0.1,1.9-0.6,2-1.6c0.1-1-0.6-1.9-1.6-2.1
									C173.8,197.2,172.9,197.9,172.8,198.8z"/>
								<path class="st10" d="M167.8,197.7c-0.1,1,0.6,1.9,1.6,2c1,0.1,1.9-0.6,2.1-1.6c0.2-1-0.6-1.9-1.6-2.1
									C168.8,196,167.9,196.6,167.8,197.7z"/>
								<path class="st10" d="M158.6,169.8c-0.1,1,0.6,1.9,1.6,2.1c1,0.1,1.9-0.6,2-1.6c0.2-1-0.6-1.9-1.6-2
									C159.6,168.2,158.7,168.9,158.6,169.8z"/>
								<path class="st10" d="M154.4,170.3c-0.1,1,0.6,1.9,1.6,2.1c1,0.1,1.9-0.6,2.1-1.6c0.1-0.9-0.6-1.9-1.6-2
									C155.5,168.5,154.6,169.2,154.4,170.3z"/>
								<path class="st10" d="M177.4,136.7c-0.1,0.9,0.6,1.9,1.6,2c1,0.1,1.9-0.6,2.1-1.6c0.1-1-0.6-1.9-1.6-2
									C178.4,135,177.5,135.7,177.4,136.7z"/>
								<path class="st10" d="M173.6,134.2c-0.2,0.9,0.6,1.9,1.6,2.1c0.9,0.1,1.9-0.6,2-1.6c0.1-1-0.6-1.9-1.6-2
									C174.6,132.6,173.7,133.3,173.6,134.2z"/>
								<path class="st46" d="M359,106.2c0,0,0,0.3-0.1,0.8c0,0.4-0.2,0.7-0.6,0.8l-19.5,5.3c0,0-0.7,0.3-0.5-1c0,0,0.1-1.2,0.4-1.4
									l20-5.5l1.2-0.3C360,104.9,359.2,105.4,359,106.2z"/>
								<g>
									<path class="st47" d="M359.4,103c0,0.2-0.1,0.3-0.3,0.3l-19.8,5.3c-0.4,0.1-0.4-0.2-0.4-0.2L333,86.3
										c-0.1-0.2,0.1-0.3,0.3-0.3l19.1-5.2c0.3-0.1,0.6,0.1,0.7,0.4L359.4,103z"/>
								</g>
								<g>
									
										<rect x="322.1" y="90.5" transform="matrix(0.9517 -0.3072 0.3072 0.9517 -13.2145 103.5674)" class="st46" width="0.6" height="6.5"/>
								</g>
								<path class="st10" d="M319.2,88.9c-0.1,0.9,0.5,1.7,1.5,1.9c0.9,0.1,1.7-0.5,1.9-1.5c0.1-0.9-0.5-1.7-1.5-1.9
									C320.1,87.3,319.3,88,319.2,88.9z"/>
								<path class="st10" d="M237.9,97.1c-0.1,0.9,0.5,1.7,1.5,1.9c0.9,0.1,1.7-0.5,1.9-1.5c0.1-0.9-0.5-1.7-1.5-1.9
									S238.1,96.1,237.9,97.1z"/>
								<path class="st46" d="M322.1,98.6c-0.1,0.9,0.5,1.7,1.5,1.9c0.9,0.1,1.7-0.5,1.9-1.5c0.1-0.9-0.5-1.7-1.5-1.9
									C323.1,97.1,322.2,97.8,322.1,98.6z"/>
								<path class="st10" d="M320.1,101.2c-0.1,0.9,0.5,1.7,1.5,1.9c0.9,0.1,1.7-0.5,1.9-1.5c0.1-0.9-0.5-1.7-1.5-1.9
									C321,99.6,320.2,100.3,320.1,101.2z"/>
								<path class="st10" d="M239.6,99.7c-0.1,0.9,0.5,1.7,1.5,1.9c0.9,0.1,1.7-0.5,1.9-1.5c0.1-0.9-0.5-1.7-1.5-1.9
									C240.6,98.1,239.7,98.8,239.6,99.7z"/>
								<g>
									<path class="st10" d="M163.2,251.4c0.3-3,1.1-5.9,1.7-8.9c0.3-1.5,0.6-2.9,0.7-4.5c0.1-1.5,0-3-0.5-4.4
										c-0.5-1.4-1.6-2.5-2.6-3.5c-1-1-2.2-2.1-3.3-3.2c-1-1.1-1.9-2.5-2.2-4.1c-0.3-1.6-0.2-3.2,0.3-4.7s1.2-2.9,2-4.1
										c0.9-1.3,1.8-2.5,2.8-3.6c1.9-2.3,4-4.6,5.4-7.2c0.8-1.3,1.3-2.6,1.6-4.1c0.1-0.7,0.2-1.4,0.2-2.2v-0.3v-0.1c0,0,0-0.1,0,0
										l0,0v-0.2c0-0.2,0-0.3-0.1-0.5c-0.1-0.3-0.2-0.7-0.3-0.9c-0.4-1.4-1.2-2.6-2.1-3.8c-0.9-1.2-1.9-2.2-2.9-3.4
										c-2.1-2.2-4.2-4.2-6.2-6.6c-0.9-1.2-1.9-2.5-2.5-4c-0.1-0.2-0.2-0.3-0.3-0.6c0-0.1-0.1-0.2-0.1-0.3l-0.1-0.3
										c-0.1-0.3-0.3-0.7-0.3-1.1c-0.2-0.8-0.3-1.6-0.3-2.4s0.2-1.7,0.5-2.5s0.9-1.5,1.4-2.1c1-1.2,2.2-2.2,3.3-3.2
										c2.2-2.1,4-4.3,5.6-6.8c1.6-2.5,2.9-5.2,4.1-7.9c1.2-2.8,2.2-5.5,3.4-8.4c0.5-1.4,1.1-2.8,1.7-4.2s1.3-2.8,2.5-4.1
										c0.6-0.6,1.5-1.1,2.2-1.4s1.6-0.4,2.3-0.5c1.6-0.3,2.9-0.5,4.4-0.8l0,0h0.1c1.3-0.2,2.7-0.5,4.1-0.9c1.4-0.3,2.7-0.8,4-1.2
										c2.6-0.9,5.1-2.2,7.4-3.6c1.1-0.8,2.2-1.6,3.3-2.4c1-0.9,2-1.9,3-2.9c2-2,4-4.1,5.9-6c4.1-4,8.3-7.8,13.1-11
										c2.4-1.6,5.1-2.8,7.9-3.6c1.4-0.3,2.9-0.6,4.4-0.5c1.5,0,3,0.3,4.4,0.9h-0.3c3.4-0.6,6.9-1,10.3-1.6
										c3.4-0.4,6.9-0.9,10.3-1.2c1.7-0.2,3.4-0.3,5.2-0.5c1.7-0.2,3.4-0.3,5.2-0.4l5.2-0.3c1.7-0.1,3.4-0.2,5.2-0.2
										c1.7-0.1,3.4-0.1,5.2-0.1s3.4,0,5.3,0.1c3.4,0.2,6.9,0.6,10.3,1.2c3.4,0.5,6.8,1.1,10.3,1.6c1.7,0.3,3.4,0.4,5.2,0.3
										c0.4,0,0.9-0.1,1.3-0.2c0.4-0.1,0.8-0.3,1-0.7c0.3-0.3,0.3-0.8,0.2-1.2c-0.1-0.4-0.3-0.9-0.4-1.2c0.2,0.3,0.3,0.8,0.5,1.2
										c0.1,0.4,0.1,0.9-0.2,1.3c-0.3,0.3-0.7,0.6-1.1,0.7c-0.4,0.2-0.9,0.2-1.3,0.3c-1.7,0.2-3.4-0.1-5.2-0.3
										c-3.4-0.4-6.9-0.9-10.3-1.4c-3.4-0.4-6.9-0.8-10.3-0.9c-1.7-0.1-3.4-0.1-5.2,0c-1.7,0-3.4,0.1-5.2,0.2s-3.4,0.2-5.2,0.3
										l-5.2,0.3c-1.7,0.2-3.4,0.3-5.2,0.4s-3.4,0.3-5.2,0.5c-3.4,0.4-6.9,0.9-10.3,1.4c-3.4,0.5-6.8,1-10.3,1.6h-0.2l-0.2-0.1
										c-2.5-0.9-5.3-0.9-7.9-0.2c-2.7,0.7-5.1,2-7.5,3.4c-4.7,3-8.9,6.8-12.8,10.8c-2,2-4,4.1-5.9,6c-0.9,1-2,2.1-3.1,3
										c-1.1,0.9-2.2,1.8-3.5,2.6c-2.4,1.6-5.1,2.8-7.8,3.8c-1.4,0.5-2.8,0.9-4.1,1.3s-2.8,0.7-4.2,0.9h0.1
										c-1.5,0.3-3,0.6-4.5,0.8c-1.5,0.3-2.8,0.5-3.7,1.5c-0.9,0.9-1.6,2.2-2.2,3.5c-0.6,1.4-1.1,2.8-1.7,4.1
										c-1.1,2.8-2.2,5.6-3.4,8.4c-1.2,2.8-2.6,5.5-4.3,8.1c-1.6,2.6-3.7,5-5.9,7.1c-1.1,1.1-2.2,2-3.2,3.1
										c-0.9,1-1.6,2.2-1.6,3.5c0,0.7,0.1,1.4,0.3,2.1c0.1,0.3,0.2,0.7,0.3,1l0.1,0.3l0.1,0.3c0.1,0.2,0.1,0.3,0.2,0.5
										c0.5,1.3,1.4,2.5,2.3,3.6c1.8,2.3,4.1,4.4,6,6.6c1,1.1,2.1,2.2,2.9,3.5c0.9,1.3,1.7,2.6,2.2,4.1c0.1,0.3,0.2,0.8,0.3,1.2
										c0,0.2,0,0.3,0.1,0.6v0.2v0.1v0.1v0.3c0,0.8-0.1,1.6-0.3,2.4c-0.3,1.6-1,3-1.8,4.3c-1.6,2.7-3.7,4.9-5.6,7.2
										c-1.9,2.3-3.8,4.7-4.7,7.5c-0.4,1.4-0.6,2.8-0.3,4.3c0.3,1.4,1,2.7,2.1,3.8c0.9,1.1,2.1,2.2,3.1,3.2c1,1.1,2.1,2.2,2.6,3.8
										c0.5,1.5,0.5,3,0.4,4.6c-0.2,1.6-0.4,3-0.8,4.5C164.5,245.5,163.6,248.4,163.2,251.4z"/>
								</g>
								<path class="st16" d="M327.8,101.8l-2-7.5c0,0-3.6-1.2-5.3,1.6l1.5,7.5C321.9,103.4,325.9,106.5,327.8,101.8z"/>
							</g>
							<path class="st48" d="M183.2,313.3c0,0,3.4,12.5,5.1,18.3c0,0,2.2,5.9-3.5,9.1L155.9,364c-1,0.8-2.4,0.6-3.1-0.4l-3.8-5
								l25.8-25.3l-9.8-16.6l-11.1-3.5L183.2,313.3z"/>
							<path class="st49" d="M156.8,251.5c0,1,0.3,2,1.4,2h19.7c1,0,1.1-0.9,1.1-1.9v-1.8c0-1-0.1-1.7-1.1-1.7h-19.7
								c-1,0-1.4,0.6-1.4,1.6V251.5z"/>
							<path class="st50" d="M171,309.7l5.2,38.8c0.1,1,0.1,1.9,0,2.9l-4.2,27.3c-0.2,1.2-1.2,2.1-2.4,2.2l-7.1,0.3
								c0,0,1.1-15-0.5-30c-1.5-13.3-4.1-20.3-4.2-20.9c-0.8-1.8-3.4-9.7-3.9-17c0-0.4,0.2-0.5,0.9-0.5c0.9,0,2.6-0.1,4-0.1
								C164.9,313.1,171,309.7,171,309.7z"/>
							<path class="st51" d="M153.7,253.6c0,0-10.2-5.3-7.3,27.3l0.2,2.7l33.3-0.3l0.2-27.2c0,0,0.2-2.4-3.8-2.2L153.7,253.6z"/>
							<path class="st52" d="M181.2,262.3c0,0,2.9-6.3-2.1-8.6l-6.6-0.9c0,0-14.1-1.9-21.1,0.5c0,0-2.8,1-1.9,7
								C150.2,266.4,175,269.9,181.2,262.3z"/>
							<path class="st53" d="M211.3,266.1l3.5,6.5l-8.7,4.1c0,0-12.5,5.4-15.5,5.5c-2,0.1-4.9-1.2-6-2.1c-0.4-0.3-3.3-2.3-3.4-2.7
								c0,0,0.3,23.1,0.4,24.7c0.1,1.6,1.6,10.8,1.6,11.2c-0.1,0.3-3,0.8-7.4,2.7c-2.8,1.2-11.6,0.7-13.6,0.3
								c-1.6-0.3-5.8-2.1-7.1-3.2c-0.4-0.3-1.2,0.4-1.2,0l-1.2-12.8l-2,10.1l-6.6-0.2c0,0,3.5-42.9,4.3-44.7
								c0.9-2.1,2.4-4.2,12.4-9.1l14.1,1.8c0,0,5.3,2.9,7.3,4.1c0,0,0.3,0.3,3.2,4.7c0,0,4.7,4.1,6.1,6.1l11.5-4L211.3,266.1z"/>
							<path class="st54" d="M174.7,236.4c0,0,0.8,3.4,1,4.5c0.7,2.7,0.6,4.4,0.7,4.9c0,0,0.9,3-0.8,5.7c-0.2,0.4-0.7,2.2-3.2,2.4
								c0,0,0.9,4.1,0.8,4.8c-0.2,0.8-2.3,5.5-2.3,5.5l-7.2-4.7c0,0-2.1-2.5-2-2.6c0,0,0.7-0.5,0.8-1.2c0.3-2.2,0-5.3,0-5.4
								c0-0.2-2.1-1.4-2.5-4.6c0,0-0.3-1.5,0.9-1.8c0,0,1.5-0.4,2.7,2l1.4,2c0,0-1.1-5.2-1.3-5.5c-0.2-0.3,0.3-1.2,1.2-2.1
								c0.9-0.9-0.3-2.3-0.8-3.4c0,0,2.6-0.8,5.5-1.3c0.8-0.1,2.1-0.3,2.9-0.3c0.5,0,1.3,0,1.6,0.3
								C174.2,235.3,174.6,235.4,174.7,236.4z"/>
							<path class="st41" d="M172.4,253.9c0,0-4.1-0.2-6.3-3c0,0-1.8-3.6-1.9-3.7c-0.1-0.1,0.6,3.5,0.7,3.7c1,3.5,4.8,6.2,8.5,7.4
								c0,0-0.2-0.9-0.4-2.1C172.7,255.4,172.5,254.8,172.4,253.9z"/>
							<path class="st48" d="M170.8,264.2l-2.5-4.5l-2.2,2.3l4.4,2.6C170.5,264.6,171.1,264.7,170.8,264.2z"/>
							<path class="st10" d="M168.3,259.7l-5.8-4.1c0,0-2.1,0.4-3,2.2l3.8,7.2L168.3,259.7z"/>
							<path class="st55" d="M169.8,384.9c1-0.3,2.1,0,2.7,0.9c1,1.5,2.9,3.3,5.6,3.4c4.4,0.2,4.7,2.8,3.8,3.5
								c-0.9,0.7-7.5,2.4-10.1,0.4s-2.8-2.2-3.9-2.1c0,0-4.1,0.2-3.6-1.6c-0.4-2.8,0-4.5,0.8-5C165.1,384.3,167.3,385.6,169.8,384.9
								z"/>
							<polygon class="st41" points="153.2,364.1 147.7,367.5 145.7,362 149.3,358.9 							"/>
							<path class="st55" d="M148.6,367.1c0,0,0.2,2.8-0.6,5.3c-0.7,2.5-0.8,3.9-0.4,7.6c-2.4,3-3.6-2.1-3.7-5
								c-0.1-2.9-2.2-5.8-3.3-8.5s-1.4-3.2,0.1-4.1c1.5-0.9,4.5-1.2,5.7-1.2C147.7,362.2,146,366,148.6,367.1z"/>
							<path class="st48" d="M157.9,278.6c0,0,3.1,7.2,2.2,11.3c-0.8,4.1,1.4,10.1,0.7,12.7c-0.6,2.6,0.1,5.9-0.8,5.9
								c-0.8,0.1-4.5,3.7-5.8,4.7c-0.3,0.3-0.4,0-0.4,0c0-0.3-1.3-13-1.3-13L157.9,278.6z"/>
							<path class="st48" d="M181.2,277.6l0.1-13.6c0.3,3.9,1.6,9.3,2.9,12.3c1.5,3.3,4,5.6,4,5.6s-2-0.6-2.6-0.9
								c-1.1-0.8-2-1.4-2.3-1.6C182.7,278.8,181.2,277.6,181.2,277.6z"/>
							<g>
								<path class="st54" d="M146.1,321.3c-0.4,0.2-1,0.2-2.2,0c-0.2,0-0.5-0.1-0.6-0.3c-0.3-0.3-0.7-0.7-1-1.4
									c-0.3-0.5-0.4-1.1-0.4-1.8c-0.1-0.7,0.3-0.9,0.6-1.8c0.5-1.5,0.6-1.9,1-2.5c0.9-1.3,1.3-1.2,1.3-2.2l4.8,0.2l-0.3,1.6
									c0,0,0.6,2.4,0.6,2.8c0,0.3,0.3,1.9,0,2.8c-0.1,0.3-0.4,1-0.6,1.2c-0.7,0.6-1.3-2-1-3.5c-0.3-0.3-0.6,1.1-0.5,1.8
									s0.8,2.1,0.8,2.1s0.5,0.9-1.4,0.9l-0.8,0.1C146.4,321.2,146.3,321.2,146.1,321.3z"/>
								<path class="st41" d="M144.9,311.3c0,0.9-0.4,0.9-1.3,2.2c-0.4,0.6-0.5,1-1,2.5c-0.3,0.9-0.7,1.1-0.6,1.8
									c0,0.7,0.2,1.3,0.4,1.8c0.3,0.7,0.7,1.1,1,1.4c0.2,0.2,0.4,0.3,0.6,0.3c0,0-1.2-2.3,1.2-5.9c1-1.5,1.9-3.5,1.9-4
									L144.9,311.3z"/>
							</g>
							<g>
								<path class="st56" d="M155.4,288.7c1.3-0.4,2.6-1.8,2.9-2.8c0.6-1.5,1.1-2.9,1-4.5c-0.4-6.2-1-11-1.8-17.7
									c-0.4-4.1-0.5-5.7,0.4-7.2l-2.5,0.5c-0.3,1-0.5,2.1-0.3,6.1c0.2,2.5,0.5,5,0.7,7.5c0.3,4.1,1.3,7.9,1,12.1
									c-0.1,1.1-0.3,2.6-0.9,3.4L155.4,288.7z"/>
							</g>
							<polygon class="st48" points="174.4,260.6 170.8,264.4 170.6,264.3 172.8,259 							"/>
							<path class="st10" d="M173.3,256.5l1.7,1.8l1.4,4.1l-3.6-3.6c0,0.1-0.4-1.1-0.4-1.9C172.4,256.4,172.9,256.2,173.3,256.5z"/>
							<g>
								<path class="st16" d="M218.3,264l11.6-9.6l3.9,3.9l-11.5,10C222.2,268.3,218.2,267.9,218.3,264z"/>
								<polygon class="st43" points="229.4,253.8 228.1,255.9 231.4,260.3 234,259.5 								"/>
								<path class="st10" d="M233.8,255.1c1.6,2,2.2,4.1,1.5,4.7c-0.8,0.6-2.5-0.9-4.1-2.9c-1.6-2-2.3-3.5-1.6-4.1
									C230.3,252.1,232.2,253.2,233.8,255.1z"/>
							</g>
							<path class="st54" d="M215.3,271c0,0,3.8-2.3,3.9-2.3s1.6,0.9,3.4,0s2-0.3,2-0.9c0,0,1,0.5,1.1-0.4c0,0,1.3-0.2,1.1-0.9
								c0,0,0.8-0.1,0.6-0.8c0,0-1.2-2.2-1.4-2.4c-0.3-0.2-0.9,0.2-0.7,0.7c0,0-0.5-0.4-0.8,0.1c-0.2,0.5-1.1,0.2-1.5,0.8
								c-0.3,0.7-0.4,1.2-0.1,1.7l0.4,0.8c0,0-0.5,0.2-1.8,0.8c-0.5,0.2-1-0.4-1.9-1.3c0,0-0.4-0.8-0.7-1.3c-0.2-0.5-0.2-0.8-0.2-1
								c0-0.4,0.7-0.9,1.7-1.5c0,0,1.2-0.1,1.7-0.2c1.5,0.3,1.7-0.2,1.9-0.4c0.1-0.2-0.5-0.8-1.2-1.1c-0.7-0.3-1.4-0.1-2.3-0.2
								c-0.9,0-1.6,0-2.2,1c-0.5,1-1.3,2-1.7,2.5s-3.9,2.2-3.9,2.2L215.3,271z"/>
							<path class="st46" d="M211.1,266.3l0.3-0.2c0.5-0.3,1.2-0.1,1.5,0.4l2.5,4.3c0.2,0.3,0.1,0.7-0.2,0.9l-0.7,0.4L211.1,266.3z"
								/>
							<g>
								<path class="st56" d="M179.6,269.1L179.6,269.1C179.6,269.1,179.6,269,179.6,269.1L179.6,269.1L179.6,269.1"/>
								<path class="st56" d="M181.3,260.9c0.2,0.3,1.4,2.1,1.5,2.5c0.1,0.3,0.3,0.8,0.3,1.1c0.1,0.4,0.2,0.7,0.3,1.1
									c0.1,0.4,0.1,0.8,0.2,1.2c0,0.3,0,0.8,0,1.1c0,0.2,0,0.3,0,0.6v0.3v0.1v0.2v0.2c-0.1,0.7-0.2,1.5-0.3,2.2
									c-0.3,1.4-0.6,2.6-0.9,3.6s-0.7,1.9-0.9,2.5c-0.3,0.6-0.4,0.9-0.4,0.9s1.2-12.6-1.5-16.8c-1.2-1.9-3.9-4.4-3.9-4.4l1.4-0.2
									C177,257,178.7,257,181.3,260.9z"/>
							</g>
							<path class="st46" d="M144.8,311.4l4.9,0.1c0.3,0,0.6-0.2,0.6-0.5l0.1-0.5l-6.2-0.2v0.5C144.3,311.2,144.5,311.4,144.8,311.4
								z"/>
						</g>
						<g>
							<path class="st57" d="M165,238.2c-0.1-0.1-0.1-0.2-0.1-0.3C164.9,238,164.9,238.1,165,238.2z"/>
							<path class="st57" d="M165,238.3C165,238.2,165,238.2,165,238.3C165,238.2,165,238.2,165,238.3z"/>
							<path class="st57" d="M165.1,238.4C165,238.3,165,238.3,165.1,238.4C165,238.3,165.1,238.4,165.1,238.4z"/>
							<path class="st57" d="M164.7,237.7C164.7,237.6,164.7,237.6,164.7,237.7L164.7,237.7z"/>
							<path class="st57" d="M164.8,237.9c0-0.1-0.1-0.1-0.1-0.2C164.8,237.8,164.8,237.8,164.8,237.9z"/>
							<path class="st57" d="M177.1,247.3c0,0-0.3-2.4-0.9-3.1c-0.3-0.3,0.6,2.8,0,4c-0.4,0.2-0.4-0.1-0.7-0.7
								c-0.1-0.3-0.3-0.7-0.8-0.6l-3.2,1.1c-0.3,0.2-0.3,0.4-0.3,0.9c0.1,0.8,0,0.9-0.3,1.3c-0.1,0.1-0.1,0.1-0.2,0.1
								c-1.3-0.1-1.2-0.4-1.9-1.3l-0.6-0.8c-0.1-0.2-0.4-0.3-0.6-0.2l-1,0.1c-0.3,0-0.7-0.1-0.8-0.5l-2-4.4
								c-0.1-0.6-0.2-1.2-0.1-1.5c0.3-1,2.1-1.7,1.3-3.3l-1.1-1.6c0,0,5.8-1.7,9.1-1.6c0.5,0,1,0.3,1.2,0.7c0.3,0.5,0.6,1.8,0.9,2.9
								c0,0,1.5-2.7,0.4-4.9c0,0-0.7-2.9-3.3-3.4c0,0-0.6-0.2-1.7-0.2c-1.3,0-7.4-0.8-10.6,2.8c0,0-1.6,1.8-1.4,3.1
								c0,0-3.4,0.5-0.3,8c0,0,0.7,2,1.6,4.1c0.5,1,0.7,2.5,1,3c0.4,0.7,0.6,1.2,0.8,1.6c0.3,0.6,1.1,0.4,1.2-0.2
								c0.1-0.8,0.4-2.1,0.2-3c-0.4-2.1-0.4-1.4-1.1-1.6c-0.5-0.2-0.5-0.1-0.8-0.6c-0.4-0.7-0.8-1.8-0.7-2.6
								c0.1-0.5,0.2-1.1,1.2-0.3c1,0.7,2,2.5,2,2.5s0.1,0.1,0.1,0.2c1.4,4.2,4.2,7.6,7.9,7.2C171.9,254.4,178.2,254.6,177.1,247.3z"
								/>
						</g>
					</g>
				</g>
				<polygon class="st58" points="340.1,91.8 332.2,95.5 333.3,99.7 340.9,95.8 				"/>
			</g>
			<path class="st59" d="M331.6,85c0,0-0.7,0.1-1.1,0.6c-0.4,0.5-0.4,1-0.4,1.8l6.7,25.9c0,0-0.6-2.4,1.2-4.1
				c0.2-0.2,0.3-0.5,0.2-0.8L331.6,85z"/>
			<path class="st16" d="M334.5,95.2l6.1,0.9l0,0c0.5-0.3,0.7-0.9,0.6-1.4l-0.2-1.7c-0.1-0.7-0.6-1.2-1.3-1.3l-5.2-0.6l-1-0.1
				l-7.6,4.2l0.7,4.3L334.5,95.2z"/>
		</g>
	</g>
	<g>
		<path class="st53" d="M165.7,317.3c0.3,8.8,0.4,17.7,0.5,26.5c0,2.1,0.1,4.2,0.5,6.3c0.4,2,1.1,3.9,1.6,5.9c2,7.5,1.2,17.2,0.6,25
			l-6.4,0.3c0,0,0.9-12.4,0.2-24.5c0,0-1.9-18.7-6.3-30.2c0,0-2.8-9.5-2.3-13.6c0,0,6.6,3.6,11.2,3.4
			C165.2,316.3,165.7,316.4,165.7,317.3z"/>
	</g>
	<path class="st41" d="M165,240c0,0,9.3-5.6,9.7-3c0,0,0-1.7-1.6-1.8c0,0-2.5-0.4-9.1,1.6c0,0,0.4,0.5,0.8,1.2
		C165.1,238.6,165.3,239.4,165,240z"/>
	<g>
		<path class="st41" d="M173,235.1c0.5,0,0.4,0.9,0.4,0.9c-1.3,0.1-1.9,0.2-2.8,1.2c-1,1.1-0.6,1.9-1.6,3c-0.7,0.8-1.8,1.3-2.3,2.2
			c-0.2,0.4-0.3,0.8-0.3,1.3c0,0.7,0.1,1.3,0.3,2c0.1,0.3,0.3,0.7,0.3,1.1c0,0.4-0.1,0.8-0.2,1.1c-0.1,0.8,0.3,1.5,0.7,2.2
			c0,0-2.9-3.7-3.7-7.2c0,0-0.7-1.4,0.7-2.5c0,0,1.6-0.7-0.6-3.6C164,236.7,168.7,235.1,173,235.1z"/>
	</g>
</g>
<g>
	
		<linearGradient id="SVGSSID_15_" gradientUnits="userSpaceOnUse" x1="514.8522" y1="363.2242" x2="582.4496" y2="363.2242" gradientTransform="matrix(0.9378 -1.097505e-02 0.353 1.0622 -110.6745 -19.5149)">
		<stop  offset="0" style="stop-color:#DFE3ED;stop-opacity:0"/>
		<stop  offset="0.3175" style="stop-color:#DFE3ED;stop-opacity:0.32"/>
		<stop  offset="0.5913" style="stop-color:#DFE3ED;stop-opacity:0.59"/>
		<stop  offset="0.8481" style="stop-color:#DFE3ED;stop-opacity:0.85"/>
		<stop  offset="1" style="stop-color:#DFE3ED"/>
	</linearGradient>
	<path class="st60" d="M561.8,356.3c-0.6-0.4-0.1-0.2-1.3-0.9c-1.3-0.9-2-1.2-2.9-1.5c-0.1,0-0.2-0.1-0.3-0.1
		c-0.4-0.2-1.3-0.4-2.6-0.6l-0.1,0c0,0-0.4,0-1-0.1c0,0-1.1-0.1-2.1-0.2c-0.9-0.1-2-0.1-3.2-0.2l0.2-0.5c0.6,0,1.6-0.1,3.3-0.4
		c3.2-0.6,3.3-0.8,4-1.2c0.2-0.2,0.6-0.6-1.6-1c-1.1-0.2-2.6-0.4-4.4-0.4c-2.2-0.1-2.6,0-6.8,0.1c-2.8,0-4-0.1-4.5,0.1
		c-0.5,0.1,0.4,0.4,1.1,0.6c0,0,0.1,0,0.3,0.1c-0.1,0-0.2,0-0.2,0l-1,0.5c-1,0.2-2.4,0.4-2.8,0.4c-0.8,0.1,0.3,0.2,0.3,0.2
		s0.8,0.1,0.7,0.2c-0.4,0.1-1.5,0.6-0.8,0.7c0.6,0.2,3.1,0.3,4.4,0.3c0,0.1-0.1,0.2-0.2,0.4c-1,0-1.6,0-1.6,0c-11.2,0-10.8,0-13-0.1
		c-4-0.1-8-0.2-11.9-0.4l-9.1-3.8l-0.7,0c0-0.1,0-0.3-0.1-0.5c-0.2-0.4-1-0.9-2.3-1.2c-0.3-0.1-1.2-0.4-1.7-0.3
		c-0.2,0-0.2,0-0.2,0.1c0,0.1,0.1,0.2,0.5,0.3c0.4,0.1,0.7,0.3,1,0.4c-0.5-0.1-1.1-0.1-1.6,0c-0.2,0-0.4,0.1-0.4,0.1
		c-0.4,0-0.9,0-1.3,0c-0.8,0.1-1.1,0.2-1.1,0.4c0,0.2,0.9,0.5,1.5,0.7l1.2,0.3l-0.8,0c1.3,0.8,2.8,1.7,4.8,2.6
		c1.6,0.7,3.3,1.4,5,2.1c6.8,0.6,14.2,1.1,21.9,1.3c0.1,0.4,0.2,0.9,0.1,1.3c-0.1,0.7-1.6,3.4-2.2,4.1c0,0,0.1,0,0.1,0
		c-0.3,0.2-0.5,0.5-0.8,0.7c-0.4,0.3-0.9,0.5-1.1,0.7c-1,0.7-2.3,1.1-3.1,1.8c-0.2,0.2-2.6,1.8-1.7,1.9l-3.4,7.8c0,0,0.3,0,0.7,0.1
		c-0.2,0.2-0.6,0.4-0.8,0.5c-0.1,0-0.2,0-0.3-0.1c-0.5-0.1-1.4-0.1-2,0c-1,0.1-2.5,0.4-4.7,0.6c-1.2,0.1-4.3,0.3-5.7,0.4
		c-0.4,0-0.7,0.1-0.7,0.1l0.1,0.1c0.1,0.1,0.4,0.1,0.7,0.1l13.5-0.2c0.1,0,0.2,0,0.4,0l2-0.1c0.3,0,0.6,0,0.8,0c0.1,0,0.4,0,0.6,0
		l1.9,0c0.8,0,1.5-0.1,1.3-0.3c-0.2-0.2-0.5-0.4-1.1-0.6c-0.2-0.1-0.4-0.1-0.7-0.1c0-0.1,0.1-0.3,0.3-0.4c0,0.1,0,0.1,0.2,0
		c0.2,0,0.4,0,0.6,0l0.3-0.2c7.4-7,7.3-7,7.2-7.3c1.8-0.6,3.5-1.3,5.2-1.9c1.5-0.6,2.9-1.1,4.8-1.6c0.4,1.4,0.9,2.9,1.5,4.3
		c0.8,2,1.6,3.9,2.6,5.8c0,0,0.1,0,0.1,0c0,0.1,0,0.1,0,0.2c0,0-0.1,0-0.1,0c-1-0.1-1.8,0.4-3.9,0.7c-0.7,0.1-3,0.2-4,0.3
		c-0.3,0-1.3,0.1-1.3,0.1l0,0.1c0,0.1,0.5,0.1,1,0.1l12-0.2c0.2,0,0.5,0,0.6-0.1l0.4-0.1l0.3,0.1c0.1,0,0.3,0,0.5,0l1.7,0
		c0.3,0,0.5,0,0.5-0.1c-0.2-0.3-1.2-0.6-2.1-0.9l-0.2,0c-0.1-0.1-0.2-0.2-0.2-0.3c0.3,0,0.4,0,0.4,0c1-1.2,1.6-2.6,1.6-3.8
		c0.1-1.7-0.9-1.6-0.8-2.9c0.1-2.1,2.4-5.1,1.3-6c0,0,0,0,0,0c0-0.1,0-0.2,0-0.3l6.8-1.5c0.3-0.1,0.6-0.2,0.8-0.3
		C563.1,357,562.5,356.7,561.8,356.3z M555.3,357.1c0-0.1,0.1-0.2,0.1-0.4l0.4,0.2L555.3,357.1z"/>
	<linearGradient id="SVGSSID_16_" gradientUnits="userSpaceOnUse" x1="496.4308" y1="357.3081" x2="500.8362" y2="382.2924">
		<stop  offset="0" style="stop-color:#DFE3ED;stop-opacity:0"/>
		<stop  offset="0.3175" style="stop-color:#DFE3ED;stop-opacity:0.32"/>
		<stop  offset="0.5913" style="stop-color:#DFE3ED;stop-opacity:0.59"/>
		<stop  offset="0.8481" style="stop-color:#DFE3ED;stop-opacity:0.85"/>
		<stop  offset="1" style="stop-color:#DFE3ED"/>
	</linearGradient>
	<polygon class="st61" points="526.9,377.7 512.2,378.5 470.4,361.9 507.4,361.9 	"/>
	<linearGradient id="SVGSSID_17_" gradientUnits="userSpaceOnUse" x1="530.194" y1="357.497" x2="533.6479" y2="377.085">
		<stop  offset="0" style="stop-color:#DFE3ED;stop-opacity:0"/>
		<stop  offset="0.3175" style="stop-color:#DFE3ED;stop-opacity:0.32"/>
		<stop  offset="0.5913" style="stop-color:#DFE3ED;stop-opacity:0.59"/>
		<stop  offset="0.8481" style="stop-color:#DFE3ED;stop-opacity:0.85"/>
		<stop  offset="1" style="stop-color:#DFE3ED"/>
	</linearGradient>
	<polygon class="st62" points="558.6,372.7 541.8,373.3 505.2,361.9 532.2,361.9 	"/>
	<g class="st42">
		<path class="st13" d="M526.9,303.8c-0.1,3.7-2.3,10.4-2.4,14.1c-0.1,10.3,0.2,21,0.1,31.3h22.3c0,0-2.1-5.2,2.2-14.7
			c2.6-5.8,4.9-21,3.6-31.3c-3.5-27.1,7.2-47.2,7.2-47.2c-1.7-8.4-4.3-16.6-7.8-24.5c-0.7-1.6,2.6,4.5,1.3,3.2
			c-2.1-1.9-5.1-2.5-7.9-2.4c-4.9,0.2-9.5,2-14,3.7c-1.5,0.6,7,22.1,5.9,23.3C537.4,259.5,527.2,288,526.9,303.8z"/>
	</g>
	<g>
		<path class="st54" d="M510.2,210.6c1.1,0.2,2.3,0,3.2-0.6c1.3-1.1,1.3-3,1.2-6c-0.1-3.1-0.8-6.1-2.2-8.9c-0.3-0.5-1.3-2.6-1.8-2.4
			c-0.2,0-0.2,0.3-0.3,0.5c-0.1,0.8,0,1.6,0.4,2.3c0.4,1,0.7,2,1,3c-0.5-0.6-1.3-0.7-1.9-0.2c-0.3,0.2-0.5,0.6-0.5,1
			c-0.5-0.2-1.1-0.1-1.5,0.1c-1,0.6-1.4,1.1-1.4,2.4c-0.1,1.3,0.9,3.7,1.5,4.8L510.2,210.6z"/>
		<g>
			<path class="st41" d="M507.6,199.5c1.5-1.4-0.6,2,0.6,4.7c0.3,0.6,1.2,3.2,1.4,3.6c0.5,1.1,0.6,1.3,1.5,2.1l-1.3,0.2
				c0,0-3.4-5.7-3.4-7.8S507.3,199.7,507.6,199.5z"/>
		</g>
	</g>
	<g>
		<path class="st54" d="M551.1,367.5c0.2-0.7,0.6-2.7,0.6-3.4c2.3-0.4,3.4-0.4,5.6,0.1c-0.3,2.1,0.1,3.3,0.1,3.3L551.1,367.5z"/>
		<path class="st48" d="M568.5,245.9c0.2,0.4,0.5,0.9,0.7,1.5c0.8,2,1.5,4,2.6,9.8c0.9,4.8,0.5,3.4,1,5.8c0.5,2.6,1.1,4.4,0.4,6.5
			c-0.2,0.6-0.5,1.3-0.9,1.8l-15.9,18.4l-5.1-2.3l15-20.4l-5.8-20.2l4.1-1.6L568.5,245.9z"/>
		<path class="st48" d="M556.8,365.1c0.4-0.1,0.7-0.5,0.7-0.9c1.4-7.6,2.6-16.6,3-24.2c0.7-10.9-0.4-10.2,0.3-19
			c0.9-13.5,4.5-32.6,3.6-38.8c-0.2-1-1.1-5-1.5-7.2c-0.4-1.6-1-3.2-1.8-4.6c-0.7,0.2-1.4,0.4-2.1,0.5c-0.8,0.2-1.4,0.2-1.7,0.3
			c-1.9,0.3-5.5,0.7-15.1,1.5c-0.6,0.8-1.3,1.6-1.8,2.6c-1.8,2.8-3.1,5.9-3.8,9.2c-6.6,27-7,27.9-7,27.9c-0.9,5.2-1.8,10.5-2.6,15.8
			c-1.6,10.6-3.9,30.5-5.2,40.6c0.3,0.7,0.6,1.4,1.3,1.8c0.5,0.5,1.2,0.7,1.9,0.9c2.5,0.4,4.7-15.1,4.7-15.1
			c4.5-15.2,5.3-22.9,5.3-24.3c0-2.3,3-6.1,2.6-8.4c2.8-5.4,3.9-8.9,6.7-14.4c2.2-4.2,4.4-8.5,6.6-12.7c-0.1,10.1-0.1,20.3,0,30.7
			c0.1,12.7,0.3,25,0.6,37.3c0.4,0.3,0.7,0.5,1.2,0.6C552.5,365.2,555.2,365.7,556.8,365.1z"/>
		<path class="st41" d="M559.3,235.5l0.4,5.5h-9.2c0.9-2,1.4-4.2,1.4-6.5l5.9-0.5C558.6,234,559.3,234.6,559.3,235.5z"/>
		<path class="st54" d="M527.8,367.9l-1.1,5h-6.6c0.4-1.5,0.8-3.2,1.4-5.2L527.8,367.9z"/>
		<path class="st50" d="M528.5,367.5c10.5-44.8,10.3-44.7,10.3-46.5c2.1-3.9,6.4-8.6,8.4-12.5c2.6-4.8,2.5-8.7,6.5-12.4
			c2.6-2.4,5.6-4.6,7.7-7.4c1.5-1.8,2.6-4,3-6.3c0.4-2.7,0.2-5.5-0.5-8c-0.2-0.8-0.5-1.5-0.7-2.4c-0.4-0.9-0.7-1.7-1.2-2.6l-0.5-0.7
			l-0.8,0.3c-0.6,0.2-1.4,0.4-2,0.5c-0.5,0.1-1.1,0.2-1.4,0.2h-0.3c-1.8,0.3-5.3,0.7-15.1,1.5h-0.4l-0.3,0.4
			c-0.6,0.8-1.3,1.7-1.9,2.6c-2.1,3.3-2.2,8.7-3.2,12.7c-0.6,2.5-1.9,5.8-2.6,8.2c-1.3,4.6-2.8,6.7-3.9,11.4
			c-0.3,1.2-3.4,11.1-2.5,11.8l-6.5,49.7c0,0,2.4,2.8,6.3,1.5c0.7-0.2,1.2-0.8,1.4-1.5L528.5,367.5z"/>
		<path class="st53" d="M517.3,241c7,4.5,14.7,7.8,22.8,9.8c0,2.7-0.1,5.6-0.4,8.5c-0.4,4.8-4.6,27.5-5.5,32.2
			c8.5,3.9,21.2,5,30.2,2.5c0.2-6.9,1.5-32.2,3.1-38.9c0.5-1.6,0.8-3.3,1.4-4.8c0.8-2.6-0.2-5.6-2.5-7.2h-0.1c0,0-0.4-0.3-1-0.6
			c0,0-1.1-0.6-2.2-1.2c-4.7-2.4-11.9-2.3-11.9-2.3c-5.9-0.7-2.5-0.3-15.2-2.2c-4.3-0.6-7.2-1.6-11.2-3.2l-9.5-25.4l-6,1.7
			c1.1,5.4,1.8,11.2,3.5,17.3c0.6,2.1,1.2,4.5,1.8,6.5C515.5,236.3,516.5,238.6,517.3,241z"/>
		<path id="_Path_3_2_" d="M552.2,367L552.2,367c-0.1,0.1-0.5-1.1-1-1.4c-1-0.5-2.1,2.6-4.4,4.6c-0.8,0.7-3.3,1.3-4.3,1.7
			c-0.4,0.2-1.4,0.4-1.4,0.8v0.5c0,0.5,0.4,1,1,0.9l11.6-0.4c0.3,0,0.8,0,1.1-0.2l1.3-0.7l0.3,0.4c0.1,0.2,0.3,0.2,0.5,0.2h2
			c0.2,0,0.4-0.2,0.4-0.4c0-2.1-1.1-4.2-1.9-6.1L552.2,367L552.2,367z"/>
		<path id="_Path_4_2_" d="M520.4,372.1L520.4,372.1c-0.1,0-0.2-0.2-0.4-0.5c-0.5-0.7-1.4-0.9-2.1-0.4c-1.2,0.8-2.8,2.4-5.2,3.7
			c-1.4,0.7-4.6,1.5-6.2,1.9c-0.5,0.1-0.8,0.5-0.8,0.8l0.1,0.5c0,0.4,0.4,0.7,0.7,0.7l14.4,0.2c0.1,0,0.9-0.1,1-0.2l1.9-0.7
			c0.3-0.1,0.4-0.2,0.6,0.1l0,0c0.1,0.2,0.6,0.6,0.9,0.6l1.8-0.2c0.9,0,1.6-0.8,1.5-1.7c-0.1-1.3-0.4-2.7-1-3.9
			c-0.2-0.6-0.8-0.9-1.4-0.9L520.4,372.1z"/>
		<path class="st54" d="M560.1,235.6c0.5-0.7,0.5-1.7,0.2-2.5c-0.3-0.7-0.7-0.7-1-1.4c-0.5-1.2,0.8-2.1,0.5-3.2
			c-0.4-1.1,0.9-2.6-0.4-3.9c-1.5-1.5-3.9-0.5-5.4-2.2c-0.5-0.7-1.1-1.8-2-2.3l-1.4,3.4c-1.2,1.3-3,2.3-3.6,2.8
			c-0.9,0.8,0.3,1.5,0.3,1.5s1.2,0.6,1,0.9c-1.3,3.2-2,3.8-1.3,4.9c0.6,1.1,3.5,1.8,4.9,2.3C551.9,236,558.6,238,560.1,235.6z"/>
		<g>
			<path class="st48" d="M563.3,294.3c0.8-0.2,1.3-0.2,1.2-0.3c-0.7-1-14.9-1.6-17.3-4.5c-0.4-0.4-1-0.6-1.3-1
				c-0.3-0.4-0.4-0.9-0.5-1.4c-1-5.5-2-11.1-2.3-16.7c-0.3-6.5,0.4-13,0-19.5c0-0.6-0.1-1.3-0.4-1.8c-0.4-0.7-1.3-1.1-2.1-1.5
				c-5.9-2.7-11.9-5.4-17.8-8.1c-0.7-0.3-1.5-0.7-2-1.3c-0.5-0.6-0.8-1.4-1-2.2c-2.3-8.8-4.9-18-7.6-26.7l-3,0.8
				c0,0,2.4,17.8,8.1,31.1c0,0,8.6,6.2,22.8,9.8c0.3-1.2-0.2,10.1-3.4,27.1c-0.7,4-1.4,9.2-2.5,13.6c0,0,4.6,2.1,10.2,3.1
				C550.1,295.7,556.7,295.8,563.3,294.3z"/>
		</g>
		<g>
			<path class="st41" d="M552.3,220.7c-1.5,2,2.3,3.5,2.1,5.6c-0.2,1.5-0.7,3.2,0.1,4.6c0.6,1,1.9,1.6,2.3,2.8
				c0.3,0.8,0.2,2.3,0.9,2.8c0.6,0.4,0.9,0.5,1.5,0c1.3-0.8,1.7-2,2.4-3.4c0.6-1.2,0.7-2.6,0.8-4c0.1-1.6,0.2-3.1,0.3-4.7
				c0-0.4,0-0.8-0.1-1.2c-0.2-0.4-0.5-0.8-0.9-1.1c-0.8-0.6-1.7-1.1-2.7-1.5c-0.9-0.3-1.9-0.9-2.9-0.7c-0.5,0.1-0.9,0.3-1.4,0.4
				c-0.3,0.1-0.7,0.1-1,0.1c-0.3-0.1-0.7-0.1-1,0.1L552.3,220.7z"/>
		</g>
		<path d="M567.7,220.9c2,3.3,1.1,4.8,0.9,5.8c-0.9,3.1-1.1,4-4.7,7.7c-3.1,2.8-4.2,3.9-4.2,3.9c-1,0-3.2-4.6-1.8-6.4
			c3.3-3.4,1.1-3.7,1.1-3.7c-0.3-0.2-2.1,1.2-2.1,2.2c0,0.6-1.7-0.4-1.5-0.6c1.1-0.7,1-2.6,1.1-3.1c0.1-0.8-0.3-0.7-0.8-1.2
			c-2.6-1.8-3.8-5.2-3.8-5.2c-0.7-1.1-1.6-2.7-1-3.6c2-0.1,1.8-0.2,4.8-0.1c4.5,0.2,4.9-0.5,7.2,0.1c1.2,0.4,2.3,1,3.2,1.8
			c0.2,0.2,0.4,0.4,0.6,0.6C566.9,219.7,567.5,220.5,567.7,220.9z"/>
		<g>
			<path class="st53" d="M542,295.2c-0.9,11.9-6.5,23-8.8,34.7c-0.4,2.1-0.7,4.1-1.1,6.2c-2.1,10.9-7.3,22.4-7.2,33.6
				c0,0,3.4,0.5,3.6-2.8c0,0,5.7-24.1,7.1-30.4c0,0,2.9-12.7,3.1-15.6c0,0,6.7-6.8,11.4-20c0,0,2.3-4.9,4.5-5.5
				c0,0-7.6-0.2-12.9-1.5L542,295.2z"/>
		</g>
		<path class="st10" d="M548.8,240.3l0.9-1.7c0.4-0.8,1.3-1.1,2.1-0.9c2.1,0.7,6.1,1.8,8,1.7c0.3,0,0.5,0.2,0.4,0.5
			c-0.2,1.1-0.2,1.5-0.3,2.2C559.7,243,554,242.5,548.8,240.3z"/>
	</g>
</g>
</svg>
