<?xml version="1.0" encoding="utf-8"?>
<!-- Generator: Adobe Illustrator 22.0.1, SVG Export Plug-In . SVG Version: 6.00 Build 0)  -->
<svg version="1.1" id="Layer_1" xmlns="http://www.w3.org/2000/svg" xmlns:xlink="http://www.w3.org/1999/xlink" x="0px" y="0px"
	 viewBox="0 0 600 400" style="enable-background:new 0 0 600 400;" xml:space="preserve">
<style type="text/css">
	.st0{opacity:0.4;}
	.st1{fill:url(#SVGID_1_);}
	.st2{fill:url(#SVGID_2_);}
	.st3{fill:url(#SVGID_3_);}
	.st4{fill:url(#SVGID_4_);}
	.st5{fill:url(#SVGID_5_);}
	.st6{fill:url(#SVGID_6_);}
	.st7{fill:url(#SVGID_7_);}
	.st8{fill:url(#SVGID_8_);}
	.st9{fill:url(#SVGID_9_);}
	.st10{fill:url(#SVGID_10_);}
	.st11{fill:url(#SVGID_11_);}
	.st12{fill:url(#SVGID_12_);}
	.st13{fill:url(#Path-72-Copy-5_2_);}
	.st14{fill:#FFFFFF;}
	.st15{fill:#F44336;}
	.st16{fill:#E7C189;}
	.st17{fill:#FFFFFF;stroke:#EF5350;stroke-width:0.15;stroke-miterlimit:10;}
	.st18{enable-background:new    ;}
	.st19{fill:#224372;}
	.st20{fill:#61CCC1;}
	.st21{fill:#162B4D;}
	.st22{fill:#C1A172;}
	.st23{fill:#303030;}
	.st24{fill:#1E3960;}
	.st25{fill:#0C0C0C;}
	.st26{fill:#C62828;}
	.st27{fill:#B71C1C;}
	.st28{fill:#EF5350;}
	.st29{fill:#F4F5FA;}
	.st30{fill:#DFE3ED;}
	.st31{fill:#D3D7E5;}
	.st32{opacity:0.7;}
	.st33{fill:url(#SVGID_13_);}
</style>
<g id="Layer_1_1_">
</g>
<g id="Layer_2_1_" style="transform: scale(1.6);transform-origin: center;">
	<g class="st0">
		
			<linearGradient id="SVGID_1_" gradientUnits="userSpaceOnUse" x1="292.1" y1="79.7267" x2="292.1" y2="296.0335" gradientTransform="matrix(1 0 0 -1 0 400)">
			<stop  offset="0" style="stop-color:#DFE3ED;stop-opacity:0"/>
			<stop  offset="1" style="stop-color:#DFE3ED"/>
		</linearGradient>
		<path class="st1" d="M540.3,301.3c-6.7-12.9-19.7-21.2-35.9-22c7.5-15.3-4-36.4-21-38.2c-7.7-0.8-15.4,1.7-23.2,1.7
			c-7.8,0-16.7-4.1-17.8-11.8c-0.5-3.6,0.9-7.2,2.3-10.6c9.1-21.8,19.6-44.9,15.7-68.2c-3.5-21-19.4-39.4-39.7-45.9
			c-7.4-2.3-15.4-3.2-23-1.3c-19.9,4.8-30.7,25.6-45.6,39.5c-11.1,10.4-25.4,17.4-40.5,19.9c-9.8,1.6-19.8,1.3-29.4,3.7
			c-46.3,11.5-61,76.5-106,91.9c-28.7,9.9-61.1-3.8-90.4,4.1c-18.7,5-34.4,19.5-41.9,37.2H540.3z"/>
	</g>
	<g>
		
			<linearGradient id="SVGID_2_" gradientUnits="userSpaceOnUse" x1="601.35" y1="208.3923" x2="601.35" y2="164.0923" gradientTransform="matrix(-1 0 0 1 651.6 2)">
			<stop  offset="0" style="stop-color:#DFE3ED;stop-opacity:0"/>
			<stop  offset="0.3175" style="stop-color:#DFE3ED;stop-opacity:0.32"/>
			<stop  offset="0.5913" style="stop-color:#DFE3ED;stop-opacity:0.59"/>
			<stop  offset="0.8481" style="stop-color:#DFE3ED;stop-opacity:0.85"/>
			<stop  offset="1" style="stop-color:#DFE3ED"/>
		</linearGradient>
		<rect x="38.5" y="166.2" class="st2" width="23.5" height="44.3"/>
		<g>
			
				<linearGradient id="SVGID_3_" gradientUnits="userSpaceOnUse" x1="578.75" y1="198.5" x2="578.75" y2="156.1" gradientTransform="matrix(-1 0 0 1 651.6 2)">
				<stop  offset="0" style="stop-color:#DFE3ED;stop-opacity:0"/>
				<stop  offset="0.3175" style="stop-color:#DFE3ED;stop-opacity:0.32"/>
				<stop  offset="0.5913" style="stop-color:#DFE3ED;stop-opacity:0.59"/>
				<stop  offset="0.8481" style="stop-color:#DFE3ED;stop-opacity:0.85"/>
				<stop  offset="1" style="stop-color:#DFE3ED"/>
			</linearGradient>
			<path class="st3" d="M62,158.1v42.4h21.7v-42.4H62z M66.1,184.7h12.8v0.6H66.1V184.7z M66.1,182.2h12.8v0.6H66.1V182.2z
				 M66.1,179.7h12.8v0.6H66.1V179.7z M66.1,177.2h12.8v0.6H66.1V177.2z M66.1,174.7h12.8v0.6H66.1V174.7z M66.1,172.2h12.8v0.6
				H66.1V172.2z M66.1,169.8h12.8v0.6H66.1V169.8z M66.1,167.2h12.8v0.6H66.1V167.2z M66.1,164.7h12.8v0.6H66.1V164.7z M66.1,162.3
				h12.8v0.6H66.1V162.3z"/>
		</g>
		
			<linearGradient id="SVGID_4_" gradientUnits="userSpaceOnUse" x1="509.6339" y1="225.6932" x2="524.8661" y2="139.3068" gradientTransform="matrix(-1 0 0 1 651.6 2)">
			<stop  offset="0" style="stop-color:#DFE3ED;stop-opacity:0"/>
			<stop  offset="0.3175" style="stop-color:#DFE3ED;stop-opacity:0.32"/>
			<stop  offset="0.5913" style="stop-color:#DFE3ED;stop-opacity:0.59"/>
			<stop  offset="0.8481" style="stop-color:#DFE3ED;stop-opacity:0.85"/>
			<stop  offset="1" style="stop-color:#DFE3ED"/>
		</linearGradient>
		<rect x="119.4" y="142.6" class="st4" width="29.9" height="83.8"/>
		
			<linearGradient id="SVGID_5_" gradientUnits="userSpaceOnUse" x1="590.05" y1="239" x2="590.05" y2="196" gradientTransform="matrix(-1 0 0 1 651.6 2)">
			<stop  offset="0" style="stop-color:#DFE3ED;stop-opacity:0"/>
			<stop  offset="0.3175" style="stop-color:#DFE3ED;stop-opacity:0.32"/>
			<stop  offset="0.5913" style="stop-color:#DFE3ED;stop-opacity:0.59"/>
			<stop  offset="0.8481" style="stop-color:#DFE3ED;stop-opacity:0.85"/>
			<stop  offset="1" style="stop-color:#DFE3ED"/>
		</linearGradient>
		<path class="st5" d="M53.3,198v43h16.5v-43H53.3z M55.4,223.6h11.9v1.1H55.4V223.6z M55.4,220.1h11.9v1.1H55.4V220.1z M55.4,216.6
			h11.9v1.1H55.4V216.6z M55.4,213.2h11.9v1.1H55.4V213.2z M55.4,209.7h11.9v1.1H55.4V209.7z M55.4,206.2h11.9v1.1H55.4V206.2z
			 M55.4,202.8h11.9v1.1H55.4V202.8z"/>
		
			<linearGradient id="SVGID_6_" gradientUnits="userSpaceOnUse" x1="550.1" y1="216.7" x2="550.1" y2="145.4" gradientTransform="matrix(-1 0 0 1 651.6 2)">
			<stop  offset="0" style="stop-color:#DFE3ED;stop-opacity:0"/>
			<stop  offset="0.3175" style="stop-color:#DFE3ED;stop-opacity:0.32"/>
			<stop  offset="0.5913" style="stop-color:#DFE3ED;stop-opacity:0.59"/>
			<stop  offset="0.8481" style="stop-color:#DFE3ED;stop-opacity:0.85"/>
			<stop  offset="1" style="stop-color:#DFE3ED"/>
		</linearGradient>
		<path class="st6" d="M83.7,149.8v68.9h35.6v-68.9H99.2v-2.4H93v2.4h-2.2v-2.2h-3.1v2.2L83.7,149.8L83.7,149.8z M88.6,203.6v-2.8
			h25.7v2.8H88.6L88.6,203.6z M88.6,199v-2.8h25.7v2.8H88.6L88.6,199z M88.6,194.5v-2.8h25.7v2.8H88.6L88.6,194.5z M88.6,189.8V187
			h25.7v2.8H88.6L88.6,189.8z M88.6,185.3v-2.8h25.7v2.8H88.6L88.6,185.3z M88.6,180.7v-2.8h25.7v2.8H88.6L88.6,180.7z M88.6,176.1
			v-2.8h25.7v2.8H88.6L88.6,176.1z M88.6,171.5v-2.8h25.7v2.8H88.6L88.6,171.5z M88.6,166.9v-2.8h25.7v2.8H88.6L88.6,166.9z
			 M88.6,162.3v-2.8h25.7v2.8H88.6L88.6,162.3z M88.6,157.5v-2.8h25.7v2.8H88.6L88.6,157.5z"/>
	</g>
	<g>
		<g>
			
				<linearGradient id="SVGID_7_" gradientUnits="userSpaceOnUse" x1="436.95" y1="209.4" x2="436.95" y2="141.6" gradientTransform="matrix(1 0 0 1 0 2)">
				<stop  offset="0" style="stop-color:#DFE3ED;stop-opacity:0"/>
				<stop  offset="0.3175" style="stop-color:#DFE3ED;stop-opacity:0.32"/>
				<stop  offset="0.5913" style="stop-color:#DFE3ED;stop-opacity:0.59"/>
				<stop  offset="0.8481" style="stop-color:#DFE3ED;stop-opacity:0.85"/>
				<stop  offset="1" style="stop-color:#DFE3ED"/>
			</linearGradient>
			<path class="st7" d="M420.8,143.6v67.8h32.3v-67.8H420.8z M428.3,171.6h-3.7v-3.7h3.7V171.6z M428.3,165.2h-3.7v-3.7h3.7V165.2z
				 M428.3,158.8h-3.7v-3.6h3.7V158.8z M428.3,152.5h-3.7v-3.7h3.7V152.5z M435,171.6h-3.7v-3.7h3.7V171.6z M435,165.2h-3.7v-3.7
				h3.7V165.2z M435,158.8h-3.7v-3.6h3.7V158.8z M435,152.5h-3.7v-3.7h3.7V152.5z M441.7,171.6H438v-3.7h3.7V171.6z M441.7,165.2
				H438v-3.7h3.7V165.2z M441.7,158.8H438v-3.6h3.7V158.8z M441.7,152.5H438v-3.7h3.7V152.5z M448.4,171.6h-3.7v-3.7h3.7V171.6z
				 M448.4,165.2h-3.7v-3.7h3.7V165.2z M448.4,158.8h-3.7v-3.6h3.7V158.8z M448.4,152.5h-3.7v-3.7h3.7V152.5z"/>
		</g>
		
			<linearGradient id="SVGID_8_" gradientUnits="userSpaceOnUse" x1="535" y1="198.8" x2="535" y2="151.8" gradientTransform="matrix(1 0 0 1 0 2)">
			<stop  offset="0" style="stop-color:#DFE3ED;stop-opacity:0"/>
			<stop  offset="0.3175" style="stop-color:#DFE3ED;stop-opacity:0.32"/>
			<stop  offset="0.5913" style="stop-color:#DFE3ED;stop-opacity:0.59"/>
			<stop  offset="0.8481" style="stop-color:#DFE3ED;stop-opacity:0.85"/>
			<stop  offset="1" style="stop-color:#DFE3ED"/>
		</linearGradient>
		<rect x="526.5" y="153.8" class="st8" width="17" height="47"/>
		<g>
			
				<linearGradient id="SVGID_9_" gradientUnits="userSpaceOnUse" x1="513.7" y1="217.5" x2="513.7" y2="155.8" gradientTransform="matrix(1 0 0 1 0 2)">
				<stop  offset="0" style="stop-color:#DFE3ED;stop-opacity:0"/>
				<stop  offset="0.3175" style="stop-color:#DFE3ED;stop-opacity:0.32"/>
				<stop  offset="0.5913" style="stop-color:#DFE3ED;stop-opacity:0.59"/>
				<stop  offset="0.8481" style="stop-color:#DFE3ED;stop-opacity:0.85"/>
				<stop  offset="1" style="stop-color:#DFE3ED"/>
			</linearGradient>
			<path class="st9" d="M501.4,157.8v61.7H526v-61.7H501.4L501.4,157.8z M523.1,211.7h-18.7v-2.9h18.7V211.7z M523.1,205.9h-18.7
				V203h18.7V205.9z M523.1,200h-18.7v-2.9h18.7V200z M523.1,194.3h-18.7v-2.9h18.7V194.3z M523.1,188.4h-18.7v-2.9h18.7V188.4z
				 M523.1,182.7h-18.7v-2.9h18.7V182.7z M523.1,176.9h-18.7V174h18.7V176.9z M523.1,171h-18.7v-2.9h18.7V171z M523.1,165.3h-18.7
				v-2.9h18.7V165.3z"/>
		</g>
		
			<linearGradient id="SVGID_10_" gradientUnits="userSpaceOnUse" x1="486.35" y1="225.1" x2="486.35" y2="144.7" gradientTransform="matrix(1 0 0 1 0 2)">
			<stop  offset="0" style="stop-color:#DFE3ED;stop-opacity:0"/>
			<stop  offset="0.3175" style="stop-color:#DFE3ED;stop-opacity:0.32"/>
			<stop  offset="0.5913" style="stop-color:#DFE3ED;stop-opacity:0.59"/>
			<stop  offset="0.8481" style="stop-color:#DFE3ED;stop-opacity:0.85"/>
			<stop  offset="1" style="stop-color:#DFE3ED"/>
		</linearGradient>
		<rect x="471.9" y="146.7" class="st10" width="28.9" height="80.4"/>
		<g>
			
				<linearGradient id="SVGID_11_" gradientUnits="userSpaceOnUse" x1="462.5" y1="220" x2="462.5" y2="165" gradientTransform="matrix(1 0 0 1 0 2)">
				<stop  offset="0" style="stop-color:#DFE3ED;stop-opacity:0"/>
				<stop  offset="0.3175" style="stop-color:#DFE3ED;stop-opacity:0.32"/>
				<stop  offset="0.5913" style="stop-color:#DFE3ED;stop-opacity:0.59"/>
				<stop  offset="0.8481" style="stop-color:#DFE3ED;stop-opacity:0.85"/>
				<stop  offset="1" style="stop-color:#DFE3ED"/>
			</linearGradient>
			<path class="st11" d="M453.3,167v55h18.4v-55H453.3z M469.5,197.1h-13.7v-2.5h13.7V197.1z M469.5,192.4h-13.7v-2.5h13.7V192.4z
				 M469.5,187.8h-13.7v-2.5h13.7V187.8z M469.5,183.2h-13.7v-2.5h13.7V183.2z"/>
		</g>
	</g>
	
		<linearGradient id="SVGID_12_" gradientUnits="userSpaceOnUse" x1="1312.8884" y1="110.6" x2="1312.8884" y2="72.3479" gradientTransform="matrix(-1 0 0 1 1760.14 -3.2)">
		<stop  offset="0" style="stop-color:#DFE3ED;stop-opacity:0"/>
		<stop  offset="0.3175" style="stop-color:#DFE3ED;stop-opacity:0.32"/>
		<stop  offset="0.5913" style="stop-color:#DFE3ED;stop-opacity:0.59"/>
		<stop  offset="0.8481" style="stop-color:#DFE3ED;stop-opacity:0.85"/>
		<stop  offset="1" style="stop-color:#DFE3ED"/>
	</linearGradient>
	<path class="st12" d="M505.9,107.4H378.3h-1.7c-5.4-1.4-5.5-3.9-5.6-5.7c-0.3-3.7,5.2-6.7,5.2-6.7c3.6-1.7,7.2-3.5,10.6-5.6
		c9.1-6.1,12.8-11.4,12.8-11.4c20.8-19.8,36.1-0.2,36.1-0.2c6.2,8.3,14.1,5.8,14.1,5.8c24.7-7.3,33.9,4,38.4,7.2s19.2,4.7,19.2,4.7
		s15.6,1.4,16.1,7.4c0,0,0.9,4.5-11.2,4.5C512.3,107.4,505.9,107.4,505.9,107.4z"/>
	
		<linearGradient id="Path-72-Copy-5_2_" gradientUnits="userSpaceOnUse" x1="147.05" y1="316.5601" x2="147.05" y2="347.1667" gradientTransform="matrix(1 0 0 -1 0 400)">
		<stop  offset="0" style="stop-color:#DFE3ED;stop-opacity:0"/>
		<stop  offset="0.3175" style="stop-color:#DFE3ED;stop-opacity:0.32"/>
		<stop  offset="0.5913" style="stop-color:#DFE3ED;stop-opacity:0.59"/>
		<stop  offset="0.8481" style="stop-color:#DFE3ED;stop-opacity:0.85"/>
		<stop  offset="1" style="stop-color:#DFE3ED"/>
	</linearGradient>
	<path id="Path-72-Copy-5_1_" class="st13" d="M95.3,76.8c7.7-4.4,7-7,11.7-7.7c4.8-0.7,6,2.7,13.3,1.3c7.3-1.3,7.2-17.8,28.2-17.5
		c21.1,0.3,20.3,21.1,26.7,21.1s6.1-5,15.8-5s13.9,14.4,34.4,14.4H68.7C81.3,81.9,90.1,79.7,95.3,76.8z"/>
	<g>
		<rect x="134.4" y="122" class="st14" width="300.8" height="179.3"/>
		<path class="st15" d="M435.1,122.2v179.1H134.6V122.2H435.1 M435.3,121.9h-301v179.6h301V121.9L435.3,121.9z"/>
	</g>
	<path class="st16" d="M415.9,193c-0.1,0.6-1.2,9.5,0.7,11.1s5.8,1.6,8.1-1.9c2.3-3.5,4.5-5.1,3-7.6
		C426.4,192.1,416.8,189.4,415.9,193z"/>
	<path class="st14" d="M351.2,260.1H218.5c-3.8,0-6.8-3.1-6.8-6.8V178c0-3.8,3.1-6.8,6.8-6.8h132.6c3.8,0,6.8,3.1,6.8,6.8v75.2
		C358,257,354.9,260.1,351.2,260.1z"/>
	<g>
		
			<image style="overflow:visible;opacity:7.000000e-02;enable-background:new    ;" width="194" height="130" xlink:href="615CABEE.png"  transform="matrix(1 0 0 1 194 139)">
		</image>
		<g>
			<g>
				<path class="st17" d="M358.5,249.7h-149c-3.8,0-6.8-3.1-6.8-6.8v-85.1c0-3.8,3.1-6.8,6.8-6.8h149c3.8,0,6.8,3.1,6.8,6.8v85.1
					C365.3,246.6,362.3,249.7,358.5,249.7z"/>
				<g class="st18">
					<path class="st19" d="M229.3,207c-0.5,0-1-0.1-1.4-0.3c-0.4-0.2-0.8-0.4-1.1-0.8c-0.3-0.3-0.6-0.7-0.8-1.1s-0.3-0.9-0.3-1.4
						s0.1-1,0.3-1.4c0.2-0.4,0.4-0.8,0.8-1.1c0.3-0.3,0.7-0.6,1.1-0.8c0.4-0.2,0.9-0.3,1.4-0.3s1,0.1,1.4,0.3
						c0.4,0.2,0.8,0.4,1.1,0.8c0.3,0.3,0.6,0.7,0.8,1.1c0.2,0.4,0.3,0.9,0.3,1.4s-0.1,1-0.3,1.4c-0.2,0.4-0.4,0.8-0.8,1.1
						c-0.3,0.3-0.7,0.6-1.1,0.8C230.3,206.9,229.8,207,229.3,207z M229.3,205.7c0.3,0,0.6-0.1,0.9-0.2c0.3-0.1,0.5-0.3,0.7-0.5
						c0.2-0.2,0.4-0.5,0.5-0.7c0.1-0.3,0.2-0.6,0.2-1c0-0.4-0.1-0.7-0.2-1c-0.1-0.3-0.3-0.5-0.5-0.7c-0.2-0.2-0.5-0.4-0.7-0.5
						c-0.3-0.1-0.6-0.2-0.9-0.2s-0.6,0.1-0.9,0.2c-0.3,0.1-0.5,0.3-0.7,0.5c-0.2,0.2-0.4,0.5-0.5,0.7c-0.1,0.3-0.2,0.6-0.2,1
						c0,0.4,0.1,0.7,0.2,1c0.1,0.3,0.3,0.5,0.5,0.7c0.2,0.2,0.5,0.4,0.7,0.5C228.7,205.7,229,205.7,229.3,205.7z"/>
					<path class="st19" d="M233.8,202.1h1.2v0.7h0.1c0.1-0.1,0.1-0.2,0.2-0.3c0.1-0.1,0.2-0.2,0.3-0.3c0.1-0.1,0.2-0.1,0.4-0.2
						s0.3-0.1,0.4-0.1c0.2,0,0.3,0,0.4,0.1c0.1,0,0.2,0.1,0.3,0.1l-0.3,1.1c-0.1,0-0.2-0.1-0.3-0.1s-0.2,0-0.3,0
						c-0.2,0-0.3,0-0.5,0.1c-0.1,0.1-0.3,0.2-0.4,0.3c-0.1,0.1-0.2,0.3-0.2,0.4c-0.1,0.2-0.1,0.3-0.1,0.5v2.3h-1.3V202.1z"/>
					<path class="st19" d="M241,206.2L241,206.2c-0.2,0.2-0.4,0.4-0.6,0.5c-0.2,0.1-0.5,0.2-0.9,0.2c-0.3,0-0.6-0.1-0.9-0.2
						c-0.3-0.1-0.5-0.3-0.7-0.5c-0.2-0.2-0.4-0.5-0.5-0.8c-0.1-0.3-0.2-0.6-0.2-1c0-0.4,0.1-0.7,0.2-1s0.3-0.6,0.5-0.8
						c0.2-0.2,0.4-0.4,0.7-0.5s0.6-0.2,0.9-0.2c0.4,0,0.7,0.1,0.9,0.2c0.2,0.1,0.4,0.3,0.5,0.5h0.1l-0.1-0.7v-2.1h1.3v6.9H241V206.2
						z M239.7,205.8c0.2,0,0.3,0,0.5-0.1c0.2-0.1,0.3-0.1,0.4-0.3c0.1-0.1,0.2-0.3,0.3-0.4c0.1-0.2,0.1-0.4,0.1-0.6s0-0.4-0.1-0.6
						c-0.1-0.2-0.2-0.3-0.3-0.4c-0.1-0.1-0.2-0.2-0.4-0.3c-0.2-0.1-0.3-0.1-0.5-0.1s-0.3,0-0.5,0.1c-0.2,0.1-0.3,0.2-0.4,0.3
						c-0.1,0.1-0.2,0.3-0.3,0.4s-0.1,0.4-0.1,0.6c0,0.2,0,0.4,0.1,0.6s0.2,0.3,0.3,0.4c0.1,0.1,0.2,0.2,0.4,0.3
						S239.5,205.8,239.7,205.8z"/>
					<path class="st19" d="M247.6,205.7c-0.2,0.4-0.5,0.7-0.9,0.9s-0.8,0.4-1.4,0.4c-0.4,0-0.7-0.1-1-0.2c-0.3-0.1-0.6-0.3-0.8-0.5
						s-0.4-0.5-0.5-0.8c-0.1-0.3-0.2-0.6-0.2-1c0-0.3,0.1-0.7,0.2-1c0.1-0.3,0.3-0.6,0.5-0.8c0.2-0.2,0.5-0.4,0.8-0.5
						c0.3-0.1,0.6-0.2,1-0.2c0.4,0,0.7,0.1,1,0.2c0.3,0.1,0.5,0.3,0.7,0.5c0.2,0.2,0.4,0.5,0.5,0.8c0.1,0.3,0.2,0.6,0.2,1
						c0,0,0,0.1,0,0.1c0,0,0,0.1,0,0.1c0,0,0,0.1,0,0.1h-3.6c0,0.2,0.1,0.4,0.2,0.5c0.1,0.1,0.2,0.3,0.3,0.3
						c0.1,0.1,0.2,0.2,0.4,0.2c0.1,0,0.3,0.1,0.4,0.1c0.3,0,0.5-0.1,0.7-0.2c0.2-0.1,0.3-0.3,0.4-0.5L247.6,205.7z M246.5,203.8
						c0-0.1,0-0.2-0.1-0.3c0-0.1-0.1-0.2-0.2-0.3c-0.1-0.1-0.2-0.2-0.3-0.2c-0.1-0.1-0.3-0.1-0.5-0.1c-0.3,0-0.5,0.1-0.7,0.2
						c-0.2,0.2-0.4,0.4-0.4,0.6H246.5z"/>
					<path class="st19" d="M248.5,202.1h1.2v0.7h0.1c0.1-0.1,0.1-0.2,0.2-0.3c0.1-0.1,0.2-0.2,0.3-0.3c0.1-0.1,0.2-0.1,0.4-0.2
						s0.3-0.1,0.4-0.1c0.2,0,0.3,0,0.4,0.1c0.1,0,0.2,0.1,0.3,0.1l-0.3,1.1c-0.1,0-0.2-0.1-0.3-0.1s-0.2,0-0.3,0
						c-0.2,0-0.3,0-0.5,0.1c-0.1,0.1-0.3,0.2-0.4,0.3c-0.1,0.1-0.2,0.3-0.2,0.4c-0.1,0.2-0.1,0.3-0.1,0.5v2.3h-1.3V202.1z"/>
					<path class="st19" d="M255.1,206.8l0.3-1.8h-1.1l0.2-1h1.1l0.1-1h-1.1l0.2-1h1.1l0.3-1.8h1.1l-0.3,1.8h1.1l0.3-1.8h1.1L259,202
						h1.1l-0.2,1h-1.1l-0.2,1h1.1l-0.2,1h-1.1l-0.3,1.8h-1.1l0.3-1.8h-1.1l-0.3,1.8H255.1z M256.5,204h1.1l0.2-1h-1.1L256.5,204z"/>
					<path class="st19" d="M263.8,206.8v-1.2h-3v-1l2.9-4.4h1.4v4.2h0.8v1.2H265v1.2H263.8z M263.8,202.1L263.8,202.1l-1.6,2.3h1.6
						V202.1z"/>
					<path class="st19" d="M266.7,206.8v-1.1c0.4-0.4,0.7-0.7,1-1c0.1-0.1,0.3-0.3,0.4-0.4c0.1-0.1,0.3-0.3,0.4-0.4s0.2-0.2,0.3-0.3
						c0.1-0.1,0.2-0.2,0.2-0.2c0.1-0.1,0.2-0.2,0.3-0.3c0.1-0.1,0.1-0.2,0.2-0.3c0-0.1,0.1-0.2,0.1-0.3c0-0.1,0-0.2,0-0.3
						c0-0.2-0.1-0.4-0.3-0.6s-0.4-0.2-0.7-0.2s-0.5,0.1-0.7,0.2c-0.2,0.2-0.3,0.3-0.3,0.6l-1.1-0.5c0.1-0.2,0.1-0.4,0.3-0.5
						s0.3-0.3,0.4-0.5s0.4-0.3,0.6-0.4s0.5-0.1,0.8-0.1c0.3,0,0.6,0,0.9,0.1c0.3,0.1,0.5,0.2,0.7,0.4c0.2,0.2,0.3,0.4,0.4,0.6
						c0.1,0.2,0.2,0.5,0.2,0.8c0,0.4-0.1,0.8-0.3,1.1c-0.2,0.3-0.4,0.7-0.7,1l-0.8,0.8c-0.2,0.2-0.5,0.5-0.7,0.7l0,0.1h2.7v1.1
						H266.7z"/>
					<path class="st19" d="M274.3,207c-0.4,0-0.7-0.1-1-0.2c-0.3-0.1-0.5-0.2-0.8-0.4s-0.4-0.4-0.5-0.6c-0.1-0.2-0.2-0.5-0.2-0.8
						c0-0.2,0-0.4,0.1-0.5c0.1-0.2,0.1-0.3,0.2-0.5c0.1-0.1,0.2-0.3,0.3-0.4c0.1-0.1,0.3-0.2,0.4-0.3v-0.1c-0.2-0.1-0.4-0.3-0.6-0.6
						s-0.2-0.5-0.2-0.8c0-0.3,0.1-0.5,0.2-0.7c0.1-0.2,0.3-0.4,0.5-0.6c0.2-0.2,0.4-0.3,0.7-0.4c0.3-0.1,0.6-0.1,0.9-0.1
						c0.3,0,0.6,0,0.9,0.1s0.5,0.2,0.7,0.4c0.2,0.2,0.3,0.4,0.5,0.6c0.1,0.2,0.2,0.5,0.2,0.7c0,0.3-0.1,0.6-0.2,0.8
						s-0.3,0.4-0.6,0.6v0.1c0.1,0.1,0.3,0.2,0.4,0.3c0.1,0.1,0.2,0.2,0.3,0.4c0.1,0.1,0.2,0.3,0.2,0.5s0.1,0.3,0.1,0.5
						c0,0.3-0.1,0.5-0.2,0.8c-0.1,0.2-0.3,0.4-0.5,0.6s-0.5,0.3-0.8,0.4C275,206.9,274.7,207,274.3,207z M274.3,205.8
						c0.3,0,0.6-0.1,0.8-0.3s0.3-0.4,0.3-0.7c0-0.1,0-0.3-0.1-0.4c-0.1-0.1-0.1-0.2-0.2-0.3c-0.1-0.1-0.2-0.1-0.4-0.2
						s-0.3-0.1-0.4-0.1s-0.3,0-0.4,0.1c-0.1,0-0.3,0.1-0.4,0.2c-0.1,0.1-0.2,0.2-0.2,0.3c-0.1,0.1-0.1,0.2-0.1,0.4
						c0,0.3,0.1,0.5,0.3,0.7S274,205.8,274.3,205.8z M274.3,202.8c0.3,0,0.5-0.1,0.7-0.2c0.2-0.2,0.3-0.3,0.3-0.6
						c0-0.3-0.1-0.4-0.3-0.6c-0.2-0.1-0.4-0.2-0.7-0.2s-0.5,0.1-0.7,0.2s-0.3,0.3-0.3,0.6c0,0.2,0.1,0.4,0.3,0.6
						C273.8,202.7,274,202.8,274.3,202.8z"/>
					<path class="st19" d="M280.5,206.8v-1.2h-3v-1l2.9-4.4h1.4v4.2h0.8v1.2h-0.8v1.2H280.5z M280.5,202.1L280.5,202.1l-1.6,2.3h1.6
						V202.1z"/>
					<path class="st19" d="M286.1,202.6c0.3,0,0.5,0.1,0.7,0.2c0.2,0.1,0.4,0.3,0.6,0.4c0.2,0.2,0.3,0.4,0.4,0.7
						c0.1,0.3,0.2,0.5,0.2,0.9c0,0.3-0.1,0.6-0.2,0.9c-0.1,0.3-0.3,0.5-0.5,0.7c-0.2,0.2-0.5,0.4-0.7,0.5c-0.3,0.1-0.6,0.2-0.9,0.2
						c-0.4,0-0.7-0.1-1-0.2c-0.3-0.1-0.5-0.3-0.7-0.5c-0.2-0.2-0.4-0.5-0.5-0.7c-0.1-0.3-0.2-0.6-0.2-0.9c0-0.4,0.1-0.8,0.3-1.2
						c0.2-0.4,0.4-0.7,0.7-1.1l1.6-2.3l1,0.7l-1.3,1.9l0,0.1C285.8,202.6,285.9,202.6,286.1,202.6z M285.7,205.8
						c0.1,0,0.3,0,0.4-0.1s0.3-0.1,0.4-0.2c0.1-0.1,0.2-0.2,0.2-0.3c0.1-0.1,0.1-0.3,0.1-0.4s0-0.3-0.1-0.4s-0.1-0.2-0.2-0.3
						s-0.2-0.2-0.4-0.2s-0.3-0.1-0.4-0.1c-0.1,0-0.3,0-0.4,0.1c-0.1,0.1-0.3,0.1-0.4,0.2s-0.2,0.2-0.3,0.3s-0.1,0.3-0.1,0.4
						s0,0.3,0.1,0.4c0.1,0.1,0.1,0.2,0.3,0.3c0.1,0.1,0.2,0.2,0.4,0.2C285.5,205.8,285.6,205.8,285.7,205.8z"/>
					<path class="st19" d="M291.8,201.4c-0.1,0-0.2,0-0.3-0.1c-0.1,0-0.2-0.1-0.3-0.2c-0.1-0.1-0.1-0.2-0.2-0.3
						c0-0.1-0.1-0.2-0.1-0.3c0-0.1,0-0.2,0.1-0.3c0-0.1,0.1-0.2,0.2-0.3c0.1-0.1,0.2-0.1,0.3-0.2c0.1,0,0.2-0.1,0.3-0.1
						c0.2,0,0.4,0.1,0.6,0.2c0.2,0.2,0.2,0.3,0.2,0.6s-0.1,0.4-0.2,0.6S292.1,201.4,291.8,201.4z M291.2,206.8v-4.7h1.3v4.7H291.2z"
						/>
					<path class="st19" d="M295.5,207c-0.3,0-0.6,0-0.8-0.1c-0.2-0.1-0.4-0.2-0.6-0.3c-0.2-0.1-0.3-0.3-0.4-0.4s-0.2-0.3-0.3-0.5
						l1.1-0.5c0.1,0.2,0.3,0.4,0.4,0.5c0.2,0.1,0.4,0.2,0.6,0.2c0.2,0,0.4,0,0.5-0.1c0.1-0.1,0.2-0.2,0.2-0.3c0-0.1-0.1-0.2-0.2-0.3
						s-0.3-0.2-0.6-0.2l-0.7-0.1c-0.1,0-0.3-0.1-0.5-0.2c-0.2-0.1-0.3-0.2-0.4-0.3c-0.1-0.1-0.2-0.2-0.3-0.4
						c-0.1-0.2-0.1-0.3-0.1-0.5c0-0.2,0-0.4,0.1-0.6c0.1-0.2,0.2-0.3,0.4-0.5s0.4-0.2,0.6-0.3s0.5-0.1,0.8-0.1
						c0.4,0,0.9,0.1,1.2,0.3s0.6,0.5,0.8,0.8l-1.1,0.4c-0.1-0.2-0.2-0.3-0.4-0.4c-0.2-0.1-0.3-0.1-0.5-0.1c-0.2,0-0.3,0-0.5,0.1
						c-0.1,0.1-0.2,0.2-0.2,0.3c0,0.1,0.1,0.2,0.2,0.3c0.1,0.1,0.3,0.1,0.5,0.2l0.7,0.2c0.5,0.1,0.8,0.3,1.1,0.6s0.4,0.6,0.4,0.9
						c0,0.2,0,0.4-0.1,0.6c-0.1,0.2-0.2,0.4-0.4,0.5c-0.2,0.1-0.4,0.3-0.6,0.3C296.1,206.9,295.8,207,295.5,207z"/>
					<path class="st19" d="M303.3,206.3L303.3,206.3c-0.2,0.2-0.4,0.3-0.6,0.5c-0.2,0.1-0.5,0.2-0.8,0.2c-0.2,0-0.5,0-0.7-0.1
						c-0.2-0.1-0.4-0.2-0.6-0.3c-0.2-0.1-0.3-0.3-0.4-0.5c-0.1-0.2-0.1-0.4-0.1-0.7c0-0.2,0-0.5,0.1-0.7c0.1-0.2,0.2-0.4,0.4-0.5
						c0.2-0.1,0.4-0.2,0.6-0.3c0.2-0.1,0.5-0.1,0.8-0.1c0.3,0,0.6,0,0.8,0.1c0.2,0,0.4,0.1,0.5,0.1v-0.1c0-0.3-0.1-0.5-0.3-0.6
						c-0.2-0.2-0.4-0.2-0.7-0.2c-0.4,0-0.8,0.2-1.1,0.5l-0.9-0.6c0.5-0.6,1.2-0.9,2.1-0.9c0.7,0,1.3,0.2,1.7,0.5
						c0.4,0.3,0.6,0.9,0.6,1.5v2.8h-1.2V206.3z M303.3,204.9c-0.1-0.1-0.3-0.1-0.5-0.2s-0.3-0.1-0.5-0.1c-0.3,0-0.5,0.1-0.7,0.2
						c-0.2,0.1-0.2,0.3-0.2,0.5s0.1,0.3,0.2,0.5c0.2,0.1,0.3,0.2,0.5,0.2c0.2,0,0.3,0,0.5-0.1c0.1-0.1,0.3-0.1,0.4-0.2
						s0.2-0.2,0.2-0.3C303.3,205.2,303.3,205,303.3,204.9z"/>
					<path class="st19" d="M305,202.1h1.4l0.8,3h0.1l0.9-3h1.3l0.9,3h0.1l0.8-3h1.4l-1.5,4.7h-1.4l-0.9-3h-0.1l-0.9,3h-1.3
						L305,202.1z"/>
					<path class="st19" d="M316,206.3L316,206.3c-0.2,0.2-0.4,0.3-0.6,0.5c-0.2,0.1-0.5,0.2-0.8,0.2c-0.2,0-0.5,0-0.7-0.1
						c-0.2-0.1-0.4-0.2-0.6-0.3c-0.2-0.1-0.3-0.3-0.4-0.5c-0.1-0.2-0.1-0.4-0.1-0.7c0-0.2,0-0.5,0.1-0.7c0.1-0.2,0.2-0.4,0.4-0.5
						c0.2-0.1,0.4-0.2,0.6-0.3c0.2-0.1,0.5-0.1,0.8-0.1c0.3,0,0.6,0,0.8,0.1c0.2,0,0.4,0.1,0.5,0.1v-0.1c0-0.3-0.1-0.5-0.3-0.6
						c-0.2-0.2-0.4-0.2-0.7-0.2c-0.4,0-0.8,0.2-1.1,0.5l-0.9-0.6c0.5-0.6,1.2-0.9,2.1-0.9c0.7,0,1.3,0.2,1.7,0.5
						c0.4,0.3,0.6,0.9,0.6,1.5v2.8H316V206.3z M316,204.9c-0.1-0.1-0.3-0.1-0.5-0.2s-0.3-0.1-0.5-0.1c-0.3,0-0.5,0.1-0.7,0.2
						c-0.2,0.1-0.2,0.3-0.2,0.5s0.1,0.3,0.2,0.5c0.2,0.1,0.3,0.2,0.5,0.2c0.2,0,0.3,0,0.5-0.1c0.1-0.1,0.3-0.1,0.4-0.2
						s0.2-0.2,0.2-0.3C316,205.2,316,205,316,204.9z"/>
					<path class="st19" d="M319,201.4c-0.1,0-0.2,0-0.3-0.1c-0.1,0-0.2-0.1-0.3-0.2c-0.1-0.1-0.1-0.2-0.2-0.3c0-0.1-0.1-0.2-0.1-0.3
						c0-0.1,0-0.2,0.1-0.3c0-0.1,0.1-0.2,0.2-0.3c0.1-0.1,0.2-0.1,0.3-0.2c0.1,0,0.2-0.1,0.3-0.1c0.2,0,0.4,0.1,0.6,0.2
						c0.2,0.2,0.2,0.3,0.2,0.6s-0.1,0.4-0.2,0.6C319.4,201.4,319.2,201.4,319,201.4z M318.3,206.8v-4.7h1.3v4.7H318.3z"/>
					<path class="st19" d="M321.2,203.2h-0.8v-1.1h0.8v-1.4h1.3v1.4h1.2v1.1h-1.2v1.9c0,0.1,0,0.2,0,0.3c0,0.1,0.1,0.2,0.1,0.2
						c0.1,0.1,0.2,0.2,0.4,0.2c0.1,0,0.2,0,0.3,0c0.1,0,0.1-0.1,0.2-0.1l0.4,1.1c-0.1,0.1-0.3,0.1-0.5,0.2c-0.2,0-0.4,0.1-0.6,0.1
						c-0.2,0-0.5,0-0.6-0.1s-0.3-0.2-0.5-0.3c-0.3-0.3-0.5-0.7-0.5-1.3V203.2z"/>
					<path class="st19" d="M325.3,201.4c-0.1,0-0.2,0-0.3-0.1c-0.1,0-0.2-0.1-0.3-0.2c-0.1-0.1-0.1-0.2-0.2-0.3
						c0-0.1-0.1-0.2-0.1-0.3c0-0.1,0-0.2,0.1-0.3c0-0.1,0.1-0.2,0.2-0.3c0.1-0.1,0.2-0.1,0.3-0.2c0.1,0,0.2-0.1,0.3-0.1
						c0.2,0,0.4,0.1,0.6,0.2c0.2,0.2,0.2,0.3,0.2,0.6s-0.1,0.4-0.2,0.6C325.8,201.4,325.6,201.4,325.3,201.4z M324.7,206.8v-4.7h1.3
						v4.7H324.7z"/>
					<path class="st19" d="M328.3,202.7L328.3,202.7c0.2-0.2,0.4-0.4,0.7-0.6c0.3-0.1,0.5-0.2,0.9-0.2c0.3,0,0.6,0,0.8,0.1
						c0.2,0.1,0.4,0.2,0.6,0.4c0.1,0.2,0.3,0.4,0.3,0.6c0.1,0.2,0.1,0.5,0.1,0.8v2.9h-1.3v-2.7c0-0.3-0.1-0.6-0.2-0.8
						c-0.2-0.2-0.4-0.2-0.7-0.2c-0.2,0-0.3,0-0.5,0.1c-0.1,0.1-0.2,0.2-0.3,0.3c-0.1,0.1-0.2,0.3-0.2,0.4c0,0.2-0.1,0.4-0.1,0.5v2.3
						h-1.3v-4.7h1.2V202.7z"/>
					<path class="st19" d="M334.8,209c-0.3,0-0.6,0-0.9-0.1c-0.3-0.1-0.5-0.2-0.7-0.3c-0.2-0.1-0.4-0.3-0.5-0.5
						c-0.1-0.2-0.2-0.3-0.3-0.5l1.2-0.5c0.1,0.3,0.2,0.4,0.4,0.6c0.2,0.1,0.4,0.2,0.7,0.2c0.4,0,0.7-0.1,0.9-0.4
						c0.2-0.3,0.3-0.6,0.3-1.1v-0.3H336c-0.1,0.2-0.3,0.4-0.6,0.5c-0.2,0.1-0.5,0.2-0.9,0.2c-0.3,0-0.6-0.1-0.8-0.2
						c-0.3-0.1-0.5-0.3-0.7-0.5c-0.2-0.2-0.4-0.5-0.5-0.8c-0.1-0.3-0.2-0.6-0.2-1c0-0.4,0.1-0.7,0.2-1c0.1-0.3,0.3-0.6,0.5-0.8
						c0.2-0.2,0.4-0.4,0.7-0.5c0.3-0.1,0.5-0.2,0.8-0.2c0.3,0,0.6,0.1,0.9,0.2c0.2,0.1,0.4,0.3,0.6,0.5h0.1v-0.5h1.2v4.4
						c0,0.4-0.1,0.8-0.2,1.1c-0.1,0.3-0.3,0.6-0.5,0.8c-0.2,0.2-0.5,0.4-0.8,0.5C335.5,209,335.2,209,334.8,209z M334.8,205.7
						c0.2,0,0.3,0,0.5-0.1c0.2-0.1,0.3-0.1,0.4-0.3c0.1-0.1,0.2-0.2,0.3-0.4c0.1-0.2,0.1-0.3,0.1-0.6c0-0.2,0-0.4-0.1-0.6
						c-0.1-0.2-0.2-0.3-0.3-0.4c-0.1-0.1-0.2-0.2-0.4-0.3c-0.2-0.1-0.3-0.1-0.5-0.1s-0.3,0-0.5,0.1c-0.1,0.1-0.3,0.1-0.4,0.3
						s-0.2,0.3-0.3,0.4c-0.1,0.2-0.1,0.3-0.1,0.6c0,0.2,0,0.4,0.1,0.6c0.1,0.2,0.2,0.3,0.3,0.4c0.1,0.1,0.2,0.2,0.4,0.3
						S334.7,205.7,334.8,205.7z"/>
				</g>
				<g class="st18">
					<path class="st19" d="M258.6,213.7c0.2,0,0.3,0,0.5,0s0.3,0.1,0.4,0.1l-0.4,1.1c-0.1,0-0.1-0.1-0.2-0.1s-0.2,0-0.3,0
						c-0.2,0-0.3,0.1-0.4,0.2c-0.1,0.1-0.2,0.3-0.2,0.5v0.4h1.2v1.1h-1.2v3.6h-1.3v-3.6H256V216h0.8v-0.5c0-0.3,0-0.5,0.1-0.8
						c0.1-0.2,0.2-0.4,0.4-0.6c0.2-0.2,0.4-0.3,0.6-0.3S258.4,213.7,258.6,213.7z"/>
					<path class="st19" d="M262.1,215.8c0.4,0,0.7,0.1,1,0.2c0.3,0.1,0.6,0.3,0.8,0.5c0.2,0.2,0.4,0.5,0.5,0.8s0.2,0.6,0.2,1
						c0,0.4-0.1,0.7-0.2,1c-0.1,0.3-0.3,0.6-0.5,0.8c-0.2,0.2-0.5,0.4-0.8,0.5c-0.3,0.1-0.6,0.2-1,0.2s-0.7-0.1-1-0.2
						c-0.3-0.1-0.6-0.3-0.8-0.5s-0.4-0.5-0.5-0.8c-0.1-0.3-0.2-0.6-0.2-1c0-0.4,0.1-0.7,0.2-1s0.3-0.6,0.5-0.8
						c0.2-0.2,0.5-0.4,0.8-0.5C261.4,215.9,261.7,215.8,262.1,215.8z M262.1,219.7c0.2,0,0.3,0,0.5-0.1c0.2-0.1,0.3-0.1,0.4-0.3
						c0.1-0.1,0.2-0.3,0.3-0.4c0.1-0.2,0.1-0.4,0.1-0.6s0-0.4-0.1-0.6c-0.1-0.2-0.2-0.3-0.3-0.4c-0.1-0.1-0.2-0.2-0.4-0.3
						c-0.2-0.1-0.3-0.1-0.5-0.1c-0.2,0-0.3,0-0.5,0.1c-0.1,0.1-0.3,0.1-0.4,0.3c-0.1,0.1-0.2,0.3-0.3,0.4c-0.1,0.2-0.1,0.4-0.1,0.6
						s0,0.4,0.1,0.6c0.1,0.2,0.2,0.3,0.3,0.4c0.1,0.1,0.2,0.2,0.4,0.3C261.7,219.7,261.9,219.7,262.1,219.7z"/>
					<path class="st19" d="M265.3,216h1.2v0.7h0.1c0.1-0.1,0.1-0.2,0.2-0.3c0.1-0.1,0.2-0.2,0.3-0.3c0.1-0.1,0.2-0.1,0.4-0.2
						s0.3-0.1,0.4-0.1c0.2,0,0.3,0,0.4,0.1c0.1,0,0.2,0.1,0.3,0.1l-0.3,1.1c-0.1,0-0.2-0.1-0.3-0.1s-0.2,0-0.3,0
						c-0.2,0-0.3,0-0.5,0.1c-0.1,0.1-0.3,0.2-0.4,0.3c-0.1,0.1-0.2,0.3-0.2,0.4c-0.1,0.2-0.1,0.3-0.1,0.5v2.3h-1.3V216z"/>
					<path class="st19" d="M274.2,220.2L274.2,220.2c-0.2,0.2-0.4,0.3-0.6,0.5c-0.2,0.1-0.5,0.2-0.8,0.2c-0.2,0-0.5,0-0.7-0.1
						c-0.2-0.1-0.4-0.2-0.6-0.3c-0.2-0.1-0.3-0.3-0.4-0.5c-0.1-0.2-0.1-0.4-0.1-0.7c0-0.2,0-0.5,0.1-0.7c0.1-0.2,0.2-0.4,0.4-0.5
						c0.2-0.1,0.4-0.2,0.6-0.3c0.2-0.1,0.5-0.1,0.8-0.1c0.3,0,0.6,0,0.8,0.1c0.2,0,0.4,0.1,0.5,0.1v-0.1c0-0.3-0.1-0.5-0.3-0.6
						c-0.2-0.2-0.4-0.2-0.7-0.2c-0.4,0-0.8,0.2-1.1,0.5l-0.9-0.6c0.5-0.6,1.2-0.9,2.1-0.9c0.7,0,1.3,0.2,1.7,0.5s0.6,0.9,0.6,1.5
						v2.8h-1.2V220.2z M274.2,218.8c-0.1-0.1-0.3-0.1-0.5-0.2c-0.2,0-0.3-0.1-0.5-0.1c-0.3,0-0.5,0.1-0.7,0.2
						c-0.2,0.1-0.2,0.3-0.2,0.5s0.1,0.3,0.2,0.5c0.2,0.1,0.3,0.2,0.5,0.2c0.2,0,0.3,0,0.5-0.1c0.1-0.1,0.3-0.1,0.4-0.2
						c0.1-0.1,0.2-0.2,0.2-0.3C274.2,219.1,274.2,218.9,274.2,218.8z"/>
					<path class="st19" d="M276.4,216h1.2v0.6h0.1c0.1-0.2,0.3-0.4,0.5-0.5c0.2-0.1,0.5-0.2,0.9-0.2c0.3,0,0.6,0.1,0.9,0.2
						s0.5,0.3,0.7,0.5c0.2,0.2,0.4,0.5,0.5,0.8s0.2,0.6,0.2,1c0,0.4-0.1,0.7-0.2,1c-0.1,0.3-0.3,0.6-0.5,0.8
						c-0.2,0.2-0.4,0.4-0.7,0.5c-0.3,0.1-0.6,0.2-0.9,0.2c-0.4,0-0.7-0.1-0.9-0.2c-0.2-0.1-0.4-0.3-0.5-0.5h-0.1l0.1,0.7v2h-1.3V216
						z M278.9,219.7c0.2,0,0.3,0,0.5-0.1s0.3-0.2,0.4-0.3c0.1-0.1,0.2-0.3,0.3-0.4s0.1-0.4,0.1-0.6c0-0.2,0-0.4-0.1-0.6
						s-0.2-0.3-0.3-0.4c-0.1-0.1-0.2-0.2-0.4-0.3c-0.2-0.1-0.3-0.1-0.5-0.1s-0.3,0-0.5,0.1c-0.2,0.1-0.3,0.1-0.4,0.3
						c-0.1,0.1-0.2,0.3-0.3,0.4c-0.1,0.2-0.1,0.4-0.1,0.6s0,0.4,0.1,0.6c0.1,0.2,0.2,0.3,0.3,0.4c0.1,0.1,0.2,0.2,0.4,0.3
						C278.5,219.7,278.7,219.7,278.9,219.7z"/>
					<path class="st19" d="M282.1,216h1.2v0.6h0.1c0.1-0.2,0.3-0.4,0.5-0.5c0.2-0.1,0.5-0.2,0.9-0.2c0.3,0,0.6,0.1,0.9,0.2
						s0.5,0.3,0.7,0.5c0.2,0.2,0.4,0.5,0.5,0.8s0.2,0.6,0.2,1c0,0.4-0.1,0.7-0.2,1c-0.1,0.3-0.3,0.6-0.5,0.8
						c-0.2,0.2-0.4,0.4-0.7,0.5c-0.3,0.1-0.6,0.2-0.9,0.2c-0.4,0-0.7-0.1-0.9-0.2c-0.2-0.1-0.4-0.3-0.5-0.5h-0.1l0.1,0.7v2h-1.3V216
						z M284.5,219.7c0.2,0,0.3,0,0.5-0.1s0.3-0.2,0.4-0.3c0.1-0.1,0.2-0.3,0.3-0.4s0.1-0.4,0.1-0.6c0-0.2,0-0.4-0.1-0.6
						s-0.2-0.3-0.3-0.4c-0.1-0.1-0.2-0.2-0.4-0.3c-0.2-0.1-0.3-0.1-0.5-0.1s-0.3,0-0.5,0.1c-0.2,0.1-0.3,0.1-0.4,0.3
						c-0.1,0.1-0.2,0.3-0.3,0.4c-0.1,0.2-0.1,0.4-0.1,0.6s0,0.4,0.1,0.6c0.1,0.2,0.2,0.3,0.3,0.4c0.1,0.1,0.2,0.2,0.4,0.3
						C284.2,219.7,284.4,219.7,284.5,219.7z"/>
					<path class="st19" d="M287.8,216h1.2v0.7h0.1c0.1-0.1,0.1-0.2,0.2-0.3c0.1-0.1,0.2-0.2,0.3-0.3c0.1-0.1,0.2-0.1,0.4-0.2
						s0.3-0.1,0.4-0.1c0.2,0,0.3,0,0.4,0.1c0.1,0,0.2,0.1,0.3,0.1l-0.3,1.1c-0.1,0-0.2-0.1-0.3-0.1s-0.2,0-0.3,0
						c-0.2,0-0.3,0-0.5,0.1c-0.1,0.1-0.3,0.2-0.4,0.3c-0.1,0.1-0.2,0.3-0.2,0.4c-0.1,0.2-0.1,0.3-0.1,0.5v2.3h-1.3V216z"/>
					<path class="st19" d="M293.7,215.8c0.4,0,0.7,0.1,1,0.2c0.3,0.1,0.6,0.3,0.8,0.5c0.2,0.2,0.4,0.5,0.5,0.8s0.2,0.6,0.2,1
						c0,0.4-0.1,0.7-0.2,1c-0.1,0.3-0.3,0.6-0.5,0.8c-0.2,0.2-0.5,0.4-0.8,0.5c-0.3,0.1-0.6,0.2-1,0.2s-0.7-0.1-1-0.2
						c-0.3-0.1-0.6-0.3-0.8-0.5s-0.4-0.5-0.5-0.8c-0.1-0.3-0.2-0.6-0.2-1c0-0.4,0.1-0.7,0.2-1s0.3-0.6,0.5-0.8
						c0.2-0.2,0.5-0.4,0.8-0.5C293,215.9,293.3,215.8,293.7,215.8z M293.7,219.7c0.2,0,0.3,0,0.5-0.1c0.2-0.1,0.3-0.1,0.4-0.3
						c0.1-0.1,0.2-0.3,0.3-0.4c0.1-0.2,0.1-0.4,0.1-0.6s0-0.4-0.1-0.6c-0.1-0.2-0.2-0.3-0.3-0.4c-0.1-0.1-0.2-0.2-0.4-0.3
						c-0.2-0.1-0.3-0.1-0.5-0.1c-0.2,0-0.3,0-0.5,0.1c-0.1,0.1-0.3,0.1-0.4,0.3c-0.1,0.1-0.2,0.3-0.3,0.4c-0.1,0.2-0.1,0.4-0.1,0.6
						s0,0.4,0.1,0.6c0.1,0.2,0.2,0.3,0.3,0.4c0.1,0.1,0.2,0.2,0.4,0.3C293.3,219.7,293.5,219.7,293.7,219.7z"/>
					<path class="st19" d="M296.4,216h1.4l1.2,3h0.1l1.2-3h1.4l-2,4.7h-1.2L296.4,216z"/>
					<path class="st19" d="M305.1,220.2L305.1,220.2c-0.2,0.2-0.4,0.3-0.6,0.5c-0.2,0.1-0.5,0.2-0.8,0.2c-0.2,0-0.5,0-0.7-0.1
						c-0.2-0.1-0.4-0.2-0.6-0.3c-0.2-0.1-0.3-0.3-0.4-0.5c-0.1-0.2-0.1-0.4-0.1-0.7c0-0.2,0-0.5,0.1-0.7c0.1-0.2,0.2-0.4,0.4-0.5
						c0.2-0.1,0.4-0.2,0.6-0.3c0.2-0.1,0.5-0.1,0.8-0.1c0.3,0,0.6,0,0.8,0.1c0.2,0,0.4,0.1,0.5,0.1v-0.1c0-0.3-0.1-0.5-0.3-0.6
						c-0.2-0.2-0.4-0.2-0.7-0.2c-0.4,0-0.8,0.2-1.1,0.5l-0.9-0.6c0.5-0.6,1.2-0.9,2.1-0.9c0.7,0,1.3,0.2,1.7,0.5
						c0.4,0.3,0.6,0.9,0.6,1.5v2.8h-1.2V220.2z M305.1,218.8c-0.1-0.1-0.3-0.1-0.5-0.2s-0.3-0.1-0.5-0.1c-0.3,0-0.5,0.1-0.7,0.2
						c-0.2,0.1-0.2,0.3-0.2,0.5s0.1,0.3,0.2,0.5c0.2,0.1,0.3,0.2,0.5,0.2c0.2,0,0.3,0,0.5-0.1c0.1-0.1,0.3-0.1,0.4-0.2
						s0.2-0.2,0.2-0.3C305,219.1,305.1,218.9,305.1,218.8z"/>
					<path class="st19" d="M307.3,220.7v-6.9h1.3v6.9H307.3z"/>
				</g>
			</g>
		</g>
	</g>
	<g>
		<circle class="st20" cx="284" cy="182.3" r="9.1"/>
		<path class="st14" d="M288.7,179.5c-0.2-0.3-0.7-0.3-0.9,0l-4.9,4.5l0,0c-0.2,0.2-0.3,0.3-0.4,0.3l-0.1,0.1h-0.1
			c-0.1,0-0.2-0.1-0.3-0.3l-1.7-1.7c-0.3-0.3-0.7-0.3-0.9,0c-0.3,0.3-0.3,0.7,0,0.9l0,0l1.7,1.7c0.2,0.2,0.4,0.4,0.6,0.5
			s0.5,0.2,0.8,0.2s0.6-0.1,0.8-0.2c0.2-0.1,0.4-0.3,0.6-0.5l0,0l4.9-4.5C288.9,180.2,288.9,179.8,288.7,179.5z"/>
	</g>
	<path class="st21" d="M406.8,244.6c0,0,1.2,18.7,1.7,21.3c0.5,2.6,21,45.1,21,45.1s2.8-0.6,5.5-1.9c0,0-18.2-55.1-18.6-57.4
		c-0.1-0.6,0.4-2.8-0.6-3.6C413.1,245.9,406.8,244.6,406.8,244.6z"/>
	<path class="st19" d="M427.9,245.3c0,0,7,11-6.4,27c0,0-4.1,15.5-4.3,19.6s2.1,21.9,2.1,21.9s-2.2,0.9-6.3,1.5
		c0,0-7.8-26.2-6.7-32.3s2-24.6,2-24.6l3.9-12.7L427.9,245.3z"/>
	<path class="st22" d="M413.6,314.9c0,0,0.7,3.5,0.7,4.2c0,0.2,4.4-1.3,4.4-1.3s-0.1-2.9,0.1-4.4
		C418.9,312.8,413.6,314.9,413.6,314.9z"/>
	<path class="st22" d="M430,310.6l1.7,4.2c0,0,2.1,0.2,3-1c0.4-0.5-0.4-5-0.4-5L430,310.6z"/>
	<path class="st23" d="M421.3,194.6c2.8-0.8,2.3,4.4,2.3,4.4s0.3-1.5,1.5-1.5s1.5,1.9,0.4,3.4s-3.4,3.5-2.4,5.9
		c0.2,0.6,0.9,1.8,1.8,2.3c3,1.6,8.4,2.4,6.8,5.7c-2,4.4-4.2,4.8-2.9,8.9c1.3,3.9,4.5,4.6,7.4,4.3c2.8-0.4,6.8-4.2,4-9.9
		c-2.6-5.2-3.3-6.4-3.1-9.6c0.2-3.9-3.5-2.3-3.3-5.7c0.1-3.5,1-6-0.9-8.4c-1.9-2.5-4.4-2.5-6.4-5.2c-1.4-2-5.3-3.6-9.1-1.5
		c-2.4,1.3-2.8,2.7-2.8,2.7c-0.4,0.8-0.1,3,1.1,4.1C415.7,194.4,418.4,195.5,421.3,194.6z"/>
	<path class="st22" d="M364.2,212.7c2.1-0.2,6-1.3,7.6,0.1c0.6,0.6,2.3,1.6,3.7,2.3c0.8,0.4,3.8,0.9,5.5,1.2
		c2.7,0.4,11.3,1.8,12.4,1.8c1.1,0.1,16.6-10.5,19-9.9s-4,9.3-5.3,10.1s-7,3.6-10.4,4.5c-2.8,0.7-16.8-1.1-22.4-4.6
		c-1.1-0.7-5.3-0.7-5.7-1.5c-0.4-1,4-0.6-0.8-1.6C364.4,214.4,364.2,212.7,364.2,212.7z"/>
	<path class="st24" d="M417.2,207.8l-4.8,0.4c0,0-5.3,8.5-4.2,13.9c1.4,6.8,1.4,11.2,1.4,12c0,0.9-0.1,1.7-0.1,1.7l-3,8.8
		c0,0,9.4,7.1,21.5,0.6c0,0,0.1-15.4,1.4-21s5-9.5,4.9-10.2s-4-4.2-10-5.9l-6-0.3C417.8,207.8,417.5,207.8,417.2,207.8z"/>
	<path class="st22" d="M425.9,209.2c3.7,1.1-3.9,4.5-6,5.8s-3.5,0.3-4-1.9c-0.4-2.2,0.9-4.8,0.9-4.8l0.7-0.2
		c0.3-0.1,0.5-0.3,0.5-0.5c0.1-0.5,0.2-1.1-0.3-2.7c0,0,3,1.2,5.9-1.2C423.5,203.5,422.7,208.2,425.9,209.2z"/>
	<path class="st25" d="M414.1,318.2c-0.6,0.9-2.7,3.2-3.2,3.3s-4.1,1.8-3.9,2.6s3,2.3,4.6,1.5s3.4-1.9,4.2-2.2s1.4-0.1,1.4-0.1
		s2.6,0.3,2.3-2.5c-0.2-2.8-0.8-4.1-0.8-4.1L414.1,318.2z"/>
	<path class="st25" d="M431.2,314.6c-0.3,0.4-2,2.9-2.5,3.6c-1,1.1-3.4,1.5-3.1,2.2c0.3,0.6,1.3,1.5,2.7,1.3c1.4-0.2,5.2-2.3,5.3-2
		c0.4,0.9,3.1-0.3,2.8-1.3s-1-5.2-1.5-5C434.4,313.6,431.2,314.6,431.2,314.6z"/>
	<g>
		<path class="st26" d="M460.4,293.6c0.2,0.1,20.7,0,20.7,0s10.2,1.3,14.9-21.4c0.2-1,0.2-2.1,0-3.1c-0.5-2.3-2.1-5.5-8.1-5
			c0,0-19.4,0.5-27.6,10.1C460.3,274.2,446.3,288.6,460.4,293.6z"/>
		<path class="st15" d="M495.1,267.6c-0.4,6.2-15,5.7-15,5.7c-8.3,0.2-13.3,6.4-15.2,9.2c-0.5,0.8-1,1.6-1.5,2.4
			c-2.7,5.1-5.3,4.6-5.3,4.6c-4.5-0.9-2.6-7.6-2.5-7.7c0,0,3.6-9.3,12.5-13.2c0,0,14.8-6.3,23.4-4.2c1,0.2,1.8,0.7,2.5,1.4
			C494.7,266.2,495.1,266.9,495.1,267.6z"/>
		<g>
			<path class="st27" d="M446.9,314.6c0,0,0.2-0.3,0.6-0.9c1.3-1.9,4.7-6.7,8.6-11.1c1.9-2.2,4-4.2,6-5.7s3.8-2.5,5.3-2.5h0.2
				l0.1-0.2l-0.4-0.2l0.2,0.4c0,0,0.1,0,0.2-0.2l-0.4-0.2l0.2,0.4l-0.1-0.3l0.1,0.3h0.1l-0.1-0.3l0.1,0.3c0,0,0.2,0,0.3,0
				c0.6,0,1.7,0,3,0c2,0,4.4,0,6.4,0s3.4,0,3.4,0v-0.5l-0.1,0.4v-0.1v0.1l0,0v-0.1v0.1c0,0,2.2,0.5,4.9,4c2.7,3.4,5.9,9.8,7.9,21.4
				c0,0.2,0.3,0.4,0.5,0.4s0.4-0.3,0.4-0.5c-2.1-11.9-5.4-18.4-8.2-22c-2.8-3.6-5.2-4.1-5.3-4.1l0,0l0,0c0,0-5.9-0.1-9.9-0.1
				c-1,0-1.9,0-2.5,0c-0.3,0-0.6,0-0.8,0c-0.1,0-0.2,0-0.2,0h-0.1h-0.1c0,0-0.1,0-0.2,0.2l0.4,0.3v-0.5c-2.1,0.1-4.4,1.4-6.7,3.4
				c-3.5,2.9-7.1,7.2-9.9,10.8c-2.8,3.6-4.6,6.4-4.6,6.4c-0.1,0.2-0.1,0.5,0.1,0.6C446.4,314.9,446.7,314.8,446.9,314.6L446.9,314.6
				z"/>
			<path class="st27" d="M455.4,320.8c0,0,0.3-0.4,0.7-1.1c1.6-2.4,5.8-8.5,10.1-13.9c2.2-2.7,4.4-5.3,6.3-7.2
				c1-0.9,1.9-1.7,2.7-2.2c0.8-0.5,1.5-0.8,1.9-0.8c0.3,0,0.4-0.2,0.4-0.5s-0.2-0.4-0.5-0.4c-0.8,0-1.7,0.5-2.8,1.2
				c-1.8,1.3-3.8,3.4-6,6c-6.5,7.6-13.7,18.4-13.7,18.5c-0.1,0.2-0.1,0.5,0.1,0.6C455,321.1,455.3,321,455.4,320.8L455.4,320.8z"/>
			<path class="st27" d="M469.4,295.8l-0.1-0.2L469.4,295.8L469.4,295.8l-0.1-0.2L469.4,295.8L469.4,295.8L469.4,295.8L469.4,295.8
				L469.4,295.8L469.4,295.8L469.4,295.8c0,0,0.2,0,0.6,0.4c0.6,0.5,1.5,1.7,2.7,4.5s2.6,7.1,4.3,13.9c0.1,0.2,0.3,0.4,0.6,0.3
				c0.2-0.1,0.4-0.3,0.3-0.6c-2.2-9-4.1-13.8-5.5-16.4c-0.7-1.3-1.3-2-1.8-2.5c-0.5-0.4-0.9-0.6-1.2-0.6c-0.2,0-0.3,0-0.4,0.1
				c-0.2,0.1-0.3,0.4-0.2,0.6C468.9,295.8,469.1,295.9,469.4,295.8L469.4,295.8z"/>
		</g>
	</g>
	<path class="st28" d="M435.3,122.2h-301v-11.4c0-5.6,4.5-10.1,10.1-10.1h280.8c5.6,0,10.1,4.5,10.1,10.1V122.2z"/>
	<g>
		<circle class="st14" cx="152.1" cy="111.4" r="2.4"/>
		<circle class="st14" cx="163.2" cy="111.4" r="2.4"/>
		<circle class="st14" cx="174.3" cy="111.4" r="2.4"/>
	</g>
	<path class="st25" d="M172.3,318.3c0,0-0.8,1.9-0.4,3.1c0.2,0.8,1.7,1.2,2.7,1.2c0.6,0,0.6-0.3,1,0.3c0.3,0.5,11.1,3.4,11.5,0.1
		c0.2-1.5-1.2-1.8-3.4-2.3c-3.5-0.7-5.4-3.1-5.8-3.2C176.3,317,172.3,318.3,172.3,318.3z"/>
	<path class="st21" d="M146.9,310c-0.1,0.6,0.3,1.1,0.8,1.2c1.9,0.5,6.3,1.5,8.3,0.3c0.3-0.2,5.8-30.5,5.8-30.5l-11-22.6l-1.1,2.2
		c0,0-0.4,23.7-0.4,26.3C149.3,289.1,147.4,305.8,146.9,310z"/>
	<path class="st22" d="M148.4,316.5c0.6,0.5,5.5-0.9,5.6-1.5c0.1-0.5,0.2-3.5,0.3-4.1s-6.1,0.2-6.1,0.2S147.8,316,148.4,316.5z"/>
	<path class="st25" d="M148.8,314.8c0,0-1.2-0.2-1.1,0.9c0.1,1.1,0.1,3.9,0.1,3.9s0.8,1.1,3.6,0.4c0.7-0.2,8.6,3.5,10.3,1.2
		c0.9-1.2-0.6-2.9-2.6-3.2c-3.5-0.5-4.4-4.1-5.2-3.4C152.6,315.8,148.8,314.8,148.8,314.8z"/>
	<path class="st22" d="M172.2,314.8c0,0,0.4,1.9,0.5,4.1c0,0,2.2,1.4,3.9,0.8c0.6-0.2,1.2-0.7,1.2-1.7s-0.3-2.9-0.1-4L172.2,314.8z"
		/>
	<path class="st19" d="M148.3,250.1c0,0-1.1,8.8,2.3,12.1c3.4,3.3,11.4,25.1,11.4,25.1l8.3,27.7c0,0,6,0.7,9.1-0.9l-9.7-48.3
		l-2.1-16.1C167.6,249.7,150.3,249.5,148.3,250.1z"/>
	<path class="st24" d="M154.2,205.1c-0.5,0-0.9,0.1-1.2,0.5c-1.7,1.7-5.5,8.3-5.6,12.9c-0.2,34,0.8,31.7,0.8,31.7s14.3,1.6,19.4,0.1
		c0,0,0.4-7,0.9-20.6c0.3-7.2-2.8-24.4-6.8-24.3L154.2,205.1z"/>
	<path class="st22" d="M154.5,205.7c0,0,1.2-3.3,0.6-5.3c0,0,1.3-2.1,2.8-1.8s3,3.4,3,3.4s-0.2,2.6,0.6,3.8
		C161.6,205.8,157.7,206.7,154.5,205.7z"/>
	<path class="st16" d="M162.9,187.3c0,0,2.2,4.6,2.6,7c0.4,2.6,0.7,5.1-0.3,6.6c-0.4,0.7-3.4,1.1-5.7,0.8c-1.8-0.3-6.1-4.9-6.5-7.5
		s3.4-6.8,5.1-7.6C159.7,185.7,162.9,187.3,162.9,187.3z"/>
	<path class="st25" d="M156.9,202.3c-0.4,0.3-3.3-2.8-4.9-4.6c-1.6-1.8-4.5-6.1-1.9-8.2c0.1-0.1-0.3-2.8,4.1-4.7
		c4.3-1.9,7.8-1.2,8.8-0.7c1.2,0.6,1.8,0.7,1.2,5.4c-0.1,1.1-4.2,0.7-4.9,1s0.2,0.7,0.3,2.3s-0.7,2.2-0.7,2s-1.2-2.2-2.3-1.1
		c-0.6,0.6,0,2.1,1.4,3.3C157.9,197,160.5,199.8,156.9,202.3z"/>
	<g>
		<g>
			<path class="st19" d="M148,311.2c2.2-0.3,4.4-0.1,6.5,0.3c0.6,0.1,0.9-0.8,0.3-1c-2.2-0.4-4.5-0.6-6.8-0.4
				C147.4,310.2,147.4,311.2,148,311.2L148,311.2z"/>
		</g>
	</g>
	<g>
		<path class="st21" d="M170.5,314.5c2.8,0.4,5.5,0.3,8.1-0.7c0.6-0.2,0.3-1.2-0.3-1c-2.5,0.9-5,1.1-7.6,0.7
			C170.2,313.5,169.9,314.5,170.5,314.5L170.5,314.5z"/>
	</g>
	<path class="st21" d="M158,211.4c0,0-4.6,1.1-4.1,7.5c0.6,6.4,13.1,30,13.6,26.2c0.7-5.2,0.9-9.9,1-13.9c0-1.4,0.1-3,0-3.7
		C168.4,224.6,162.9,210.2,158,211.4z"/>
	<g>
		<g>
			<rect x="43.9" y="301.1" class="st29" width="87.8" height="0.4"/>
		</g>
		<g>
			<path class="st14" d="M103.9,263.2c0.7,1.9,6.4,22.5,5.7,25.3c-0.7,2.8,0,8.2-4.3,13H92c-4.3-4.9-3.3-10-4.3-13
				c-0.7-3.1,5.2-23,5.7-25.3H103.9z"/>
			<path class="st30" d="M104.8,291.4c-0.3-1.2-0.3-1.9-1.5-2.1c-2.4-0.9-6.4-1.2-5.7-5.2c0.3-3.1,1.5-5.5-1.2-7.9
				c-2.4-2.1-3.6-4.9-4-8.2c0,0,0,0,0,0.3c-1.9,6.7-4.5,18-4.3,19.7c0.7,3.1,0,8.2,4,13h13.3c1.5-1.9,2.4-3.6,3.1-6.1
				C106.7,294.7,105.1,293.3,104.8,291.4z"/>
			<path class="st29" d="M91.8,257.7c-2.1-1.2-2.8-6.9-5.5-10c-2.8-3.1-4-6.9-5.2-10.9c-2.1-7.3,1.9-14.2-0.9-21.8
				c-2.1-5.7-6.4-17.3,1.5-21c3.1-1.5,2.8,0.9,3.1,4c0,3.6-0.7,7.6,0.3,11.2c0.9,2.4,2.8,3.3,4,5.5c1.2,1.9,1.9,4,1.9,6.4
				c0,1.9-0.3,4,0.3,5.7c0.9,2.4,3.6,4.3,4.9,6.9c1.9,4,4,9.2,0.9,12.8c-2.1,2.8-4.9,5.2-5.7,8.8c0,0.3,0,0.7,0,0.9L91.8,257.7z"/>
			<path class="st30" d="M101.1,263.5c0.3-2.1-3.3-10.4-4-22.2c-0.3-4.9,2.8-11.6,2.1-16.8c-0.7-5.7,1.9-6.7,5.2-10.9
				c2.4-3.1,2.4-7.9,1.5-11.6c-0.7-2.8-1.9-5.2-0.9-7.9c0.9-2.1,2.8-3.3,3.3-5.7c0.3-2.8-0.3-5.7,0.7-8.5c0.9-2.8,3.1-5.2,5.5-6.9
				c3.1-1.9,3.3,0,4.3,3.1c1.2,4.9,1.5,10.4,0.7,15.2c-0.9,4.3-2.4,9.2-1.2,13.7c2.4,7.6,11.8,15.8,6.9,24.3c-0.9,2.1-2.8,3.3-4,5.5
				c-1.2,1.9-2.1,4-3.6,6.1c-2.1,3.1-2.8,7.3-5.5,10c-4,4-7.9,7.9-10.6,13.3L101.1,263.5z"/>
			<path class="st14" d="M84.2,226.7c0,3.1-0.7,9.4,3.6,10.4c0.3,0,0.3,0,0.7-0.3c0.9-0.9,0-2.4-0.7-3.3c-0.3-0.3-0.3-0.3-0.7-0.3
				h-0.3c-0.3,0-0.3,0.3-0.3,0.3c-0.3,1.9,0,3.6,0.9,5.2c0.7,1.2,1.5,2.1,2.8,3.3c1.5,1.9,1.5,3.6,2.1,5.7c0.3,0.7,0.7,1.2,0.9,1.5
				c0.7,1.5,0.7,3.3,0.7,4.9c0,1.5-0.3,3.1-0.7,4.3c-0.3,2.1,0,4,1.9,5.2c0.7,0.3,1.2-0.7,0.7-1.2c-2.4-1.9-0.7-6.9-0.7-9.4
				c0-1.5,0-3.1-0.7-4.3c-0.7-1.5-0.7-3.3-1.2-4.9c-1.2-2.8-4.5-4.9-4.9-7.9c0-0.3,0-0.3,0-0.7c0.3-0.7-0.3-0.9-1.2-0.7
				c-0.7-0.9-0.9-2.1-0.9-3.3c0-1.5,0-3.1,0-4.5c0-0.3-0.3-0.7-0.7-0.7C84.5,226.1,84.2,226.3,84.2,226.7z"/>
			<path class="st14" d="M117.6,212.4c-0.7,2.1-1.5,4.3-3.1,6.1c-1.2,1.5-3.1,1.2-4.3,2.1c-2.1,1.9,0,5.7,0.7,7.9
				c0.9,2.8,2.1,6.1,0,8.5c-0.9,1.2-2.1,2.1-3.3,3.1c-2.1,1.5-3.1,4-2.8,6.4c-2.4,1.9-3.6,4.9-4.9,7.6c-1.2,2.8-2.8,6.4-1.5,9.4
				c0.3,0.7,1.5,0.3,1.2-0.3c-1.2-2.8,0.7-6.4,1.9-8.8c0.9-2.1,2.1-4.3,3.6-6.1c0.3,0.3,0.3,0.3,0.7,0.3c0.7,0,1.2-0.9,1.2-1.5v-0.3
				c0-0.3-0.3-0.7-0.7-0.3c0-4,4-5.2,6.4-8.2c1.9-2.4,0.9-5.5,0-8.2c-0.7-1.9-1.2-3.6-1.5-5.5c-0.7-2.1,2.8-2.8,3.6-3.6
				c2.1-1.5,3.3-4.5,4-7.3c0-0.3,0-0.7-0.3-0.9C118.1,212.4,117.9,212.1,117.6,212.4z"/>
			<path class="st29" d="M96.3,193.3c-0.7,4,0.3,6.9,0.9,10.6c0,1.2,0.3,2.1,0.3,3.3c0.3,1.9,1.9,2.8,2.4,4.3
				c0.7,2.8-0.7,5.7-0.9,8.5c0,2.4,1.9,3.6,3.3,5.2c3.6,3.3-1.5,6.1-3.3,8.8c-1.9,2.4-1.9,5.5-1.9,8.5c0,4.3,0.7,7.6-0.7,11.8
				c0,0.3-0.3,1.9-1.9,8.5c-0.3,0.9,0.9,1.2,0.9,0.7c1.2-4,0.3-3.6,1.5-7.9c1.2-3.1,1.5-6.4,1.2-10c-0.3-4.3-0.9-8.8,2.4-12.1
				c1.9-1.9,3.6-3.3,4-6.1c0.3-1.9-2.4-3.6-3.6-4.9c-2.4-2.1-0.9-6.1-0.7-8.8c0-0.9,0-2.1,0-3.1c-0.3-1.9-1.9-2.8-2.4-4.5
				c-0.6-1.8-0.3-3.3-0.7-4.9c-0.9-2.8-0.9-5.7-0.7-8.5C97.8,192.9,96.6,192.7,96.3,193.3z"/>
			<path class="st14" d="M97.5,263.2c1.2-2.8,2.1-5.7,2.8-8.8c0.9-4,3.1-7.6,5.5-10.6c2.1-2.4,3.6-4.9,5.2-7.9
				c1.2-3.1,1.2-6.7,0.9-10c-0.3-6.1,0.3-12.1,0.7-18c0-7.9,1.2-15.5,3.1-23c0.3-0.9-0.9-1.2-1.2-0.3c-1.5,6.9-2.8,14-2.8,21
				c-0.3,5.5-0.7,10.6-0.9,16.1c0,4.3,0.7,8.2-0.3,12.5c-0.7,3.6-3.6,6.9-6.1,9.7c-1.9,2.1-3.3,4.9-4.5,7.6
				c-1.5,3.6-1.9,7.9-3.3,11.6C96,263.5,97.2,264.1,97.5,263.2z"/>
			<rect x="91.4" y="262.3" class="st31" width="14" height="1.9"/>
		</g>
	</g>
	<path class="st19" d="M158.4,211.3c-0.2,0-5.2,0.9-4.1,7.4c0.7,4.2,14.8,10.7,16.4,10.4c1.5-0.3,11.5-4.9,23.5-16.3
		c0,0-1.3-4-3.9-4.2c0,0-18.9,11.1-19.7,11.2C169.7,219.9,163.3,211.4,158.4,211.3z"/>
	<g class="st32">
		<path class="st21" d="M156.6,215.2c1.2,0,2,1.7,3,2.4s2.1,0.7,3.2,1.4c0.9,0.6,1.7,2,2.6,2.6c1.3,0.8,2.5,1,3.8,1.7
			c0.5,0.3,1.2,0.6,1.8,0.4c0.6-0.1,1.7-0.5,2.2-0.9c1.1-1,1.8-1.9,3.1-2.6c5.4-3,10.9-5.5,16.5-7.9c0.2-0.1,0.4-0.3,0.5-0.1
			s1,0.5,0.8,0.7c-6.3,5.6-14,11.2-21.3,15.3c-0.9,0.5-1.6,0.9-2.1,0.9c-0.6,0-1.5-0.2-2.1-0.4c-4.4-1.7-8.7-4.2-12.5-7
			c-0.6-0.4-0.9-1-1.3-1.6c-0.4-0.7-0.9-1.7-0.9-2.5c-0.1-0.7,0.3-1.2,0.4-1.9c0.1-0.7,0.9-1,1.5-0.8L156.6,215.2z"/>
	</g>
	<path class="st22" d="M190.7,209.3c0,0,3.2-5.6,3.5-5.8c1-0.7,0.9,2.8,0.9,2.8s2.5-1.4,3.6-2.1c2-1.3,3.6-0.6,1.8,1.6
		s-6.1,7.5-8,6.8C189.5,211.4,190.7,209.3,190.7,209.3z"/>
	<path class="st21" d="M428.5,225.6c0,0.3-0.3,8.5-0.3,9.2s-0.2,9.9-0.3,10.4c0,0-10.8,6.4-21.5-0.6c0,0,0.4-1.2,1-2.9
		c0.8-2.4,1.9-5.8,2.2-9.9c0,0-0.6-5.2-0.9-6.8s-1.2-5.4-0.3-6.3c0,0-1.3,3.7,1.7,5.4s3.6,0.6,6.8,2.2c2.9,1.5,5.5,2.3,8,0.8
		C424.8,227.2,428.3,224,428.5,225.6z"/>
	<path class="st16" d="M404.8,234.6l1.2,0.7c0.3,0.2,1.2,1.4,1.1,1.7l-0.8,0.2C406.2,237.3,403.3,236.9,404.8,234.6z"/>
	
		<linearGradient id="SVGID_13_" gradientUnits="userSpaceOnUse" x1="388.7077" y1="162.6223" x2="408.7026" y2="169.8999" gradientTransform="matrix(1 0 0 -1 0 400)">
		<stop  offset="0" style="stop-color:#FFFFFF"/>
		<stop  offset="0.6259" style="stop-color:#DFE0E1"/>
		<stop  offset="1" style="stop-color:#D1D3D4"/>
	</linearGradient>
	<path class="st33" d="M390.8,219.9c-0.1,2.3,0,23,0.5,24.6c0.2,0.6,14.7,3.3,14.7,3.3l-0.1-25.4L390.8,219.9z"/>
	<path class="st22" d="M406.4,236.5c0,0-0.9-1.2-2.7-1.3c-0.4,0-1,0.2-1,0.6c-0.1,1.5-0.3,1.2-0.4,1.7s0.1,0.8,0,1.4
		c-0.1,1.1,0.4,1.8,1.2,1.9c1.8,0.1,2.7-0.3,4.2,0.1s17.5,2.3,19.8-0.3s6.8-12.7,8.3-21.7c0.6-3.5-2.1-6.5-3.8-5.8
		c-1.7,0.7-5.2,6-8.2,21.1c-0.1,0.6-0.6,1.8-2.1,1.6C421,235.7,406.4,236.5,406.4,236.5z"/>
</g>
</svg>
