<svg version="1.1" xmlns="http://www.w3.org/2000/svg" xmlns:xlink="http://www.w3.org/1999/xlink" x="0px" y="0px" viewBox="0 0 700 480" enable-background="new 0 0 700 480" xml:space="preserve"><linearGradient id="a" gradientUnits="userSpaceOnUse" x1="589.5254" y1="245.1045" x2="589.5254" y2="75.5635"><stop offset="0" style="stop-color:#FFFFFF;stop-opacity:0"/><stop offset="0.3175" style="stop-color:#FCFCFC;stop-opacity:0.3175"/><stop offset="0.5913" style="stop-color:#F1F2F2;stop-opacity:0.5913"/><stop offset="0.8481" style="stop-color:#DFE1E1;stop-opacity:0.8481"/><stop offset="1" style="stop-color:#D1D3D4"/></linearGradient><rect x="555.6" y="75.6" fill="url(#a)" width="67.8" height="169.5"/><g><linearGradient id="b" gradientUnits="userSpaceOnUse" x1="109.1323" y1="231.9351" x2="109.1323" y2="158.8384"><stop offset="0" style="stop-color:#FFFFFF;stop-opacity:0"/><stop offset="0.3175" style="stop-color:#FCFCFC;stop-opacity:0.3175"/><stop offset="0.5913" style="stop-color:#F1F2F2;stop-opacity:0.5913"/><stop offset="0.8481" style="stop-color:#DFE1E1;stop-opacity:0.8481"/><stop offset="1" style="stop-color:#D1D3D4"/></linearGradient><path fill="url(#b)" d="M90.4,158.8v73.1h37.5v-73.1H90.4z M120.8,205.7h-22v-1.1h22V205.7z M120.8,201.4h-22v-1h22V201.4z
		 M120.8,197.1h-22v-1.1h22V197.1z M120.8,192.8h-22v-1.1h22V192.8z M120.8,188.5h-22v-1h22V188.5z M120.8,184.2h-22v-1.1h22V184.2z
		 M120.8,179.9h-22v-1.1h22V179.9z M120.8,175.6h-22v-1.1h22V175.6z M120.8,171.3h-22v-1h22V171.3z M120.8,167h-22V166h22V167z"/></g><g><linearGradient id="c" gradientUnits="userSpaceOnUse" x1="107.5156" y1="225.1045" x2="107.5156" y2="97.4551"><stop offset="0" style="stop-color:#FFFFFF;stop-opacity:0"/><stop offset="0.3175" style="stop-color:#FCFCFC;stop-opacity:0.3175"/><stop offset="0.5913" style="stop-color:#F1F2F2;stop-opacity:0.5913"/><stop offset="0.8481" style="stop-color:#DFE1E1;stop-opacity:0.8481"/><stop offset="1" style="stop-color:#D1D3D4"/></linearGradient><path fill="url(#c)" d="M77.2,97.5v127.6h60.7V97.5H77.2z M91.3,150h-6.9v-6.9h6.9V150z M91.3,138.1h-6.9v-6.9h6.9V138.1z
		 M91.3,126.2h-6.9v-6.9h6.9V126.2z M91.3,114.2h-6.9v-6.9h6.9V114.2z M103.9,150H97v-6.9h6.9V150z M103.9,138.1H97v-6.9h6.9V138.1z
		 M103.9,126.2H97v-6.9h6.9V126.2z M103.9,114.2H97v-6.9h6.9V114.2z M116.6,150h-6.9v-6.9h6.9V150z M116.6,138.1h-6.9v-6.9h6.9
		V138.1z M116.6,126.2h-6.9v-6.9h6.9V126.2z M116.6,114.2h-6.9v-6.9h6.9V114.2z M129.2,150h-6.9v-6.9h6.9V150z M129.2,138.1h-6.9
		v-6.9h6.9V138.1z M129.2,126.2h-6.9v-6.9h6.9V126.2z M129.2,114.2h-6.9v-6.9h6.9V114.2z"/></g><linearGradient id="d" gradientUnits="userSpaceOnUse" x1="129.9385" y1="344.7227" x2="160.2007" y2="173.0968"><stop offset="0" style="stop-color:#FFFFFF;stop-opacity:0"/><stop offset="0.3175" style="stop-color:#FCFCFC;stop-opacity:0.3175"/><stop offset="0.5913" style="stop-color:#F1F2F2;stop-opacity:0.5913"/><stop offset="0.8481" style="stop-color:#DFE1E1;stop-opacity:0.8481"/><stop offset="1" style="stop-color:#D1D3D4"/></linearGradient><rect x="125.2" y="173.9" fill="url(#d)" width="39.7" height="170"/><linearGradient id="e" gradientUnits="userSpaceOnUse" x1="43.4932" y1="349.7412" x2="93.2805" y2="212.9517"><stop offset="0" style="stop-color:#FFFFFF;stop-opacity:0"/><stop offset="0.3175" style="stop-color:#FCFCFC;stop-opacity:0.3175"/><stop offset="0.5913" style="stop-color:#F1F2F2;stop-opacity:0.5913"/><stop offset="0.8481" style="stop-color:#DFE1E1;stop-opacity:0.8481"/><stop offset="1" style="stop-color:#D1D3D4"/></linearGradient><rect x="45.7" y="212.2" fill="url(#e)" width="45.4" height="138.4"/><g><linearGradient id="f" gradientUnits="userSpaceOnUse" x1="86.2363" y1="348.6455" x2="156.6863" y2="226.6226"><stop offset="0" style="stop-color:#FFFFFF;stop-opacity:0"/><stop offset="0.3175" style="stop-color:#FCFCFC;stop-opacity:0.3175"/><stop offset="0.5913" style="stop-color:#F1F2F2;stop-opacity:0.5913"/><stop offset="0.8481" style="stop-color:#DFE1E1;stop-opacity:0.8481"/><stop offset="1" style="stop-color:#D1D3D4"/></linearGradient><path fill="url(#f)" d="M91.1,223.8v127.6h60.7V223.8H91.1z M105.2,276.4h-6.9v-6.9h6.9V276.4z M105.2,264.4h-6.9v-6.9h6.9
		V264.4z M105.2,252.5h-6.9v-6.9h6.9V252.5z M105.2,240.6h-6.9v-6.9h6.9V240.6z M117.9,276.4h-6.9v-6.9h6.9V276.4z M117.9,264.4
		h-6.9v-6.9h6.9V264.4z M117.9,252.5h-6.9v-6.9h6.9V252.5z M117.9,240.6h-6.9v-6.9h6.9V240.6z M130.5,276.4h-6.9v-6.9h6.9V276.4z
		 M130.5,264.4h-6.9v-6.9h6.9V264.4z M130.5,252.5h-6.9v-6.9h6.9V252.5z M130.5,240.6h-6.9v-6.9h6.9V240.6z M143.2,276.4h-6.9v-6.9
		h6.9V276.4z M143.2,264.4h-6.9v-6.9h6.9V264.4z M143.2,252.5h-6.9v-6.9h6.9V252.5z M143.2,240.6h-6.9v-6.9h6.9V240.6z"/></g><linearGradient id="g" gradientUnits="userSpaceOnUse" x1="108.4248" y1="211.4043" x2="148.9224" y2="211.4043"><stop offset="0" style="stop-color:#FFFFFF;stop-opacity:0"/><stop offset="0.3175" style="stop-color:#FCFCFC;stop-opacity:0.3175"/><stop offset="0.5913" style="stop-color:#F1F2F2;stop-opacity:0.5913"/><stop offset="0.8481" style="stop-color:#DFE1E1;stop-opacity:0.8481"/><stop offset="1" style="stop-color:#D1D3D4"/></linearGradient><rect x="108.4" y="199" fill="url(#g)" width="40.5" height="24.8"/><linearGradient id="h" gradientUnits="userSpaceOnUse" x1="445.4512" y1="115.0039" x2="445.4512" y2="23.0112"><stop offset="0" style="stop-color:#FFFFFF;stop-opacity:0"/><stop offset="0.3175" style="stop-color:#FCFCFC;stop-opacity:0.3175"/><stop offset="0.5913" style="stop-color:#F1F2F2;stop-opacity:0.5913"/><stop offset="0.8481" style="stop-color:#DFE1E1;stop-opacity:0.8481"/><stop offset="1" style="stop-color:#D1D3D4"/></linearGradient><rect x="425.6" y="23" fill="url(#h)" width="39.7" height="92"/><linearGradient id="i" gradientUnits="userSpaceOnUse" x1="491.4951" y1="204.4707" x2="491.4951" y2="2"><stop offset="0" style="stop-color:#FFFFFF;stop-opacity:0"/><stop offset="0.3175" style="stop-color:#FCFCFC;stop-opacity:0.3175"/><stop offset="0.5913" style="stop-color:#F1F2F2;stop-opacity:0.5913"/><stop offset="0.8481" style="stop-color:#DFE1E1;stop-opacity:0.8481"/><stop offset="1" style="stop-color:#D1D3D4"/></linearGradient><rect x="468.8" y="2" fill="url(#i)" width="45.4" height="202.5"/><linearGradient id="j" gradientUnits="userSpaceOnUse" x1="511.0332" y1="184.333" x2="511.0332" y2="76.3369"><stop offset="0" style="stop-color:#FFFFFF;stop-opacity:0"/><stop offset="0.3175" style="stop-color:#FCFCFC;stop-opacity:0.3175"/><stop offset="0.5913" style="stop-color:#F1F2F2;stop-opacity:0.5913"/><stop offset="0.8481" style="stop-color:#DFE1E1;stop-opacity:0.8481"/><stop offset="1" style="stop-color:#D1D3D4"/></linearGradient><rect x="507.1" y="76.3" fill="url(#j)" width="7.9" height="108"/><linearGradient id="k" gradientUnits="userSpaceOnUse" x1="541.3262" y1="203.9824" x2="541.3262" y2="63.3291"><stop offset="0" style="stop-color:#FFFFFF;stop-opacity:0"/><stop offset="0.3175" style="stop-color:#FCFCFC;stop-opacity:0.3175"/><stop offset="0.5913" style="stop-color:#F1F2F2;stop-opacity:0.5913"/><stop offset="0.8481" style="stop-color:#DFE1E1;stop-opacity:0.8481"/><stop offset="1" style="stop-color:#D1D3D4"/></linearGradient><rect x="515" y="63.3" fill="url(#k)" width="52.7" height="140.7"/><g><linearGradient id="l" gradientUnits="userSpaceOnUse" x1="587.8281" y1="297.1943" x2="587.8281" y2="185.2544"><stop offset="0" style="stop-color:#FFFFFF;stop-opacity:0"/><stop offset="0.3175" style="stop-color:#FCFCFC;stop-opacity:0.3175"/><stop offset="0.5913" style="stop-color:#F1F2F2;stop-opacity:0.5913"/><stop offset="0.8481" style="stop-color:#DFE1E1;stop-opacity:0.8481"/><stop offset="1" style="stop-color:#D1D3D4"/></linearGradient><path fill="url(#l)" d="M563.2,185.3v111.9h49.3V185.3H563.2z M606.5,283h-37.4v-5.3h37.4V283z M606.5,272.4h-37.4v-5.3
		h37.4V272.4z M606.5,261.9h-37.4v-5.3h37.4V261.9z M606.5,251.4h-37.4v-5.3h37.4V251.4z M606.5,240.8h-37.4v-5.3h37.4V240.8z
		 M606.5,230.3h-37.4V225h37.4V230.3z M606.5,219.8h-37.4v-5.3h37.4V219.8z M606.5,209.2h-37.4V204h37.4V209.2z M606.5,198.7h-37.4
		v-5.3h37.4V198.7z"/></g><linearGradient id="m" gradientUnits="userSpaceOnUse" x1="627.1221" y1="299.96" x2="627.1221" y2="136.334"><stop offset="0" style="stop-color:#FFFFFF;stop-opacity:0"/><stop offset="0.3175" style="stop-color:#FCFCFC;stop-opacity:0.3175"/><stop offset="0.5913" style="stop-color:#F1F2F2;stop-opacity:0.5913"/><stop offset="0.8481" style="stop-color:#DFE1E1;stop-opacity:0.8481"/><stop offset="1" style="stop-color:#D1D3D4"/></linearGradient><rect x="612.8" y="136.3" fill="url(#m)" width="28.7" height="163.6"/><linearGradient id="n" gradientUnits="userSpaceOnUse" x1="176.5571" y1="314.4131" x2="176.5571" y2="210.1875"><stop offset="0" style="stop-color:#FFFFFF;stop-opacity:0"/><stop offset="0.3175" style="stop-color:#FCFCFC;stop-opacity:0.3175"/><stop offset="0.5913" style="stop-color:#F1F2F2;stop-opacity:0.5913"/><stop offset="0.8481" style="stop-color:#DFE1E1;stop-opacity:0.8481"/><stop offset="1" style="stop-color:#D1D3D4"/></linearGradient><rect x="165.6" y="210.2" fill="url(#n)" width="22" height="104.2"/><g><linearGradient id="o" gradientUnits="userSpaceOnUse" x1="293.8687" y1="313.6602" x2="293.8687" y2="201.7207"><stop offset="0" style="stop-color:#FFFFFF;stop-opacity:0"/><stop offset="0.3175" style="stop-color:#FCFCFC;stop-opacity:0.3175"/><stop offset="0.5913" style="stop-color:#F1F2F2;stop-opacity:0.5913"/><stop offset="0.8481" style="stop-color:#DFE1E1;stop-opacity:0.8481"/><stop offset="1" style="stop-color:#D1D3D4"/></linearGradient><path fill="url(#o)" d="M269.2,201.7v111.9h49.3V201.7H269.2z M313.4,299.4H276v-5.3h37.4V299.4z M313.4,288.9H276v-5.3
		h37.4V288.9z M313.4,278.4H276v-5.3h37.4V278.4z M313.4,267.8H276v-5.3h37.4V267.8z M313.4,257.3H276V252h37.4V257.3z M313.4,246.8
		H276v-5.3h37.4V246.8z M313.4,236.2H276V231h37.4V236.2z M313.4,225.7H276v-5.3h37.4V225.7z M313.4,215.2H276v-5.3h37.4V215.2z"/></g><linearGradient id="p" gradientUnits="userSpaceOnUse" x1="258.0879" y1="315.376" x2="258.0879" y2="200.0034"><stop offset="0" style="stop-color:#FFFFFF;stop-opacity:0"/><stop offset="0.3175" style="stop-color:#FCFCFC;stop-opacity:0.3175"/><stop offset="0.5913" style="stop-color:#F1F2F2;stop-opacity:0.5913"/><stop offset="0.8481" style="stop-color:#DFE1E1;stop-opacity:0.8481"/><stop offset="1" style="stop-color:#D1D3D4"/></linearGradient><rect x="246.8" y="200" fill="url(#p)" width="22.6" height="115.4"/><linearGradient id="q" gradientUnits="userSpaceOnUse" x1="241.8335" y1="105.6353" x2="241.8335" y2="10"><stop offset="0" style="stop-color:#FFFFFF;stop-opacity:0"/><stop offset="0.3175" style="stop-color:#FCFCFC;stop-opacity:0.3175"/><stop offset="0.5913" style="stop-color:#F1F2F2;stop-opacity:0.5913"/><stop offset="0.8481" style="stop-color:#DFE1E1;stop-opacity:0.8481"/><stop offset="1" style="stop-color:#D1D3D4"/></linearGradient><path fill="url(#q)" d="M216.8,10v95.6h50V10H216.8z M260.4,69.4h-36.1v-2.3h36.1V69.4z M260.4,61.7h-36.1v-2.3h36.1V61.7z
	 M260.4,53.9h-36.1v-2.3h36.1V53.9z M260.4,46.2h-36.1v-2.3h36.1V46.2z M260.4,38.5h-36.1v-2.3h36.1V38.5z M260.4,30.7h-36.1v-2.3
	h36.1V30.7z M260.4,23h-36.1v-2.3h36.1V23z"/><linearGradient id="r" gradientUnits="userSpaceOnUse" x1="478.7021" y1="205.6689" x2="478.7021" y2="150.8804"><stop offset="0" style="stop-color:#FFFFFF;stop-opacity:0"/><stop offset="0.3175" style="stop-color:#FCFCFC;stop-opacity:0.3175"/><stop offset="0.5913" style="stop-color:#F1F2F2;stop-opacity:0.5913"/><stop offset="0.8481" style="stop-color:#DFE1E1;stop-opacity:0.8481"/><stop offset="1" style="stop-color:#D1D3D4"/></linearGradient><rect x="463.4" y="150.9" fill="url(#r)" width="30.6" height="54.8"/><g><linearGradient id="s" gradientUnits="userSpaceOnUse" x1="458.0664" y1="300.7539" x2="458.0664" y2="200.3105"><stop offset="0" style="stop-color:#FFFFFF;stop-opacity:0"/><stop offset="0.3175" style="stop-color:#FCFCFC;stop-opacity:0.3175"/><stop offset="0.5913" style="stop-color:#F1F2F2;stop-opacity:0.5913"/><stop offset="0.8481" style="stop-color:#DFE1E1;stop-opacity:0.8481"/><stop offset="1" style="stop-color:#D1D3D4"/></linearGradient><path fill="url(#s)" d="M429.7,200.3v100.4h56.7V200.3H429.7z M479.8,255.1h-42.2v-4.6h42.2V255.1z M479.8,246.7h-42.2
		v-4.6h42.2V246.7z M479.8,238.2h-42.2v-4.6h42.2V238.2z M479.8,229.8h-42.2v-4.6h42.2V229.8z"/></g><linearGradient id="t" gradientUnits="userSpaceOnUse" x1="135.4761" y1="370.5791" x2="135.4761" y2="241.0742"><stop offset="0" style="stop-color:#FFFFFF;stop-opacity:0"/><stop offset="0.43" style="stop-color:#EAEAEB;stop-opacity:0.43"/><stop offset="1" style="stop-color:#D1D3D4"/></linearGradient><path fill="url(#t)" d="M102.6,370.6H82.8C66.3,368.3,65,348.1,65,348.1c-0.7-6.4,1.1-13.5,5.2-18.6
	c3.6-4.4,8.2-6.9,8.6-13.1c0.5-5.7-0.5-12.1,2.3-17.4c1.8-3.4,4.3-3,7.3-4.6c3.4-1.6,2.5-3.4,2.7-7.3c0.2-7.3,0.9-15.1,7.3-19.7
	c6.4-4.6,17.1-4.6,21.2-11.7c3.6-6.6,6.1-13.3,14.8-14.7c0,0,0.8-0.1,2.1,0c8.6,1.4,11.1,8,14.8,14.7c4.1,7.1,14.8,7.1,21.2,11.7
	c6.4,4.6,7.1,12.4,7.3,19.7c0.2,3.9-0.7,5.7,2.7,7.3c3,1.6,5.5,1.1,7.3,4.6c2.7,5.3,1.8,11.7,2.3,17.4c0.5,6.2,5,8.7,8.6,13.1
	c4.1,5,5.9,12.1,5.2,18.6c0,0-1.3,20.2-17.8,22.4h-19.8H102.6z"/><linearGradient id="u" gradientUnits="userSpaceOnUse" x1="217.6631" y1="318.1006" x2="217.6631" y2="188.1494"><stop offset="0" style="stop-color:#FFFFFF;stop-opacity:0"/><stop offset="0.3175" style="stop-color:#FCFCFC;stop-opacity:0.3175"/><stop offset="0.5913" style="stop-color:#F1F2F2;stop-opacity:0.5913"/><stop offset="0.8481" style="stop-color:#DFE1E1;stop-opacity:0.8481"/><stop offset="1" style="stop-color:#D1D3D4"/></linearGradient><path fill="url(#u)" d="M240.8,203.6v-15.4h-5.2v15.4h-3.7v-8.3h-10.2v8.3h-33.5v114.5h59.2V203.6H240.8z M239.1,293h-42.7
	v-4.6h42.7V293z M239.1,285.4h-42.7v-4.6h42.7V285.4z M239.1,277.8h-42.7v-4.6h42.7V277.8z M239.1,270.1h-42.7v-4.6h42.7V270.1z
	 M239.1,262.5h-42.7v-4.6h42.7V262.5z M239.1,254.8h-42.7v-4.6h42.7V254.8z M239.1,247.2h-42.7v-4.6h42.7V247.2z M239.1,239.6h-42.7
	v-4.6h42.7V239.6z M239.1,232h-42.7v-4.6h42.7V232z M239.1,224.3h-42.7v-4.6h42.7V224.3z M239.1,216.4h-42.7v-4.6h42.7V216.4z"/><g opacity="0.1"><path fill="#5D5D5D" d="M117.8,365c-23.1-0.4-22.4-2.5-61.6,0.2c-23.7-0.5-36.8,4-42.8,5.4c-2.9,2.3,5.2,2.3,12.6,2.8
		c8.2,0.5,15.1,1.7,22.9,2.7c47.9,6.9,115.7,8.3,165.4,8.3c35.4,0,57.2-6.2,92.1-5.8c26.3,0.2,58-9.5,83.1-11.4
		c18.6-1.2,36.7-1,55.3-1.2c10.4,0,30.5,2,40,0.5c15.1-1.5,54-6.7,21-6.7c-12.6,0-77.8-3.1-90.4-4.6c-10.4-1.2-21.2-1.2-31.9-1.4
		c-6,0-11.7,0.2-17.3,0.2c-19.4,0.2-203.9,11.2-222.9,10.1L117.8,365z"/></g><g opacity="0.1"><path fill="#5D5D5D" d="M332.8,360.8c-22.5,0.9-48.1-0.2-69.4,3.3c-8.3,1.2-95.3,2-100.1,5.4c5.9,1.4,83.5,0.1,90.2,0.6
		c7.5,0.5,13.8,1.6,20.9,2.5c43.8,6.3,95.5,4.7,140.9,4.7c64.9,0,90.3,4.2,112.6,4.4c24.1,0.2,43.6-5.8,66.5-7.5
		c17-1.1,22.1-3.6,39-3.7c9.5,0,23.6-0.2,32.2-1.6c13.8-1.4,49.4-6.1,19.2-6.1c-11.6,0-71.1-2.8-82.6-4.2
		c-9.5-1.1-19.3-1.1-29.2-1.2c-5.5,0-10.7,0.2-15.8,0.2c-17.8,0.2-189.6,4.5-206.9,3.6L332.8,360.8z"/></g><rect x="136.4" y="27.9" fill="#FFFFFF" width="442" height="341.7"/><rect x="136.4" y="28" fill="#F23A30" width="442" height="34.2"/><g><rect x="195.2" y="39.3" fill="#B71C1C" width="11.6" height="11.6"/><polygon fill="#B71C1C" points="155.7,39.3 159,45.1 162.3,50.9 155.7,50.9 149,50.9 152.3,45.1 	"/><circle fill="#B71C1C" cx="177.8" cy="45.1" r="5.8"/></g><linearGradient id="v" gradientUnits="userSpaceOnUse" x1="605.5244" y1="463.25" x2="517.5778" y2="431.2401"><stop offset="0" style="stop-color:#FFFFFF;stop-opacity:0"/><stop offset="0.1013" style="stop-color:#F6F7F7;stop-opacity:0.1013"/><stop offset="0.4079" style="stop-color:#E2E3E4;stop-opacity:0.4079"/><stop offset="0.7099" style="stop-color:#D5D7D8;stop-opacity:0.7099"/><stop offset="1" style="stop-color:#D1D3D4"/></linearGradient><rect x="515.5" y="436.9" fill="url(#v)" width="92.1" height="20.7"/><linearGradient id="w" gradientUnits="userSpaceOnUse" x1="594.8438" y1="430.7568" x2="502.8392" y2="397.2699"><stop offset="0" style="stop-color:#FFFFFF;stop-opacity:0"/><stop offset="0.1013" style="stop-color:#F6F7F7;stop-opacity:0.1013"/><stop offset="0.4079" style="stop-color:#E2E3E4;stop-opacity:0.4079"/><stop offset="0.7099" style="stop-color:#D5D7D8;stop-opacity:0.7099"/><stop offset="1" style="stop-color:#D1D3D4"/></linearGradient><polygon fill="url(#w)" points="594.9,430.6 511.4,430.6 502.1,425.4 502.1,399.3 591.7,399.3 591.7,422.4 "/><linearGradient id="x" gradientUnits="userSpaceOnUse" x1="539.418" y1="393.3936" x2="539.418" y2="370.9561"><stop offset="0" style="stop-color:#FFFFFF;stop-opacity:0"/><stop offset="0.1013" style="stop-color:#F6F7F7;stop-opacity:0.1013"/><stop offset="0.4079" style="stop-color:#E2E3E4;stop-opacity:0.4079"/><stop offset="0.7099" style="stop-color:#D5D7D8;stop-opacity:0.7099"/><stop offset="1" style="stop-color:#D1D3D4"/></linearGradient><rect x="495.1" y="371" fill="url(#x)" width="88.6" height="22.4"/><g><path fill="#FFD7B3" d="M590.1,303.3c0,0,15.1,13.7,5.8,21.4C586.7,332.3,583.4,313.3,590.1,303.3z"/><path fill="#FFD7B3" d="M612.9,449.4l1,10.2c0,0-4.1-0.6-6.6,0.6l-2.1-9.9C605.1,450.3,608.8,445,612.9,449.4z"/><path fill="#FFD7B3" d="M547.9,370.3l-0.5,7.7c0,0-2.8,4-5.4,1.8c-2.6-2.2-3.9-9.7-3.9-9.7S544.7,365.1,547.9,370.3z"/><path fill="#3E4265" d="M549.1,382.5c0.7-3.4-1.8-4.9-1.8-4.9c-2.9-3.1-9.8-0.3-9.8-0.3c-3.6-3.7-6.6-0.8-6.6-0.8
		c-4.7,4.3,8,8.9,8,8.9S547.8,388.5,549.1,382.5z"/><path fill="#3E4265" d="M612.9,458c0,0,1.6,0,2.3,2.6c1.1,4,2.5,7.7,0.6,9.7c0,0-0.4,0.5-1.2,0.7c-1.3,0.4-3.6,0.9-4.5-0.1
		c0,0-0.1-1.4-1.2-1.4c-0.3,0-11.7-0.3-10.4-5c0.6-2.1,6.1-1.1,7.6-2.5c1.4-1.4-0.9-1.3,1.6-2.7C609.9,458,611.6,457.7,612.9,458z"/><path fill="#FFD7B3" d="M564.8,269.9c0,0-3.8,6.5,4.1,9.7c0,0,11,5.4-17.1,0.9c0,0-3.7-0.5-3.6-2.6c0.2-2.1,1.5-7,0.1-7.1
		c-1.4-0.1-5.3,1.8-5.4-8.9c0,0-0.8-2.2-0.7-3.4c0-0.7-0.7-5.1,0-7.8c0.4-1.8,2.2-2,2.6-3C545.9,245.4,564.7,261,564.8,269.9z"/><path fill="#1E1E1E" d="M566,246.2c0,0,2,2.1,1.3,7.2c-0.5,4.1-0.8,6.2-0.9,8.1s1.9,11.9-3.4,11.3c-5.9-0.7-8.5-2.6-10.7-4.3
		c-2.3-1.8-4.5-4.8-3.8-5.8c2.2-3.2,2-3.6,0.5-4.7c-1.5-1.1-2.1,0.3-3.1-2.3c-1-2.6-0.3-4.6-2.8-5.1c-2.5-0.5-5.9-6.2-3.2-9.6
		c2.7-3.4,12.6-2.2,17.2-0.4C561.7,242.5,562,242.1,566,246.2z"/><path fill="#FFD7B3" d="M524.1,272.9c0,0-10.1-3.2-10.2-6.4c-0.1-3.2-1.5-25.8-1.5-29.8c-0.1-4,2.3-4.8,1.5-6.7
		c-0.8-1.9-2.4,0.5-2.8,0.1c-0.4-0.3-0.9-10.2-3.2-7c-2.3,3.2-3.3,6.9,0.1,12.8c0,0-3.3,26.4-2.4,32.4c1,6,13.1,14.6,13.1,14.6
		S525.6,278.2,524.1,272.9z"/><path fill="#3E4265" d="M614.6,448.8c0,0-4.9,3.3-11.2,1.1c0,0-4.7-18.2-7.5-25c-1.9-4.6-10.5-19.4-18.3-43.1c0,0-1.2-3.5-2.2-5.2
		c-1-1.7-6.8-2.9-12-10.7c0,0-5.9-3.5-7.5-4.9c-1.5-1.3-7.9-7-10.1-8.4c-0.1,0-0.2-0.1-0.2-0.1l3.9,17.2c0,0-4,2-11.9,0.2
		c0,0-15.9-40.1-10.3-46.1c0,0,8.2-10.9,23.5,3.3c0,0,11.3,1.3,15.8,3.2c4.5,1.8,13.8,8.2,20,11.8c6.2,3.6,16.1,19.3,16.1,21.9
		c-0.1,2.6,0.1,5.5,0.1,5.5s4,34.3,4.3,35.2C607.4,405.4,614.6,448.8,614.6,448.8z"/><path fill="#2C345B" d="M602.6,368.5c0,0-8.4-13.3-17.8-18.7c-9.4-5.4-12-5.7-22-11.3c0,0-8.4-1.9-11.1-10.8
		c-3.8-12.6-12.8-22.3-14.4-30.8c0,0-18.2-9-19-13c0,0,1.7-7.5,5.6-11.8c0,0,15.2,5,17.4,5.1c2.2,0.1,2.1-1.9,6.5,0.3
		c4.4,2.2,19.2,2.8,21.5,1.5c0,0,4.7-2.9,12.2,5.5c0,0,5.9,3.8,12.7,34C594.2,318.4,607.5,363.5,602.6,368.5z"/><path fill="#252A4E" d="M523,281.6c2.9,2.1,6.1,3.6,9.4,4.9c2.7,1.1,5.4,2.2,8.2,3.2c6.3,3.1,7,20.1,9.6,29.3
		c2,7.3,3.1,10.9,10.7,18.8c-2.1-0.6-6.7-3.3-9.1-10.1c-4.5-12.4-12.8-22.3-14.4-30.8c0,0-18.2-9-19-13c0,0,0.5-2.1,1.5-4.7
		C520.9,280,521.9,280.8,523,281.6z"/></g><g><g><path fill="#EF5350" d="M125.4,308.4c-3-1.9-3.9-9.9-7.7-14.1c-3.8-4.2-5.6-10.1-7.1-15.5c-3.2-10.3,2.6-20.2-1.3-30.9
			c-3-8.4-9.2-24.5,2.4-29.9c4.5-2.1,4.1,1.3,4.3,5.6c0.2,5.2-1.1,10.9,0.4,15.9c1.1,3.4,3.9,4.9,5.8,7.7c1.9,2.6,2.6,5.8,2.8,9
			c0.2,2.6-0.6,5.6,0.4,8.2c1.3,3.7,5.4,6.2,7.1,9.9c2.8,5.8,5.6,12.9,1.3,18.3c-3,3.9-6.9,7.3-8.4,12.5c0,0.4-0.2,0.9-0.2,1.3
			L125.4,308.4z"/></g><g><path fill="#B71C1C" d="M138.4,316.5c0.3-3.2-4.5-14.5-5.6-31.3c-0.4-6.7,3.8-16.4,3-23.6c-0.9-8.1,2.8-9.7,7.3-15.5
			c3.4-4.3,3.4-11.4,2.4-16.5c-0.9-3.9-2.8-7.1-1.3-11.2c1.3-3.2,4.1-4.7,4.7-8.2c0.6-4.1-0.4-8.2,0.9-12.2c1.3-3.4,4.3-7.9,7.7-9.9
			c4.3-2.6,4.9,0,6,4.3c1.7,7.1,2.2,14.6,0.6,21.7c-1.3,6.2-3.6,12.9-1.7,19.3c3.4,10.7,16.8,22.5,10.1,34.6c-1.5,3-4.1,4.9-5.8,7.7
			c-1.9,2.8-3.2,5.8-5.2,8.6c-3.2,4.3-4.1,10.5-7.9,14.4c-5.6,5.8-11.1,11.1-15.1,19V316.5z"/></g><path fill="#EF5350" d="M142.3,316.1c0.8,2.7,9,31.8,8.1,35.8c-1,4.2,0.1,11.5-5.9,18.6h-6.9h-5h-6.9c-6-7-4.9-14.4-5.9-18.6
		c-0.9-4,7.2-32.6,8.1-35.7L142.3,316.1z"/><g><path fill="#B71C1C" d="M143.6,356.4c-0.4-1.5-0.4-2.5-2-3.2c-3.7-1.5-9.1-1.7-8.3-7.1c0.7-4.2,2.1-7.7-1.6-11
			c-3.6-3.2-5-7.2-5.6-11.5c0,0-0.1,0.1-0.1,0.3c-2.6,9.6-6.7,25.3-6,28.1c1,4.2-0.1,11.5,5.8,18.4h6.9h5h7c2.4-2.9,3.7-5.8,4.4-8.5
			C146.3,361.1,144.4,359.1,143.6,356.4z"/></g><g><g><path fill="#9D2229" d="M114.9,264.4c0,3.3-0.2,6.7,0.7,9.9c0.5,1.8,2.4,4.7,4.6,4.3c1.6-0.3-0.4-4-0.9-4.4
				c-1.6-1.2-1.3,2.6-1.2,3.1c0.3,3,2.1,5.3,4.1,7.5c1.3,1.5,2.6,3.1,3.3,5c0.7,2.1,0.2,4,1.4,6.1c2.2,4,0.8,9.3,0.2,13.6
				c-0.3,2.5-0.2,5.7,2.3,7c0.6,0.3,1.1-0.6,0.5-0.9c-2.7-1.3-2-5-1.7-7.4c0.3-2.3,0.6-4.4,0.7-6.7c0-1.2,0-2.4-0.2-3.6
				c-0.3-1.9-1.8-3.3-2-5.3c-0.3-2.6-0.6-4.3-2.1-6.4c-1.4-1.9-3.1-3.5-4.4-5.5c-0.7-1-1-2.2-1.1-3.4c0-0.4-0.1-0.9-0.1-1.3
				c0-0.1,0-0.3,0-0.4c0.2-0.6,0.1-0.7-0.2-0.4c0.3,0.5,0.6,1.1,0.7,1.6c0.4,1.1-1.6-0.4-1.8-0.6c-1-1-1.3-2.7-1.6-4
				c-0.5-2.6-0.3-5.3-0.3-7.9C115.9,263.7,114.9,263.7,114.9,264.4L114.9,264.4z"/></g></g><g><g><path fill="#EF5350" d="M136.3,315.2c-1.8-3.8,0.7-9,2.4-12.4c1.9-3.7,3.6-8.6,7.5-10.6c-0.2-0.1-0.5-0.2-0.7-0.3
				c-0.1,0.3-0.3,0.7-0.4,1c0.2,0.1,0.4,0.2,0.6,0.3c-1.4-6.2,3.2-8.8,7.3-12.3c3.7-3.2,3.2-7.5,2.1-11.8c-0.7-2.5-1.3-5-2.2-7.4
				c-0.5-1.6-1.8-4.1,0.6-5.1c1-0.4,2.1-0.6,3.1-1.1c4-2,5.9-6.9,6.9-10.9c0.2-0.6-0.8-0.9-1-0.3c-0.6,2.6-1.5,5-3,7.2
				c-0.9,1.3-2.1,2.3-3.4,3.1c-1.1,0.6-2.4,0.6-3.5,1.2c-1.3,0.8-1.7,1.9-1.4,3.4c0.6,2.6,1.5,5.2,2.2,7.7c1,3.2,2.3,6.7,1.3,10.1
				c-0.7,2.5-3.5,4.2-5.4,5.7c-3.6,2.9-5.6,6.2-4.5,10.8c0.1,0.3,0.4,0.4,0.6,0.3c1.2-0.3,1.5-1.1,1.1-2.2c-0.1-0.3-0.4-0.5-0.7-0.3
				c-4.3,2.2-6.1,7.4-8.1,11.4c-1.8,3.7-4,8.9-2.1,13C135.7,316.3,136.5,315.8,136.3,315.2L136.3,315.2z"/></g></g><g><g><path fill="#9D2229" d="M132.2,217.2c-0.4,2.3-0.5,4.6-0.4,6.9c0.2,2.7,1.2,5.1,1.6,7.7c0.3,2,0.2,3.9,0.8,5.8
				c0.7,2.3,2.9,3.8,3.3,6.2c0.5,4.1-1.3,8.2-1.3,12.2c0,3.5,3.5,5.4,5.6,7.7c3.7,4-2.5,8.3-5,11c-3.2,3.5-3.3,8.2-3.2,12.7
				c0.1,2.9,0.4,5.9,0.5,8.8c0.1,2.9-0.8,5.8-1.8,8.5c-2.2,5.8-2.3,12.1-4.2,18c-0.2,0.6,0.8,0.9,1,0.3c1.8-5.6,2-11.6,3.9-17.2
				c0.8-2.3,1.8-4.5,2-7c0.3-2.9,0-5.8-0.2-8.7c-0.2-3.2-0.3-6.5,0.2-9.7c0.4-2.7,2-4.6,3.9-6.5c2-2,5.7-4.9,5.2-8.1
				c-0.6-3.5-4.5-5.1-6.3-7.9c-1.2-1.7-0.4-4.8,0-6.7c0.3-2,0.7-3.9,0.8-5.9c0.1-1.5-0.1-3.1-0.8-4.4c-0.7-1.4-1.9-2.2-2.5-3.8
				c-0.4-1.2-0.5-2.4-0.6-3.7c-0.1-2.2-0.7-4.2-1.2-6.3c-0.8-3.2-0.8-6.6-0.2-9.9C133.3,216.9,132.4,216.6,132.2,217.2L132.2,217.2z
				"/></g></g><g><g><path fill="#FFFFFF" d="M132.9,316.2c2.3-4.6,3.1-9.6,4.4-14.6c1.5-5.4,4.4-9.6,7.8-14c2.7-3.4,5.4-6.8,7-10.9
				c2-4.9,1.3-10.6,1.1-15.8c-0.2-4.4,0.4-8.7,0.6-13.2c0.2-3.7,0.2-7.5,0.3-11.2c0.3-10.8,1.5-21.4,4.1-31.9c0.2-0.6-0.8-0.9-1-0.3
				c-2.5,9.9-3.7,19.9-4.1,30.1c-0.2,3.9-0.2,7.8-0.3,11.7c-0.2,4-0.8,8-0.8,12c0.1,5.6,1,11.3-0.5,16.8c-1.3,5-5,9.1-8.1,13
				c-2.8,3.6-5.2,7.2-6.7,11.6c-1.7,5.3-2.2,10.9-4.8,15.9C131.7,316.2,132.6,316.8,132.9,316.2L132.9,316.2z"/></g></g><g><rect x="124.6" y="314.9" fill="#9D2229" width="19.7" height="2.5"/></g></g></svg>