<?xml version="1.0" encoding="utf-8"?>
<!-- Generator: Adobe Illustrator 16.0.0, SVG Export Plug-In . SVG Version: 6.00 Build 0)  -->
<!DOCTYPE svg PUBLIC "-//W3C//DTD SVG 1.1//EN" "http://www.w3.org/Graphics/SVG/1.1/DTD/svg11.dtd">
<svg version="1.1" id="Layer_1" xmlns="http://www.w3.org/2000/svg" xmlns:xlink="http://www.w3.org/1999/xlink" x="0px" y="0px"
	 width="1080px" height="260px" viewBox="0 0 1080 260" enable-background="new 0 0 1080 260" xml:space="preserve">
<g>
	
		<linearGradient id="SVGID_1_" gradientUnits="userSpaceOnUse" x1="0.4995" y1="-0.1152" x2="0.4995" y2="0.1162" gradientTransform="matrix(-1009.8853 -8.828697e-005 -8.828697e-005 1009.8853 1073.5 122)">
		<stop  offset="0" style="stop-color:#FFFFFF"/>
		<stop  offset="0.4692" style="stop-color:#FCFCFD"/>
		<stop  offset="0.7636" style="stop-color:#F4F4F5"/>
		<stop  offset="1" style="stop-color:#E6E7E8"/>
	</linearGradient>
	<path fill="url(#SVGID_1_)" d="M868.9,5.2C799.6,54.4,717,74.7,640.4,74.7c-47.7,0-93-7.9-131.4-21.6c-12.8-4.6-26.8-6.6-41.4-6.6
		c-95.8,0-220.9,85.6-244.5,99.4c-5.9,3.5-11.6,4.8-17.2,4.8c-19.9,0-39.1-17.3-68-17.3c-24.7,0-49.4,17.8-74.1,53.5l10.8,20
		c25-16.8,44.8-25.2,59.4-25.2c2.7,0,5.3,0.3,7.7,0.9c22.5,5.6,30.9,19.1,77.6,36.9c4.2,1.6,9.1,2.3,14.5,2.3
		c21,0,50.9-10.3,83.8-20.6c32.9-10.3,68.8-20.6,101.7-20.6c22.1,0,42.8,4.6,60.4,16.9c33.8,23.6,92.3,41.1,164.5,41.1
		c52.1,0,111.4-9.2,173.6-31.8c44.5-16.2,134-54.9,255.8-146.7L868.9,5.2"/>
</g>
<g id="Rectangle-76-Clipped">
	<g id="path-2_2_">
	</g>
	<defs>
		<filter id="Adobe_OpacityMaskFilter" filterUnits="userSpaceOnUse" x="434.2" y="82.2" width="205" height="173.4">
			<feColorMatrix  type="matrix" values="1 0 0 0 0  0 1 0 0 0  0 0 1 0 0  0 0 0 1 0"/>
		</filter>
	</defs>
	<mask maskUnits="userSpaceOnUse" x="434.2" y="82.2" width="205" height="173.4" id="mask-6_1_">
		<g filter="url(#Adobe_OpacityMaskFilter)">
			<path id="path-5_5_" fill="#FFFFFF" d="M63,187.9c24.7-35.7,49.4-53.5,74.1-53.5c37.1,0,58,28.3,85.2,12.4
				C249.5,130.9,411.6,19.6,508.2,54c100.2,35.7,206.5,13.7,318.9-66.1l239.4,58c-121.8,91.8-204.9,145.9-249.4,162
				c-148.4,54-279.9,31.3-338.1-9.3c-77.2-53.9-213.8,39.8-260.6,21.9c-46.7-17.8-55.2-31.3-77.6-36.9c-15-3.7-37.4,4.3-67.1,24.3
				L63,187.9z"/>
		</g>
	</mask>
	<path id="Rectangle-76" mask="url(#mask-6_1_)" fill="#FFFFFF" d="M444.1,82.2h185.3c5.4,0,9.9,4.4,9.9,9.9v153.7
		c0,5.4-4.4,9.9-9.9,9.9H444.1c-5.4,0-9.9-4.4-9.9-9.9V92C434.2,86.6,438.6,82.2,444.1,82.2z"/>
</g>
<path opacity="0.5906" fill="#FFFFFF" enable-background="new    " d="M429.3,94.7c-3-1.5-4.9-2.4-6.9-3.7c-6-4-8.4-7.5-8.4-7.5
	c-13.6-13-23.7-0.1-23.7-0.1c-4.1,5.4-9.2,3.8-9.2,3.8c-16.2-4.8-22.2,2.6-25.2,4.7C353,94,343.3,95,343.3,95s-10.3,0.9-10.6,4.9
	c0,0-5.2,2.9,10.3,2.8l1.3,0.1c27.9,0,55.7,0,83.7,0l1.1,0c3.5-0.9,3.6-2.6,3.7-3.7C432.9,96.7,429.3,94.7,429.3,94.7z"/>
<g>
	<g id="Rectangle-81-Copy-Clipped" opacity="0.3" enable-background="new    ">
		<g id="path-2_8_">
		</g>
		<defs>
			<filter id="Adobe_OpacityMaskFilter_1_" filterUnits="userSpaceOnUse" x="562.1" y="195" width="58" height="39.6">
				<feColorMatrix  type="matrix" values="1 0 0 0 0  0 1 0 0 0  0 0 1 0 0  0 0 0 1 0"/>
			</filter>
		</defs>
		<mask maskUnits="userSpaceOnUse" x="562.1" y="195" width="58" height="39.6" id="mask-19_1_">
			<g filter="url(#Adobe_OpacityMaskFilter_1_)">
				<path id="path-18_1_" fill="#FFFFFF" d="M60.3,180.8c25.1-35.4,50-53,74.7-52.7c37.1,0.4,57.7,29,85.1,13.3
					c27.3-15.6,190.6-125.2,286.9-89.8C606.7,88.4,713.2,67.5,826.4-11l238.8,60.6c-122.8,90.5-206.5,143.7-251.1,159.4
					c-148.9,52.4-280.2,28.3-337.9-12.9c-76.7-54.7-214.2,37.5-260.8,19.1c-46.6-18.3-54.8-31.9-77.2-37.7
					c-14.9-3.9-37.4,3.9-67.3,23.5L60.3,180.8z"/>
			</g>
		</mask>
		<path id="Rectangle-81-Copy" opacity="0.4" mask="url(#mask-19_1_)" fill="#4A4F70" enable-background="new    " d="M565,195.3
			l51.9-0.3c1.6,0,2.9,1.3,2.9,2.9l0.2,33.4c0,1.6-1.3,2.9-2.9,2.9l-51.9,0.3c-1.6,0-2.9-1.3-2.9-2.9l-0.2-33.4
			C562.1,196.6,563.4,195.3,565,195.3z"/>
	</g>
	<g>
		<g>
			
				<rect x="587.7" y="209.6" transform="matrix(0.9999 1.070465e-002 -1.070465e-002 0.9999 2.2852 -6.4347)" fill="#FFFFFF" width="29" height="1.3"/>
			
				<rect x="587.7" y="213.4" transform="matrix(0.9999 1.073867e-002 -1.073867e-002 0.9999 2.3334 -6.4544)" fill="#FFFFFF" width="29" height="1.3"/>
			
				<rect x="587.6" y="217.2" transform="matrix(0.9999 1.073831e-002 -1.073831e-002 0.9999 2.3743 -6.4536)" fill="#FFFFFF" width="29" height="1.3"/>
		</g>
		<circle fill="#FFFFFF" cx="574.9" cy="214.4" r="7.9"/>
	</g>
</g>
<g id="Rectangle-76-Copy-Clipped" opacity="0.4" enable-background="new    ">
	<g id="path-2_10_">
	</g>
	<defs>
		<filter id="Adobe_OpacityMaskFilter_2_" filterUnits="userSpaceOnUse" x="434.2" y="82.2" width="205" height="26.1">
			<feColorMatrix  type="matrix" values="1 0 0 0 0  0 1 0 0 0  0 0 1 0 0  0 0 0 1 0"/>
		</filter>
	</defs>
	<mask maskUnits="userSpaceOnUse" x="434.2" y="82.2" width="205" height="26.1" id="mask-25_1_">
		<g filter="url(#Adobe_OpacityMaskFilter_2_)">
			<path id="path-24_1_" fill="#FFFFFF" d="M63,187.9c24.7-35.7,49.4-53.5,74.1-53.5c37.1,0,58,28.3,85.2,12.4
				C249.5,130.9,411.6,19.6,508.2,54c100.2,35.7,206.5,13.7,318.9-66.1l239.4,58c-121.8,91.8-204.9,145.9-249.4,162
				c-148.4,54-279.9,31.3-338.1-9.3c-77.2-53.9-213.8,39.8-260.6,21.9c-46.7-17.8-55.2-31.3-77.6-36.9c-15-3.7-37.4,4.3-67.1,24.3
				L63,187.9z"/>
		</g>
	</mask>
	<path id="Rectangle-76-Copy" mask="url(#mask-25_1_)" fill="#4A4F70" d="M444.1,82.2h185.3c5.4,0,9.9,4.4,9.9,9.9v16.3h-205V92
		C434.2,86.6,438.6,82.2,444.1,82.2z"/>
</g>
<g>
	<g>
		<path fill="#FFFFFF" d="M209.3,215.9c0.6,2.5,1.1,5,1.4,7.6c0.3,2,0.4,4.1,0.5,6.1l0,0l1.8-0.1c0-0.9-0.1-1.8-0.1-2.7
			c-0.2-3.4-0.7-6.8-1.5-10.1C210.6,216.5,210,216.2,209.3,215.9"/>
		<g>
			<defs>
				<path id="SVGID_2_" d="M170.7,167c4,3.8-1.3,17.2-1.4,24.1v0.1c0,2.4,0.7,4,2.8,4c0.9,0,2-0.3,3.5-0.9c3.2-1.4,5.8-2.1,7.7-2.1
					c6.7,0,6.8,7.3,5.4,14c0,0,0,0,0,0c5.7,3,12.4,6.2,20.6,9.6c-0.5-1.9-1.1-3.8-1.7-5.7c-1.1-1-2.5-1.7-4.1-2.3
					c-1.8-0.6-3.9-0.9-6.4-0.9c0,0,0,0,0,0c-1,0-2,0-3.1,0.1l-0.1-1.8c1.1-0.1,2.2-0.1,3.2-0.1c2.6,0,4.9,0.3,7,0.9
					c0.9,0.3,1.7,0.6,2.5,1c-3-7.2-7.3-13.9-13-20.3c-2.5-1.7-7-2.8-13.2-3.3l0.1-1.8c4,0.3,7.3,0.8,9.9,1.7c-4.6-4.6-9.9-9-16-13.2
					l1-1.5c7.6,5.2,14.1,10.8,19.4,16.7c0.3,0.2,0.6,0.4,0.8,0.7l-0.1,0.1c0.7,0.8,1.4,1.6,2.1,2.4c0-5.3,0.8-6.5,1.7-6.9l0.7,1.6
					c-0.1,0.1-0.8,0.9-0.7,7.4l-0.1,0c3.4,4.5,6.2,9.2,8.4,14.1c0.3-1.6,1-3.4,1.9-5.4l1.6,0.7c-1.4,3-2,5.5-2,7.2
					c0,0.7,0.1,1.4,0.3,1.8l-0.1,0c0.8,2.4,1.6,4.8,2.1,7.2c1.6,0.6,3.2,1.3,4.9,1.9C216,186.6,188.5,167.8,170.7,167"/>
			</defs>
			<linearGradient id="SVGID_3_" gradientUnits="userSpaceOnUse" x1="169.3198" y1="192.8398" x2="216.2114" y2="192.8398">
				<stop  offset="0" style="stop-color:#FFFFB4;stop-opacity:0.4"/>
				<stop  offset="0.1658" style="stop-color:#E6F5A9;stop-opacity:0.4995"/>
				<stop  offset="0.5183" style="stop-color:#A7DB8E;stop-opacity:0.711"/>
				<stop  offset="1" style="stop-color:#47B464"/>
			</linearGradient>
			<use xlink:href="#SVGID_2_"  overflow="visible" fill="url(#SVGID_3_)"/>
			<clipPath id="SVGID_4_">
				<use xlink:href="#SVGID_2_"  overflow="visible"/>
			</clipPath>
		</g>
		<path fill="#5D98A2" d="M197,205.3c-1,0-2.1,0-3.2,0.1l0.1,1.8c1.1-0.1,2.1-0.1,3.1-0.1c0,0,0,0,0,0c2.5,0,4.6,0.3,6.4,0.9
			c1.7,0.5,3,1.3,4.1,2.3c-0.4-1-0.7-2-1.1-2.9c-0.8-0.4-1.6-0.7-2.5-1C202,205.7,199.6,205.3,197,205.3 M209.3,199.7
			c-0.9,2-1.5,3.8-1.9,5.4c0.6,1.4,1.2,2.9,1.8,4.4l0.1,0c-0.2-0.5-0.3-1.1-0.3-1.8c0-1.7,0.6-4.2,2-7.2L209.3,199.7"/>
		<path fill="#5D98A2" d="M175.2,169l-1,1.5c6.1,4.2,11.4,8.6,16,13.2c-2.6-0.8-5.9-1.4-9.9-1.7l-0.1,1.8c6.2,0.5,10.7,1.6,13.2,3.3
			c5.7,6.4,10.1,13.2,13,20.3c0.4,1,0.8,1.9,1.1,2.9c0.7,1.9,1.2,3.8,1.7,5.7c0.7,0.3,1.3,0.6,2,0.8c-0.6-2.4-1.3-4.8-2.1-7.2
			c-0.5-1.5-1.1-2.9-1.8-4.4c-2.2-4.9-5-9.6-8.4-14.1l0.1,0c-0.2-6.5,0.6-7.4,0.7-7.4l-0.7-1.6c-0.9,0.4-1.7,1.6-1.7,6.9
			c-0.7-0.8-1.4-1.6-2.1-2.4l0.1-0.1c-0.3-0.2-0.5-0.4-0.8-0.7C189.3,179.7,182.8,174.2,175.2,169"/>
	</g>
</g>
<g id="Group-56-Copy-Clipped">
	<g id="path-2_16_">
	</g>
	<defs>
		<filter id="Adobe_OpacityMaskFilter_3_" filterUnits="userSpaceOnUse" x="210.2" y="191.6" width="43.9" height="60.3">
			<feColorMatrix  type="matrix" values="1 0 0 0 0  0 1 0 0 0  0 0 1 0 0  0 0 0 1 0"/>
		</filter>
	</defs>
	<mask maskUnits="userSpaceOnUse" x="210.2" y="191.6" width="43.9" height="60.3" id="mask-38_1_">
		<g filter="url(#Adobe_OpacityMaskFilter_3_)">
			<path id="path-37_1_" fill="#FFFFFF" d="M81,190.5c21.7-31.4,43.4-47.1,65.2-47.1c32.6,0,51,24.9,74.9,10.9
				c23.9-14,166.3-111.8,251.3-81.6c88.1,31.4,181.5,12,280.2-58.1l210.4,51c-107,80.7-180.1,128.2-219.2,142.4
				c-130.4,47.4-246,27.5-297.1-8.2c-67.9-47.3-187.9,34.9-229,19.3c-41.1-15.7-48.5-27.5-68.2-32.4c-13.2-3.3-32.8,3.8-59,21.3
				L81,190.5z"/>
		</g>
	</mask>
	<g id="Group-56-Copy" opacity="0.67" mask="url(#mask-38_1_)">
		<g id="Group_2_" transform="translate(154.000000, 211.000000)">
			<g transform="translate(26.671250, 37.223145) scale(-1, 1) translate(-26.671250, -37.223145) translate(0.171250, 0.723145)">
				<g>
					<g>
						<defs>
							<path id="SVGID_5_" d="M-46.9-20.1C-28.7-19.3,0.2,1.2-3.3,35.8c-1.9,1-2.8,1.8-3.2,1.8c-0.3,0-0.3-0.5-0.3-1.8
								c0-2.8-24.4-9.7-22.7-18c0.1-0.4,0.2-0.7,0.2-0.9c0,0,0,0,0,0c-1.3,0-3.5-1.2-7.4-5.3C-48.2-1.1-37.8-13-46.9-20.1
								 M-46.9-20.1L-46.9-20.1L-46.9-20.1"/>
						</defs>
						<linearGradient id="SVGID_6_" gradientUnits="userSpaceOnUse" x1="-3.0309" y1="8.7124" x2="40.8212" y2="8.7124">
							<stop  offset="0" style="stop-color:#FFFFB4;stop-opacity:0.4"/>
							<stop  offset="0.1658" style="stop-color:#E6F5A9;stop-opacity:0.4995"/>
							<stop  offset="0.5183" style="stop-color:#A7DB8E;stop-opacity:0.711"/>
							<stop  offset="1" style="stop-color:#47B464"/>
						</linearGradient>
						<use xlink:href="#SVGID_5_"  overflow="visible" fill="url(#SVGID_6_)"/>
						<clipPath id="SVGID_7_">
							<use xlink:href="#SVGID_5_"  overflow="visible"/>
						</clipPath>
					</g>
				</g>
				<path fill="#0D6574" d="M-37.7-4l0.1-1.8c3.8,0.3,6.9,0.8,9.4,1.6c-4.4-4.4-8.1-8.6-13.9-12.6l1.4,0.2c7.3,5,11.7,8.8,16.9,14.5
					c0.3,0.2,0.6,0.4,0.8,0.6l-0.1,0.1c0.7,0.8,1.3,1.5,1.9,2.3c0-5.1,0.8-6.2,1.7-6.6l0.8,1.6c-0.1,0.1-0.8,0.9-0.6,7.2l-0.1,0
					c3.5,4.6,6.3,9.4,8.4,14.4c0.3-1.6,0.9-3.6,1.9-5.8l0.6,0.3c-1.2,2.8-1.9,5.1-2,6.8c2.7,6.8,4.2,13.9,4.4,21.4l-1.8,0.1
					c-0.2-6.8-1.5-13.4-3.9-19.6c-2.9-2.1-7.1-2.9-12.8-2.4l-0.1-0.6c5.3-0.5,9.5,0.2,12.4,2C-15,12.3-19.3,5.5-25-0.8
					C-27.5-2.5-31.7-3.6-37.7-4z"/>
			</g>
		</g>
	</g>
</g>
<g id="Path-72-Copy-5-Clipped">
	<g id="path-2_18_">
	</g>
	<defs>
		<filter id="Adobe_OpacityMaskFilter_4_" filterUnits="userSpaceOnUse" x="188.4" y="112.1" width="143.3" height="28">
			<feColorMatrix  type="matrix" values="1 0 0 0 0  0 1 0 0 0  0 0 1 0 0  0 0 0 1 0"/>
		</filter>
	</defs>
	<mask maskUnits="userSpaceOnUse" x="188.4" y="112.1" width="143.3" height="28" id="mask-42_1_">
		<g filter="url(#Adobe_OpacityMaskFilter_4_)">
			<path id="path-41_1_" fill="#FFFFFF" d="M63,187.9c24.7-35.7,49.4-53.5,74.1-53.5c37.1,0,58,28.3,85.2,12.4
				C249.5,130.9,411.6,19.6,508.2,54c100.2,35.7,206.5,13.7,318.9-66.1l239.4,58c-121.8,91.8-204.9,145.9-249.4,162
				c-148.4,54-279.9,31.3-338.1-9.3c-77.2-53.9-213.8,39.8-260.6,21.9c-46.7-17.8-55.2-31.3-77.6-36.9c-15-3.7-37.4,4.3-67.1,24.3
				L63,187.9z"/>
		</g>
	</mask>
	<path id="Path-72-Copy-5" opacity="0.5906" mask="url(#mask-42_1_)" fill="#FFFFFF" enable-background="new    " d="M212.7,133.9
		c7-4,6.4-6.4,10.7-7.1c4.4-0.6,5.5,2.4,12.2,1.2c6.7-1.2,6.6-16.3,25.8-16s18.5,19.3,24.4,19.3s5.6-4.5,14.4-4.5
		c8.8,0,12.7,13.2,31.4,13.2H188.4C199.9,138.6,208,136.6,212.7,133.9z"/>
</g>
<g id="Oval-35-Clipped" opacity="0.6">
	<g id="path-2_22_">
	</g>
	<defs>
		<filter id="Adobe_OpacityMaskFilter_5_" filterUnits="userSpaceOnUse" x="645.6" y="110.7" width="64.7" height="59">
			<feColorMatrix  type="matrix" values="1 0 0 0 0  0 1 0 0 0  0 0 1 0 0  0 0 0 1 0"/>
		</filter>
	</defs>
	<mask maskUnits="userSpaceOnUse" x="645.6" y="110.7" width="64.7" height="59" id="mask-51_1_">
		<g filter="url(#Adobe_OpacityMaskFilter_5_)">
			<path id="path-50_1_" fill="#FFFFFF" d="M63,187.9c24.7-35.7,49.4-53.5,74.1-53.5c37.1,0,58,28.3,85.2,12.4
				C249.5,130.9,411.6,19.6,508.2,54c100.2,35.7,206.5,13.7,318.9-66.1l239.4,58c-121.8,91.8-204.9,145.9-249.4,162
				c-148.4,54-279.9,31.3-338.1-9.3c-77.2-53.9-213.8,39.8-260.6,21.9c-46.7-17.8-55.2-31.3-77.6-36.9c-15-3.7-37.4,4.3-67.1,24.3
				L63,187.9z"/>
		</g>
	</mask>
	<linearGradient id="Oval-35_1_" gradientUnits="userSpaceOnUse" x1="664.6357" y1="159.0635" x2="698.8224" y2="118.3214">
		<stop  offset="0" style="stop-color:#FFFFFF;stop-opacity:0"/>
		<stop  offset="0.57" style="stop-color:#E6E8E8;stop-opacity:0.57"/>
		<stop  offset="1" style="stop-color:#D1D3D4"/>
	</linearGradient>
	<path id="Oval-35" mask="url(#mask-51_1_)" fill="url(#Oval-35_1_)" d="M696.5,169.7l-2.4-3.5c7.5-5.2,12.1-13.8,12.1-23.1
		c0-15.5-12.6-28.1-28.1-28.1s-28.1,12.6-28.1,28.1h-4.3c0-17.9,14.5-32.4,32.4-32.4c17.9,0,32.4,14.5,32.4,32.4
		C710.4,153.9,705.1,163.7,696.5,169.7z"/>
</g>
<g>
	<g id="Rectangle-78-Clipped">
		<g id="path-2_25_">
		</g>
		<defs>
			<filter id="Adobe_OpacityMaskFilter_6_" filterUnits="userSpaceOnUse" x="669.1" y="130.7" width="84.2" height="106">
				<feColorMatrix  type="matrix" values="1 0 0 0 0  0 1 0 0 0  0 0 1 0 0  0 0 0 1 0"/>
			</filter>
		</defs>
		<mask maskUnits="userSpaceOnUse" x="669.1" y="130.7" width="84.2" height="106" id="mask-57_1_">
			<g filter="url(#Adobe_OpacityMaskFilter_6_)">
				<path id="path-56_1_" fill="#FFFFFF" d="M63,187.9c24.7-35.7,49.4-53.5,74.1-53.5c37.1,0,58,28.3,85.2,12.4
					C249.5,130.9,411.6,19.6,508.2,54c100.2,35.7,206.5,13.7,318.9-66.1l239.4,58c-121.8,91.8-204.9,145.9-249.4,162
					c-148.4,54-279.9,31.3-338.1-9.3c-77.2-53.9-213.8,39.8-260.6,21.9c-46.7-17.8-55.2-31.3-77.6-36.9c-15-3.7-37.4,4.3-67.1,24.3
					L63,187.9z"/>
			</g>
		</mask>
		<g id="Rectangle-78" mask="url(#mask-57_1_)">
			
				<g id="path-11-link" transform="translate(678.950295, 209.355575) rotate(-25.000000) translate(-678.950295, -209.355575) translate(657.950295, 141.855575)">
				<g>
					<path id="path-11" fill="#3E4265" d="M50.7-4.2c6.2,0,11.5,4.7,12.2,10.8l13.9,117.1l-39.2-18.3l1.9-98.7
						C39.6,0.7,44.6-4.2,50.7-4.2z"/>
				</g>
				<g>
					<path id="path-11_1_" fill="#3E4265" d="M50.7-4.2c6.2,0,11.5,4.7,12.2,10.8l13.9,117.1l-39.2-18.3l1.9-98.7
						C39.6,0.7,44.6-4.2,50.7-4.2z"/>
				</g>
			</g>
		</g>
	</g>
	<g id="Combined-Shape-Copy-7-Clipped">
		<g id="path-2_26_">
		</g>
		<defs>
			<filter id="Adobe_OpacityMaskFilter_7_" filterUnits="userSpaceOnUse" x="702.9" y="190.7" width="13.3" height="18">
				<feColorMatrix  type="matrix" values="1 0 0 0 0  0 1 0 0 0  0 0 1 0 0  0 0 0 1 0"/>
			</filter>
		</defs>
		<mask maskUnits="userSpaceOnUse" x="702.9" y="190.7" width="13.3" height="18" id="mask-59_1_">
			<g filter="url(#Adobe_OpacityMaskFilter_7_)">
				<path id="path-58_1_" fill="#FFFFFF" d="M63,187.9c24.7-35.7,49.4-53.5,74.1-53.5c37.1,0,58,28.3,85.2,12.4
					C249.5,130.9,411.6,19.6,508.2,54c100.2,35.7,206.5,13.7,318.9-66.1l239.4,58c-121.8,91.8-204.9,145.9-249.4,162
					c-148.4,54-279.9,31.3-338.1-9.3c-77.2-53.9-213.8,39.8-260.6,21.9c-46.7-17.8-55.2-31.3-77.6-36.9c-15-3.7-37.4,4.3-67.1,24.3
					L63,187.9z"/>
			</g>
		</mask>
		<g id="Combined-Shape-Copy-7" mask="url(#mask-59_1_)">
			
				<g id="path-13-link" transform="translate(679.473037, 222.719348) rotate(63.000000) translate(-679.473037, -222.719348) translate(669.973037, 218.719348)">
				<g>
					
						<linearGradient id="path-13_2_" gradientUnits="userSpaceOnUse" x1="-0.379" y1="-27.2809" x2="12.9618" y2="-27.2809" gradientTransform="matrix(1 0 0 1 0 3.051758e-005)">
						<stop  offset="0" style="stop-color:#FFFFFF"/>
						<stop  offset="0.57" style="stop-color:#E6E8E8"/>
						<stop  offset="1" style="stop-color:#D1D3D4"/>
					</linearGradient>
					<path id="path-13" fill="url(#path-13_2_)" d="M-5.3-36.6c0.4,0,0.7,0.3,0.7,0.7l0,5.3c0,0.4-0.3,0.7-0.7,0.7
						c-0.4,0-0.7-0.3-0.7-0.7l0-5.3C-6-36.3-5.7-36.6-5.3-36.6z M-2.7-36.6c0.4,0,0.7,0.3,0.7,0.7l0,5.3c0,0.4-0.3,0.7-0.7,0.7
						c-0.4,0-0.7-0.3-0.7-0.7l0-5.3C-3.3-36.3-3-36.6-2.7-36.6z M0-36.6c0.4,0,0.7,0.3,0.7,0.7l0,5.3c0,0.4-0.3,0.7-0.7,0.7
						c-0.4,0-0.7-0.3-0.7-0.7l0-5.3C-0.7-36.3-0.4-36.6,0-36.6z M2.6-36.6c0.4,0,0.7,0.3,0.7,0.7l0,5.3c0,0.4-0.3,0.7-0.7,0.7
						c-0.4,0-0.7-0.3-0.7-0.7l0-5.3C2-36.3,2.3-36.6,2.6-36.6z M5.3-36.6c0.4,0,0.7,0.3,0.7,0.7l0,5.3c0,0.4-0.3,0.7-0.7,0.7
						c-0.4,0-0.7-0.3-0.7-0.7l0-5.3C4.6-36.3,4.9-36.6,5.3-36.6z M8-36.6c0.4,0,0.7,0.3,0.7,0.7l0,5.3c0,0.4-0.3,0.7-0.7,0.7
						c-0.4,0-0.7-0.3-0.7-0.7l0-5.3C7.3-36.3,7.6-36.6,8-36.6z M10.6-36.6c0.4,0,0.7,0.3,0.7,0.7l0,5.3c0,0.4-0.3,0.7-0.7,0.7
						c-0.4,0-0.7-0.3-0.7-0.7l0-5.3C10-36.3,10.3-36.6,10.6-36.6z"/>
				</g>
				<g>
					
						<linearGradient id="path-13_3_" gradientUnits="userSpaceOnUse" x1="-0.379" y1="-27.2809" x2="12.9618" y2="-27.2809" gradientTransform="matrix(1 0 0 1 0 3.051758e-005)">
						<stop  offset="0" style="stop-color:#FFFFFF"/>
						<stop  offset="0.57" style="stop-color:#E6E8E8"/>
						<stop  offset="1" style="stop-color:#D1D3D4"/>
					</linearGradient>
					<path id="path-13_1_" fill="url(#path-13_3_)" d="M-5.3-36.6c0.4,0,0.7,0.3,0.7,0.7l0,5.3c0,0.4-0.3,0.7-0.7,0.7
						c-0.4,0-0.7-0.3-0.7-0.7l0-5.3C-6-36.3-5.7-36.6-5.3-36.6z M-2.7-36.6c0.4,0,0.7,0.3,0.7,0.7l0,5.3c0,0.4-0.3,0.7-0.7,0.7
						c-0.4,0-0.7-0.3-0.7-0.7l0-5.3C-3.3-36.3-3-36.6-2.7-36.6z M0-36.6c0.4,0,0.7,0.3,0.7,0.7l0,5.3c0,0.4-0.3,0.7-0.7,0.7
						c-0.4,0-0.7-0.3-0.7-0.7l0-5.3C-0.7-36.3-0.4-36.6,0-36.6z M2.6-36.6c0.4,0,0.7,0.3,0.7,0.7l0,5.3c0,0.4-0.3,0.7-0.7,0.7
						c-0.4,0-0.7-0.3-0.7-0.7l0-5.3C2-36.3,2.3-36.6,2.6-36.6z M5.3-36.6c0.4,0,0.7,0.3,0.7,0.7l0,5.3c0,0.4-0.3,0.7-0.7,0.7
						c-0.4,0-0.7-0.3-0.7-0.7l0-5.3C4.6-36.3,4.9-36.6,5.3-36.6z M8-36.6c0.4,0,0.7,0.3,0.7,0.7l0,5.3c0,0.4-0.3,0.7-0.7,0.7
						c-0.4,0-0.7-0.3-0.7-0.7l0-5.3C7.3-36.3,7.6-36.6,8-36.6z M10.6-36.6c0.4,0,0.7,0.3,0.7,0.7l0,5.3c0,0.4-0.3,0.7-0.7,0.7
						c-0.4,0-0.7-0.3-0.7-0.7l0-5.3C10-36.3,10.3-36.6,10.6-36.6z"/>
				</g>
			</g>
		</g>
	</g>
	<g id="Oval-32-Copy-2-Clipped">
		<g id="path-2_28_">
		</g>
		<defs>
			<filter id="Adobe_OpacityMaskFilter_8_" filterUnits="userSpaceOnUse" x="696.5" y="177.9" width="6.1" height="6.1">
				<feColorMatrix  type="matrix" values="1 0 0 0 0  0 1 0 0 0  0 0 1 0 0  0 0 0 1 0"/>
			</filter>
		</defs>
		<mask maskUnits="userSpaceOnUse" x="696.5" y="177.9" width="6.1" height="6.1" id="mask-63_1_">
			<g filter="url(#Adobe_OpacityMaskFilter_8_)">
				<path id="path-62_1_" fill="#FFFFFF" d="M63,187.9c24.7-35.7,49.4-53.5,74.1-53.5c37.1,0,58,28.3,85.2,12.4
					C249.5,130.9,411.6,19.6,508.2,54c100.2,35.7,206.5,13.7,318.9-66.1l239.4,58c-121.8,91.8-204.9,145.9-249.4,162
					c-148.4,54-279.9,31.3-338.1-9.3c-77.2-53.9-213.8,39.8-260.6,21.9c-46.7-17.8-55.2-31.3-77.6-36.9c-15-3.7-37.4,4.3-67.1,24.3
					L63,187.9z"/>
			</g>
		</mask>
		<g id="Oval-32-Copy-2" mask="url(#mask-63_1_)">
			<g id="path-17-link" transform="translate(666.000000, 199.000000)">
				<g>
					<linearGradient id="path-17_2_" gradientUnits="userSpaceOnUse" x1="30.5098" y1="-17.9922" x2="36.6348" y2="-17.9922">
						<stop  offset="0" style="stop-color:#FFFFFF"/>
						<stop  offset="0.57" style="stop-color:#E6E8E8"/>
						<stop  offset="1" style="stop-color:#D1D3D4"/>
					</linearGradient>
					<ellipse id="path-17" fill="url(#path-17_2_)" cx="33.6" cy="-18" rx="3.1" ry="3.1"/>
				</g>
				<g>
					<linearGradient id="path-17_3_" gradientUnits="userSpaceOnUse" x1="30.5098" y1="-17.9922" x2="36.6348" y2="-17.9922">
						<stop  offset="0" style="stop-color:#FFFFFF"/>
						<stop  offset="0.57" style="stop-color:#E6E8E8"/>
						<stop  offset="1" style="stop-color:#D1D3D4"/>
					</linearGradient>
					<ellipse id="path-17_1_" fill="url(#path-17_3_)" cx="33.6" cy="-18" rx="3.1" ry="3.1"/>
				</g>
			</g>
		</g>
	</g>
	<g id="Oval-32-Copy-3-Clipped">
		<g id="path-2_29_">
		</g>
		<defs>
			<filter id="Adobe_OpacityMaskFilter_9_" filterUnits="userSpaceOnUse" x="688.8" y="161.7" width="6.1" height="6.1">
				<feColorMatrix  type="matrix" values="1 0 0 0 0  0 1 0 0 0  0 0 1 0 0  0 0 0 1 0"/>
			</filter>
		</defs>
		<mask maskUnits="userSpaceOnUse" x="688.8" y="161.7" width="6.1" height="6.1" id="mask-65_1_">
			<g filter="url(#Adobe_OpacityMaskFilter_9_)">
				<path id="path-64_1_" fill="#FFFFFF" d="M63,187.9c24.7-35.7,49.4-53.5,74.1-53.5c37.1,0,58,28.3,85.2,12.4
					C249.5,130.9,411.6,19.6,508.2,54c100.2,35.7,206.5,13.7,318.9-66.1l239.4,58c-121.8,91.8-204.9,145.9-249.4,162
					c-148.4,54-279.9,31.3-338.1-9.3c-77.2-53.9-213.8,39.8-260.6,21.9c-46.7-17.8-55.2-31.3-77.6-36.9c-15-3.7-37.4,4.3-67.1,24.3
					L63,187.9z"/>
			</g>
		</mask>
		<g id="Oval-32-Copy-3" mask="url(#mask-65_1_)">
			<g id="path-19-link" transform="translate(657.000000, 182.000000)">
				<g>
					<linearGradient id="path-19_2_" gradientUnits="userSpaceOnUse" x1="31.7871" y1="-17.2637" x2="37.9121" y2="-17.2637">
						<stop  offset="0" style="stop-color:#FFFFFF"/>
						<stop  offset="0.57" style="stop-color:#E6E8E8"/>
						<stop  offset="1" style="stop-color:#D1D3D4"/>
					</linearGradient>
					<ellipse id="path-19" fill="url(#path-19_2_)" cx="34.8" cy="-17.3" rx="3.1" ry="3.1"/>
				</g>
				<g>
					<linearGradient id="path-19_3_" gradientUnits="userSpaceOnUse" x1="31.7871" y1="-17.2637" x2="37.9121" y2="-17.2637">
						<stop  offset="0" style="stop-color:#FFFFFF"/>
						<stop  offset="0.57" style="stop-color:#E6E8E8"/>
						<stop  offset="1" style="stop-color:#D1D3D4"/>
					</linearGradient>
					<ellipse id="path-19_1_" fill="url(#path-19_3_)" cx="34.8" cy="-17.3" rx="3.1" ry="3.1"/>
				</g>
			</g>
		</g>
	</g>
</g>
<path id="Path-344-Copy" fill="#1E1E1E" d="M98.5,246.7c-1.5,1.3-2.7,2.2-3.8,2.6c-4.7,1.9-9,3-9,4.5c8.1,0.7,13.4,0.9,15.8,0.7
	s2.8-2.8,1.4-7.8H98.5z"/>
<polygon id="Path-347" fill="#2C345B" points="84.6,225.2 98.7,246.7 102.8,246.7 93.7,217.2 84.6,214.6 "/>
<path id="Path-345-Copy" fill="#EABB92" d="M96.1,206.1l-2.7,0.3c-1.8,0.4-3.1,0.3-4-0.3c-0.9-0.6-2,0-3.3,1.7h-0.9
	c1-3.3,2.1-4.9,3.3-4.9c1.7,0,7.1,0.4,7.9,0C96.9,202.6,96.8,203.7,96.1,206.1z"/>
<path id="Path-346" fill="#3E4265" d="M111.9,200.2c-3.5,2.1-6.4,3.6-8.7,4.5c-2.3,0.8-5.4,1.1-9.4,0.9l-2-4.4l19.2-8.4L111.9,200.2
	z"/>
<path id="Path-345" fill="#FFD7B3" d="M90.2,204.7l-2.7,0.3c-1.8,0.4-3.1,0.3-4-0.3c-0.9-0.6-2,0-3.3,1.7h-0.9
	c1-3.3,2.1-4.9,3.3-4.9c1.7,0,7.1,0.4,7.9,0C91.1,201.2,91,202.3,90.2,204.7z"/>
<path id="Path-344" fill="#1E1E1E" d="M85.3,246.9c-7.9,2.6-11.8,5-11.8,7.1c0.4,0.5,0.2,1.4,10.8-0.2c2.5-0.4,1.1,1.1,5.5,0.9
	c2.4-0.1,2.9-2.9,1.5-8L85.3,246.9z"/>
<path id="Path-343" fill="#3E4265" d="M114.4,208.1c-23.1-1.7-40.5-1.9-42.4,1.1c-1.9,3,2.5,15.6,13.1,37.7l6.1-0.4
	c-2.3-15.6-3.7-25.1-4.1-28.5c7.7,6,18.9,11.5,31.9,8.5c3.5-1,5.7-6.8,6.4-17.3C118.2,208.5,114.5,208.1,114.4,208.1z"/>
<polyline id="Path-348" fill="none" stroke="#FFFFFF" stroke-width="0.9173" points="88.6,230.9 87.3,220.3 93.6,223.4 "/>
<path id="Rectangle-73" fill="#2C345B" d="M62.5,184.9L62.5,184.9c0.4-0.2,0.9,0,1.1,0.4l11.2,22.1c0.2,0.4,0,0.9-0.4,1.1l0,0
	c-0.4,0.2-0.9,0-1.1-0.4L62.1,186C61.9,185.6,62.1,185.1,62.5,184.9z"/>
<path id="Rectangle-73-Copy" fill="#3E4265" d="M100,205.3L100,205.3c0,0.5-0.3,0.9-0.8,0.9l-24.7,2.2c-0.5,0-0.9-0.3-0.9-0.8l0,0
	c0-0.5,0.3-0.9,0.8-0.9l24.7-2.2C99.6,204.5,100,204.9,100,205.3z"/>
<g id="Group-23" transform="translate(49.236155, 18.597834) rotate(-11.000000) translate(-49.236155, -18.597834) translate(36.736155, 3.097834)">
	<polygon id="Path-157" fill="#FFD7B3" points="42.4,168.2 42.4,175.4 49.3,174.6 47.7,165.9 	"/>
	<path id="Path-156" fill="#FFD7B3" d="M36.1,157.3c-1.3,4.7-1.7,7.8-1.2,9.2c0.1,0.4,0.9,0.3,1.2,0.7c0.5,0.6,0,1.9,1,2.7
		c3.6,2.9,9.4,1,11.6-0.5c0.9-0.6,0.2-9.4-4.2-12.2C42.9,156.1,41.2,159.2,36.1,157.3z"/>
	<path id="Path-154_2_" fill="#1E1E1E" d="M51,168.4c-3.9,2.5-2.8,0-4.6-5.1c0-2.6-2.9-3.2-3.1-0.1c-0.1,1.1-2.6-4.2-5.6-3.2
		c-1.1,0.3-2.5,0.6-3,0.1c-1.2-0.8-4.7-3.6-1.5-5.2c2-0.9,2.5-1.1,2.5-1.1c3.9-1.6,7.7-4.3,11.9-3.8c4.3,1.2,3.5,12.3,3.2,16.3
		L51,168.4z"/>
</g>
<path id="Path-337" fill="#3E4265" d="M105.9,175c-0.1-2,1-4.1,3.3-6.2c2.3-2.2,4.8-3.4,7.7-3.9c3.3,3.3,5.7,7.8,7.3,13.5
	c1.4,5.2,1.9,14.6,1.5,28c0,1,2,0,2,2.9c-1.4,2-4.4,2.7-6.2,2.9c-1.2,0.1-5.6-0.3-13-1.1c-2.7-2.3-2.5-4,0.6-5
	c-0.6-12.6-1.2-22.3-1.8-29C106.3,177.1,105.9,176.4,105.9,175z"/>
<path id="Path-341" opacity="0.3" fill="#0B4651" enable-background="new    " d="M109,205.8c6.4-9.1,9.8-17.4,10-24.9
	c-2.7,1.5-6.3,6.5-10.9,14.8L109,205.8z"/>
<path id="Path-339" fill="#3E4265" d="M111,172.9l-5.5,17.2c-1.1,3.3-3.5,5.9-6.7,7.2l-10,3.9l1,4.1l8.8-1.2
	c6.4-0.9,12-4.6,15.3-10.2c1-1.6,1.6-2.7,1.8-3.1c0.4-0.9,1.5-4.1,3.2-9.7L111,172.9z"/>
<path id="Path-340" fill="#5A6084" d="M108.8,201.1c0,0,0.2-0.3,0.5-0.8c0.3-0.5,0.8-1.2,1.4-2.1c0.3-0.4,0.6-0.9,0.9-1.4
	c0.3-0.5,0.7-1,1-1.6c0.3-0.6,0.7-1.1,1-1.7c0.4-0.6,0.7-1.2,1-1.8c0.3-0.6,0.7-1.2,1-1.8c0.3-0.6,0.6-1.2,0.9-1.8
	c0.2-0.6,0.5-1.2,0.7-1.7c0.3-0.5,0.4-1.1,0.6-1.6c0.2-0.5,0.3-0.9,0.5-1.3c0.1-0.4,0.2-0.8,0.3-1.1c0.2-0.6,0.3-0.9,0.3-0.9
	s0,0.3-0.1,1c0,0.3-0.1,0.7-0.1,1.1c0,0.4-0.2,0.9-0.3,1.4c-0.1,0.5-0.2,1.1-0.4,1.6c-0.2,0.6-0.4,1.2-0.6,1.8
	c-0.3,0.6-0.5,1.2-0.8,1.9c-0.3,0.6-0.6,1.3-1,1.9c-0.4,0.6-0.7,1.2-1.1,1.8c-0.4,0.6-0.8,1.1-1.1,1.7c-0.3,0.6-0.8,1-1.1,1.5
	c-0.4,0.5-0.7,0.9-1,1.3c-0.7,0.8-1.3,1.4-1.7,1.9C109.1,200.8,108.8,201.1,108.8,201.1z"/>
<path id="Path-342" fill="#5A6084" d="M107.6,183.3c0,0,0.1-0.7,0.3-1.6c0.2-1,0.6-2.2,1.2-3.5c0.5-1.2,1.2-2.4,1.9-3.1
	c0.2-0.2,0.4-0.3,0.5-0.5c0.2-0.1,0.3-0.2,0.5-0.3c0.3-0.1,0.5,0,0.5-0.1c0,0-0.2,0-0.4,0.2c-0.1,0.1-0.2,0.2-0.3,0.4
	c-0.1,0.1-0.2,0.3-0.4,0.5c-0.5,0.8-1,2-1.5,3.2c-0.5,1.2-1.1,2.4-1.5,3.3C108,182.8,107.6,183.3,107.6,183.3z"/>
<path id="Path-161" fill="#EF5350" d="M112.6,205.6c5-3.1,5.3-17.2,13.2-17.2c7.1,0,8.5,20,5.7,27.2c-2.8,5.8-3.9,13.3-18,13.3
	c-9.1,0-17.2-2.3-24.2-6.9c0.2-5.7,1.9-9.2,5.1-10.4C99.1,209.7,107.6,208.7,112.6,205.6z"/>
<path id="Path-163" opacity="0.9" fill="#8E0C2B" d="M99.1,222.7c0.5,0.2,0.8,0.9,0.5,1.4l-13.2,31.6c-0.1,0.3-0.4,0.4-0.7,0.3h0
	c-0.3-0.1-0.4-0.4-0.3-0.7l12.5-32C98,222.7,98.5,222.5,99.1,222.7C99.1,222.7,99.1,222.7,99.1,222.7z"/>
<path id="Path-163-Copy-6" opacity="0.9" fill="#8E0C2B" d="M124.8,222.7c-0.5,0.2-0.8,0.9-0.5,1.4l13.2,31.6
	c0.1,0.3,0.4,0.4,0.7,0.3h0c0.3-0.1,0.4-0.4,0.3-0.7l-12.5-32C125.9,222.7,125.3,222.5,124.8,222.7
	C124.8,222.7,124.8,222.7,124.8,222.7z"/>
<path id="Path-161-Copy-2" fill="none" stroke="#0B4651" stroke-width="0.882" stroke-linecap="round" stroke-linejoin="round" d="
	M89.3,222c0.2-5.7,1.9-9.2,5.1-10.4c4.8-1.9,13.2-2.8,18.2-6c5-3.1,5.3-17.2,13.2-17.2"/>
<g id="Oval-29">
	<linearGradient id="SVGID_8_" gradientUnits="userSpaceOnUse" x1="176.2437" y1="135.9277" x2="186.499" y2="135.9277">
		<stop  offset="0" style="stop-color:#D1D3D4"/>
		<stop  offset="1" style="stop-color:#D1D3D4"/>
	</linearGradient>
	<path fill="url(#SVGID_8_)" d="M181.4,141.1c-2.8,0-5.1-2.3-5.1-5.1s2.3-5.1,5.1-5.1c2.8,0,5.1,2.3,5.1,5.1
		S184.2,141.1,181.4,141.1z M181.4,132.8c-1.7,0-3.1,1.4-3.1,3.1c0,1.7,1.4,3.1,3.1,3.1s3.1-1.4,3.1-3.1
		C184.5,134.2,183.1,132.8,181.4,132.8z"/>
</g>
<g id="Path-350">
	<linearGradient id="SVGID_9_" gradientUnits="userSpaceOnUse" x1="93.6934" y1="131.8633" x2="173.8735" y2="131.8633">
		<stop  offset="0" style="stop-color:#FFFFFF;stop-opacity:0"/>
		<stop  offset="0.57" style="stop-color:#E6E8E8;stop-opacity:0.57"/>
		<stop  offset="1" style="stop-color:#D1D3D4"/>
	</linearGradient>
	<path fill="url(#SVGID_9_)" d="M94.7,142.5c-0.3,0-0.6-0.1-0.8-0.4c-0.3-0.4-0.3-1.1,0.2-1.4c26.5-21.1,53.1-25.1,79.3-11.8
		c0.5,0.3,0.7,0.9,0.4,1.3c-0.3,0.5-0.9,0.7-1.3,0.4c-25.4-12.9-51.3-9-77.1,11.6C95.1,142.4,94.9,142.5,94.7,142.5z"/>
</g>
<g>
	<path fill="#B71C1C" d="M388.5,253.4c-4.8-30-18.5-44.1-41.2-42.5c-34,2.4,21.9,13.5,16.4,18.9c-5.4,5.4-11.6,9.3-8.6,14.7
		C357.2,248,368.3,251,388.5,253.4"/>
	<path fill="#83292C" d="M377.8,224c-3.2,4.1-2.7,13.4,1.5,28l7,0.6l1.4-3.8C385.6,238.4,382.3,230.1,377.8,224"/>
	<path fill="#FFFFFF" d="M382,249.3c-0.3,0-0.5-0.2-0.5-0.4c-3-17.2-13.5-27.8-31.2-31.6c-0.3-0.1-0.5-0.3-0.4-0.6
		c0.1-0.3,0.3-0.5,0.6-0.4c18.2,3.9,29,14.8,32,32.4C382.6,249,382.4,249.2,382,249.3L382,249.3z"/>
	<path fill="#FFFFFF" d="M379,238h-11.2c-0.3,0-0.5-0.2-0.5-0.5s0.2-0.5,0.5-0.5h10.6v-8.4c0-0.3,0.2-0.5,0.5-0.5s0.5,0.2,0.5,0.5
		v8.9C379.5,237.7,379.2,238,379,238z"/>
	<path fill="#FFFFFF" d="M364.8,222.6c-0.2,0-0.3-0.1-0.4-0.2l-4.2-6.3c-0.2-0.2-0.1-0.6,0.1-0.7c0.2-0.2,0.6-0.1,0.7,0.1l4.2,6.3
		c0.2,0.2,0.1,0.6-0.1,0.7C365,222.6,364.9,222.6,364.8,222.6z"/>
	<path fill="#EF5350" d="M388.6,253.2c-5.3-0.1-7.9-0.6-7.7-1.5c2.8-18.2,19.6-30,33.8-30c22.9,0-12.4,10.2-7,15.7
		c5.4,5.4,11.2,3.3,8.2,8.7C413.9,249.6,404.8,252,388.6,253.2z"/>
	<path fill="#FFFFFF" d="M383.8,251.1c-0.1,0-0.2,0-0.3-0.1c-0.2-0.2-0.3-0.5-0.1-0.7c8.5-12.9,16.2-19.8,22.9-20.6
		c0.3,0,0.5,0.2,0.6,0.5c0,0.3-0.2,0.5-0.5,0.6c-6.4,0.8-13.8,7.6-22.2,20.2C384.1,251.1,383.9,251.1,383.8,251.1z"/>
	<path fill="#FFFFFF" d="M409.9,245.9c-0.1,0-0.2,0-0.3-0.1c-3.3-2.8-9.8-3.8-19.3-2.8c-0.3,0-0.5-0.2-0.6-0.5
		c0-0.3,0.2-0.5,0.5-0.6c9.8-1,16.6,0.1,20.1,3.1c0.2,0.2,0.2,0.5,0.1,0.7C410.2,245.9,410,245.9,409.9,245.9z"/>
</g>
<g id="Group-68-Copy" transform="translate(365.701070, 178.391521)">
	
		<g id="Rectangle-75_1_" transform="translate(28.459623, 28.578444) rotate(-29.000000) translate(-28.459623, -28.578444) translate(7.959623, 8.078444)">
		<g id="path-39-link">
			<linearGradient id="path-39_5_" gradientUnits="userSpaceOnUse" x1="0.2097" y1="-16.4695" x2="49.0202" y2="-16.4695">
				<stop  offset="0" style="stop-color:#EDFFEC;stop-opacity:0"/>
				<stop  offset="0.2235" style="stop-color:#EBEBEC;stop-opacity:0.7688"/>
				<stop  offset="1" style="stop-color:#CDCFD0;stop-opacity:0.3518"/>
			</linearGradient>
			<path id="path-39_1_" fill="url(#path-39_5_)" d="M3.9-23.1c9.7,7,19.7,8.6,29.9,4.8c-4.4,11.2-1.6,20,8.5,26.6
				c-10.4,8-19.6,9.2-27.7,3.8C6.6,6.5,3-5.2,3.9-23.1z"/>
		</g>
		<g id="path-39-link_1_">
			<linearGradient id="path-39_6_" gradientUnits="userSpaceOnUse" x1="12.8545" y1="11.0586" x2="12.8545" y2="-24.833">
				<stop  offset="0" style="stop-color:#EDFFEC;stop-opacity:0"/>
				<stop  offset="0.5407" style="stop-color:#EBEBEC;stop-opacity:0.7688"/>
				<stop  offset="1" style="stop-color:#CDCFD0;stop-opacity:0.3518"/>
			</linearGradient>
			<path id="path-39_2_" fill="url(#path-39_6_)" d="M3.9-23.1c9.7,7,19.7,8.6,29.9,4.8c-4.4,11.2-1.6,20,8.5,26.6
				c-10.4,8-19.6,9.2-27.7,3.8C6.6,6.5,3-5.2,3.9-23.1z"/>
		</g>
	</g>
	<g id="Path-360-Clipped_1_" transform="translate(8.000000, 8.000000)" opacity="0.3" enable-background="new    ">
		<g id="path-39_4_">
		</g>
		<defs>
			<filter id="Adobe_OpacityMaskFilter_10_" filterUnits="userSpaceOnUse" x="4.9" y="8" width="19" height="8.1">
				<feColorMatrix  type="matrix" values="1 0 0 0 0  0 1 0 0 0  0 0 1 0 0  0 0 0 1 0"/>
			</filter>
		</defs>
		<mask maskUnits="userSpaceOnUse" x="4.9" y="8" width="19" height="8.1" id="mask-100_3_">
			<g filter="url(#Adobe_OpacityMaskFilter_10_)">
				<path id="path-99_3_" fill="#FFFFFF" d="M-8.3-22.2c9.7,7,19.7,8.6,29.9,4.8c-4.4,11.2-1.6,20,8.5,26.6
					c-10.4,8-19.6,9.2-27.7,3.8C-5.6,7.4-9.2-4.3-8.3-22.2z"/>
			</g>
		</mask>
		<g id="Path-360_1_" mask="url(#mask-100_3_)">
			<g id="path-44-link" transform="translate(12.000000, 32.000000)">
				<g>
					<path id="path-44_4_" fill="#A7A9AC" d="M11.9-19.4c-3-0.5-6.5-2.4-7.5-4.6c-2.8,3.9-6.7,5.9-11.4,6.2
						C-7.1-17.8,2.8-12.6,11.9-19.4z"/>
				</g>
			</g>
		</g>
	</g>
	<g id="Path-360-Clipped_2_" transform="translate(8.000000, 8.000000)" opacity="0.3" enable-background="new    ">
		<g id="path-39_3_">
		</g>
		<defs>
			<filter id="Adobe_OpacityMaskFilter_11_" filterUnits="userSpaceOnUse" x="276.3" y="-102.3" width="19" height="8.1">
				<feColorMatrix  type="matrix" values="1 0 0 0 0  0 1 0 0 0  0 0 1 0 0  0 0 0 1 0"/>
			</filter>
		</defs>
		<mask maskUnits="userSpaceOnUse" x="276.3" y="-102.3" width="19" height="8.1" id="mask-100_1_">
			<g filter="url(#Adobe_OpacityMaskFilter_11_)">
				<path id="path-99_1_" fill="#FFFFFF" d="M263.1-132.5c9.7,7,19.7,8.6,29.9,4.8c-4.4,11.2-1.6,20,8.5,26.6
					c-10.4,8-19.6,9.2-27.7,3.8C265.8-102.9,262.2-114.6,263.1-132.5z"/>
			</g>
		</mask>
		<g id="Path-360_2_" mask="url(#mask-100_1_)">
			<g id="path-44-link_1_" transform="translate(12.000000, 32.000000)">
				<g>
					<path id="path-44_1_" fill="#A7A9AC" d="M283.3-129.7c-3-0.5-6.5-2.4-7.5-4.6c-2.8,3.9-6.7,5.9-11.4,6.2
						C264.3-128.1,274.1-122.9,283.3-129.7z"/>
				</g>
			</g>
		</g>
	</g>
</g>
<g id="Group-68-Copy_1_" transform="translate(365.701070, 178.391521)" opacity="0.4">
	
		<g id="Rectangle-75_2_" transform="translate(28.459623, 28.578444) rotate(-29.000000) translate(-28.459623, -28.578444) translate(7.959623, 8.078444)">
		<g id="path-39-link_3_">
			
				<linearGradient id="path-39_9_" gradientUnits="userSpaceOnUse" x1="274.203" y1="9.2808" x2="323.0116" y2="9.2808" gradientTransform="matrix(-0.5299 -0.848 -0.848 0.5299 493.6519 273.6358)">
				<stop  offset="0" style="stop-color:#EDFFEC;stop-opacity:0"/>
				<stop  offset="0.2235" style="stop-color:#EBEBEC;stop-opacity:0.7688"/>
				<stop  offset="1" style="stop-color:#CDCFD0;stop-opacity:0.3518"/>
			</linearGradient>
			<path id="path-39_8_" fill="url(#path-39_9_)" d="M308.7,48.8c-8.9-3.9-12.8-12.4-11.5-25.5c10.9,5.1,19.9,2.8,27-6.9
				c2.2,10.7,8.8,18.3,19.9,22.9C329.5,49.6,317.6,52.8,308.7,48.8z"/>
		</g>
		<g id="path-39-link_2_">
			
				<linearGradient id="path-39_10_" gradientUnits="userSpaceOnUse" x1="286.8474" y1="36.8076" x2="286.8474" y2="0.916" gradientTransform="matrix(-0.5299 -0.848 -0.848 0.5299 493.6519 273.6358)">
				<stop  offset="0" style="stop-color:#EDFFEC;stop-opacity:0"/>
				<stop  offset="0.2235" style="stop-color:#EBEBEC;stop-opacity:0.7688"/>
				<stop  offset="1" style="stop-color:#CDCFD0;stop-opacity:0.3518"/>
			</linearGradient>
			<path id="path-39_7_" fill="url(#path-39_10_)" d="M308.7,48.8c-8.9-3.9-12.8-12.4-11.5-25.5c10.9,5.1,19.9,2.8,27-6.9
				c2.2,10.7,8.8,18.3,19.9,22.9C329.5,49.6,317.6,52.8,308.7,48.8z"/>
		</g>
	</g>
</g>
<linearGradient id="Triangle_1_" gradientUnits="userSpaceOnUse" x1="148.607" y1="196.8946" x2="148.607" y2="181.3926">
	<stop  offset="0" style="stop-color:#FFFFFF;stop-opacity:0"/>
	<stop  offset="0.6404" style="stop-color:#DEDFE0;stop-opacity:0.6404"/>
	<stop  offset="1" style="stop-color:#D1D3D4"/>
</linearGradient>
<polygon id="Triangle" fill="url(#Triangle_1_)" points="157.5,181.4 148.6,196.9 139.7,183.6 "/>
<linearGradient id="SVGID_10_" gradientUnits="userSpaceOnUse" x1="964.9004" y1="183.8008" x2="898.1162" y2="183.8008">
	<stop  offset="0" style="stop-color:#FFFFFF;stop-opacity:0"/>
	<stop  offset="0.57" style="stop-color:#E6E8E8;stop-opacity:0.228"/>
	<stop  offset="1" style="stop-color:#D1D3D4;stop-opacity:0.4"/>
</linearGradient>
<path fill="url(#SVGID_10_)" d="M943,149.4c-7.9,0-15.9,2.5-20.4,6.6c-16.8,15.7-38.1,56.1-13,61.6c1.7,0.4,3.4,0.5,5.2,0.5
	c23.9,0,50.1-33.2,50.1-52.1C964.9,154.3,954.1,149.4,943,149.4"/>
<g id="Path-372">
	<linearGradient id="SVGID_11_" gradientUnits="userSpaceOnUse" x1="528.4131" y1="43.6885" x2="696.9922" y2="43.6885">
		<stop  offset="0" style="stop-color:#FFFFFF;stop-opacity:0"/>
		<stop  offset="0.57" style="stop-color:#E6E8E8;stop-opacity:0.57"/>
		<stop  offset="1" style="stop-color:#D1D3D4"/>
	</linearGradient>
	<path fill="url(#SVGID_11_)" d="M604.2,57.4c-23.4,0-48.7-3.7-75.8-11.2l0.5-1.9c67.7,18.6,123.9,13.8,167-14.3l1.1,1.7
		C670.7,48.8,639.7,57.4,604.2,57.4z"/>
</g>
<g id="Rectangle-83" transform="translate(730.000000, 29.000000)">
	<g id="path-48-link">
		<linearGradient id="path-48_4_" gradientUnits="userSpaceOnUse" x1="-23.9092" y1="-1.8779" x2="-16.626" y2="-14.4928">
			<stop  offset="0" style="stop-color:#FFFFFF;stop-opacity:0"/>
			<stop  offset="0.57" style="stop-color:#E6E8E8;stop-opacity:0.57"/>
			<stop  offset="1" style="stop-color:#D1D3D4"/>
		</linearGradient>
		<rect id="path-48_1_" x="-25.6" y="-13.5" fill="url(#path-48_4_)" width="10.7" height="10.7"/>
	</g>
	<g id="path-48-link_1_">
		<linearGradient id="path-48_5_" gradientUnits="userSpaceOnUse" x1="-23.9092" y1="-1.8779" x2="-16.626" y2="-14.4928">
			<stop  offset="0" style="stop-color:#FFFFFF;stop-opacity:0"/>
			<stop  offset="0.57" style="stop-color:#E6E8E8;stop-opacity:0.57"/>
			<stop  offset="1" style="stop-color:#D1D3D4"/>
		</linearGradient>
		<rect id="path-48_2_" x="-25.6" y="-13.5" fill="url(#path-48_5_)" width="10.7" height="10.7"/>
	</g>
</g>
<polygon id="Rectangle-83-Copy" fill="#FFFFFF" points="666.7,205.7 679,215.5 669.2,227.8 "/>
<linearGradient id="SVGID_12_" gradientUnits="userSpaceOnUse" x1="201.8311" y1="118.69" x2="202.9127" y2="87.7167">
	<stop  offset="0" style="stop-color:#FFFFFF;stop-opacity:0"/>
	<stop  offset="0.57" style="stop-color:#E6E8E8;stop-opacity:0.57"/>
	<stop  offset="1" style="stop-color:#D1D3D4"/>
</linearGradient>
<path fill="url(#SVGID_12_)" d="M158.4,117.2c31.9,0,63.8,0,95.9,0l1.2,0c4.1-1.1,4.1-2.9,4.2-4.3c0.3-2.8-3.9-5-3.9-5
	c-3.4-1.7-5.6-2.7-7.9-4.2c-6.8-4.6-9.6-8.6-9.6-8.6c-15.6-14.9-27.1-0.1-27.1-0.1c-4.7,6.2-10.6,4.3-10.6,4.3
	c-18.6-5.5-25.5,3-28.8,5.4c-3.3,2.4-14.4,3.5-14.4,3.5s-11.8,1.1-12.1,5.6c0,0-5.9,3.4,11.8,3.2L158.4,117.2z"/>
<linearGradient id="SVGID_13_" gradientUnits="userSpaceOnUse" x1="601.2744" y1="42.0035" x2="602.356" y2="11.0306" gradientTransform="matrix(-1 0 0 1 1202.8867 0)">
	<stop  offset="0" style="stop-color:#FFFFFF;stop-opacity:0"/>
	<stop  offset="0.57" style="stop-color:#E6E8E8;stop-opacity:0.57"/>
	<stop  offset="1" style="stop-color:#D1D3D4"/>
</linearGradient>
<path fill="url(#SVGID_13_)" d="M645,40.5c-31.9,0-63.8,0-95.9,0l-1.2,0c-4.1-1.1-4.1-2.9-4.2-4.3c-0.3-2.8,3.9-5,3.9-5
	c3.4-1.7,5.6-2.7,7.9-4.2c6.8-4.6,9.6-8.6,9.6-8.6c15.6-14.9,27.1-0.1,27.1-0.1c4.7,6.2,10.6,4.3,10.6,4.3c18.6-5.5,25.5,3,28.8,5.4
	c3.3,2.4,14.4,3.5,14.4,3.5s11.8,1.1,12.1,5.6c0,0,5.9,3.4-11.8,3.2L645,40.5z"/>
<g>
	<g id="Home_1_">
		<g id="Home---Approach_1_" transform="translate(-799.000000, -1814.000000)">
			<g id="Led-by-Proven-Managers_x40_3x_1_" transform="translate(800.000000, 1815.000000)">
				<g id="Group-51_1_" transform="translate(101.271685, 43.511677)">
					<g id="Group-49_1_" transform="translate(328.683470, 0.000000)">
						<path id="Path-301_1_" fill="#FFD7B3" d="M323.1,151.3l5.9,29.5c-3.9,0.5-6.5,1.2-8,1.9c-1.4,0.8-2.3,1.6-2.7,2.4h15.4
							l-1.9-26.2L323.1,151.3z"/>
						<path id="Path-301-Copy_1_" fill="#1E1E1E" d="M328.9,180.9c-1.8,0.3-3.4,0.5-4.7,0.8c-1.4,0.3-2.5,0.7-3.3,1.1
							c-1.4,0.8-2.3,1.6-2.7,2.4h15.4l-0.4-4.3H328.9z"/>
						<path id="Path-302_1_" fill="#FFD7B3" d="M342.9,164.6l12.5,35.3c-0.3,3.6-0.9,6.1-1.7,7.5c-2.3,1-3.8,2.1-4.4,3.3h7.5l4-10.1
							l-7-36H342.9z"/>
						<path id="Path-302-Copy_1_" fill="#1E1E1E" d="M355.4,199.9c-0.1,3.3-0.6,5.6-1.5,7c-2.3,1-3.8,2.3-4.7,3.8h7.5l5-10.8
							l-1.9-4.2c-0.7,1.6-1.3,2.6-1.9,3.1C357.5,199.3,356.6,199.7,355.4,199.9z"/>
						<path id="Path-300_1_" fill="#3E4265" d="M343.1,119.1c-9.3,3.7-16.3,9.7-20.9,18.1c-1.8,3.3-1.4,9.8,1.2,19.4
							c6.3,3,11.3,5.3,14.9,6.9c3.6,1.6,8.9,2.2,15.7,1.8c0-7.5,0-14.2,0-19.9c0-8.6,3.5-8.5,3.5-23.2L343.1,119.1z"/>
						<polygon id="Path-297_1_" fill="#212844" points="362.4,73.5 367,40.5 363.7,43.3 354.2,72.1 						"/>
						<path id="Rectangle-53_1_" fill="#B71C1C" d="M305.6-26.4l69.9,42c2.1,1.3,2.8,4,1.5,6l-27.8,46.3c-1.3,2.1-4,2.8-6,1.5
							l-69.9-42c-2.1-1.3-2.8-4-1.5-6l27.8-46.3C300.8-27,303.5-27.7,305.6-26.4z"/>
						<path id="Path-299_1_" opacity="0.2" fill="#0B4651" enable-background="new    " d="M312.7,51.4l25.8,10.4
							c1.9,0.8,4.1,0.1,5.3-1.6c0.6-1,1-1.8,1-2.4c0-1.7,0.9-6.9,6.8-6.4c2,0.2,8.6-4.5,12-8.5c0.9-1.1-0.5-4,0.5-4.8
							c0.1-0.1,0.5,2.3,1.3,1.5c1.6-1.4,3.5-6.1,3.9-5.1c0.1,0.4-1.2,2.7-3.9,6.9L351.9,63l-6.7,7.8L312.7,51.4z"/>
						<path id="Path-295_1_" fill="#FFD7B3" d="M326.2,60.6l-1.8-4.4l-0.3-0.8c-0.2-0.7-0.8-1.1-1.5-1.1l0.3,2.8l-4.4-2.5
							c-0.5,1.3-0.2,2.4,1,3.5s2.5,2.4,3.9,4.1L326.2,60.6z"/>
						<path id="Path-173_1_" fill="#1E1E1E" d="M350.2,58.3c-5.4,3.3-8.1,7.2-8.1,11.8c0,3.2,3.5,6.2,5.3,9c1.1,1.7,0.7,4.1,0.9,4.2
							c0.6,0.4,4.8,3,6.8,0c0.4-0.6-0.6-4.7-3.2-12.2L350.2,58.3z"/>
						<polygon id="Path-292_1_" fill="#FFD7B3" points="347.7,74.5 350,83.1 358.2,84.5 350.4,72.1 						"/>
						<path id="Path-291_1_" fill="#2C345B" d="M352.9,81l-14.6,0.4c-0.9,0-1.6-0.5-2-1.2l-9.8-19.7c-0.4-0.9-1.5-1.2-2.4-0.8
							c0,0,0,0,0,0c-0.9,0.5-1.4,1.5-1.1,2.5l6.3,21.1c1.2,3.9,4.3,6.9,8.3,7.8l6.8,1.6c-1.2,4.1-1.8,7-1.8,8.8
							c0.1,3.6,0.4,3.8,0.7,6.1c0.4,4-0.1,8.1-1.5,12.3c8.4,2.7,13.5,3.6,15.4,2.7c1.9-1,3.5-11,4.9-30.2L359.3,81H352.9z"/>
						<path id="Path-294_1_" opacity="0.2" fill="#0B4651" enable-background="new    " d="M342.5,100.4c3.4-2.6,5.5-4.2,6.3-4.9
							c1-0.9,1.4-1.1,0.9-1.2c-1-0.3-2.9-0.7-5.4-1.6c-0.6,1.9-0.9,3.2-1.1,4.1C342.9,97.8,342.7,99,342.5,100.4z"/>
						
							<g id="Group-24_1_" transform="translate(113.832166, 130.319748) rotate(22.000000) translate(-113.832166, -130.319748) translate(103.832166, 120.319748)">
							<path id="Path-171_1_" opacity="0.2" fill="#0B4651" enable-background="new    " d="M200.8-140.5c0,9,1.9,13.4,5.6,13.4
								c5.6,0,8.6-5.6,8.6-10.6C215.1-140.9,210.3-141.9,200.8-140.5z"/>
							<path id="Path-171-Copy_1_" fill="#FFD7B3" d="M200.2-141.2c-0.6,8.9,1,13.3,4.8,13.3c5.6,0,7.9-5.6,7.9-10.5
								C212.9-141.7,208.7-142.6,200.2-141.2z"/>
						</g>
						<path id="Path-172_1_" fill="#1E1E1E" d="M346.5,61.9c1.4,2.6,3.4,4,6,4c1.5,1.8-2.3,5.1-2.9,8.1c-0.7,3.5,3.2,5.9,3.5,7.1
							c9.3-0.1,8.7,13.6,8.8,15.9c0.7,0.9,10.8-5.9,2.3-19.1c-1-1.6,3.1-3.5,2.7-7.5c-0.4-4.3-3.5-4.1-4.1-7.3
							c-0.8-4.5-2.5-9.5-9.6-9.5C347.2,53.5,345,56.3,346.5,61.9z"/>
						
							<path id="Path-293_1_" fill="none" stroke="#0B4651" stroke-width="0.8234" stroke-linecap="round" stroke-linejoin="round" d="
							M344.3,92.7c4.5,1.3,7.4,2,8.5,2.3C353.9,95.4,351,94.7,344.3,92.7z"/>
						<path id="Path-298_1_" fill="#FFD7B3" d="M364,43.5c0.4-0.7,0.5-1.2,0.5-1.6c-0.3-2.6-0.9-4-0.5-4.1c0.5-0.1,1.1,0.7,1.8,2.3
							l3.5-5.7c0,1.6-0.1,2.8-0.3,3.4c-0.7,1.9-2.4,5.2-2.8,5.6C365.7,44.1,364.9,44.1,364,43.5z"/>
					</g>
				</g>
			</g>
		</g>
	</g>
	<g>
		<path fill="#EF5350" d="M752.4,63.6l-3.6-2c-0.5-0.3-1.1-0.1-1.4,0.4l-6,10.7c-0.3,0.5-0.1,1.1,0.4,1.4l3.6,2
			c0.5,0.3,1.1,0.1,1.4-0.4l6-10.7C753.1,64.5,752.9,63.9,752.4,63.6z"/>
		<path fill="#EF5350" d="M742.3,65l-3.6-2c-0.5-0.3-1.1-0.1-1.4,0.4l-3,5.4c-0.3,0.5-0.1,1.1,0.4,1.4l3.6,2
			c0.5,0.3,1.1,0.1,1.4-0.4l3-5.4C742.9,65.9,742.8,65.3,742.3,65z"/>
		<path fill="#EF5350" d="M762.6,62.3l-3.6-2c-0.5-0.3-1.1-0.1-1.4,0.4l-9,16.1c-0.3,0.5-0.1,1.1,0.4,1.4l3.6,2
			c0.5,0.3,1.1,0.1,1.4-0.4l9-16.1C763.2,63.2,763.1,62.5,762.6,62.3z"/>
		<path fill="#EF5350" d="M773.6,60.3l-3.6-2c-0.5-0.3-1.1-0.1-1.4,0.4l-12.4,22.1c-0.3,0.5-0.1,1.1,0.4,1.4l3.6,2
			c0.5,0.3,1.1,0.1,1.4-0.4L774,61.7C774.3,61.2,774.1,60.5,773.6,60.3z"/>
	</g>
</g>
<g>
	<rect x="491.3" y="93.8" fill="#F4F4F4" width="136.9" height="2.6"/>
	<g>
		<rect x="462.7" y="92.5" fill="#F4F4F4" width="5.1" height="5.1"/>
		<polygon fill="#F4F4F4" points="445.1,92.5 446.6,95.1 448.1,97.7 445.1,97.7 442.1,97.7 443.6,95.1 		"/>
		<circle fill="#F4F4F4" cx="455" cy="95.1" r="2.6"/>
	</g>
</g>
<g>
	<path fill="#EF5350" d="M996.6,225.2c0.4,1.5,5,17.7,4.5,20c-0.5,2.3,0.1,6.4-3.3,10.4H994h-2.8h-3.9c-3.3-3.9-2.7-8-3.3-10.4
		c-0.5-2.2,4-18.2,4.5-19.9L996.6,225.2z"/>
	<path fill="#B71C1C" d="M997.3,247.6c-0.2-0.9-0.2-1.4-1.1-1.8c-2-0.8-5.1-1-4.6-3.9c0.4-2.4,1.2-4.3-0.9-6.2c-2-1.8-2.8-4-3.1-6.4
		c0,0,0,0.1-0.1,0.1c-1.5,5.4-3.7,14.1-3.3,15.7c0.5,2.3-0.1,6.4,3.2,10.3h3.8h2.8h3.8c1.4-1.6,2.1-3.2,2.4-4.7
		C998.8,250.2,997.8,249.2,997.3,247.6z"/>
	<g>
		<path fill="#EF5350" d="M987.2,220.8c-1.7-1.1-2.2-5.5-4.3-7.9c-2.1-2.4-3.1-5.6-4-8.6c-1.8-5.8,1.4-11.3-0.7-17.3
			c-1.7-4.7-5.2-13.7,1.3-16.7c2.5-1.2,2.3,0.7,2.4,3.1c0.1,2.9-0.6,6.1,0.2,8.9c0.6,1.9,2.2,2.8,3.2,4.3c1.1,1.4,1.4,3.2,1.6,5
			c0.1,1.4-0.4,3.1,0.2,4.6c0.7,2,3,3.5,4,5.5c1.6,3.2,3.1,7.2,0.7,10.2c-1.7,2.2-3.8,4.1-4.7,7c0,0.2-0.1,0.5-0.1,0.7L987.2,220.8z
			"/>
		<path fill="#B71C1C" d="M994.5,225.4c0.2-1.8-2.5-8.1-3.1-17.5c-0.2-3.7,2.1-9.2,1.6-13.2c-0.5-4.5,1.6-5.4,4.1-8.6
			c1.9-2.4,1.9-6.4,1.3-9.2c-0.5-2.2-1.6-4-0.7-6.2c0.7-1.8,2.3-2.6,2.6-4.6c0.4-2.3-0.2-4.6,0.5-6.8c0.7-1.9,2.4-4.4,4.3-5.5
			c2.4-1.4,2.8,0,3.4,2.4c1,4,1.2,8.2,0.4,12.1c-0.7,3.5-2,7.2-1,10.8c1.9,6,9.3,12.6,5.6,19.3c-0.8,1.7-2.3,2.8-3.2,4.3
			c-1.1,1.6-1.8,3.2-2.9,4.8c-1.8,2.4-2.3,5.9-4.4,8c-3.1,3.2-6.2,6.2-8.4,10.6V225.4z"/>
		<path fill="#9D2229" d="M981.1,196.3c0,2.5-0.5,7.5,2.9,8.2c0.2,0,0.4,0,0.5-0.1c0.7-0.8,0-2-0.6-2.7c-0.1-0.1-0.3-0.2-0.5-0.1
			l-0.1,0c-0.2,0-0.3,0.2-0.3,0.3c-0.4,1.3,0.1,2.9,0.7,4c0.5,0.9,1.4,1.7,2.1,2.6c1.2,1.4,1.3,2.9,1.6,4.6c0.1,0.4,0.4,0.9,0.6,1.2
			c0.6,1.1,0.4,2.5,0.4,3.7c0,1.2-0.3,2.3-0.4,3.5c-0.2,1.7-0.1,3.1,1.4,4.1c0.5,0.4,1-0.5,0.5-0.9c-2-1.3-0.5-5.5-0.5-7.6
			c0-1.2,0-2.3-0.5-3.4c-0.6-1.2-0.4-2.6-1-3.9c-1-2.3-3.6-3.8-3.9-6.4c0-0.2,0-0.3,0-0.5c0.1-0.6-0.2-0.8-1-0.6
			c-0.5-0.7-0.6-1.8-0.7-2.6c-0.1-1.2-0.1-2.4-0.1-3.6C982.1,195.6,981.1,195.6,981.1,196.3z"/>
		<path fill="#EF5350" d="M1007.6,185c-0.4,1.8-1.1,3.3-2.3,4.7c-1,1.1-2.4,0.9-3.3,1.7c-1.7,1.5,0,4.5,0.5,6.2
			c0.6,2.2,1.7,4.7,0.1,6.7c-0.7,0.9-1.8,1.6-2.7,2.3c-1.7,1.3-2.4,3-2.2,5c-1.9,1.5-2.8,3.9-3.8,5.9c-1.1,2.2-2.2,5-1.2,7.3
			c0.2,0.6,1.2,0.3,1-0.3c-0.9-2.3,0.4-5,1.4-7c0.8-1.7,1.6-3.6,3-4.9c0.1,0.1,0.3,0.2,0.5,0.2c0.8-0.3,1-0.7,0.8-1.5
			c-0.1-0.2-0.3-0.4-0.5-0.4c0.1-3.1,3.2-4.1,5-6.4c1.4-1.8,0.7-4.4,0.1-6.4c-0.4-1.5-0.9-3-1.3-4.4c-0.6-1.7,2.1-2.1,3-2.8
			c1.8-1.3,2.6-3.7,3.2-5.7C1008.8,184.6,1007.8,184.4,1007.6,185z"/>
		<path fill="#9D2229" d="M990.8,169.9c-0.5,3.1,0.3,5.5,0.7,8.4c0.1,0.9,0.1,1.8,0.3,2.7c0.3,1.4,1.5,2.2,1.9,3.5
			c0.6,2.1-0.5,4.7-0.7,6.8c-0.1,1.9,1.3,3,2.6,4.2c2.9,2.7-1.1,4.9-2.6,6.9c-1.5,2-1.5,4.4-1.4,6.8c0.1,3.3,0.5,6.1-0.6,9.3
			c-0.1,0.3-0.3,1.3-1.4,6.7c-0.1,0.6,0.6,1,0.8,0.4c1-3.1,0.3-3,1.3-6.1c0.9-2.8,1.3-4.9,1.1-7.8c-0.2-3.5-0.6-7,1.9-9.6
			c1.4-1.4,3-2.6,3.2-4.7c0.1-1.5-1.9-2.9-2.8-3.7c-1.9-1.8-0.7-4.8-0.4-7c0.1-0.8,0.1-1.6,0-2.4c-0.2-1.4-1.5-2.2-1.9-3.5
			c-0.4-1.2-0.2-2.5-0.5-3.8c-0.5-2.3-0.9-4.4-0.5-6.8C991.9,169.5,990.9,169.3,990.8,169.9z"/>
		<path fill="#FFFFFF" d="M991.6,225.3c1.1-2.3,1.6-4.7,2.2-7.1c0.8-3.3,2.3-5.9,4.4-8.5c1.5-1.9,3.1-3.9,4.1-6.1
			c1.1-2.4,0.9-5.3,0.8-7.9c-0.2-4.8,0.3-9.5,0.5-14.3c0.2-6.2,0.8-12.3,2.3-18.3c0.2-0.6-0.8-0.9-1-0.3c-1.4,5.4-2,11-2.3,16.6
			c-0.2,4.2-0.5,8.5-0.6,12.7c-0.1,3.3,0.5,6.5-0.1,9.8c-0.5,2.9-3,5.5-4.7,7.8c-1.5,1.9-2.7,3.8-3.5,6c-1.1,3-1.3,6.3-2.8,9.2
			C990.4,225.4,991.3,225.9,991.6,225.3z"/>
	</g>
	<rect x="986.8" y="224.5" fill="#9D2229" width="11" height="1.4"/>
</g>
<g id="Group-66" transform="translate(276.881576, 130.404192)">
	<path id="Path-358" fill="#1E1E1E" d="M3.4,117.6c-4,1.7-9.6,2.7-10.5,4.4c-0.6,1.1,0.2,1.3,0.3,1.5l14.8,0.5v-6.5H3.4z"/>
	<path id="Path-358-Copy" fill="#1E1E1E" d="M48.4,116.2c0.7,4.2,7.7,5.5,7.7,6.8s-2.4,0.9-2.5,1.1H43v-6.5L48.4,116.2z"/>
	<polygon id="Path-356" fill="#2C345B" points="8.5,54.6 3.2,117.6 7.6,118.2 21.2,65.6 23.1,65.6 42.9,117.6 48.4,116.2 31.9,54.6 
			"/>
	<path id="Path-354" fill="#FFD7B3" d="M34.9,12.4L42,9.7L41.8-7.8l-1.1-5.4c1.2-2.8,1.8-5.2,2.3-5.1c0.5,0.1,0.7,1.4,0.7,4
		c4.9-3.4,7.4-4.8,7.7-4c0.4,1.1-4.1,9.6-5.4,10.4c-0.8,0.5,0.4,7.4,2,21.6l-9.7,6L34.9,12.4z"/>
	<path id="Path-353" fill="#3E4265" d="M12.7,15.2c-4.9,0-7.8,0.4-8.7,1.2s-3.2,4.1-7,10l6.8,5.7L7.2,28l1.1,29.7
		c12.8,1.6,20,0,23.7-2.4c-2.1-8.7-3.4-19-3.9-30.9l10.8-4.4l-2.9-7.8l-11.2,3.1H12.7z"/>
	<path id="Path-352" fill="#FFD7B3" d="M13.9,7.1l-1.2,8.1H9.5c3.2,3.9,6.3,5.7,9.3,5.4c3.1-0.3,5-2.1,5.9-5.4h-3.9l-0.9-8.1H13.9z"
		/>
	<path id="Combined-Shape_3_" fill="#E5BFA1" d="M20.3,11.7c-0.1,0-0.1,0.1-0.2,0.1c-1.1,0.5-2.1,0.8-2.9,0.9c-0.8,0.1-1.8,0-3-0.3
		c-0.4-0.1-0.7-0.2-1-0.3l0.7-4.8h6L20.3,11.7z"/>
	
		<g id="Group-65" transform="translate(28.785050, 20.997703) rotate(-6.000000) translate(-28.785050, -20.997703) translate(18.785050, 9.497703)">
		<path fill="#FFD7B3" d="M5.9-5.5l0-11.6l-12.9,0l0,11.6c0,2.7,1.7,5,4.2,5.9c0.9,0.3,1.6,0.4,2.2,0.4c0.6,0,1.4-0.1,2.2-0.4
			C4.2-0.4,5.9-2.8,5.9-5.5z"/>
		<path id="Path-351" fill="#1E1E1E" d="M-7-4.4l1-9.7c5.5,1.8,9.3,2.2,11.5,1.4c0,1.1,0.1,3.5,0.5,7c2.1-4.5,4-8.7,3.4-16.3
			c-7.6-0.3-16,1.2-16.7,2.5C-10.1-17.8-10-12.8-7-4.4z"/>
		<path id="Oval-30" fill="#FFD7B3" d="M-6.7-7.2c0.5,0,0.5-1.2,0.5-2.1c0-1,0.2-1.4-0.3-1.4c-0.5,0-1.4-0.1-1.4,0.9
			C-7.9-8.9-7.1-7.2-6.7-7.2z"/>
		<path id="Oval-30-Copy" fill="#FFD7B3" d="M5.6-7.2c-0.5,0-0.5-1.2-0.5-2.1c0-1-0.2-1.4,0.3-1.4c0.5,0,1.4-0.1,1.4,0.9
			C6.8-8.9,6.1-7.2,5.6-7.2z"/>
	</g>
	<path id="Path-355" fill="#FFD7B3" d="M-2.8,26.4l-7.7,12.7L4.7,51c0.7,1.7,1.2,2.9,1.7,3.6c0.4,0.7,1.5,2.6,1.9,3.1l0.5-2.3
		l-1.3-5.1l2.5,2.1c0.4-0.8,0.2-1.8-0.5-2.4l-2-1.6L-2.8,38l6.1-6.4L-2.8,26.4z"/>
</g>
<linearGradient id="SVGID_14_" gradientUnits="userSpaceOnUse" x1="407.5805" y1="61.2305" x2="407.5805" y2="51.7305">
	<stop  offset="0" style="stop-color:#FFFFFF;stop-opacity:0"/>
	<stop  offset="0.57" style="stop-color:#E6E8E8;stop-opacity:0.57"/>
	<stop  offset="1" style="stop-color:#D1D3D4"/>
</linearGradient>
<polygon fill="url(#SVGID_14_)" points="412.3,56.3 407.8,61.2 402.8,56.7 407.4,51.7 "/>
<rect x="861.5" y="185.8" transform="matrix(0.677 -0.736 0.736 0.677 140.1247 697.5806)" fill="#F23A30" width="6.7" height="6.7"/>
<circle opacity="0.5906" fill="#FFFFFF" enable-background="new    " cx="466.8" cy="143.1" r="7.4"/>
<g>
	<g id="Rectangle-82-Clipped" opacity="0.3">
		<g id="path-2_3_">
		</g>
		<defs>
			<filter id="Adobe_OpacityMaskFilter_12_" filterUnits="userSpaceOnUse" x="448.6" y="120.3" width="175.8" height="59">
				<feColorMatrix  type="matrix" values="1 0 0 0 0  0 1 0 0 0  0 0 1 0 0  0 0 0 1 0"/>
			</filter>
		</defs>
		<mask maskUnits="userSpaceOnUse" x="448.6" y="120.3" width="175.8" height="59" id="mask-8_1_">
			<g filter="url(#Adobe_OpacityMaskFilter_12_)">
				<path id="path-7_5_" fill="#FFFFFF" d="M63,187.9c24.7-35.7,49.4-53.5,74.1-53.5c37.1,0,58,28.3,85.2,12.4
					C249.5,130.9,411.6,19.6,508.2,54c100.2,35.7,206.5,13.7,318.9-66.1l239.4,58c-121.8,91.8-204.9,145.9-249.4,162
					c-148.4,54-279.9,31.3-338.1-9.3c-77.2-53.9-213.8,39.8-260.6,21.9c-46.7-17.8-55.2-31.3-77.6-36.9c-15-3.7-37.4,4.3-67.1,24.3
					L63,187.9z"/>
			</g>
		</mask>
		<path id="Rectangle-82" opacity="0.4" mask="url(#mask-8_1_)" fill="#4A4F70" enable-background="new    " d="M451.8,120.3h169.4
			c1.8,0,3.2,1.4,3.2,3.2v52.6c0,1.8-1.4,3.2-3.2,3.2H451.8c-1.8,0-3.2-1.4-3.2-3.2v-52.6C448.6,121.8,450,120.3,451.8,120.3z"/>
	</g>
	<g>
		<rect x="496" y="131.9" fill="#FFFFFF" width="2" height="40.4"/>
	</g>
	<g>
		<rect x="552.2" y="131.9" fill="#FFFFFF" width="2" height="40.4"/>
	</g>
	<g>
		<rect x="463.5" y="139.4" fill="#FFFFFF" width="29" height="1.3"/>
		<rect x="463.5" y="143.2" fill="#FFFFFF" width="29" height="1.3"/>
		<rect x="463.5" y="147" fill="#FFFFFF" width="29" height="1.3"/>
	</g>
	<g>
		<rect x="519.8" y="137.2" fill="#FFFFFF" width="29" height="1.3"/>
		<rect x="519.8" y="141" fill="#FFFFFF" width="29" height="1.3"/>
		<rect x="519.8" y="144.8" fill="#FFFFFF" width="29" height="1.3"/>
		<circle fill="#FFFFFF" cx="508.4" cy="142.3" r="8.3"/>
	</g>
	<g>
		<rect x="583.1" y="130.9" fill="#FFFFFF" width="37.5" height="1.6"/>
		<rect x="583.1" y="135.8" fill="#FFFFFF" width="37.5" height="1.6"/>
		<rect x="583.1" y="140.7" fill="#FFFFFF" width="37.5" height="1.6"/>
		<circle fill="#FFFFFF" cx="571" cy="136.3" r="7.9"/>
	</g>
</g>
<g>
	<g id="Rectangle-81-Copy-3-Clipped" opacity="0.4" enable-background="new    ">
		<g id="path-2_9_">
		</g>
		<defs>
			<filter id="Adobe_OpacityMaskFilter_13_" filterUnits="userSpaceOnUse" x="457.4" y="198" width="97.6" height="39.7">
				<feColorMatrix  type="matrix" values="1 0 0 0 0  0 1 0 0 0  0 0 1 0 0  0 0 0 1 0"/>
			</filter>
		</defs>
		<mask maskUnits="userSpaceOnUse" x="457.4" y="198" width="97.6" height="39.7" id="mask-22_1_">
			<g filter="url(#Adobe_OpacityMaskFilter_13_)">
				<path id="path-21_5_" fill="#FFFFFF" d="M70.9,183.8c25.2-35.4,50.1-52.9,74.8-52.6c37.1,0.5,57.7,29.1,85,13.5
					s190.8-124.9,287-89.2c99.7,37,206.3,16.3,319.7-62.1l238.7,61c-122.9,90.3-206.7,143.3-251.4,158.9
					c-149,52.1-280.3,27.7-337.9-13.6c-76.6-54.8-214.3,37.1-260.8,18.7c-46.5-18.4-54.8-32-77.2-37.9c-14.9-3.9-37.4,3.9-67.4,23.4
					L70.9,183.8z"/>
			</g>
		</mask>
		<path id="Rectangle-81-Copy-3" opacity="0.4" mask="url(#mask-22_1_)" fill="#4A4F70" enable-background="new    " d="
			M460.3,198.5l91.6-0.4c1.6,0,2.9,1.3,2.9,2.9l0.2,33.4c0,1.6-1.3,2.9-2.9,2.9l-91.6,0.4c-1.6,0-2.9-1.3-2.9-2.9l-0.2-33.4
			C457.4,199.8,458.7,198.5,460.3,198.5z"/>
	</g>
	
		<rect x="512.3" y="210.3" transform="matrix(0.9999 1.255551e-002 -1.255551e-002 0.9999 2.6928 -6.6515)" fill="#FFFFFF" width="37.5" height="1.6"/>
	
		<rect x="512.3" y="215.2" transform="matrix(0.9999 1.258139e-002 -1.258139e-002 0.9999 2.7603 -6.664)" fill="#FFFFFF" width="37.5" height="1.6"/>
	
		<rect x="512.2" y="220.1" transform="matrix(0.9999 1.255518e-002 -1.255518e-002 0.9999 2.8161 -6.649)" fill="#FFFFFF" width="37.5" height="1.6"/>
	<circle fill="#FFFFFF" cx="501.7" cy="215.7" r="7.9"/>
</g>
<g id="Group-69" transform="translate(438.979082, 132.367265)">
	<path id="Path-370" fill="#FFD7B3" d="M-0.2,77.5c-1,21.2-3,34.6-6,40.1c2,0.2,3.5,0.2,4.5,0c8.1-20.3,11.4-33.9,9.9-41
		C6,75.7,3.2,76-0.2,77.5z"/>
	<path id="Path-368" fill="#FFD7B3" d="M14.3,81c4.3,22.2,5.6,31.7,5.6,36.6c2.6-0.1,4.4-0.1,5.2,0c-0.2-7.7-0.4-13.1-0.6-16.3
		c-1.1-16.7-1.5-22-2-22.9L14.3,81z"/>
	<path id="Path-367" fill="#3E4265" d="M-5.9,47.7c-3.4,11.9,0.7,21.9,1,23.1c1,4.1,0.8,11.2,0.8,13.6c6.9,1.7,12,0.8,14.7,0.5
		c7.1-0.8,7.6-3.7,14.4-4.7l-6-31L-5.9,47.7z"/>
	
		<linearGradient id="Path-366_1_" gradientUnits="userSpaceOnUse" x1="-318.8912" y1="191.2529" x2="-318.6143" y2="190.1522" gradientTransform="matrix(7.718 0 0 -4.5799 2495.2417 866.0446)">
		<stop  offset="0" style="stop-color:#EDFFEC;stop-opacity:0"/>
		<stop  offset="0.2235" style="stop-color:#EBEBEC;stop-opacity:0.7688"/>
		<stop  offset="1" style="stop-color:#CDCFD0;stop-opacity:0.3518"/>
	</linearGradient>
	<path id="Path-366" fill="url(#Path-366_1_)" d="M32.4-5h7.3c-0.9-2.9-1.7-4.4-2.5-4.4c-0.8,0-1.9,0-3.4,0L32.4-5z"/>
	<g id="Path-365" transform="translate(32.000000, 9.000000)">
		<g id="path-46-link">
			<linearGradient id="path-46_3_" gradientUnits="userSpaceOnUse" x1="-16.2223" y1="-4.128" x2="5.392" y2="-4.128">
				<stop  offset="0" style="stop-color:#EDFFEC;stop-opacity:0"/>
				<stop  offset="0.2235" style="stop-color:#EBEBEC;stop-opacity:0.7688"/>
				<stop  offset="1" style="stop-color:#CDCFD0;stop-opacity:0.3518"/>
			</linearGradient>
			<path id="path-46_1_" fill="url(#path-46_3_)" d="M5.4-18.2C-0.5-18.2,3.7-5-1.1-3.6C-3.3-3-4.9,0.5-3.3,2.2
				c1.1,1.1,0.9,3.9-0.4,8.2l-10.3-0.9c-1.4-4.3-2.1-7.9-2.1-10.9c0-4.4,6.1-2.2,5.4-7.7s-0.3-8.2,1.7-9.1
				C-1.7-18.8,3.2-18.8,5.4-18.2z"/>
		</g>
		<g id="path-46-link_1_">
			<linearGradient id="path-46_4_" gradientUnits="userSpaceOnUse" x1="-16.2223" y1="-4.128" x2="5.392" y2="-4.128">
				<stop  offset="0" style="stop-color:#FFFFFF"/>
				<stop  offset="1" style="stop-color:#FFFFFF"/>
			</linearGradient>
			<path id="path-46_2_" fill="url(#path-46_4_)" d="M5.4-18.2C-0.5-18.2,3.7-5-1.1-3.6C-3.3-3-4.9,0.5-3.3,2.2
				c1.1,1.1,0.9,3.9-0.4,8.2l-10.3-0.9c-1.4-4.3-2.1-7.9-2.1-10.9c0-4.4,6.1-2.2,5.4-7.7s-0.3-8.2,1.7-9.1
				C-1.7-18.8,3.2-18.8,5.4-18.2z"/>
		</g>
	</g>
	<path id="Path-364" fill="#FFD7B3" d="M29.5,9.8c-0.8-2.2-1.4-3.4-1.6-3.7c-0.4-0.4-1.3-3.1-0.4-2.7c1,0.4,1.7,2.3,2.5,1.7
		c0.5-0.4,1.7-2.4,3.6-5.8c1.5,1.3,2.2,2.4,2,3.3c-0.2,0.9-1.2,2.7-2.9,5.4v2.5L29.5,9.8z"/>
	<g id="Group-70" transform="translate(17.917514, 10.095808)">
		<path id="Path-362" fill="#FFD7B3" d="M-3.4-21.7c2.2,6.3,2.8,12.1,1.6,12.9C-3-8.1-4.9-7.3-7.6-6.5l2.4,8.9H-12l-3.8-20.7
			L-3.4-21.7z"/>
	</g>
	<path id="Path-363" fill="#2C345B" d="M-3.9,13.6l-2.8,35.5C0,51,5.1,51.7,8.7,51.2c3.5-0.5,7-1,10.3-1.4L16.8,28l-2.7-5.1
		c3.4,7.2,8.6,14.4,11.2,13.9c2.5-0.5,5.2-9,8.1-25.6l0,0c0.2-1.1-0.6-2.2-1.7-2.4c-0.1,0-0.2,0-0.4,0c-1.4,0-2.7,1-3,2.4
		c-2.1,8.5-3.5,12.7-4.2,12.7c-1.3,0-4.3-17.5-13.2-14.7C7.6,10.1,2.6,11.6-3.9,13.6z"/>
	<path id="Path-361" fill="#1E1E1E" d="M-1.2-18.4c-7.1,4-2.7,8.8-5.3,10.6c-3.5,2.3-4.2,6.6-3,11.3c2.7,10.7,1.5,11.5-0.6,14.7
		c-1.3,3.9,2.3,5.8,2.3,16c0,3.6,17-17.1,13.9-23.7C4.5,7.1,7.2,11,8.9,4.2C10.6-2.5,6.6-6.2,8.7-6.3c4.2-0.3,2.8-2.5,7-4.7
		C18.2-18.4,4.5-21.6-1.2-18.4z"/>
</g>
<g>
	<g id="Path-359">
		<linearGradient id="SVGID_15_" gradientUnits="userSpaceOnUse" x1="20.7524" y1="255.7383" x2="164.7407" y2="255.7383">
			<stop  offset="0" style="stop-color:#D1D3D4"/>
			<stop  offset="1" style="stop-color:#D1D3D4"/>
		</linearGradient>
		<rect x="20.8" y="255.2" fill="url(#SVGID_15_)" width="144" height="1"/>
	</g>
	<g id="Path-359-Copy-2">
		<linearGradient id="SVGID_16_" gradientUnits="userSpaceOnUse" x1="186.2505" y1="255.7383" x2="371.0717" y2="255.7383">
			<stop  offset="0" style="stop-color:#D1D3D4"/>
			<stop  offset="1" style="stop-color:#D1D3D4"/>
		</linearGradient>
		<rect x="186.3" y="255.2" fill="url(#SVGID_16_)" width="184.8" height="1"/>
	</g>
	<g id="Path-359-Copy-3">
		<linearGradient id="SVGID_17_" gradientUnits="userSpaceOnUse" x1="489.1674" y1="255.7383" x2="721.0371" y2="255.7383">
			<stop  offset="0" style="stop-color:#D1D3D4"/>
			<stop  offset="1" style="stop-color:#D1D3D4"/>
		</linearGradient>
		<rect x="489.2" y="255.2" fill="url(#SVGID_17_)" width="231.9" height="1"/>
	</g>
	<g id="Path-359-Copy-5">
		<linearGradient id="SVGID_18_" gradientUnits="userSpaceOnUse" x1="943.5586" y1="255.8848" x2="1059.9609" y2="255.8848">
			<stop  offset="0" style="stop-color:#D1D3D4"/>
			<stop  offset="1" style="stop-color:#D1D3D4"/>
		</linearGradient>
		<rect x="943.6" y="255.4" fill="url(#SVGID_18_)" width="116.4" height="1"/>
	</g>
	<g id="Path-359-Copy-4">
		<linearGradient id="SVGID_19_" gradientUnits="userSpaceOnUse" x1="740.918" y1="255.3955" x2="899.6621" y2="255.3955">
			<stop  offset="0" style="stop-color:#D1D3D4"/>
			<stop  offset="1" style="stop-color:#D1D3D4"/>
		</linearGradient>
		<rect x="740.9" y="254.9" fill="url(#SVGID_19_)" width="158.7" height="1"/>
	</g>
</g>
<path fill="#1E1E1E" d="M437.5,248.2c0,0-1.6-1-2.5,2.1c-0.8,3-0.1,2.7,1.8,2.9c2.2,0.2,7.3,0.3,9,0.2c1.7-0.1,1.9-1.5-1.7-2.5
	C442.2,250.4,439.5,248.6,437.5,248.2z"/>
<path fill="#1E1E1E" d="M461.9,248.4c0,0-0.3,2.6-0.5,3.4c-0.2,0.8,0.7,1.8,2.4,1.4c0,0,4.5-0.1,5.1,0c0.6,0.1,4.7-0.1,6.3-0.4
	c1.1-0.2,1.3-1.4,0-1.9c-0.7-0.2-1.7-0.5-3.2-1.1c-2.4-1-5.1-2.7-5.1-2.7L461.9,248.4z"/>
<g id="Group-56-Copy-Clipped_1_" opacity="0.5">
	<g id="path-2_1_">
	</g>
	<defs>
		<filter id="Adobe_OpacityMaskFilter_14_" filterUnits="userSpaceOnUse" x="803.2" y="171.9" width="60.2" height="52.5">
			<feColorMatrix  type="matrix" values="1 0 0 0 0  0 1 0 0 0  0 0 1 0 0  0 0 0 1 0"/>
		</filter>
	</defs>
	<mask maskUnits="userSpaceOnUse" x="803.2" y="171.9" width="60.2" height="52.5" id="mask-38_2_">
		<g filter="url(#Adobe_OpacityMaskFilter_14_)">
			<path id="path-37_2_" fill="#FFFFFF" d="M981.8,124.7c-30.9-26.6-57.7-36.9-80.1-31c-33.7,8.8-46,39.6-74.5,31.6
				c-28.5-8-202.3-70.6-281.9-16.3c-82.6,56.3-184.4,61.5-305.5,15.8L36.1,234.3c132.5,54.5,220.9,83.8,265.2,87.9
				c147.7,13.8,261.8-38.2,305-88.9c57.4-67.3,203.8-14.7,242-42.1c38.2-27.3,42.7-41.6,61.8-52c12.7-7,35-4.9,66.7,6.1L981.8,124.7
				z"/>
		</g>
	</mask>
	<g id="Group-56-Copy_1_" opacity="0.67" mask="url(#mask-38_2_)">
		<g id="Group_1_" transform="translate(154.000000, 211.000000)">
			<g transform="translate(26.671250, 37.223145) scale(-1, 1) translate(-26.671250, -37.223145) translate(0.171250, 0.723145)">
				<g>
					<g>
						<defs>
							<path id="SVGID_20_" d="M-596-39.1c-11.3,4.9-3.7,20.1-19,29.9c-5.1,3.3-7.8,3.9-9.1,3.5c0,0,0,0,0,0c0,0.3,0,0.6,0,1
								c-0.4,9.1-27.5,9.6-28.3,12.5c-0.3,1.3-0.5,1.8-0.8,1.7c-0.4-0.1-1.1-1.1-2.8-2.7C-650.5-29.8-615.1-43.2-596-39.1
								 M-596-39.1L-596-39.1L-596-39.1"/>
						</defs>
						
							<linearGradient id="SVGID_21_" gradientUnits="userSpaceOnUse" x1="-604.8668" y1="-15.4819" x2="-557.9957" y2="-15.4819" gradientTransform="matrix(-0.9674 -0.2533 -0.2533 0.9674 -1238.2159 -159.4068)">
							<stop  offset="0" style="stop-color:#FFFFB4;stop-opacity:0.4"/>
							<stop  offset="0.1658" style="stop-color:#E6F5A9;stop-opacity:0.4995"/>
							<stop  offset="0.5183" style="stop-color:#A7DB8E;stop-opacity:0.711"/>
							<stop  offset="1" style="stop-color:#47B464"/>
						</linearGradient>
						<use xlink:href="#SVGID_20_"  overflow="visible" fill="url(#SVGID_21_)"/>
						<clipPath id="SVGID_22_">
							<use xlink:href="#SVGID_20_"  overflow="visible"/>
						</clipPath>
					</g>
				</g>
				<path fill="#0D6574" d="M-609.8-24.9l0.3-1.9c-4-0.7-7.4-1-10.1-0.9c5.8-3.4,10.7-6.7,17.8-9.3l-1.5-0.2
					c-8.9,3.2-14.5,5.9-21.4,10.4c-0.3,0.1-0.7,0.3-1,0.4l0.1,0.2c-0.9,0.6-1.8,1.2-2.6,1.8c1.3-5.2,0.8-6.6,0-7.2l-1.2,1.5
					c0.1,0.1,0.6,1.2-1.3,7.6l0.1,0c-4.8,3.8-9,8-12.6,12.6c0.2-1.8,0-3.9-0.4-6.5l-0.7,0.1c0.5,3.2,0.6,5.8,0.2,7.6
					c-4.6,6.3-8.1,13.2-10.4,20.9l1.8,0.5c2.1-7,5.2-13.4,9.3-19.3c3.5-1.4,8.2-1.1,13.9,1l0.2-0.6c-5.4-1.9-9.9-2.3-13.4-1.3
					c4.9-6.7,11.2-12.5,18.8-17.6C-620.8-26.2-616.2-26.1-609.8-24.9z"/>
			</g>
		</g>
	</g>
</g>
<g>
	<g>
		<g id="Oval-33-Clipped">
			<g id="path-2_19_">
			</g>
			<defs>
				<filter id="Adobe_OpacityMaskFilter_15_" filterUnits="userSpaceOnUse" x="559.9" y="149.1" width="31.2" height="31.5">
					<feColorMatrix  type="matrix" values="1 0 0 0 0  0 1 0 0 0  0 0 1 0 0  0 0 0 1 0"/>
				</filter>
			</defs>
			<mask maskUnits="userSpaceOnUse" x="559.9" y="149.1" width="31.2" height="31.5" id="mask-44_1_">
				<g filter="url(#Adobe_OpacityMaskFilter_15_)">
					<path id="path-43_1_" fill="#FFFFFF" d="M63,187.9c24.7-35.7,49.4-53.5,74.1-53.5c37.1,0,58,28.3,85.2,12.4
						C249.5,130.9,411.6,19.6,508.2,54c100.2,35.7,206.5,13.7,318.9-66.1l239.4,58c-121.8,91.8-204.9,145.9-249.4,162
						c-148.4,54-279.9,31.3-338.1-9.3c-77.2-53.9-213.8,39.8-260.6,21.9c-46.7-17.8-55.2-31.3-77.6-36.9c-15-3.7-37.4,4.3-67.1,24.3
						L63,187.9z"/>
				</g>
			</mask>
			<path id="Oval-33" mask="url(#mask-44_1_)" fill="#3E4265" d="M562.9,174.4l3.7-2.8c2.1,2.7,5.3,4.4,8.8,4.4c6.1,0,11-4.9,11-11
				s-4.9-11-11-11c-5.4,0-10,3.9-10.9,9.2l-4.6-0.8c1.3-7.5,7.8-13.1,15.5-13.1c8.7,0,15.7,7,15.7,15.7c0,8.7-7,15.7-15.7,15.7
				C570.4,180.6,565.8,178.3,562.9,174.4z"/>
		</g>
		<g id="Oval-34-Clipped">
			<g id="path-2_20_">
			</g>
			<defs>
				<filter id="Adobe_OpacityMaskFilter_16_" filterUnits="userSpaceOnUse" x="583.3" y="156.1" width="10.7" height="10.7">
					<feColorMatrix  type="matrix" values="1 0 0 0 0  0 1 0 0 0  0 0 1 0 0  0 0 0 1 0"/>
				</filter>
			</defs>
			<mask maskUnits="userSpaceOnUse" x="583.3" y="156.1" width="10.7" height="10.7" id="mask-47_1_">
				<g filter="url(#Adobe_OpacityMaskFilter_16_)">
					<path id="path-46_5_" fill="#FFFFFF" d="M63,187.9c24.7-35.7,49.4-53.5,74.1-53.5c37.1,0,58,28.3,85.2,12.4
						C249.5,130.9,411.6,19.6,508.2,54c100.2,35.7,206.5,13.7,318.9-66.1l239.4,58c-121.8,91.8-204.9,145.9-249.4,162
						c-148.4,54-279.9,31.3-338.1-9.3c-77.2-53.9-213.8,39.8-260.6,21.9c-46.7-17.8-55.2-31.3-77.6-36.9c-15-3.7-37.4,4.3-67.1,24.3
						L63,187.9z"/>
				</g>
			</mask>
			<ellipse id="Oval-34" mask="url(#mask-47_1_)" fill="#4A4F70" cx="588.7" cy="161.4" rx="5.3" ry="5.3"/>
		</g>
		<g id="Rectangle-80-Clipped">
			<g id="path-2_21_">
			</g>
			<defs>
				<filter id="Adobe_OpacityMaskFilter_17_" filterUnits="userSpaceOnUse" x="586.7" y="154.6" width="19.7" height="9.3">
					<feColorMatrix  type="matrix" values="1 0 0 0 0  0 1 0 0 0  0 0 1 0 0  0 0 0 1 0"/>
				</filter>
			</defs>
			<mask maskUnits="userSpaceOnUse" x="586.7" y="154.6" width="19.7" height="9.3" id="mask-49_1_">
				<g filter="url(#Adobe_OpacityMaskFilter_17_)">
					<path id="path-48_3_" fill="#FFFFFF" d="M63,187.9c24.7-35.7,49.4-53.5,74.1-53.5c37.1,0,58,28.3,85.2,12.4
						C249.5,130.9,411.6,19.6,508.2,54c100.2,35.7,206.5,13.7,318.9-66.1l239.4,58c-121.8,91.8-204.9,145.9-249.4,162
						c-148.4,54-279.9,31.3-338.1-9.3c-77.2-53.9-213.8,39.8-260.6,21.9c-46.7-17.8-55.2-31.3-77.6-36.9c-15-3.7-37.4,4.3-67.1,24.3
						L63,187.9z"/>
				</g>
			</mask>
			<g id="Rectangle-80" mask="url(#mask-49_1_)">
				
					<g id="path-5-link" transform="translate(560.929693, 179.968119) rotate(-11.000000) translate(-560.929693, -179.968119) translate(549.929693, 175.968119)">
					<g>
						<path id="path-5_1_" fill="#3E4265" d="M42.1-11.5L57-12.8c1.4-0.1,2.6,0.9,2.7,2.3c0,0.1,0,0.1,0,0.2l0,1.4
							c0,1.4-1.1,2.5-2.5,2.5c0,0,0,0,0,0l-14.9,0c-1.4,0-2.5-1.1-2.5-2.5l0-0.2C39.8-10.3,40.8-11.4,42.1-11.5z"/>
					</g>
					<g>
						<path id="path-5_2_" fill="#3E4265" d="M42.1-11.5L57-12.8c1.4-0.1,2.6,0.9,2.7,2.3c0,0.1,0,0.1,0,0.2l0,1.4
							c0,1.4-1.1,2.5-2.5,2.5c0,0,0,0,0,0l-14.9,0c-1.4,0-2.5-1.1-2.5-2.5l0-0.2C39.8-10.3,40.8-11.4,42.1-11.5z"/>
					</g>
				</g>
			</g>
		</g>
		<g id="Rectangle-79-Clipped">
			<g id="path-2_23_">
			</g>
			<defs>
				<filter id="Adobe_OpacityMaskFilter_18_" filterUnits="userSpaceOnUse" x="596.4" y="125.9" width="99.5" height="39.7">
					<feColorMatrix  type="matrix" values="1 0 0 0 0  0 1 0 0 0  0 0 1 0 0  0 0 0 1 0"/>
				</filter>
			</defs>
			<mask maskUnits="userSpaceOnUse" x="596.4" y="125.9" width="99.5" height="39.7" id="mask-53_1_">
				<g filter="url(#Adobe_OpacityMaskFilter_18_)">
					<path id="path-52_1_" fill="#FFFFFF" d="M63,187.9c24.7-35.7,49.4-53.5,74.1-53.5c37.1,0,58,28.3,85.2,12.4
						C249.5,130.9,411.6,19.6,508.2,54c100.2,35.7,206.5,13.7,318.9-66.1l239.4,58c-121.8,91.8-204.9,145.9-249.4,162
						c-148.4,54-279.9,31.3-338.1-9.3c-77.2-53.9-213.8,39.8-260.6,21.9c-46.7-17.8-55.2-31.3-77.6-36.9c-15-3.7-37.4,4.3-67.1,24.3
						L63,187.9z"/>
				</g>
			</mask>
			<g id="Rectangle-79" mask="url(#mask-53_1_)">
				
					<g id="path-7-link" transform="translate(613.024980, 168.006891) rotate(-13.000000) translate(-613.024980, -168.006891) translate(559.024980, 154.006891)">
					<g>
						<path id="path-7_1_" fill="#4A4F70" d="M48.3-7.3l79.5-4.4c7.2-0.4,13.4,5.1,13.8,12.4c0,0.2,0,0.5,0,0.7
							c0,7.2-5.9,13.1-13.1,13.1c-0.2,0-0.5,0-0.7,0l-79.5-4.4c-4.6-0.3-8.2-4.1-8.2-8.7C40.1-3.2,43.7-7,48.3-7.3z"/>
					</g>
					<g>
						<path id="path-7_2_" fill="#4A4F70" d="M48.3-7.3l79.5-4.4c7.2-0.4,13.4,5.1,13.8,12.4c0,0.2,0,0.5,0,0.7
							c0,7.2-5.9,13.1-13.1,13.1c-0.2,0-0.5,0-0.7,0l-79.5-4.4c-4.6-0.3-8.2-4.1-8.2-8.7C40.1-3.2,43.7-7,48.3-7.3z"/>
					</g>
				</g>
			</g>
		</g>
		<g id="Combined-Shape-Clipped">
			<g id="path-2_24_">
			</g>
			<defs>
				<filter id="Adobe_OpacityMaskFilter_19_" filterUnits="userSpaceOnUse" x="633.5" y="143.1" width="18.1" height="10.1">
					<feColorMatrix  type="matrix" values="1 0 0 0 0  0 1 0 0 0  0 0 1 0 0  0 0 0 1 0"/>
				</filter>
			</defs>
			<mask maskUnits="userSpaceOnUse" x="633.5" y="143.1" width="18.1" height="10.1" id="mask-55_1_">
				<g filter="url(#Adobe_OpacityMaskFilter_19_)">
					<path id="path-54_1_" fill="#FFFFFF" d="M63,187.9c24.7-35.7,49.4-53.5,74.1-53.5c37.1,0,58,28.3,85.2,12.4
						C249.5,130.9,411.6,19.6,508.2,54c100.2,35.7,206.5,13.7,318.9-66.1l239.4,58c-121.8,91.8-204.9,145.9-249.4,162
						c-148.4,54-279.9,31.3-338.1-9.3c-77.2-53.9-213.8,39.8-260.6,21.9c-46.7-17.8-55.2-31.3-77.6-36.9c-15-3.7-37.4,4.3-67.1,24.3
						L63,187.9z"/>
				</g>
			</mask>
			<g id="Combined-Shape_2_" mask="url(#mask-55_1_)">
				
					<g id="path-9-link" transform="translate(609.569171, 168.953276) rotate(-13.000000) translate(-609.569171, -168.953276) translate(600.069171, 164.953276)">
					<g>
						
							<linearGradient id="path-9_2_" gradientUnits="userSpaceOnUse" x1="37.5175" y1="-10.8356" x2="55.6161" y2="-10.8356" gradientTransform="matrix(1 0 0 1 6.103516e-005 0)">
							<stop  offset="0" style="stop-color:#FFFFFF"/>
							<stop  offset="0.57" style="stop-color:#E6E8E8"/>
							<stop  offset="1" style="stop-color:#D1D3D4"/>
						</linearGradient>
						<path id="path-9" fill="url(#path-9_2_)" d="M38.3-12.1c0.4,0,0.7,0.3,0.7,0.7l0,5.3c0,0.4-0.3,0.7-0.7,0.7
							c-0.4,0-0.7-0.3-0.7-0.7l0-5.3C37.7-11.8,38-12.1,38.3-12.1z M41-12.1c0.4,0,0.7,0.3,0.7,0.7l0,5.3c0,0.4-0.3,0.7-0.7,0.7
							c-0.4,0-0.7-0.3-0.7-0.7l0-5.3C40.3-11.8,40.6-12.1,41-12.1z M43.7-12.1c0.4,0,0.7,0.3,0.7,0.7l0,5.3c0,0.4-0.3,0.7-0.7,0.7
							c-0.4,0-0.7-0.3-0.7-0.7l0-5.3C43-11.8,43.3-12.1,43.7-12.1z M46.3-12.1c0.4,0,0.7,0.3,0.7,0.7l0,5.3c0,0.4-0.3,0.7-0.7,0.7
							c-0.4,0-0.7-0.3-0.7-0.7l0-5.3C45.7-11.8,46-12.1,46.3-12.1z M49-12.1c0.4,0,0.7,0.3,0.7,0.7l0,5.3c0,0.4-0.3,0.7-0.7,0.7
							c-0.4,0-0.7-0.3-0.7-0.7l0-5.3C48.3-11.8,48.6-12.1,49-12.1z M51.7-12.1c0.4,0,0.7,0.3,0.7,0.7l0,5.3c0,0.4-0.3,0.7-0.7,0.7
							c-0.4,0-0.7-0.3-0.7-0.7l0-5.3C51-11.8,51.3-12.1,51.7-12.1z M54.3-12.1c0.4,0,0.7,0.3,0.7,0.7l0,5.3c0,0.4-0.3,0.7-0.7,0.7
							c-0.4,0-0.7-0.3-0.7-0.7l0-5.3C53.7-11.8,54-12.1,54.3-12.1z"/>
					</g>
					<g>
						
							<linearGradient id="path-9_3_" gradientUnits="userSpaceOnUse" x1="37.5175" y1="-10.8356" x2="55.6161" y2="-10.8356" gradientTransform="matrix(1 0 0 1 6.103516e-005 0)">
							<stop  offset="0" style="stop-color:#FFFFFF"/>
							<stop  offset="0.57" style="stop-color:#E6E8E8"/>
							<stop  offset="1" style="stop-color:#D1D3D4"/>
						</linearGradient>
						<path id="path-9_1_" fill="url(#path-9_3_)" d="M38.3-12.1c0.4,0,0.7,0.3,0.7,0.7l0,5.3c0,0.4-0.3,0.7-0.7,0.7
							c-0.4,0-0.7-0.3-0.7-0.7l0-5.3C37.7-11.8,38-12.1,38.3-12.1z M41-12.1c0.4,0,0.7,0.3,0.7,0.7l0,5.3c0,0.4-0.3,0.7-0.7,0.7
							c-0.4,0-0.7-0.3-0.7-0.7l0-5.3C40.3-11.8,40.6-12.1,41-12.1z M43.7-12.1c0.4,0,0.7,0.3,0.7,0.7l0,5.3c0,0.4-0.3,0.7-0.7,0.7
							c-0.4,0-0.7-0.3-0.7-0.7l0-5.3C43-11.8,43.3-12.1,43.7-12.1z M46.3-12.1c0.4,0,0.7,0.3,0.7,0.7l0,5.3c0,0.4-0.3,0.7-0.7,0.7
							c-0.4,0-0.7-0.3-0.7-0.7l0-5.3C45.7-11.8,46-12.1,46.3-12.1z M49-12.1c0.4,0,0.7,0.3,0.7,0.7l0,5.3c0,0.4-0.3,0.7-0.7,0.7
							c-0.4,0-0.7-0.3-0.7-0.7l0-5.3C48.3-11.8,48.6-12.1,49-12.1z M51.7-12.1c0.4,0,0.7,0.3,0.7,0.7l0,5.3c0,0.4-0.3,0.7-0.7,0.7
							c-0.4,0-0.7-0.3-0.7-0.7l0-5.3C51-11.8,51.3-12.1,51.7-12.1z M54.3-12.1c0.4,0,0.7,0.3,0.7,0.7l0,5.3c0,0.4-0.3,0.7-0.7,0.7
							c-0.4,0-0.7-0.3-0.7-0.7l0-5.3C53.7-11.8,54-12.1,54.3-12.1z"/>
					</g>
				</g>
			</g>
		</g>
		<g id="Oval-32-Clipped">
			<g id="path-2_27_">
			</g>
			<defs>
				<filter id="Adobe_OpacityMaskFilter_20_" filterUnits="userSpaceOnUse" x="674.7" y="133.4" width="12.5" height="12.6">
					<feColorMatrix  type="matrix" values="1 0 0 0 0  0 1 0 0 0  0 0 1 0 0  0 0 0 1 0"/>
				</filter>
			</defs>
			<mask maskUnits="userSpaceOnUse" x="674.7" y="133.4" width="12.5" height="12.6" id="mask-61_1_">
				<g filter="url(#Adobe_OpacityMaskFilter_20_)">
					<path id="path-60_1_" fill="#FFFFFF" d="M-28.8,192.3c28.4-41,56.8-61.5,85.1-61.5c42.6,0,66.7,32.5,97.9,14.3
						C185.4,126.9,371.6-1,482.6,38.5c115.1,41,237.2,15.7,366.2-75.9l275,66.6C983.9,134.7,888.4,196.7,837.4,215.3
						c-170.4,62-321.5,35.9-388.3-10.7c-88.7-61.9-245.6,45.7-299.3,25.2c-53.7-20.5-63.4-35.9-89.2-42.4
						c-17.2-4.3-42.9,5-77.1,27.9L-28.8,192.3z"/>
				</g>
			</mask>
			<g id="Oval-32" mask="url(#mask-61_1_)">
				<g id="path-15-link" transform="translate(643.000000, 156.000000)">
					<g>
						<linearGradient id="path-15_2_" gradientUnits="userSpaceOnUse" x1="31.6611" y1="-16.3623" x2="44.2021" y2="-16.3623">
							<stop  offset="0" style="stop-color:#FFFFFF"/>
							<stop  offset="0.57" style="stop-color:#E6E8E8"/>
							<stop  offset="1" style="stop-color:#D1D3D4"/>
						</linearGradient>
						<ellipse id="path-15" fill="url(#path-15_2_)" cx="37.9" cy="-16.4" rx="6.3" ry="6.3"/>
					</g>
					<g>
						<linearGradient id="path-15_3_" gradientUnits="userSpaceOnUse" x1="31.6611" y1="-16.3623" x2="44.2021" y2="-16.3623">
							<stop  offset="0" style="stop-color:#FFFFFF"/>
							<stop  offset="0.57" style="stop-color:#E6E8E8"/>
							<stop  offset="1" style="stop-color:#D1D3D4"/>
						</linearGradient>
						<ellipse id="path-15_1_" fill="url(#path-15_3_)" cx="37.9" cy="-16.4" rx="6.3" ry="6.3"/>
					</g>
				</g>
			</g>
		</g>
		<g id="Oval-32-Copy-Clipped">
			<g id="path-2_30_">
			</g>
			<defs>
				<filter id="Adobe_OpacityMaskFilter_21_" filterUnits="userSpaceOnUse" x="601.4" y="152.6" width="8.5" height="8.5">
					<feColorMatrix  type="matrix" values="1 0 0 0 0  0 1 0 0 0  0 0 1 0 0  0 0 0 1 0"/>
				</filter>
			</defs>
			<mask maskUnits="userSpaceOnUse" x="601.4" y="152.6" width="8.5" height="8.5" id="mask-67_1_">
				<g filter="url(#Adobe_OpacityMaskFilter_21_)">
					<path id="path-66_1_" fill="#FFFFFF" d="M63,187.9c24.7-35.7,49.4-53.5,74.1-53.5c37.1,0,58,28.3,85.2,12.4
						C249.5,130.9,411.6,19.6,508.2,54c100.2,35.7,206.5,13.7,318.9-66.1l239.4,58c-121.8,91.8-204.9,145.9-249.4,162
						c-148.4,54-279.9,31.3-338.1-9.3c-77.2-53.9-213.8,39.8-260.6,21.9c-46.7-17.8-55.2-31.3-77.6-36.9c-15-3.7-37.4,4.3-67.1,24.3
						L63,187.9z"/>
				</g>
			</mask>
			<g id="Oval-32-Copy" mask="url(#mask-67_1_)">
				<g id="path-21-link" transform="translate(566.000000, 173.000000)">
					<g>
						<ellipse id="path-21_1_" fill="#333851" cx="39.7" cy="-16.1" rx="4.3" ry="4.3"/>
					</g>
					<g>
						<ellipse id="path-21_2_" fill="#333851" cx="39.7" cy="-16.1" rx="4.3" ry="4.3"/>
					</g>
				</g>
			</g>
		</g>
		<g id="Rectangle-81-Clipped">
			<g id="path-2_32_">
			</g>
			<defs>
				<filter id="Adobe_OpacityMaskFilter_22_" filterUnits="userSpaceOnUse" x="515.5" y="160.4" width="58.4" height="40.1">
					<feColorMatrix  type="matrix" values="1 0 0 0 0  0 1 0 0 0  0 0 1 0 0  0 0 0 1 0"/>
				</filter>
			</defs>
			<mask maskUnits="userSpaceOnUse" x="515.5" y="160.4" width="58.4" height="40.1" id="mask-71_1_">
				<g filter="url(#Adobe_OpacityMaskFilter_22_)">
					<path id="path-70_1_" fill="#FFFFFF" d="M63,187.9c24.7-35.7,49.4-53.5,74.1-53.5c37.1,0,58,28.3,85.2,12.4
						C249.5,130.9,411.6,19.6,508.2,54c100.2,35.7,206.5,13.7,318.9-66.1l239.4,58c-121.8,91.8-204.9,145.9-249.4,162
						c-148.4,54-279.9,31.3-338.1-9.3c-77.2-53.9-213.8,39.8-260.6,21.9c-46.7-17.8-55.2-31.3-77.6-36.9c-15-3.7-37.4,4.3-67.1,24.3
						L63,187.9z"/>
				</g>
			</mask>
			<path id="Rectangle-81" mask="url(#mask-71_1_)" fill="#EF5350" d="M518.4,161.3l51.9-0.9c1.6,0,3,1.3,3,2.9l0.6,33.3
				c0,1.6-1.3,3-2.9,3l-51.9,0.9c-1.6,0-3-1.3-3-2.9l-0.6-33.3C515.5,162.7,516.7,161.3,518.4,161.3z"/>
		</g>
		<g id="Oval-33-Copy-Clipped">
			<g id="path-2_36_">
			</g>
			<defs>
				<filter id="Adobe_OpacityMaskFilter_23_" filterUnits="userSpaceOnUse" x="562.9" y="171.5" width="12.5" height="9.1">
					<feColorMatrix  type="matrix" values="1 0 0 0 0  0 1 0 0 0  0 0 1 0 0  0 0 0 1 0"/>
				</filter>
			</defs>
			<mask maskUnits="userSpaceOnUse" x="562.9" y="171.5" width="12.5" height="9.1" id="mask-79_1_">
				<g filter="url(#Adobe_OpacityMaskFilter_23_)">
					<path id="path-78_1_" fill="#FFFFFF" d="M63,187.9c24.7-35.7,49.4-53.5,74.1-53.5c37.1,0,58,28.3,85.2,12.4
						C249.5,130.9,411.6,19.6,508.2,54c100.2,35.7,206.5,13.7,318.9-66.1l239.4,58c-121.8,91.8-204.9,145.9-249.4,162
						c-148.4,54-279.9,31.3-338.1-9.3c-77.2-53.9-213.8,39.8-260.6,21.9c-46.7-17.8-55.2-31.3-77.6-36.9c-15-3.7-37.4,4.3-67.1,24.3
						L63,187.9z"/>
				</g>
			</mask>
			<path id="Oval-33-Copy" mask="url(#mask-79_1_)" fill="#FFFFFF" d="M562.9,174.4l3.7-2.8c2.1,2.7,5.3,4.4,8.8,4.4v4.7
				C570.4,180.6,565.8,178.3,562.9,174.4z"/>
		</g>
	</g>
	<g>
		<rect x="540.9" y="174.9" fill="#B71C1C" width="20" height="1.6"/>
		<rect x="540.9" y="179.8" fill="#B71C1C" width="20" height="1.6"/>
		<rect x="540.9" y="184.7" fill="#B71C1C" width="20" height="1.6"/>
	</g>
	<circle fill="#B71C1C" cx="529.6" cy="180.8" r="7.9"/>
</g>
<g>
	
		<g id="Group-73" transform="translate(1029.840963, 45.637862) rotate(-11.000000) translate(-1029.840963, -45.637862) translate(994.840963, 22.137862)">
		<polygon id="Path-387" fill="#DD5252" points="-20.7,21.4 7.7,-1.2 -18.6,3.3 		"/>
		<polygon id="Path-385" fill="#EF5350" points="-38.1,-4.9 2.4,16.3 20.5,-17.2 		"/>
		<polygon id="Path-386" fill="#B71C1C" points="-23.8,2.6 6.4,-8.5 -15,7.1 -20.9,22.2 		"/>
	</g>
	<g>
		<path fill="#EF5350" d="M868.2,138.2C868.2,138.2,868.2,138.2,868.2,138.2c-1.9,0-3.5-0.4-4.8-1c-0.8-0.4-1.5-0.8-2.1-1.4
			c-0.4-0.4-0.5-1-0.1-1.4c0.4-0.4,1-0.5,1.4-0.1c0.5,0.4,1.1,0.8,1.7,1.1c1.1,0.5,2.4,0.8,4,0.8c0.6,0,1,0.5,1,1
			C869.2,137.7,868.8,138.2,868.2,138.2z"/>
		<g>
			<g id="Group-72" transform="translate(777.000000, 1.000000)">
				<path id="Path-383" fill="#FFD7B3" d="M73.7,55.6L72,57.2l-1,0.3c-1.6,0.5-2.9,1.7-3.7,3.1l-1.4,2.8l0.3,0.3
					c1.5,0,4.5-1.3,5.4-2.5l1.5-1.9V62c0.1,0.6,0.8,0.6,0.9,0.3c0.1-0.3,0.8-2,2-5.1L73.7,55.6z"/>
				<path id="Path-382" fill="#FFD7B3" d="M153.5,39.6l2.1-7.3c0.9,0.2,1.3,0.5,1.3,0.9c0,0.7-0.1,2.5,0,2.7
					c-0.1,0.1,1.6-0.2,4.3-5.1c0.2-0.4,0.5,0.6,0.7,1c0.9,2.6,1.1,3.8,0.5,4.8c-0.6,1.1-2.8,2.8-6.7,5.2L153.5,39.6z"/>
				<path id="Path-379" fill="#3E4265" d="M92,71.1L77.7,89.7c-1.4,2.5-4.4,3.5-7.1,2.5L50,83.7l-2.1,4.5L68.6,100
					c3,1.7,6.7,1.6,9.5-0.4l16.5-11.5l9.4,10.7c2.1,2.3,2.3,5.8,0.4,8.3l-14.4,20.3l4.5,2.8l20.3-22.1c1.6-1.8,2.2-4.3,1.4-6.6
					l-5.8-21.3L92,71.1z"/>
				
					<g id="Group-71" transform="translate(88.484708, 56.684486) rotate(21.000000) translate(-88.484708, -56.684486) translate(46.484708, 12.184486)">
					<path id="Path-375" fill="#4A4F70" d="M64.2,18.3l7.8,1.4c6.5,1.2,13.1-1.3,17.3-6.4l6-7.4c0.9-1.1,2.4-1.5,3.7-0.9
						c1,0.4,1.4,1.5,1,2.5c-0.1,0.1-0.1,0.2-0.2,0.3l-8.1,11.9c-3.3,4.9-8.8,7.8-14.7,7.9l-6.2,0.1c0.3,4.8,0.5,8.7,0.6,11.7
						c0.2,3,2.4,14.6,5.4,21.4c-0.8,1.6-0.7,1.1-2.8,3.3c-1.6,0.4-7.4,4.8-10.3,5.1l0.4-17.5l-1.8-30.2L64.2,18.3z"/>
					
						<g id="Group-28" transform="translate(39.031601, 19.802111) scale(-1, 1) rotate(11.000000) translate(-39.031601, -19.802111) translate(28.531601, 1.802111)">
						<path id="Path-252" fill="#FFD7B3" d="M-21.8,1.5c-0.9,5.4-1.1,8.6-0.8,9.7c0.3,1.1,1.3,3.2,2.9,6.3l3.8-0.3l0.2,5.8
							c2.1,2.8,4.8,4.7,4.3,4.6s-0.7-2.1,3.2-4.8l-2.9-9.7l1.9-8.9L-21.8,1.5z"/>
						<path id="Path-251" fill="#1E1E1E" d="M-16.4-3.9c5.9,0.5,9,2.1,9.3,4.7c0.5,3.9,2.8,2.6,2.1,6.2c-0.8,3.6-3.6,6.1-5.2,9.7
							c-1.9-3.4-1.7-4.5-0.7-6.9c1.7-4-0.8-3.7-1.1-1.8c-0.3,1.9-0.2,8.3-2.4,10.1c-2.2,1.8-4.9,1.7-5.6,1.4c-1.4-0.6-3.8-2-2.1-8.4
							c1.2-0.4,4.7,0,6.6,2.4c0.8-0.8,1.5-3.3,2.2-7.6c-7.7-1.9-10.7-4-8.9-6.4C-20.6-2.8-18.6-3.9-16.4-3.9z"/>
					</g>
					<path id="Path-373_1_" fill="#4A4F70" d="M49.4,62.1c1.3-3.6,3.1-26.3,2.7-32.6l-6.3,1c-3.5,0.6-6.5,2.7-8.1,5.9l-6.6,13
						c-0.4,0.9-1.4,1.3-2.3,1.1c-0.8-0.2-1.3-1-1.2-1.8c0,0,0-0.1,0-0.1l5.5-18.4c1-3.3,3.4-5.9,6.5-7.1c5.2-2,9.1-3.6,11.8-4.6
						c3.4-1.4,5.7-1.8,6.8-1.3c2.3,1.9,3.7,4.3,4.4,7.3c0.8,16.5,2.1,25,1.1,44.8c-6.3-1-11.4-3.1-14.6-5.9L49.4,62.1z"/>
				</g>
				<path id="Path-380" fill="#1E1E1E" d="M49.3,87.2l-10.2,9.2c-2-0.8-2.5-1.8-1.5-2.9c1-1.1,3.9-5.1,8.8-11.9l4.2,2.5L49.3,87.2z"
					/>
			</g>
			<g id="Path-384_1_">
				<path fill="#EF5350" d="M845.6,163.5c-0.5,0-1-0.4-1-0.9c0-0.6,0.4-1,0.9-1.1c2.3-0.1,4.6-0.4,6.7-0.7c0.5-0.1,1.1,0.3,1.1,0.9
					s-0.3,1.1-0.9,1.1C850.3,163.1,848,163.3,845.6,163.5C845.6,163.5,845.6,163.5,845.6,163.5z M856.8,162.1c-0.5,0-0.9-0.3-1-0.8
					c-0.1-0.5,0.2-1.1,0.8-1.2c2.3-0.5,4.5-1,6.5-1.6c0.5-0.2,1.1,0.1,1.3,0.7c0.2,0.5-0.1,1.1-0.7,1.3c-2.1,0.7-4.4,1.2-6.7,1.7
					C856.9,162.1,856.8,162.1,856.8,162.1z M867.6,158.9c-0.4,0-0.8-0.2-0.9-0.6c-0.2-0.5,0-1.1,0.5-1.3c2.1-0.9,4.1-1.9,6-3
					c0.5-0.3,1.1-0.1,1.4,0.3c0.3,0.5,0.1,1.1-0.3,1.4c-1.9,1.2-4,2.2-6.2,3.1C867.9,158.9,867.7,158.9,867.6,158.9z M877.4,153.2
					c-0.3,0-0.6-0.1-0.8-0.4c-0.3-0.4-0.3-1.1,0.1-1.4c1.8-1.4,3.3-3,4.6-4.7c0.3-0.4,1-0.5,1.4-0.2c0.4,0.3,0.5,1,0.2,1.4
					c-1.4,1.8-3,3.5-4.9,5.1C877.8,153.2,877.6,153.2,877.4,153.2z M884.5,144.6c-0.2,0-0.3,0-0.4-0.1c-0.5-0.2-0.7-0.8-0.4-1.3
					c1-2,1.7-4,2.1-6.2c0.1-0.5,0.6-0.9,1.2-0.8c0.5,0.1,0.9,0.6,0.8,1.2c-0.4,2.3-1.2,4.6-2.3,6.7
					C885.2,144.3,884.8,144.6,884.5,144.6z M873.7,136.8c-0.5,0-0.9-0.3-1-0.8c-0.1-0.5,0.3-1.1,0.8-1.2c1.9-0.4,4.1-1,6.4-1.8
					c0.5-0.2,1.1,0.1,1.3,0.6c0.2,0.5-0.1,1.1-0.6,1.3c-2.4,0.9-4.7,1.5-6.7,1.9C873.8,136.7,873.8,136.8,873.7,136.8z M887,133.6
					c-0.6,0-1-0.4-1-1c0,0,0,0,0,0c-0.4,0.2-0.8,0.4-1.2,0.5c-0.5,0.2-1.1,0-1.3-0.5c-0.2-0.5,0-1.1,0.5-1.3
					c0.6-0.3,1.3-0.6,1.9-0.9c-0.1-1.5-0.4-2.9-0.8-4.3c-0.2-0.5,0.2-1.1,0.7-1.2c0.5-0.2,1.1,0.2,1.2,0.7c0.4,1.3,0.6,2.6,0.8,4
					c0.8-0.4,1.5-0.8,2.3-1.2c0.5-0.3,1.1-0.1,1.3,0.4c0.3,0.5,0.1,1.1-0.4,1.3c-1,0.5-2.1,1-3,1.5c0,0.3,0,0.6,0,0.9
					C888,133.2,887.6,133.6,887,133.6L887,133.6z M860.3,131.4c-0.4,0-0.8-0.2-0.9-0.6c-0.6-1.5-1-3.2-1-5c0-0.8,0.1-1.5,0.2-2.3
					c0.1-0.5,0.6-0.9,1.1-0.8c0.5,0.1,0.9,0.6,0.8,1.1c-0.1,0.6-0.2,1.3-0.2,2c0,1.5,0.3,2.9,0.8,4.2c0.2,0.5,0,1.1-0.5,1.3
					C860.6,131.4,860.4,131.4,860.3,131.4z M894.5,128.1c-0.3,0-0.7-0.2-0.9-0.5c-0.3-0.5-0.1-1.1,0.4-1.4c1.9-1.1,3.9-2.3,5.8-3.5
					c0.5-0.3,1.1-0.2,1.4,0.3c0.3,0.5,0.2,1.1-0.3,1.4c-2,1.3-4,2.4-5.9,3.5C894.9,128.1,894.7,128.1,894.5,128.1z M884.5,122.7
					c-0.4,0-0.7-0.2-0.9-0.5c-1-2-2.4-3.8-3.8-5.2c-0.4-0.4-0.4-1-0.1-1.4c0.4-0.4,1-0.4,1.4-0.1c1.7,1.5,3.1,3.5,4.3,5.7
					c0.3,0.5,0.1,1.1-0.4,1.3C884.8,122.7,884.6,122.7,884.5,122.7z M904.2,122.2c-0.3,0-0.6-0.2-0.8-0.4c-0.3-0.5-0.2-1.1,0.3-1.4
					c1.8-1.2,3.7-2.5,5.6-3.9c0.5-0.3,1.1-0.2,1.4,0.2c0.3,0.5,0.2,1.1-0.2,1.4c-1.9,1.4-3.8,2.7-5.7,3.9
					C904.6,122.1,904.4,122.2,904.2,122.2z M861,120.4c-0.2,0-0.3,0-0.5-0.1c-0.5-0.3-0.7-0.9-0.4-1.4c1.2-2.2,3-4.1,5.1-5.3
					c0.5-0.3,1.1-0.1,1.4,0.4c0.3,0.5,0.1,1.1-0.4,1.4c-1.8,1-3.3,2.5-4.3,4.5C861.7,120.2,861.4,120.4,861,120.4z M913.5,115.7
					c-0.3,0-0.6-0.1-0.8-0.4c-0.3-0.4-0.2-1.1,0.2-1.4c1.8-1.3,3.6-2.7,5.4-4.1c0.4-0.3,1.1-0.3,1.4,0.2c0.3,0.4,0.3,1.1-0.2,1.4
					c-1.8,1.4-3.7,2.8-5.5,4.2C913.9,115.6,913.7,115.7,913.5,115.7z M876.6,114.9c-0.1,0-0.2,0-0.4-0.1c-0.6-0.2-1.2-0.4-1.8-0.5
					c-1.6-0.3-3.1-0.3-4.5-0.1c-0.6,0.1-1.1-0.3-1.1-0.9c-0.1-0.5,0.3-1.1,0.9-1.1c1.6-0.2,3.3-0.2,5.1,0.1c0.7,0.1,1.4,0.3,2.2,0.6
					c0.5,0.2,0.8,0.8,0.6,1.3C877.4,114.6,877,114.9,876.6,114.9z M922.4,108.7c-0.3,0-0.6-0.1-0.8-0.4c-0.3-0.4-0.3-1.1,0.1-1.4
					c1.8-1.4,3.5-2.9,5.2-4.4c0.4-0.4,1.1-0.3,1.4,0.1c0.4,0.4,0.3,1.1-0.1,1.4c-1.7,1.5-3.5,3-5.3,4.4
					C922.8,108.7,922.6,108.7,922.4,108.7z M931.1,101.4c-0.3,0-0.6-0.1-0.8-0.3c-0.4-0.4-0.3-1,0.1-1.4c1.7-1.5,3.4-3,5.1-4.6
					c0.4-0.4,1-0.3,1.4,0.1c0.4,0.4,0.3,1-0.1,1.4c-1.7,1.5-3.4,3.1-5.1,4.6C931.5,101.4,931.3,101.4,931.1,101.4z M939.4,93.8
					c-0.3,0-0.5-0.1-0.7-0.3c-0.4-0.4-0.4-1,0-1.4c1.6-1.5,3.3-3.1,4.9-4.7c0.4-0.4,1-0.4,1.4,0c0.4,0.4,0.4,1,0,1.4
					c-1.6,1.6-3.3,3.2-4.9,4.8C939.9,93.7,939.7,93.8,939.4,93.8z M947.5,85.9c-0.3,0-0.5-0.1-0.7-0.3c-0.4-0.4-0.4-1,0-1.4
					c1.6-1.6,3.2-3.3,4.7-4.9c0.4-0.4,1-0.4,1.4,0c0.4,0.4,0.4,1,0,1.4c-1.5,1.7-3.1,3.3-4.7,5C948,85.8,947.7,85.9,947.5,85.9z
					 M955.2,77.6c-0.2,0-0.5-0.1-0.7-0.3c-0.4-0.4-0.4-1-0.1-1.4c1.5-1.7,3-3.4,4.5-5.1c0.4-0.4,1-0.5,1.4-0.1
					c0.4,0.4,0.5,1,0.1,1.4c-1.5,1.7-3,3.4-4.6,5.1C955.8,77.5,955.5,77.6,955.2,77.6z M962.7,69.1c-0.2,0-0.5-0.1-0.6-0.2
					c-0.4-0.4-0.5-1-0.1-1.4c1.5-1.7,2.9-3.5,4.3-5.3c0.3-0.4,1-0.5,1.4-0.2c0.4,0.3,0.5,1,0.2,1.4c-1.4,1.8-2.9,3.6-4.3,5.3
					C963.3,69,963,69.1,962.7,69.1z M969.8,60.3c-0.2,0-0.4-0.1-0.6-0.2c-0.4-0.3-0.5-1-0.2-1.4c0.3-0.4,0.6-0.7,0.9-1.1
					c0.3-0.4,1-0.5,1.4-0.2c0.4,0.3,0.5,1,0.2,1.4c-0.3,0.4-0.6,0.8-0.9,1.1C970.4,60.1,970.1,60.3,969.8,60.3z"/>
			</g>
			<path id="Path-381" fill="#1E1E1E" d="M867.7,127.6l-2.9,2.9l0.9,3.7l0.6,11c1.5,0,2.8-1.1,3.1-2.6l2.2-11.6L867.7,127.6z"/>
		</g>
	</g>
</g>
</svg>
