<svg id="Layer_1" data-name="Layer 1" xmlns="http://www.w3.org/2000/svg" xmlns:xlink="http://www.w3.org/1999/xlink" height="auto" width="auto" viewBox="0 0 1052.86 251.19"><defs><linearGradient id="linear-gradient" x1="0.5" y1="-0.12" x2="0.5" y2="0.12" gradientTransform="matrix(-1009.89, 0, 0, 1009.89, 1073.09, 121.8)" gradientUnits="userSpaceOnUse"><stop offset="0" stop-color="#fff"/><stop offset="0.47" stop-color="#fcfcfd"/><stop offset="0.76" stop-color="#f4f4f5"/><stop offset="1" stop-color="#e6e7e8"/></linearGradient><mask id="mask" x="42.25" y="-17.3" width="1003.49" height="267.66" maskUnits="userSpaceOnUse"><g transform="translate(-20.75 -5.2)"><g id="mask-6"><path id="path-5" d="M63,188q37.08-53.53,74.14-53.54c37.06,0,58,28.33,85.2,12.43S411.58,19.58,508.22,54q150.3,53.54,318.86-66.12l239.41,58q-182.68,137.77-249.37,162c-148.36,54-279.89,31.26-338.06-9.3-77.24-53.86-213.81,39.76-260.56,21.94s-55.16-31.28-77.64-36.9q-22.49-5.62-67.09,24.26Z" fill="#fff"/></g></g></mask><mask id="mask-2" x="39.5" y="-16.23" width="1004.95" height="249.88" maskUnits="userSpaceOnUse"><g transform="translate(-20.75 -5.2)"><g id="mask-19"><path id="path-18" d="M60.25,180.82Q97.9,127.67,135,128.08C172,128.47,192.69,157,220,141.42S410.62,16.2,506.88,51.66Q656.6,106.8,826.43-11l238.78,60.58Q881.06,185.35,814.11,208.89C665.19,261.28,533.9,237.15,476.17,196,399.51,141.28,262,233.44,215.39,215.12s-54.82-31.88-77.24-37.74q-22.43-5.85-67.35,23.55Z" fill="#fff"/></g></g></mask><mask id="mask-3" x="42.25" y="-17.3" width="1003.49" height="251.83" maskUnits="userSpaceOnUse"><g transform="translate(-20.75 -5.2)"><g id="mask-25"><path id="path-24" d="M63,188q37.08-53.53,74.14-53.54c37.06,0,58,28.33,85.2,12.43S411.58,19.58,508.22,54q150.3,53.54,318.86-66.12l239.41,58q-182.68,137.77-249.37,162c-148.36,54-279.89,31.26-338.06-9.3-77.24-53.86-213.81,39.76-260.56,21.94s-55.16-31.28-77.64-36.9q-22.49-5.62-67.09,24.26Z" fill="#fff"/></g></g></mask><linearGradient id="linear-gradient-2" x1="169.32" y1="192.84" x2="216.21" y2="192.84" gradientUnits="userSpaceOnUse"><stop offset="0" stop-color="#ffffb4" stop-opacity="0.4"/><stop offset="0.36" stop-color="#c5e79b" stop-opacity="0.59"/><stop offset="1" stop-color="#47b464"/></linearGradient><mask id="mask-4" x="60.26" y="9.53" width="881.95" height="237.15" maskUnits="userSpaceOnUse"><g transform="translate(-20.75 -5.2)"><g id="mask-38"><path id="path-37" d="M81,190.55q32.58-47.06,65.16-47.05c32.57,0,51,24.9,74.88,10.92S387.37,42.58,472.31,72.83q132.09,47.06,280.23-58.1L963,65.72Q802.4,186.8,743.79,208.13C613.4,255.56,497.8,235.6,446.68,200c-67.89-47.34-187.92,34.94-229,19.28s-48.49-27.5-68.24-32.43q-19.77-4.94-59,21.33Z" fill="#fff"/></g></g></mask><linearGradient id="linear-gradient-3" x1="210.2" y1="220.44" x2="254.05" y2="220.44" xlink:href="#linear-gradient-2"/><linearGradient id="linear-gradient-4" x1="664.64" y1="159.06" x2="698.82" y2="118.32" gradientUnits="userSpaceOnUse"><stop offset="0" stop-color="#fff" stop-opacity="0"/><stop offset="0.15" stop-color="#fafafa" stop-opacity="0.12"/><stop offset="0.46" stop-color="#eceded" stop-opacity="0.42"/><stop offset="0.9" stop-color="#d6d8d9" stop-opacity="0.89"/><stop offset="1" stop-color="#d1d3d4"/></linearGradient><linearGradient id="linear-gradient-5" x1="702.86" y1="199.72" x2="716.2" y2="199.72" gradientUnits="userSpaceOnUse"><stop offset="0" stop-color="#fff"/><stop offset="0.57" stop-color="#e6e8e8"/><stop offset="1" stop-color="#d1d3d4"/></linearGradient><linearGradient id="linear-gradient-7" x1="696.51" y1="181.01" x2="702.63" y2="181.01" xlink:href="#linear-gradient-5"/><linearGradient id="linear-gradient-9" x1="668.03" y1="159.54" x2="674.16" y2="159.54" xlink:href="#linear-gradient-5"/><linearGradient id="linear-gradient-11" x1="176.24" y1="135.93" x2="186.5" y2="135.93" gradientUnits="userSpaceOnUse"><stop offset="0" stop-color="#d1d3d4"/><stop offset="1" stop-color="#d1d3d4"/></linearGradient><linearGradient id="linear-gradient-12" x1="93.69" y1="131.86" x2="173.87" y2="131.86" xlink:href="#linear-gradient-4"/><linearGradient id="linear-gradient-13" x1="358.49" y1="184.47" x2="407.3" y2="184.47" gradientUnits="userSpaceOnUse"><stop offset="0" stop-color="#edffec" stop-opacity="0"/><stop offset="0.22" stop-color="#ebebec" stop-opacity="0.77"/><stop offset="1" stop-color="#cdcfd0" stop-opacity="0.35"/></linearGradient><linearGradient id="linear-gradient-14" x1="382.9" y1="202.42" x2="382.9" y2="166.53" gradientUnits="userSpaceOnUse"><stop offset="0" stop-color="#edffec" stop-opacity="0"/><stop offset="0.54" stop-color="#ebebec" stop-opacity="0.77"/><stop offset="1" stop-color="#cdcfd0" stop-opacity="0.35"/></linearGradient><mask id="mask-11" x="344.51" y="159.03" width="38.58" height="38.41" maskUnits="userSpaceOnUse"><g transform="translate(-20.75 -5.2)"><g id="mask-100"><path id="path-99" d="M365.4,164.23Q380,174.72,395.34,169q-6.6,16.78,8.51,26.55-15.59,12-27.69,3.75T365.4,164.23Z" fill="#fff"/></g></g></mask><mask id="mask-12" x="615.9" y="48.73" width="38.58" height="38.41" maskUnits="userSpaceOnUse"><g transform="translate(-20.75 -5.2)"><g id="mask-100-2" data-name="mask-100"><path id="path-99-2" data-name="path-99" d="M636.79,53.92q14.63,10.5,29.94,4.77-6.6,16.77,8.51,26.55-15.59,12-27.69,3.75T636.79,53.92Z" fill="#fff"/></g></g></mask><linearGradient id="linear-gradient-15" x1="610.62" y1="74.16" x2="659.42" y2="74.16" gradientTransform="matrix(-1, 0, 0, 1, 1297, 0)" xlink:href="#linear-gradient-13"/><linearGradient id="linear-gradient-16" x1="635.02" y1="92.11" x2="635.02" y2="56.21" gradientTransform="matrix(-1, 0, 0, 1, 1297, 0)" xlink:href="#linear-gradient-13"/><linearGradient id="linear-gradient-17" x1="127.85" y1="191.7" x2="127.85" y2="176.19" gradientUnits="userSpaceOnUse"><stop offset="0" stop-color="#fff" stop-opacity="0"/><stop offset="0.12" stop-color="#f8f8f9" stop-opacity="0.15"/><stop offset="0.44" stop-color="#e8e9e9" stop-opacity="0.51"/><stop offset="0.7" stop-color="#dbddde" stop-opacity="0.78"/><stop offset="0.9" stop-color="#d4d6d7" stop-opacity="0.94"/><stop offset="1" stop-color="#d1d3d4"/></linearGradient><linearGradient id="linear-gradient-18" x1="964.9" y1="183.8" x2="898.12" y2="183.8" gradientUnits="userSpaceOnUse"><stop offset="0" stop-color="#fff" stop-opacity="0"/><stop offset="0.33" stop-color="#f2f2f2" stop-opacity="0.12"/><stop offset="1" stop-color="#d1d3d4" stop-opacity="0.4"/></linearGradient><linearGradient id="linear-gradient-19" x1="528.41" y1="43.69" x2="696.99" y2="43.69" xlink:href="#linear-gradient-4"/><linearGradient id="linear-gradient-20" x1="685.34" y1="21.92" x2="692.62" y2="9.31" xlink:href="#linear-gradient-4"/><linearGradient id="linear-gradient-22" x1="201.83" y1="118.69" x2="202.91" y2="87.72" xlink:href="#linear-gradient-4"/><linearGradient id="linear-gradient-23" x1="601.28" y1="42" x2="602.36" y2="11.03" gradientTransform="matrix(-1, 0, 0, 1, 1202.89, 0)" xlink:href="#linear-gradient-4"/><linearGradient id="linear-gradient-24" x1="407.58" y1="61.23" x2="407.58" y2="51.73" gradientTransform="translate(173.3 -281.79) rotate(47.4)" xlink:href="#linear-gradient-4"/><mask id="mask-14" x="50.1" y="-11.85" width="1005.19" height="249.54" maskUnits="userSpaceOnUse"><g transform="translate(-20.75 -5.2)"><g id="mask-22"><path id="path-21" d="M70.85,183.78q37.74-53.07,74.8-52.61c37.07.47,57.69,29.07,85,13.51s190.83-124.87,287-89.23q149.61,55.43,319.67-62.1l238.66,61Q891.64,189.84,824.65,213.25C675.63,265.36,544.4,241,486.74,199.7c-76.56-54.83-214.29,37.07-260.81,18.67s-54.77-32-77.18-37.88q-22.41-5.91-67.39,23.42Z" fill="#fff"/></g></g></mask><linearGradient id="linear-gradient-25" x1="120.09" y1="323.62" x2="120.37" y2="322.52" gradientTransform="matrix(7.72, 0, 0, -4.58, -453.82, 1604.64)" xlink:href="#linear-gradient-13"/><linearGradient id="linear-gradient-26" x1="454.76" y1="137.24" x2="476.37" y2="137.24" xlink:href="#linear-gradient-13"/><linearGradient id="linear-gradient-27" x1="454.76" y1="137.24" x2="476.37" y2="137.24" gradientUnits="userSpaceOnUse"><stop offset="0" stop-color="#fff"/><stop offset="1" stop-color="#fff"/></linearGradient><linearGradient id="linear-gradient-28" x1="0" y1="250.54" x2="143.99" y2="250.54" xlink:href="#linear-gradient-11"/><linearGradient id="linear-gradient-29" x1="165.5" y1="250.54" x2="350.32" y2="250.54" xlink:href="#linear-gradient-11"/><linearGradient id="linear-gradient-30" x1="468.42" y1="250.54" x2="700.28" y2="250.54" xlink:href="#linear-gradient-11"/><linearGradient id="linear-gradient-31" x1="922.81" y1="250.69" x2="1039.21" y2="250.69" xlink:href="#linear-gradient-11"/><linearGradient id="linear-gradient-32" x1="720.17" y1="250.2" x2="878.91" y2="250.2" xlink:href="#linear-gradient-11"/><mask id="mask-15" x="15.34" y="81.76" width="945.72" height="237.55" maskUnits="userSpaceOnUse"><g transform="translate(-20.75 -5.2)"><g id="mask-38-2" data-name="mask-38"><path id="path-37-2" data-name="path-37" d="M981.81,124.66q-46.42-39.82-80.1-31c-33.69,8.82-46,39.56-74.47,31.57S625,54.6,545.35,108.88q-123.84,84.41-305.49,15.78L36.09,234.35q198.81,81.72,265.18,87.91c147.66,13.75,261.78-38.19,305-88.89,57.38-67.32,203.77-14.73,242-42.05s42.68-41.56,61.78-52q19.1-10.45,66.74,6.09Z" fill="#fff"/></g></g></mask><linearGradient id="linear-gradient-33" x1="812.08" y1="196" x2="858.95" y2="196" gradientTransform="matrix(-0.97, 0.25, 0.25, 0.97, 1592.28, -204.77)" xlink:href="#linear-gradient-2"/><linearGradient id="linear-gradient-34" x1="633.53" y1="148.2" x2="651.63" y2="148.2" xlink:href="#linear-gradient-5"/><mask id="mask-21" x="-49.57" y="-42.64" width="1152.6" height="289.26" maskUnits="userSpaceOnUse"><g transform="translate(-20.75 -5.2)"><g id="mask-61"><path id="path-60" d="M-28.82,192.34q42.57-61.5,85.15-61.49c42.57,0,66.67,32.54,97.86,14.28S371.56-1,482.56,38.5Q655.19,100,848.8-37.44l275,66.64Q914,187.43,837.35,215.31c-170.39,62-321.47,35.9-388.29-10.69-88.72-61.86-245.58,45.67-299.27,25.21S86.43,193.89,60.6,187.44Q34.78,181-16.46,215.31Z" fill="#fff"/></g></g></mask><linearGradient id="linear-gradient-36" x1="653.91" y1="134.44" x2="666.45" y2="134.44" xlink:href="#linear-gradient-5"/></defs><title>eProcurement Solution for Businesses</title><path d="M868.94,5.2C799.65,54.39,717,74.72,640.39,74.72c-47.66,0-93-7.86-131.45-21.55-12.82-4.56-26.78-6.56-41.44-6.56-95.82,0-220.9,85.61-244.45,99.4a33.21,33.21,0,0,1-17.19,4.84c-19.93,0-39.06-17.27-68-17.27q-37.06,0-74.13,53.53l10.77,20Q112,182,133.91,182a31.63,31.63,0,0,1,7.66.88c22.49,5.62,30.9,19.09,77.65,36.91A40.88,40.88,0,0,0,233.76,222c21,0,50.94-10.29,83.85-20.57S386.4,180.9,419.35,180.9c22,0,42.79,4.6,60.43,16.91,33.78,23.55,92.27,41.08,164.46,41.08,52.12,0,111.39-9.15,173.59-31.78,44.46-16.18,134-54.87,255.78-146.71L868.94,5.2" transform="translate(-20.75 -5.2)" fill="url(#linear-gradient)"/><g id="Rectangle-76-Clipped"><g mask="url(#mask)"><path id="Rectangle-76" d="M444.07,82.18H629.4A9.85,9.85,0,0,1,639.26,92V245.7a9.86,9.86,0,0,1-9.86,9.86H444.07a9.87,9.87,0,0,1-9.86-9.86V92A9.86,9.86,0,0,1,444.07,82.18Z" transform="translate(-20.75 -5.2)" fill="#fff"/></g></g><path d="M429.3,94.72A63.76,63.76,0,0,1,422.38,91c-6-4-8.39-7.49-8.39-7.49-13.64-13-23.67-.12-23.67-.12-4.07,5.45-9.23,3.79-9.23,3.79-16.22-4.82-22.24,2.63-25.17,4.7S343.31,95,343.31,95s-10.25.93-10.57,4.86c0,0-5.19,2.94,10.26,2.77l1.26.14h83.66l1.09,0c3.55-1,3.59-2.56,3.7-3.73C432.93,96.65,429.3,94.72,429.3,94.72Z" transform="translate(-20.75 -5.2)" fill="#fff" opacity="0.59" style="isolation:isolate"/><g id="Rectangle-81-Copy-Clipped" opacity="0.3" style="isolation:isolate"><g mask="url(#mask-2)"><path id="Rectangle-81-Copy" d="M565,195.32l51.93-.35a2.93,2.93,0,0,1,2.95,2.91l.22,33.35a2.93,2.93,0,0,1-2.91,3l-51.92.35a2.93,2.93,0,0,1-2.95-2.91l-.23-33.35A2.93,2.93,0,0,1,565,195.32Z" transform="translate(-20.75 -5.2)" fill="#4a4f70" opacity="0.4" style="isolation:isolate"/></g></g><rect x="601.6" y="195.75" width="1.27" height="29.01" transform="translate(364.79 805.01) rotate(-89.39)" fill="#fff"/><rect x="601.56" y="199.56" width="1.27" height="29.01" transform="translate(360.93 808.72) rotate(-89.38)" fill="#fff"/><rect x="601.52" y="203.36" width="1.27" height="29.01" transform="translate(357.08 812.45) rotate(-89.38)" fill="#fff"/><path d="M582.73,214.48a7.87,7.87,0,1,1-7.78-7.94A7.86,7.86,0,0,1,582.73,214.48Z" transform="translate(-20.75 -5.2)" fill="#fff"/><g id="Rectangle-76-Copy-Clipped" opacity="0.4" style="isolation:isolate"><g mask="url(#mask-3)"><path id="Rectangle-76-Copy" d="M444.07,82.18H629.4A9.85,9.85,0,0,1,639.26,92v16.29h-205V92A9.86,9.86,0,0,1,444.07,82.18Z" transform="translate(-20.75 -5.2)" fill="#4a4f70"/></g></g><path d="M209.29,215.91a61.83,61.83,0,0,1,1.43,7.56q.38,3,.48,6.11h0l1.77-.05c0-.91-.07-1.82-.14-2.72a64.69,64.69,0,0,0-1.5-10.07l-2-.83" transform="translate(-20.75 -5.2)" fill="#fff"/><path d="M170.69,167c4,3.79-1.33,17.16-1.37,24.07v.14c0,2.45.72,4,2.8,4a8.93,8.93,0,0,0,3.49-.94,19.76,19.76,0,0,1,7.72-2.06c6.75,0,6.81,7.34,5.38,14v0c5.66,3,12.35,6.17,20.58,9.58-.48-1.91-1.06-3.8-1.72-5.67a11.09,11.09,0,0,0-4.13-2.26,21.27,21.27,0,0,0-6.42-.86h0c-1,0-2,0-3.09.13l-.14-1.77c1.12-.09,2.2-.14,3.23-.14a23,23,0,0,1,6.95.95,14.37,14.37,0,0,1,2.47,1,71.93,71.93,0,0,0-13-20.32c-2.54-1.71-7-2.82-13.21-3.28l.13-1.77a44.92,44.92,0,0,1,9.87,1.66,110.43,110.43,0,0,0-16-13.18l1-1.47a108.22,108.22,0,0,1,19.42,16.7,9.57,9.57,0,0,1,.83.65l-.13.15c.71.8,1.39,1.61,2.06,2.43,0-5.3.84-6.47,1.74-6.86l.72,1.62c-.06.06-.85.9-.66,7.44h-.07a71.12,71.12,0,0,1,8.38,14.09,26.56,26.56,0,0,1,1.87-5.42l1.62.72a18.93,18.93,0,0,0-2,7.2,4.77,4.77,0,0,0,.32,1.83l0,0a64.54,64.54,0,0,1,2.12,7.2q2.35,1,4.88,1.93c-.22-32-27.76-50.83-45.52-51.66" transform="translate(-20.75 -5.2)" fill="url(#linear-gradient-2)"/><path d="M197,205.34c-1,0-2.11,0-3.23.14l.14,1.77c1.09-.09,2.11-.13,3.09-.13h0a21.27,21.27,0,0,1,6.42.86,11.09,11.09,0,0,1,4.13,2.26c-.35-1-.73-2-1.13-2.93a14.37,14.37,0,0,0-2.47-1,23,23,0,0,0-6.95-.95m12.31-5.59a26.56,26.56,0,0,0-1.87,5.42c.63,1.44,1.22,2.9,1.75,4.37l0,0a4.77,4.77,0,0,1-.32-1.83,18.93,18.93,0,0,1,2-7.2l-1.62-.72" transform="translate(-20.75 -5.2)" fill="#5d98a2"/><path d="M175.17,169l-1,1.47a110.43,110.43,0,0,1,16,13.18,44.92,44.92,0,0,0-9.87-1.66l-.13,1.77c6.24.46,10.67,1.57,13.21,3.28a71.93,71.93,0,0,1,13,20.32c.4,1,.78,1.95,1.13,2.93.66,1.87,1.24,3.76,1.72,5.67l2,.83a64.54,64.54,0,0,0-2.12-7.2c-.53-1.47-1.12-2.93-1.75-4.37a71.12,71.12,0,0,0-8.38-14.09h.07c-.19-6.54.6-7.38.66-7.44l-.72-1.62c-.9.39-1.71,1.56-1.74,6.86-.67-.82-1.35-1.63-2.06-2.43l.13-.15a9.57,9.57,0,0,0-.83-.65A108.22,108.22,0,0,0,175.17,169" transform="translate(-20.75 -5.2)" fill="#5d98a2"/><g id="Group-56-Copy-Clipped"><g mask="url(#mask-4)"><g id="Group-56-Copy" opacity="0.67"><g id="Group"><path d="M254.05,191.6c-18.21.86-47.09,21.31-43.55,55.9,1.94,1,2.82,1.77,3.21,1.77s.33-.5.33-1.77c0-2.81,24.42-9.71,22.65-18.05-.07-.35-.15-.66-.23-.94h0c1.26,0,3.54-1.16,7.39-5.34,11.52-12.53,1.07-24.45,10.15-31.57m0,0h0" transform="translate(-20.75 -5.2)" fill="url(#linear-gradient-3)"/><path d="M244.91,207.72l-.14-1.77a44.13,44.13,0,0,0-9.39,1.56c4.41-4.41,8.11-8.62,13.93-12.6l-1.43.15A84.16,84.16,0,0,0,231,209.54a7.36,7.36,0,0,0-.8.62l.12.14c-.66.76-1.3,1.51-1.92,2.28,0-5.06-.83-6.17-1.7-6.55l-.75,1.6c.08.07.83.91.64,7.15h.06a68,68,0,0,0-8.41,14.4,23.89,23.89,0,0,0-1.91-5.84l-.58.26a19.34,19.34,0,0,1,2,6.85,62.34,62.34,0,0,0-4.43,21.36l1.78.06a60.47,60.47,0,0,1,3.86-19.63c2.86-2.08,7.14-2.89,12.78-2.42l0-.63c-5.31-.45-9.47.23-12.42,2a68.53,68.53,0,0,1,12.86-20.35C234.64,209.23,238.9,208.17,244.91,207.72Z" transform="translate(-20.75 -5.2)" fill="#0d6574"/></g></g></g></g><g id="Path-72-Copy-5-Clipped"><g mask="url(#mask-3)"><path id="Path-72-Copy-5" d="M212.7,133.94c7-4,6.38-6.45,10.74-7.08s5.53,2.43,12.2,1.2,6.55-16.25,25.81-16,18.53,19.3,24.4,19.3,5.6-4.5,14.41-4.5,12.72,13.2,31.43,13.2H188.43Q205.68,137.93,212.7,133.94Z" transform="translate(-20.75 -5.2)" fill="#fff" opacity="0.59" style="isolation:isolate"/></g></g><g id="Oval-35-Clipped" opacity="0.6"><g mask="url(#mask-3)"><path id="Oval-35" d="M696.47,169.75l-2.44-3.5a28.13,28.13,0,1,0-44.12-23.12h-4.26a32.36,32.36,0,1,1,50.82,26.62Z" transform="translate(-20.75 -5.2)" fill="url(#linear-gradient-4)"/></g></g><g id="Rectangle-78-Clipped"><g mask="url(#mask-3)"><g id="Rectangle-78"><g id="path-11-link"><path id="path-11" d="M675.54,131.87a12.31,12.31,0,0,1,15.66,4.67l62.11,100.21H710.05l-40-90.28A11.13,11.13,0,0,1,675.54,131.87Z" transform="translate(-20.75 -5.2)" fill="#3e4265"/><path id="path-11-2" data-name="path-11" d="M675.54,131.87a12.31,12.31,0,0,1,15.66,4.67l62.11,100.21H710.05l-40-90.28A11.13,11.13,0,0,1,675.54,131.87Z" transform="translate(-20.75 -5.2)" fill="#3e4265"/></g></g></g></g><g id="Combined-Shape-Copy-7-Clipped"><g mask="url(#mask-3)"><g id="Combined-Shape-Copy-7"><g id="path-13-link"><path id="path-13" d="M708.87,191.08a.67.67,0,0,1-.29.9l-4.75,2.42a.66.66,0,1,1-.61-1.18l4.76-2.43A.67.67,0,0,1,708.87,191.08Zm1.21,2.38a.65.65,0,0,1-.29.89L705,196.77a.67.67,0,0,1-.9-.29.66.66,0,0,1,.29-.89l4.76-2.42A.65.65,0,0,1,710.08,193.46Zm1.21,2.37a.65.65,0,0,1-.29.89l-4.75,2.43a.68.68,0,0,1-.9-.29.67.67,0,0,1,.29-.9l4.75-2.42A.66.66,0,0,1,711.29,195.83Zm1.21,2.37a.67.67,0,0,1-.29.9l-4.75,2.42a.67.67,0,1,1-.61-1.19l4.75-2.42A.67.67,0,0,1,712.5,198.2Zm1.21,2.37a.67.67,0,0,1-.29.9l-4.76,2.42a.66.66,0,0,1-.6-1.18l4.75-2.42A.67.67,0,0,1,713.71,200.57Zm1.21,2.38a.67.67,0,0,1-.29.89l-4.76,2.42a.66.66,0,0,1-.6-1.18l4.75-2.42A.67.67,0,0,1,714.92,203Zm1.21,2.37a.68.68,0,0,1-.3.9l-4.75,2.42a.67.67,0,0,1-.6-1.19l4.75-2.42A.67.67,0,0,1,716.13,205.32Z" transform="translate(-20.75 -5.2)" fill="url(#linear-gradient-5)"/><path id="path-13-2" data-name="path-13" d="M708.87,191.08a.67.67,0,0,1-.29.9l-4.75,2.42a.66.66,0,1,1-.61-1.18l4.76-2.43A.67.67,0,0,1,708.87,191.08Zm1.21,2.38a.65.65,0,0,1-.29.89L705,196.77a.67.67,0,0,1-.9-.29.66.66,0,0,1,.29-.89l4.76-2.42A.65.65,0,0,1,710.08,193.46Zm1.21,2.37a.65.65,0,0,1-.29.89l-4.75,2.43a.68.68,0,0,1-.9-.29.67.67,0,0,1,.29-.9l4.75-2.42A.66.66,0,0,1,711.29,195.83Zm1.21,2.37a.67.67,0,0,1-.29.9l-4.75,2.42a.67.67,0,1,1-.61-1.19l4.75-2.42A.67.67,0,0,1,712.5,198.2Zm1.21,2.37a.67.67,0,0,1-.29.9l-4.76,2.42a.66.66,0,0,1-.6-1.18l4.75-2.42A.67.67,0,0,1,713.71,200.57Zm1.21,2.38a.67.67,0,0,1-.29.89l-4.76,2.42a.66.66,0,0,1-.6-1.18l4.75-2.42A.67.67,0,0,1,714.92,203Zm1.21,2.37a.68.68,0,0,1-.3.9l-4.75,2.42a.67.67,0,0,1-.6-1.19l4.75-2.42A.67.67,0,0,1,716.13,205.32Z" transform="translate(-20.75 -5.2)" fill="url(#linear-gradient-5)"/></g></g></g></g><g id="Oval-32-Copy-2-Clipped"><g mask="url(#mask-3)"><g id="Oval-32-Copy-2"><g id="path-17-link"><path id="path-17" d="M699.57,177.94a3.07,3.07,0,1,1-3.06,3.07A3.06,3.06,0,0,1,699.57,177.94Z" transform="translate(-20.75 -5.2)" fill="url(#linear-gradient-7)"/><path id="path-17-2" data-name="path-17" d="M699.57,177.94a3.07,3.07,0,1,1-3.06,3.07A3.06,3.06,0,0,1,699.57,177.94Z" transform="translate(-20.75 -5.2)" fill="url(#linear-gradient-7)"/></g></g></g></g><g id="Oval-32-Copy-3-Clipped"><g mask="url(#mask-3)"><g id="Oval-32-Copy-3"><g id="path-19-link"><ellipse id="path-19" cx="671.1" cy="159.54" rx="3.06" ry="3.07" fill="url(#linear-gradient-9)"/><ellipse id="path-19-2" data-name="path-19" cx="671.1" cy="159.54" rx="3.06" ry="3.07" fill="url(#linear-gradient-9)"/></g></g></g></g><path id="Path-344-Copy" d="M98.51,246.65a13.54,13.54,0,0,1-3.81,2.65c-4.7,1.89-9,3-9,4.48,8.14.67,13.4.89,15.75.66s2.83-2.82,1.41-7.79Z" transform="translate(-20.75 -5.2)" fill="#1e1e1e"/><polygon id="Path-347" points="63.89 220.05 77.91 241.51 82.07 241.51 72.98 212.03 63.89 209.38 63.89 220.05" fill="#2c345b"/><path id="Path-345-Copy" d="M96.06,206.08l-2.72.29c-1.8.4-3.13.3-4-.29s-2,0-3.32,1.68h-.87c1-3.28,2.12-4.91,3.28-4.89,1.75,0,7.08.37,7.93,0Q97.23,202.45,96.06,206.08Z" transform="translate(-20.75 -5.2)" fill="#eabb92"/><path id="Path-346" d="M111.9,200.24a49.89,49.89,0,0,1-8.69,4.45,25.14,25.14,0,0,1-9.42.93l-2-4.43L111,192.81Z" transform="translate(-20.75 -5.2)" fill="#3e4265"/><path id="Path-345" d="M90.22,204.67,87.5,205c-1.81.41-3.14.31-4-.29s-2,0-3.32,1.68h-.87c1-3.27,2.12-4.9,3.28-4.89,1.75,0,7.08.38,7.93,0Q91.39,201,90.22,204.67Z" transform="translate(-20.75 -5.2)" fill="#ffd7b3"/><path id="Path-344" d="M85.3,246.93q-11.82,4-11.82,7.07c.44.51.2,1.4,10.75-.19,2.46-.37,1.08,1.07,5.51.88,2.45-.11,2.92-2.91,1.45-8Z" transform="translate(-20.75 -5.2)" fill="#1e1e1e"/><path id="Path-343" d="M114.39,208.13c-23.13-1.73-40.54-1.87-42.37,1.11S74.54,224.82,85.13,247l6.13-.4Q87.82,223.13,87.17,218c7.74,6,18.87,11.45,31.88,8.47q5.31-1.55,6.43-17.25Z" transform="translate(-20.75 -5.2)" fill="#3e4265"/><polyline id="Path-348" points="67.88 225.69 66.5 215.13 72.89 218.23" fill="none" stroke="#fff" stroke-width="0.92"/><path id="Rectangle-73" d="M62.48,184.92h0a.83.83,0,0,1,1.12.36l11.24,22.06a.84.84,0,0,1-.37,1.12h0a.83.83,0,0,1-1.12-.36L62.11,186A.83.83,0,0,1,62.48,184.92Z" transform="translate(-20.75 -5.2)" fill="#2c345b"/><path id="Rectangle-73-Copy" d="M100,205.33h0a.84.84,0,0,1-.76.91l-24.66,2.15a.84.84,0,0,1-.9-.75h0a.84.84,0,0,1,.76-.91l24.66-2.16A.83.83,0,0,1,100,205.33Z" transform="translate(-20.75 -5.2)" fill="#3e4265"/><g id="Group-23"><polygon id="Path-157" points="86.97 157.6 88.35 164.7 94.97 162.55 91.75 154.32 86.97 157.6" fill="#ffd7b3"/><path id="Path-156" d="M99.43,153.3c-.4,4.85-.2,7.94.6,9.25.2.34.93.15,1.29.48.58.53.37,1.83,1.53,2.45,4,2.18,9.46-.84,11.29-2.72.77-.78-1.64-9.23-6.41-11.18C105.89,150.83,104.85,154.2,99.43,153.3Z" transform="translate(-20.75 -5.2)" fill="#ffd7b3"/><path id="Path-154" d="M116.19,161.38c-3.39,3.18-2.78.56-5.44-4.1-.5-2.51-3.44-2.55-3,.53.15,1.12-3.32-3.59-6.1-2.09-1,.55-2.37,1-2.89.66-1.31-.57-5.3-2.67-2.43-4.79,1.78-1.31,2.19-1.59,2.19-1.59,3.53-2.34,6.75-5.68,10.93-6,4.44.4,5.78,11.44,6.3,15.35Z" transform="translate(-20.75 -5.2)" fill="#1e1e1e"/></g><path id="Path-337" d="M105.86,175q-.09-3,3.33-6.24a13.77,13.77,0,0,1,7.68-3.86,29.69,29.69,0,0,1,7.25,13.46q2.13,7.84,1.51,28c0,1,2,0,2,2.89-1.43,2-4.43,2.75-6.24,2.92q-1.8.16-13-1.12-4.07-3.48.56-5-.92-18.91-1.82-29C106.28,177.12,105.86,176.42,105.86,175Z" transform="translate(-20.75 -5.2)" fill="#3e4265"/><path id="Path-341" d="M109,205.78q9.67-13.71,10-24.91-4,2.3-10.89,14.84Z" transform="translate(-20.75 -5.2)" fill="#0b4651" opacity="0.3" style="isolation:isolate"/><path id="Path-339" d="M111,172.92l-5.53,17.17a11.47,11.47,0,0,1-6.71,7.15l-10,3.92,1,4.08L98.69,204A21.25,21.25,0,0,0,114,193.82c1-1.65,1.57-2.67,1.76-3.07q.63-1.33,3.19-9.66Z" transform="translate(-20.75 -5.2)" fill="#3e4265"/><path id="Path-340" d="M108.83,201.09s.2-.29.53-.8.84-1.22,1.43-2.09l.91-1.41c.32-.5.69-1,1-1.57l1-1.7c.38-.57.67-1.2,1-1.8a19.66,19.66,0,0,0,1-1.81c.29-.62.61-1.21.87-1.8s.49-1.17.71-1.72.39-1.08.57-1.57.35-.93.46-1.34.19-.77.27-1.06c.16-.59.26-.93.26-.93s0,.35-.1,1c0,.3-.08.67-.13,1.1s-.18.89-.29,1.41a13.46,13.46,0,0,1-.44,1.64l-.63,1.8c-.25.61-.53,1.23-.82,1.86a20.64,20.64,0,0,1-1,1.87c-.35.6-.66,1.24-1,1.81l-1.12,1.69c-.34.56-.77,1-1.12,1.53l-1,1.34c-.68.8-1.28,1.43-1.68,1.89Z" transform="translate(-20.75 -5.2)" fill="#5a6084"/><path id="Path-342" d="M107.64,183.34a14.58,14.58,0,0,1,.32-1.63,22.78,22.78,0,0,1,1.17-3.46,11.84,11.84,0,0,1,1.93-3.15,3.73,3.73,0,0,1,.53-.47,2,2,0,0,1,.48-.27,1,1,0,0,1,.47-.06,1.06,1.06,0,0,0-.39.21,1.7,1.7,0,0,0-.34.36,4,4,0,0,0-.37.53,30.12,30.12,0,0,0-1.54,3.19c-.53,1.19-1.05,2.39-1.49,3.28S107.64,183.34,107.64,183.34Z" transform="translate(-20.75 -5.2)" fill="#5a6084"/><path id="Path-161" d="M112.6,205.62c5-3.12,5.35-17.15,13.22-17.15,7.09,0,8.53,20,5.71,27.18-2.75,5.79-3.85,13.25-18,13.25A43.3,43.3,0,0,1,89.33,222q.32-8.52,5.06-10.43C99.14,209.68,107.56,208.74,112.6,205.62Z" transform="translate(-20.75 -5.2)" fill="#ef5350"/><path id="Path-163" d="M99.1,222.72a1.07,1.07,0,0,1,.53,1.39L86.38,255.69a.55.55,0,0,1-.72.3h0a.57.57,0,0,1-.31-.74l12.45-32a1,1,0,0,1,1.24-.54Z" transform="translate(-20.75 -5.2)" fill="#8e0c2b" opacity="0.9"/><path id="Path-163-Copy-6" d="M124.79,222.72a1.08,1.08,0,0,0-.53,1.39l13.25,31.58a.56.56,0,0,0,.73.3h0a.58.58,0,0,0,.31-.74l-12.45-32a1,1,0,0,0-1.24-.54Z" transform="translate(-20.75 -5.2)" fill="#8e0c2b" opacity="0.9"/><path id="Path-161-Copy-2" d="M89.33,222q.32-8.52,5.06-10.43c4.75-1.9,13.17-2.84,18.21-6s5.35-17.15,13.22-17.15" transform="translate(-20.75 -5.2)" fill="none" stroke="#0b4651" stroke-linecap="round" stroke-linejoin="round" stroke-width="0.88"/><g id="Oval-29"><path d="M181.37,141.06a5.14,5.14,0,1,1,5.13-5.13A5.13,5.13,0,0,1,181.37,141.06Zm0-8.27a3.14,3.14,0,1,0,3.13,3.14A3.14,3.14,0,0,0,181.37,132.79Z" transform="translate(-20.75 -5.2)" fill="url(#linear-gradient-11)"/></g><g id="Path-350"><path d="M94.69,142.5a1,1,0,0,1-.78-.38,1,1,0,0,1,.16-1.41c26.45-21.11,53.12-25.09,79.26-11.8a1,1,0,0,1,.44,1.34,1,1,0,0,1-1.35.44c-25.38-12.9-51.32-9-77.1,11.59A1.07,1.07,0,0,1,94.69,142.5Z" transform="translate(-20.75 -5.2)" fill="url(#linear-gradient-12)"/></g><path d="M388.54,253.4q-7.12-45-41.16-42.52c-34,2.43,21.85,13.48,16.4,18.9s-11.58,9.29-8.59,14.67q3,5.38,33.35,9" transform="translate(-20.75 -5.2)" fill="#b71c1c"/><path d="M377.79,224q-4.85,6.17,1.5,28l7,.61,1.4-3.81q-3.15-15.58-9.92-24.78" transform="translate(-20.75 -5.2)" fill="#83292c"/><path d="M382,249.3a.52.52,0,0,1-.51-.43c-3-17.18-13.46-27.79-31.21-31.56a.51.51,0,0,1-.41-.61.52.52,0,0,1,.62-.41c18.21,3.86,29,14.76,32,32.4a.51.51,0,0,1-.43.6Z" transform="translate(-20.75 -5.2)" fill="#fff"/><path d="M379,238H367.8a.52.52,0,0,1,0-1h10.64V228.5a.52.52,0,0,1,1,0v8.94A.52.52,0,0,1,379,238Z" transform="translate(-20.75 -5.2)" fill="#fff"/><path d="M364.8,222.61a.52.52,0,0,1-.43-.23l-4.24-6.29a.53.53,0,0,1,.14-.72.52.52,0,0,1,.73.14l4.24,6.28a.53.53,0,0,1-.14.73A.55.55,0,0,1,364.8,222.61Z" transform="translate(-20.75 -5.2)" fill="#fff"/><path d="M388.59,253.23q-7.92-.16-7.71-1.51c2.83-18.2,19.6-30,33.82-30,22.91,0-12.41,10.24-7,15.66s11.19,3.27,8.2,8.65Q413,251.43,388.59,253.23Z" transform="translate(-20.75 -5.2)" fill="#ef5350"/><path d="M383.76,251.15a.53.53,0,0,1-.44-.81c8.53-12.88,16.24-19.83,22.93-20.64a.52.52,0,0,1,.12,1c-6.36.77-13.82,7.56-22.18,20.17A.52.52,0,0,1,383.76,251.15Z" transform="translate(-20.75 -5.2)" fill="#fff"/><path d="M409.9,245.94a.5.5,0,0,1-.34-.13c-3.32-2.8-9.82-3.75-19.33-2.81a.53.53,0,0,1-.57-.47.52.52,0,0,1,.47-.57c9.79-1,16.56.06,20.1,3a.53.53,0,0,1,.07.74A.56.56,0,0,1,409.9,245.94Z" transform="translate(-20.75 -5.2)" fill="#fff"/><g id="Group-68-Copy"><g id="Rectangle-75"><g id="path-39-link"><path id="path-39" d="M358.49,176.87Q376.37,179,387,166.53q2.36,17.86,20.31,19.1-7.83,18-22.4,16.7T358.49,176.87Z" transform="translate(-20.75 -5.2)" fill="url(#linear-gradient-13)"/></g><g id="path-39-link-2" data-name="path-39-link"><path id="path-39-2" data-name="path-39" d="M358.49,176.87Q376.37,179,387,166.53q2.36,17.86,20.31,19.1-7.83,18-22.4,16.7T358.49,176.87Z" transform="translate(-20.75 -5.2)" fill="url(#linear-gradient-14)"/></g></g><g id="Path-360-Clipped" opacity="0.3" style="isolation:isolate"><g mask="url(#mask-11)"><g id="Path-360"><g id="path-44-link"><path id="path-44" d="M397.6,199c-3-.54-6.5-2.38-7.54-4.56a14.69,14.69,0,0,1-11.45,6.23S388.46,205.83,397.6,199Z" transform="translate(-20.75 -5.2)" fill="#a7a9ac"/></g></g></g></g><g id="Path-360-Clipped-2" data-name="Path-360-Clipped" opacity="0.3" style="isolation:isolate"><g mask="url(#mask-12)"><g id="Path-360-2" data-name="Path-360"><g id="path-44-link-2" data-name="path-44-link"><path id="path-44-2" data-name="path-44" d="M669,88.65c-3-.54-6.5-2.39-7.55-4.57A14.63,14.63,0,0,1,650,90.32S659.85,95.53,669,88.65Z" transform="translate(-20.75 -5.2)" fill="#a7a9ac"/></g></g></g></g></g><g id="Group-68-Copy-2" data-name="Group-68-Copy" opacity="0.4"><g id="Rectangle-75-2" data-name="Rectangle-75"><g id="path-39-link-3" data-name="path-39-link"><path id="path-39-5" data-name="path-39" d="M660,92q-14.58,1.31-22.4-16.71,18-1.23,20.31-19.1,10.62,12.43,28.5,10.35Q674.56,90.7,660,92Z" transform="translate(-20.75 -5.2)" fill="url(#linear-gradient-15)"/></g><g id="path-39-link-4" data-name="path-39-link"><path id="path-39-6" data-name="path-39" d="M660,92q-14.58,1.31-22.4-16.71,18-1.23,20.31-19.1,10.62,12.43,28.5,10.35Q674.56,90.7,660,92Z" transform="translate(-20.75 -5.2)" fill="url(#linear-gradient-16)"/></g></g></g><polygon id="Triangle" points="136.73 176.19 127.81 191.7 118.98 178.38 136.73 176.19" fill="url(#linear-gradient-17)"/><path d="M943,149.4c-7.87,0-15.89,2.46-20.37,6.64-16.83,15.69-38.15,56.13-13,61.61a24.54,24.54,0,0,0,5.19.55c23.91,0,50.06-33.22,50.06-52.07,0-11.84-10.77-16.73-21.86-16.73" transform="translate(-20.75 -5.2)" fill="url(#linear-gradient-18)"/><g id="Path-372"><path d="M604.22,57.41q-35.07,0-75.81-11.2l.53-1.93C596.69,62.93,652.86,58.11,695.9,30L697,31.65C670.75,48.81,639.7,57.41,604.22,57.41Z" transform="translate(-20.75 -5.2)" fill="url(#linear-gradient-19)"/></g><g id="Rectangle-83"><g id="path-48-link"><rect id="path-48-2" data-name="path-48" x="683.65" y="10.28" width="10.65" height="10.67" fill="url(#linear-gradient-20)"/></g><g id="path-48-link-2" data-name="path-48-link"><rect id="path-48-3" data-name="path-48" x="683.65" y="10.28" width="10.65" height="10.67" fill="url(#linear-gradient-20)"/></g></g><polygon id="Rectangle-83-Copy" points="645.99 200.52 658.27 210.34 648.43 222.64 645.99 200.52" fill="#fff"/><path d="M158.4,117.17h95.86l1.24,0c4.07-1.09,4.12-2.93,4.24-4.27.26-2.79-3.91-5-3.91-5a74.51,74.51,0,0,1-7.93-4.22c-6.84-4.56-9.6-8.59-9.6-8.59C222.67,80.22,211.17,95,211.17,95c-4.66,6.24-10.57,4.34-10.57,4.34-18.59-5.52-25.48,3-28.83,5.38s-14.45,3.55-14.45,3.55-11.75,1.06-12.11,5.56c0,0-6,3.37,11.75,3.17Z" transform="translate(-20.75 -5.2)" fill="url(#linear-gradient-22)"/><path d="M645,40.48H549.19l-1.25,0c-4.07-1.08-4.12-2.93-4.24-4.27-.25-2.78,3.91-5,3.91-5A74.51,74.51,0,0,0,555.54,27c6.84-4.56,9.6-8.58,9.6-8.59,15.64-14.9,27.13-.13,27.13-.13,4.66,6.24,10.57,4.34,10.57,4.34,18.59-5.52,25.49,3,28.83,5.38s14.45,3.55,14.45,3.55,11.75,1.07,12.12,5.57c0,0,5.94,3.36-11.76,3.17Z" transform="translate(-20.75 -5.2)" fill="url(#linear-gradient-23)"/><g id="Home"><g id="Home---Approach"><g id="Led-by-Proven-Managers_3x" data-name="Led-by-Proven-Managers@3x"><g id="Group-51"><g id="Group-49"><path id="Path-301" d="M754,195.83l5.87,29.54q-5.8.8-7.95,1.94a5.91,5.91,0,0,0-2.72,2.38H764.6l-1.91-26.2Z" transform="translate(-20.75 -5.2)" fill="#ffd7b3"/><path id="Path-301-Copy" d="M759.9,225.37c-1.82.25-3.37.53-4.65.83a13.91,13.91,0,0,0-3.3,1.11,5.91,5.91,0,0,0-2.72,2.38H764.6l-.4-4.32Z" transform="translate(-20.75 -5.2)" fill="#1e1e1e"/><path id="Path-302" d="M773.86,209.14l12.51,35.29q-.45,5.38-1.71,7.49c-2.3,1-3.78,2.12-4.44,3.28h7.48l4-10.1-7-36Z" transform="translate(-20.75 -5.2)" fill="#ffd7b3"/><path id="Path-302-Copy" d="M786.37,244.43c-.15,3.28-.65,5.61-1.49,7a9.43,9.43,0,0,0-4.66,3.76h7.48l5-10.77-1.87-4.16a9.73,9.73,0,0,1-1.85,3.09A5.71,5.71,0,0,1,786.37,244.43Z" transform="translate(-20.75 -5.2)" fill="#1e1e1e"/><path id="Path-300" d="M774.05,163.63a39.7,39.7,0,0,0-20.86,18.05q-2.72,4.95,1.17,19.44,9.51,4.5,14.94,6.88T785,209.84V189.9c0-8.63,3.47-8.52,3.47-23.21Z" transform="translate(-20.75 -5.2)" fill="#3e4265"/><polygon id="Path-297" points="772.58 112.78 777.2 79.83 773.92 82.61 764.38 111.44 772.58 112.78" fill="#212844"/><path id="Rectangle-53" d="M736.56,18.1l69.87,42a4.4,4.4,0,0,1,1.51,6l-27.8,46.25a4.39,4.39,0,0,1-6,1.51l-69.88-42a4.4,4.4,0,0,1-1.51-6l27.8-46.25A4.4,4.4,0,0,1,736.56,18.1Z" transform="translate(-20.75 -5.2)" fill="#b71c1c"/><path id="Path-299" d="M743.63,95.92l25.77,10.41a4.41,4.41,0,0,0,5.31-1.63,4.64,4.64,0,0,0,1-2.38c0-1.73.86-6.85,6.78-6.4,2,.16,8.58-4.48,12-8.52.91-1.08-.49-4,.5-4.84.11-.09.45,2.28,1.29,1.54,1.55-1.38,3.52-6.12,3.85-5.09.12.37-1.16,2.66-3.85,6.89l-13.3,21.63-6.65,7.76Z" transform="translate(-20.75 -5.2)" fill="#0b4651" opacity="0.2" style="isolation:isolate"/><path id="Path-295" d="M757.2,105.08l-1.82-4.38-.25-.84a1.55,1.55,0,0,0-1.48-1.1l.28,2.82-4.43-2.5a2.88,2.88,0,0,0,1,3.49,40.39,40.39,0,0,1,3.91,4.13Z" transform="translate(-20.75 -5.2)" fill="#ffd7b3"/><path id="Path-173" d="M781.14,102.84q-8.13,5-8.13,11.75c0,3.25,3.51,6.19,5.29,9,1.08,1.69.67,4.07.91,4.24.56.39,4.78,3,6.78,0q.62-.94-3.17-12.19Z" transform="translate(-20.75 -5.2)" fill="#1e1e1e"/><polygon id="Path-292" points="757.89 113.77 760.18 122.39 768.45 123.85 760.57 111.39 757.89 113.77" fill="#ffd7b3"/><path id="Path-291" d="M783.86,125.55l-14.62.39a2.2,2.2,0,0,1-2-1.22L757.41,105a1.79,1.79,0,0,0-2.4-.81h0a2.15,2.15,0,0,0-1.1,2.53l6.25,21.1a11.33,11.33,0,0,0,8.32,7.81l6.76,1.55q-1.86,6.18-1.8,8.78a40.8,40.8,0,0,0,.65,6.09,29.12,29.12,0,0,1-1.49,12.32q12.55,4.13,15.41,2.68t4.92-30.19l-2.62-11.35Z" transform="translate(-20.75 -5.2)" fill="#2c345b"/><path id="Path-294" d="M773.47,144.89c3.42-2.57,5.51-4.19,6.29-4.86,1-.91,1.38-1.06.89-1.18a49.89,49.89,0,0,1-5.42-1.63c-.58,1.87-.89,3.17-1.13,4.14A32.5,32.5,0,0,0,773.47,144.89Z" transform="translate(-20.75 -5.2)" fill="#0b4651" opacity="0.2" style="isolation:isolate"/><g id="Group-24"><path id="Path-171" d="M778.06,106.71q-5,12.48.2,14.58c5.2,2.1,10.08-2,12-6.55Q792.14,110.21,778.06,106.71Z" transform="translate(-20.75 -5.2)" fill="#0b4651" opacity="0.2" style="isolation:isolate"/><path id="Path-171-Copy" d="M777.73,105.92q-5.76,12-.57,14.09c5.2,2.1,9.39-2.24,11.29-6.78Q790.34,108.7,777.73,105.92Z" transform="translate(-20.75 -5.2)" fill="#ffd7b3"/></g><path id="Path-172" d="M777.48,106.41q2,4,6,4c1.53,1.77-2.26,5.09-2.89,8.13-.72,3.51,3.25,5.87,3.48,7.09,9.31-.12,8.67,13.6,8.79,15.88.68.86,10.78-5.88,2.29-19.11-1-1.59,3.07-3.48,2.73-7.48-.36-4.35-3.52-4.1-4.08-7.31-.79-4.49-2.48-9.53-9.58-9.53Q775.18,98,777.48,106.41Z" transform="translate(-20.75 -5.2)" fill="#1e1e1e"/><path id="Path-293" d="M775.23,137.22c4.54,1.3,7.43,2,8.5,2.34S781.93,139.18,775.23,137.22Z" transform="translate(-20.75 -5.2)" fill="none" stroke="#0b4651" stroke-linecap="round" stroke-linejoin="round" stroke-width="0.82"/><path id="Path-298" d="M795,88a3.08,3.08,0,0,0,.5-1.57c-.29-2.58-.94-4-.5-4.07s1.13.65,1.81,2.26l3.52-5.71a11.27,11.27,0,0,1-.33,3.45A32.49,32.49,0,0,1,797.23,88Q796.35,88.91,795,88Z" transform="translate(-20.75 -5.2)" fill="#ffd7b3"/></g></g></g></g></g><path d="M752.42,63.63l-3.58-2a1,1,0,0,0-1.39.4l-6,10.72a1,1,0,0,0,.39,1.39l3.58,2a1,1,0,0,0,1.39-.39l6-10.73A1,1,0,0,0,752.42,63.63Z" transform="translate(-20.75 -5.2)" fill="#ef5350"/><path d="M742.27,65l-3.57-2a1,1,0,0,0-1.4.4l-3,5.36a1,1,0,0,0,.39,1.39l3.58,2a1,1,0,0,0,1.39-.4l3-5.36A1,1,0,0,0,742.27,65Z" transform="translate(-20.75 -5.2)" fill="#ef5350"/><path d="M762.56,62.26l-3.57-2a1,1,0,0,0-1.39.4l-9,16.08a1,1,0,0,0,.39,1.4l3.58,2a1,1,0,0,0,1.39-.39l9-16.09A1,1,0,0,0,762.56,62.26Z" transform="translate(-20.75 -5.2)" fill="#ef5350"/><path d="M773.63,60.27l-3.57-2a1,1,0,0,0-1.4.4L756.25,80.74a1,1,0,0,0,.39,1.39l3.58,2a1,1,0,0,0,1.39-.4L774,61.66A1,1,0,0,0,773.63,60.27Z" transform="translate(-20.75 -5.2)" fill="#ef5350"/><rect x="470.58" y="88.6" width="136.88" height="2.57" fill="#f4f4f4"/><rect x="441.95" y="87.32" width="5.14" height="5.14" fill="#f4f4f4"/><polygon points="424.36 87.32 425.84 89.88 427.32 92.45 424.36 92.45 421.39 92.45 422.87 89.88 424.36 87.32" fill="#f4f4f4"/><path d="M457.52,95.08A2.57,2.57,0,1,1,455,92.51,2.57,2.57,0,0,1,457.52,95.08Z" transform="translate(-20.75 -5.2)" fill="#f4f4f4"/><path d="M996.64,225.17c.43,1.5,5,17.73,4.52,20s.06,6.44-3.26,10.35H987.35c-3.33-3.91-2.73-8-3.27-10.35s4-18.22,4.52-19.94Z" transform="translate(-20.75 -5.2)" fill="#ef5350"/><path d="M997.32,247.63c-.23-.87-.23-1.41-1.14-1.77-2-.82-5-1-4.64-4,.36-2.35,1.18-4.3-.87-6.16a9.64,9.64,0,0,1-3.12-6.41,1.21,1.21,0,0,1-.08.15c-1.46,5.37-3.71,14.12-3.34,15.7.53,2.32-.06,6.4,3.24,10.29h10.48a11.63,11.63,0,0,0,2.44-4.74A4.45,4.45,0,0,1,997.32,247.63Z" transform="translate(-20.75 -5.2)" fill="#b71c1c"/><path d="M987.17,220.83c-1.68-1.08-2.16-5.52-4.29-7.88s-3.11-5.64-4-8.63c-1.8-5.76,1.44-11.27-.72-17.26-1.68-4.68-5.16-13.67,1.32-16.66,2.51-1.2,2.27.72,2.39,3.11.12,2.88-.59,6.12.24,8.87.61,1.92,2.16,2.76,3.24,4.32a9.22,9.22,0,0,1,1.56,5c.12,1.44-.36,3.12.24,4.56.72,2,3,3.47,3.95,5.51,1.56,3.24,3.12,7.19.72,10.19-1.67,2.16-3.83,4.07-4.67,6.95,0,.24-.12.48-.12.72Z" transform="translate(-20.75 -5.2)" fill="#ef5350"/><path d="M994.45,225.35c.17-1.8-2.53-8.08-3.15-17.47-.24-3.73,2.12-9.17,1.65-13.15-.52-4.53,1.56-5.4,4.08-8.63,1.92-2.4,1.92-6.36,1.32-9.23-.48-2.16-1.56-4-.72-6.24.72-1.79,2.28-2.63,2.64-4.55.36-2.28-.25-4.55.47-6.83a11.4,11.4,0,0,1,4.32-5.51c2.4-1.44,2.76,0,3.35,2.39a27.68,27.68,0,0,1,.37,12.11c-.73,3.47-2,7.19-1,10.79,1.91,6,9.35,12.58,5.63,19.29-.84,1.68-2.28,2.76-3.24,4.32s-1.8,3.24-2.87,4.79c-1.8,2.4-2.28,5.88-4.44,8-3.11,3.24-6.17,6.2-8.45,10.64Z" transform="translate(-20.75 -5.2)" fill="#b71c1c"/><path d="M981.1,196.29c0,2.52-.48,7.49,2.91,8.21a.52.52,0,0,0,.49-.13c.68-.82,0-2-.59-2.73a.48.48,0,0,0-.48-.13l-.14,0a.51.51,0,0,0-.35.35,5.52,5.52,0,0,0,.72,4,15.83,15.83,0,0,0,2.06,2.56c1.2,1.4,1.26,2.9,1.59,4.61a5.5,5.5,0,0,0,.63,1.23c.6,1.1.41,2.53.38,3.73s-.33,2.3-.44,3.46c-.15,1.65,0,3.14,1.42,4.11.54.36,1-.51.5-.86-2-1.33-.52-5.49-.46-7.57a6.88,6.88,0,0,0-.54-3.37c-.59-1.25-.43-2.64-1-3.86-1-2.28-3.63-3.8-3.94-6.37,0-.15,0-.3,0-.46.13-.6-.19-.8-1-.6a5.71,5.71,0,0,1-.72-2.61,29.16,29.16,0,0,1,0-3.62A.5.5,0,0,0,981.1,196.29Z" transform="translate(-20.75 -5.2)" fill="#9d2229"/><path d="M1007.63,185a10.86,10.86,0,0,1-2.3,4.72c-1,1.09-2.38.89-3.34,1.74-1.66,1.46,0,4.48.52,6.19.64,2.2,1.68,4.71.08,6.74a16.43,16.43,0,0,1-2.74,2.31,5.49,5.49,0,0,0-2.23,4.95c-1.87,1.46-2.82,3.87-3.84,6s-2.23,5-1.25,7.34c.24.58,1.21.33,1-.27-.94-2.27.37-5,1.37-7a16.07,16.07,0,0,1,3-4.86.48.48,0,0,0,.51.16,1.07,1.07,0,0,0,.77-1.51.49.49,0,0,0-.53-.36c.1-3.08,3.22-4.1,5-6.42,1.43-1.83.66-4.43.08-6.42-.43-1.48-.85-3-1.31-4.44-.56-1.74,2.05-2.13,3-2.83,1.79-1.28,2.64-3.65,3.16-5.7A.5.5,0,0,0,1007.63,185Z" transform="translate(-20.75 -5.2)" fill="#ef5350"/><path d="M990.79,169.9c-.52,3.06.3,5.46.68,8.44.11.89.13,1.77.29,2.66.25,1.37,1.52,2.2,1.87,3.48.59,2.11-.54,4.69-.65,6.85-.1,1.93,1.33,3,2.63,4.2,2.91,2.68-1.14,4.9-2.64,6.92s-1.47,4.4-1.42,6.78c.08,3.27.55,6.13-.59,9.31-.1.29-.32,1.34-1.39,6.74-.13.63.62,1,.81.41,1-3.14.27-3,1.26-6.14a19,19,0,0,0,1.06-7.82c-.24-3.46-.64-6.95,1.94-9.64,1.38-1.43,3-2.64,3.17-4.74.15-1.51-1.89-2.87-2.8-3.74-1.9-1.79-.66-4.81-.37-7a8.8,8.8,0,0,0,0-2.35c-.19-1.37-1.47-2.16-1.88-3.49s-.21-2.53-.48-3.76a16.44,16.44,0,0,1-.48-6.8C991.86,169.54,990.9,169.27,990.79,169.9Z" transform="translate(-20.75 -5.2)" fill="#9d2229"/><path d="M991.56,225.31a33.73,33.73,0,0,0,2.18-7.08,21.25,21.25,0,0,1,4.39-8.53,28.51,28.51,0,0,0,4-6.14c1.06-2.45.9-5.3.78-7.9-.21-4.76.33-9.52.46-14.28a84.83,84.83,0,0,1,2.3-18.31c.16-.63-.81-.9-1-.27a83.46,83.46,0,0,0-2.28,16.58c-.17,4.21-.52,8.46-.63,12.66-.09,3.29.45,6.5-.15,9.78-.54,2.94-3,5.5-4.74,7.75a21.69,21.69,0,0,0-3.51,6c-1.1,3-1.34,6.26-2.76,9.2C990.41,225.38,991.28,225.89,991.56,225.31Z" transform="translate(-20.75 -5.2)" fill="#fff"/><rect x="966.01" y="219.27" width="11.01" height="1.42" fill="#9d2229"/><g id="Group-66"><path id="Path-358" d="M280.31,248c-4,1.68-9.6,2.74-10.5,4.45-.57,1.09.23,1.33.32,1.54l14.84.52V248Z" transform="translate(-20.75 -5.2)" fill="#1e1e1e"/><path id="Path-358-Copy" d="M325.27,246.64c.73,4.22,7.73,5.53,7.73,6.76s-2.42.87-2.5,1.08H319.91V248Z" transform="translate(-20.75 -5.2)" fill="#1e1e1e"/><polygon id="Path-356" points="264.65 179.8 259.37 242.85 263.7 243.45 277.36 190.79 279.2 190.79 299.05 242.77 304.52 241.44 287.99 179.8 264.65 179.8" fill="#2c345b"/><path id="Path-354" d="M311.79,142.79l7.12-2.69-.22-17.51-1.09-5.44c1.19-2.76,1.82-5.17,2.3-5.09s.73,1.42.73,4q7.31-5.13,7.68-4c.37,1.1-4.13,9.58-5.36,10.39-.81.55.41,7.4,2.05,21.65l-9.74,6Z" transform="translate(-20.75 -5.2)" fill="#ffd7b3"/><path id="Path-353" d="M289.59,145.63c-4.94,0-7.83.38-8.68,1.19s-3.19,4.13-7,10l6.81,5.68,3.36-4.06,1.08,29.71c12.78,1.64,20,0,23.68-2.45a162.75,162.75,0,0,1-3.89-30.93l10.78-4.42-2.94-7.85-11.23,3.15Z" transform="translate(-20.75 -5.2)" fill="#3e4265"/><path id="Path-352" d="M290.78,137.52l-1.24,8h-3.19q4.74,5.91,9.34,5.44c3.08-.31,5-2.12,5.9-5.44h-3.91l-.86-8Z" transform="translate(-20.75 -5.2)" fill="#ffd7b3"/><path id="Combined-Shape" d="M297.17,142.08l-.17.08a9.44,9.44,0,0,1-2.93.85,9.07,9.07,0,0,1-3-.32,7.44,7.44,0,0,1-1-.34l.74-4.83h6Z" transform="translate(-20.75 -5.2)" fill="#e5bfa1"/><g id="Group-65"><path d="M299.79,135l-1.21-11.57-12.81,1.35L287,136.3a6.19,6.19,0,0,0,4.81,5.41,6.9,6.9,0,0,0,2.25.2,6.78,6.78,0,0,0,2.16-.66A6.21,6.21,0,0,0,299.79,135Z" transform="translate(-20.75 -5.2)" fill="#ffd7b3"/><path id="Path-351" d="M287.08,137.41l-.05-9.72q8.43,1.8,11.59.17a63.89,63.89,0,0,0,1.21,6.91c1.64-4.73,3.06-9.05,1.7-16.54-7.56.47-15.8,2.87-16.38,4.2Q281.31,125.3,287.08,137.41Z" transform="translate(-20.75 -5.2)" fill="#1e1e1e"/><path id="Oval-30" d="M287.14,134.53c.47-.05.35-1.23.25-2.18s0-1.42-.45-1.37-1.44.09-1.34,1S286.66,134.58,287.14,134.53Z" transform="translate(-20.75 -5.2)" fill="#ffd7b3"/><path id="Oval-30-Copy" d="M299.32,133.25c-.48.05-.6-1.13-.7-2.08s-.33-1.38.15-1.43,1.42-.21,1.53.74S299.79,133.2,299.32,133.25Z" transform="translate(-20.75 -5.2)" fill="#ffd7b3"/></g><path id="Path-355" d="M274.08,156.81l-7.73,12.7,15.25,11.87a28.09,28.09,0,0,0,1.65,3.6c.42.68,1.52,2.58,1.89,3.15l.55-2.35-1.27-5.11,2.49,2.09a2,2,0,0,0-.53-2.35l-2-1.61-10.34-10.42,6.07-6.39Z" transform="translate(-20.75 -5.2)" fill="#ffd7b3"/></g><rect x="404.22" y="53.12" width="6.72" height="6.72" transform="translate(69.39 313.1) rotate(-47.4)" fill="url(#linear-gradient-24)"/><rect x="861.47" y="185.78" width="6.72" height="6.72" transform="translate(119.37 692.38) rotate(-47.39)" fill="#f23a30"/><path d="M474.27,143.13a7.44,7.44,0,1,1-7.43-7.43A7.44,7.44,0,0,1,474.27,143.13Z" transform="translate(-20.75 -5.2)" fill="#fff" opacity="0.59" style="isolation:isolate"/><g id="Rectangle-82-Clipped" opacity="0.3"><g mask="url(#mask-3)"><rect id="Rectangle-82" x="427.84" y="115.13" width="175.75" height="58.95" rx="3.2" ry="3.2" fill="#4a4f70" opacity="0.4" style="isolation:isolate"/></g></g><rect x="475.29" y="126.68" width="2" height="40.4" fill="#fff"/><rect x="531.41" y="126.68" width="2" height="40.4" fill="#fff"/><rect x="442.76" y="134.24" width="29.01" height="1.27" fill="#fff"/><rect x="442.76" y="138.04" width="29.01" height="1.27" fill="#fff"/><rect x="442.76" y="141.85" width="29.01" height="1.27" fill="#fff"/><rect x="499.03" y="132.02" width="29.01" height="1.27" fill="#fff"/><rect x="499.03" y="135.82" width="29.01" height="1.27" fill="#fff"/><rect x="499.03" y="139.63" width="29.01" height="1.27" fill="#fff"/><path d="M516.65,142.29a8.28,8.28,0,1,1-8.28-8.28A8.28,8.28,0,0,1,516.65,142.29Z" transform="translate(-20.75 -5.2)" fill="#fff"/><rect x="562.36" y="125.66" width="37.49" height="1.64" fill="#fff"/><rect x="562.36" y="130.58" width="37.49" height="1.64" fill="#fff"/><rect x="562.36" y="135.5" width="37.49" height="1.64" fill="#fff"/><path d="M578.91,136.28a7.87,7.87,0,1,1-7.87-7.87A7.87,7.87,0,0,1,578.91,136.28Z" transform="translate(-20.75 -5.2)" fill="#fff"/><g id="Rectangle-81-Copy-3-Clipped" opacity="0.4" style="isolation:isolate"><g mask="url(#mask-14)"><path id="Rectangle-81-Copy-3" d="M460.32,198.46l91.57-.45a2.92,2.92,0,0,1,2.94,2.92l.17,33.35a2.93,2.93,0,0,1-2.92,2.94l-91.57.45a2.93,2.93,0,0,1-2.94-2.92l-.16-33.35A2.91,2.91,0,0,1,460.32,198.46Z" transform="translate(-20.75 -5.2)" fill="#4a4f70" opacity="0.4" style="isolation:isolate"/></g></g><rect x="530.27" y="192.39" width="1.64" height="37.49" transform="translate(292.55 734.34) rotate(-89.28)" fill="#fff"/><rect x="530.21" y="197.31" width="1.64" height="37.49" transform="translate(287.56 739.12) rotate(-89.28)" fill="#fff"/><rect x="530.15" y="202.22" width="1.64" height="37.49" transform="translate(282.6 743.92) rotate(-89.28)" fill="#fff"/><path d="M509.53,215.77a7.86,7.86,0,1,1-7.76-8A7.86,7.86,0,0,1,509.53,215.77Z" transform="translate(-20.75 -5.2)" fill="#fff"/><g id="Group-69"><path id="Path-370" d="M438.81,209.91q-1.49,31.85-6,40.13a15.08,15.08,0,0,0,4.51,0q12.12-30.37,9.89-41Q443.9,207.56,438.81,209.91Z" transform="translate(-20.75 -5.2)" fill="#ffd7b3"/><path id="Path-368" d="M453.27,213.34c4.27,22.19,5.64,31.69,5.64,36.58a46.74,46.74,0,0,1,5.2,0q-.33-11.52-.62-16.25c-1.06-16.75-1.49-22-2-22.92Z" transform="translate(-20.75 -5.2)" fill="#ffd7b3"/><path id="Path-367" d="M433.1,180.1c-3.35,11.89.67,21.85,1,23.15,1,4.07.75,11.22.75,13.55a36.9,36.9,0,0,0,14.67.54c7.13-.81,7.63-3.72,14.4-4.67l-6-31Z" transform="translate(-20.75 -5.2)" fill="#3e4265"/><path id="Path-366" d="M471.35,127.4h7.34Q477.39,123,476.2,123h-3.41Z" transform="translate(-20.75 -5.2)" fill="url(#linear-gradient-25)"/><g id="Path-365"><g id="path-46-link"><path id="path-46-2" data-name="path-46" d="M476.37,123.15c-5.9,0-1.66,13.21-6.52,14.62-2.19.63-3.81,4.07-2.19,5.78,1.08,1.15.93,3.89-.43,8.23l-10.35-.88A35.81,35.81,0,0,1,454.76,140c0-4.4,6.06-2.18,5.35-7.74s-.27-8.16,1.69-9.15Q473,122.25,476.37,123.15Z" transform="translate(-20.75 -5.2)" fill="url(#linear-gradient-26)"/></g><g id="path-46-link-2" data-name="path-46-link"><path id="path-46-3" data-name="path-46" d="M476.37,123.15c-5.9,0-1.66,13.21-6.52,14.62-2.19.63-3.81,4.07-2.19,5.78,1.08,1.15.93,3.89-.43,8.23l-10.35-.88A35.81,35.81,0,0,1,454.76,140c0-4.4,6.06-2.18,5.35-7.74s-.27-8.16,1.69-9.15Q473,122.25,476.37,123.15Z" transform="translate(-20.75 -5.2)" fill="url(#linear-gradient-27)"/></g></g><path id="Path-364" d="M468.45,142.16a21.12,21.12,0,0,0-1.6-3.71c-.35-.41-1.32-3.15-.35-2.72s1.74,2.32,2.55,1.7q.81-.62,3.59-5.81c1.51,1.27,2.17,2.36,2,3.3s-1.15,2.73-2.91,5.41v2.49Z" transform="translate(-20.75 -5.2)" fill="#ffd7b3"/><g id="Group-70"><path id="Path-362" d="M453.53,120.77c2.24,6.34,2.75,12.11,1.57,12.86a23.9,23.9,0,0,1-5.84,2.33l2.45,8.9h-6.86l-3.78-20.71Z" transform="translate(-20.75 -5.2)" fill="#ffd7b3"/></g><path id="Path-363" d="M435.08,145.93l-2.82,35.49q10.08,2.9,15.38,2.14c3.54-.49,7-1,10.33-1.43l-2.19-21.74-2.73-5.14c3.37,7.16,8.61,14.42,11.18,13.9s5.19-9,8.08-25.56h0a2.06,2.06,0,0,0-1.68-2.39,2,2,0,0,0-.35,0,3.12,3.12,0,0,0-3,2.37q-3.17,12.68-4.23,12.68c-1.32,0-4.35-17.46-13.21-14.73Q444.89,143,435.08,145.93Z" transform="translate(-20.75 -5.2)" fill="#2c345b"/><path id="Path-361" d="M437.78,114c-7.08,4-2.69,8.85-5.31,10.55-3.45,2.26-4.16,6.65-3,11.34,2.74,10.67,1.55,11.47-.59,14.7-1.27,3.89,2.29,5.79,2.29,16,0,3.58,17-17.06,13.86-23.71-1.56-3.35,1.11.5,2.8-6.22s-2.31-10.42-.22-10.56c4.2-.29,2.79-2.54,7-4.73C457.16,114,443.51,110.73,437.78,114Z" transform="translate(-20.75 -5.2)" fill="#1e1e1e"/></g><g id="Path-359"><rect y="250.04" width="143.99" height="1" fill="url(#linear-gradient-28)"/></g><g id="Path-359-Copy-2"><rect x="165.5" y="250.04" width="184.82" height="1" fill="url(#linear-gradient-29)"/></g><g id="Path-359-Copy-3"><rect x="468.42" y="250.04" width="231.87" height="1" fill="url(#linear-gradient-30)"/></g><g id="Path-359-Copy-5"><rect x="922.81" y="250.19" width="116.4" height="1" fill="url(#linear-gradient-31)"/></g><g id="Path-359-Copy-4"><rect x="720.17" y="249.7" width="158.74" height="1" fill="url(#linear-gradient-32)"/></g><path d="M437.46,248.24s-1.62-1-2.46,2.06-.15,2.74,1.78,2.91c2.22.19,7.3.25,9,.18s1.87-1.48-1.7-2.45C442.17,250.42,439.48,248.6,437.46,248.24Z" transform="translate(-20.75 -5.2)" fill="#1e1e1e"/><path d="M461.87,248.42a34,34,0,0,1-.5,3.41c-.24.79.71,1.76,2.37,1.4,0,0,4.5-.08,5.14,0a54.28,54.28,0,0,0,6.31-.37c1.09-.16,1.26-1.44,0-1.88-.74-.24-1.67-.46-3.18-1.06a34.88,34.88,0,0,1-5.08-2.69Z" transform="translate(-20.75 -5.2)" fill="#1e1e1e"/><g id="Group-56-Copy-Clipped-2" data-name="Group-56-Copy-Clipped" opacity="0.5"><g mask="url(#mask-15)"><g id="Group-56-Copy-2" data-name="Group-56-Copy" opacity="0.67"><g id="Group-2" data-name="Group"><path d="M803.17,172.6c11.32,4.9,3.75,20.05,19.05,29.89,5.11,3.28,7.78,3.87,9.09,3.52h.05c0,.3,0,.65,0,1,.42,9.1,27.54,9.62,28.3,12.52.34,1.31.48,1.84.82,1.75s1.11-1.12,2.84-2.71c-5.7-36.71-41.1-50-60.17-46m0,0h0" transform="translate(-20.75 -5.2)" fill="url(#linear-gradient-33)"/><path d="M817,186.79l-.35-1.86a46.93,46.93,0,0,1,10.14-.94c-5.75-3.37-10.72-6.71-17.82-9.25l1.53-.24a90.72,90.72,0,0,1,21.36,10.4,10,10,0,0,1,1,.43l-.1.18q1.34.9,2.61,1.83c-1.33-5.23-.81-6.6,0-7.23l1.21,1.45c-.07.1-.62,1.17,1.26,7.58l-.06,0a72.27,72.27,0,0,1,12.6,12.61,26,26,0,0,1,.39-6.55l.67.11a21.08,21.08,0,0,0-.17,7.62,66.37,66.37,0,0,1,10.36,20.88l-1.82.54a64.32,64.32,0,0,0-9.31-19.25c-3.51-1.37-8.16-1.06-13.86,1l-.23-.64c5.37-1.91,9.86-2.32,13.39-1.28A73.21,73.21,0,0,0,831,186.61C828,185.57,823.33,185.62,817,186.79Z" transform="translate(-20.75 -5.2)" fill="#0d6574"/></g></g></g></g><g id="machine"><g id="Oval-33-Clipped"><g mask="url(#mask-3)"><path id="Oval-33" d="M562.88,174.39l3.73-2.84a11.05,11.05,0,1,0-2.09-8.53l-4.62-.77a15.73,15.73,0,1,1,3,12.14Z" transform="translate(-20.75 -5.2)" fill="#3e4265"/></g></g><g id="Oval-34-Clipped"><g mask="url(#mask-3)"><path id="Oval-34" d="M588.66,156.07a5.34,5.34,0,1,1-5.32,5.33A5.33,5.33,0,0,1,588.66,156.07Z" transform="translate(-20.75 -5.2)" fill="#4a4f70"/></g></g><g id="Rectangle-80-Clipped"><g mask="url(#mask-3)"><g id="Rectangle-80"><g id="path-5-link"><path id="path-5-2" data-name="path-5" d="M588.51,158.79l14.4-4a2.52,2.52,0,0,1,3.12,1.74,1.6,1.6,0,0,1,.05.21l.28,1.41a2.53,2.53,0,0,1-2,3h0l-14.64,2.85a2.53,2.53,0,0,1-3-2l0-.21A2.53,2.53,0,0,1,588.51,158.79Z" transform="translate(-20.75 -5.2)" fill="#3e4265"/><path id="path-5-3" data-name="path-5" d="M588.51,158.79l14.4-4a2.52,2.52,0,0,1,3.12,1.74,1.6,1.6,0,0,1,.05.21l.28,1.41a2.53,2.53,0,0,1-2,3h0l-14.64,2.85a2.53,2.53,0,0,1-3-2l0-.21A2.53,2.53,0,0,1,588.51,158.79Z" transform="translate(-20.75 -5.2)" fill="#3e4265"/></g></g></g></g><g id="Rectangle-79-Clipped"><g mask="url(#mask-3)"><g id="Rectangle-79"><g id="path-7-link"><path id="path-7-2" data-name="path-7" d="M602.72,148.56l76.43-22.16a13.1,13.1,0,0,1,16.23,8.94c.07.23.13.46.18.7a13.09,13.09,0,0,1-9.82,15.71c-.23.06-.47.1-.71.15l-78.4,13.59a8.7,8.7,0,0,1-3.91-16.93Z" transform="translate(-20.75 -5.2)" fill="#4a4f70"/><path id="path-7-3" data-name="path-7" d="M602.72,148.56l76.43-22.16a13.1,13.1,0,0,1,16.23,8.94c.07.23.13.46.18.7a13.09,13.09,0,0,1-9.82,15.71c-.23.06-.47.1-.71.15l-78.4,13.59a8.7,8.7,0,0,1-3.91-16.93Z" transform="translate(-20.75 -5.2)" fill="#4a4f70"/></g></g></g></g><g id="Combined-Shape-Clipped"><g mask="url(#mask-3)"><g id="Combined-Shape-2" data-name="Combined-Shape"><g id="path-9-link"><path id="path-9" d="M634.05,146.74a.68.68,0,0,1,.8.5l1.19,5.2a.66.66,0,1,1-1.29.3l-1.2-5.2A.66.66,0,0,1,634.05,146.74Zm2.59-.6a.67.67,0,0,1,.8.51l1.2,5.19a.67.67,0,0,1-1.3.3l-1.2-5.2A.68.68,0,0,1,636.64,146.14Zm2.6-.59a.65.65,0,0,1,.79.49l1.2,5.2a.66.66,0,1,1-1.29.3l-1.2-5.19A.66.66,0,0,1,639.24,145.55Zm2.59-.6a.66.66,0,0,1,.8.5l1.2,5.19a.67.67,0,0,1-1.3.31l-1.2-5.2A.67.67,0,0,1,641.83,145Zm2.59-.6a.67.67,0,0,1,.8.5l1.2,5.2a.66.66,0,1,1-1.29.3l-1.2-5.2A.66.66,0,0,1,644.42,144.35Zm2.6-.6a.67.67,0,0,1,.8.5l1.2,5.2a.67.67,0,1,1-1.3.3l-1.2-5.2A.67.67,0,0,1,647,143.75Zm2.6-.6a.66.66,0,0,1,.79.5l1.2,5.2a.66.66,0,1,1-1.29.3l-1.2-5.2A.66.66,0,0,1,649.62,143.15Z" transform="translate(-20.75 -5.2)" fill="url(#linear-gradient-34)"/><path id="path-9-2" data-name="path-9" d="M634.05,146.74a.68.68,0,0,1,.8.5l1.19,5.2a.66.66,0,1,1-1.29.3l-1.2-5.2A.66.66,0,0,1,634.05,146.74Zm2.59-.6a.67.67,0,0,1,.8.51l1.2,5.19a.67.67,0,0,1-1.3.3l-1.2-5.2A.68.68,0,0,1,636.64,146.14Zm2.6-.59a.65.65,0,0,1,.79.49l1.2,5.2a.66.66,0,1,1-1.29.3l-1.2-5.19A.66.66,0,0,1,639.24,145.55Zm2.59-.6a.66.66,0,0,1,.8.5l1.2,5.19a.67.67,0,0,1-1.3.31l-1.2-5.2A.67.67,0,0,1,641.83,145Zm2.59-.6a.67.67,0,0,1,.8.5l1.2,5.2a.66.66,0,1,1-1.29.3l-1.2-5.2A.66.66,0,0,1,644.42,144.35Zm2.6-.6a.67.67,0,0,1,.8.5l1.2,5.2a.67.67,0,1,1-1.3.3l-1.2-5.2A.67.67,0,0,1,647,143.75Zm2.6-.6a.66.66,0,0,1,.79.5l1.2,5.2a.66.66,0,1,1-1.29.3l-1.2-5.2A.66.66,0,0,1,649.62,143.15Z" transform="translate(-20.75 -5.2)" fill="url(#linear-gradient-34)"/></g></g></g></g><g id="Oval-32-Clipped"><g mask="url(#mask-21)"><g id="Oval-32"><g id="path-15-link"><ellipse id="path-15" cx="660.18" cy="134.44" rx="6.27" ry="6.28" fill="url(#linear-gradient-36)"/><ellipse id="path-15-2" data-name="path-15" cx="660.18" cy="134.44" rx="6.27" ry="6.28" fill="url(#linear-gradient-36)"/></g></g></g></g><g id="Oval-32-Copy-Clipped"><g mask="url(#mask-3)"><g id="Oval-32-Copy"><g id="path-21-link"><path id="path-21-2" data-name="path-21" d="M605.71,152.6a4.27,4.27,0,1,1-4.27,4.27A4.26,4.26,0,0,1,605.71,152.6Z" transform="translate(-20.75 -5.2)" fill="#333851"/><path id="path-21-3" data-name="path-21" d="M605.71,152.6a4.27,4.27,0,1,1-4.27,4.27A4.26,4.26,0,0,1,605.71,152.6Z" transform="translate(-20.75 -5.2)" fill="#333851"/></g></g></g></g><g id="Rectangle-81-Clipped"><g mask="url(#mask-3)"><path id="Rectangle-81" d="M518.36,161.29l51.92-.9a2.93,2.93,0,0,1,3,2.88l.58,33.34a2.93,2.93,0,0,1-2.88,3l-51.91.91a2.92,2.92,0,0,1-3-2.88l-.59-33.35A2.93,2.93,0,0,1,518.36,161.29Z" transform="translate(-20.75 -5.2)" fill="#ef5350"/></g></g><g id="Oval-33-Copy-Clipped"><g mask="url(#mask-3)"><path id="Oval-33-Copy" d="M562.88,174.39l3.73-2.84a11,11,0,0,0,8.79,4.37v4.69A15.67,15.67,0,0,1,562.88,174.39Z" transform="translate(-20.75 -5.2)" fill="#fff"/></g></g><rect x="520.13" y="169.71" width="19.97" height="1.64" fill="#b71c1c"/><rect x="520.13" y="174.62" width="19.97" height="1.64" fill="#b71c1c"/><rect x="520.13" y="179.54" width="19.97" height="1.64" fill="#b71c1c"/><path d="M537.49,180.83a7.86,7.86,0,1,1-7.86-7.86A7.86,7.86,0,0,1,537.49,180.83Z" transform="translate(-20.75 -5.2)" fill="#b71c1c"/></g><g id="Group-73"><polygon id="Path-387" points="953.98 48.99 977.6 21.35 952.59 30.83 953.98 48.99" fill="#dd5252"/><polygon id="Path-385" points="931.92 26.49 975.75 39.57 987.09 3.27 931.92 26.49" fill="#ef5350"/><polygon id="Path-386" points="947.35 31.16 974.95 14.48 956.87 33.84 954.01 49.8 947.35 31.16" fill="#b71c1c"/></g><path d="M868.24,138.16h0a11.81,11.81,0,0,1-4.82-1,10,10,0,0,1-2.14-1.38,1,1,0,0,1,1.3-1.53,7.85,7.85,0,0,0,1.71,1.11,9.82,9.82,0,0,0,4,.84,1,1,0,0,1,1,1A1,1,0,0,1,868.24,138.16Z" transform="translate(-20.75 -5.2)" fill="#ef5350"/><g id="Group-72"><path id="Path-383" d="M850.73,56.6,849,58.16l-1,.35a6.76,6.76,0,0,0-3.74,3.15l-1.38,2.81.29.3a9,9,0,0,0,5.39-2.49L850,60.36V63c.12.61.82.56.93.28s.79-2,2-5.12Z" transform="translate(-20.75 -5.2)" fill="#ffd7b3"/><path id="Path-382" d="M930.54,40.59l2.09-7.25c.87.15,1.3.46,1.28.93,0,.69-.06,2.48,0,2.69-.14.06,1.6-.21,4.25-5.14.22-.41.51.65.71,1,.88,2.63,1.07,3.79.45,4.85s-2.84,2.79-6.69,5.19Z" transform="translate(-20.75 -5.2)" fill="#ffd7b3"/><path id="Path-379" d="M869,72.13,854.68,90.71a5.66,5.66,0,0,1-7.08,2.46L827,84.69l-2.13,4.48,20.68,11.88a8.88,8.88,0,0,0,9.49-.41l16.51-11.47L881,99.85a6.73,6.73,0,0,1,.45,8.35l-14.39,20.28,4.49,2.77,20.26-22.08a6.73,6.73,0,0,0,1.44-6.65l-5.82-21.26Z" transform="translate(-20.75 -5.2)" fill="#3e4265"/><g id="Group-71"><path id="Path-375" d="M895.55,41.19l6.79,4.14a18,18,0,0,0,18.45.21L929,40.75a3.17,3.17,0,0,1,3.76.44,1.93,1.93,0,0,1,.06,2.73,1.74,1.74,0,0,1-.29.25l-11.79,8.2a18,18,0,0,1-16.57,2.1l-5.83-2.17q-2.24,6.9-3.59,11.13c-.9,2.81-3,14.48-2.66,21.95-1.34,1.16-1.06.75-3.77,2.12-1.66-.23-8.62,1.85-11.46,1.06l6.61-16.2,9.17-28.83Z" transform="translate(-20.75 -5.2)" fill="#4a4f70"/><g id="Group-28"><path id="Path-252" d="M906.24,22.9c-.08,5.42-.38,8.65-.9,9.66a47.51,47.51,0,0,1-4,5.72l-3.69-.94L896.45,43c-2.6,2.35-5.54,3.79-5,3.79s1-2-2.27-5.31l4.55-9.06-.36-9.11Z" transform="translate(-20.75 -5.2)" fill="#ffd7b3"/><path id="Path-251" d="M901.89,16.64q-8.82-.77-10,3c-1.14,3.75-3.25,2.1-3.1,5.76s2.53,6.65,3.42,10.44c2.46-3,2.48-4.12,1.91-6.62-1-4.19,1.44-3.52,1.37-1.56s-1.25,8.18.56,10.35a6.29,6.29,0,0,0,5.27,2.36c1.44-.38,4-1.32,3.56-7.88-1.06-.62-4.59-.77-6.92,1.17-.67-.89-.94-3.49-.82-7.82q11.88-.8,9.91-4.7C905.78,18.51,904,17,901.89,16.64Z" transform="translate(-20.75 -5.2)" fill="#1e1e1e"/></g><path id="Path-373" d="M866.13,76.78c2.46-2.86,12.32-23.41,14.25-29.49L874.1,46a11,11,0,0,0-9.67,2.6l-10.84,9.78a2.14,2.14,0,0,1-2.57.21,1.5,1.5,0,0,1-.45-2.06l.07-.1,11.7-15.22a11,11,0,0,1,8.66-4.3l12.65-.12c3.69,0,6,.36,6.83,1.21a12.81,12.81,0,0,1,1.46,8.36c-5.23,15.72-7,24.13-15.06,42.24-5.53-3.22-9.49-7-11.48-10.74Z" transform="translate(-20.75 -5.2)" fill="#4a4f70"/></g><path id="Path-380" d="M826.31,88.2l-10.24,9.17c-2-.81-2.51-1.77-1.51-2.9s3.94-5.1,8.82-11.94L827.6,85Z" transform="translate(-20.75 -5.2)" fill="#1e1e1e"/></g><g id="Path-384"><path d="M845.56,163.49a1,1,0,0,1-.07-2c2.33-.15,4.6-.37,6.73-.67a1,1,0,0,1,.28,2c-2.19.31-4.5.54-6.88.69Zm11.22-1.41a1,1,0,0,1-1-.81,1,1,0,0,1,.79-1.17,64.18,64.18,0,0,0,6.53-1.64,1,1,0,0,1,.59,1.91,65.48,65.48,0,0,1-6.73,1.69Zm10.84-3.17a1,1,0,0,1-.38-1.93,41.34,41.34,0,0,0,6-3,1,1,0,0,1,1,1.71,44.34,44.34,0,0,1-6.24,3.14A1.08,1.08,0,0,1,867.62,158.91Zm9.74-5.66a1,1,0,0,1-.63-1.78,26.75,26.75,0,0,0,4.57-4.72,1,1,0,0,1,1.4-.2,1,1,0,0,1,.2,1.4A28.91,28.91,0,0,1,878,153,1,1,0,0,1,877.36,153.25Zm7.1-8.7a.93.93,0,0,1-.45-.11,1,1,0,0,1-.44-1.34,23.4,23.4,0,0,0,2.08-6.19,1,1,0,0,1,2,.36,25.07,25.07,0,0,1-2.26,6.73A1,1,0,0,1,884.46,144.55Zm-10.77-7.8a1,1,0,0,1-.18-2,42.7,42.7,0,0,0,6.43-1.8,1,1,0,0,1,1.28.6,1,1,0,0,1-.61,1.28,42.85,42.85,0,0,1-6.73,1.88A.65.65,0,0,1,873.69,136.75ZM887,133.64a1,1,0,0,1-1-1h0l-1.2.54a1,1,0,1,1-.8-1.84l1.9-.85a24.37,24.37,0,0,0-.81-4.32,1,1,0,1,1,1.92-.55,25.61,25.61,0,0,1,.8,4c.75-.37,1.52-.75,2.29-1.16a1,1,0,0,1,.93,1.78c-1,.53-2.05,1-3.05,1.53,0,.31,0,.62,0,.93a1,1,0,0,1-1,1Zm-26.73-2.25a1,1,0,0,1-.93-.62,12.76,12.76,0,0,1-1-5,14.63,14.63,0,0,1,.18-2.29,1,1,0,1,1,2,.32,13,13,0,0,0-.15,2,11,11,0,0,0,.81,4.2,1,1,0,0,1-.54,1.31A1,1,0,0,1,860.31,131.39Zm34.23-3.25a1,1,0,0,1-.49-1.87c1.89-1.07,3.86-2.25,5.83-3.49a1,1,0,0,1,1.07,1.7c-2,1.25-4,2.44-5.91,3.53A1,1,0,0,1,894.54,128.14Zm-10.07-5.42a1,1,0,0,1-.9-.55,18,18,0,0,0-3.84-5.17,1,1,0,0,1,1.34-1.48,20.1,20.1,0,0,1,4.29,5.74,1,1,0,0,1-.44,1.35A1.06,1.06,0,0,1,884.47,122.72Zm19.71-.52a1,1,0,0,1-.55-1.84c1.83-1.21,3.72-2.51,5.61-3.85a1,1,0,1,1,1.16,1.63c-1.91,1.35-3.81,2.66-5.67,3.89A1,1,0,0,1,904.18,122.2ZM861,120.44a1,1,0,0,1-.88-1.47,13,13,0,0,1,5.08-5.26,1,1,0,0,1,1,1.75,11,11,0,0,0-4.3,4.45A1,1,0,0,1,861,120.44Zm52.45-4.75a1,1,0,0,1-.8-.41,1,1,0,0,1,.21-1.4c1.79-1.32,3.61-2.71,5.42-4.13a1,1,0,0,1,1.23,1.58c-1.82,1.42-3.66,2.82-5.46,4.16A1,1,0,0,1,913.45,115.69Zm-36.8-.82a1,1,0,0,1-.38-.08,8.67,8.67,0,0,0-1.75-.5,14.72,14.72,0,0,0-4.47-.12,1,1,0,0,1-.28-2,16.53,16.53,0,0,1,5.09.13,10.78,10.78,0,0,1,2.16.62,1,1,0,0,1-.37,1.93Zm45.75-6.13a1,1,0,0,1-.63-1.77c1.75-1.42,3.51-2.89,5.24-4.36a1,1,0,0,1,1.3,1.52c-1.74,1.48-3.52,3-5.28,4.39A1,1,0,0,1,922.4,108.74Zm8.65-7.3a1,1,0,0,1-.66-1.76c1.7-1.49,3.4-3,5.07-4.56a1,1,0,0,1,1.36,1.47c-1.68,1.55-3.4,3.1-5.11,4.6A1,1,0,0,1,931.05,101.44Zm8.37-7.64a1,1,0,0,1-.73-.31,1,1,0,0,1,0-1.42c1.63-1.54,3.28-3.14,4.89-4.75a1,1,0,0,1,1.42,0,1,1,0,0,1,0,1.41c-1.63,1.62-3.28,3.23-4.93,4.78A1,1,0,0,1,939.42,93.8Zm8.07-8a1,1,0,0,1-.72-1.69c1.59-1.63,3.18-3.28,4.71-4.92a1,1,0,1,1,1.46,1.36c-1.54,1.65-3.14,3.32-4.74,5A1,1,0,0,1,947.49,85.85Zm7.76-8.22a1,1,0,0,1-.67-.26,1,1,0,0,1-.07-1.41c1.52-1.69,3-3.4,4.52-5.1a1,1,0,1,1,1.51,1.3c-1.48,1.72-3,3.45-4.55,5.14A1,1,0,0,1,955.25,77.63Zm7.44-8.53a1,1,0,0,1-.64-.24,1,1,0,0,1-.13-1.41c1.47-1.74,2.92-3.52,4.32-5.28a1,1,0,0,1,1.56,1.24c-1.41,1.78-2.87,3.57-4.34,5.33A1,1,0,0,1,962.69,69.1Zm7.09-8.84a1,1,0,0,1-.61-.21,1,1,0,0,1-.18-1.4l.85-1.12a1,1,0,0,1,1.59,1.21l-.86,1.13A1,1,0,0,1,969.78,60.26Z" transform="translate(-20.75 -5.2)" fill="#ef5350"/></g><path id="Path-381" d="M867.73,127.57l-2.9,2.94.9,3.67.56,11a3.16,3.16,0,0,0,3.1-2.57l2.23-11.64Z" transform="translate(-20.75 -5.2)" fill="#1e1e1e"/></svg>