<?xml version="1.0" encoding="utf-8"?>
<!-- Generator: Adobe Illustrator 16.0.0, SVG Export Plug-In . SVG Version: 6.00 Build 0)  -->
<!DOCTYPE svg PUBLIC "-//W3C//DTD SVG 1.1//EN" "http://www.w3.org/Graphics/SVG/1.1/DTD/svg11.dtd">
<svg version="1.1" id="Layer_1" xmlns="http://www.w3.org/2000/svg" xmlns:xlink="http://www.w3.org/1999/xlink" x="0px" y="0px"
	 width="700px" height="480px" viewBox="0 0 700 480" enable-background="new 0 0 700 480" xml:space="preserve">
<linearGradient id="SVGIDREE_1_" gradientUnits="userSpaceOnUse" x1="589.5254" y1="245.1045" x2="589.5254" y2="75.5635">
	<stop  offset="0" style="stop-color:#FFFFFF;stop-opacity:0"/>
	<stop  offset="0.3175" style="stop-color:#FCFCFC;stop-opacity:0.3175"/>
	<stop  offset="0.5913" style="stop-color:#F1F2F2;stop-opacity:0.5913"/>
	<stop  offset="0.8481" style="stop-color:#DFE1E1;stop-opacity:0.8481"/>
	<stop  offset="1" style="stop-color:#D1D3D4"/>
</linearGradient>
<rect x="555.6" y="75.6" fill="url(#SVGIDREE_1_)" width="67.8" height="169.5"/>
<g>
	<linearGradient id="SVGIDREE_2_" gradientUnits="userSpaceOnUse" x1="109.1323" y1="231.9351" x2="109.1323" y2="158.8384">
		<stop  offset="0" style="stop-color:#FFFFFF;stop-opacity:0"/>
		<stop  offset="0.3175" style="stop-color:#FCFCFC;stop-opacity:0.3175"/>
		<stop  offset="0.5913" style="stop-color:#F1F2F2;stop-opacity:0.5913"/>
		<stop  offset="0.8481" style="stop-color:#DFE1E1;stop-opacity:0.8481"/>
		<stop  offset="1" style="stop-color:#D1D3D4"/>
	</linearGradient>
	<path fill="url(#SVGIDREE_2_)" d="M90.4,158.8v73.1h37.5v-73.1H90.4z M120.8,205.7h-22v-1.1h22V205.7z M120.8,201.4h-22v-1h22V201.4z
		 M120.8,197.1h-22v-1.1h22V197.1z M120.8,192.8h-22v-1.1h22V192.8z M120.8,188.5h-22v-1h22V188.5z M120.8,184.2h-22v-1.1h22V184.2z
		 M120.8,179.9h-22v-1.1h22V179.9z M120.8,175.6h-22v-1.1h22V175.6z M120.8,171.3h-22v-1h22V171.3z M120.8,167h-22V166h22V167z"/>
</g>
<g>
	<linearGradient id="SVGIDREE_3_" gradientUnits="userSpaceOnUse" x1="107.5156" y1="225.1045" x2="107.5156" y2="97.4551">
		<stop  offset="0" style="stop-color:#FFFFFF;stop-opacity:0"/>
		<stop  offset="0.3175" style="stop-color:#FCFCFC;stop-opacity:0.3175"/>
		<stop  offset="0.5913" style="stop-color:#F1F2F2;stop-opacity:0.5913"/>
		<stop  offset="0.8481" style="stop-color:#DFE1E1;stop-opacity:0.8481"/>
		<stop  offset="1" style="stop-color:#D1D3D4"/>
	</linearGradient>
	<path fill="url(#SVGIDREE_3_)" d="M77.2,97.5v127.6h60.7V97.5H77.2z M91.3,150h-6.9v-6.9h6.9V150z M91.3,138.1h-6.9v-6.9h6.9V138.1z
		 M91.3,126.2h-6.9v-6.9h6.9V126.2z M91.3,114.2h-6.9v-6.9h6.9V114.2z M103.9,150H97v-6.9h6.9V150z M103.9,138.1H97v-6.9h6.9V138.1z
		 M103.9,126.2H97v-6.9h6.9V126.2z M103.9,114.2H97v-6.9h6.9V114.2z M116.6,150h-6.9v-6.9h6.9V150z M116.6,138.1h-6.9v-6.9h6.9
		V138.1z M116.6,126.2h-6.9v-6.9h6.9V126.2z M116.6,114.2h-6.9v-6.9h6.9V114.2z M129.2,150h-6.9v-6.9h6.9V150z M129.2,138.1h-6.9
		v-6.9h6.9V138.1z M129.2,126.2h-6.9v-6.9h6.9V126.2z M129.2,114.2h-6.9v-6.9h6.9V114.2z"/>
</g>
<linearGradient id="SVGIDREE_4_" gradientUnits="userSpaceOnUse" x1="129.9385" y1="344.7227" x2="160.2007" y2="173.0968">
	<stop  offset="0" style="stop-color:#FFFFFF;stop-opacity:0"/>
	<stop  offset="0.3175" style="stop-color:#FCFCFC;stop-opacity:0.3175"/>
	<stop  offset="0.5913" style="stop-color:#F1F2F2;stop-opacity:0.5913"/>
	<stop  offset="0.8481" style="stop-color:#DFE1E1;stop-opacity:0.8481"/>
	<stop  offset="1" style="stop-color:#D1D3D4"/>
</linearGradient>
<rect x="125.2" y="173.9" fill="url(#SVGIDREE_4_)" width="39.7" height="170"/>
<linearGradient id="SVGIDREE_5_" gradientUnits="userSpaceOnUse" x1="43.4932" y1="349.7412" x2="93.2805" y2="212.9517">
	<stop  offset="0" style="stop-color:#FFFFFF;stop-opacity:0"/>
	<stop  offset="0.3175" style="stop-color:#FCFCFC;stop-opacity:0.3175"/>
	<stop  offset="0.5913" style="stop-color:#F1F2F2;stop-opacity:0.5913"/>
	<stop  offset="0.8481" style="stop-color:#DFE1E1;stop-opacity:0.8481"/>
	<stop  offset="1" style="stop-color:#D1D3D4"/>
</linearGradient>
<rect x="45.7" y="212.2" fill="url(#SVGIDREE_5_)" width="45.4" height="138.4"/>
<g>
	<linearGradient id="SVGIDREE_6_" gradientUnits="userSpaceOnUse" x1="86.2363" y1="348.6455" x2="156.6863" y2="226.6226">
		<stop  offset="0" style="stop-color:#FFFFFF;stop-opacity:0"/>
		<stop  offset="0.3175" style="stop-color:#FCFCFC;stop-opacity:0.3175"/>
		<stop  offset="0.5913" style="stop-color:#F1F2F2;stop-opacity:0.5913"/>
		<stop  offset="0.8481" style="stop-color:#DFE1E1;stop-opacity:0.8481"/>
		<stop  offset="1" style="stop-color:#D1D3D4"/>
	</linearGradient>
	<path fill="url(#SVGIDREE_6_)" d="M91.1,223.8v127.6h60.7V223.8H91.1z M105.2,276.4h-6.9v-6.9h6.9V276.4z M105.2,264.4h-6.9v-6.9h6.9
		V264.4z M105.2,252.5h-6.9v-6.9h6.9V252.5z M105.2,240.6h-6.9v-6.9h6.9V240.6z M117.9,276.4h-6.9v-6.9h6.9V276.4z M117.9,264.4
		h-6.9v-6.9h6.9V264.4z M117.9,252.5h-6.9v-6.9h6.9V252.5z M117.9,240.6h-6.9v-6.9h6.9V240.6z M130.5,276.4h-6.9v-6.9h6.9V276.4z
		 M130.5,264.4h-6.9v-6.9h6.9V264.4z M130.5,252.5h-6.9v-6.9h6.9V252.5z M130.5,240.6h-6.9v-6.9h6.9V240.6z M143.2,276.4h-6.9v-6.9
		h6.9V276.4z M143.2,264.4h-6.9v-6.9h6.9V264.4z M143.2,252.5h-6.9v-6.9h6.9V252.5z M143.2,240.6h-6.9v-6.9h6.9V240.6z"/>
</g>
<linearGradient id="SVGIDREE_7_" gradientUnits="userSpaceOnUse" x1="108.4248" y1="211.4043" x2="148.9224" y2="211.4043">
	<stop  offset="0" style="stop-color:#FFFFFF;stop-opacity:0"/>
	<stop  offset="0.3175" style="stop-color:#FCFCFC;stop-opacity:0.3175"/>
	<stop  offset="0.5913" style="stop-color:#F1F2F2;stop-opacity:0.5913"/>
	<stop  offset="0.8481" style="stop-color:#DFE1E1;stop-opacity:0.8481"/>
	<stop  offset="1" style="stop-color:#D1D3D4"/>
</linearGradient>
<rect x="108.4" y="199" fill="url(#SVGIDREE_7_)" width="40.5" height="24.8"/>
<linearGradient id="SVGIDREE_8_" gradientUnits="userSpaceOnUse" x1="445.4512" y1="115.0039" x2="445.4512" y2="23.0112">
	<stop  offset="0" style="stop-color:#FFFFFF;stop-opacity:0"/>
	<stop  offset="0.3175" style="stop-color:#FCFCFC;stop-opacity:0.3175"/>
	<stop  offset="0.5913" style="stop-color:#F1F2F2;stop-opacity:0.5913"/>
	<stop  offset="0.8481" style="stop-color:#DFE1E1;stop-opacity:0.8481"/>
	<stop  offset="1" style="stop-color:#D1D3D4"/>
</linearGradient>
<rect x="425.6" y="23" fill="url(#SVGIDREE_8_)" width="39.7" height="92"/>
<linearGradient id="SVGIDREE_9_" gradientUnits="userSpaceOnUse" x1="491.4951" y1="204.4707" x2="491.4951" y2="2">
	<stop  offset="0" style="stop-color:#FFFFFF;stop-opacity:0"/>
	<stop  offset="0.3175" style="stop-color:#FCFCFC;stop-opacity:0.3175"/>
	<stop  offset="0.5913" style="stop-color:#F1F2F2;stop-opacity:0.5913"/>
	<stop  offset="0.8481" style="stop-color:#DFE1E1;stop-opacity:0.8481"/>
	<stop  offset="1" style="stop-color:#D1D3D4"/>
</linearGradient>
<rect x="468.8" y="2" fill="url(#SVGIDREE_9_)" width="45.4" height="202.5"/>
<linearGradient id="SVGIDREE_10_" gradientUnits="userSpaceOnUse" x1="511.0332" y1="184.333" x2="511.0332" y2="76.3369">
	<stop  offset="0" style="stop-color:#FFFFFF;stop-opacity:0"/>
	<stop  offset="0.3175" style="stop-color:#FCFCFC;stop-opacity:0.3175"/>
	<stop  offset="0.5913" style="stop-color:#F1F2F2;stop-opacity:0.5913"/>
	<stop  offset="0.8481" style="stop-color:#DFE1E1;stop-opacity:0.8481"/>
	<stop  offset="1" style="stop-color:#D1D3D4"/>
</linearGradient>
<rect x="507.1" y="76.3" fill="url(#SVGIDREE_10_)" width="7.9" height="108"/>
<linearGradient id="SVGIDREE_11_" gradientUnits="userSpaceOnUse" x1="541.3262" y1="203.9824" x2="541.3262" y2="63.3291">
	<stop  offset="0" style="stop-color:#FFFFFF;stop-opacity:0"/>
	<stop  offset="0.3175" style="stop-color:#FCFCFC;stop-opacity:0.3175"/>
	<stop  offset="0.5913" style="stop-color:#F1F2F2;stop-opacity:0.5913"/>
	<stop  offset="0.8481" style="stop-color:#DFE1E1;stop-opacity:0.8481"/>
	<stop  offset="1" style="stop-color:#D1D3D4"/>
</linearGradient>
<rect x="515" y="63.3" fill="url(#SVGIDREE_11_)" width="52.7" height="140.7"/>
<g>
	<linearGradient id="SVGIDREE_12_" gradientUnits="userSpaceOnUse" x1="587.8281" y1="297.1943" x2="587.8281" y2="185.2544">
		<stop  offset="0" style="stop-color:#FFFFFF;stop-opacity:0"/>
		<stop  offset="0.3175" style="stop-color:#FCFCFC;stop-opacity:0.3175"/>
		<stop  offset="0.5913" style="stop-color:#F1F2F2;stop-opacity:0.5913"/>
		<stop  offset="0.8481" style="stop-color:#DFE1E1;stop-opacity:0.8481"/>
		<stop  offset="1" style="stop-color:#D1D3D4"/>
	</linearGradient>
	<path fill="url(#SVGIDREE_12_)" d="M563.2,185.3v111.9h49.3V185.3H563.2z M606.5,283h-37.4v-5.3h37.4V283z M606.5,272.4h-37.4v-5.3
		h37.4V272.4z M606.5,261.9h-37.4v-5.3h37.4V261.9z M606.5,251.4h-37.4v-5.3h37.4V251.4z M606.5,240.8h-37.4v-5.3h37.4V240.8z
		 M606.5,230.3h-37.4V225h37.4V230.3z M606.5,219.8h-37.4v-5.3h37.4V219.8z M606.5,209.2h-37.4V204h37.4V209.2z M606.5,198.7h-37.4
		v-5.3h37.4V198.7z"/>
</g>
<linearGradient id="SVGIDREE_13_" gradientUnits="userSpaceOnUse" x1="627.1221" y1="299.96" x2="627.1221" y2="136.334">
	<stop  offset="0" style="stop-color:#FFFFFF;stop-opacity:0"/>
	<stop  offset="0.3175" style="stop-color:#FCFCFC;stop-opacity:0.3175"/>
	<stop  offset="0.5913" style="stop-color:#F1F2F2;stop-opacity:0.5913"/>
	<stop  offset="0.8481" style="stop-color:#DFE1E1;stop-opacity:0.8481"/>
	<stop  offset="1" style="stop-color:#D1D3D4"/>
</linearGradient>
<rect x="612.8" y="136.3" fill="url(#SVGIDREE_13_)" width="28.7" height="163.6"/>
<linearGradient id="SVGIDREE_14_" gradientUnits="userSpaceOnUse" x1="176.5571" y1="314.4131" x2="176.5571" y2="210.1875">
	<stop  offset="0" style="stop-color:#FFFFFF;stop-opacity:0"/>
	<stop  offset="0.3175" style="stop-color:#FCFCFC;stop-opacity:0.3175"/>
	<stop  offset="0.5913" style="stop-color:#F1F2F2;stop-opacity:0.5913"/>
	<stop  offset="0.8481" style="stop-color:#DFE1E1;stop-opacity:0.8481"/>
	<stop  offset="1" style="stop-color:#D1D3D4"/>
</linearGradient>
<rect x="165.6" y="210.2" fill="url(#SVGIDREE_14_)" width="22" height="104.2"/>
<g>
	<linearGradient id="SVGIDREE_15_" gradientUnits="userSpaceOnUse" x1="293.8687" y1="313.6602" x2="293.8687" y2="201.7207">
		<stop  offset="0" style="stop-color:#FFFFFF;stop-opacity:0"/>
		<stop  offset="0.3175" style="stop-color:#FCFCFC;stop-opacity:0.3175"/>
		<stop  offset="0.5913" style="stop-color:#F1F2F2;stop-opacity:0.5913"/>
		<stop  offset="0.8481" style="stop-color:#DFE1E1;stop-opacity:0.8481"/>
		<stop  offset="1" style="stop-color:#D1D3D4"/>
	</linearGradient>
	<path fill="url(#SVGIDREE_15_)" d="M269.2,201.7v111.9h49.3V201.7H269.2z M313.4,299.4H276v-5.3h37.4V299.4z M313.4,288.9H276v-5.3
		h37.4V288.9z M313.4,278.4H276v-5.3h37.4V278.4z M313.4,267.8H276v-5.3h37.4V267.8z M313.4,257.3H276V252h37.4V257.3z M313.4,246.8
		H276v-5.3h37.4V246.8z M313.4,236.2H276V231h37.4V236.2z M313.4,225.7H276v-5.3h37.4V225.7z M313.4,215.2H276v-5.3h37.4V215.2z"/>
</g>
<linearGradient id="SVGIDREE_16_" gradientUnits="userSpaceOnUse" x1="258.0879" y1="315.376" x2="258.0879" y2="200.0034">
	<stop  offset="0" style="stop-color:#FFFFFF;stop-opacity:0"/>
	<stop  offset="0.3175" style="stop-color:#FCFCFC;stop-opacity:0.3175"/>
	<stop  offset="0.5913" style="stop-color:#F1F2F2;stop-opacity:0.5913"/>
	<stop  offset="0.8481" style="stop-color:#DFE1E1;stop-opacity:0.8481"/>
	<stop  offset="1" style="stop-color:#D1D3D4"/>
</linearGradient>
<rect x="246.8" y="200" fill="url(#SVGIDREE_16_)" width="22.6" height="115.4"/>
<linearGradient id="SVGIDREE_17_" gradientUnits="userSpaceOnUse" x1="241.8335" y1="105.6353" x2="241.8335" y2="10">
	<stop  offset="0" style="stop-color:#FFFFFF;stop-opacity:0"/>
	<stop  offset="0.3175" style="stop-color:#FCFCFC;stop-opacity:0.3175"/>
	<stop  offset="0.5913" style="stop-color:#F1F2F2;stop-opacity:0.5913"/>
	<stop  offset="0.8481" style="stop-color:#DFE1E1;stop-opacity:0.8481"/>
	<stop  offset="1" style="stop-color:#D1D3D4"/>
</linearGradient>
<path fill="url(#SVGIDREE_17_)" d="M216.8,10v95.6h50V10H216.8z M260.4,69.4h-36.1v-2.3h36.1V69.4z M260.4,61.7h-36.1v-2.3h36.1V61.7z
	 M260.4,53.9h-36.1v-2.3h36.1V53.9z M260.4,46.2h-36.1v-2.3h36.1V46.2z M260.4,38.5h-36.1v-2.3h36.1V38.5z M260.4,30.7h-36.1v-2.3
	h36.1V30.7z M260.4,23h-36.1v-2.3h36.1V23z"/>
<linearGradient id="SVGIDREE_18_" gradientUnits="userSpaceOnUse" x1="478.7021" y1="205.6689" x2="478.7021" y2="150.8804">
	<stop  offset="0" style="stop-color:#FFFFFF;stop-opacity:0"/>
	<stop  offset="0.3175" style="stop-color:#FCFCFC;stop-opacity:0.3175"/>
	<stop  offset="0.5913" style="stop-color:#F1F2F2;stop-opacity:0.5913"/>
	<stop  offset="0.8481" style="stop-color:#DFE1E1;stop-opacity:0.8481"/>
	<stop  offset="1" style="stop-color:#D1D3D4"/>
</linearGradient>
<rect x="463.4" y="150.9" fill="url(#SVGIDREE_18_)" width="30.6" height="54.8"/>
<g>
	<linearGradient id="SVGIDREE_19_" gradientUnits="userSpaceOnUse" x1="458.0664" y1="300.7539" x2="458.0664" y2="200.3105">
		<stop  offset="0" style="stop-color:#FFFFFF;stop-opacity:0"/>
		<stop  offset="0.3175" style="stop-color:#FCFCFC;stop-opacity:0.3175"/>
		<stop  offset="0.5913" style="stop-color:#F1F2F2;stop-opacity:0.5913"/>
		<stop  offset="0.8481" style="stop-color:#DFE1E1;stop-opacity:0.8481"/>
		<stop  offset="1" style="stop-color:#D1D3D4"/>
	</linearGradient>
	<path fill="url(#SVGIDREE_19_)" d="M429.7,200.3v100.4h56.7V200.3H429.7z M479.8,255.1h-42.2v-4.6h42.2V255.1z M479.8,246.7h-42.2
		v-4.6h42.2V246.7z M479.8,238.2h-42.2v-4.6h42.2V238.2z M479.8,229.8h-42.2v-4.6h42.2V229.8z"/>
</g>
<linearGradient id="SVGIDREE_20_" gradientUnits="userSpaceOnUse" x1="135.4761" y1="370.5791" x2="135.4761" y2="241.0742">
	<stop  offset="0" style="stop-color:#FFFFFF;stop-opacity:0"/>
	<stop  offset="0.43" style="stop-color:#EAEAEB;stop-opacity:0.43"/>
	<stop  offset="1" style="stop-color:#D1D3D4"/>
</linearGradient>
<path fill="url(#SVGIDREE_20_)" d="M102.6,370.6H82.8C66.3,368.3,65,348.1,65,348.1c-0.7-6.4,1.1-13.5,5.2-18.6
	c3.6-4.4,8.2-6.9,8.6-13.1c0.5-5.7-0.5-12.1,2.3-17.4c1.8-3.4,4.3-3,7.3-4.6c3.4-1.6,2.5-3.4,2.7-7.3c0.2-7.3,0.9-15.1,7.3-19.7
	c6.4-4.6,17.1-4.6,21.2-11.7c3.6-6.6,6.1-13.3,14.8-14.7c0,0,0.8-0.1,2.1,0c8.6,1.4,11.1,8,14.8,14.7c4.1,7.1,14.8,7.1,21.2,11.7
	c6.4,4.6,7.1,12.4,7.3,19.7c0.2,3.9-0.7,5.7,2.7,7.3c3,1.6,5.5,1.1,7.3,4.6c2.7,5.3,1.8,11.7,2.3,17.4c0.5,6.2,5,8.7,8.6,13.1
	c4.1,5,5.9,12.1,5.2,18.6c0,0-1.3,20.2-17.8,22.4h-19.8H102.6z"/>
<linearGradient id="SVGIDREE_21_" gradientUnits="userSpaceOnUse" x1="217.6631" y1="318.1006" x2="217.6631" y2="188.1494">
	<stop  offset="0" style="stop-color:#FFFFFF;stop-opacity:0"/>
	<stop  offset="0.3175" style="stop-color:#FCFCFC;stop-opacity:0.3175"/>
	<stop  offset="0.5913" style="stop-color:#F1F2F2;stop-opacity:0.5913"/>
	<stop  offset="0.8481" style="stop-color:#DFE1E1;stop-opacity:0.8481"/>
	<stop  offset="1" style="stop-color:#D1D3D4"/>
</linearGradient>
<path fill="url(#SVGIDREE_21_)" d="M240.8,203.6v-15.4h-5.2v15.4h-3.7v-8.3h-10.2v8.3h-33.5v114.5h59.2V203.6H240.8z M239.1,293h-42.7
	v-4.6h42.7V293z M239.1,285.4h-42.7v-4.6h42.7V285.4z M239.1,277.8h-42.7v-4.6h42.7V277.8z M239.1,270.1h-42.7v-4.6h42.7V270.1z
	 M239.1,262.5h-42.7v-4.6h42.7V262.5z M239.1,254.8h-42.7v-4.6h42.7V254.8z M239.1,247.2h-42.7v-4.6h42.7V247.2z M239.1,239.6h-42.7
	v-4.6h42.7V239.6z M239.1,232h-42.7v-4.6h42.7V232z M239.1,224.3h-42.7v-4.6h42.7V224.3z M239.1,216.4h-42.7v-4.6h42.7V216.4z"/>
<g opacity="0.1">
	<path fill="#5D5D5D" d="M117.8,365c-23.1-0.4-22.4-2.5-61.6,0.2c-23.7-0.5-36.8,4-42.8,5.4c-2.9,2.3,5.2,2.3,12.6,2.8
		c8.2,0.5,15.1,1.7,22.9,2.7c47.9,6.9,115.7,8.3,165.4,8.3c35.4,0,57.2-6.2,92.1-5.8c26.3,0.2,58-9.5,83.1-11.4
		c18.6-1.2,36.7-1,55.3-1.2c10.4,0,30.5,2,40,0.5c15.1-1.5,54-6.7,21-6.7c-12.6,0-77.8-3.1-90.4-4.6c-10.4-1.2-21.2-1.2-31.9-1.4
		c-6,0-11.7,0.2-17.3,0.2c-19.4,0.2-203.9,11.2-222.9,10.1L117.8,365z"/>
</g>
<g opacity="0.1">
	<path fill="#5D5D5D" d="M332.8,360.8c-22.5,0.9-48.1-0.2-69.4,3.3c-8.3,1.2-95.3,2-100.1,5.4c5.9,1.4,83.5,0.1,90.2,0.6
		c7.5,0.5,13.8,1.6,20.9,2.5c43.8,6.3,95.5,4.7,140.9,4.7c64.9,0,90.3,4.2,112.6,4.4c24.1,0.2,43.6-5.8,66.5-7.5
		c17-1.1,22.1-3.6,39-3.7c9.5,0,23.6-0.2,32.2-1.6c13.8-1.4,49.4-6.1,19.2-6.1c-11.6,0-71.1-2.8-82.6-4.2
		c-9.5-1.1-19.3-1.1-29.2-1.2c-5.5,0-10.7,0.2-15.8,0.2c-17.8,0.2-189.6,4.5-206.9,3.6L332.8,360.8z"/>
</g>
<rect x="136.4" y="27.9" fill="#FFFFFF" width="442" height="341.7"/>
<rect x="136.4" y="28" fill="#F23A30" width="442" height="34.2"/>
<g>
	<rect x="195.2" y="39.3" fill="#B71C1C" width="11.6" height="11.6"/>
	<polygon fill="#B71C1C" points="155.7,39.3 159,45.1 162.3,50.9 155.7,50.9 149,50.9 152.3,45.1 	"/>
	<circle fill="#B71C1C" cx="177.8" cy="45.1" r="5.8"/>
</g>
<linearGradient id="SVGIDREE_22_" gradientUnits="userSpaceOnUse" x1="605.5244" y1="463.25" x2="517.5778" y2="431.2401">
	<stop  offset="0" style="stop-color:#FFFFFF;stop-opacity:0"/>
	<stop  offset="0.1013" style="stop-color:#F6F7F7;stop-opacity:0.1013"/>
	<stop  offset="0.4079" style="stop-color:#E2E3E4;stop-opacity:0.4079"/>
	<stop  offset="0.7099" style="stop-color:#D5D7D8;stop-opacity:0.7099"/>
	<stop  offset="1" style="stop-color:#D1D3D4"/>
</linearGradient>
<rect x="515.5" y="436.9" fill="url(#SVGIDREE_22_)" width="92.1" height="20.7"/>
<linearGradient id="SVGIDREE_23_" gradientUnits="userSpaceOnUse" x1="594.8438" y1="430.7568" x2="502.8392" y2="397.2699">
	<stop  offset="0" style="stop-color:#FFFFFF;stop-opacity:0"/>
	<stop  offset="0.1013" style="stop-color:#F6F7F7;stop-opacity:0.1013"/>
	<stop  offset="0.4079" style="stop-color:#E2E3E4;stop-opacity:0.4079"/>
	<stop  offset="0.7099" style="stop-color:#D5D7D8;stop-opacity:0.7099"/>
	<stop  offset="1" style="stop-color:#D1D3D4"/>
</linearGradient>
<polygon fill="url(#SVGIDREE_23_)" points="594.9,430.6 511.4,430.6 502.1,425.4 502.1,399.3 591.7,399.3 591.7,422.4 "/>
<linearGradient id="SVGIDREE_24_" gradientUnits="userSpaceOnUse" x1="539.418" y1="393.3936" x2="539.418" y2="370.9561">
	<stop  offset="0" style="stop-color:#FFFFFF;stop-opacity:0"/>
	<stop  offset="0.1013" style="stop-color:#F6F7F7;stop-opacity:0.1013"/>
	<stop  offset="0.4079" style="stop-color:#E2E3E4;stop-opacity:0.4079"/>
	<stop  offset="0.7099" style="stop-color:#D5D7D8;stop-opacity:0.7099"/>
	<stop  offset="1" style="stop-color:#D1D3D4"/>
</linearGradient>
<rect x="495.1" y="371" fill="url(#SVGIDREE_24_)" width="88.6" height="22.4"/>
<g>
	<path fill="#FFD7B3" d="M590.1,303.3c0,0,15.1,13.7,5.8,21.4C586.7,332.3,583.4,313.3,590.1,303.3z"/>
	<path fill="#FFD7B3" d="M612.9,449.4l1,10.2c0,0-4.1-0.6-6.6,0.6l-2.1-9.9C605.1,450.3,608.8,445,612.9,449.4z"/>
	<path fill="#FFD7B3" d="M547.9,370.3l-0.5,7.7c0,0-2.8,4-5.4,1.8c-2.6-2.2-3.9-9.7-3.9-9.7S544.7,365.1,547.9,370.3z"/>
	<path fill="#3E4265" d="M549.1,382.5c0.7-3.4-1.8-4.9-1.8-4.9c-2.9-3.1-9.8-0.3-9.8-0.3c-3.6-3.7-6.6-0.8-6.6-0.8
		c-4.7,4.3,8,8.9,8,8.9S547.8,388.5,549.1,382.5z"/>
	<path fill="#3E4265" d="M612.9,458c0,0,1.6,0,2.3,2.6c1.1,4,2.5,7.7,0.6,9.7c0,0-0.4,0.5-1.2,0.7c-1.3,0.4-3.6,0.9-4.5-0.1
		c0,0-0.1-1.4-1.2-1.4c-0.3,0-11.7-0.3-10.4-5c0.6-2.1,6.1-1.1,7.6-2.5c1.4-1.4-0.9-1.3,1.6-2.7C609.9,458,611.6,457.7,612.9,458z"
		/>
	<path fill="#FFD7B3" d="M564.8,269.9c0,0-3.8,6.5,4.1,9.7c0,0,11,5.4-17.1,0.9c0,0-3.7-0.5-3.6-2.6c0.2-2.1,1.5-7,0.1-7.1
		c-1.4-0.1-5.3,1.8-5.4-8.9c0,0-0.8-2.2-0.7-3.4c0-0.7-0.7-5.1,0-7.8c0.4-1.8,2.2-2,2.6-3C545.9,245.4,564.7,261,564.8,269.9z"/>
	<path fill="#1E1E1E" d="M566,245.8c0,0,2,2.5,1.3,7.6c-0.5,4.1-0.8,6.2-0.9,8.1s-1,5.5-2.9,8.9c-2.8,5.2-9.3,1.6-11.5-0.1
		c-2.3-1.8-4.4-6.8-3.5-7.6c4.2-4.2,1-7-0.2-5.7c-1.4,1.6-1.4,1.4-2.4-1.3c-1-2.6-0.3-4.6-2.8-5.1c-2.5-0.5-5.9-6.2-3.2-9.6
		c2.7-3.4,12.6-2.2,17.2-0.4C561.7,242.5,562.1,241.7,566,245.8z"/>
	<path fill="#FFD7B3" d="M524.1,272.9c0,0-10.1-3.2-10.2-6.4c-0.1-3.2-1.5-25.8-1.5-29.8c-0.1-4,2.3-4.8,1.5-6.7
		c-0.8-1.9-2.4,0.5-2.8,0.1c-0.4-0.3-0.9-10.2-3.2-7c-2.3,3.2-3.3,6.9,0.1,12.8c0,0-3.3,26.4-2.4,32.4c1,6,13.1,14.6,13.1,14.6
		S525.6,278.2,524.1,272.9z"/>
	<path fill="#3E4265" d="M614.6,448.8c0,0-4.9,3.3-11.2,1.1c0,0-4.7-18.2-7.5-25c-1.9-4.6-10.5-19.4-18.3-43.1c0,0-1.2-3.5-2.2-5.2
		c-1-1.7-6.8-2.9-12-10.7c0,0-5.9-3.5-7.5-4.9c-1.5-1.3-7.9-7-10.1-8.4c-0.1,0-0.2-0.1-0.2-0.1l3.9,17.2c0,0-4,2-11.9,0.2
		c0,0-15.9-40.1-10.3-46.1c0,0,8.2-10.9,23.5,3.3c0,0,11.3,1.3,15.8,3.2c4.5,1.8,13.8,8.2,20,11.8c6.2,3.6,16.1,19.3,16.1,21.9
		c-0.1,2.6,0.1,5.5,0.1,5.5s4,34.3,4.3,35.2C607.4,405.4,614.6,448.8,614.6,448.8z"/>
	<path fill="#2C345B" d="M602.6,368.5c0,0-8.4-13.3-17.8-18.7c-9.4-5.4-12-5.7-22-11.3c0,0-8.4-1.9-11.1-10.8
		c-3.8-12.6-12.8-22.3-14.4-30.8c0,0-18.2-9-19-13c0,0,1.7-7.5,5.6-11.8c0,0,15.2,5,17.4,5.1c2.2,0.1,2.1-1.9,6.5,0.3
		c4.4,2.2,19.2,2.8,21.5,1.5c0,0,4.7-2.9,12.2,5.5c0,0,5.9,3.8,12.7,34C594.2,318.4,607.5,363.5,602.6,368.5z"/>
	<path fill="#252A4E" d="M523,281.6c2.9,2.1,6.1,3.6,9.4,4.9c2.7,1.1,5.4,2.2,8.2,3.2c6.3,3.1,7,20.1,9.6,29.3
		c2,7.3,3.1,10.9,10.7,18.8c-2.1-0.6-6.7-3.3-9.1-10.1c-4.5-12.4-12.8-22.3-14.4-30.8c0,0-18.2-9-19-13c0,0,0.5-2.1,1.5-4.7
		C520.9,280,521.9,280.8,523,281.6z"/>
</g>
<g>
	<g>
		<path fill="#EF5350" d="M126.1,312.2c-2.8-1.8-3.6-9.3-7.2-13.2c-3.6-4-5.2-9.5-6.6-14.5c-3-9.7,2.4-18.9-1.2-29
			c-2.8-7.9-8.7-23,2.2-28c4.2-2,3.8,1.2,4,5.2c0.2,4.8-1,10.3,0.4,14.9c1,3.2,3.6,4.6,5.4,7.3c1.8,2.4,2.4,5.4,2.6,8.5
			c0.2,2.4-0.6,5.2,0.4,7.7c1.2,3.4,5,5.8,6.6,9.3c2.6,5.4,5.2,12.1,1.2,17.1c-2.8,3.6-6.4,6.9-7.9,11.7c0,0.4-0.2,0.8-0.2,1.2
			L126.1,312.2z"/>
	</g>
	<g>
		<path fill="#B71C1C" d="M138.3,319.8c0.3-3-4.3-13.6-5.3-29.4c-0.4-6.3,3.6-15.4,2.8-22.1c-0.9-7.6,2.6-9.1,6.9-14.5
			c3.2-4,3.2-10.7,2.2-15.5c-0.8-3.6-2.6-6.6-1.2-10.5c1.2-3,3.8-4.4,4.4-7.7c0.6-3.8-0.4-7.7,0.8-11.5c1.2-3.2,4-7.5,7.3-9.3
			c4-2.4,4.6,0,5.6,4c1.6,6.6,2,13.7,0.6,20.3c-1.2,5.8-3.4,12.1-1.6,18.1c3.2,10.1,15.7,21.2,9.5,32.4c-1.4,2.8-3.8,4.6-5.4,7.3
			c-1.8,2.6-3,5.4-4.8,8c-3,4-3.8,9.9-7.5,13.5c-5.2,5.4-10.4,10.4-14.2,17.9V319.8z"/>
	</g>
	<path fill="#EF5350" d="M142,319.5c0.7,2.5,8.5,29.8,7.6,33.5c-0.9,3.9,0.1,10.8-5.5,17.4h-6.5h-4.7h-6.5
		c-5.6-6.6-4.6-13.5-5.5-17.4c-0.9-3.7,6.8-30.6,7.6-33.5L142,319.5z"/>
	<g>
		<path fill="#B71C1C" d="M143.2,357.2c-0.4-1.4-0.4-2.4-1.9-3c-3.4-1.4-8.5-1.6-7.8-6.6c0.6-4,2-7.2-1.5-10.4
			c-3.4-3-4.7-6.7-5.2-10.8c0,0,0,0.1-0.1,0.2c-2.5,9-6.2,23.7-5.6,26.4c0.9,3.9-0.1,10.8,5.5,17.3h6.5h4.7h6.6
			c2.3-2.7,3.4-5.4,4.1-8C145.7,361.6,143.9,359.8,143.2,357.2z"/>
	</g>
	<g>
		<g>
			<path fill="#9D2229" d="M116.2,271c0,3.1-0.2,6.2,0.6,9.2c0.5,1.7,2.3,4.6,4.4,4.3c1.8-0.3-2.4-8.2-2.1-1.7
				c0.2,2.9,1.6,4.9,3.5,7.1c1.4,1.6,2.8,3.1,3.5,5.1c0.4,1.1,0.1,2.2,0.4,3.3c0.3,1.2,0.8,2.1,1.3,3.1c1.1,2,0.7,5,0.5,7.3
				c-0.1,1.7-0.5,3.4-0.7,5.1c-0.3,2.3-0.1,5.1,2.2,6.3c0.6,0.3,1.1-0.6,0.5-0.9c-3.7-1.8-1-9.1-1-12.4c0-2.4,0.1-4.4-1.1-6.6
				c-1.4-2.6-0.8-5.4-2.4-7.9c-1.2-1.9-2.8-3.3-4.1-5.1c-0.8-1.1-1.3-2.3-1.5-3.6c-0.1-0.4-0.1-0.9-0.1-1.3c0-0.2-0.3-1.1,0-0.6
				c1.5,2.6-1.1,0.7-1.7-0.3c-0.7-1.1-0.9-2.5-1-3.7c-0.3-2.2-0.1-4.4-0.1-6.6C117.2,270.3,116.2,270.3,116.2,271L116.2,271z"/>
		</g>
	</g>
	<g>
		<g>
			<path fill="#EF5350" d="M136.4,318.7c-1.7-3.8,0.8-8.8,2.5-12.2c1.6-3.4,3.3-7.6,6.8-9.4c-0.2-0.1-0.5-0.2-0.7-0.3
				c-0.1,0.3-0.2,0.6-0.4,0.9c0.2,0.1,0.4,0.2,0.6,0.3c-1.3-6,3.3-8.3,7.1-11.7c3.4-3.1,2.7-7.3,1.6-11.3c-0.7-2.4-1.3-4.8-2.1-7.2
				c-0.6-1.7-1.1-3.6,1.2-4.3c0.8-0.3,1.6-0.5,2.4-0.9c3.7-1.9,5.5-6.5,6.5-10.3c0.2-0.6-0.8-0.9-1-0.3c-0.7,2.7-1.7,5.3-3.4,7.5
				c-0.9,1.2-2.2,2.1-3.6,2.6c-0.7,0.2-1.6,0.3-2.2,0.7c-1.2,0.7-1.5,1.7-1.3,3.1c0.3,2.2,1.3,4.6,1.9,6.8c0.9,3,2.1,6.2,1.6,9.5
				c-0.5,2.6-3.2,4.3-5.1,5.7c-3.5,2.7-5.4,5.8-4.4,10.3c0.1,0.3,0.4,0.4,0.6,0.3c1.1-0.3,1.4-1,1.1-2.1c-0.1-0.3-0.4-0.5-0.7-0.3
				c-4,2.1-5.8,6.9-7.6,10.7c-1.7,3.5-3.8,8.4-2,12.2C135.8,319.7,136.6,319.2,136.4,318.7L136.4,318.7z"/>
		</g>
	</g>
	<g>
		<g>
			<path fill="#9D2229" d="M132.5,226.7c-0.4,2.3-0.5,4.6-0.3,6.9c0.2,2.4,1.1,4.6,1.4,6.9c0.2,1.7,0.2,3.4,0.6,5.1
				c0.6,2.4,2.9,3.8,3.1,6.2c0.4,3.7-1.2,7.4-1.2,11.1c0,3.3,3.1,5.1,5.1,7.2c3.8,3.9-2.3,8-4.7,10.7c-3,3.3-2.9,8-2.8,12.2
				c0.1,2.6,0.4,5.2,0.5,7.8c0.1,2.7-0.7,5.4-1.7,7.9c-2.1,5.5-2.1,11.4-3.9,16.9c-0.2,0.6,0.8,0.9,1,0.3c1.7-5.3,1.9-10.9,3.6-16.1
				c0.7-2.1,1.6-4.1,1.9-6.4c0.3-2.9,0-5.8-0.2-8.6c-0.2-2.9-0.2-5.8,0.2-8.7c0.4-2.5,1.8-4.3,3.5-6c1.9-1.9,5.5-4.7,4.9-7.8
				c-0.6-3.2-4.2-4.8-5.9-7.3c-1.1-1.6-0.4-4.4-0.1-6.1c0.3-2,0.7-3.9,0.8-5.9c0.1-1.4-0.1-2.7-0.8-3.9c-0.5-0.9-1.4-1.6-2-2.6
				c-0.7-1.2-0.8-2.8-0.9-4.2c-0.4-5.3-2.3-10-1.3-15.4C133.6,226.4,132.6,226.1,132.5,226.7L132.5,226.7z"/>
		</g>
	</g>
	<g>
		<g>
			<path fill="#FFFFFF" d="M133.2,319.6c2.1-4.1,2.8-8.7,4-13.1c1.3-5.2,4.1-9.3,7.4-13.5c2.5-3.2,5-6.4,6.6-10.2
				c1.9-4.7,1.3-10.2,1-15.1c-0.2-4,0.3-7.9,0.6-11.9c0.2-3.5,0.2-7,0.3-10.5c0.3-10.2,1.4-20.2,3.9-30.1c0.2-0.6-0.8-0.9-1-0.3
				c-2.3,9.3-3.5,18.8-3.8,28.3c-0.1,3.5-0.2,7-0.3,10.5c-0.1,3.8-0.8,7.5-0.8,11.2c0,5.4,1,10.9-0.5,16.2
				c-1.3,4.7-4.8,8.6-7.8,12.3c-2.5,3.2-4.6,6.4-6,10.3c-1.8,5.1-2.2,10.5-4.6,15.4C132,319.6,132.9,320.1,133.2,319.6L133.2,319.6z
				"/>
		</g>
	</g>
	<g>
		<rect x="125.4" y="318.3" fill="#9D2229" width="18.5" height="2.4"/>
	</g>
</g>
<g id="one">
	<path fill="#F7F7F7" stroke="#F4F4F4" stroke-miterlimit="10" d="M490.6,168.6c0,3.3-2.7,6-6,6H224.2c-3.3,0-6-2.7-6-6v-52
		c0-3.3,2.7-6,6-6h260.4c3.3,0,6,2.7,6,6V168.6z"/>
	<g>
		<g>
			<path fill="#3E4265" d="M284.7,146c-0.6,0-1.1-0.1-1.6-0.3c-0.5-0.2-0.9-0.5-1.3-0.9c-0.4-0.4-0.7-0.8-0.9-1.3
				c-0.2-0.5-0.3-1-0.3-1.6c0-0.6,0.1-1.1,0.3-1.6c0.2-0.5,0.5-0.9,0.9-1.3c0.4-0.4,0.8-0.7,1.3-0.9c0.5-0.2,1-0.3,1.6-0.3
				c0.6,0,1.1,0.1,1.6,0.3c0.5,0.2,0.9,0.5,1.3,0.9c0.4,0.4,0.7,0.8,0.9,1.3c0.2,0.5,0.3,1,0.3,1.6c0,0.6-0.1,1.1-0.3,1.6
				c-0.2,0.5-0.5,0.9-0.9,1.3c-0.4,0.4-0.8,0.7-1.3,0.9C285.8,145.9,285.3,146,284.7,146z M284.7,144.6c0.4,0,0.7-0.1,1-0.2
				c0.3-0.1,0.6-0.3,0.8-0.6c0.2-0.2,0.4-0.5,0.6-0.9c0.1-0.3,0.2-0.7,0.2-1.1c0-0.4-0.1-0.8-0.2-1.1c-0.1-0.3-0.3-0.6-0.6-0.9
				c-0.2-0.2-0.5-0.4-0.8-0.5c-0.3-0.1-0.7-0.2-1-0.2c-0.4,0-0.7,0.1-1,0.2c-0.3,0.1-0.6,0.3-0.8,0.5c-0.2,0.2-0.4,0.5-0.6,0.9
				c-0.1,0.3-0.2,0.7-0.2,1.1c0,0.4,0.1,0.8,0.2,1.1c0.1,0.3,0.3,0.6,0.6,0.9c0.2,0.2,0.5,0.4,0.8,0.6
				C284,144.6,284.3,144.6,284.7,144.6z"/>
			<path fill="#3E4265" d="M289.8,140.5h1.4v0.7h0.1c0.1-0.1,0.2-0.3,0.3-0.4c0.1-0.1,0.2-0.2,0.4-0.3c0.1-0.1,0.3-0.1,0.4-0.2
				c0.2-0.1,0.3-0.1,0.5-0.1c0.2,0,0.4,0,0.5,0.1c0.1,0,0.3,0.1,0.3,0.2l-0.4,1.3c-0.1,0-0.2-0.1-0.3-0.1c-0.1,0-0.2,0-0.4,0
				c-0.2,0-0.4,0-0.5,0.1s-0.3,0.2-0.4,0.3c-0.1,0.1-0.2,0.3-0.3,0.5c-0.1,0.2-0.1,0.4-0.1,0.6v2.7h-1.4V140.5z"/>
			<path fill="#3E4265" d="M298,145.2L298,145.2c-0.2,0.2-0.4,0.4-0.7,0.6c-0.3,0.2-0.6,0.2-1,0.2c-0.3,0-0.7-0.1-1-0.2
				c-0.3-0.1-0.6-0.3-0.8-0.6c-0.2-0.3-0.4-0.6-0.6-0.9c-0.1-0.4-0.2-0.7-0.2-1.2s0.1-0.8,0.2-1.2c0.1-0.4,0.3-0.7,0.6-0.9
				c0.2-0.3,0.5-0.5,0.8-0.6s0.6-0.2,1-0.2c0.4,0,0.8,0.1,1,0.2c0.3,0.2,0.5,0.4,0.6,0.6h0.1l-0.1-0.8V138h1.4v7.9H298V145.2z
				 M296.6,144.7c0.2,0,0.4,0,0.5-0.1c0.2-0.1,0.3-0.2,0.5-0.3c0.1-0.1,0.2-0.3,0.3-0.5c0.1-0.2,0.1-0.4,0.1-0.6
				c0-0.2,0-0.5-0.1-0.6c-0.1-0.2-0.2-0.4-0.3-0.5c-0.1-0.1-0.3-0.2-0.5-0.3c-0.2-0.1-0.4-0.1-0.5-0.1c-0.2,0-0.4,0-0.5,0.1
				c-0.2,0.1-0.3,0.2-0.5,0.3c-0.1,0.1-0.2,0.3-0.3,0.5c-0.1,0.2-0.1,0.4-0.1,0.6c0,0.2,0,0.4,0.1,0.6c0.1,0.2,0.2,0.4,0.3,0.5
				c0.1,0.1,0.3,0.2,0.5,0.3C296.2,144.7,296.4,144.7,296.6,144.7z"/>
			<path fill="#3E4265" d="M305.6,144.6c-0.2,0.4-0.6,0.8-1,1.1c-0.4,0.3-0.9,0.4-1.5,0.4c-0.4,0-0.8-0.1-1.1-0.2
				c-0.3-0.1-0.7-0.3-0.9-0.6s-0.5-0.6-0.6-0.9c-0.1-0.3-0.2-0.7-0.2-1.1c0-0.4,0.1-0.8,0.2-1.1c0.1-0.3,0.3-0.7,0.6-0.9
				c0.3-0.3,0.5-0.5,0.9-0.6s0.7-0.2,1.1-0.2c0.4,0,0.8,0.1,1.2,0.2c0.3,0.1,0.6,0.3,0.8,0.6c0.2,0.3,0.4,0.6,0.5,0.9
				s0.2,0.7,0.2,1.1c0,0.1,0,0.1,0,0.1c0,0,0,0.1,0,0.1c0,0,0,0.1,0,0.1h-4.1c0,0.2,0.1,0.4,0.2,0.6c0.1,0.2,0.2,0.3,0.3,0.4
				s0.3,0.2,0.4,0.2c0.2,0,0.3,0.1,0.5,0.1c0.3,0,0.6-0.1,0.8-0.2c0.2-0.2,0.4-0.3,0.5-0.6L305.6,144.6z M304.3,142.5
				c0-0.1,0-0.2-0.1-0.3s-0.1-0.2-0.2-0.3s-0.2-0.2-0.4-0.3c-0.2-0.1-0.3-0.1-0.6-0.1c-0.3,0-0.6,0.1-0.8,0.3s-0.4,0.4-0.5,0.7
				H304.3z"/>
			<path fill="#3E4265" d="M306.7,140.5h1.4v0.7h0.1c0.1-0.1,0.2-0.3,0.3-0.4c0.1-0.1,0.2-0.2,0.4-0.3c0.1-0.1,0.3-0.1,0.4-0.2
				c0.2-0.1,0.3-0.1,0.5-0.1c0.2,0,0.4,0,0.5,0.1c0.1,0,0.3,0.1,0.3,0.2l-0.4,1.3c-0.1,0-0.2-0.1-0.3-0.1c-0.1,0-0.2,0-0.4,0
				c-0.2,0-0.4,0-0.5,0.1s-0.3,0.2-0.4,0.3c-0.1,0.1-0.2,0.3-0.3,0.5c-0.1,0.2-0.1,0.4-0.1,0.6v2.7h-1.4V140.5z"/>
			<path fill="#3E4265" d="M314.1,145.9l0.3-2.1h-1.3l0.2-1.1h1.3l0.2-1.2h-1.3l0.2-1.1h1.3l0.3-2h1.2l-0.3,2h1.2l0.3-2h1.2l-0.3,2
				h1.3l-0.2,1.1h-1.3l-0.2,1.2h1.3l-0.2,1.1h-1.3l-0.3,2.1h-1.2l0.3-2.1h-1.2l-0.3,2.1H314.1z M315.8,142.6h1.3l0.2-1.2H316
				L315.8,142.6z"/>
			<path fill="#3E4265" d="M324.1,145.9v-1.4h-3.5v-1.2l3.3-5h1.6v4.8h0.9v1.3h-0.9v1.4H324.1z M324.1,140.5L324.1,140.5l-1.9,2.7
				h1.9V140.5z"/>
			<path fill="#3E4265" d="M327.4,145.9v-1.3c0.4-0.4,0.8-0.8,1.2-1.2c0.2-0.2,0.3-0.3,0.5-0.5s0.3-0.3,0.5-0.5s0.3-0.3,0.4-0.4
				c0.1-0.1,0.2-0.2,0.3-0.3c0.1-0.1,0.2-0.3,0.3-0.4c0.1-0.1,0.2-0.2,0.2-0.3c0.1-0.1,0.1-0.2,0.1-0.3c0-0.1,0-0.2,0-0.3
				c0-0.2-0.1-0.5-0.3-0.6s-0.5-0.3-0.8-0.3c-0.3,0-0.6,0.1-0.8,0.3c-0.2,0.2-0.3,0.4-0.4,0.6l-1.3-0.5c0.1-0.2,0.2-0.4,0.3-0.6
				c0.1-0.2,0.3-0.4,0.5-0.6c0.2-0.2,0.4-0.3,0.7-0.4c0.3-0.1,0.6-0.2,1-0.2c0.4,0,0.7,0.1,1,0.2c0.3,0.1,0.6,0.3,0.8,0.5
				c0.2,0.2,0.4,0.4,0.5,0.7s0.2,0.6,0.2,0.9c0,0.5-0.1,0.9-0.3,1.3c-0.2,0.4-0.5,0.8-0.8,1.1l-0.9,0.9c-0.2,0.2-0.5,0.5-0.8,0.8
				l0,0.1h3v1.3H327.4z"/>
			<path fill="#3E4265" d="M335.1,145.9V140l-1.3,0.6l-0.5-1.2l2.2-1h1.1v7.5H335.1z"/>
			<path fill="#3E4265" d="M341.4,145.9v-1.4h-3.5v-1.2l3.3-5h1.6v4.8h0.9v1.3h-0.9v1.4H341.4z M341.4,140.5L341.4,140.5l-1.9,2.7
				h1.9V140.5z"/>
			<path fill="#3E4265" d="M347.4,146c-0.3,0-0.6,0-0.9-0.1c-0.3-0.1-0.5-0.2-0.8-0.4c-0.2-0.2-0.4-0.4-0.6-0.6
				c-0.2-0.3-0.3-0.5-0.4-0.9l1.4-0.5c0.1,0.4,0.3,0.6,0.5,0.8c0.2,0.2,0.5,0.3,0.9,0.3c0.2,0,0.3,0,0.4-0.1c0.1,0,0.3-0.1,0.4-0.2
				c0.1-0.1,0.2-0.2,0.2-0.3s0.1-0.3,0.1-0.4c0-0.3-0.1-0.6-0.4-0.8c-0.2-0.2-0.6-0.3-1-0.3h-0.6v-1.3h0.6c0.1,0,0.3,0,0.4-0.1
				c0.1,0,0.3-0.1,0.4-0.2s0.2-0.2,0.3-0.3s0.1-0.3,0.1-0.4c0-0.2-0.1-0.5-0.3-0.6c-0.2-0.2-0.4-0.2-0.7-0.2c-0.3,0-0.6,0.1-0.7,0.3
				c-0.2,0.2-0.3,0.4-0.4,0.6l-1.3-0.5c0.1-0.2,0.2-0.4,0.3-0.6s0.3-0.4,0.5-0.5c0.2-0.2,0.4-0.3,0.7-0.4c0.3-0.1,0.6-0.1,0.9-0.1
				c0.4,0,0.7,0.1,1,0.2s0.6,0.2,0.8,0.4c0.2,0.2,0.4,0.4,0.5,0.6s0.2,0.5,0.2,0.8c0,0.2,0,0.4-0.1,0.6c-0.1,0.2-0.1,0.3-0.2,0.5
				c-0.1,0.1-0.2,0.3-0.3,0.4c-0.1,0.1-0.2,0.2-0.3,0.2v0.1c0.4,0.1,0.6,0.4,0.9,0.7c0.2,0.3,0.3,0.7,0.3,1.2c0,0.3-0.1,0.6-0.2,0.9
				c-0.1,0.3-0.3,0.5-0.5,0.7c-0.2,0.2-0.5,0.4-0.8,0.5C348.1,146,347.8,146,347.4,146z"/>
			<path fill="#3E4265" d="M354.3,139.7c-0.1,0-0.2,0-0.4-0.1c-0.1,0-0.2-0.1-0.3-0.2c-0.1-0.1-0.2-0.2-0.2-0.3
				c0-0.1-0.1-0.2-0.1-0.4s0-0.3,0.1-0.4c0-0.1,0.1-0.2,0.2-0.3c0.1-0.1,0.2-0.2,0.3-0.2c0.1,0,0.2-0.1,0.4-0.1
				c0.3,0,0.5,0.1,0.7,0.3s0.3,0.4,0.3,0.7s-0.1,0.5-0.3,0.7S354.5,139.7,354.3,139.7z M353.5,145.9v-5.4h1.4v5.4H353.5z"/>
			<path fill="#3E4265" d="M358.4,146c-0.4,0-0.7,0-0.9-0.1s-0.5-0.2-0.7-0.3c-0.2-0.1-0.4-0.3-0.5-0.5c-0.1-0.2-0.2-0.4-0.3-0.6
				l1.3-0.5c0.1,0.3,0.3,0.5,0.5,0.6c0.2,0.1,0.4,0.2,0.7,0.2c0.3,0,0.5,0,0.6-0.1c0.2-0.1,0.2-0.2,0.2-0.3c0-0.1-0.1-0.3-0.2-0.4
				c-0.1-0.1-0.3-0.2-0.7-0.2l-0.8-0.2c-0.2,0-0.3-0.1-0.5-0.2c-0.2-0.1-0.3-0.2-0.5-0.3c-0.1-0.1-0.3-0.3-0.4-0.5
				c-0.1-0.2-0.1-0.4-0.1-0.6c0-0.3,0.1-0.5,0.2-0.7c0.1-0.2,0.3-0.4,0.5-0.5c0.2-0.1,0.4-0.3,0.7-0.3s0.6-0.1,0.9-0.1
				c0.5,0,1,0.1,1.4,0.3c0.4,0.2,0.7,0.5,0.9,1l-1.2,0.5c-0.1-0.2-0.3-0.4-0.5-0.5s-0.4-0.1-0.6-0.1c-0.2,0-0.4,0-0.5,0.1
				c-0.2,0.1-0.2,0.2-0.2,0.3c0,0.1,0.1,0.2,0.2,0.3c0.1,0.1,0.3,0.1,0.5,0.2l0.8,0.2c0.5,0.1,1,0.3,1.2,0.6c0.3,0.3,0.4,0.6,0.4,1
				c0,0.2-0.1,0.5-0.2,0.7c-0.1,0.2-0.3,0.4-0.5,0.6c-0.2,0.2-0.4,0.3-0.7,0.4C359.1,146,358.8,146,358.4,146z"/>
			<path fill="#3E4265" d="M367.4,145.3L367.4,145.3c-0.3,0.2-0.5,0.4-0.7,0.5s-0.5,0.2-0.9,0.2c-0.3,0-0.5,0-0.8-0.1
				c-0.2-0.1-0.5-0.2-0.6-0.4c-0.2-0.2-0.3-0.4-0.4-0.6s-0.2-0.5-0.2-0.7c0-0.3,0.1-0.5,0.2-0.8c0.1-0.2,0.3-0.4,0.5-0.6
				c0.2-0.2,0.4-0.3,0.7-0.4c0.3-0.1,0.6-0.1,0.9-0.1c0.4,0,0.6,0,0.9,0.1c0.2,0.1,0.4,0.1,0.6,0.2v-0.2c0-0.3-0.1-0.5-0.3-0.7
				c-0.2-0.2-0.5-0.3-0.8-0.3c-0.5,0-0.9,0.2-1.3,0.6l-1-0.7c0.6-0.7,1.4-1.1,2.3-1.1c0.8,0,1.5,0.2,1.9,0.6c0.4,0.4,0.7,1,0.7,1.7
				v3.2h-1.4V145.3z M367.4,143.7c-0.2-0.1-0.3-0.1-0.5-0.2c-0.2,0-0.4-0.1-0.6-0.1c-0.3,0-0.6,0.1-0.8,0.2
				c-0.2,0.2-0.3,0.3-0.3,0.6s0.1,0.4,0.3,0.5c0.2,0.1,0.4,0.2,0.6,0.2c0.2,0,0.4,0,0.5-0.1c0.2-0.1,0.3-0.2,0.4-0.3
				c0.1-0.1,0.2-0.2,0.3-0.4C367.3,144,367.4,143.8,367.4,143.7z"/>
			<path fill="#3E4265" d="M369.2,140.5h1.6l0.9,3.4h0.1l1.1-3.4h1.5l1.1,3.4h0.1l0.9-3.4h1.6l-1.7,5.4h-1.6l-1.1-3.4h-0.1l-1.1,3.4
				H371L369.2,140.5z"/>
			<path fill="#3E4265" d="M381.9,145.3L381.9,145.3c-0.3,0.2-0.5,0.4-0.7,0.5s-0.5,0.2-0.9,0.2c-0.3,0-0.5,0-0.8-0.1
				c-0.2-0.1-0.5-0.2-0.6-0.4c-0.2-0.2-0.3-0.4-0.4-0.6s-0.2-0.5-0.2-0.7c0-0.3,0.1-0.5,0.2-0.8c0.1-0.2,0.3-0.4,0.5-0.6
				c0.2-0.2,0.4-0.3,0.7-0.4c0.3-0.1,0.6-0.1,0.9-0.1c0.4,0,0.6,0,0.9,0.1c0.2,0.1,0.4,0.1,0.6,0.2v-0.2c0-0.3-0.1-0.5-0.3-0.7
				c-0.2-0.2-0.5-0.3-0.8-0.3c-0.5,0-0.9,0.2-1.3,0.6l-1-0.7c0.6-0.7,1.4-1.1,2.3-1.1c0.8,0,1.5,0.2,1.9,0.6c0.4,0.4,0.7,1,0.7,1.7
				v3.2h-1.4V145.3z M381.9,143.7c-0.2-0.1-0.3-0.1-0.5-0.2c-0.2,0-0.4-0.1-0.6-0.1c-0.3,0-0.6,0.1-0.8,0.2
				c-0.2,0.2-0.3,0.3-0.3,0.6s0.1,0.4,0.3,0.5c0.2,0.1,0.4,0.2,0.6,0.2c0.2,0,0.4,0,0.5-0.1c0.2-0.1,0.3-0.2,0.4-0.3
				c0.1-0.1,0.2-0.2,0.3-0.4C381.9,144,381.9,143.8,381.9,143.7z"/>
			<path fill="#3E4265" d="M385.3,139.7c-0.1,0-0.2,0-0.4-0.1c-0.1,0-0.2-0.1-0.3-0.2c-0.1-0.1-0.2-0.2-0.2-0.3
				c0-0.1-0.1-0.2-0.1-0.4s0-0.3,0.1-0.4c0-0.1,0.1-0.2,0.2-0.3c0.1-0.1,0.2-0.2,0.3-0.2c0.1,0,0.2-0.1,0.4-0.1
				c0.3,0,0.5,0.1,0.7,0.3s0.3,0.4,0.3,0.7s-0.1,0.5-0.3,0.7S385.5,139.7,385.3,139.7z M384.5,145.9v-5.4h1.4v5.4H384.5z"/>
			<path fill="#3E4265" d="M387.8,141.7h-0.9v-1.2h0.9v-1.7h1.4v1.7h1.3v1.2h-1.3v2.2c0,0.1,0,0.2,0,0.4c0,0.1,0.1,0.2,0.1,0.3
				c0.1,0.1,0.2,0.2,0.4,0.2c0.1,0,0.2,0,0.3,0s0.1-0.1,0.2-0.1l0.4,1.3c-0.2,0.1-0.4,0.1-0.5,0.2s-0.4,0.1-0.6,0.1
				c-0.3,0-0.5,0-0.7-0.1c-0.2-0.1-0.4-0.2-0.5-0.4c-0.3-0.3-0.5-0.8-0.5-1.4V141.7z"/>
			<path fill="#3E4265" d="M392.5,139.7c-0.1,0-0.2,0-0.4-0.1c-0.1,0-0.2-0.1-0.3-0.2c-0.1-0.1-0.2-0.2-0.2-0.3
				c0-0.1-0.1-0.2-0.1-0.4s0-0.3,0.1-0.4c0-0.1,0.1-0.2,0.2-0.3c0.1-0.1,0.2-0.2,0.3-0.2c0.1,0,0.2-0.1,0.4-0.1
				c0.3,0,0.5,0.1,0.7,0.3s0.3,0.4,0.3,0.7s-0.1,0.5-0.3,0.7S392.8,139.7,392.5,139.7z M391.8,145.9v-5.4h1.4v5.4H391.8z"/>
			<path fill="#3E4265" d="M395.9,141.2L395.9,141.2c0.3-0.3,0.5-0.5,0.8-0.6c0.3-0.2,0.6-0.2,1-0.2c0.3,0,0.6,0.1,0.9,0.2
				c0.3,0.1,0.5,0.3,0.6,0.5c0.2,0.2,0.3,0.4,0.4,0.7c0.1,0.3,0.1,0.6,0.1,0.9v3.3h-1.4v-3.1c0-0.4-0.1-0.7-0.3-0.9
				c-0.2-0.2-0.4-0.3-0.8-0.3c-0.2,0-0.4,0-0.5,0.1s-0.3,0.2-0.4,0.3c-0.1,0.1-0.2,0.3-0.2,0.5s-0.1,0.4-0.1,0.6v2.6h-1.4v-5.4h1.4
				V141.2z"/>
			<path fill="#3E4265" d="M403.3,148.4c-0.4,0-0.7,0-1-0.1c-0.3-0.1-0.6-0.2-0.8-0.4c-0.2-0.2-0.4-0.3-0.5-0.5s-0.3-0.4-0.3-0.6
				l1.4-0.5c0.1,0.3,0.3,0.5,0.5,0.7c0.2,0.2,0.5,0.2,0.8,0.2c0.5,0,0.8-0.1,1.1-0.4c0.3-0.3,0.4-0.7,0.4-1.2v-0.4h-0.1
				c-0.2,0.2-0.4,0.4-0.7,0.6c-0.3,0.1-0.6,0.2-1,0.2c-0.3,0-0.6-0.1-0.9-0.2c-0.3-0.1-0.6-0.3-0.8-0.6c-0.2-0.2-0.4-0.5-0.6-0.9
				c-0.1-0.3-0.2-0.7-0.2-1.1s0.1-0.8,0.2-1.1c0.1-0.3,0.3-0.6,0.6-0.9c0.2-0.2,0.5-0.4,0.8-0.6c0.3-0.1,0.6-0.2,0.9-0.2
				c0.4,0,0.7,0.1,1,0.2c0.3,0.1,0.5,0.3,0.7,0.6h0.1v-0.6h1.4v5c0,0.5-0.1,0.9-0.2,1.2c-0.1,0.4-0.3,0.7-0.6,0.9
				c-0.3,0.3-0.5,0.4-0.9,0.6C404.1,148.3,403.7,148.4,403.3,148.4z M403.4,144.6c0.2,0,0.3,0,0.5-0.1c0.2-0.1,0.3-0.2,0.5-0.3
				s0.2-0.3,0.3-0.5c0.1-0.2,0.1-0.4,0.1-0.6c0-0.2,0-0.5-0.1-0.6c-0.1-0.2-0.2-0.3-0.3-0.5s-0.3-0.2-0.5-0.3
				c-0.2-0.1-0.3-0.1-0.5-0.1s-0.3,0-0.5,0.1c-0.2,0.1-0.3,0.2-0.5,0.3c-0.1,0.1-0.2,0.3-0.3,0.5c-0.1,0.2-0.1,0.4-0.1,0.6
				c0,0.2,0,0.4,0.1,0.6c0.1,0.2,0.2,0.3,0.3,0.5c0.1,0.1,0.3,0.2,0.5,0.3C403,144.5,403.2,144.6,403.4,144.6z"/>
			<path fill="#3E4265" d="M413.1,145.3L413.1,145.3c-0.3,0.2-0.5,0.4-0.7,0.5s-0.5,0.2-0.9,0.2c-0.3,0-0.5,0-0.8-0.1
				c-0.2-0.1-0.5-0.2-0.6-0.4c-0.2-0.2-0.3-0.4-0.4-0.6s-0.2-0.5-0.2-0.7c0-0.3,0.1-0.5,0.2-0.8c0.1-0.2,0.3-0.4,0.5-0.6
				c0.2-0.2,0.4-0.3,0.7-0.4c0.3-0.1,0.6-0.1,0.9-0.1c0.4,0,0.6,0,0.9,0.1c0.2,0.1,0.4,0.1,0.6,0.2v-0.2c0-0.3-0.1-0.5-0.3-0.7
				c-0.2-0.2-0.5-0.3-0.8-0.3c-0.5,0-0.9,0.2-1.3,0.6l-1-0.7c0.6-0.7,1.4-1.1,2.3-1.1c0.8,0,1.5,0.2,1.9,0.6c0.4,0.4,0.7,1,0.7,1.7
				v3.2h-1.4V145.3z M413.1,143.7c-0.2-0.1-0.3-0.1-0.5-0.2c-0.2,0-0.4-0.1-0.6-0.1c-0.3,0-0.6,0.1-0.8,0.2
				c-0.2,0.2-0.3,0.3-0.3,0.6s0.1,0.4,0.3,0.5c0.2,0.1,0.4,0.2,0.6,0.2c0.2,0,0.4,0,0.5-0.1c0.2-0.1,0.3-0.2,0.4-0.3
				c0.1-0.1,0.2-0.2,0.3-0.4C413.1,144,413.1,143.8,413.1,143.7z"/>
			<path fill="#3E4265" d="M415.6,140.5h1.4v0.6h0.1c0.1-0.2,0.3-0.4,0.6-0.6s0.6-0.2,1-0.2c0.3,0,0.7,0.1,1,0.2s0.6,0.3,0.8,0.6
				s0.4,0.6,0.6,0.9c0.1,0.4,0.2,0.7,0.2,1.2s-0.1,0.8-0.2,1.2c-0.1,0.4-0.3,0.7-0.6,0.9s-0.5,0.5-0.8,0.6c-0.3,0.1-0.6,0.2-1,0.2
				c-0.4,0-0.8-0.1-1-0.2c-0.3-0.2-0.5-0.4-0.6-0.6H417l0.1,0.8v2.3h-1.4V140.5z M418.4,144.7c0.2,0,0.4,0,0.5-0.1
				c0.2-0.1,0.3-0.2,0.5-0.3s0.2-0.3,0.3-0.5c0.1-0.2,0.1-0.4,0.1-0.6c0-0.2,0-0.4-0.1-0.6c-0.1-0.2-0.2-0.4-0.3-0.5
				c-0.1-0.1-0.3-0.2-0.5-0.3c-0.2-0.1-0.4-0.1-0.5-0.1c-0.2,0-0.4,0-0.5,0.1c-0.2,0.1-0.3,0.2-0.5,0.3s-0.2,0.3-0.3,0.5
				s-0.1,0.4-0.1,0.6c0,0.2,0,0.5,0.1,0.6s0.2,0.4,0.3,0.5c0.1,0.1,0.3,0.2,0.5,0.3C418.1,144.7,418.2,144.7,418.4,144.7z"/>
			<path fill="#3E4265" d="M422.1,140.5h1.4v0.6h0.1c0.1-0.2,0.3-0.4,0.6-0.6s0.6-0.2,1-0.2c0.3,0,0.7,0.1,1,0.2s0.6,0.3,0.8,0.6
				s0.4,0.6,0.6,0.9c0.1,0.4,0.2,0.7,0.2,1.2s-0.1,0.8-0.2,1.2c-0.1,0.4-0.3,0.7-0.6,0.9s-0.5,0.5-0.8,0.6c-0.3,0.1-0.6,0.2-1,0.2
				c-0.4,0-0.8-0.1-1-0.2c-0.3-0.2-0.5-0.4-0.6-0.6h-0.1l0.1,0.8v2.3h-1.4V140.5z M424.9,144.7c0.2,0,0.4,0,0.5-0.1
				c0.2-0.1,0.3-0.2,0.5-0.3s0.2-0.3,0.3-0.5c0.1-0.2,0.1-0.4,0.1-0.6c0-0.2,0-0.4-0.1-0.6c-0.1-0.2-0.2-0.4-0.3-0.5
				c-0.1-0.1-0.3-0.2-0.5-0.3c-0.2-0.1-0.4-0.1-0.5-0.1c-0.2,0-0.4,0-0.5,0.1c-0.2,0.1-0.3,0.2-0.5,0.3s-0.2,0.3-0.3,0.5
				s-0.1,0.4-0.1,0.6c0,0.2,0,0.5,0.1,0.6s0.2,0.4,0.3,0.5c0.1,0.1,0.3,0.2,0.5,0.3C424.5,144.7,424.7,144.7,424.9,144.7z"/>
			<path fill="#3E4265" d="M428.6,140.5h1.4v0.7h0.1c0.1-0.1,0.2-0.3,0.3-0.4c0.1-0.1,0.2-0.2,0.4-0.3c0.1-0.1,0.3-0.1,0.4-0.2
				c0.2-0.1,0.3-0.1,0.5-0.1c0.2,0,0.4,0,0.5,0.1c0.1,0,0.3,0.1,0.3,0.2l-0.4,1.3c-0.1,0-0.2-0.1-0.3-0.1c-0.1,0-0.2,0-0.4,0
				c-0.2,0-0.4,0-0.5,0.1s-0.3,0.2-0.4,0.3c-0.1,0.1-0.2,0.3-0.3,0.5c-0.1,0.2-0.1,0.4-0.1,0.6v2.7h-1.4V140.5z"/>
			<path fill="#3E4265" d="M435.3,140.3c0.4,0,0.8,0.1,1.1,0.2s0.6,0.3,0.9,0.6s0.5,0.6,0.6,0.9c0.1,0.4,0.2,0.7,0.2,1.2
				s-0.1,0.8-0.2,1.2s-0.3,0.7-0.6,0.9s-0.6,0.5-0.9,0.6c-0.3,0.1-0.7,0.2-1.1,0.2s-0.8-0.1-1.1-0.2c-0.3-0.1-0.6-0.3-0.9-0.6
				s-0.5-0.6-0.6-0.9s-0.2-0.7-0.2-1.2s0.1-0.8,0.2-1.2c0.1-0.4,0.3-0.7,0.6-0.9s0.6-0.5,0.9-0.6S434.9,140.3,435.3,140.3z
				 M435.3,144.7c0.2,0,0.4,0,0.5-0.1c0.2-0.1,0.3-0.2,0.5-0.3c0.1-0.1,0.2-0.3,0.3-0.5s0.1-0.4,0.1-0.6c0-0.2,0-0.5-0.1-0.6
				s-0.2-0.4-0.3-0.5s-0.3-0.2-0.5-0.3c-0.2-0.1-0.3-0.1-0.5-0.1c-0.2,0-0.4,0-0.5,0.1c-0.2,0.1-0.3,0.2-0.5,0.3s-0.2,0.3-0.3,0.5
				s-0.1,0.4-0.1,0.6c0,0.2,0,0.5,0.1,0.6s0.2,0.4,0.3,0.5c0.1,0.1,0.3,0.2,0.5,0.3C435,144.7,435.1,144.7,435.3,144.7z"/>
			<path fill="#3E4265" d="M438.4,140.5h1.6l1.3,3.4h0.1l1.4-3.4h1.6l-2.3,5.4h-1.4L438.4,140.5z"/>
			<path fill="#3E4265" d="M448.3,145.3L448.3,145.3c-0.3,0.2-0.5,0.4-0.7,0.5s-0.5,0.2-0.9,0.2c-0.3,0-0.5,0-0.8-0.1
				c-0.2-0.1-0.5-0.2-0.6-0.4c-0.2-0.2-0.3-0.4-0.4-0.6s-0.2-0.5-0.2-0.7c0-0.3,0.1-0.5,0.2-0.8c0.1-0.2,0.3-0.4,0.5-0.6
				c0.2-0.2,0.4-0.3,0.7-0.4c0.3-0.1,0.6-0.1,0.9-0.1c0.4,0,0.6,0,0.9,0.1c0.2,0.1,0.4,0.1,0.6,0.2v-0.2c0-0.3-0.1-0.5-0.3-0.7
				c-0.2-0.2-0.5-0.3-0.8-0.3c-0.5,0-0.9,0.2-1.3,0.6l-1-0.7c0.6-0.7,1.4-1.1,2.3-1.1c0.8,0,1.5,0.2,1.9,0.6c0.4,0.4,0.7,1,0.7,1.7
				v3.2h-1.4V145.3z M448.3,143.7c-0.2-0.1-0.3-0.1-0.5-0.2c-0.2,0-0.4-0.1-0.6-0.1c-0.3,0-0.6,0.1-0.8,0.2
				c-0.2,0.2-0.3,0.3-0.3,0.6s0.1,0.4,0.3,0.5c0.2,0.1,0.4,0.2,0.6,0.2c0.2,0,0.4,0,0.5-0.1c0.2-0.1,0.3-0.2,0.4-0.3
				c0.1-0.1,0.2-0.2,0.3-0.4C448.3,144,448.3,143.8,448.3,143.7z"/>
			<path fill="#3E4265" d="M450.9,145.9V138h1.4v7.9H450.9z"/>
		</g>
	</g>
	<g>
		<g>
			<circle fill="#ECC132" cx="251" cy="142.7" r="11.8"/>
		</g>
		<g>
			<rect x="249.9" y="135.1" fill="#FFFFFF" width="2.2" height="12"/>
			<rect x="249.9" y="148.2" fill="#FFFFFF" width="2.1" height="2.1"/>
		</g>
	</g>
</g>
<g id="three">
	<path fill="#F7F7F7" stroke="#F4F4F4" stroke-miterlimit="10" d="M490.6,313.8c0,3.3-2.7,6-6,6H224.2c-3.3,0-6-2.7-6-6v-52
		c0-3.3,2.7-6,6-6h260.4c3.3,0,6,2.7,6,6V313.8z"/>
	<g>
		<g>
			<path fill="#3E4265" d="M285.2,291.5c-0.7,0-1.3-0.1-1.8-0.4c-0.6-0.2-1-0.6-1.5-1s-0.7-0.9-1-1.5c-0.2-0.6-0.3-1.2-0.3-1.8
				s0.1-1.2,0.3-1.8c0.2-0.6,0.6-1,1-1.5s0.9-0.7,1.5-1c0.6-0.2,1.2-0.4,1.8-0.4c0.7,0,1.3,0.1,1.8,0.4c0.6,0.2,1,0.6,1.5,1
				s0.7,0.9,1,1.5c0.2,0.6,0.3,1.2,0.3,1.8s-0.1,1.2-0.3,1.8c-0.2,0.6-0.6,1-1,1.5s-0.9,0.7-1.5,1
				C286.5,291.4,285.9,291.5,285.2,291.5z M285.2,290c0.4,0,0.8-0.1,1.1-0.2s0.7-0.3,0.9-0.6s0.5-0.6,0.6-0.9
				c0.2-0.4,0.2-0.8,0.2-1.2s-0.1-0.9-0.2-1.2c-0.2-0.4-0.4-0.7-0.6-0.9s-0.6-0.5-0.9-0.6s-0.7-0.2-1.1-0.2s-0.8,0.1-1.1,0.2
				c-0.4,0.1-0.7,0.4-0.9,0.6s-0.5,0.6-0.6,0.9c-0.2,0.4-0.2,0.8-0.2,1.2s0.1,0.9,0.2,1.2c0.2,0.4,0.4,0.7,0.6,0.9s0.6,0.5,0.9,0.6
				C284.4,289.9,284.8,290,285.2,290z"/>
			<path fill="#3E4265" d="M290.9,285.3h1.5v0.8h0.1c0.1-0.1,0.2-0.3,0.3-0.4c0.1-0.1,0.3-0.2,0.4-0.3c0.2-0.1,0.3-0.2,0.5-0.2
				c0.2-0.1,0.3-0.1,0.5-0.1c0.2,0,0.4,0,0.5,0.1c0.2,0,0.3,0.1,0.4,0.2l-0.4,1.4c-0.1,0-0.2-0.1-0.3-0.1c-0.1,0-0.3,0-0.4,0
				c-0.2,0-0.4,0-0.6,0.1c-0.2,0.1-0.3,0.2-0.5,0.4c-0.1,0.2-0.2,0.3-0.3,0.5s-0.1,0.4-0.1,0.7v3h-1.6V285.3z"/>
			<path fill="#3E4265" d="M300,290.6L300,290.6c-0.2,0.3-0.5,0.5-0.8,0.7c-0.3,0.2-0.7,0.3-1.2,0.3c-0.4,0-0.7-0.1-1.1-0.2
				c-0.3-0.2-0.7-0.4-0.9-0.7s-0.5-0.6-0.6-1c-0.2-0.4-0.2-0.8-0.2-1.3s0.1-0.9,0.2-1.3s0.4-0.7,0.6-1c0.3-0.3,0.6-0.5,0.9-0.7
				c0.3-0.2,0.7-0.2,1.1-0.2c0.5,0,0.8,0.1,1.2,0.3c0.3,0.2,0.5,0.4,0.7,0.6h0.1l-0.1-0.9v-2.6h1.6v8.8H300V290.6z M298.4,290.1
				c0.2,0,0.4,0,0.6-0.1c0.2-0.1,0.4-0.2,0.5-0.3c0.1-0.1,0.3-0.3,0.4-0.5s0.1-0.5,0.1-0.7s0-0.5-0.1-0.7c-0.1-0.2-0.2-0.4-0.4-0.5
				c-0.1-0.1-0.3-0.3-0.5-0.3s-0.4-0.1-0.6-0.1c-0.2,0-0.4,0-0.6,0.1c-0.2,0.1-0.4,0.2-0.5,0.3c-0.1,0.1-0.3,0.3-0.4,0.5
				c-0.1,0.2-0.1,0.4-0.1,0.7s0,0.5,0.1,0.7s0.2,0.4,0.4,0.5c0.1,0.1,0.3,0.3,0.5,0.3C298,290,298.2,290.1,298.4,290.1z"/>
			<path fill="#3E4265" d="M308.5,289.9c-0.3,0.5-0.7,0.9-1.1,1.2c-0.5,0.3-1,0.5-1.7,0.5c-0.5,0-0.9-0.1-1.3-0.2
				c-0.4-0.2-0.7-0.4-1-0.7c-0.3-0.3-0.5-0.6-0.7-1c-0.2-0.4-0.2-0.8-0.2-1.3c0-0.4,0.1-0.8,0.2-1.2c0.2-0.4,0.4-0.7,0.6-1
				c0.3-0.3,0.6-0.5,1-0.7c0.4-0.2,0.8-0.3,1.3-0.3c0.5,0,0.9,0.1,1.3,0.2c0.4,0.2,0.7,0.4,0.9,0.7c0.3,0.3,0.4,0.6,0.6,1
				c0.1,0.4,0.2,0.8,0.2,1.2c0,0.1,0,0.1,0,0.1c0,0,0,0.1,0,0.1c0,0,0,0.1,0,0.1h-4.5c0,0.2,0.1,0.5,0.2,0.6
				c0.1,0.2,0.2,0.3,0.4,0.4c0.2,0.1,0.3,0.2,0.5,0.3c0.2,0.1,0.4,0.1,0.6,0.1c0.4,0,0.7-0.1,0.9-0.3c0.2-0.2,0.4-0.4,0.6-0.6
				L308.5,289.9z M307.1,287.6c0-0.1,0-0.2-0.1-0.4c-0.1-0.1-0.2-0.3-0.3-0.4c-0.1-0.1-0.3-0.2-0.4-0.3c-0.2-0.1-0.4-0.1-0.6-0.1
				c-0.3,0-0.6,0.1-0.9,0.3c-0.3,0.2-0.4,0.5-0.6,0.8H307.1z"/>
			<path fill="#3E4265" d="M309.7,285.3h1.5v0.8h0.1c0.1-0.1,0.2-0.3,0.3-0.4c0.1-0.1,0.3-0.2,0.4-0.3c0.2-0.1,0.3-0.2,0.5-0.2
				c0.2-0.1,0.3-0.1,0.5-0.1c0.2,0,0.4,0,0.5,0.1c0.2,0,0.3,0.1,0.4,0.2l-0.4,1.4c-0.1,0-0.2-0.1-0.3-0.1c-0.1,0-0.3,0-0.4,0
				c-0.2,0-0.4,0-0.6,0.1c-0.2,0.1-0.3,0.2-0.5,0.4c-0.1,0.2-0.2,0.3-0.3,0.5s-0.1,0.4-0.1,0.7v3h-1.6V285.3z"/>
			<path fill="#3E4265" d="M318,291.3l0.4-2.4h-1.4l0.2-1.2h1.4l0.2-1.3h-1.4l0.2-1.3h1.4l0.3-2.2h1.4l-0.3,2.2h1.4l0.3-2.2h1.3
				l-0.3,2.2h1.4l-0.2,1.3h-1.4l-0.2,1.3h1.4l-0.2,1.2h-1.4l-0.4,2.4h-1.3l0.3-2.4h-1.4l-0.3,2.4H318z M319.9,287.8h1.4l0.2-1.3
				h-1.4L319.9,287.8z"/>
			<path fill="#3E4265" d="M329,291.3v-1.5h-3.9v-1.3l3.7-5.5h1.7v5.3h1.1v1.5h-1.1v1.5H329z M329,285.3L329,285.3l-2.1,3h2.1V285.3
				z"/>
			<path fill="#3E4265" d="M334.7,291.3v-6.5l-1.5,0.6l-0.6-1.4l2.5-1.2h1.2v8.4H334.7z"/>
			<path fill="#3E4265" d="M340.7,291.5c-0.3,0-0.7,0-1-0.1s-0.6-0.2-0.9-0.4s-0.5-0.4-0.7-0.7c-0.2-0.3-0.4-0.6-0.5-1l1.5-0.6
				c0.1,0.4,0.3,0.7,0.5,0.9c0.3,0.2,0.6,0.3,1,0.3c0.2,0,0.3,0,0.5-0.1c0.2-0.1,0.3-0.1,0.4-0.2s0.2-0.2,0.3-0.3s0.1-0.3,0.1-0.5
				c0-0.4-0.1-0.6-0.4-0.8c-0.3-0.2-0.6-0.3-1.1-0.3h-0.7v-1.5h0.7c0.2,0,0.3,0,0.5-0.1s0.3-0.1,0.4-0.2c0.1-0.1,0.2-0.2,0.3-0.3
				s0.1-0.3,0.1-0.5c0-0.3-0.1-0.5-0.3-0.7c-0.2-0.2-0.5-0.3-0.8-0.3c-0.4,0-0.6,0.1-0.8,0.3c-0.2,0.2-0.3,0.4-0.4,0.6l-1.5-0.6
				c0.1-0.2,0.2-0.4,0.3-0.6c0.1-0.2,0.3-0.4,0.6-0.6s0.5-0.3,0.8-0.4c0.3-0.1,0.6-0.2,1-0.2c0.4,0,0.8,0.1,1.1,0.2
				c0.3,0.1,0.6,0.3,0.9,0.5c0.2,0.2,0.4,0.4,0.6,0.7s0.2,0.6,0.2,0.9c0,0.2,0,0.5-0.1,0.7c-0.1,0.2-0.1,0.4-0.2,0.5
				c-0.1,0.2-0.2,0.3-0.3,0.4c-0.1,0.1-0.3,0.2-0.4,0.3v0.1c0.4,0.2,0.7,0.4,1,0.7c0.3,0.3,0.4,0.8,0.4,1.3c0,0.4-0.1,0.7-0.2,1
				s-0.3,0.6-0.6,0.8s-0.6,0.4-0.9,0.5C341.6,291.5,341.2,291.5,340.7,291.5z"/>
			<path fill="#3E4265" d="M348.5,291.3v-1.5h-3.9v-1.3l3.7-5.5h1.7v5.3h1.1v1.5h-1.1v1.5H348.5z M348.5,285.3L348.5,285.3l-2.1,3
				h2.1V285.3z"/>
			<path fill="#3E4265" d="M355.2,291.5c-0.4,0-0.9-0.1-1.2-0.2s-0.7-0.3-1-0.5s-0.5-0.5-0.6-0.8c-0.1-0.3-0.2-0.6-0.2-1
				c0-0.2,0-0.5,0.1-0.7s0.2-0.4,0.3-0.6c0.1-0.2,0.3-0.3,0.4-0.5c0.2-0.1,0.3-0.2,0.5-0.3v-0.1c-0.3-0.2-0.5-0.4-0.7-0.7
				c-0.2-0.3-0.3-0.6-0.3-1c0-0.3,0.1-0.6,0.2-0.9s0.3-0.5,0.6-0.8c0.2-0.2,0.5-0.4,0.9-0.5c0.3-0.1,0.7-0.2,1.1-0.2
				c0.4,0,0.8,0.1,1.1,0.2c0.3,0.1,0.6,0.3,0.9,0.5c0.2,0.2,0.4,0.5,0.6,0.8c0.1,0.3,0.2,0.6,0.2,0.9c0,0.4-0.1,0.7-0.3,1
				c-0.2,0.3-0.4,0.5-0.7,0.7v0.1c0.2,0.1,0.3,0.2,0.5,0.3s0.3,0.3,0.4,0.5s0.2,0.4,0.3,0.6s0.1,0.4,0.1,0.7c0,0.4-0.1,0.7-0.2,1
				c-0.1,0.3-0.4,0.6-0.6,0.8s-0.6,0.4-1,0.5C356.1,291.5,355.7,291.5,355.2,291.5z M355.2,290.1c0.4,0,0.8-0.1,1-0.3
				c0.3-0.2,0.4-0.5,0.4-0.9c0-0.2,0-0.3-0.1-0.5c-0.1-0.1-0.2-0.3-0.3-0.4c-0.1-0.1-0.3-0.2-0.5-0.2c-0.2-0.1-0.4-0.1-0.6-0.1
				s-0.4,0-0.6,0.1c-0.2,0.1-0.3,0.1-0.5,0.2c-0.1,0.1-0.2,0.2-0.3,0.4s-0.1,0.3-0.1,0.5c0,0.4,0.1,0.7,0.4,0.9
				S354.8,290.1,355.2,290.1z M355.2,286.3c0.3,0,0.6-0.1,0.9-0.3c0.2-0.2,0.3-0.4,0.3-0.8c0-0.3-0.1-0.6-0.3-0.8s-0.5-0.3-0.9-0.3
				s-0.6,0.1-0.9,0.3c-0.2,0.2-0.3,0.4-0.3,0.8c0,0.3,0.1,0.6,0.3,0.8C354.6,286.2,354.9,286.3,355.2,286.3z"/>
			<path fill="#3E4265" d="M363,284.5c-0.1,0-0.3,0-0.4-0.1c-0.1-0.1-0.2-0.1-0.3-0.2s-0.2-0.2-0.2-0.3c-0.1-0.1-0.1-0.3-0.1-0.4
				c0-0.1,0-0.3,0.1-0.4c0.1-0.1,0.1-0.2,0.2-0.3s0.2-0.2,0.3-0.2s0.3-0.1,0.4-0.1c0.3,0,0.5,0.1,0.7,0.3c0.2,0.2,0.3,0.4,0.3,0.7
				c0,0.3-0.1,0.5-0.3,0.7C363.6,284.4,363.3,284.5,363,284.5z M362.2,291.3v-6h1.6v6H362.2z"/>
			<path fill="#3E4265" d="M367.7,291.5c-0.4,0-0.7-0.1-1-0.1c-0.3-0.1-0.6-0.2-0.8-0.4c-0.2-0.2-0.4-0.3-0.6-0.6
				c-0.2-0.2-0.3-0.4-0.4-0.6l1.4-0.6c0.1,0.3,0.3,0.5,0.6,0.7c0.2,0.2,0.5,0.2,0.8,0.2c0.3,0,0.5-0.1,0.7-0.2
				c0.2-0.1,0.3-0.2,0.3-0.4c0-0.2-0.1-0.3-0.2-0.4c-0.1-0.1-0.4-0.2-0.7-0.3l-0.8-0.2c-0.2,0-0.4-0.1-0.6-0.2s-0.4-0.2-0.5-0.3
				s-0.3-0.3-0.4-0.5s-0.2-0.4-0.2-0.7c0-0.3,0.1-0.6,0.2-0.8c0.1-0.2,0.3-0.4,0.5-0.6c0.2-0.2,0.5-0.3,0.8-0.4
				c0.3-0.1,0.6-0.1,1-0.1c0.6,0,1.1,0.1,1.5,0.3c0.4,0.2,0.8,0.6,1,1.1l-1.4,0.6c-0.1-0.2-0.3-0.4-0.5-0.5s-0.4-0.2-0.7-0.2
				c-0.2,0-0.4,0-0.6,0.1c-0.2,0.1-0.3,0.2-0.3,0.4c0,0.1,0.1,0.3,0.2,0.3c0.1,0.1,0.3,0.2,0.6,0.2l0.9,0.2c0.6,0.1,1.1,0.4,1.4,0.7
				s0.4,0.7,0.4,1.1c0,0.3-0.1,0.5-0.2,0.7c-0.1,0.2-0.3,0.4-0.5,0.6c-0.2,0.2-0.5,0.3-0.8,0.4S368.1,291.5,367.7,291.5z"/>
			<path fill="#3E4265" d="M373.9,282.6h1.6v2.6l-0.1,0.9h0.1c0.1-0.3,0.4-0.5,0.7-0.6s0.7-0.3,1.2-0.3c0.4,0,0.7,0.1,1.1,0.2
				c0.3,0.2,0.7,0.4,0.9,0.7c0.3,0.3,0.5,0.6,0.6,1s0.2,0.8,0.2,1.3s-0.1,0.9-0.2,1.3c-0.2,0.4-0.4,0.7-0.6,1
				c-0.3,0.3-0.6,0.5-0.9,0.7c-0.3,0.2-0.7,0.2-1.1,0.2c-0.5,0-0.8-0.1-1.2-0.3s-0.5-0.4-0.7-0.7h-0.1v0.7h-1.5V282.6z M377,290.1
				c0.2,0,0.4,0,0.6-0.1c0.2-0.1,0.4-0.2,0.5-0.3c0.1-0.1,0.3-0.3,0.4-0.5s0.1-0.4,0.1-0.7s0-0.5-0.1-0.7c-0.1-0.2-0.2-0.4-0.4-0.5
				c-0.1-0.1-0.3-0.3-0.5-0.3c-0.2-0.1-0.4-0.1-0.6-0.1s-0.4,0-0.6,0.1c-0.2,0.1-0.4,0.2-0.5,0.3c-0.1,0.1-0.3,0.3-0.4,0.5
				c-0.1,0.2-0.1,0.5-0.1,0.7s0,0.5,0.1,0.7s0.2,0.4,0.4,0.5c0.1,0.1,0.3,0.3,0.5,0.3C376.6,290,376.8,290.1,377,290.1z"/>
			<path fill="#3E4265" d="M386.9,289.9c-0.3,0.5-0.7,0.9-1.1,1.2c-0.5,0.3-1,0.5-1.7,0.5c-0.5,0-0.9-0.1-1.3-0.2
				c-0.4-0.2-0.7-0.4-1-0.7c-0.3-0.3-0.5-0.6-0.7-1c-0.2-0.4-0.2-0.8-0.2-1.3c0-0.4,0.1-0.8,0.2-1.2c0.2-0.4,0.4-0.7,0.6-1
				c0.3-0.3,0.6-0.5,1-0.7c0.4-0.2,0.8-0.3,1.3-0.3c0.5,0,0.9,0.1,1.3,0.2c0.4,0.2,0.7,0.4,0.9,0.7c0.3,0.3,0.4,0.6,0.6,1
				c0.1,0.4,0.2,0.8,0.2,1.2c0,0.1,0,0.1,0,0.1c0,0,0,0.1,0,0.1c0,0,0,0.1,0,0.1h-4.5c0,0.2,0.1,0.5,0.2,0.6
				c0.1,0.2,0.2,0.3,0.4,0.4c0.2,0.1,0.3,0.2,0.5,0.3c0.2,0.1,0.4,0.1,0.6,0.1c0.4,0,0.7-0.1,0.9-0.3c0.2-0.2,0.4-0.4,0.6-0.6
				L386.9,289.9z M385.5,287.6c0-0.1,0-0.2-0.1-0.4c-0.1-0.1-0.2-0.3-0.3-0.4c-0.1-0.1-0.3-0.2-0.4-0.3c-0.2-0.1-0.4-0.1-0.6-0.1
				c-0.3,0-0.6,0.1-0.9,0.3c-0.3,0.2-0.4,0.5-0.6,0.8H385.5z"/>
			<path fill="#3E4265" d="M389.8,291l-2.5-5.7h1.8l1.5,3.6h0.1l1.5-3.6h1.8l-3.8,8.6h-1.7L389.8,291z"/>
			<path fill="#3E4265" d="M397.3,285.1c0.5,0,0.9,0.1,1.3,0.2c0.4,0.2,0.7,0.4,1,0.7c0.3,0.3,0.5,0.6,0.7,1s0.2,0.8,0.2,1.3
				s-0.1,0.9-0.2,1.3c-0.2,0.4-0.4,0.7-0.7,1c-0.3,0.3-0.6,0.5-1,0.7c-0.4,0.2-0.8,0.2-1.3,0.2c-0.5,0-0.9-0.1-1.3-0.2
				c-0.4-0.2-0.7-0.4-1-0.7c-0.3-0.3-0.5-0.6-0.7-1c-0.2-0.4-0.2-0.8-0.2-1.3s0.1-0.9,0.2-1.3s0.4-0.7,0.7-1c0.3-0.3,0.6-0.5,1-0.7
				C396.4,285.2,396.9,285.1,397.3,285.1z M397.3,290.1c0.2,0,0.4,0,0.6-0.1c0.2-0.1,0.4-0.2,0.5-0.3c0.1-0.1,0.3-0.3,0.3-0.5
				s0.1-0.5,0.1-0.7s0-0.5-0.1-0.7c-0.1-0.2-0.2-0.4-0.3-0.5c-0.1-0.1-0.3-0.3-0.5-0.3c-0.2-0.1-0.4-0.1-0.6-0.1
				c-0.2,0-0.4,0-0.6,0.1c-0.2,0.1-0.4,0.2-0.5,0.3c-0.1,0.1-0.3,0.3-0.3,0.5c-0.1,0.2-0.1,0.5-0.1,0.7s0,0.5,0.1,0.7
				c0.1,0.2,0.2,0.4,0.3,0.5c0.1,0.1,0.3,0.3,0.5,0.3C396.9,290,397.1,290.1,397.3,290.1z"/>
			<path fill="#3E4265" d="M402.9,286.1L402.9,286.1c0.3-0.3,0.5-0.5,0.9-0.7s0.7-0.3,1.1-0.3c0.4,0,0.7,0.1,1,0.2
				c0.3,0.1,0.5,0.3,0.7,0.5s0.3,0.5,0.4,0.8s0.1,0.7,0.1,1v3.6h-1.6v-3.4c0-0.4-0.1-0.8-0.3-1c-0.2-0.2-0.5-0.3-0.8-0.3
				c-0.2,0-0.4,0-0.6,0.1c-0.2,0.1-0.3,0.2-0.4,0.4c-0.1,0.2-0.2,0.3-0.3,0.6c-0.1,0.2-0.1,0.4-0.1,0.7v2.9h-1.6v-6h1.5V286.1z"/>
			<path fill="#3E4265" d="M412.9,290.6L412.9,290.6c-0.2,0.3-0.5,0.5-0.8,0.7c-0.3,0.2-0.7,0.3-1.2,0.3c-0.4,0-0.7-0.1-1.1-0.2
				c-0.3-0.2-0.7-0.4-0.9-0.7s-0.5-0.6-0.6-1c-0.2-0.4-0.2-0.8-0.2-1.3s0.1-0.9,0.2-1.3s0.4-0.7,0.6-1c0.3-0.3,0.6-0.5,0.9-0.7
				c0.3-0.2,0.7-0.2,1.1-0.2c0.5,0,0.8,0.1,1.2,0.3c0.3,0.2,0.5,0.4,0.7,0.6h0.1l-0.1-0.9v-2.6h1.6v8.8h-1.5V290.6z M411.3,290.1
				c0.2,0,0.4,0,0.6-0.1c0.2-0.1,0.4-0.2,0.5-0.3c0.1-0.1,0.3-0.3,0.4-0.5s0.1-0.5,0.1-0.7s0-0.5-0.1-0.7c-0.1-0.2-0.2-0.4-0.4-0.5
				c-0.1-0.1-0.3-0.3-0.5-0.3s-0.4-0.1-0.6-0.1c-0.2,0-0.4,0-0.6,0.1c-0.2,0.1-0.4,0.2-0.5,0.3c-0.1,0.1-0.3,0.3-0.4,0.5
				c-0.1,0.2-0.1,0.4-0.1,0.7s0,0.5,0.1,0.7s0.2,0.4,0.4,0.5c0.1,0.1,0.3,0.3,0.5,0.3C410.9,290,411.1,290.1,411.3,290.1z"/>
			<path fill="#3E4265" d="M418.7,291.3v-8.8h3.1c0.4,0,0.8,0.1,1.2,0.2s0.7,0.3,0.9,0.6c0.3,0.2,0.5,0.5,0.6,0.9
				c0.2,0.3,0.2,0.7,0.2,1.1c0,0.4-0.1,0.8-0.2,1.1c-0.2,0.3-0.4,0.6-0.6,0.9c-0.3,0.2-0.6,0.4-0.9,0.6s-0.8,0.2-1.2,0.2h-1.4v3.2
				H418.7z M421.8,286.5c0.4,0,0.8-0.1,1-0.4c0.2-0.2,0.3-0.5,0.3-0.8c0-0.2,0-0.3-0.1-0.5s-0.1-0.3-0.2-0.4
				c-0.1-0.1-0.2-0.2-0.4-0.3c-0.2-0.1-0.4-0.1-0.6-0.1h-1.5v2.4H421.8z"/>
			<path fill="#3E4265" d="M430,291.5c-0.7,0-1.3-0.1-1.8-0.4c-0.6-0.2-1-0.6-1.5-1s-0.7-0.9-1-1.5c-0.2-0.6-0.3-1.2-0.3-1.8
				s0.1-1.2,0.3-1.8c0.2-0.6,0.6-1,1-1.5s0.9-0.7,1.5-1c0.6-0.2,1.2-0.4,1.8-0.4c0.7,0,1.3,0.1,1.8,0.4c0.6,0.2,1,0.6,1.5,1
				s0.7,0.9,1,1.5c0.2,0.6,0.3,1.2,0.3,1.8s-0.1,1.2-0.3,1.8c-0.2,0.6-0.6,1-1,1.5s-0.9,0.7-1.5,1
				C431.2,291.4,430.6,291.5,430,291.5z M430,290c0.4,0,0.8-0.1,1.1-0.2s0.7-0.3,0.9-0.6s0.5-0.6,0.6-0.9c0.2-0.4,0.2-0.8,0.2-1.2
				s-0.1-0.9-0.2-1.2c-0.2-0.4-0.4-0.7-0.6-0.9s-0.6-0.5-0.9-0.6s-0.7-0.2-1.1-0.2s-0.8,0.1-1.1,0.2c-0.4,0.1-0.7,0.4-0.9,0.6
				s-0.5,0.6-0.6,0.9c-0.2,0.4-0.2,0.8-0.2,1.2s0.1,0.9,0.2,1.2c0.2,0.4,0.4,0.7,0.6,0.9s0.6,0.5,0.9,0.6
				C429.2,289.9,429.5,290,430,290z"/>
			<path fill="#3E4265" d="M437.7,285.3h1.8l1.5,3.8h0.1l1.5-3.8h1.8l-2.6,6h-1.6L437.7,285.3z"/>
			<path fill="#3E4265" d="M448.8,290.7L448.8,290.7c-0.3,0.2-0.5,0.4-0.8,0.6c-0.3,0.2-0.6,0.2-1,0.2c-0.3,0-0.6-0.1-0.9-0.2
				s-0.5-0.2-0.7-0.4s-0.4-0.4-0.5-0.6c-0.1-0.3-0.2-0.5-0.2-0.8c0-0.3,0.1-0.6,0.2-0.8c0.1-0.3,0.3-0.5,0.5-0.6s0.5-0.3,0.8-0.4
				s0.6-0.1,1-0.1c0.4,0,0.7,0,1,0.1c0.3,0.1,0.5,0.1,0.6,0.2v-0.2c0-0.3-0.1-0.6-0.4-0.8c-0.3-0.2-0.6-0.3-0.9-0.3
				c-0.6,0-1,0.2-1.4,0.7l-1.2-0.8c0.6-0.8,1.5-1.2,2.6-1.2c0.9,0,1.6,0.2,2.1,0.7c0.5,0.4,0.7,1.1,0.7,1.9v3.6h-1.6V290.7z
				 M448.8,288.9c-0.2-0.1-0.4-0.2-0.6-0.2c-0.2-0.1-0.4-0.1-0.7-0.1c-0.4,0-0.7,0.1-0.9,0.3c-0.2,0.2-0.3,0.4-0.3,0.6
				c0,0.2,0.1,0.4,0.3,0.6s0.4,0.2,0.7,0.2c0.2,0,0.4,0,0.6-0.1c0.2-0.1,0.3-0.2,0.5-0.3c0.1-0.1,0.2-0.3,0.3-0.4
				S448.8,289.1,448.8,288.9z"/>
			<path fill="#3E4265" d="M451.6,291.3v-8.8h1.6v8.8H451.6z"/>
			<path fill="#3E4265" d="M458.7,290.6L458.7,290.6c-0.3,0.3-0.5,0.5-0.9,0.7s-0.7,0.3-1.1,0.3c-0.8,0-1.3-0.2-1.7-0.7
				c-0.4-0.5-0.6-1.1-0.6-1.9v-3.6h1.6v3.4c0,0.4,0.1,0.8,0.3,1c0.2,0.2,0.5,0.3,0.8,0.3c0.2,0,0.4,0,0.6-0.1
				c0.2-0.1,0.3-0.2,0.4-0.4c0.1-0.2,0.2-0.3,0.3-0.6c0.1-0.2,0.1-0.4,0.1-0.7v-2.9h1.6v6h-1.5V290.6z"/>
			<path fill="#3E4265" d="M467.2,289.9c-0.3,0.5-0.7,0.9-1.1,1.2c-0.5,0.3-1,0.5-1.7,0.5c-0.5,0-0.9-0.1-1.3-0.2
				c-0.4-0.2-0.7-0.4-1-0.7c-0.3-0.3-0.5-0.6-0.7-1c-0.2-0.4-0.2-0.8-0.2-1.3c0-0.4,0.1-0.8,0.2-1.2c0.2-0.4,0.4-0.7,0.6-1
				c0.3-0.3,0.6-0.5,1-0.7c0.4-0.2,0.8-0.3,1.3-0.3c0.5,0,0.9,0.1,1.3,0.2c0.4,0.2,0.7,0.4,0.9,0.7c0.3,0.3,0.4,0.6,0.6,1
				c0.1,0.4,0.2,0.8,0.2,1.2c0,0.1,0,0.1,0,0.1c0,0,0,0.1,0,0.1c0,0,0,0.1,0,0.1h-4.5c0,0.2,0.1,0.5,0.2,0.6
				c0.1,0.2,0.2,0.3,0.4,0.4c0.2,0.1,0.3,0.2,0.5,0.3c0.2,0.1,0.4,0.1,0.6,0.1c0.4,0,0.7-0.1,0.9-0.3c0.2-0.2,0.4-0.4,0.6-0.6
				L467.2,289.9z M465.8,287.6c0-0.1,0-0.2-0.1-0.4c-0.1-0.1-0.2-0.3-0.3-0.4c-0.1-0.1-0.3-0.2-0.4-0.3c-0.2-0.1-0.4-0.1-0.6-0.1
				c-0.3,0-0.6,0.1-0.9,0.3c-0.3,0.2-0.4,0.5-0.6,0.8H465.8z"/>
		</g>
	</g>
	<g>
		<circle fill="#F23A30" cx="251" cy="287.9" r="13.2"/>
		<polygon fill="#FFFFFF" points="256.5,291.6 252.7,287.8 256.4,284.2 254.7,282.5 251,286.1 247.4,282.5 245.5,284.1 249.3,287.9 
			245.6,291.6 247.2,293.4 251,289.6 254.7,293.3 		"/>
	</g>
</g>
<g id="two">
	<path fill="#F7F7F7" stroke="#F4F4F4" stroke-miterlimit="10" d="M490.6,241.2c0,3.3-2.7,6-6,6H224.2c-3.3,0-6-2.7-6-6v-52
		c0-3.3,2.7-6,6-6h260.4c3.3,0,6,2.7,6,6V241.2z"/>
	<g>
		<g>
			<path fill="#3E4265" d="M284.7,219.1c-0.6,0-1.1-0.1-1.6-0.3c-0.5-0.2-0.9-0.5-1.3-0.9c-0.4-0.4-0.7-0.8-0.9-1.3
				c-0.2-0.5-0.3-1-0.3-1.6c0-0.6,0.1-1.1,0.3-1.6c0.2-0.5,0.5-0.9,0.9-1.3c0.4-0.4,0.8-0.7,1.3-0.9c0.5-0.2,1-0.3,1.6-0.3
				c0.6,0,1.1,0.1,1.6,0.3c0.5,0.2,0.9,0.5,1.3,0.9c0.4,0.4,0.7,0.8,0.9,1.3c0.2,0.5,0.3,1,0.3,1.6c0,0.6-0.1,1.1-0.3,1.6
				c-0.2,0.5-0.5,0.9-0.9,1.3c-0.4,0.4-0.8,0.7-1.3,0.9C285.8,219,285.3,219.1,284.7,219.1z M284.7,217.7c0.4,0,0.7-0.1,1-0.2
				c0.3-0.1,0.6-0.3,0.8-0.6c0.2-0.2,0.4-0.5,0.6-0.9c0.1-0.3,0.2-0.7,0.2-1.1c0-0.4-0.1-0.8-0.2-1.1c-0.1-0.3-0.3-0.6-0.6-0.9
				c-0.2-0.2-0.5-0.4-0.8-0.5c-0.3-0.1-0.7-0.2-1-0.2c-0.4,0-0.7,0.1-1,0.2c-0.3,0.1-0.6,0.3-0.8,0.5c-0.2,0.2-0.4,0.5-0.6,0.9
				c-0.1,0.3-0.2,0.7-0.2,1.1c0,0.4,0.1,0.8,0.2,1.1c0.1,0.3,0.3,0.6,0.6,0.9c0.2,0.2,0.5,0.4,0.8,0.6
				C284,217.7,284.3,217.7,284.7,217.7z"/>
			<path fill="#3E4265" d="M289.8,213.6h1.4v0.7h0.1c0.1-0.1,0.2-0.3,0.3-0.4c0.1-0.1,0.2-0.2,0.4-0.3c0.1-0.1,0.3-0.1,0.4-0.2
				c0.2-0.1,0.3-0.1,0.5-0.1c0.2,0,0.4,0,0.5,0.1c0.1,0,0.3,0.1,0.3,0.2l-0.4,1.3c-0.1,0-0.2-0.1-0.3-0.1c-0.1,0-0.2,0-0.4,0
				c-0.2,0-0.4,0-0.5,0.1s-0.3,0.2-0.4,0.3c-0.1,0.1-0.2,0.3-0.3,0.5c-0.1,0.2-0.1,0.4-0.1,0.6v2.7h-1.4V213.6z"/>
			<path fill="#3E4265" d="M298,218.3L298,218.3c-0.2,0.2-0.4,0.4-0.7,0.6c-0.3,0.2-0.6,0.2-1,0.2c-0.3,0-0.7-0.1-1-0.2
				c-0.3-0.1-0.6-0.3-0.8-0.6c-0.2-0.3-0.4-0.6-0.6-0.9c-0.1-0.4-0.2-0.7-0.2-1.2s0.1-0.8,0.2-1.2c0.1-0.4,0.3-0.7,0.6-0.9
				c0.2-0.3,0.5-0.5,0.8-0.6s0.6-0.2,1-0.2c0.4,0,0.8,0.1,1,0.2c0.3,0.2,0.5,0.4,0.6,0.6h0.1l-0.1-0.8v-2.4h1.4v7.9H298V218.3z
				 M296.6,217.8c0.2,0,0.4,0,0.5-0.1c0.2-0.1,0.3-0.2,0.5-0.3c0.1-0.1,0.2-0.3,0.3-0.5c0.1-0.2,0.1-0.4,0.1-0.6
				c0-0.2,0-0.5-0.1-0.6c-0.1-0.2-0.2-0.4-0.3-0.5c-0.1-0.1-0.3-0.2-0.5-0.3c-0.2-0.1-0.4-0.1-0.5-0.1c-0.2,0-0.4,0-0.5,0.1
				c-0.2,0.1-0.3,0.2-0.5,0.3c-0.1,0.1-0.2,0.3-0.3,0.5c-0.1,0.2-0.1,0.4-0.1,0.6c0,0.2,0,0.4,0.1,0.6c0.1,0.2,0.2,0.4,0.3,0.5
				c0.1,0.1,0.3,0.2,0.5,0.3C296.2,217.8,296.4,217.8,296.6,217.8z"/>
			<path fill="#3E4265" d="M305.6,217.7c-0.2,0.4-0.6,0.8-1,1.1c-0.4,0.3-0.9,0.4-1.5,0.4c-0.4,0-0.8-0.1-1.1-0.2
				c-0.3-0.1-0.7-0.3-0.9-0.6s-0.5-0.6-0.6-0.9c-0.1-0.3-0.2-0.7-0.2-1.1c0-0.4,0.1-0.8,0.2-1.1c0.1-0.3,0.3-0.7,0.6-0.9
				c0.3-0.3,0.5-0.5,0.9-0.6s0.7-0.2,1.1-0.2c0.4,0,0.8,0.1,1.2,0.2c0.3,0.1,0.6,0.3,0.8,0.6c0.2,0.3,0.4,0.6,0.5,0.9
				s0.2,0.7,0.2,1.1c0,0.1,0,0.1,0,0.1c0,0,0,0.1,0,0.1c0,0,0,0.1,0,0.1h-4.1c0,0.2,0.1,0.4,0.2,0.6c0.1,0.2,0.2,0.3,0.3,0.4
				s0.3,0.2,0.4,0.2c0.2,0,0.3,0.1,0.5,0.1c0.3,0,0.6-0.1,0.8-0.2c0.2-0.2,0.4-0.3,0.5-0.6L305.6,217.7z M304.3,215.6
				c0-0.1,0-0.2-0.1-0.3s-0.1-0.2-0.2-0.3s-0.2-0.2-0.4-0.3c-0.2-0.1-0.3-0.1-0.6-0.1c-0.3,0-0.6,0.1-0.8,0.3s-0.4,0.4-0.5,0.7
				H304.3z"/>
			<path fill="#3E4265" d="M306.7,213.6h1.4v0.7h0.1c0.1-0.1,0.2-0.3,0.3-0.4c0.1-0.1,0.2-0.2,0.4-0.3c0.1-0.1,0.3-0.1,0.4-0.2
				c0.2-0.1,0.3-0.1,0.5-0.1c0.2,0,0.4,0,0.5,0.1c0.1,0,0.3,0.1,0.3,0.2l-0.4,1.3c-0.1,0-0.2-0.1-0.3-0.1c-0.1,0-0.2,0-0.4,0
				c-0.2,0-0.4,0-0.5,0.1s-0.3,0.2-0.4,0.3c-0.1,0.1-0.2,0.3-0.3,0.5c-0.1,0.2-0.1,0.4-0.1,0.6v2.7h-1.4V213.6z"/>
			<path fill="#3E4265" d="M314.1,219l0.3-2.1h-1.3l0.2-1.1h1.3l0.2-1.2h-1.3l0.2-1.1h1.3l0.3-2h1.2l-0.3,2h1.2l0.3-2h1.2l-0.3,2
				h1.3l-0.2,1.1h-1.3l-0.2,1.2h1.3l-0.2,1.1h-1.3l-0.3,2.1h-1.2l0.3-2.1h-1.2l-0.3,2.1H314.1z M315.8,215.8h1.3l0.2-1.2H316
				L315.8,215.8z"/>
			<path fill="#3E4265" d="M324.1,219v-1.4h-3.5v-1.2l3.3-5h1.6v4.8h0.9v1.3h-0.9v1.4H324.1z M324.1,213.6L324.1,213.6l-1.9,2.7h1.9
				V213.6z"/>
			<path fill="#3E4265" d="M327.4,219v-1.3c0.4-0.4,0.8-0.8,1.2-1.2c0.2-0.2,0.3-0.3,0.5-0.5s0.3-0.3,0.5-0.5s0.3-0.3,0.4-0.4
				c0.1-0.1,0.2-0.2,0.3-0.3c0.1-0.1,0.2-0.3,0.3-0.4c0.1-0.1,0.2-0.2,0.2-0.3c0.1-0.1,0.1-0.2,0.1-0.3c0-0.1,0-0.2,0-0.3
				c0-0.2-0.1-0.5-0.3-0.6s-0.5-0.3-0.8-0.3c-0.3,0-0.6,0.1-0.8,0.3c-0.2,0.2-0.3,0.4-0.4,0.6l-1.3-0.5c0.1-0.2,0.2-0.4,0.3-0.6
				c0.1-0.2,0.3-0.4,0.5-0.6c0.2-0.2,0.4-0.3,0.7-0.4c0.3-0.1,0.6-0.2,1-0.2c0.4,0,0.7,0.1,1,0.2c0.3,0.1,0.6,0.3,0.8,0.5
				c0.2,0.2,0.4,0.4,0.5,0.7s0.2,0.6,0.2,0.9c0,0.5-0.1,0.9-0.3,1.3c-0.2,0.4-0.5,0.8-0.8,1.1l-0.9,0.9c-0.2,0.2-0.5,0.5-0.8,0.8
				l0,0.1h3v1.3H327.4z"/>
			<path fill="#3E4265" d="M336,219.1c-0.3,0-0.6,0-0.9-0.1c-0.3-0.1-0.5-0.2-0.8-0.4c-0.2-0.2-0.5-0.4-0.6-0.6s-0.3-0.6-0.4-0.9
				l1.3-0.5c0.1,0.4,0.2,0.7,0.5,0.9c0.2,0.2,0.5,0.3,0.9,0.3c0.2,0,0.3,0,0.5-0.1c0.2-0.1,0.3-0.1,0.4-0.3c0.1-0.1,0.2-0.2,0.3-0.4
				c0.1-0.2,0.1-0.3,0.1-0.5c0-0.2,0-0.3-0.1-0.5c-0.1-0.2-0.1-0.3-0.3-0.4c-0.1-0.1-0.2-0.2-0.4-0.3c-0.2-0.1-0.3-0.1-0.5-0.1
				c-0.2,0-0.4,0-0.6,0.1c-0.2,0.1-0.3,0.2-0.5,0.4l-1.4-0.6l0.4-3.8h4.2v1.3h-3l-0.3,1.8l0.1,0c0.1-0.1,0.3-0.2,0.5-0.3
				s0.5-0.1,0.8-0.1c0.3,0,0.6,0.1,0.9,0.2c0.3,0.1,0.5,0.3,0.8,0.5c0.2,0.2,0.4,0.5,0.5,0.8s0.2,0.7,0.2,1c0,0.4-0.1,0.7-0.2,1
				s-0.3,0.6-0.6,0.8s-0.5,0.4-0.8,0.5S336.4,219.1,336,219.1z"/>
			<path fill="#3E4265" d="M339.9,218.5l3.1-5.6l0-0.1h-3.5l0-1.4h5.1v1.4l-3.6,6.3L339.9,218.5z"/>
			<path fill="#3E4265" d="M348.1,219.1c-0.4,0-0.8-0.1-1.1-0.2s-0.6-0.3-0.9-0.5c-0.2-0.2-0.4-0.4-0.6-0.7
				c-0.1-0.3-0.2-0.6-0.2-0.9c0-0.2,0-0.4,0.1-0.6s0.1-0.4,0.3-0.5c0.1-0.2,0.2-0.3,0.4-0.4c0.1-0.1,0.3-0.2,0.4-0.3V215
				c-0.2-0.2-0.5-0.4-0.6-0.6c-0.2-0.3-0.3-0.6-0.3-0.9c0-0.3,0.1-0.6,0.2-0.8c0.1-0.3,0.3-0.5,0.5-0.7c0.2-0.2,0.5-0.3,0.8-0.4
				c0.3-0.1,0.6-0.2,1-0.2s0.7,0.1,1,0.2c0.3,0.1,0.6,0.3,0.8,0.4c0.2,0.2,0.4,0.4,0.5,0.7c0.1,0.3,0.2,0.5,0.2,0.8
				c0,0.4-0.1,0.7-0.3,0.9c-0.2,0.3-0.4,0.5-0.6,0.6v0.1c0.2,0.1,0.3,0.2,0.4,0.3c0.1,0.1,0.3,0.3,0.4,0.4c0.1,0.2,0.2,0.3,0.3,0.5
				c0.1,0.2,0.1,0.4,0.1,0.6c0,0.3-0.1,0.6-0.2,0.9c-0.1,0.3-0.3,0.5-0.6,0.7c-0.2,0.2-0.5,0.4-0.9,0.5S348.5,219.1,348.1,219.1z
				 M348.1,217.8c0.4,0,0.7-0.1,0.9-0.3s0.4-0.5,0.4-0.8c0-0.2,0-0.3-0.1-0.4c-0.1-0.1-0.2-0.2-0.3-0.3c-0.1-0.1-0.3-0.2-0.4-0.2
				c-0.2-0.1-0.3-0.1-0.5-0.1s-0.4,0-0.5,0.1c-0.2,0.1-0.3,0.1-0.4,0.2c-0.1,0.1-0.2,0.2-0.3,0.3c-0.1,0.1-0.1,0.3-0.1,0.4
				c0,0.3,0.1,0.6,0.4,0.8S347.7,217.8,348.1,217.8z M348.1,214.4c0.3,0,0.6-0.1,0.8-0.3c0.2-0.2,0.3-0.4,0.3-0.7
				c0-0.3-0.1-0.5-0.3-0.7c-0.2-0.2-0.5-0.2-0.8-0.2s-0.6,0.1-0.8,0.2c-0.2,0.2-0.3,0.4-0.3,0.7c0,0.3,0.1,0.5,0.3,0.7
				C347.5,214.3,347.8,214.4,348.1,214.4z"/>
			<path fill="#3E4265" d="M354.3,213.6h1.4v0.6h0.1c0.1-0.2,0.3-0.4,0.6-0.6s0.6-0.2,1-0.2c0.3,0,0.7,0.1,1,0.2s0.6,0.3,0.8,0.6
				s0.4,0.6,0.6,0.9c0.1,0.4,0.2,0.7,0.2,1.2s-0.1,0.8-0.2,1.2c-0.1,0.4-0.3,0.7-0.6,0.9s-0.5,0.5-0.8,0.6c-0.3,0.1-0.6,0.2-1,0.2
				c-0.4,0-0.8-0.1-1-0.2c-0.3-0.2-0.5-0.4-0.6-0.6h-0.1l0.1,0.8v2.3h-1.4V213.6z M357,217.8c0.2,0,0.4,0,0.5-0.1
				c0.2-0.1,0.3-0.2,0.5-0.3s0.2-0.3,0.3-0.5c0.1-0.2,0.1-0.4,0.1-0.6c0-0.2,0-0.4-0.1-0.6c-0.1-0.2-0.2-0.4-0.3-0.5
				c-0.1-0.1-0.3-0.2-0.5-0.3c-0.2-0.1-0.4-0.1-0.5-0.1c-0.2,0-0.4,0-0.5,0.1c-0.2,0.1-0.3,0.2-0.5,0.3s-0.2,0.3-0.3,0.5
				s-0.1,0.4-0.1,0.6c0,0.2,0,0.5,0.1,0.6s0.2,0.4,0.3,0.5c0.1,0.1,0.3,0.2,0.5,0.3C356.7,217.8,356.9,217.8,357,217.8z"/>
			<path fill="#3E4265" d="M360.7,219v-7.9h1.4v7.9H360.7z"/>
			<path fill="#3E4265" d="M366.7,218.4L366.7,218.4c-0.3,0.2-0.5,0.4-0.7,0.5s-0.5,0.2-0.9,0.2c-0.3,0-0.5,0-0.8-0.1
				c-0.2-0.1-0.5-0.2-0.6-0.4c-0.2-0.2-0.3-0.4-0.4-0.6s-0.2-0.5-0.2-0.7c0-0.3,0.1-0.5,0.2-0.8c0.1-0.2,0.3-0.4,0.5-0.6
				c0.2-0.2,0.4-0.3,0.7-0.4c0.3-0.1,0.6-0.1,0.9-0.1c0.4,0,0.6,0,0.9,0.1c0.2,0.1,0.4,0.1,0.6,0.2v-0.2c0-0.3-0.1-0.5-0.3-0.7
				c-0.2-0.2-0.5-0.3-0.8-0.3c-0.5,0-0.9,0.2-1.3,0.6l-1-0.7c0.6-0.7,1.4-1.1,2.3-1.1c0.8,0,1.5,0.2,1.9,0.6c0.4,0.4,0.7,1,0.7,1.7
				v3.2h-1.4V218.4z M366.7,216.8c-0.2-0.1-0.3-0.1-0.5-0.2c-0.2,0-0.4-0.1-0.6-0.1c-0.3,0-0.6,0.1-0.8,0.2
				c-0.2,0.2-0.3,0.3-0.3,0.6s0.1,0.4,0.3,0.5c0.2,0.1,0.4,0.2,0.6,0.2c0.2,0,0.4,0,0.5-0.1c0.2-0.1,0.3-0.2,0.4-0.3
				c0.1-0.1,0.2-0.2,0.3-0.4C366.7,217.1,366.7,216.9,366.7,216.8z"/>
			<path fill="#3E4265" d="M374.3,217.6c-0.2,0.5-0.6,0.8-1,1.1c-0.4,0.3-0.9,0.4-1.6,0.4c-0.4,0-0.8-0.1-1.1-0.2
				c-0.3-0.1-0.6-0.3-0.9-0.6s-0.5-0.6-0.6-0.9c-0.1-0.3-0.2-0.7-0.2-1.1s0.1-0.8,0.2-1.2c0.1-0.4,0.3-0.7,0.6-0.9s0.6-0.5,0.9-0.6
				s0.7-0.2,1.1-0.2c0.6,0,1.1,0.1,1.6,0.4c0.4,0.3,0.7,0.7,0.9,1.1l-1.3,0.6c-0.1-0.3-0.3-0.4-0.5-0.6c-0.2-0.1-0.4-0.2-0.7-0.2
				c-0.2,0-0.4,0-0.5,0.1c-0.2,0.1-0.3,0.2-0.4,0.3c-0.1,0.1-0.2,0.3-0.3,0.5c-0.1,0.2-0.1,0.4-0.1,0.6c0,0.2,0,0.4,0.1,0.6
				c0.1,0.2,0.2,0.4,0.3,0.5c0.1,0.1,0.3,0.2,0.4,0.3c0.2,0.1,0.3,0.1,0.5,0.1c0.3,0,0.6-0.1,0.8-0.2s0.4-0.3,0.5-0.6L374.3,217.6z"
				/>
			<path fill="#3E4265" d="M380.2,217.7c-0.2,0.4-0.6,0.8-1,1.1c-0.4,0.3-0.9,0.4-1.5,0.4c-0.4,0-0.8-0.1-1.1-0.2
				c-0.3-0.1-0.7-0.3-0.9-0.6s-0.5-0.6-0.6-0.9c-0.1-0.3-0.2-0.7-0.2-1.1c0-0.4,0.1-0.8,0.2-1.1c0.1-0.3,0.3-0.7,0.6-0.9
				c0.3-0.3,0.5-0.5,0.9-0.6s0.7-0.2,1.1-0.2c0.4,0,0.8,0.1,1.2,0.2c0.3,0.1,0.6,0.3,0.8,0.6c0.2,0.3,0.4,0.6,0.5,0.9
				s0.2,0.7,0.2,1.1c0,0.1,0,0.1,0,0.1c0,0,0,0.1,0,0.1c0,0,0,0.1,0,0.1h-4.1c0,0.2,0.1,0.4,0.2,0.6c0.1,0.2,0.2,0.3,0.3,0.4
				s0.3,0.2,0.4,0.2c0.2,0,0.3,0.1,0.5,0.1c0.3,0,0.6-0.1,0.8-0.2c0.2-0.2,0.4-0.3,0.5-0.6L380.2,217.7z M378.9,215.6
				c0-0.1,0-0.2-0.1-0.3s-0.1-0.2-0.2-0.3s-0.2-0.2-0.4-0.3c-0.2-0.1-0.3-0.1-0.6-0.1c-0.3,0-0.6,0.1-0.8,0.3s-0.4,0.4-0.5,0.7
				H378.9z"/>
			<path fill="#3E4265" d="M385.3,218.3L385.3,218.3c-0.2,0.2-0.4,0.4-0.7,0.6c-0.3,0.2-0.6,0.2-1,0.2c-0.3,0-0.7-0.1-1-0.2
				c-0.3-0.1-0.6-0.3-0.8-0.6c-0.2-0.3-0.4-0.6-0.6-0.9c-0.1-0.4-0.2-0.7-0.2-1.2s0.1-0.8,0.2-1.2c0.1-0.4,0.3-0.7,0.6-0.9
				c0.2-0.3,0.5-0.5,0.8-0.6s0.6-0.2,1-0.2c0.4,0,0.8,0.1,1,0.2c0.3,0.2,0.5,0.4,0.6,0.6h0.1l-0.1-0.8v-2.4h1.4v7.9h-1.4V218.3z
				 M383.9,217.8c0.2,0,0.4,0,0.5-0.1c0.2-0.1,0.3-0.2,0.5-0.3c0.1-0.1,0.2-0.3,0.3-0.5c0.1-0.2,0.1-0.4,0.1-0.6
				c0-0.2,0-0.5-0.1-0.6c-0.1-0.2-0.2-0.4-0.3-0.5c-0.1-0.1-0.3-0.2-0.5-0.3c-0.2-0.1-0.4-0.1-0.5-0.1c-0.2,0-0.4,0-0.5,0.1
				c-0.2,0.1-0.3,0.2-0.5,0.3c-0.1,0.1-0.2,0.3-0.3,0.5c-0.1,0.2-0.1,0.4-0.1,0.6c0,0.2,0,0.4,0.1,0.6c0.1,0.2,0.2,0.4,0.3,0.5
				c0.1,0.1,0.3,0.2,0.5,0.3C383.5,217.8,383.7,217.8,383.9,217.8z"/>
			<path fill="#3E4265" d="M392.8,211c0.2,0,0.4,0,0.6,0.1c0.2,0,0.3,0.1,0.5,0.1l-0.4,1.3c-0.1,0-0.2-0.1-0.2-0.1
				c-0.1,0-0.2,0-0.3,0c-0.2,0-0.4,0.1-0.5,0.2c-0.1,0.1-0.2,0.3-0.2,0.6v0.4h1.3v1.2h-1.3v4.2h-1.4v-4.2h-1v-1.2h1v-0.5
				c0-0.3,0-0.6,0.1-0.9c0.1-0.3,0.2-0.5,0.4-0.6c0.2-0.2,0.4-0.3,0.6-0.4C392.2,211.1,392.5,211,392.8,211z"/>
			<path fill="#3E4265" d="M396.7,213.4c0.4,0,0.8,0.1,1.1,0.2s0.6,0.3,0.9,0.6s0.5,0.6,0.6,0.9c0.1,0.4,0.2,0.7,0.2,1.2
				s-0.1,0.8-0.2,1.2s-0.3,0.7-0.6,0.9s-0.6,0.5-0.9,0.6c-0.3,0.1-0.7,0.2-1.1,0.2s-0.8-0.1-1.1-0.2c-0.3-0.1-0.6-0.3-0.9-0.6
				s-0.5-0.6-0.6-0.9s-0.2-0.7-0.2-1.2s0.1-0.8,0.2-1.2c0.1-0.4,0.3-0.7,0.6-0.9s0.6-0.5,0.9-0.6S396.3,213.4,396.7,213.4z
				 M396.7,217.8c0.2,0,0.4,0,0.5-0.1c0.2-0.1,0.3-0.2,0.5-0.3c0.1-0.1,0.2-0.3,0.3-0.5s0.1-0.4,0.1-0.6c0-0.2,0-0.5-0.1-0.6
				s-0.2-0.4-0.3-0.5s-0.3-0.2-0.5-0.3c-0.2-0.1-0.3-0.1-0.5-0.1c-0.2,0-0.4,0-0.5,0.1c-0.2,0.1-0.3,0.2-0.5,0.3s-0.2,0.3-0.3,0.5
				s-0.1,0.4-0.1,0.6c0,0.2,0,0.5,0.1,0.6s0.2,0.4,0.3,0.5c0.1,0.1,0.3,0.2,0.5,0.3C396.3,217.8,396.5,217.8,396.7,217.8z"/>
			<path fill="#3E4265" d="M400.4,213.6h1.4v0.7h0.1c0.1-0.1,0.2-0.3,0.3-0.4c0.1-0.1,0.2-0.2,0.4-0.3c0.1-0.1,0.3-0.1,0.4-0.2
				c0.2-0.1,0.3-0.1,0.5-0.1c0.2,0,0.4,0,0.5,0.1c0.1,0,0.3,0.1,0.3,0.2l-0.4,1.3c-0.1,0-0.2-0.1-0.3-0.1c-0.1,0-0.2,0-0.4,0
				c-0.2,0-0.4,0-0.5,0.1s-0.3,0.2-0.4,0.3c-0.1,0.1-0.2,0.3-0.3,0.5c-0.1,0.2-0.1,0.4-0.1,0.6v2.7h-1.4V213.6z"/>
			<path fill="#3E4265" d="M407.4,211.1h3.1c0.3,0,0.7,0.1,0.9,0.2c0.3,0.1,0.5,0.3,0.8,0.4c0.2,0.2,0.4,0.4,0.5,0.7
				s0.2,0.5,0.2,0.8c0,0.4-0.1,0.8-0.3,1.1c-0.2,0.3-0.5,0.5-0.8,0.6v0.1c0.4,0.1,0.7,0.4,1,0.7c0.2,0.3,0.4,0.7,0.4,1.2
				c0,0.3-0.1,0.6-0.2,0.9s-0.3,0.5-0.6,0.7c-0.2,0.2-0.5,0.3-0.8,0.4c-0.3,0.1-0.6,0.2-1,0.2h-3.2V211.1z M410.4,214.3
				c0.3,0,0.6-0.1,0.8-0.3c0.2-0.2,0.3-0.4,0.3-0.7c0-0.3-0.1-0.5-0.3-0.7c-0.2-0.2-0.4-0.3-0.8-0.3h-1.5v1.9H410.4z M410.6,217.6
				c0.4,0,0.7-0.1,0.9-0.3c0.2-0.2,0.3-0.4,0.3-0.7c0-0.3-0.1-0.5-0.3-0.7c-0.2-0.2-0.5-0.3-0.9-0.3h-1.6v2H410.6z"/>
			<path fill="#3E4265" d="M417.5,218.4L417.5,218.4c-0.3,0.2-0.5,0.4-0.7,0.5s-0.5,0.2-0.9,0.2c-0.3,0-0.5,0-0.8-0.1
				c-0.2-0.1-0.5-0.2-0.6-0.4c-0.2-0.2-0.3-0.4-0.4-0.6s-0.2-0.5-0.2-0.7c0-0.3,0.1-0.5,0.2-0.8c0.1-0.2,0.3-0.4,0.5-0.6
				c0.2-0.2,0.4-0.3,0.7-0.4c0.3-0.1,0.6-0.1,0.9-0.1c0.4,0,0.6,0,0.9,0.1c0.2,0.1,0.4,0.1,0.6,0.2v-0.2c0-0.3-0.1-0.5-0.3-0.7
				c-0.2-0.2-0.5-0.3-0.8-0.3c-0.5,0-0.9,0.2-1.3,0.6l-1-0.7c0.6-0.7,1.4-1.1,2.3-1.1c0.8,0,1.5,0.2,1.9,0.6c0.4,0.4,0.7,1,0.7,1.7
				v3.2h-1.4V218.4z M417.5,216.8c-0.2-0.1-0.3-0.1-0.5-0.2c-0.2,0-0.4-0.1-0.6-0.1c-0.3,0-0.6,0.1-0.8,0.2
				c-0.2,0.2-0.3,0.3-0.3,0.6s0.1,0.4,0.3,0.5c0.2,0.1,0.4,0.2,0.6,0.2c0.2,0,0.4,0,0.5-0.1c0.2-0.1,0.3-0.2,0.4-0.3
				c0.1-0.1,0.2-0.2,0.3-0.4C417.5,217.1,417.5,216.9,417.5,216.8z"/>
			<path fill="#3E4265" d="M421.4,214.3L421.4,214.3c0.3-0.3,0.5-0.5,0.8-0.6c0.3-0.2,0.6-0.2,1-0.2c0.3,0,0.6,0.1,0.9,0.2
				c0.3,0.1,0.5,0.3,0.6,0.5c0.2,0.2,0.3,0.4,0.4,0.7c0.1,0.3,0.1,0.6,0.1,0.9v3.3h-1.4v-3.1c0-0.4-0.1-0.7-0.3-0.9
				c-0.2-0.2-0.4-0.3-0.8-0.3c-0.2,0-0.4,0-0.5,0.1s-0.3,0.2-0.4,0.3c-0.1,0.1-0.2,0.3-0.2,0.5s-0.1,0.4-0.1,0.6v2.6h-1.4v-5.4h1.4
				V214.3z"/>
			<path fill="#3E4265" d="M428.8,221.5c-0.4,0-0.7,0-1-0.1c-0.3-0.1-0.6-0.2-0.8-0.4c-0.2-0.2-0.4-0.3-0.5-0.5s-0.3-0.4-0.3-0.6
				l1.4-0.5c0.1,0.3,0.3,0.5,0.5,0.7c0.2,0.2,0.5,0.2,0.8,0.2c0.5,0,0.8-0.1,1.1-0.4c0.3-0.3,0.4-0.7,0.4-1.2v-0.4h-0.1
				c-0.2,0.2-0.4,0.4-0.7,0.6c-0.3,0.1-0.6,0.2-1,0.2c-0.3,0-0.6-0.1-0.9-0.2c-0.3-0.1-0.6-0.3-0.8-0.6c-0.2-0.2-0.4-0.5-0.6-0.9
				c-0.1-0.3-0.2-0.7-0.2-1.1s0.1-0.8,0.2-1.1c0.1-0.3,0.3-0.6,0.6-0.9c0.2-0.2,0.5-0.4,0.8-0.6c0.3-0.1,0.6-0.2,0.9-0.2
				c0.4,0,0.7,0.1,1,0.2c0.3,0.1,0.5,0.3,0.7,0.6h0.1v-0.6h1.4v5c0,0.5-0.1,0.9-0.2,1.2c-0.1,0.4-0.3,0.7-0.6,0.9
				c-0.3,0.3-0.5,0.4-0.9,0.6C429.6,221.5,429.2,221.5,428.8,221.5z M428.9,217.7c0.2,0,0.3,0,0.5-0.1c0.2-0.1,0.3-0.2,0.5-0.3
				s0.2-0.3,0.3-0.5c0.1-0.2,0.1-0.4,0.1-0.6c0-0.2,0-0.5-0.1-0.6c-0.1-0.2-0.2-0.3-0.3-0.5s-0.3-0.2-0.5-0.3
				c-0.2-0.1-0.3-0.1-0.5-0.1s-0.3,0-0.5,0.1c-0.2,0.1-0.3,0.2-0.5,0.3c-0.1,0.1-0.2,0.3-0.3,0.5c-0.1,0.2-0.1,0.4-0.1,0.6
				c0,0.2,0,0.4,0.1,0.6c0.1,0.2,0.2,0.3,0.3,0.5c0.1,0.1,0.3,0.2,0.5,0.3C428.5,217.6,428.7,217.7,428.9,217.7z"/>
			<path fill="#3E4265" d="M436.2,218.4L436.2,218.4c-0.3,0.2-0.5,0.4-0.7,0.5s-0.5,0.2-0.9,0.2c-0.3,0-0.5,0-0.8-0.1
				c-0.2-0.1-0.5-0.2-0.6-0.4c-0.2-0.2-0.3-0.4-0.4-0.6s-0.2-0.5-0.2-0.7c0-0.3,0.1-0.5,0.2-0.8c0.1-0.2,0.3-0.4,0.5-0.6
				c0.2-0.2,0.4-0.3,0.7-0.4c0.3-0.1,0.6-0.1,0.9-0.1c0.4,0,0.6,0,0.9,0.1c0.2,0.1,0.4,0.1,0.6,0.2v-0.2c0-0.3-0.1-0.5-0.3-0.7
				c-0.2-0.2-0.5-0.3-0.8-0.3c-0.5,0-0.9,0.2-1.3,0.6l-1-0.7c0.6-0.7,1.4-1.1,2.3-1.1c0.8,0,1.5,0.2,1.9,0.6c0.4,0.4,0.7,1,0.7,1.7
				v3.2h-1.4V218.4z M436.2,216.8c-0.2-0.1-0.3-0.1-0.5-0.2c-0.2,0-0.4-0.1-0.6-0.1c-0.3,0-0.6,0.1-0.8,0.2
				c-0.2,0.2-0.3,0.3-0.3,0.6s0.1,0.4,0.3,0.5c0.2,0.1,0.4,0.2,0.6,0.2c0.2,0,0.4,0,0.5-0.1c0.2-0.1,0.3-0.2,0.4-0.3
				c0.1-0.1,0.2-0.2,0.3-0.4C436.1,217.1,436.2,216.9,436.2,216.8z"/>
			<path fill="#3E4265" d="M438.7,219v-7.9h1.4v7.9H438.7z"/>
			<path fill="#3E4265" d="M443.9,213.4c0.4,0,0.8,0.1,1.1,0.2s0.6,0.3,0.9,0.6s0.5,0.6,0.6,0.9c0.1,0.4,0.2,0.7,0.2,1.2
				s-0.1,0.8-0.2,1.2s-0.3,0.7-0.6,0.9s-0.6,0.5-0.9,0.6c-0.3,0.1-0.7,0.2-1.1,0.2s-0.8-0.1-1.1-0.2c-0.3-0.1-0.6-0.3-0.9-0.6
				s-0.5-0.6-0.6-0.9s-0.2-0.7-0.2-1.2s0.1-0.8,0.2-1.2c0.1-0.4,0.3-0.7,0.6-0.9s0.6-0.5,0.9-0.6S443.5,213.4,443.9,213.4z
				 M443.9,217.8c0.2,0,0.4,0,0.5-0.1c0.2-0.1,0.3-0.2,0.5-0.3c0.1-0.1,0.2-0.3,0.3-0.5s0.1-0.4,0.1-0.6c0-0.2,0-0.5-0.1-0.6
				s-0.2-0.4-0.3-0.5s-0.3-0.2-0.5-0.3c-0.2-0.1-0.3-0.1-0.5-0.1c-0.2,0-0.4,0-0.5,0.1c-0.2,0.1-0.3,0.2-0.5,0.3s-0.2,0.3-0.3,0.5
				s-0.1,0.4-0.1,0.6c0,0.2,0,0.5,0.1,0.6s0.2,0.4,0.3,0.5c0.1,0.1,0.3,0.2,0.5,0.3C443.5,217.8,443.7,217.8,443.9,217.8z"/>
			<path fill="#3E4265" d="M447.6,213.6h1.4v0.7h0.1c0.1-0.1,0.2-0.3,0.3-0.4c0.1-0.1,0.2-0.2,0.4-0.3c0.1-0.1,0.3-0.1,0.4-0.2
				c0.2-0.1,0.3-0.1,0.5-0.1c0.2,0,0.4,0,0.5,0.1c0.1,0,0.3,0.1,0.3,0.2l-0.4,1.3c-0.1,0-0.2-0.1-0.3-0.1c-0.1,0-0.2,0-0.4,0
				c-0.2,0-0.4,0-0.5,0.1s-0.3,0.2-0.4,0.3c-0.1,0.1-0.2,0.3-0.3,0.5c-0.1,0.2-0.1,0.4-0.1,0.6v2.7h-1.4V213.6z"/>
			<path fill="#3E4265" d="M456.8,217.7c-0.2,0.4-0.6,0.8-1,1.1c-0.4,0.3-0.9,0.4-1.5,0.4c-0.4,0-0.8-0.1-1.1-0.2
				c-0.3-0.1-0.7-0.3-0.9-0.6s-0.5-0.6-0.6-0.9c-0.1-0.3-0.2-0.7-0.2-1.1c0-0.4,0.1-0.8,0.2-1.1c0.1-0.3,0.3-0.7,0.6-0.9
				c0.3-0.3,0.5-0.5,0.9-0.6s0.7-0.2,1.1-0.2c0.4,0,0.8,0.1,1.2,0.2c0.3,0.1,0.6,0.3,0.8,0.6c0.2,0.3,0.4,0.6,0.5,0.9
				s0.2,0.7,0.2,1.1c0,0.1,0,0.1,0,0.1c0,0,0,0.1,0,0.1c0,0,0,0.1,0,0.1h-4.1c0,0.2,0.1,0.4,0.2,0.6c0.1,0.2,0.2,0.3,0.3,0.4
				s0.3,0.2,0.4,0.2c0.2,0,0.3,0.1,0.5,0.1c0.3,0,0.6-0.1,0.8-0.2c0.2-0.2,0.4-0.3,0.5-0.6L456.8,217.7z M455.5,215.6
				c0-0.1,0-0.2-0.1-0.3s-0.1-0.2-0.2-0.3s-0.2-0.2-0.4-0.3c-0.2-0.1-0.3-0.1-0.6-0.1c-0.3,0-0.6,0.1-0.8,0.3s-0.4,0.4-0.5,0.7
				H455.5z"/>
		</g>
	</g>
	<g>
		<circle fill="#42C661" cx="251" cy="215.8" r="11.8"/>
		<path fill="#FFFFFF" d="M249.1,220.8l-4.6-4.6l1.5-1.5l3.1,3.1l7-7l1.5,1.5L249.1,220.8z"/>
	</g>
</g>
</svg>
