<?xml version="1.0" encoding="utf-8"?>
<!-- Generator: Adobe Illustrator 16.0.0, SVG Export Plug-In . SVG Version: 6.00 Build 0)  -->
<!DOCTYPE svg PUBLIC "-//W3C//DTD SVG 1.1//EN" "http://www.w3.org/Graphics/SVG/1.1/DTD/svg11.dtd">
<svg version="1.1" id="PRLayer_1" xmlns="http://www.w3.org/2000/svg" xmlns:xlink="http://www.w3.org/1999/xlink" x="0px" y="0px"
	 viewBox="0 0 700 470" enable-background="new 0 0 700 470" xml:space="preserve">
<g>
	<g>
		<linearGradient id="SVGPRIDSRI_1_" gradientUnits="userSpaceOnUse" x1="199.8452" y1="255.7002" x2="199.8452" y2="154.814">
			<stop  offset="0" style="stop-color:#FFFFFF;stop-opacity:0"/>
			<stop  offset="0.2916" style="stop-color:#F7F7F7;stop-opacity:0.2916"/>
			<stop  offset="0.7505" style="stop-color:#E0E1E2;stop-opacity:0.7505"/>
			<stop  offset="1" style="stop-color:#D1D3D4"/>
		</linearGradient>
		<path fill="url(#SVGPRIDSRI_1_)" d="M173.9,154.8v100.9h51.8V154.8H173.9z M217.2,210.3h-34.9v-1.5h34.9V210.3z M217.2,205.4h-34.9
			v-1.5h34.9V205.4z M217.2,200.5h-34.9V199h34.9V200.5z M217.2,195.6h-34.9v-1.5h34.9V195.6z M217.2,190.7h-34.9v-1.5h34.9V190.7z
			 M217.2,185.7h-34.9v-1.5h34.9V185.7z M217.2,180.8h-34.9v-1.5h34.9V180.8z M217.2,175.9h-34.9v-1.5h34.9V175.9z M217.2,171h-34.9
			v-1.5h34.9V171z M217.2,166.1h-34.9v-1.5h34.9V166.1z"/>
	</g>
	<linearGradient id="SVGPRIDSRI_2_" gradientUnits="userSpaceOnUse" x1="670.0313" y1="307.7676" x2="670.0313" y2="239.9443">
		<stop  offset="0" style="stop-color:#FFFFB4;stop-opacity:0.4"/>
		<stop  offset="0.1658" style="stop-color:#E6F5A9;stop-opacity:0.4995"/>
		<stop  offset="0.5183" style="stop-color:#A7DB8E;stop-opacity:0.711"/>
		<stop  offset="1" style="stop-color:#47B464"/>
	</linearGradient>
	<path fill="url(#SVGPRIDSRI_2_)" d="M649.9,305.9c0,0-2.1-0.9-4.1-3c-4.1-4.1-7.4-10.6-1.5-19.4c0,0-3.6-10.4,4.4-15.9
		c0,0,6.9-4.4,8-13.6c0,0,1.5-16.8,16.1-13.7c0,0,10.1,1.6,10.6,19.4c0,0,10.8,1.8,9.1,13.3c0,0,10.6,8.4,4.8,23.8
		c0,0-3.3,11.4-19.6,10.9h-20C657.7,307.8,654.8,308,649.9,305.9z"/>
	<g id="surface_4_" opacity="0.3">
		<g>
			<g opacity="0.5">
				<path opacity="0.5" fill="#5D5D5D" d="M490.3,311.4c-10.6,1-22.7-0.2-32.7,3.3c-3.9,1.3-13.2,0.6-15.4,4.2
					c2.8,1.4,7.6,1.4,10.8,1.9c3.5,0.5,6.5,1.6,9.8,2.6c20.6,6.4,44.9,4.8,66.3,4.8c30.5,0,42.5,4.3,53,4.5
					c11.3,0.2,20.5-5.9,31.3-7.7c8-1.1,10.4-3.6,18.4-3.8c4.5,0,65.5-2,69.6-3.4c6.5-1.4,17.5-5.1-4.5-7.7c-2.3,0-19.6-3.4-38-3.7
					c-24.7-0.4-38.8,3.4-41.9,2.6c-4.5-1.1-9.1-1.1-13.7-1.3c-2.6,0-5,0.2-7.4,0.2c-10.4,0.2-90.9,4.4-97.4,3.6L490.3,311.4z"/>
			</g>
			<g>
				<path opacity="0.5" fill="#5D5D5D" d="M404.5,308.3c-11.6,1-56.3,0.9-72.3,0.1c-2.4,0.8-21.7-0.5-26.2,0.1
					c-3.1,0.4,14.6,5.4,26.8,8.7c5.6-0.1,27.5,0.9,30.9,1.4c3.9,0.5,7.1,1.7,10.8,2.8c22.6,7,50.8,14,74.2,14
					c16.7,0,26.9-6.3,43.4-5.9c12.4,0.2,27.3-9.7,39.1-11.6c8.7-1.2,17.3-1,26-1.2c4.9,0,14.4,2.1,18.8,0.5c7.1-1.5,44.6-8,29-8
					c-5.9,0-55.8-2-61.7-3.5c-4.9-1.2-10-1.2-15-1.4c-2.8,0-5.5,0.2-8.1,0.2c-9.1,0.2-97.6,5-106.5,4L404.5,308.3z"/>
			</g>
		</g>
	</g>
	<g>
		<g opacity="0.5">
			<path opacity="0.5" fill="#5D5D5D" d="M60.2,372.9c-4,0.5-8.6-0.1-12.4,1.6c-1.5,0.6-5,0.3-5.9,2c1.1,0.7,2.9,0.7,4.1,0.9
				c1.3,0.2,2.5,0.8,3.7,1.2c7.8,3,17.1,2.3,25.2,2.3c11.6,0,16.2,2,20.2,2.1c4.3,0.1,7.8-2.8,11.9-3.6c3-0.5,4-1.7,7-1.8
				c1.7,0,24.9-0.9,26.5-1.6c2.5-0.7,6.7-2.4-1.7-3.6c-0.9,0-7.4-1.6-14.5-1.8c-9.4-0.2-14.8,1.6-15.9,1.2c-1.7-0.5-3.5-0.5-5.2-0.6
				c-1,0-1.9,0.1-2.8,0.1c-4,0.1-34.6,2.1-37.1,1.7L60.2,372.9z"/>
		</g>
	</g>
	<g>
		<g opacity="0.5">
			<path opacity="0.5" fill="#5D5D5D" d="M18.3,337.1c-4,0.8-8.6-0.1-12.4,2.9c-1.5,1.1-5,0.6-5.9,3.7c1.1,1.3,2.9,1.3,4.1,1.7
				c1.3,0.4,2.5,1.4,3.7,2.3c7.8,5.6,17.1,4.2,25.2,4.2c11.6,0,16.2,3.7,20.2,3.9c4.3,0.1,7.8-5.2,11.9-6.8c3-1,4-3.2,7-3.3
				c12.7-3.9,33.8-2.9,35.3-4.2c3-0.3,14.7-2.8-10.5-5.6c-0.9,0-7.9,0-14.9-0.3c-9.4-0.4-14.3,0-15.5-0.7c-1.7-1-3.5-1-5.2-1.1
				c-1,0-1.9,0.1-2.8,0.1c-4,0.2-34.6,3.9-37.1,3.2L18.3,337.1z"/>
		</g>
	</g>
	<linearGradient id="SVGPRIDSRI_3_" gradientUnits="userSpaceOnUse" x1="340.4272" y1="123.6934" x2="340.4272" y2="267.1724">
		<stop  offset="0" style="stop-color:#6D6E71"/>
		<stop  offset="0.2029" style="stop-color:#636466;stop-opacity:0.7971"/>
		<stop  offset="0.507" style="stop-color:#5A5B5E;stop-opacity:0.493"/>
		<stop  offset="1" style="stop-color:#58595B;stop-opacity:0"/>
	</linearGradient>
	<polygon opacity="0.3" fill="url(#SVGPRIDSRI_3_)" points="382,137.2 380.1,136.5 380.1,126.3 380.6,126.3 380.6,123.7 368.3,123.7 
		368.3,125.9 369.9,125.9 369.9,127.6 369.1,127.6 369.1,129.1 369.9,129.1 369.9,133.7 331.2,123.8 331.2,126.6 333.7,127.8 
		334.1,137.1 298.8,141.8 298.8,144.1 301.7,144.1 301.7,175.5 300.8,175.5 300.8,267.2 302.5,267.1 380.3,266.9 380.3,173 
		380.3,163.8 380.2,139.4 382,140 	"/>
	<linearGradient id="SVGPRIDSRI_4_" gradientUnits="userSpaceOnUse" x1="358.1201" y1="307.8701" x2="358.1201" y2="240.3076">
		<stop  offset="0" style="stop-color:#FFFFB4;stop-opacity:0.4"/>
		<stop  offset="0.1658" style="stop-color:#E6F5A9;stop-opacity:0.4995"/>
		<stop  offset="0.5183" style="stop-color:#A7DB8E;stop-opacity:0.711"/>
		<stop  offset="1" style="stop-color:#47B464"/>
	</linearGradient>
	<path fill="url(#SVGPRIDSRI_4_)" d="M341,307.9h-10.3c-8.6-1.2-9.3-11.7-9.3-11.7c-0.4-3.3,0.6-7.1,2.7-9.7c1.9-2.3,4.3-3.6,4.5-6.8
		c0.2-3-0.2-6.3,1.2-9.1c0.9-1.8,2.3-1.6,3.8-2.4c1.8-0.8,1.3-1.8,1.4-3.8c0.1-3.8,0.5-7.9,3.8-10.3c3.3-2.4,8.9-2.4,11-6.1
		c1.9-3.5,3.2-6.9,7.7-7.7c0,0,0.4-0.1,1.1,0c4.5,0.7,5.8,4.2,7.7,7.7c2.1,3.7,7.7,3.7,11,6.1c3.3,2.4,3.7,6.5,3.8,10.3
		c0.1,2-0.4,3,1.4,3.8c1.5,0.8,2.8,0.6,3.8,2.4c1.4,2.8,1,6.1,1.2,9.1c0.2,3.2,2.6,4.5,4.5,6.8c2.1,2.6,3.1,6.3,2.7,9.7
		c0,0-0.7,10.5-9.3,11.7h-10.3H341z"/>
	<path opacity="0.9" fill="none" stroke="#8E0C2B" stroke-miterlimit="10" d="M328.3,308.2c104.7,0,209.3,0,314,0"/>
	<g>
		<rect x="133.5" y="271.7" fill="#DD444D" width="32.6" height="22.8"/>
		<rect x="139.1" y="290.3" opacity="0.5" fill="#FAFAFA" width="4.1" height="2.7"/>
		<rect x="161" y="290.6" opacity="0.5" fill="#FAFAFA" width="0.6" height="2.5"/>
		<rect x="162" y="290.6" opacity="0.5" fill="#FAFAFA" width="0.6" height="2.5"/>
		<rect x="163.7" y="292.5" opacity="0.5" fill="#FAFAFA" width="1.6" height="0.6"/>
		<path opacity="0.5" fill="#FAFAFA" d="M165.1,290.6v0.6c0,0.4-0.3,0.7-0.7,0.7l0,0c-0.4,0-0.7-0.3-0.7-0.7v-0.6H165.1z"/>
		<rect x="165.9" y="271.7" fill="#DD444D" width="32.6" height="22.8"/>
		<rect x="171.6" y="290.3" opacity="0.5" fill="#FAFAFA" width="4.1" height="2.7"/>
		<rect x="193.5" y="290.6" opacity="0.5" fill="#FAFAFA" width="0.6" height="2.5"/>
		<rect x="194.5" y="290.6" opacity="0.5" fill="#FAFAFA" width="0.6" height="2.5"/>
		<rect x="196.1" y="292.5" opacity="0.5" fill="#FAFAFA" width="1.6" height="0.6"/>
		<path opacity="0.5" fill="#FAFAFA" d="M197.6,290.6v0.6c0,0.4-0.3,0.7-0.7,0.7l0,0c-0.4,0-0.7-0.3-0.7-0.7v-0.6H197.6z"/>
		<rect x="100.8" y="271.7" fill="#DD444D" width="32.6" height="22.8"/>
		<rect x="106.5" y="290.3" opacity="0.5" fill="#FAFAFA" width="4.1" height="2.7"/>
		<rect x="128.4" y="290.6" opacity="0.5" fill="#FAFAFA" width="0.6" height="2.5"/>
		<rect x="129.4" y="290.6" opacity="0.5" fill="#FAFAFA" width="0.6" height="2.5"/>
		<rect x="131" y="292.5" opacity="0.5" fill="#FAFAFA" width="1.6" height="0.6"/>
		<path opacity="0.5" fill="#FAFAFA" d="M132.5,290.6v0.6c0,0.4-0.3,0.7-0.7,0.7l0,0c-0.4,0-0.7-0.3-0.7-0.7v-0.6H132.5z"/>
		<rect x="107.5" y="294.5" fill="#DD444D" width="32.6" height="22.8"/>
		<rect x="113.2" y="313.2" opacity="0.5" fill="#FAFAFA" width="4.1" height="2.7"/>
		<rect x="135.1" y="313.4" opacity="0.5" fill="#FAFAFA" width="0.6" height="2.5"/>
		<rect x="136.1" y="313.4" opacity="0.5" fill="#FAFAFA" width="0.6" height="2.5"/>
		<rect x="137.7" y="315.3" opacity="0.5" fill="#FAFAFA" width="1.6" height="0.6"/>
		<path opacity="0.5" fill="#FAFAFA" d="M139.2,313.5v0.6c0,0.4-0.3,0.7-0.7,0.7l0,0c-0.4,0-0.7-0.3-0.7-0.7v-0.6H139.2z"/>
		<rect x="74.9" y="294.5" fill="#DD444D" width="32.6" height="22.8"/>
		<rect x="80.5" y="313.2" opacity="0.5" fill="#FAFAFA" width="4.1" height="2.7"/>
		<rect x="102.4" y="313.4" opacity="0.5" fill="#FAFAFA" width="0.6" height="2.5"/>
		<rect x="103.4" y="313.4" opacity="0.5" fill="#FAFAFA" width="0.6" height="2.5"/>
		<rect x="105.1" y="315.3" opacity="0.5" fill="#FAFAFA" width="1.6" height="0.6"/>
		<path opacity="0.5" fill="#FAFAFA" d="M106.6,313.5v0.6c0,0.4-0.3,0.7-0.7,0.7l0,0c-0.4,0-0.7-0.3-0.7-0.7v-0.6H106.6z"/>
		<rect x="114.4" y="248.8" fill="#DD444D" width="32.6" height="22.8" id="red-box_1"/>
		<rect x="172.7" y="294.5" fill="#DD444D" width="32.6" height="22.8"/>
		<rect x="178.4" y="313.2" opacity="0.5" fill="#FAFAFA" width="4.1" height="2.7"/>
		<rect x="200.3" y="313.4" opacity="0.5" fill="#FAFAFA" width="0.6" height="2.5"/>
		<rect x="201.3" y="313.4" opacity="0.5" fill="#FAFAFA" width="0.6" height="2.5"/>
		<rect x="203" y="315.3" opacity="0.5" fill="#FAFAFA" width="1.6" height="0.6"/>
		<path opacity="0.5" fill="#FAFAFA" d="M204.4,313.5v0.6c0,0.4-0.3,0.7-0.7,0.7l0,0c-0.4,0-0.7-0.3-0.7-0.7v-0.6H204.4z"/>
		<rect x="140.1" y="294.5" fill="#DD444D" width="32.6" height="22.8"/>
		<rect x="145.8" y="313.2" opacity="0.5" fill="#FAFAFA" width="4.1" height="2.7"/>
		<rect x="167.7" y="313.4" opacity="0.5" fill="#FAFAFA" width="0.6" height="2.5"/>
		<rect x="168.7" y="313.4" opacity="0.5" fill="#FAFAFA" width="0.6" height="2.5"/>
		<rect x="170.3" y="315.3" opacity="0.5" fill="#FAFAFA" width="1.6" height="0.6"/>
		<path opacity="0.5" fill="#FAFAFA" d="M171.8,313.5v0.6c0,0.4-0.3,0.7-0.7,0.7l0,0c-0.4,0-0.7-0.3-0.7-0.7v-0.6H171.8z"/>
		<rect x="147" y="248.6" fill="#DD444D" width="32.6" height="23" id="red-box_2"/>
		<rect x="152.6" y="267.3" opacity="0.5" fill="#FAFAFA" width="4.1" height="2.7"/>
		<rect x="174.5" y="267.6" opacity="0.5" fill="#FAFAFA" width="0.6" height="2.5"/>
		<rect x="175.5" y="267.6" opacity="0.5" fill="#FAFAFA" width="0.6" height="2.5"/>
		<rect x="177.2" y="269.4" opacity="0.5" fill="#FAFAFA" width="1.6" height="0.6"/>
		<path opacity="0.5" fill="#FAFAFA" d="M178.6,267.6v0.6c0,0.4-0.3,0.7-0.7,0.7l0,0c-0.4,0-0.7-0.3-0.7-0.7v-0.6H178.6z"/>
		<linearGradient id="SVGPRIDSRI_5_" gradientUnits="userSpaceOnUse" x1="145.0342" y1="260.7285" x2="151.8172" y2="259.5325">
			<stop  offset="0" style="stop-color:#7D1E2D"/>
			<stop  offset="1" style="stop-color:#7D1E2D;stop-opacity:0"/>
		</linearGradient>
		<rect x="146.9" y="248.7" fill="url(#SVGPRIDSRI_5_)" width="3" height="22.8"/>
		<linearGradient id="SVGPRIDSRI_6_" gradientUnits="userSpaceOnUse" x1="112.4902" y1="260.7285" x2="119.2719" y2="259.5327">
			<stop  offset="0" style="stop-color:#7D1E2D"/>
			<stop  offset="1" style="stop-color:#7D1E2D;stop-opacity:0"/>
		</linearGradient>
		<rect x="114.4" y="248.7" fill="url(#SVGPRIDSRI_6_)" width="3" height="22.8"/>
		<rect x="120.1" y="267.5" opacity="0.5" fill="#FAFAFA" width="4.1" height="2.7"/>
		<rect x="141.9" y="267.7" opacity="0.5" fill="#FAFAFA" width="0.6" height="2.5"/>
		<rect x="142.9" y="267.7" opacity="0.5" fill="#FAFAFA" width="0.6" height="2.5"/>
		<rect x="144.6" y="269.6" opacity="0.5" fill="#FAFAFA" width="1.6" height="0.6"/>
		<path opacity="0.5" fill="#FAFAFA" d="M146.1,267.8v0.6c0,0.4-0.3,0.7-0.7,0.7l0,0c-0.4,0-0.7-0.3-0.7-0.7v-0.6H146.1z"/>
		<linearGradient id="SVGPRIDSRI_7_" gradientUnits="userSpaceOnUse" x1="98.9351" y1="283.6396" x2="105.7186" y2="282.4435">
			<stop  offset="0" style="stop-color:#7D1E2D"/>
			<stop  offset="1" style="stop-color:#7D1E2D;stop-opacity:0"/>
		</linearGradient>
		<rect x="100.8" y="271.6" fill="url(#SVGPRIDSRI_7_)" width="3" height="22.8"/>
		<linearGradient id="SVGPRIDSRI_8_" gradientUnits="userSpaceOnUse" x1="131.5396" y1="283.6299" x2="138.3236" y2="282.4337">
			<stop  offset="0" style="stop-color:#7D1E2D"/>
			<stop  offset="1" style="stop-color:#7D1E2D;stop-opacity:0"/>
		</linearGradient>
		<rect x="133.4" y="271.6" fill="url(#SVGPRIDSRI_8_)" width="3" height="22.8"/>
		<linearGradient id="SVGPRIDSRI_9_" gradientUnits="userSpaceOnUse" x1="164.0049" y1="283.6475" x2="170.7875" y2="282.4515">
			<stop  offset="0" style="stop-color:#7D1E2D"/>
			<stop  offset="1" style="stop-color:#7D1E2D;stop-opacity:0"/>
		</linearGradient>
		<rect x="165.9" y="271.7" fill="url(#SVGPRIDSRI_9_)" width="3" height="22.8"/>
		<linearGradient id="SVGPRIDSRI_10_" gradientUnits="userSpaceOnUse" x1="72.9736" y1="306.4873" x2="79.7572" y2="305.2912">
			<stop  offset="0" style="stop-color:#7D1E2D"/>
			<stop  offset="1" style="stop-color:#7D1E2D;stop-opacity:0"/>
		</linearGradient>
		<rect x="74.9" y="294.5" fill="url(#SVGPRIDSRI_10_)" width="3" height="22.8"/>
		<rect x="133.9" y="225.8" fill="#DD444D" width="32.6" height="22.8" id="red-box_3"/>
		<rect x="139.6" y="244.5" opacity="0.5" fill="#FAFAFA" width="4.1" height="2.7"/>
		<rect x="161.5" y="244.8" opacity="0.5" fill="#FAFAFA" width="0.6" height="2.5"/>
		<rect x="162.5" y="244.8" opacity="0.5" fill="#FAFAFA" width="0.6" height="2.5"/>
		<rect x="164.1" y="246.6" opacity="0.5" fill="#FAFAFA" width="1.6" height="0.6"/>
		<path opacity="0.5" fill="#FAFAFA" d="M165.6,244.8v0.6c0,0.4-0.3,0.7-0.7,0.7l0,0c-0.4,0-0.7-0.3-0.7-0.7v-0.6H165.6z"/>
		<linearGradient id="SVGPRIDSRI_11_" gradientUnits="userSpaceOnUse" x1="132.0234" y1="237.8389" x2="138.8065" y2="236.6428">
			<stop  offset="0" style="stop-color:#7D1E2D"/>
			<stop  offset="1" style="stop-color:#7D1E2D;stop-opacity:0"/>
		</linearGradient>
		<rect x="133.9" y="225.8" fill="url(#SVGPRIDSRI_11_)" width="3" height="22.8"/>
		<linearGradient id="SVGPRIDSRI_12_" gradientUnits="userSpaceOnUse" x1="105.6152" y1="306.4795" x2="112.3983" y2="305.2834">
			<stop  offset="0" style="stop-color:#7D1E2D"/>
			<stop  offset="1" style="stop-color:#7D1E2D;stop-opacity:0"/>
		</linearGradient>
		<rect x="107.5" y="294.5" fill="url(#SVGPRIDSRI_12_)" width="3" height="22.8"/>
		<linearGradient id="SVGPRIDSRI_13_" gradientUnits="userSpaceOnUse" x1="138.2656" y1="306.4668" x2="145.0487" y2="305.2708">
			<stop  offset="0" style="stop-color:#7D1E2D"/>
			<stop  offset="0.1086" style="stop-color:#871E2D"/>
			<stop  offset="0.4694" style="stop-color:#A51E2D"/>
			<stop  offset="0.7792" style="stop-color:#B71E2D"/>
			<stop  offset="1" style="stop-color:#BE1E2D"/>
		</linearGradient>
		<rect x="140.2" y="294.5" fill="url(#SVGPRIDSRI_13_)" width="3" height="22.8"/>
		<linearGradient id="SVGPRIDSRI_14_" gradientUnits="userSpaceOnUse" x1="170.873" y1="306.5039" x2="177.6561" y2="305.3079">
			<stop  offset="0" style="stop-color:#7D1E2D"/>
			<stop  offset="1" style="stop-color:#7D1E2D;stop-opacity:0"/>
		</linearGradient>
		<rect x="172.8" y="294.5" fill="url(#SVGPRIDSRI_14_)" width="3" height="22.8"/>
	</g>
	<g>
		<g opacity="0.3">
			<linearGradient id="SVGPRIDSRI_15_" gradientUnits="userSpaceOnUse" x1="262.5859" y1="100.855" x2="262.5859" y2="276.2114">
				<stop  offset="0" style="stop-color:#6D6E71"/>
				<stop  offset="0.2029" style="stop-color:#636466;stop-opacity:0.7971"/>
				<stop  offset="0.507" style="stop-color:#5A5B5E;stop-opacity:0.493"/>
				<stop  offset="1" style="stop-color:#58595B;stop-opacity:0"/>
			</linearGradient>
			<path fill="url(#SVGPRIDSRI_15_)" d="M228,100.9v175.4h69.1V100.9H228z M253.7,266.5h-3.6V110.2h3.6V266.5z M261,266.5h-3.6V110.2h3.6
				V266.5z M268.3,266.5h-3.6V110.2h3.6V266.5z M275.6,266.5h-3.6V110.2h3.6V266.5z M282.8,266.5h-3.6V110.2h3.6V266.5z"/>
		</g>
		<linearGradient id="SVGPRIDSRI_16_" gradientUnits="userSpaceOnUse" x1="277.5728" y1="108.417" x2="277.5728" y2="87.082">
			<stop  offset="0" style="stop-color:#FFFFFF;stop-opacity:0"/>
			<stop  offset="0.3175" style="stop-color:#FCFCFC;stop-opacity:0.3175"/>
			<stop  offset="0.5913" style="stop-color:#F1F2F2;stop-opacity:0.5913"/>
			<stop  offset="0.8481" style="stop-color:#DFE1E1;stop-opacity:0.8481"/>
			<stop  offset="1" style="stop-color:#D1D3D4"/>
		</linearGradient>
		<rect x="269" y="87.1" fill="url(#SVGPRIDSRI_16_)" width="17.1" height="21.3"/>
	</g>
	<g>
		<g>
			<polygon fill="#F23A30" points="357.7,311.4 633.7,319.2 647.1,72.8 373.4,73.7 			"/>
			<polygon fill="#841A43" points="647.1,72.8 674.6,307.6 633.9,313.2 			"/>
			<polygon fill="#720E34" points="634.8,297.9 653.9,297.5 674.6,307.6 633.9,313.2 			"/>
			<polygon fill="#A80F3B" points="633.7,319.2 653.9,297.5 634.8,297.9 			"/>
		</g>
		<polygon opacity="0.3" fill="#8E163E" points="376.8,299 616.7,305.8 628.4,91.6 390.5,92.5 		"/>
		<g>
			<polygon fill="#8E163E" points="387.4,191 423.8,192.7 425.6,160.4 389.5,159.9 			"/>
			<polygon fill="#8E163E" points="384.9,226.1 421.4,227.7 423.1,195.4 387,195 			"/>
			<polygon fill="#8E163E" points="382.3,261.1 418.7,262.8 420.5,230.5 384.4,230 			"/>
			<polygon fill="#8E163E" points="379.8,296.2 416.2,297.8 418,265.5 381.9,265.1 			"/>
			<polygon fill="#8E163E" points="426.7,191.7 463.1,193.3 464.8,161.1 428.7,160.6 			"/>
			<polygon fill="#8E163E" points="424.2,226.8 460.6,228.4 462.4,196.1 426.3,195.6 			"/>
			<polygon fill="#8E163E" points="421.6,261.8 458,263.4 459.8,231.2 423.6,230.7 			"/>
			<polygon fill="#8E163E" points="419.1,296.8 455.5,298.5 457.2,266.2 421.1,265.7 			"/>
			<polygon fill="#8E163E" points="465.9,192.4 502.3,194 504.1,161.7 468,161.2 			"/>
			<polygon fill="#8E163E" points="463.4,227.4 499.8,229.1 501.6,196.8 465.5,196.3 			"/>
			<polygon fill="#8E163E" points="460.8,262.5 497.2,264.1 499,231.8 462.9,231.3 			"/>
			<polygon fill="#8E163E" points="458.3,297.5 494.7,299.1 496.5,266.9 460.4,266.4 			"/>
			<polygon fill="#8E163E" points="505.1,193 541.5,194.7 543.3,162.4 507.2,161.9 			"/>
			<polygon fill="#8E163E" points="502.6,228.1 539,229.7 540.8,197.4 504.7,197 			"/>
			<polygon fill="#8E163E" points="500,263.1 536.4,264.8 538.2,232.5 502.1,232 			"/>
			<polygon fill="#8E163E" points="497.5,298.2 533.9,299.8 535.7,267.5 499.6,267 			"/>
			<polygon fill="#8E163E" points="544.4,193.7 580.8,195.3 582.5,163 546.4,162.6 			"/>
			<polygon fill="#8E163E" points="541.9,228.7 578.3,230.4 580.1,198.1 544,197.6 			"/>
			<polygon fill="#8E163E" points="539.3,263.8 575.7,265.4 577.4,233.1 541.3,232.7 			"/>
			<polygon fill="#8E163E" points="536.7,298.8 573.2,300.5 574.9,268.2 538.8,267.7 			"/>
			<polygon fill="#8E163E" points="389.9,156 426.3,157.6 428.1,125.4 392,124.9 			"/>
			<polygon fill="#8E163E" points="429.1,156.7 465.5,158.3 467.3,126 431.2,125.5 			"/>
			<polygon fill="#8E163E" points="468.4,157.3 504.8,159 506.5,126.7 470.4,126.2 			"/>
			<polygon fill="#8E163E" points="507.6,158 544,159.6 545.8,127.3 509.7,126.9 			"/>
			<polygon fill="#8E163E" points="546.8,158.6 583.2,160.3 585,128 548.9,127.5 			"/>
			<polygon fill="#8E163E" points="586.1,159.3 622.5,160.9 624.2,128.7 588.1,128.2 			"/>
			<polygon fill="#8E163E" points="583.6,194.4 620,196 621.8,163.7 585.7,163.2 			"/>
			<polygon fill="#8E163E" points="581.1,229.4 617.5,231 619.3,198.8 583.2,198.3 			"/>
			<polygon fill="#8E163E" points="578.5,264.4 614.9,266.1 616.7,233.8 580.6,233.3 			"/>
			<polygon fill="#8E163E" points="576,299.5 612.4,301.1 614.2,268.9 578.1,268.4 			"/>
		</g>
		<g>
			<path opacity="0.7" fill="#771239" d="M400.9,83.1c0,1.1-0.9,2-2,2c-1.1,0-2-0.9-2-2c0-1.1,0.9-2,2-2
				C400,81.1,400.9,82,400.9,83.1z"/>
			<circle opacity="0.7" fill="#771239" cx="429.7" cy="83.2" r="2"/>
			<path opacity="0.7" fill="#771239" d="M462.5,83.3c0,1.1-0.9,2-2,2c-1.1,0-2-0.9-2-2c0-1.1,0.9-2,2-2
				C461.6,81.4,462.5,82.2,462.5,83.3z"/>
			<path opacity="0.7" fill="#771239" d="M493.1,83.5c0,1.1-0.9,2-2,2c-1.1,0-2-0.9-2-2c0-1.1,0.9-2,2-2
				C492.2,81.5,493.1,82.4,493.1,83.5z"/>
			<circle opacity="0.7" fill="#771239" cx="521.2" cy="83.5" r="2"/>
			<circle opacity="0.7" fill="#771239" cx="552.9" cy="83.6" r="2"/>
			<circle opacity="0.7" fill="#771239" cx="583.6" cy="83.9" r="2"/>
			<path opacity="0.7" fill="#771239" d="M616.3,84.1c0,1.1-0.9,2-1.9,2c-1.1,0-2-0.9-2-2c0-1.1,0.9-2,2-2
				C615.4,82.1,616.3,83,616.3,84.1z"/>
		</g>
		<g>
			<path fill="#771239" d="M399.4,73.5c0,0,0-0.1,0-0.4c0-0.3,0-0.4,0.1-0.7c0-0.6-0.1-1.4-0.4-1.9c-0.2-0.3-0.4-0.5-0.8-0.7
				c-0.4-0.2-1-0.3-1.7-0.2c-0.3,0-0.7,0.1-1,0.3c-0.3,0.1-0.3,0.1-0.4,0.2c-0.1,0-0.3,0.2-0.4,0.3c-0.6,0.4-1.1,1.1-1.5,1.8
				c-0.8,1.5-1.1,3.5-0.9,5.3c0.1,0.8,0.5,1.6,0.9,2.3c0.4,0.7,1,1.3,1.6,1.7c1.2,0.9,2.6,1.1,3.5,1.2c0.5,0,0.8,0.1,1.1,0.1
				c0.3,0,0.4,0,0.4,0s-0.1,0-0.4,0.1c-0.2,0.1-0.6,0.1-1.1,0.2c-0.9,0.1-2.4,0.1-4-0.6c-0.8-0.3-1.6-0.9-2.4-1.6
				c-0.7-0.8-1.4-1.6-1.8-2.8c-0.7-2.1-1-4.6-0.2-7.1c0.4-1.2,1-2.5,1.9-3.5c0.3-0.3,0.5-0.5,0.8-0.8c0.3-0.3,0.7-0.6,0.9-0.7
				c0.6-0.4,1.2-0.7,1.8-0.9c1.3-0.5,2.7-0.6,4.1-0.4c1.4,0.2,2.8,0.9,3.7,1.9c1,0.9,1.6,2,1.9,2.8c0.4,0.9,0.6,1.7,0.7,2.3
				c0.1,0.6,0.2,1.2,0.2,1.5c0,0.3,0,0.4,0,0.4L399.4,73.5z"/>
			<path fill="#771239" d="M430.1,73.5c0,0,0-0.1,0-0.4c0-0.3,0-0.4,0.1-0.7c0-0.6-0.1-1.4-0.4-1.9c-0.1-0.3-0.4-0.5-0.7-0.7
				c-0.4-0.2-1-0.3-1.7-0.2c-0.3,0-0.7,0.1-1,0.3c-0.3,0.1-0.3,0.1-0.4,0.2c-0.1,0-0.3,0.2-0.4,0.3c-0.6,0.4-1.1,1.1-1.5,1.8
				c-0.8,1.5-1.1,3.5-0.9,5.3c0.1,0.8,0.5,1.6,0.9,2.3c0.4,0.7,1,1.3,1.6,1.7c1.2,0.9,2.6,1.1,3.5,1.2c0.5,0,0.8,0.1,1.1,0.1
				c0.3,0,0.4,0,0.4,0s-0.1,0-0.4,0.1c-0.2,0.1-0.6,0.1-1.1,0.2c-0.9,0.1-2.4,0.1-4-0.6c-0.8-0.3-1.6-0.9-2.4-1.6
				c-0.7-0.8-1.4-1.6-1.8-2.8c-0.7-2.1-1-4.6-0.2-7.1c0.4-1.2,1-2.5,1.9-3.5c0.3-0.3,0.5-0.5,0.8-0.8c0.3-0.3,0.7-0.6,0.9-0.7
				c0.6-0.4,1.2-0.7,1.8-0.9c1.3-0.5,2.7-0.6,4.1-0.4c1.4,0.2,2.8,0.9,3.7,1.9c1,0.9,1.6,2,1.9,2.8c0.4,0.9,0.6,1.7,0.7,2.3
				c0.1,0.6,0.2,1.2,0.2,1.5c0,0.3,0,0.4,0,0.4L430.1,73.5z"/>
			<path fill="#771239" d="M460.8,73.5c0,0,0-0.1,0-0.4c0-0.3,0-0.4,0.1-0.7c0-0.6-0.1-1.4-0.4-1.9c-0.1-0.3-0.3-0.5-0.7-0.7
				c-0.4-0.2-1-0.3-1.7-0.2c-0.3,0-0.7,0.1-1,0.3c-0.3,0.1-0.3,0.1-0.4,0.2c-0.1,0-0.3,0.2-0.4,0.3c-0.6,0.4-1.1,1.1-1.5,1.8
				c-0.8,1.5-1.1,3.5-0.9,5.3c0.1,0.8,0.5,1.6,0.9,2.3c0.4,0.7,1,1.3,1.6,1.7c1.2,0.9,2.6,1.1,3.5,1.2c0.5,0,0.8,0.1,1.1,0.1
				c0.3,0,0.4,0,0.4,0s-0.1,0-0.4,0.1c-0.2,0.1-0.6,0.1-1.1,0.2c-0.9,0.1-2.4,0.1-4-0.6c-0.8-0.3-1.6-0.9-2.4-1.6
				c-0.7-0.8-1.4-1.6-1.8-2.8c-0.7-2.1-1-4.6-0.2-7.1c0.4-1.2,1-2.5,1.9-3.5c0.3-0.3,0.5-0.5,0.8-0.8c0.3-0.3,0.7-0.6,0.9-0.7
				c0.6-0.4,1.2-0.7,1.8-0.9c1.3-0.5,2.7-0.6,4.1-0.4c1.4,0.2,2.8,0.9,3.7,1.9c1,0.9,1.6,2,1.9,2.8c0.4,0.9,0.6,1.7,0.7,2.3
				c0.1,0.6,0.2,1.2,0.2,1.5c0,0.3,0,0.4,0,0.4L460.8,73.5z"/>
			<path fill="#771239" d="M491.5,73.5c0,0,0-0.1,0-0.4c0-0.3,0-0.4,0.1-0.7c0-0.6-0.1-1.4-0.4-1.9c-0.1-0.3-0.4-0.5-0.7-0.7
				c-0.4-0.2-1-0.3-1.7-0.2c-0.3,0-0.7,0.1-1,0.3c-0.3,0.1-0.3,0.1-0.4,0.2c-0.1,0-0.3,0.2-0.4,0.3c-0.6,0.4-1.1,1.1-1.5,1.8
				c-0.8,1.5-1.1,3.5-0.9,5.3c0.1,0.8,0.5,1.6,0.9,2.3c0.5,0.7,1,1.3,1.6,1.7c1.2,0.9,2.6,1.1,3.5,1.2c0.5,0,0.8,0.1,1.1,0.1
				c0.3,0,0.4,0,0.4,0s-0.1,0-0.4,0.1c-0.2,0.1-0.6,0.1-1.1,0.2c-0.9,0.1-2.4,0.1-4-0.6c-0.8-0.3-1.6-0.9-2.4-1.6
				c-0.7-0.8-1.4-1.6-1.8-2.8c-0.7-2.1-1-4.6-0.2-7.1c0.4-1.2,1-2.5,1.9-3.5c0.3-0.3,0.5-0.5,0.8-0.8c0.3-0.3,0.7-0.6,0.9-0.7
				c0.6-0.4,1.2-0.7,1.8-0.9c1.3-0.5,2.7-0.6,4.1-0.4c1.4,0.2,2.8,0.9,3.7,1.9c1,0.9,1.6,2,1.9,2.8c0.4,0.9,0.6,1.7,0.7,2.3
				c0.1,0.6,0.2,1.2,0.2,1.5c0,0.3,0,0.4,0,0.4L491.5,73.5z"/>
			<path fill="#771239" d="M522.2,73.5c0,0,0-0.1,0-0.4c0-0.3,0-0.4,0.1-0.7c0-0.6-0.1-1.4-0.4-1.9c-0.2-0.3-0.4-0.5-0.7-0.7
				c-0.4-0.2-1-0.3-1.7-0.2c-0.3,0-0.7,0.1-1,0.3c-0.3,0.1-0.3,0.1-0.4,0.2c-0.1,0-0.3,0.2-0.4,0.3c-0.6,0.4-1.1,1.1-1.5,1.8
				c-0.8,1.5-1.1,3.5-0.9,5.3c0.1,0.8,0.5,1.6,0.9,2.3c0.5,0.7,1,1.3,1.6,1.7c1.2,0.9,2.6,1.1,3.5,1.2c0.5,0,0.8,0.1,1.1,0.1
				c0.3,0,0.4,0,0.4,0s-0.1,0-0.4,0.1c-0.3,0.1-0.6,0.1-1.1,0.2c-0.9,0.1-2.4,0.1-4-0.6c-0.8-0.3-1.6-0.9-2.4-1.6
				c-0.7-0.8-1.4-1.6-1.8-2.8c-0.7-2.1-1-4.6-0.2-7.1c0.4-1.2,1-2.5,1.9-3.5c0.3-0.3,0.5-0.5,0.8-0.8c0.3-0.3,0.7-0.6,0.9-0.7
				c0.6-0.4,1.2-0.7,1.8-0.9c1.3-0.5,2.7-0.6,4.1-0.4c1.4,0.2,2.8,0.9,3.7,1.9c1,0.9,1.6,2,1.9,2.8c0.4,0.9,0.6,1.7,0.7,2.3
				c0.1,0.6,0.2,1.2,0.2,1.5c0,0.3,0,0.4,0,0.4L522.2,73.5z"/>
			<path fill="#771239" d="M552.9,73.4c0,0,0-0.1,0-0.4c0-0.3,0-0.4,0.1-0.7c0-0.6-0.1-1.4-0.4-1.9c-0.1-0.3-0.3-0.5-0.7-0.7
				c-0.4-0.2-1-0.3-1.7-0.2c-0.3,0-0.7,0.1-1,0.3c-0.3,0.1-0.3,0.1-0.4,0.2c-0.1,0-0.3,0.2-0.4,0.3c-0.6,0.4-1.1,1.1-1.5,1.8
				c-0.8,1.5-1.1,3.5-0.9,5.3c0.1,0.8,0.5,1.6,0.9,2.3c0.5,0.7,1,1.3,1.6,1.7c1.2,0.9,2.6,1.1,3.5,1.2c0.5,0,0.8,0.1,1.1,0.1
				c0.3,0,0.4,0,0.4,0s-0.1,0-0.4,0.1c-0.2,0.1-0.6,0.1-1.1,0.2c-0.9,0.1-2.4,0.1-4-0.6c-0.8-0.3-1.6-0.9-2.4-1.6
				c-0.7-0.8-1.4-1.6-1.8-2.8c-0.7-2.1-1-4.6-0.2-7.1c0.4-1.2,1-2.5,1.9-3.5c0.3-0.3,0.5-0.5,0.8-0.8c0.3-0.3,0.7-0.6,0.9-0.7
				c0.6-0.4,1.2-0.7,1.8-0.9c1.3-0.5,2.7-0.6,4.1-0.4c1.4,0.2,2.8,0.9,3.7,1.9c1,0.9,1.6,2,1.9,2.8c0.4,0.9,0.6,1.7,0.7,2.3
				c0.1,0.6,0.2,1.2,0.2,1.5c0,0.3,0,0.4,0,0.4L552.9,73.4z"/>
			<path fill="#771239" d="M583.6,73.4c0,0,0-0.1,0-0.4c0-0.3,0-0.4,0.1-0.7c0-0.6-0.1-1.4-0.4-1.9c-0.1-0.3-0.3-0.5-0.7-0.7
				c-0.4-0.2-1-0.3-1.7-0.2c-0.3,0-0.7,0.1-1,0.3c-0.3,0.1-0.3,0.1-0.4,0.2c-0.1,0-0.3,0.2-0.4,0.3c-0.6,0.4-1.1,1.1-1.5,1.8
				c-0.8,1.5-1.1,3.5-0.9,5.3c0.1,0.8,0.5,1.6,0.9,2.3c0.4,0.7,1,1.3,1.6,1.7c1.2,0.9,2.6,1.1,3.5,1.2c0.5,0,0.8,0.1,1.1,0.1
				c0.3,0,0.4,0,0.4,0s-0.1,0-0.4,0.1c-0.3,0.1-0.6,0.1-1.1,0.2c-0.9,0.1-2.4,0.1-4-0.6c-0.8-0.3-1.6-0.9-2.4-1.6
				c-0.7-0.8-1.4-1.6-1.8-2.8c-0.7-2.1-1-4.6-0.2-7.1c0.4-1.2,1-2.5,1.9-3.5c0.3-0.3,0.5-0.5,0.8-0.8c0.3-0.3,0.7-0.6,0.9-0.7
				c0.6-0.4,1.2-0.7,1.8-0.9c1.3-0.4,2.7-0.6,4.1-0.4c1.4,0.2,2.8,0.9,3.7,1.9c1,0.9,1.6,2,1.9,2.8c0.4,0.9,0.6,1.7,0.7,2.3
				c0.1,0.6,0.2,1.2,0.2,1.5c0,0.3,0,0.4,0,0.4L583.6,73.4z"/>
			<path fill="#771239" d="M614.3,73.4c0,0,0-0.1,0-0.4c0-0.3,0-0.4,0.1-0.7c0-0.6-0.1-1.4-0.4-1.9c-0.1-0.3-0.4-0.5-0.7-0.7
				c-0.4-0.2-1-0.3-1.7-0.2c-0.3,0-0.7,0.1-1,0.3c-0.3,0.1-0.3,0.1-0.4,0.2c-0.1,0-0.3,0.2-0.4,0.3c-0.6,0.4-1.1,1.1-1.5,1.8
				c-0.8,1.5-1.1,3.5-0.9,5.3c0.1,0.8,0.5,1.6,0.9,2.3c0.4,0.7,1,1.3,1.6,1.7c1.2,0.9,2.6,1.1,3.5,1.2c0.5,0,0.8,0.1,1.1,0.1
				c0.3,0,0.4,0,0.4,0s-0.1,0-0.4,0.1c-0.2,0.1-0.6,0.1-1.1,0.2c-0.9,0.1-2.4,0.1-4-0.6c-0.8-0.3-1.6-0.9-2.4-1.6
				c-0.7-0.8-1.4-1.6-1.8-2.8c-0.7-2.1-1-4.6-0.2-7.1c0.4-1.2,1-2.5,1.9-3.5c0.3-0.3,0.5-0.5,0.8-0.8c0.3-0.3,0.7-0.6,0.9-0.7
				c0.6-0.4,1.2-0.7,1.8-0.9c1.3-0.5,2.7-0.6,4.1-0.4c1.4,0.2,2.8,0.9,3.7,1.9c1,0.9,1.6,2,1.9,2.8c0.4,0.9,0.6,1.7,0.7,2.3
				c0.1,0.6,0.2,1.2,0.2,1.5c0,0.3,0,0.4,0,0.4L614.3,73.4z"/>
		</g>
		<g class="box">
			<polygon fill="#DD444D" points="425.8,156.5 397.6,155.5 398.4,131.7 427,132.3 			"/>
			<polygon fill="#8E163E" points="406.1,154.3 402.6,154.2 402.6,151.3 406.2,151.5 			"/>
			<polygon fill="#8E163E" points="422,154.9 421.4,154.9 421.5,152.3 422,152.3 			"/>
			
				<rect x="422.4" y="152.4" transform="matrix(0.9993 3.642441e-002 -3.642441e-002 0.9993 5.8763 -15.2916)" fill="#8E163E" width="0.5" height="2.6"/>
			
				<rect x="424.1" y="154" transform="matrix(-3.406228e-002 0.9994 -0.9994 -3.406228e-002 593.4525 -264.2468)" fill="#8E163E" width="0.6" height="1.4"/>
			<path fill="#8E163E" d="M425.1,152.5l0,0.7c0,0.4-0.3,0.8-0.7,0.7l0,0c-0.4,0-0.6-0.4-0.6-0.8l0-0.7L425.1,152.5z"/>
		</g>
		<g>
			<polygon fill="#DD444D" points="423.4,192.3 395.8,191 396.4,167.7 424.5,168.7 			"/>
			<polygon fill="#8E163E" points="404.1,190.3 400.5,190.2 400.6,187.3 404.2,187.5 			"/>
			<polygon fill="#8E163E" points="419.9,190.9 419.4,190.9 419.5,188.3 420,188.3 			"/>
			
				<rect x="420.3" y="188.3" transform="matrix(0.9993 3.635655e-002 -3.635655e-002 0.9993 7.1721 -15.1658)" fill="#8E163E" width="0.5" height="2.6"/>
			<polygon fill="#8E163E" points="421.7,190.9 421.7,190.3 423.1,190.4 423.1,191 			"/>
			<path fill="#8E163E" d="M423.1,188.5l0,0.7c0,0.4-0.3,0.8-0.7,0.7l0,0c-0.4,0-0.6-0.4-0.6-0.8l0-0.7L423.1,188.5z"/>
		</g>
		<g class="box">
			<polygon fill="#DD444D" points="460.4,227.9 432.3,226.9 433.1,203.1 461.2,204.1 			"/>
			<polygon fill="#8E163E" points="440.8,225.7 437.2,225.6 437.3,222.7 440.9,222.9 			"/>
			<polygon fill="#8E163E" points="456.7,226.3 456.1,226.3 456.2,223.7 456.7,223.7 			"/>
			
				<rect x="457" y="223.8" transform="matrix(0.9994 3.529398e-002 -3.529398e-002 0.9994 8.2271 -15.9999)" fill="#8E163E" width="0.5" height="2.6"/>
			<polygon fill="#8E163E" points="458.4,226.4 458.4,225.7 459.8,225.8 459.8,226.4 			"/>
			<path fill="#8E163E" d="M459.8,223.9l0,0.7c0,0.4-0.3,0.8-0.7,0.7l0,0c-0.4,0-0.6-0.4-0.6-0.8l0-0.7L459.8,223.9z"/>
		</g>
		<g>
			<polygon fill="#DD444D" points="499.8,229 471.7,227.9 472.4,204.2 500.6,205.2 			"/>
			<polygon fill="#8E163E" points="480.1,226.8 476.6,226.6 476.7,223.8 480.2,223.9 			"/>
			<polygon fill="#8E163E" points="496,227.4 495.5,227.3 495.6,224.8 496.1,224.8 			"/>
			
				<rect x="496.4" y="224.8" transform="matrix(0.9994 3.455878e-002 -3.455878e-002 0.9994 8.1105 -17.0293)" fill="#8E163E" width="0.5" height="2.6"/>
			
				<rect x="498.2" y="226.5" transform="matrix(-3.246552e-002 0.9995 -0.9995 -3.246552e-002 741.6782 -263.7097)" fill="#8E163E" width="0.6" height="1.4"/>
			<path fill="#8E163E" d="M499.1,224.9l0,0.7c0,0.4-0.3,0.8-0.7,0.8l0,0c-0.4,0-0.6-0.4-0.6-0.8l0-0.7L499.1,224.9z"/>
		</g>
		<g class="box">
			<polygon fill="#DD444D" points="539,229.4 510.9,228.4 511.6,204.6 539.7,205.6 			"/>
			<polygon fill="#8E163E" points="519.3,227.2 515.8,227.1 515.9,224.2 519.4,224.4 			"/>
			<polygon fill="#8E163E" points="535.2,227.8 534.7,227.8 534.8,225.2 535.3,225.2 			"/>
			<polygon fill="#8E163E" points="536.1,227.8 535.5,227.8 535.6,225.2 536.1,225.3 			"/>
			
				<rect x="537.3" y="226.9" transform="matrix(-3.414162e-002 0.9994 -0.9994 -3.414162e-002 783.4341 -302.0076)" fill="#8E163E" width="0.6" height="1.4"/>
			<path fill="#8E163E" d="M538.3,225.4l0,0.7c0,0.4-0.3,0.8-0.7,0.8l0,0c-0.4,0-0.6-0.4-0.6-0.8l0-0.7L538.3,225.4z"/>
		</g>
		<g>
			<polygon fill="#DD444D" points="578.1,230.1 550,229.1 550.7,205.3 578.9,206.3 			"/>
			<polygon fill="#8E163E" points="558.4,227.9 554.9,227.8 555,224.9 558.5,225.1 			"/>
			<polygon fill="#8E163E" points="574.3,228.5 573.8,228.5 573.9,225.9 574.4,225.9 			"/>
			
				<rect x="574.7" y="226" transform="matrix(0.9994 3.430262e-002 -3.430262e-002 0.9994 8.1332 -19.5885)" fill="#8E163E" width="0.5" height="2.6"/>
			
				<rect x="576.4" y="227.6" transform="matrix(-3.106504e-002 0.9995 -0.9995 -3.106504e-002 822.826 -341.1171)" fill="#8E163E" width="0.6" height="1.4"/>
			<path fill="#8E163E" d="M577.4,226.1l0,0.7c0,0.4-0.3,0.8-0.7,0.7l0,0c-0.4,0-0.6-0.4-0.6-0.8l0-0.7L577.4,226.1z"/>
		</g>
		<g class="box">
			<polygon fill="#DD444D" points="617.3,230.7 589.2,229.7 590,205.9 618.1,207 			"/>
			<polygon fill="#8E163E" points="597.7,228.5 594.1,228.4 594.2,225.5 597.8,225.7 			"/>
			<polygon fill="#8E163E" points="613.5,229.1 613,229.1 613.1,226.5 613.6,226.5 			"/>
			
				<rect x="613.9" y="226.6" transform="matrix(0.9995 3.257116e-002 -3.257116e-002 0.9995 7.7472 -19.8839)" fill="#8E163E" width="0.5" height="2.6"/>
			<polygon fill="#8E163E" points="615.3,229.2 615.3,228.5 616.7,228.6 616.7,229.2 			"/>
			<path fill="#8E163E" d="M616.7,226.7l0,0.7c0,0.4-0.3,0.8-0.7,0.7l0,0c-0.4,0-0.6-0.4-0.6-0.8l0-0.7L616.7,226.7z"/>
		</g>
		<g>
			<polygon fill="#DD444D" points="536.4,264.5 508.3,263.5 509,239.7 537.2,240.8 			"/>
			<polygon fill="#8E163E" points="516.7,262.3 513.2,262.2 513.3,259.4 516.8,259.5 			"/>
			<polygon fill="#8E163E" points="532.6,262.9 532.1,262.9 532.2,260.3 532.7,260.4 			"/>
			
				<rect x="533" y="260.4" transform="matrix(0.9993 3.721814e-002 -3.721814e-002 0.9993 10.1082 -19.6655)" fill="#8E163E" width="0.5" height="2.6"/>
			<polygon fill="#8E163E" points="534.4,263 534.4,262.4 535.8,262.4 535.7,263 			"/>
			<path fill="#8E163E" d="M535.7,260.5l0,0.7c0,0.4-0.3,0.8-0.7,0.7l0,0c-0.4,0-0.6-0.4-0.6-0.8l0-0.7L535.7,260.5z"/>
		</g>
		<g class="box">
			<polygon fill="#DD444D" points="575.6,265 547.4,264 548.2,240.2 576.3,241.3 			"/>
			<polygon fill="#8E163E" points="555.9,262.8 552.4,262.7 552.5,259.9 556,260 			"/>
			<polygon fill="#8E163E" points="571.8,263.4 571.3,263.4 571.3,260.9 571.9,260.9 			"/>
			<polygon fill="#8E163E" points="572.7,263.5 572.1,263.4 572.2,260.9 572.7,260.9 			"/>
			
				<rect x="573.9" y="262.5" transform="matrix(-3.414162e-002 0.9994 -0.9994 -3.414162e-002 856.8987 -301.7047)" fill="#8E163E" width="0.6" height="1.4"/>
			<path fill="#8E163E" d="M574.9,261l0,0.7c0,0.4-0.3,0.8-0.7,0.7l0,0c-0.4,0-0.6-0.4-0.6-0.8l0-0.7L574.9,261z"/>
		</g>
		<g>
			<polygon fill="#DD444D" points="614.8,266.1 586.7,265 587.4,241.3 615.6,242.3 			"/>
			<polygon fill="#8E163E" points="595.1,263.9 591.6,263.7 591.7,260.9 595.2,261 			"/>
			<polygon fill="#8E163E" points="611,264.5 610.5,264.4 610.6,261.9 611.1,261.9 			"/>
			<polygon fill="#8E163E" points="611.9,264.5 611.4,264.5 611.4,261.9 612,261.9 			"/>
			<polygon fill="#8E163E" points="612.8,264.5 612.8,263.9 614.2,264 614.1,264.6 			"/>
			<path fill="#8E163E" d="M614.1,262.1l0,0.7c0,0.4-0.3,0.8-0.7,0.7l0,0c-0.4,0-0.6-0.4-0.6-0.8l0-0.7L614.1,262.1z"/>
		</g>
		<g>
			<polygon fill="#DD444D" points="464.3,157.6 436.2,156.6 437,132.8 465.9,133.7 			"/>
			<polygon fill="#8E163E" points="444.7,155.4 441.1,155.3 441.2,152.4 444.8,152.6 			"/>
			<polygon fill="#8E163E" points="460.5,156 460,156 460.1,153.4 460.6,153.4 			"/>
			
				<rect x="460.9" y="153.5" transform="matrix(0.9994 3.529398e-002 -3.529398e-002 0.9994 5.7491 -16.181)" fill="#8E163E" width="0.5" height="2.6"/>
			<polygon fill="#8E163E" points="462.3,156.1 462.3,155.4 463.7,155.5 463.7,156.1 			"/>
			<path fill="#8E163E" d="M463.7,153.6l0,0.7c0,0.4-0.3,0.8-0.7,0.7l0,0c-0.4,0-0.6-0.4-0.6-0.8l0-0.7L463.7,153.6z"/>
		</g>
		<g>
			<polygon fill="#DD444D" points="543.2,158.9 515,157.9 515.8,134.1 543.9,135.2 			"/>
			<polygon fill="#8E163E" points="523.5,156.7 520,156.6 520.1,153.8 523.6,153.9 			"/>
			<polygon fill="#8E163E" points="539.4,157.3 538.8,157.3 538.9,154.7 539.5,154.8 			"/>
			<polygon fill="#8E163E" points="540.2,157.3 539.7,157.3 539.8,154.8 540.3,154.8 			"/>
			
				<rect x="541.5" y="156.4" transform="matrix(-3.408873e-002 0.9994 -0.9994 -3.408873e-002 717.2961 -379.0793)" fill="#8E163E" width="0.6" height="1.4"/>
			<path fill="#8E163E" d="M542.5,154.9l0,0.7c0,0.4-0.3,0.8-0.7,0.7l0,0c-0.4,0-0.6-0.4-0.6-0.8l0-0.7L542.5,154.9z"/>
		</g>
		<g>
			<polygon fill="#DD444D" points="540.6,194.1 512.5,193 513.2,169.3 541.9,170 			"/>
			<polygon fill="#8E163E" points="520.9,191.9 517.4,191.7 517.5,188.9 521,189 			"/>
			<polygon fill="#8E163E" points="536.8,192.5 536.3,192.4 536.4,189.9 536.9,189.9 			"/>
			<polygon fill="#8E163E" points="537.7,192.5 537.1,192.5 537.2,189.9 537.8,189.9 			"/>
			<polygon fill="#8E163E" points="538.6,192.5 538.6,191.9 539.9,191.9 539.9,192.6 			"/>
			<path fill="#8E163E" d="M539.9,190l0,0.7c0,0.4-0.3,0.8-0.7,0.7l0,0c-0.4,0-0.6-0.4-0.6-0.8l0-0.7L539.9,190z"/>
		</g>
		<g>
			<polygon fill="#DD444D" points="580,194.8 551.9,193.8 552.7,170 580.8,171 			"/>
			<polygon fill="#8E163E" points="560.4,192.6 556.8,192.5 556.9,189.6 560.4,189.8 			"/>
			
				<rect x="575.7" y="190.6" transform="matrix(0.9993 3.728748e-002 -3.728748e-002 0.9993 7.5558 -21.3444)" fill="#8E163E" width="0.5" height="2.6"/>
			
				<rect x="576.6" y="190.7" transform="matrix(0.9993 3.814726e-002 -3.814726e-002 0.9993 7.7415 -21.8667)" fill="#8E163E" width="0.5" height="2.6"/>
			
				<rect x="578.4" y="192.3" transform="matrix(-3.721241e-002 0.9993 -0.9993 -3.721241e-002 793.0457 -378.1458)" fill="#8E163E" width="0.6" height="1.4"/>
			<path fill="#8E163E" d="M579.3,190.8l0,0.7c0,0.4-0.3,0.8-0.7,0.8l0,0c-0.4,0-0.6-0.4-0.6-0.8l0-0.7L579.3,190.8z"/>
		</g>
		<g>
			<polygon fill="#DD444D" points="620.9,160.2 592.7,159.2 593.5,135.4 621.6,136.5 			"/>
			<polygon fill="#8E163E" points="601.2,158 597.7,157.9 597.8,155.1 601.3,155.2 			"/>
			<polygon fill="#8E163E" points="617.1,158.6 616.6,158.6 616.6,156 617.2,156.1 			"/>
			
				<rect x="617.5" y="156.1" transform="matrix(0.9994 3.455878e-002 -3.455878e-002 0.9994 5.8071 -21.2543)" fill="#8E163E" width="0.5" height="2.6"/>
			
				<rect x="619.2" y="157.7" transform="matrix(-3.099283e-002 0.9995 -0.9995 -3.099283e-002 797.062 -455.9526)" fill="#8E163E" width="0.6" height="1.4"/>
			<path fill="#8E163E" d="M620.2,156.2l0,0.7c0,0.4-0.3,0.8-0.7,0.8l0,0c-0.4,0-0.6-0.4-0.6-0.8l0-0.7L620.2,156.2z"/>
		</g>
		<g>
			<path fill="#770B34" d="M406.9,113.4l-6.8-0.1l-1.6,3.3l-3.7-0.1l8.6-16.7l3.4,0.1l4.6,17l-3.7-0.1L406.9,113.4z M406.2,110.6
				l-1.6-6.7l0,0l-3.2,6.6L406.2,110.6z"/>
			<path fill="#770B34" d="M423.7,105.6c0.6,0.2,1.1,0.5,1.5,0.9c0.4,0.4,0.8,0.8,1.1,1.3c0.3,0.5,0.5,1.1,0.6,1.7
				c0.1,0.6,0.1,1.3,0,2c-0.1,0.9-0.4,1.7-0.7,2.4c-0.4,0.7-0.9,1.4-1.4,1.9c-0.6,0.5-1.2,0.9-2,1.2c-0.8,0.3-1.5,0.4-2.4,0.4
				c-1.5,0-2.7-0.5-3.4-1.6l0,0l-0.7,6l-3.3-0.1l2-16.3l3.3,0.1l-0.2,1.3l0,0c1-1,2.3-1.5,3.9-1.5
				C422.5,105.3,423.1,105.4,423.7,105.6z M422.4,113.6c0.7-0.6,1-1.3,1.2-2.3c0.1-1-0.1-1.8-0.6-2.4c-0.5-0.6-1.2-0.9-2.1-0.9
				c-0.5,0-0.9,0.1-1.3,0.2c-0.4,0.2-0.8,0.4-1.1,0.7c-0.3,0.3-0.6,0.6-0.8,1c-0.2,0.4-0.3,0.8-0.4,1.3c-0.1,0.6,0,1.2,0.2,1.7
				c0.2,0.5,0.6,0.9,1,1.1c0.5,0.3,1,0.4,1.6,0.4C421,114.5,421.8,114.2,422.4,113.6z"/>
			<path fill="#770B34" d="M437.6,105.6l-0.4,3.4c-0.3,0-0.6,0-0.9-0.1c-1,0-1.8,0.2-2.4,0.8c-0.6,0.6-1,1.3-1.1,2.2l-0.6,5.4
				l-3.3-0.1l1.4-11.6l3.3,0.1l-0.2,1.7h0c0.5-0.6,1.1-1.1,1.8-1.4c0.7-0.3,1.4-0.5,2.1-0.5C437.5,105.6,437.5,105.6,437.6,105.6z"
				/>
			<path fill="#770B34" d="M441.7,108.7l7.6,0.1l-0.4,2.9l-7.6-0.1L441.7,108.7z"/>
			<path fill="#770B34" d="M478.1,101.3l-2,16.9l-3.5-0.1l1.3-10.5h0l-5.2,7.2l-2.3,0l-3.5-7.4l0,0l-1.3,10.5l-3.5-0.1l2-16.9
				l3.6,0.1l4.3,9.7h0l6.6-9.5L478.1,101.3z"/>
			<path fill="#770B34" d="M493.1,106.9l-1.4,11.6l-3.1-0.1l0.2-1.4l-0.1,0c-1,1-2.3,1.6-3.9,1.5c-0.8,0-1.6-0.2-2.3-0.5
				c-0.7-0.3-1.3-0.7-1.7-1.2c-0.5-0.5-0.8-1.2-1-1.9c-0.2-0.8-0.3-1.6-0.1-2.4c0.1-0.9,0.3-1.7,0.7-2.4c0.4-0.7,0.9-1.4,1.4-1.9
				c0.6-0.5,1.2-0.9,2-1.2c0.8-0.3,1.5-0.4,2.3-0.4c1.5,0,2.6,0.6,3.4,1.6h0l0.2-1.3L493.1,106.9z M488.1,114.9
				c0.7-0.6,1.1-1.3,1.2-2.3c0.1-0.9-0.1-1.7-0.6-2.3c-0.5-0.6-1.2-1-2.1-1c-0.9,0-1.7,0.3-2.4,0.9c-0.7,0.6-1.1,1.4-1.2,2.3
				c-0.1,0.9,0.1,1.7,0.6,2.3c0.5,0.6,1.2,0.9,2.2,0.9C486.6,115.8,487.4,115.5,488.1,114.9z"/>
			<path fill="#770B34" d="M503.6,106.9l-0.4,3.4c-0.3,0-0.6,0-0.9-0.1c-1,0-1.8,0.2-2.4,0.8c-0.6,0.6-1,1.3-1.1,2.2l-0.6,5.4
				l-3.3-0.1l1.4-11.6l3.3,0.1l-0.2,1.7h0c0.5-0.6,1.2-1.1,1.8-1.4c0.7-0.3,1.4-0.5,2.1-0.5C503.5,106.9,503.5,106.9,503.6,106.9z"
				/>
		</g>
	</g>
	<path opacity="0.9" fill="none" stroke="#8E0C2B" stroke-miterlimit="10" d="M188.2,359.7c-20.9,0-7.3,0-33.3,0"/>
	<path opacity="0.9" fill="none" stroke="#8E0C2B" stroke-miterlimit="10" d="M280.9,359.6c-24.8,0,7.6,0-14.5,0"/>
	<g id="vehicle">
		<g>
			<polygon fill="#8E163E" points="283.1,228.3 346.7,228.3 350.7,230.3 350.7,231.7 283.1,235.3 			"/>
			<rect x="283.1" y="183.8" fill="#DD444D" width="63.6" height="44.6"/>
			<rect x="294.2" y="220.2" fill="#8E163E" width="8" height="5.3"/>
			<rect x="336.9" y="220.8" fill="#8E163E" width="1.2" height="4.8"/>
			<rect x="338.8" y="220.8" fill="#8E163E" width="1.2" height="4.8"/>
			<rect x="342.1" y="224.4" fill="#8E163E" width="3.1" height="1.2"/>
			<path fill="#8E163E" d="M344.9,220.8v1.2c0,0.8-0.6,1.4-1.4,1.4l0,0c-0.8,0-1.4-0.6-1.4-1.4v-1.2H344.9z"/>
		</g>
		<path fill="#153456" d="M184.7,251.2c0,0,5.5,5.3,12.9,4.8l12.5-1.6l0.3,3c0,0-14.6,3.3-16.3,3.3c-1.7,0-3.2-0.6-5.3-1.7
			c-2.1-1.2-3.7-3-3.7-3L184.7,251.2z"/>
		<polygon fill="#771239" points="265.8,189.2 260.2,189.2 260.2,269.9 254.7,269.9 254.7,284.8 266.1,284.8 266.1,314.7 
			273.7,322.2 273.7,183.5 266.4,183.5 266.4,189.2 		"/>
		<rect x="266.3" y="183.5" fill="#8E163E" width="7.4" height="136.1"/>
		<path fill="#010717" d="M218.4,311.5c0,0-0.5,1.8,0.8,2.4l3.9-1.9l-1.6-1.6L218.4,311.5z"/>
		<path fill="#6D1335" d="M189.5,317.9h17.7c0,0,9.5,0.8,12.5-4.5l-0.2,8.2v9.5h-31.3v-13L189.5,317.9z"/>
		<polygon fill="#DD444D" points="189.9,328.4 212.2,328.4 212.2,335.3 189.5,335.3 186.7,335.3 186.7,329 		"/>
		<path fill="#09111E" d="M213.6,269.9c0,0,6.9,11.6,7.8,15.1c0,0,1.4,4.1,1.4,11.9v11.4l23.2-8.7l-6.1-23.2h-4.5
			c0,0-3.6-6.3-9.4-7.7l-3.4,2.1l-3.8-6.1l-6.5,3.3L213.6,269.9z"/>
		<polygon fill="#101529" points="215.2,260.3 216.9,263.2 219,262.5 217,259 		"/>
		<path fill="#252C2A" d="M217.8,258.3c0,1.4-1.1,2.6-2.6,2.6c-1.4,0-2.6-1.2-2.6-2.6c0-1.4,1.1-2.6,2.6-2.6
			C216.7,255.7,217.8,256.8,217.8,258.3z"/>
		<path fill="#153456" d="M189.5,283.9l9.6-3.8c0,0,11.9-2.4,14.4,5.4l8.1,25l-3.5,1.1l-11.5-22.9c0,0-0.5-0.8-2.6-0.2l-19.9,6.5
			c0,0-0.8,0.2-1.7,0.2c-1.3-0.1-2.9-0.6-3.6-2.7L189.5,283.9z"/>
		<path fill="#262626" d="M172.9,292.7v3.2c0,0-0.9,5.6,5.6,5.6h12c0,0,4.2-0.6,5.7-3.1c0,0,1.5-1.2,2.2-5.3L172.9,292.7z"/>
		<path fill="#6D1335" d="M130.8,345.7c0,0,1.7,5.8,8.5,5.8h61.2h39.7h25.7l0.2-41.2h-15.8l-8.2,1.7l-7.6,6.7l-15.6,26.9H185h-4.6
			H179V322H131L130.8,345.7z"/>
		<path fill="#26292F" d="M280.9,336.4c0,13.1-10.6,23.8-23.8,23.8c-13.1,0-23.8-10.6-23.8-23.8c0-13.1,10.6-23.8,23.8-23.8
			C270.3,312.6,280.9,323.3,280.9,336.4z"/>
		<path fill="#7F173F" d="M260.7,303.6v-4.4h-33.2l-16.1,29.1c-2,5.4-6.8,5.3-6.8,5.3H194c-4.3,0-4.3-5.4-4.3-5.4l-0.3-22.6
			c0-6.6-6.5-7.3-6.5-7.3l-18.4-2.4l-1.2-5.3c-1.1-6.9-10.6-7.8-10.6-7.8c-11.5-2.2-19-2.6-19-2.6c-13.4,0.5-13.6,14.2-13.6,14.2
			l-0.4,40.2c-0.5,6.6,4.5,8.6,4.5,8.6l13,5v-25.7h32.3c0,0,6.3-0.2,6.3,6.3v19.1h43.3l13.3-23.6c0,0,7.1-14.2,27.6-13.9l6.2-0.1
			l0-6.9L260.7,303.6z"/>
		<path fill="#09101D" d="M273.6,336.4c0,9.1-7.4,16.4-16.4,16.4c-9.1,0-16.4-7.4-16.4-16.4c0-9.1,7.4-16.4,16.4-16.4
			C266.2,320,273.6,327.3,273.6,336.4z"/>
		<g>
			<path fill="#6D1335" d="M130.8,295.6h-10.7v2h10.7c0.5,0,1-0.4,1-1C131.8,296,131.3,295.6,130.8,295.6z"/>
			<path fill="#6D1335" d="M130.8,300h-10.7v2h10.7c0.5,0,1-0.4,1-1C131.8,300.4,131.3,300,130.8,300z"/>
			<path fill="#6D1335" d="M130.8,304.4h-10.7v2h10.7c0.5,0,1-0.4,1-1C131.8,304.8,131.3,304.4,130.8,304.4z"/>
			<path fill="#6D1335" d="M130.8,308.7h-10.7v2h10.7c0.5,0,1-0.4,1-1C131.8,309.1,131.3,308.7,130.8,308.7z"/>
		</g>
		<path fill="#FFD7B3" d="M189,235c0,0,0.1,2.7,0.2,2.8c0.1,0.1,1.4,3,1.3,3.2c-0.2,0.3-1.3,0.5-1.4,0.9c-0.1,0.4-0.1,4.1-0.1,4.1
			s0.1,0.8-1.8,1c-0.4,0-0.9,0.1-1.5,0.2c0,0-1.5,0.3-2.1,2.7l-6-1.8c0,0,0.9-1.8,0-4l0.3-4.5l-3.2-2.7l8.4-2.6L189,235z"/>
		<path fill="#395072" d="M171.5,266.4c0,0-1.4-19.1,7.1-18.8c0,0,4.2-0.1,6,3.6l6,11c0,0,1.5,3.1,4.2,3.1l13.2,1.4l-0.1,3
			l-13.3,0.6c0,0-4.4,0.6-7.4-4l-1.7-2.6c0,0,2.2,14.3,3.1,15.7l-12.7,4.9C176,284.3,173.1,277.1,171.5,266.4z"/>
		<path fill="#2A445E" d="M188.7,279.4l14.4,0.5c0,0,8,0.3,8,8.5v26.2h-3.7l-3.9-25.4c0,0-0.2-1-2.4-1h-20.9c0,0-0.8,0-1.6-0.4
			c-1.2-0.5-2.6-1.5-2.6-3.6L188.7,279.4z"/>
		<path fill="#010717" d="M207.5,314.6c0,0-0.9,1.2-0.5,3.3c0,0,8.1,0.7,10.3-2.2c0,0-0.5-1.6-3.6,0c0,0-2.2,0.2-2.7-1.1H207.5z"/>
		<path fill="#2F3135" d="M171.4,261.1c0,0-0.9-2-4.9-1.1l-2.9,0.7c0,0-2.2,1-1.5,4.3l4.7,17.6c0,0,1.8,6.7,3.4,7
			c0,0,0.5,4.4,4.1,4.6H199c0,0,3.2-0.1,3.2-3.2v-2.8l-21-2.7l-5.2-14.9L171.4,261.1z"/>
		<path fill="#FFD7B3" d="M208.1,267c0,0,1.3-1.9,3.3-1.7c2,0.2,2.8,0.1,3.7,1.1c0.9,0.9-0.7,2.8-1.5,3.6c-0.8,0.8-3.7,1.2-3.7-0.9
			c0,0-1.5,0.7-1.8,0.4C207.7,269.1,207.5,268,208.1,267z"/>
		<path fill="#09111E" d="M204.7,269.9l19.5-11.5c0,0,1.7-0.9,2.2,1c0,0,0.4,1.2-1.4,1.9l-18,10.8c0,0-1.5,1.1-2.4,0
			C204.8,272.1,203.6,270.8,204.7,269.9z"/>
		<path fill="#FFD7B3" d="M210.2,254.6c0,0,3-1.1,3.7-0.9c0.7,0.3,2.8,1.1,3.5,2.8v0.3l-4.2,1.5c0,0-2.1,0.7-2.9-0.8
			C210.2,257.5,209.8,255.2,210.2,254.6z"/>
		<g>
			<path fill="#771239" d="M232.6,257.7c-2.1,0-4-1.4-4.5-3.4l-5.7-20.5c-0.3-1.2-0.2-2.5,0.4-3.6c0.6-1.1,1.6-1.9,2.8-2.2l0.6,2.3
				c-0.6,0.2-1.1,0.6-1.4,1.1c-0.3,0.5-0.4,1.2-0.2,1.8l5.7,20.5c0.3,1.2,1.6,2,2.9,1.6l0.6,2.3
				C233.5,257.6,233.1,257.7,232.6,257.7z"/>
		</g>
		<polygon fill="#771239" points="247.2,285.6 254.9,279.3 257,281.5 257,284.3 248.1,291.4 		"/>
		<path fill="#8E163E" d="M254.7,272.8h10.7c0,0,2.9-0.1,2.9,2.9v3c0,0,0.1,2.9-2.9,2.9h-10.6L254.7,272.8z"/>
		<rect x="273.7" y="202.1" fill="#DD444D" width="4.7" height="50.4"/>
		<g>
			<polygon fill="#DD444D" points="266.4,291.9 263.1,288.7 266.4,285.1 			"/>
			<polygon fill="#DD444D" points="266.4,297.8 263.1,294.6 266.4,291 			"/>
			<polygon fill="#DD444D" points="266.4,303.7 263.1,300.5 266.4,296.9 			"/>
		</g>
		<g>
			<polygon fill="#DD444D" points="266.4,270.2 263.1,267 266.4,263.4 			"/>
			<polygon fill="#DD444D" points="266.4,263.3 263.1,260.1 266.4,256.5 			"/>
			<polygon fill="#DD444D" points="266.4,256.6 263.1,253.4 266.4,249.8 			"/>
			<polygon fill="#DD444D" points="266.4,249.8 263.1,246.6 266.4,243.1 			"/>
			<polygon fill="#DD444D" points="266.4,242.9 263.1,239.7 266.4,236.2 			"/>
			<polygon fill="#DD444D" points="266.4,236.2 263.1,233 266.4,229.5 			"/>
			<polygon fill="#DD444D" points="266.4,229.5 263.1,226.3 266.4,222.7 			"/>
			<polygon fill="#DD444D" points="266.4,222.8 263.1,219.6 266.4,216.1 			"/>
			<polygon fill="#DD444D" points="266.4,216.1 263.1,212.9 266.4,209.3 			"/>
			<polygon fill="#DD444D" points="266.4,209.4 263.1,206.2 266.4,202.6 			"/>
			<polygon fill="#DD444D" points="266.4,202.7 263.1,199.5 266.4,195.9 			"/>
			<polygon fill="#DD444D" points="266.4,196 263.1,192.8 266.4,189.2 			"/>
		</g>
		<rect x="278" y="170.6" fill="#8E163E" width="5.4" height="68.1"/>
		<path fill="#492216" d="M173.8,239.7c0,0,0.9,4.3,3.3,4.8c0,0,3.1-0.8,3.7-2.5c0,0-2.1-2.4,0.2-4.1c0,0,1.7-1,2.4,1.1v2.5
			c0,0,1.6,0.5,2-1.6v-1.7c0,0,2.9-1,3.7-3.3c0,0-7.2-2.4-8.2-2.4c-1,0-5.1,0.7-5.6,1.1c-0.5,0.4-1.6,0.9-1.8,1.4
			C173.3,235.4,173.3,237.6,173.8,239.7z"/>
		<polygon fill="#8E163E" points="173.4,235.8 173.7,239.7 181.6,235.4 178.6,234 		"/>
		<path fill="#DD444D" d="M171.9,236.2l21-1.5V234c0,0-2.4-0.3-3.2-2c-0.8-1.7-3.3-6.1-9.6-5.2C180.2,226.9,172.6,227.6,171.9,236.2
			z"/>
		<path fill="#8E163E" d="M212,348l14.9-27.7c0,0,7.9-13.1,21.4-15.6c1.6-0.3,4.8-0.6,6.6-0.6l11.5-0.1v2.9h-12.1
			c0,0-11.6-0.1-22.3,11.9c0,0-1.4,1.9-3,4.7l-13.3,24.5L212,348z"/>
		<path fill="#26292F" d="M174.6,342.7c0,9.7-7.8,17.5-17.5,17.5c-9.7,0-17.5-7.8-17.5-17.5s7.8-17.5,17.5-17.5
			C166.7,325.2,174.6,333,174.6,342.7z"/>
		<circle fill="#09101D" cx="157.1" cy="342.7" r="11.9"/>
		<circle fill="#DD444D" cx="157.1" cy="342.7" r="10"/>
		<circle fill="#751A3D" cx="157.1" cy="342.7" r="7.3"/>
		<path fill="#26292F" d="M158.9,342.7c0,1.1-0.9,1.9-1.9,1.9c-1.1,0-1.9-0.9-1.9-1.9c0-1.1,0.9-1.9,1.9-1.9
			C158,340.8,158.9,341.7,158.9,342.7z"/>
		<circle fill="#26292F" cx="152.4" cy="343" r="1.2"/>
		<path fill="#26292F" d="M160.9,338.4c0,0.7-0.5,1.2-1.2,1.2c-0.7,0-1.2-0.5-1.2-1.2c0-0.7,0.5-1.2,1.2-1.2
			C160.4,337.2,160.9,337.8,160.9,338.4z"/>
		<path fill="#26292F" d="M160.7,346.9c0,0.7-0.5,1.2-1.2,1.2c-0.7,0-1.2-0.5-1.2-1.2c0-0.7,0.5-1.2,1.2-1.2
			C160.2,345.8,160.7,346.3,160.7,346.9z"/>
		<path fill="#8E163E" d="M153.8,282.7l5.7-64.1c0,0,0.6-3.2-3.8-3.2v-5.3l78.8-0.1c0,0-3.2,7.9-3.3,10.7c-0.1,2.8,0.1,4.3,0.4,5.2
			l20.8,78.4l-5.5,0.6l-21.4-81c0,0-2-8.2-9.1-8.2l-47-0.5c0,0-4.3,0.1-4.4,4.4l-6.1,65.4l-5.1-1.9L153.8,282.7z"/>
		<circle fill="#DD444D" cx="257.3" cy="336.3" r="13.6"/>
		<path fill="#26292F" d="M267.4,335.5c-0.2-3.3-2-6.1-4.6-7.7c-1.6-1-3.4-1.6-5.4-1.6c-0.3,0-0.6,0-1,0c-3.1,0.3-5.8,2-7.4,4.4
			c-1.1,1.6-1.7,3.5-1.7,5.6c0,0.3,0,0.5,0,0.7c0.2,3.1,1.9,5.8,4.3,7.5c0.7,0.5,1.5,0.9,2.3,1.2c0.6,0.2,1.2,0.4,1.9,0.5
			c0.5,0.1,1.1,0.1,1.6,0.1c0.2,0,0.4,0,0.6,0c3.2-0.2,6.1-1.9,7.8-4.4c1.1-1.6,1.7-3.5,1.7-5.6C267.4,336,267.4,335.8,267.4,335.5z
			"/>
		<g>
			<path fill="#8E163E" d="M253.2,338.7l-1.6,5.9c0.7,0.5,1.4,0.9,2.2,1.2c0.6,0.2,1.2,0.4,1.9,0.5c0.5,0.1,1.1,0.1,1.6,0.1
				c0.2,0,0.4,0,0.6,0c0,0,0,0,0,0l1.6-6L253.2,338.7z"/>
			<path fill="#8E163E" d="M261.2,334l1.6-6.1c0,0-0.1-0.1-0.1-0.1c-1.6-1-3.4-1.6-5.4-1.6c-0.3,0-0.5,0-0.8,0l-1.6,6.1L261.2,334z"
				/>
			<path fill="#8E163E" d="M267.4,336.3c0-0.2,0-0.4,0-0.6l-6.1-1.6l-1.7,6.3l6.1,1.6c0,0,0,0,0-0.1
				C266.8,340.3,267.4,338.3,267.4,336.3z"/>
			<path fill="#8E163E" d="M254.9,332.3l-6-1.6c-1,1.6-1.7,3.5-1.7,5.5c0,0.3,0,0.5,0,0.7c0,0,0,0.1,0,0.1l5.9,1.6L254.9,332.3z"/>
			<polygon fill="#8E163E" points="253.2,338.7 259.5,340.3 261.2,334 254.9,332.3 			"/>
		</g>
		<path fill="#751A3D" d="M265.7,336.3c0,4.6-3.8,8.4-8.4,8.4c-4.6,0-8.4-3.8-8.4-8.4c0-4.6,3.8-8.4,8.4-8.4
			C262,327.9,265.7,331.6,265.7,336.3z"/>
		<g>
			<path fill="#DD444D" d="M256.4,331.4c0,0.9-0.7,1.6-1.6,1.6c-0.9,0-1.6-0.7-1.6-1.6c0-0.9,0.7-1.6,1.6-1.6
				C255.7,329.8,256.4,330.5,256.4,331.4z"/>
			<path fill="#DD444D" d="M261.8,331.6c0,0.9-0.7,1.6-1.6,1.6c-0.9,0-1.6-0.7-1.6-1.6c0-0.9,0.7-1.6,1.6-1.6
				C261.1,330,261.8,330.7,261.8,331.6z"/>
			<circle fill="#DD444D" cx="262.9" cy="336" r="1.6"/>
			<path fill="#DD444D" d="M262.1,341c0,0.9-0.7,1.6-1.6,1.6c-0.9,0-1.6-0.7-1.6-1.6s0.7-1.6,1.6-1.6
				C261.3,339.3,262.1,340.1,262.1,341z"/>
			<circle fill="#DD444D" cx="254.9" cy="340.9" r="1.6"/>
			<circle fill="#DD444D" cx="252.1" cy="336.3" r="1.6"/>
		</g>
	</g>
	<polygon fill="#F23A30" points="122.1,366.8 119,371 122.1,372.9 	"/>
	<polygon fill="#CC404E" points="122.1,366.8 125.2,371 122.1,372.9 	"/>
	<polygon fill="#FE825E" points="32.9,334.1 43.5,328.7 49.1,332.5 39.5,337.5 	"/>
	<polygon fill="#DD444D" points="117,372.6 91.5,363.8 91.5,341.7 117,351 	"/>
	<polygon fill="#CC404E" points="65.2,372.6 91.5,363.8 91.5,341.7 65.1,350.5 	"/>
	<polygon fill="#8E163E" points="65.2,372.6 91.5,363.7 117,372.6 90.7,381.4 	"/>
	<g>
		<polygon fill="#D6D6D6" points="81.7,380.9 88.2,382.3 95.3,379.8 96.1,375.7 89.1,378.1 82.5,376.3 		"/>
		<polygon fill="#A0A0A0" points="82.5,376.3 92.6,372.9 96.1,375.7 89.1,378.1 		"/>
	</g>
	<g>
		<polygon fill="#C6C9CC" points="69.5,355.5 68.6,366.4 74.1,376.7 80.7,376.8 75.2,366.6 76.2,356.2 		"/>
		<polygon fill="#A0A0A0" points="76.2,356.2 84.1,370.7 80.7,376.8 75.2,366.6 		"/>
	</g>
	<g>
		
			<linearGradient id="SVGPRIDSRI_17_" gradientUnits="userSpaceOnUse" x1="947.8037" y1="-1458.1729" x2="948.5797" y2="-1462.5737" gradientTransform="matrix(-0.9641 0.2656 -0.2656 -0.9641 577.7471 -1296.0391)">
			<stop  offset="0" style="stop-color:#EF5350"/>
			<stop  offset="1" style="stop-color:#D23C50"/>
		</linearGradient>
		<path fill="url(#SVGPRIDSRI_17_)" d="M47.6,361.8l-0.4,3.4l6.7,0.4c0,0,0,0,0,0c0.2,0,0.4,0,0.6,0c0.8-0.2,1.4-1.1,1.3-2.1
			c-0.1-0.8-0.7-1.4-1.3-1.4c0,0,0,0,0,0h-0.1c0,0,0,0-0.1,0L47.6,361.8z"/>
		
			<linearGradient id="SVGPRIDSRI_18_" gradientUnits="userSpaceOnUse" x1="953.0479" y1="-1458.5063" x2="950.4904" y2="-1459.9829" gradientTransform="matrix(-0.9641 0.2656 -0.2656 -0.9641 577.7471 -1296.0391)">
			<stop  offset="0" style="stop-color:#EF5350"/>
			<stop  offset="0.1295" style="stop-color:#E34E50"/>
			<stop  offset="0.4246" style="stop-color:#CF4450"/>
			<stop  offset="0.7154" style="stop-color:#C23E50"/>
			<stop  offset="0.9946" style="stop-color:#BE3C50"/>
		</linearGradient>
		<path fill="url(#SVGPRIDSRI_18_)" d="M46.2,363.9c-0.1-0.9,0.4-1.9,1.3-2.1s1.6,0.4,1.7,1.3c0.1,0.9-0.4,1.9-1.3,2.1
			S46.3,364.9,46.2,363.9z"/>
	</g>
	<g>
		<polygon fill="#CC404E" points="92,282.5 90,285 84.3,281.9 86.3,279.5 		"/>
		<polygon fill="#F23A30" points="92,282.5 88.1,277.4 82.3,274.5 86.3,279.5 		"/>
		<polygon fill="#8E163E" points="86.3,279.5 82.3,274.5 80.4,276.7 84.3,281.9 		"/>
	</g>
	<polygon fill="#F23A30" points="13.9,317.4 42.1,327.7 42.7,327.6 41.4,311.9 	"/>
	<g>
		<polygon fill="#DD444D" points="13.9,317.4 41.3,327.4 41.4,311.9 		"/>
		<polygon fill="#DD444D" points="42.7,327.6 41.4,311.9 41.3,327.4 42.1,327.7 		"/>
	</g>
	<polygon fill="#CC404E" points="70.9,320.7 41.4,312.2 41.4,312.2 41.3,327.2 42.1,327.4 	"/>
	<g>
		<polygon fill="#FE825E" points="23.7,321.1 34.8,317.8 40.6,320.1 40.4,320.2 30.6,323.2 		"/>
		<polygon fill="#FE825E" points="40.1,320.5 39.4,320.6 30.6,323.2 40.6,324.9 40.6,320.2 		"/>
	</g>
	<g>
		<polygon fill="#B7B7B7" points="35.6,322.3 46.7,319 52.5,321.3 52.3,321.4 42.5,324.4 		"/>
		<polygon fill="#8E8E8E" points="52,321.7 51.3,321.8 42.5,324.4 52.5,326.1 52.5,321.4 		"/>
	</g>
	<g>
		<polygon fill="#F3C541" points="33,324.2 42.6,320.7 49.7,324.6 40.9,328.1 		"/>
		<polyline fill="#B76F0B" points="49.7,324.6 49.4,330.7 47.7,331.4 40.9,328.1 		"/>
	</g>
	<polygon fill="#DD444D" points="13.9,317.4 42.1,327.7 42.1,349.7 13.9,337.7 	"/>
	<path fill="#B22D3A" d="M41.4,312.2l29.5,8.6l-28.8,6.7l-27.2-9.9L41.4,312.2 M41.4,311.9l-27.6,5.5l28.2,10.3l29.9-6.9L41.4,311.9
		L41.4,311.9z"/>
	<g>
		<polygon fill="#D6D6D6" points="51.6,315.9 50.8,324.6 55.2,332.8 60.5,332.9 56.1,324.8 56.9,316.4 		"/>
		<polygon fill="#A0A0A0" points="56.9,316.4 63.2,328 60.5,332.9 56.1,324.8 		"/>
	</g>
	<g>
		<polygon fill="#CCCCCC" points="76.1,356.2 75.1,367.1 80.6,377.3 87.3,377.5 81.8,367.3 82.8,356.8 		"/>
		<polygon fill="#A0A0A0" points="82.8,356.8 90.6,371.4 87.3,377.5 81.8,367.3 		"/>
	</g>
	<g>
		<polygon fill="#D6D6D6" points="82.8,356.4 81.8,367.3 87.3,377.5 94,377.7 88.5,367.5 89.5,357.1 		"/>
		<polygon fill="#A0A0A0" points="89.5,357.1 97.3,371.6 94,377.7 88.5,367.5 		"/>
	</g>
	<polygon fill="#F23A30" points="71.9,320.8 42.1,327.7 42.1,349.7 71.9,341.7 	"/>
	<polygon fill="#B22D3A" points="13.9,317.4 33.5,295.5 63.2,292 41.7,312.6 	"/>
	<polygon fill="#F23A30" points="63.2,292 33.5,295.5 38.5,299.6 68.4,296.2 	"/>
	<g>
		<polygon opacity="0.5" fill="#FAFAFA" points="35.7,344.6 35,344.4 35.3,340.6 35.9,340.8 		"/>
		<polygon opacity="0.5" fill="#FAFAFA" points="36.8,344.9 36.1,344.7 36.4,340.9 37,341.1 		"/>
		<polygon opacity="0.5" fill="#FAFAFA" points="37.9,345.3 38,344.3 39.7,344.9 39.6,345.8 		"/>
		<path opacity="0.5" fill="#FAFAFA" d="M39.7,342l-0.1,1c0,0.6-0.4,1-0.9,0.9l0,0c-0.4-0.1-0.8-0.8-0.7-1.4l0.1-1L39.7,342z"/>
	</g>
	<polygon fill="#F23A30" points="65.1,350.5 70.1,356.1 70.1,378.9 65.2,372.6 	"/>
	<polygon fill="#DD444D" points="90.7,381.4 117,372.6 117,351 90.7,359.8 	"/>
	<polygon fill="#B22D3A" points="90.7,359.8 97.6,361.4 97.6,382.7 90.7,381.4 	"/>
	<polygon fill="#F23A30" points="65.1,350.5 91.5,341.7 117,351 90.7,359.8 	"/>
	<polygon fill="#F23A30" points="99.4,335.2 97.9,332.7 99.4,330.2 102.3,330.2 103.8,332.7 102.3,335.2 	"/>
	<polygon fill="#F23A30" points="13.1,319.5 12.1,317.6 13.1,315.8 15.3,315.8 16.3,317.6 15.3,319.5 	"/>
</g>
</svg>
