<?xml version="1.0" encoding="utf-8"?>
<!-- Generator: Adobe Illustrator 16.0.0, SVG Export Plug-In . SVG Version: 6.00 Build 0)  -->
<!DOCTYPE svg PUBLIC "-//W3C//DTD SVG 1.1//EN" "http://www.w3.org/Graphics/SVG/1.1/DTD/svg11.dtd">
<svg version="1.1" id="Layer_1" xmlns="http://www.w3.org/2000/svg" xmlns:xlink="http://www.w3.org/1999/xlink" x="0px" y="0px"
	 viewBox="0 0 700 480" enable-background="new 0 0 700 480" xml:space="preserve">
<g>
	<g>
		<g>
			<g>
				<path fill="#F23A30" d="M51.4,357.5h-0.9V49.6c0-5.7,4.7-10.4,10.4-10.4h606c5.7,0,10.4,4.7,10.4,10.4v62.2h-0.9V49.6
					c0-5.3-4.3-9.5-9.5-9.5H61c-5.3,0-9.5,4.3-9.5,9.5V357.5z"/>
			</g>
			<line fill="none" stroke="#F23A30" stroke-miterlimit="10" x1="499.2" y1="412.4" x2="249.9" y2="412.4"/>
			<path fill="#F23A30" d="M676.9,49.5c0-5.5-4.5-10-10-10H61c-5.5,0-10,4.5-10,10v25.9h625.9V49.5z"/>
		</g>
		<g>
			<linearGradient id="SVGRIDVIG_1_" gradientUnits="userSpaceOnUse" x1="88.9346" y1="416.2871" x2="91.3405" y2="402.6426">
				<stop  offset="0" style="stop-color:#FFFFFF"/>
				<stop  offset="1" style="stop-color:#D1D3D4"/>
			</linearGradient>
			<path fill="url(#SVGRIDVIG_1_)" d="M100.1,418.2l3.9-10l-19.8-6.7c0,0,0,0,0.1,0.1c-0.5-0.3-1.1-0.4-1.7-0.4
				c-2.6-0.1-5.1,2.3-5.5,5.2c-0.4,2.5,0.9,4.6,2.8,5.2c0,0-0.1,0-0.1,0l0.2,0c0.1,0,0.1,0,0.2,0L100.1,418.2z"/>
			<g>
				
					<linearGradient id="SVGRIDVIG_2_" gradientUnits="userSpaceOnUse" x1="-2.539063e-002" y1="0.1416" x2="0.9746" y2="0.1416" gradientTransform="matrix(2.406 -13.645 -13.645 -2.406 90.9375 416.2813)">
					<stop  offset="0" style="stop-color:#EF5350"/>
					<stop  offset="1" style="stop-color:#D23C50"/>
				</linearGradient>
				<path fill="url(#SVGRIDVIG_2_)" d="M100.1,418.2l3.9-10l-19.8-6.7l0.1,0.1c-0.5-0.3-1.1-0.4-1.7-0.4c-2.6-0.1-5.1,2.3-5.5,5.2
					c-0.4,2.5,0.9,4.6,2.8,5.2l-0.1,0l0.2,0l0.2,0L100.1,418.2z"/>
			</g>
			<g>
				
					<linearGradient id="SVGRIDVIG_3_" gradientUnits="userSpaceOnUse" x1="0.1885" y1="0.1084" x2="1.189" y2="0.1084" gradientTransform="matrix(-7.9287 -4.5776 -4.5776 7.9287 107.1953 415.2598)">
					<stop  offset="0" style="stop-color:#EF5350"/>
					<stop  offset="0.1275" style="stop-color:#E44E50"/>
					<stop  offset="0.4243" style="stop-color:#CF4450"/>
					<stop  offset="0.716" style="stop-color:#C23E50"/>
					<stop  offset="0.9946" style="stop-color:#BE3C50"/>
					<stop  offset="1" style="stop-color:#BE3C50"/>
				</linearGradient>
				<path fill="url(#SVGRIDVIG_3_)" d="M105.9,413.1c-0.4,2.9-2.9,5.2-5.5,5.2c-2.6-0.1-4.4-2.5-3.9-5.4c0.4-2.9,2.9-5.2,5.5-5.2
					C104.6,407.7,106.4,410.2,105.9,413.1z"/>
			</g>
			<g>
				
					<linearGradient id="SVGRIDVIG_4_" gradientUnits="userSpaceOnUse" x1="-8.593750e-002" y1="-0.2344" x2="0.9141" y2="-0.2344" gradientTransform="matrix(2.7395 7.5267 7.5267 -2.7395 95.2891 413.4727)">
					<stop  offset="0" style="stop-color:#FFFFFF"/>
					<stop  offset="1" style="stop-color:#E6E7E8"/>
				</linearGradient>
				<path fill="url(#SVGRIDVIG_4_)" d="M95.4,421.2l-0.2,0l-9.6-3.4l-2.4,1.2c-0.3,0.2-0.7,0-0.9-0.3c-0.2-0.3,0-0.7,0.3-0.9l2.7-1.4
					c0.2-0.1,0.3-0.1,0.5,0l9.6,3.4l8.8-4.6l-1.7-0.4c-0.4-0.1-0.6-0.4-0.5-0.8c0.1-0.4,0.4-0.6,0.8-0.5l3.4,0.8
					c0.3,0.1,0.5,0.3,0.5,0.6c0,0.3-0.1,0.5-0.3,0.7l-10.6,5.6C95.6,421.2,95.5,421.2,95.4,421.2z"/>
			</g>
			<g>
				<path fill="#3E4265" d="M72.2,421l9.5-4.7c0,0,3.1,1.4,1.7,3.8l-8.7,5.6C74.7,425.8,71.5,421.9,72.2,421z"/>
			</g>
			<g>
				
					<linearGradient id="SVGRIDVIG_5_" gradientUnits="userSpaceOnUse" x1="-0.2085" y1="0.3613" x2="0.791" y2="0.3613" gradientTransform="matrix(2.3914 -4.142 -4.142 -2.3914 74.1152 425.6172)">
					<stop  offset="0" style="stop-color:#FFFFFF"/>
					<stop  offset="1" style="stop-color:#D1D3D4"/>
				</linearGradient>
				<path fill="url(#SVGRIDVIG_5_)" d="M75.4,422.9c0.5,1.4-0.1,2.8-1.2,3.2c-1.1,0.4-2.4-0.4-2.9-1.8c-0.5-1.4,0.1-2.8,1.2-3.2
					C73.6,420.7,74.9,421.5,75.4,422.9z"/>
			</g>
		</g>
		<g>
			<path fill="#3E4265" d="M223.7,288c-0.3,0.2-0.8,0.1-0.9-0.3l0,0c-0.2-0.3-0.1-0.8,0.3-0.9l1.5-0.6c0.3-0.2,0.4-0.1,0.6,0.2l0,0
				c0.2,0.3,0.1,0.5-0.2,0.7L223.7,288z"/>
			<path fill="#212844" d="M167.7,304.9c0,0,12.3,1.3,9.8,15.8c-2.5,14.5-8.4,23-8.4,23S164.5,309.5,167.7,304.9z"/>
			<g>
				<path fill="#1E1E1E" d="M166.2,270.2c7.9-1.6,9.7,5.1,9.9,11.3c0,2.9-2.1,6.1-2.4,9.2c-0.1,4.2-6,9.2-4.1,12.9
					c2.8,5.1,0.6,8.4-5,12.4c-4.2,3.1,3.8,9.9,2.4,3.6L166.2,270.2z"/>
			</g>
			<path fill="#FFD7B3" d="M167.4,276.8c0,0,2.6,2.6,4.3,4.8c1.7,2.3,6.3,3.4,5.2,5.4c-0.2,0.3-1.2,1.1-1,1.9c0.5,1.5,3,5.4,2.5,6
				c-2.4,3-3.9,5.1-9.2,5.7c0,0-0.9,0.7-0.6,4.2v1.6l-11.6-3l-4.2-21.4l7.1-8.5L167.4,276.8z"/>
			<path fill="#AFB3C6" d="M207.5,293.6l14.8-7.2c0,0,2.3-0.1,1.8,2.5l-14.1,10.3c0,0-2.4,0.5-3.7-2.7
				C206.1,296.5,205.5,294.5,207.5,293.6z"/>
			<path fill="#2C345B" d="M159,309.3c0,0,26.1,20.9,33.1,15.1c3.6-3,11.9-13.3,11.9-13.3s4.9,2.2,7.6,8.7c0,0-16.5,19.6-17.8,19.7
				c-1.2,0.1-24.8-4.8-28-7.9"/>
			<path fill="#212844" d="M178.7,361c0,0,23.1-13.3,30.6-5.9s7.2,40,12.4,46.6c0,0-2.9,3.1-9.2,1.3c0,0-14.1-15-14.2-22.3
				c0,0-13.3,6.4-17.9,7.3C175.9,388.9,161.9,372.1,178.7,361z"/>
			<path fill="#FFD7B3" d="M213.9,403.6l2.7,3.8c0,0,4.2,0.4,5,0c0.9-0.4-1.5-5.5-1.5-5.5S215.3,400.8,213.9,403.6z"/>
			<path fill="#1E1E1E" d="M217.2,407.4c0,0-1.4,0.5-1,2.6c0.4,2.1-2.4,8.1,1.1,7.3c0.7-0.1,3,0.3,4.6-0.8c0.4-0.3,1.4-0.7,2.4-0.4
				c7.4,2.7,18.5,0.7,14.3-2.5c-5.9-4.4-14.3-4.4-14.7-6.1C223.5,405.6,217,406.1,217.2,407.4z"/>
			<path fill="#1E1E1E" d="M125.3,402.5l-3.3,5.3l-0.8,1.8c0,0-9.5,9.4-10,9.9c-1.6,1.9-3,7.1,0.9,4.7c3.8-2.4,11.5-4.6,13.2-5.1
				c1.7-0.4,4-0.8,4.4-1c0.4-0.2-0.4-2.9,1.7-5.9c2.1-3.1,4-4.5,3.3-4.9C134.1,407,125.6,402.1,125.3,402.5z"/>
			<path fill="#FFD7B3" d="M134.3,408.2c0,0,8.9,0,10-1c1.1-1-2.3,7.7-2.3,7.7s-10.6,3.3-11.9,3.5
				C128.9,418.4,128.5,408.3,134.3,408.2z"/>
			<path fill="#3E4265" d="M137.5,371.3c0,0-9.8,27.4,34.8,32.6c0,0-29.9-2.9-31.4-3.8c-1.5-0.9,0,14.6,0,14.6s71.9,2.8,70.8-2.3
				c0,0,3.2-12-13.9-21c0,0-23.8-14-22.7-18.8L137.5,371.3z"/>
			<path fill="#2C345B" d="M162.1,303.8l6.5,0.9c0,0,2.8,6.4,2.9,8.6c2.2,6.4,13.9,9,3.8,34.2c-2.6,6.4-0.4,16.2,0.3,18.8
				c0.7,2.6-0.2,7.1-0.2,7.1s-25.6,6.4-38.1-1.8c0,0,4.7-23.1,5.3-34.8c0.6-11.7,15.4-28.1,15.4-28.1L162.1,303.8z"/>
			<path fill="#FFD7B3" d="M205.2,311.7l5.7-7.1c0,0-0.5-5.7,0-6.5c0.5-0.8,3.3-1.6,3.3-2.1c0-0.6,0.6-3.1,0.7-3.7
				c0.2-0.7,4.4-4.8,4.7-5.3c0.3-0.5,0.9,0.4,0.9,1.2c-0.1,0.8-2.6,4.7-2.6,5c0,0.4,2.3-1.5,2.3-1.5s0.9,0.9,1,1.6
				c0.1,0.8,0.9,4.1,1.9,4.8c0.9,0.7,1,3,0.9,3.3c-0.2,0.4-1.1,2.7-1.4,3c-0.3,0.3-5.8,6.3-7.1,7.2l-4.3,6.8L205.2,311.7z"/>
			<path fill="#212844" d="M163.3,331.8l15.5,4.4c0,0-0.3,6-3.1,10.4c-0.6,0.9-1.1,3-1.2,4.2c-0.7,4.3,0.3,8.6-0.7,5.9
				c-1.4-4-2.6-7.3-3.8-14.2C168.8,335.5,163.3,332.3,163.3,331.8z"/>
			<path fill="#1E1E1E" d="M162,267c4.1,0.6,9.2,0.9,6.4,8.2c-1.7,3.9-5.1,7.4-5.5,15.4c-0.1,1.3-2.3,0.7-3.8,0.5
				c-3.3-0.5-1.8,2.8-0.7,5.5c1.3,2.6,1.8-1.9,3.4,5.4c1.9,8.9,2.4,16.2-3.1,27.4c-4.1,8.4-11.2,18-22,17.3c-5.5-0.4-8.8-2-9.2-7.5
				c-0.4-4.2,8.5-5,8.3-9.2c-0.4-4.8,1.8-13,4-17.4c2.9-5.9-1.9-10.3-1-16.9c1.3-8.3,0.9-22.2,16.8-28
				C155.6,267.8,159.5,266.6,162,267z"/>
		</g>
		<g>
			<g>
				
					<linearGradient id="SVGRIDVIG_6_" gradientUnits="userSpaceOnUse" x1="-4.882813e-004" y1="-9.765625e-004" x2="1" y2="-9.765625e-004" gradientTransform="matrix(-8.5822 23.5795 -23.5795 -8.5822 44.9688 402.3438)">
					<stop  offset="0" style="stop-color:#FFFFFF"/>
					<stop  offset="1" style="stop-color:#F2F3F3"/>
				</linearGradient>
				<path fill="url(#SVGRIDVIG_6_)" d="M40.7,408.9c-18.6,0-33.8,2.3-33.8,5.2c0,2.9,15.1,5.2,33.8,5.2c18.6,0,33.8-2.3,33.8-5.2
					C74.4,411.3,59.3,408.9,40.7,408.9"/>
			</g>
			<g>
				<path fill="#3E4265" d="M10.3,378.2l3.7,36.1c0,0,5.7,6.8,54.9,1.8c0,0,4.5-1.2,4.9-4.3l2.9-33.5
					C76.7,378.4,33.8,385.9,10.3,378.2z"/>
			</g>
			<linearGradient id="SVGRIDVIG_7_" gradientUnits="userSpaceOnUse" x1="52.8545" y1="381.0352" x2="48.1527" y2="407.7005">
				<stop  offset="0" style="stop-color:#EF5350"/>
				<stop  offset="1" style="stop-color:#D23C50"/>
			</linearGradient>
			<path fill="url(#SVGRIDVIG_7_)" d="M43.5,383.3v21.9c0,0,0,1.1,0.6,1.5c1.3,0.9,3.9,1.1,4.3-3.7c0.6-7-1-7,0.5-8.8
				c1.5-1.8,1.3,2.7,2.3,3.4c0.8,0.6,2.5,0.6,3.3-2.9c0.8-3.5,0.4-5.6,2.5-6.1c2.1-0.5,4-0.5,3.9-2.5c-0.1-1.9,0-3.7,0-3.7
				S45.9,383.3,43.5,383.3z"/>
		</g>
		<g>
			<g>
				<path fill="#2C345B" d="M248,93.5c-0.5-0.9-1.5-1.3-2.5-1.3c-1.4,0-2.9,0.7-2.9,2.3c0,1.3,0.7,1.8,2.9,2.5
					c2.1,0.7,4.1,1.4,4.1,4.1c0,2.7-2.3,4-4.8,4c-1.6,0-3.3-0.5-4.2-1.9l1.4-1.1c0.6,1,1.7,1.5,2.9,1.5c1.4,0,3-0.8,3-2.4
					c0-1.7-1.1-2-3.6-2.8c-1.9-0.6-3.4-1.5-3.4-3.8c0-2.6,2.3-3.9,4.7-3.9c1.5,0,2.8,0.4,3.8,1.6L248,93.5z"/>
				<path fill="#2C345B" d="M251.9,95.7h1.5V97h0c0.8-1,1.9-1.5,3.2-1.5c2.8,0,4.8,2,4.8,4.8c0,2.7-2,4.8-4.5,4.8
					c-1.6,0-2.9-0.8-3.5-1.8h0v6h-1.5V95.7z M256.6,103.6c2,0,3.2-1.5,3.2-3.4c0-1.9-1.3-3.4-3.2-3.4c-2,0-3.2,1.5-3.2,3.4
					C253.4,102.1,254.7,103.6,256.6,103.6z"/>
				<path fill="#2C345B" d="M271.9,103.1c-1.1,1.4-2.3,1.9-4,1.9c-2.8,0-4.6-2.1-4.6-4.8c0-2.8,2-4.8,4.6-4.8c2.5,0,4.3,1.7,4.3,4.7
					v0.5h-7.3c0.1,1.6,1.3,2.9,3,2.9c1.3,0,2.2-0.5,2.9-1.4L271.9,103.1z M270.6,99.4c-0.1-1.5-1.1-2.6-2.7-2.6s-2.8,1-3,2.6H270.6z
					"/>
				<path fill="#2C345B" d="M274.5,97.9c0-0.8-0.1-1.5-0.1-2.1h1.4c0,0.5,0,1,0,1.5h0c0.4-0.9,1.5-1.7,3-1.7c2.4,0,3.4,1.5,3.4,3.7
					v5.6h-1.5v-5.4c0-1.5-0.7-2.5-2.1-2.5c-2,0-2.8,1.4-2.8,3.5v4.4h-1.5V97.9z"/>
				<path fill="#2C345B" d="M292.8,103.2L292.8,103.2c-0.6,1-1.9,1.8-3.5,1.8c-2.5,0-4.5-2-4.5-4.8c0-2.7,1.9-4.8,4.8-4.8
					c1.3,0,2.4,0.6,3.2,1.5h0v-6.9h1.5v14.6h-1.5V103.2z M289.6,96.9c-2,0-3.2,1.5-3.2,3.4c0,1.9,1.3,3.4,3.2,3.4
					c2,0,3.2-1.5,3.2-3.4C292.8,98.4,291.5,96.9,289.6,96.9z"/>
				<path fill="#2C345B" d="M307.2,91.1h1.5l5.8,13.7h-1.9l-1.4-3.4h-6.8l-1.4,3.4h-1.8L307.2,91.1z M307.9,93.2L307.9,93.2
					l-2.9,6.7h5.6L307.9,93.2z"/>
				<path fill="#2C345B" d="M316,97.9c0-0.8-0.1-1.5-0.1-2.1h1.4c0,0.5,0,1,0,1.5h0c0.4-0.9,1.5-1.7,3-1.7c2.4,0,3.4,1.5,3.4,3.7
					v5.6h-1.5v-5.4c0-1.5-0.7-2.5-2.1-2.5c-2,0-2.8,1.4-2.8,3.5v4.4H316V97.9z"/>
				<path fill="#2C345B" d="M326.7,96.9c0.9-0.9,2.3-1.4,3.6-1.4c2.7,0,3.8,1.3,3.8,3.8v3.9c0,0.5,0.1,1.1,0.1,1.6h-1.4
					c-0.1-0.4-0.1-1-0.1-1.4h0c-0.6,0.9-1.6,1.6-3,1.6c-1.8,0-3.4-0.9-3.4-2.7c0-3,3.5-3.2,5.7-3.2h0.6v-0.3c0-1.3-0.8-2-2.2-2
					c-1,0-2,0.3-2.7,1L326.7,96.9z M331,100.4c-1.9,0-3.1,0.5-3.1,1.7c0,1.1,0.8,1.6,2,1.6c1.7,0,2.6-1.3,2.7-2.7v-0.6H331z"/>
				<path fill="#2C345B" d="M336.9,90.2h1.5v14.6h-1.5V90.2z"/>
				<path fill="#2C345B" d="M344.8,106.8c-0.6,1.5-1.2,2.6-3,2.6c-0.4,0-0.9,0-1.4-0.2l0.2-1.3c0.3,0.1,0.6,0.2,1.1,0.2
					c1,0,1.4-0.6,1.7-1.5l0.6-1.7l-3.7-9.1h1.8l2.8,7.1h0l2.7-7.1h1.6L344.8,106.8z"/>
				<path fill="#2C345B" d="M351,102.4c0.6,0.7,1.3,1.2,2.3,1.2c0.9,0,2-0.4,2-1.4c0-1-1-1.2-1.9-1.4c-1.7-0.4-3.2-0.8-3.2-2.6
					c0-1.8,1.7-2.7,3.4-2.7c1.3,0,2.5,0.5,3.1,1.6l-1.3,0.8c-0.4-0.6-1-1.1-1.9-1.1c-0.8,0-1.8,0.4-1.8,1.3c0,0.8,1.1,1.1,2.3,1.3
					c1.6,0.3,3,0.9,3,2.7c0,2-1.8,2.8-3.6,2.8c-1.5,0-2.6-0.4-3.5-1.7L351,102.4z"/>
				<path fill="#2C345B" d="M359.9,91.1c0.6,0,1.1,0.5,1.1,1.1c0,0.6-0.5,1.1-1.1,1.1s-1.1-0.5-1.1-1.1
					C358.8,91.6,359.3,91.1,359.9,91.1z M359.1,95.7h1.5v9h-1.5V95.7z"/>
				<path fill="#2C345B" d="M363.8,102.4c0.6,0.7,1.3,1.2,2.3,1.2c0.9,0,2-0.4,2-1.4c0-1-1-1.2-1.9-1.4c-1.7-0.4-3.2-0.8-3.2-2.6
					c0-1.8,1.7-2.7,3.4-2.7c1.3,0,2.5,0.5,3.1,1.6l-1.3,0.8c-0.4-0.6-1-1.1-1.9-1.1c-0.8,0-1.8,0.4-1.8,1.3c0,0.8,1.1,1.1,2.3,1.3
					c1.6,0.3,3,0.9,3,2.7c0,2-1.8,2.8-3.6,2.8c-1.5,0-2.6-0.4-3.5-1.7L363.8,102.4z"/>
			</g>
		</g>
		<g>
			<linearGradient id="SVGRIDVIG_8_" gradientUnits="userSpaceOnUse" x1="228.7793" y1="229.1982" x2="383.2835" y2="256.4415">
				<stop  offset="0" style="stop-color:#E6E7E8"/>
				<stop  offset="1" style="stop-color:#D1D3D4"/>
			</linearGradient>
			<polygon opacity="0.2" fill="url(#SVGRIDVIG_8_)" points="232.8,206.5 233.4,278.4 307.5,327.3 377.8,287.5 378.4,199.4 307,158.8 
							"/>
			<path fill="none" stroke="#FFFFFF" stroke-width="0.375" stroke-miterlimit="10" d="M306.2,242.2"/>
			<g>
				<circle fill="#5D5D5D" cx="307.8" cy="154" r="1.3"/>
				<circle fill="#5D5D5D" cx="307.9" cy="330.4" r="1.3"/>
				<path fill="#5D5D5D" d="M383.6,287.5c-0.6-0.4-0.8-1.2-0.4-1.9c0.4-0.6,1.2-0.8,1.9-0.4c0.6,0.4,0.8,1.2,0.4,1.9
					C385,287.7,384.2,287.9,383.6,287.5z"/>
				<circle fill="#5D5D5D" cx="230.9" cy="280.9" r="1.3"/>
				<circle fill="#5D5D5D" cx="384.3" cy="198.1" r="1.3"/>
				<circle fill="#5D5D5D" cx="231.4" cy="198.1" r="1.3"/>
			</g>
			<g class="year y1">
				<g>
					<g enable-background="new    ">
						<g>
							<polygon fill="#343855" points="363.3,245.8 363.3,251.4 350.1,290.6 350.1,285 							"/>
						</g>
						<g>
							<polygon fill="#323551" points="265.9,285.2 265.9,290.8 254.6,238.1 254.6,232.5 							"/>
						</g>
						<g>
							<polygon fill="#323551" points="308.1,309.9 308.1,315.5 265.9,290.8 265.9,285.2 							"/>
						</g>
						<g>
							<polygon fill="#343754" points="350.1,285 350.1,290.6 308.1,315.5 308.1,309.9 							"/>
						</g>
						<g>
							<polygon fill="#3C4061" points="307.7,165 350.9,217.3 363.3,245.8 350.1,285 308.1,309.9 265.9,285.2 254.6,232.5 							
								"/>
						</g>
					</g>
				</g>
			</g>
			<g class="year y2">
				<g>
					<g enable-background="new    ">
						<g>
							<polygon fill="#D74B48" points="373.6,207.2 371.8,211 336.4,281.4 338.2,277.6 							"/>
						</g>
						<g>
							<polygon fill="#D84B48" points="277.2,273.5 275.4,277.2 261.2,241.4 263,237.6 							"/>
						</g>
						<g>
							<polygon fill="#D94B49" points="305.2,289.9 303.4,293.7 275.4,277.2 277.2,273.5 							"/>
						</g>
						<g>
							<polygon fill="#D84B48" points="338.2,277.6 336.4,281.4 303.4,293.7 305.2,289.9 							"/>
						</g>
						<g>
							<polygon fill="#EF5350" points="299.5,199.9 373.6,207.2 338.2,277.6 305.2,289.9 277.2,273.5 263,237.6 							"/>
						</g>
					</g>
				</g>
			</g>
			<g>
				<path fill="#5D5D5D" d="M171.9,249.9h4.9v0.9h-4v2.4h3.7v0.9h-3.7v2.8h4.2v0.9h-5.1V249.9z"/>
				<path fill="#5D5D5D" d="M178.3,249.4h0.9v8.3h-0.9V249.4z"/>
				<path fill="#5D5D5D" d="M185.5,256.8c-0.6,0.8-1.3,1.1-2.3,1.1c-1.6,0-2.6-1.2-2.6-2.7c0-1.6,1.1-2.7,2.6-2.7
					c1.4,0,2.4,1,2.4,2.7v0.3h-4.1c0.1,0.9,0.7,1.6,1.7,1.6c0.7,0,1.2-0.3,1.6-0.8L185.5,256.8z M184.7,254.7c0-0.9-0.6-1.4-1.5-1.4
					c-0.9,0-1.6,0.6-1.7,1.4H184.7z"/>
				<path fill="#5D5D5D" d="M190.6,253.8c-0.4-0.4-0.8-0.6-1.3-0.6c-1.2,0-1.7,0.9-1.7,1.9c0,1.1,0.7,1.9,1.7,1.9
					c0.6,0,1-0.2,1.3-0.6l0.6,0.6c-0.5,0.6-1.2,0.8-1.9,0.8c-1.6,0-2.7-1.1-2.7-2.7c0-1.6,1.1-2.7,2.7-2.7c0.8,0,1.5,0.3,2,0.8
					L190.6,253.8z"/>
				<path fill="#5D5D5D" d="M195.1,253.3h-1.5v2.6c0,0.7,0,1.2,0.8,1.2c0.3,0,0.5-0.1,0.8-0.2l0,0.8c-0.3,0.1-0.7,0.2-1,0.2
					c-1.2,0-1.4-0.7-1.4-1.7v-2.8h-1.1v-0.7h1.1v-1.5h0.9v1.5h1.5V253.3z"/>
				<path fill="#5D5D5D" d="M196.1,253.8c0-0.5,0-0.9,0-1.2h0.8c0,0.3,0,0.6,0,0.8h0c0.2-0.5,0.9-1,1.7-1c0.1,0,0.2,0,0.4,0.1
					l-0.1,0.9c-0.1,0-0.3-0.1-0.5-0.1c-1,0-1.5,0.7-1.5,1.9v2.5h-0.9V253.8z"/>
				<path fill="#5D5D5D" d="M202.2,252.4c1.6,0,2.7,1.1,2.7,2.7c0,1.6-1.2,2.7-2.7,2.7c-1.6,0-2.7-1.1-2.7-2.7
					C199.5,253.5,200.7,252.4,202.2,252.4z M202.2,257c1.1,0,1.8-0.8,1.8-1.9c0-1.1-0.7-1.9-1.8-1.9c-1.1,0-1.8,0.8-1.8,1.9
					C200.4,256.2,201.1,257,202.2,257z"/>
				<path fill="#5D5D5D" d="M206.3,253.8c0-0.5,0-0.9,0-1.2h0.8c0,0.3,0,0.6,0,0.8h0c0.2-0.5,0.9-1,1.7-1c1.3,0,2,0.9,2,2.1v3.2
					h-0.9v-3.1c0-0.9-0.4-1.4-1.2-1.4c-1.1,0-1.6,0.8-1.6,2v2.5h-0.9V253.8z"/>
				<path fill="#5D5D5D" d="M212.9,249.9c0.4,0,0.6,0.3,0.6,0.6c0,0.4-0.3,0.6-0.6,0.6c-0.4,0-0.6-0.3-0.6-0.6
					C212.3,250.2,212.6,249.9,212.9,249.9z M212.5,252.5h0.9v5.1h-0.9V252.5z"/>
				<path fill="#5D5D5D" d="M218.7,253.8c-0.4-0.4-0.8-0.6-1.3-0.6c-1.2,0-1.7,0.9-1.7,1.9c0,1.1,0.7,1.9,1.7,1.9
					c0.6,0,1-0.2,1.3-0.6l0.6,0.6c-0.5,0.6-1.2,0.8-1.9,0.8c-1.6,0-2.7-1.1-2.7-2.7c0-1.6,1.1-2.7,2.7-2.7c0.8,0,1.5,0.3,2,0.8
					L218.7,253.8z"/>
				<path fill="#5D5D5D" d="M220.5,256.3c0.3,0.4,0.7,0.7,1.3,0.7c0.5,0,1.1-0.2,1.1-0.8c0-0.6-0.5-0.7-1.1-0.8
					c-1-0.2-1.8-0.4-1.8-1.5c0-1,1-1.5,1.9-1.5c0.7,0,1.4,0.3,1.7,0.9l-0.7,0.5c-0.2-0.4-0.6-0.6-1.1-0.6c-0.5,0-1,0.2-1,0.7
					c0,0.4,0.6,0.6,1.3,0.7c0.9,0.2,1.7,0.5,1.7,1.5c0,1.2-1,1.6-2.1,1.6c-0.9,0-1.5-0.2-2-1L220.5,256.3z"/>
			</g>
			<g>
				<path fill="#5D5D5D" d="M214.2,184.4c-0.3-0.5-0.9-0.7-1.4-0.7c-0.8,0-1.7,0.4-1.7,1.3c0,0.7,0.4,1,1.6,1.4
					c1.2,0.4,2.3,0.8,2.3,2.3c0,1.5-1.3,2.3-2.7,2.3c-0.9,0-1.9-0.3-2.4-1.1l0.8-0.6c0.3,0.6,1,0.9,1.7,0.9c0.8,0,1.7-0.5,1.7-1.4
					c0-1-0.6-1.1-2-1.6c-1.1-0.4-1.9-0.8-1.9-2.1c0-1.5,1.3-2.2,2.6-2.2c0.9,0,1.6,0.2,2.2,0.9L214.2,184.4z"/>
				<path fill="#5D5D5D" d="M216.4,186.3c0.5-0.5,1.3-0.8,2-0.8c1.5,0,2.2,0.7,2.2,2.2v2.2c0,0.3,0,0.6,0.1,0.9h-0.8
					c-0.1-0.2-0.1-0.5-0.1-0.8h0c-0.3,0.5-0.9,0.9-1.7,0.9c-1,0-1.9-0.5-1.9-1.5c0-1.7,2-1.8,3.2-1.8h0.3v-0.2
					c0-0.7-0.5-1.1-1.3-1.1c-0.6,0-1.1,0.2-1.5,0.6L216.4,186.3z M218.8,188.3c-1.1,0-1.8,0.3-1.8,1c0,0.6,0.5,0.9,1.1,0.9
					c1,0,1.5-0.7,1.5-1.5v-0.3H218.8z"/>
				<path fill="#5D5D5D" d="M222.6,186.4h-1.1v-0.7h1.1v-1.2c0-1.3,0.4-2.1,1.8-2.1c0.2,0,0.5,0,0.7,0.1l-0.1,0.8
					c-0.2-0.1-0.4-0.1-0.6-0.1c-0.9,0-0.9,0.6-0.9,1.5v1h1.3v0.7h-1.3v4.4h-0.9V186.4z"/>
				<path fill="#5D5D5D" d="M230.2,189.9c-0.6,0.8-1.3,1.1-2.3,1.1c-1.6,0-2.6-1.2-2.6-2.7c0-1.6,1.1-2.7,2.6-2.7
					c1.4,0,2.4,1,2.4,2.7v0.3h-4.1c0.1,0.9,0.7,1.6,1.7,1.6c0.7,0,1.2-0.3,1.6-0.8L230.2,189.9z M229.4,187.8c0-0.9-0.6-1.5-1.5-1.5
					c-0.9,0-1.6,0.6-1.7,1.5H229.4z"/>
				<path fill="#5D5D5D" d="M234.5,186.4H233v2.6c0,0.7,0,1.2,0.8,1.2c0.3,0,0.5-0.1,0.8-0.2l0,0.8c-0.3,0.1-0.7,0.2-1,0.2
					c-1.2,0-1.4-0.7-1.4-1.7v-2.8H231v-0.7h1.1v-1.5h0.9v1.5h1.5V186.4z"/>
				<path fill="#5D5D5D" d="M237.5,192c-0.3,0.9-0.7,1.5-1.7,1.5c-0.2,0-0.5,0-0.8-0.1l0.1-0.7c0.2,0.1,0.4,0.1,0.6,0.1
					c0.6,0,0.8-0.3,1-0.8l0.4-1l-2.1-5.2h1l1.6,4h0l1.5-4h0.9L237.5,192z"/>
			</g>
			<g>
				<path fill="#5D5D5D" d="M284.3,333.8h4.9v0.9h-4v2.4h3.7v0.9h-3.7v2.8h4.2v0.9h-5.1V333.8z"/>
				<path fill="#5D5D5D" d="M290.7,333.2h0.9v8.3h-0.9V333.2z"/>
				<path fill="#5D5D5D" d="M297.9,340.6c-0.6,0.8-1.3,1.1-2.3,1.1c-1.6,0-2.6-1.2-2.6-2.7c0-1.6,1.1-2.7,2.6-2.7
					c1.5,0,2.4,1,2.4,2.7v0.3h-4.1c0.1,0.9,0.7,1.6,1.7,1.6c0.7,0,1.2-0.3,1.6-0.8L297.9,340.6z M297.1,338.5c0-0.9-0.6-1.5-1.5-1.5
					c-0.9,0-1.6,0.6-1.7,1.5H297.1z"/>
				<path fill="#5D5D5D" d="M303,337.7c-0.4-0.4-0.8-0.6-1.3-0.6c-1.2,0-1.7,0.9-1.7,1.9c0,1.1,0.7,1.9,1.7,1.9c0.6,0,1-0.2,1.3-0.6
					l0.6,0.6c-0.5,0.6-1.2,0.8-1.9,0.8c-1.6,0-2.7-1.1-2.7-2.7c0-1.6,1.1-2.7,2.7-2.7c0.8,0,1.5,0.3,2,0.8L303,337.7z"/>
				<path fill="#5D5D5D" d="M307.5,337.1H306v2.6c0,0.7,0,1.2,0.8,1.2c0.3,0,0.5-0.1,0.8-0.2l0,0.8c-0.3,0.1-0.7,0.2-1,0.2
					c-1.2,0-1.4-0.7-1.4-1.7v-2.8H304v-0.7h1.1v-1.5h0.9v1.5h1.5V337.1z"/>
				<path fill="#5D5D5D" d="M308.5,337.6c0-0.5,0-0.9,0-1.2h0.8c0,0.3,0,0.6,0,0.8h0c0.2-0.5,0.9-1,1.7-1c0.1,0,0.2,0,0.4,0.1
					l-0.1,0.9c-0.1,0-0.3-0.1-0.5-0.1c-1,0-1.5,0.7-1.5,1.9v2.5h-0.9V337.6z"/>
				<path fill="#5D5D5D" d="M312.9,333.8c0.4,0,0.6,0.3,0.6,0.6c0,0.4-0.3,0.6-0.6,0.6c-0.4,0-0.6-0.3-0.6-0.6
					C312.3,334,312.6,333.8,312.9,333.8z M312.5,336.4h0.9v5.1h-0.9V336.4z"/>
				<path fill="#5D5D5D" d="M318.7,337.7c-0.4-0.4-0.8-0.6-1.3-0.6c-1.2,0-1.7,0.9-1.7,1.9c0,1.1,0.7,1.9,1.7,1.9
					c0.6,0,1-0.2,1.3-0.6l0.6,0.6c-0.5,0.6-1.2,0.8-1.9,0.8c-1.6,0-2.7-1.1-2.7-2.7c0-1.6,1.1-2.7,2.7-2.7c0.8,0,1.5,0.3,2,0.8
					L318.7,337.7z"/>
				<path fill="#5D5D5D" d="M320.3,337c0.5-0.5,1.3-0.8,2-0.8c1.5,0,2.2,0.7,2.2,2.2v2.2c0,0.3,0,0.6,0.1,0.9h-0.8
					c-0.1-0.2-0.1-0.5-0.1-0.8h0c-0.3,0.5-0.9,0.9-1.7,0.9c-1,0-1.9-0.5-1.9-1.5c0-1.7,2-1.8,3.2-1.8h0.3v-0.2
					c0-0.7-0.5-1.1-1.3-1.1c-0.5,0-1.1,0.2-1.5,0.6L320.3,337z M322.7,339.1c-1.1,0-1.8,0.3-1.8,1c0,0.6,0.5,0.9,1.1,0.9
					c1,0,1.5-0.7,1.5-1.5v-0.3H322.7z"/>
				<path fill="#5D5D5D" d="M326.1,333.2h0.9v8.3h-0.9V333.2z"/>
				<path fill="#5D5D5D" d="M328.8,340.2c0.3,0.4,0.7,0.7,1.3,0.7c0.5,0,1.1-0.2,1.1-0.8c0-0.5-0.5-0.7-1.1-0.8
					c-1-0.2-1.8-0.4-1.8-1.5c0-1,1-1.5,1.9-1.5c0.7,0,1.4,0.3,1.7,0.9l-0.7,0.5c-0.2-0.4-0.6-0.6-1.1-0.6c-0.5,0-1,0.2-1,0.7
					c0,0.4,0.6,0.6,1.3,0.7c0.9,0.2,1.7,0.5,1.7,1.5c0,1.2-1,1.6-2.1,1.6c-0.9,0-1.5-0.2-2-1L328.8,340.2z"/>
			</g>
			<g>
				<path fill="#5D5D5D" d="M288.2,142.2c-0.3-0.5-0.9-0.7-1.4-0.7c-0.8,0-1.7,0.4-1.7,1.3c0,0.7,0.4,1,1.6,1.4
					c1.2,0.4,2.3,0.8,2.3,2.3c0,1.6-1.3,2.3-2.7,2.3c-0.9,0-1.9-0.3-2.4-1.1l0.8-0.6c0.3,0.6,1,0.9,1.7,0.9c0.8,0,1.7-0.5,1.7-1.4
					c0-1-0.6-1.1-2-1.6c-1.1-0.4-1.9-0.8-1.9-2.1c0-1.5,1.3-2.2,2.6-2.2c0.9,0,1.6,0.2,2.2,0.9L288.2,142.2z"/>
				<path fill="#5D5D5D" d="M293.2,144.2h-1.5v2.6c0,0.7,0,1.2,0.8,1.2c0.3,0,0.5-0.1,0.8-0.2l0,0.8c-0.3,0.1-0.7,0.2-1,0.2
					c-1.2,0-1.4-0.7-1.4-1.7v-2.8h-1.1v-0.7h1.1V142h0.9v1.5h1.5V144.2z"/>
				<path fill="#5D5D5D" d="M294.2,144.1c0.5-0.5,1.3-0.8,2-0.8c1.5,0,2.2,0.7,2.2,2.2v2.2c0,0.3,0,0.6,0.1,0.9h-0.8
					c-0.1-0.2-0.1-0.5-0.1-0.8h0c-0.3,0.5-0.9,0.9-1.7,0.9c-1,0-1.9-0.5-1.9-1.5c0-1.7,2-1.8,3.2-1.8h0.3v-0.2
					c0-0.7-0.5-1.1-1.3-1.1c-0.5,0-1.1,0.2-1.5,0.6L294.2,144.1z M296.7,146.1c-1.1,0-1.8,0.3-1.8,1c0,0.7,0.5,0.9,1.1,0.9
					c1,0,1.5-0.7,1.5-1.5v-0.3H296.7z"/>
				<path fill="#5D5D5D" d="M302.8,144.2h-1.5v2.6c0,0.7,0,1.2,0.8,1.2c0.3,0,0.5-0.1,0.8-0.2l0,0.8c-0.3,0.1-0.7,0.2-1,0.2
					c-1.2,0-1.4-0.7-1.4-1.7v-2.8h-1.1v-0.7h1.1V142h0.9v1.5h1.5V144.2z"/>
				<path fill="#5D5D5D" d="M304.4,140.8c0.4,0,0.6,0.3,0.6,0.6c0,0.4-0.3,0.6-0.6,0.6c-0.4,0-0.6-0.3-0.6-0.6
					C303.7,141.1,304,140.8,304.4,140.8z M303.9,143.4h0.9v5.1h-0.9V143.4z"/>
				<path fill="#5D5D5D" d="M309,143.3c1.6,0,2.7,1.1,2.7,2.7s-1.2,2.7-2.7,2.7c-1.6,0-2.7-1.1-2.7-2.7S307.4,143.3,309,143.3z
					 M309,147.9c1.1,0,1.8-0.8,1.8-1.9s-0.7-1.9-1.8-1.9s-1.8,0.8-1.8,1.9S307.8,147.9,309,147.9z"/>
				<path fill="#5D5D5D" d="M313,144.7c0-0.5,0-0.9,0-1.2h0.8c0,0.3,0,0.6,0,0.8h0c0.2-0.5,0.9-1,1.7-1c1.4,0,2,0.9,2,2.1v3.2h-0.9
					v-3.1c0-0.9-0.4-1.4-1.2-1.4c-1.1,0-1.6,0.8-1.6,2v2.5H313V144.7z"/>
				<path fill="#5D5D5D" d="M323.7,147.7c-0.6,0.8-1.3,1.1-2.3,1.1c-1.6,0-2.6-1.2-2.6-2.7c0-1.6,1.1-2.7,2.6-2.7
					c1.4,0,2.4,1,2.4,2.7v0.3h-4.1c0.1,0.9,0.7,1.6,1.7,1.6c0.7,0,1.2-0.3,1.6-0.8L323.7,147.7z M323,145.6c0-0.9-0.6-1.5-1.5-1.5
					s-1.6,0.6-1.7,1.5H323z"/>
				<path fill="#5D5D5D" d="M325.2,144.7c0-0.5,0-0.9,0-1.2h0.8c0,0.3,0,0.6,0,0.8h0c0.2-0.5,0.9-1,1.7-1c0.1,0,0.2,0,0.4,0.1
					l-0.1,0.9c-0.1,0-0.3-0.1-0.5-0.1c-1,0-1.5,0.7-1.5,1.9v2.5h-0.9V144.7z"/>
				<path fill="#5D5D5D" d="M331,149.8c-0.3,0.9-0.7,1.5-1.7,1.5c-0.2,0-0.5,0-0.8-0.1l0.1-0.7c0.2,0.1,0.4,0.1,0.6,0.1
					c0.6,0,0.8-0.3,1-0.8l0.4-1l-2.1-5.2h1l1.6,4h0l1.5-4h0.9L331,149.8z"/>
			</g>
			<g>
				<path fill="#5D5D5D" d="M391.1,193.2h2.3c1.4,0,2.7,0.5,2.7,2.1c0,1.7-1.4,2.2-2.5,2.2H392v3.5h-0.9V193.2z M392,196.6h1.6
					c0.9,0,1.6-0.4,1.6-1.3c0-0.9-0.6-1.3-1.6-1.3H392V196.6z"/>
				<path fill="#5D5D5D" d="M397.4,196.5c0.5-0.5,1.3-0.8,2-0.8c1.5,0,2.2,0.7,2.2,2.2v2.2c0,0.3,0,0.6,0.1,0.9h-0.8
					c-0.1-0.2-0.1-0.5-0.1-0.8h0c-0.3,0.5-0.9,0.9-1.7,0.9c-1,0-1.9-0.5-1.9-1.5c0-1.7,2-1.8,3.2-1.8h0.3v-0.2
					c0-0.7-0.5-1.1-1.3-1.1c-0.5,0-1.1,0.2-1.5,0.6L397.4,196.5z M399.9,198.5c-1.1,0-1.8,0.3-1.8,1c0,0.6,0.5,0.9,1.1,0.9
					c1,0,1.5-0.7,1.5-1.5v-0.3H399.9z"/>
				<path fill="#5D5D5D" d="M403.1,197c0-0.5,0-0.9,0-1.2h0.8c0,0.3,0,0.6,0,0.8h0c0.2-0.5,0.9-1,1.7-1c1.3,0,2,0.9,2,2.1v3.2h-0.9
					v-3.1c0-0.9-0.4-1.4-1.2-1.4c-1.1,0-1.6,0.8-1.6,2v2.5h-0.9V197z"/>
				<path fill="#5D5D5D" d="M412.1,196.5h-1.5v2.6c0,0.7,0,1.2,0.8,1.2c0.3,0,0.5-0.1,0.8-0.2l0,0.8c-0.3,0.1-0.7,0.2-1,0.2
					c-1.2,0-1.4-0.7-1.4-1.7v-2.8h-1.1v-0.7h1.1v-1.5h0.9v1.5h1.5V196.5z"/>
				<path fill="#5D5D5D" d="M413.1,197c0-0.5,0-0.9,0-1.2h0.8c0,0.3,0,0.6,0,0.8h0c0.2-0.5,0.9-1,1.7-1c0.1,0,0.2,0,0.4,0.1
					l-0.1,0.9c-0.1,0-0.3-0.1-0.5-0.1c-1,0-1.5,0.7-1.5,1.9v2.5h-0.9V197z"/>
				<path fill="#5D5D5D" d="M418.9,202.1c-0.3,0.9-0.7,1.5-1.7,1.5c-0.2,0-0.5,0-0.8-0.1l0.1-0.7c0.2,0.1,0.4,0.1,0.6,0.1
					c0.6,0,0.8-0.3,1-0.8l0.4-1l-2.1-5.2h1l1.6,4h0l1.5-4h0.9L418.9,202.1z"/>
			</g>
			<g>
				<path fill="#5D5D5D" d="M390.4,281.6h0.9v3.3h4.1v-3.3h0.9v7.8h-0.9v-3.6h-4.1v3.6h-0.9V281.6z"/>
				<path fill="#5D5D5D" d="M400.6,284.1c1.6,0,2.7,1.1,2.7,2.7c0,1.6-1.2,2.7-2.7,2.7c-1.6,0-2.7-1.1-2.7-2.7
					C397.8,285.2,399,284.1,400.6,284.1z M400.6,288.7c1.1,0,1.8-0.8,1.8-1.9c0-1.1-0.7-1.9-1.8-1.9c-1.1,0-1.8,0.8-1.8,1.9
					C398.8,287.8,399.5,288.7,400.6,288.7z"/>
				<path fill="#5D5D5D" d="M409.1,288.1c0,0.5,0,0.9,0,1.2h-0.8c0-0.3,0-0.6,0-0.8h0c-0.2,0.5-0.9,1-1.7,1c-1.4,0-2-0.9-2-2.1v-3.2
					h0.9v3.1c0,0.9,0.4,1.4,1.2,1.4c1.1,0,1.6-0.8,1.6-2v-2.5h0.9V288.1z"/>
				<path fill="#5D5D5D" d="M410.9,288c0.3,0.4,0.7,0.7,1.3,0.7c0.5,0,1.1-0.2,1.1-0.8c0-0.5-0.5-0.7-1.1-0.8
					c-1-0.2-1.8-0.4-1.8-1.5c0-1,1-1.5,1.9-1.5c0.7,0,1.4,0.3,1.7,0.9l-0.7,0.5c-0.2-0.4-0.6-0.6-1.1-0.6c-0.5,0-1,0.2-1,0.7
					c0,0.4,0.6,0.6,1.3,0.7c0.9,0.2,1.7,0.5,1.7,1.5c0,1.2-1,1.6-2.1,1.6c-0.9,0-1.5-0.2-2-1L410.9,288z"/>
				<path fill="#5D5D5D" d="M420,288.4c-0.6,0.8-1.3,1.1-2.3,1.1c-1.6,0-2.6-1.2-2.6-2.7c0-1.6,1.1-2.7,2.6-2.7c1.5,0,2.4,1,2.4,2.7
					v0.3h-4.2c0.1,0.9,0.7,1.6,1.7,1.6c0.7,0,1.2-0.3,1.6-0.8L420,288.4z M419.3,286.3c0-0.9-0.6-1.4-1.5-1.4s-1.6,0.6-1.7,1.4
					H419.3z"/>
				<path fill="#5D5D5D" d="M421.5,281h0.9v5.4l2.3-2.3h1.2l-2.5,2.3l2.7,2.8H425l-2.5-2.7v2.7h-0.9V281z"/>
				<path fill="#5D5D5D" d="M431.6,288.4c-0.6,0.8-1.3,1.1-2.3,1.1c-1.6,0-2.6-1.2-2.6-2.7c0-1.6,1.1-2.7,2.6-2.7
					c1.4,0,2.4,1,2.4,2.7v0.3h-4.2c0.1,0.9,0.7,1.6,1.7,1.6c0.7,0,1.2-0.3,1.6-0.8L431.6,288.4z M430.9,286.3c0-0.9-0.6-1.4-1.5-1.4
					c-0.9,0-1.6,0.6-1.7,1.4H430.9z"/>
				<path fill="#5D5D5D" d="M437.7,288.4c-0.6,0.8-1.3,1.1-2.3,1.1c-1.6,0-2.6-1.2-2.6-2.7c0-1.6,1.1-2.7,2.6-2.7
					c1.4,0,2.4,1,2.4,2.7v0.3h-4.2c0.1,0.9,0.7,1.6,1.7,1.6c0.7,0,1.2-0.3,1.6-0.8L437.7,288.4z M437,286.3c0-0.9-0.6-1.4-1.5-1.4
					c-0.9,0-1.6,0.6-1.7,1.4H437z"/>
				<path fill="#5D5D5D" d="M439.2,284.2h0.9v0.7h0c0.5-0.5,1.1-0.9,1.8-0.9c1.6,0,2.7,1.1,2.7,2.7c0,1.5-1.1,2.7-2.6,2.7
					c-0.9,0-1.7-0.5-2-1h0v3.4h-0.9V284.2z M441.9,288.7c1.1,0,1.8-0.8,1.8-1.9c0-1.1-0.7-1.9-1.8-1.9c-1.1,0-1.8,0.8-1.8,1.9
					C440.1,287.8,440.8,288.7,441.9,288.7z"/>
				<path fill="#5D5D5D" d="M446.5,281.6c0.4,0,0.6,0.3,0.6,0.6c0,0.4-0.3,0.6-0.6,0.6c-0.4,0-0.6-0.3-0.6-0.6
					C445.8,281.9,446.1,281.6,446.5,281.6z M446,284.2h0.9v5.1H446V284.2z"/>
				<path fill="#5D5D5D" d="M448.6,285.4c0-0.5,0-0.9,0-1.2h0.8c0,0.3,0,0.6,0,0.8h0c0.2-0.5,0.9-1,1.7-1c1.4,0,2,0.9,2,2.1v3.2
					h-0.9v-3.1c0-0.9-0.4-1.4-1.2-1.4c-1.1,0-1.6,0.8-1.6,2v2.5h-0.9V285.4z"/>
				<path fill="#5D5D5D" d="M459.8,289.1c0,1.9-1,2.9-2.8,2.9c-1,0-1.8-0.3-2.5-1l0.6-0.7c0.5,0.6,1.1,0.9,1.9,0.9
					c1.5,0,1.9-1,1.9-2.1v-0.7h0c-0.4,0.7-1.1,1-1.8,1c-1.6,0-2.7-1.1-2.7-2.6c0-1.7,1.1-2.7,2.7-2.7c0.7,0,1.5,0.3,1.8,1h0v-0.9
					h0.9V289.1z M457.1,288.6c1.2,0,1.8-0.9,1.8-1.9c0-1.1-0.7-1.9-1.8-1.9c-1.1,0-1.8,0.8-1.8,1.9
					C455.3,287.8,456.1,288.6,457.1,288.6z"/>
			</g>
		</g>
		<g>
			<g>
				<g>
					<path fill="#5A5A5A" d="M366.1,129.6h-4.6v-0.8l2.9-2.9c0.4-0.4,0.9-1,0.9-1.6c0-0.8-0.6-1.4-1.4-1.4s-1.3,0.5-1.5,1.3
						l-0.7-0.1c0.2-1,1.1-1.7,2.2-1.7c1.1,0,2.1,0.7,2.1,2c0,0.9-0.5,1.5-1.2,2.2l-2.6,2.5h3.8V129.6z"/>
					<path fill="#5A5A5A" d="M372.1,126c0,1.9-0.6,3.7-2.3,3.7c-1.8,0-2.3-1.9-2.3-3.7c0-1.9,0.5-3.8,2.3-3.8
						C371.5,122.3,372.1,124.2,372.1,126z M368.1,126c0,1.4,0.3,3.1,1.6,3.1c1.3,0,1.6-1.7,1.6-3.1c0-1.4-0.4-3.1-1.6-3.1
						C368.5,122.9,368.1,124.6,368.1,126z"/>
					<path fill="#5A5A5A" d="M376.3,129.6h-0.7v-6.2l-1.3,1.1l-0.4-0.5l1.8-1.5h0.6V129.6z"/>
					<path fill="#5A5A5A" d="M383.5,123.1l-2.9,6.5h-0.8l3-6.5h-3.5v-0.6h4.2V123.1z"/>
				</g>
				<g>
					<path fill="#5A5A5A" d="M240.1,129.6h-4.6v-0.8l2.9-2.9c0.4-0.4,0.9-1,0.9-1.6c0-0.8-0.6-1.4-1.4-1.4s-1.3,0.5-1.5,1.3
						l-0.7-0.1c0.2-1,1.1-1.7,2.2-1.7c1.1,0,2.1,0.7,2.1,2c0,0.9-0.5,1.5-1.2,2.2l-2.6,2.5h3.8V129.6z"/>
					<path fill="#5A5A5A" d="M246.1,126c0,1.9-0.6,3.7-2.3,3.7c-1.8,0-2.3-1.9-2.3-3.7c0-1.9,0.5-3.8,2.3-3.8
						C245.6,122.3,246.1,124.2,246.1,126z M242.2,126c0,1.4,0.3,3.1,1.6,3.1c1.2,0,1.6-1.7,1.6-3.1c0-1.4-0.4-3.1-1.6-3.1
						C242.5,122.9,242.2,124.6,242.2,126z"/>
					<path fill="#5A5A5A" d="M250.3,129.6h-0.7v-6.2l-1.3,1.1l-0.4-0.5l1.8-1.5h0.6V129.6z"/>
					<path fill="#5A5A5A" d="M254.6,125.6L254.6,125.6c0.2-0.1,0.7-0.2,1-0.2c1.2,0,2.2,0.9,2.2,2.2c0,1.3-1,2.2-2.3,2.2
						c-1.3,0-2.3-0.9-2.3-2.2c0-0.7,0.3-1.4,0.6-1.9l1.9-3.1h0.8L254.6,125.6z M255.5,129.1c0.9,0,1.6-0.7,1.6-1.6
						c0-0.9-0.6-1.6-1.6-1.6s-1.6,0.7-1.6,1.6C253.9,128.4,254.5,129.1,255.5,129.1z"/>
				</g>
			</g>
			<g>
				<rect x="222.2" y="123.1" fill="#3E4265" width="6.8" height="6.8"/>
			</g>
			<g>
				<rect x="349.8" y="123.1" fill="#EF5350" width="6.8" height="6.8"/>
			</g>
		</g>
		<polygon fill="#F23A30" points="50.4,75.4 677.5,75.4 677.5,39.1 50.4,39.1 		"/>
		<g>
			<rect x="108.2" y="52.4" fill="#B71C1C" width="10.1" height="10.1"/>
			<polygon fill="#B71C1C" points="73.5,52.4 76.4,57.4 79.4,62.5 73.5,62.5 67.6,62.5 70.6,57.4 			"/>
			<path fill="#B71C1C" d="M98,57.4c0,2.8-2.3,5.1-5.1,5.1c-2.8,0-5.1-2.3-5.1-5.1c0-2.8,2.3-5.1,5.1-5.1C95.7,52.4,98,54.6,98,57.4
				z"/>
		</g>
		<g>
			<g id="Home">
				<g id="Home---Approach" transform="translate(-799.000000, -1814.000000)">
					<g id="Led-by-Proven-Managers_x40_3x" transform="translate(800.000000, 1815.000000)">
						<g id="Group-51" transform="translate(101.271685, 43.511677)">
							<path id="Path-312" fill="#FFD7B3" d="M415.6,192.7c-1.3,14.2-3.1,23.4-5.4,27.6c-2.9,5.3-8.6,22.7-13.3,29
								c-1.3,3.2-2,5-2.1,5.2h18.6c-2.1-2.9-5.1-4.7-9.1-5.2c1.9-3.2,12.5-22.3,14-26.6c1.4-4.3,9.8-23.8,9.3-27.9
								C423.8,192.8,419.8,192.2,415.6,192.7z"/>
							<path id="Path-312-Copy" fill="#1E1E1E" d="M396.9,249.3c-1.3,3.2-2,5-2.1,5.2h18.6c-2.1-2.9-5.1-4.7-9.1-5.2H396.9z"/>
							<g id="Group-43" transform="translate(0.000000, 217.936132)">
								<linearGradient id="Path-274_1_" gradientUnits="userSpaceOnUse" x1="427.7469" y1="173.5453" x2="504.0571" y2="51.4235">
									<stop  offset="0" style="stop-color:#FFFFFF;stop-opacity:0"/>
									<stop  offset="1" style="stop-color:#D1D3D4"/>
								</linearGradient>
								<polygon id="Path-274" fill="url(#Path-274_1_)" points="390,150 390,36.6 480.3,36.6 480.3,64.5 508.9,64.5 508.9,97.3 
									536.8,97.3 536.8,130.2 565.8,130.2 565.8,150 								"/>
							</g>
							<g id="Group-49" transform="translate(328.683470, 0.000000)">
								<path id="Path-308" fill="#FFD7B3" d="M117.8,99.4l16.1-4.9c4.1-12.8,7.3-20.3,9.6-22.6c2.1-2,5.7-3.4,10.9-4l-7.3,9.1
									l-7.9,23.7l-21.4,8.4V99.4z"/>
								<path id="Path-301" fill="#FFD7B3" d="M193,272.3l7.5,37.8c-5,0.7-8.3,1.5-10.2,2.5c-1.8,1-3,2-3.5,3h19.7l-2.4-33.5
									L193,272.3z"/>
								<path id="Path-301-Copy" fill="#1E1E1E" d="M200.6,310.1c-2.3,0.3-4.3,0.7-6,1.1c-1.8,0.4-3.2,0.9-4.2,1.4c-1.8,1-3,2-3.5,3
									h19.7l-0.5-5.5H200.6z"/>
								<path id="Path-302" fill="#FFD7B3" d="M218.4,289.3l16,45.1c-0.4,4.6-1.1,7.8-2.2,9.6c-2.9,1.3-4.8,2.7-5.7,4.2h9.6
									l5.1-12.9l-9-46H218.4z"/>
								<path id="Path-302-Copy" fill="#1E1E1E" d="M234.4,334.4c-0.2,4.2-0.8,7.2-1.9,9c-2.9,1.3-4.9,2.9-6,4.8h9.6l6.4-13.8
									l-2.4-5.3c-0.9,2-1.7,3.3-2.4,4C237,333.7,235.9,334.1,234.4,334.4z"/>
								<path id="Path-300" fill="#3E4265" d="M218.7,231.1c-11.9,4.8-20.8,12.5-26.7,23.1c-2.3,4.2-1.8,12.5,1.5,24.8
									c8.1,3.8,14.5,6.8,19.1,8.8c4.6,2,11.3,2.8,20.1,2.4c0-9.6,0-18.1,0-25.5c0-11,4.4-10.9,4.4-29.7L218.7,231.1z"/>
								<polygon id="Path-297" fill="#212844" points="243.3,172.7 249.2,130.6 245,134.1 232.8,171 								"/>
								<path id="Rectangle-53" fill="#EF5350" d="M170.7,45l89.4,53.7c2.7,1.6,3.5,5.1,1.9,7.7l-35.5,59.2
									c-1.6,2.7-5.1,3.5-7.7,1.9l-89.4-53.7c-2.7-1.6-3.5-5.1-1.9-7.7L163,46.9C164.6,44.3,168,43.4,170.7,45z"/>
								<path id="Combined-Shape_1_" opacity="0.2" fill="#2C345B" d="M172.2,45.9l-12.1,86.4l-30.8-18.5c-2.7-1.6-3.5-5.1-1.9-7.7
									L163,46.9c1.6-2.7,5.1-3.5,7.7-1.9L172.2,45.9z"/>
								<path id="Path-299" opacity="0.2" fill="#0B4651" enable-background="new    " d="M179.7,144.5l33,13.3
									c2.5,1,5.3,0.1,6.8-2.1c0.8-1.2,1.2-2.2,1.2-3c0-2.2,1.1-8.8,8.7-8.2c2.6,0.2,11-5.7,15.3-10.9c1.2-1.4-0.6-5.1,0.6-6.2
									c0.1-0.1,0.6,2.9,1.6,2c2-1.8,4.5-7.8,4.9-6.5c0.2,0.5-1.5,3.4-4.9,8.8l-17,27.7l-8.5,9.9L179.7,144.5z"/>
								<path id="Path-295" fill="#FFD7B3" d="M197.1,156.2l-2.3-5.6l-0.3-1.1c-0.3-0.8-1-1.4-1.9-1.4l0.4,3.6l-5.7-3.2
									c-0.7,1.6-0.3,3.1,1.2,4.5c1.5,1.3,3.2,3.1,5,5.3L197.1,156.2z"/>
								<path id="Path-173" fill="#1E1E1E" d="M227.7,153.4c-6.9,4.3-10.4,9.3-10.4,15c0,4.1,4.5,7.9,6.8,11.5
									c1.4,2.2,0.9,5.2,1.2,5.4c0.7,0.5,6.1,3.9,8.7,0c0.5-0.8-0.8-6-4-15.6L227.7,153.4z"/>
								<polygon id="Path-292" fill="#FFD7B3" points="224.5,174 227.5,185 238,186.9 228,171 								"/>
								<path id="Path-291" fill="#2C345B" d="M231.2,182.4l-18.7,0.5c-1.1,0-2.1-0.6-2.6-1.6l-12.5-25.2c-0.6-1.1-1.9-1.6-3.1-1
									c0,0,0,0,0,0c-1.2,0.6-1.8,2-1.4,3.2l8,27c1.5,5,5.5,8.8,10.6,10l8.6,2c-1.6,5.3-2.3,9-2.3,11.2c0.1,4.6,0.5,4.8,0.8,7.8
									c0.5,5.2-0.1,10.4-1.9,15.8c10.7,3.5,17.3,4.7,19.7,3.4c2.4-1.2,4.5-14.1,6.3-38.6l-3.4-14.5H231.2z"/>
								<path id="Path-294" opacity="0.2" fill="#0B4651" enable-background="new    " d="M217.9,207.2c4.4-3.3,7-5.4,8-6.2
									c1.3-1.2,1.8-1.3,1.1-1.5c-1.3-0.3-3.6-1.1-6.8-2.2c-0.7,2.4-1.3,4.2-1.6,5.5C218.4,203.9,218.1,205.4,217.9,207.2z"/>
								
									<g id="Group-24" transform="translate(113.832166, 130.319748) rotate(22.000000) translate(-113.832166, -130.319748) translate(103.832166, 120.319748)">
									<path id="Path-171" opacity="0.2" fill="#0B4651" enable-background="new    " d="M122.4-5.2c0,11.5,2.4,17.2,7.2,17.2
										c7.2,0,11-7.2,11.1-13.5C140.8-5.7,134.7-6.9,122.4-5.2z"/>
									<path id="Path-171-Copy" fill="#FFD7B3" d="M121.7-6c-0.7,11.3,1.3,17,6.1,17c7.2,0,10.1-7.2,10.1-13.4
										C137.9-6.7,132.5-7.8,121.7-6z"/>
								</g>
								<path id="Path-172" fill="#1E1E1E" d="M223,157.9c1.7,3.4,4.3,5.1,7.7,5.1c2,2.3-2.9,6.5-3.7,10.4c-0.9,4.5,4.1,7.5,4.4,9.1
									c11.9-0.1,11.1,17.4,11.2,20.3c0.9,1.1,13.8-7.5,2.9-24.4c-1.3-2,3.9-4.4,3.5-9.6c-0.5-5.6-4.5-5.2-5.2-9.3
									c-1-5.7-3.2-12.2-12.2-12.2C224,147.2,221.1,150.8,223,157.9z"/>
								
									<path id="Path-293" fill="none" stroke="#0B4651" stroke-width="0.8234" stroke-linecap="round" stroke-linejoin="round" d="
									M220.3,197.2c5.8,1.7,9.4,2.7,10.8,3.1C232.4,200.8,228.8,199.7,220.3,197.2z"/>
								<path id="Path-298" fill="#FFD7B3" d="M245.4,134.4c0.5-0.9,0.7-1.6,0.6-2c-0.4-3.3-1.2-5.1-0.6-5.2
									c0.7-0.1,1.4,0.8,2.3,2.9l4.5-7.3c0,2.1-0.1,3.6-0.4,4.4c-0.9,2.4-3,6.7-3.5,7.2C247.5,135.2,246.6,135.2,245.4,134.4z"/>
							</g>
							<g id="Group-50" transform="translate(295.407518, 21.844410)">
								<path id="Path-311" fill="#FFD7B3" d="M138.6,162c4.8,13.2,7.9,23.7,9.3,31.5c-1.4,7.1,2.4,29.6,1,38.5
									c-0.1,0.4,1.9,0.4,5.9,0c8.7,0.3,13.1,0.3,13.1,0c0-5.4-12.9-4.5-12.8-5.4c0.9-21.1,1.4-32.7,1.4-34.8
									c0-2.7-1.7-12.6-5-29.8H138.6z"/>
								<path id="Path-311-Copy" fill="#1E1E1E" d="M149.2,227.1c0,1.9-0.1,3.6-0.3,4.9c-0.1,0.6,19,0.5,19,0
									c0-5.4-12.9-4.5-12.8-5.4L149.2,227.1z"/>
								<path id="Path-310_2_" fill="#212844" d="M110.8,225.2l12.7-23.5l7.8-22.3l4.7-11.7c-9.7-14.7-14.6-20.6-14.7-17.6
									c-0.1,1.2-0.1,2.3-0.2,3.4c-0.4,4.7-1.2,12-2.3,21.8l-1.1,14.5l-15.3,34.6"/>
								<path id="Path-310-Copy_2_" fill="#3E4265" d="M154.3,174.6l-7.1-38.4l-23.8,0.7c-2.5,5.4-3.4,9.9-2.7,13.4
									c0.7,3.5,5.9,10.3,15.6,20.3l4.3,8.8l5.5,13.3l1.7,32.7c0,0,6.6,1.2,8.3-1.1l0.3-33.2L154.3,174.6z"/>
								<polygon id="Path-307" fill="#212844" points="138.2,77.8 153,76.5 155.6,85.6 146.9,88.1 								"/>
								<path id="Path-304" fill="#FFD7B3" d="M156.5,52c-0.8,10.7-2.3,17-4.6,18.9c-2.2,1.9-5.9,2.4-11.2,1.5l1.3,7l-5.3,2.5
									l-4.9-6.7l8.9-25.4L156.5,52z"/>
								<path id="Path-303" fill="#1E1E1E" d="M135.5,67.3c4.8,0,7.7-1.3,8.7-4c1.6-4,0.3-5.6,1.8-7.1c1.4-1.4,1.7,4.6,4.1,4.7
									c3,0.1,3.3-2.5,5.8-5c3-2.3,2.8-2.3,4.8-3.8c2.2-1.6,3.6-2.5,2.3-3.5c-5.9-4.5-20.4-6.7-24.3-3.9c-4.2,1.3-3.9,6.1-4.3,10.8
									C134.1,60.7,132.9,67.8,135.5,67.3z"/>
								<path id="Path-306" fill="#FFD7B3" d="M155.8,100.2l17.1,10c12.4,1.4,20.5,2.7,24.2,4.2c3.7,1.4,7.4,1.9,11.1,1.6l-6.5-3.9
									l4.3-3.1c-1.3-0.5-2.8-0.4-4.1,0.1l-2.9,1.1l-23.4-7.1l-14.7-10.7L155.8,100.2z"/>
								<path id="Path-305" fill="#2C345B" d="M131.8,75.1c8.6,1,15.1,3.2,19.5,6.7c4.4,3.5,8.9,7.5,13.5,12l-7.4,9.4l-8.7-4.1
									c2.1,22,2.4,15.5,1.8,50.3c-5.4,3.5-16.6-0.3-29.7-5c-0.1-23.6,0.6-44,2.3-52.6C124.7,83.1,127.6,77.6,131.8,75.1z"/>
								<path id="Path-309" fill="#FFD7B3" d="M178.3,52.3l6-2.1c-0.5,1.3-1.5,2.4-2.7,3.1c-3.6,1.8-5.1,2.5-4.7,2
									C177.4,54.7,177.9,53.7,178.3,52.3z"/>
							</g>
						</g>
					</g>
				</g>
			</g>
			<g opacity="0.2">
				<path fill="#2C345B" d="M623.2,147.7l-4.6-2.6c-0.6-0.4-1.4-0.1-1.8,0.5l-7.7,13.7c-0.4,0.6-0.1,1.4,0.5,1.8l4.6,2.6
					c0.6,0.4,1.4,0.1,1.8-0.5l7.7-13.7C624.1,148.9,623.9,148.1,623.2,147.7z"/>
				<path fill="#2C345B" d="M610.3,149.5l-4.6-2.6c-0.6-0.4-1.4-0.1-1.8,0.5l-3.8,6.9c-0.4,0.6-0.1,1.4,0.5,1.8l4.6,2.6
					c0.6,0.4,1.4,0.1,1.8-0.5l3.8-6.9C611.1,150.6,610.9,149.8,610.3,149.5z"/>
				<path fill="#2C345B" d="M636.2,146l-4.6-2.6c-0.6-0.4-1.4-0.1-1.8,0.5l-11.5,20.6c-0.4,0.6-0.1,1.4,0.5,1.8l4.6,2.6
					c0.6,0.4,1.4,0.1,1.8-0.5l11.5-20.6C637.1,147.1,636.8,146.3,636.2,146z"/>
				<path fill="#2C345B" d="M650.4,143.4l-4.6-2.6c-0.6-0.4-1.4-0.1-1.8,0.5l-15.9,28.2c-0.4,0.6-0.1,1.4,0.5,1.8l4.6,2.6
					c0.6,0.4,1.4,0.1,1.8-0.5l15.9-28.2C651.2,144.6,651,143.8,650.4,143.4z"/>
			</g>
		</g>
	</g>
	<g>
		<g>
			<ellipse fill="#212844" cx="43.5" cy="377.8" rx="33.2" ry="5.5"/>
		</g>
		<g>
			<linearGradient id="SVGRIDVIG_9_" gradientUnits="userSpaceOnUse" x1="18.501" y1="381.4404" x2="71.7856" y2="381.4404">
				<stop  offset="0" style="stop-color:#EF5350"/>
				<stop  offset="0.1275" style="stop-color:#E44E50"/>
				<stop  offset="0.4243" style="stop-color:#CF4450"/>
				<stop  offset="0.716" style="stop-color:#C23E50"/>
				<stop  offset="0.9946" style="stop-color:#BE3C50"/>
				<stop  offset="1" style="stop-color:#BE3C50"/>
			</linearGradient>
			<path fill="url(#SVGRIDVIG_9_)" d="M71.4,380.9c2.2-0.4-6.4-0.5-8-0.5c-6,0-11.1-0.9-17,0.8c-4.9,1.3-9.7-2.7-14.4-1.2
				c-1.9,0.6-2.7,1.3-4.8,1.6c-2.9,0.3-5.7,0-8.7,0c0,0,3.9,0.7,10.4,1.2C39.3,383.5,56,383.9,71.4,380.9z"/>
		</g>
	</g>
</g>
</svg>
