<?xml version="1.0" encoding="utf-8"?>
<!-- Generator: Adobe Illustrator 16.0.0, SVG Export Plug-In . SVG Version: 6.00 Build 0)  -->
<!DOCTYPE svg PUBLIC "-//W3C//DTD SVG 1.1//EN" "http://www.w3.org/Graphics/SVG/1.1/DTD/svg11.dtd">
<svg version="1.1" id="Layer_1" xmlns="http://www.w3.org/2000/svg" xmlns:xlink="http://www.w3.org/1999/xlink" x="0px" y="0px"
	  viewBox="0 0 1080 470" enable-background="new 0 0 1080 470" xml:space="preserve">
<g>
	
		<linearGradient id="SVGIDSRIN_1_" gradientUnits="userSpaceOnUse" x1="351.8345" y1="-55.8193" x2="427.1343" y2="371.2266" gradientTransform="matrix(1 0 0 -1 144 400)">
		<stop  offset="0" style="stop-color:#FFFFFF;stop-opacity:0.2"/>
		<stop  offset="0.4817" style="stop-color:#9FD8AE;stop-opacity:0.2"/>
		<stop  offset="0.8342" style="stop-color:#60BE79;stop-opacity:0.2"/>
		<stop  offset="1" style="stop-color:#47B464;stop-opacity:0.2"/>
	</linearGradient>
	<path id="greenBg" fill="url(#SVGIDSRIN_1_)" d="M973.2,425.4c99.2-35.1,157.1-236.2,48.8-306.4c-103.9-68.8-210.4,55-306.6,65.7
		c-58,7.6-117.5-48.9-161.8-79.4C495.6,64.1,428.4,3,352.1,6.1c-33.6,3.1-56.5,26-90.1,27.5c-30.5,1.5-42.7-7.6-67.2-19.8
		C146-10.7,80.6,1.5,47,44.2l-9.4,10.7c-56.5,70.2-48.8,190.8,18.3,247.3c36.6,32.1,80.9,24.4,126.7,36.6
		c50.4,12.2,73.3,41.2,113,74.8c34.6,29.1,104.6,0.3,152.8,1.6c70.9,1.8,125.1,17.2,183.2,10.9L973.2,425.4z"/>
</g>
<g>
	<g opacity="0.4">
		<g>
			<g>
				
					<linearGradient id="SVGIDSRIN_2_" gradientUnits="userSpaceOnUse" x1="743.0859" y1="-3.7095" x2="783.446" y2="225.1843" gradientTransform="matrix(1 0 0 -1 144 400)">
					<stop  offset="0" style="stop-color:#000000;stop-opacity:0.6"/>
					<stop  offset="2.127981e-002" style="stop-color:#000000;stop-opacity:0.5872"/>
					<stop  offset="1" style="stop-color:#000000;stop-opacity:0"/>
				</linearGradient>
				<path fill="url(#SVGIDSRIN_2_)" d="M946.9,199.7c-2.3-5.5-5.7-10.4-9.9-14.7c-4.2-4.2-9.2-7.6-14.7-9.9c-4.4-1.9-9.1-3-13.9-3.5
					c-1.4-0.1-2.7-0.2-4.1-0.2c-1.4,0-2.7,0.1-4.1,0.2c-4.8,0.4-9.5,1.6-13.9,3.5c-5.5,2.3-10.4,5.7-14.7,9.9
					c-4.2,4.2-7.6,9.2-9.9,14.7c-2.4,5.7-3.6,11.8-3.6,18v180.9h42.1h8.2h42.1v-181C950.5,211.4,949.3,205.4,946.9,199.7z
					 M900.2,317.4h-33.9v-28.8h33.9V317.4z M900.2,280.4h-33.9v-32.7h33.9V280.4z M900.2,239.5h-33.9v-21.9
					c0-19.6,14.9-35.8,33.9-37.8V239.5z M942.3,317.4h-33.9v-28.8h33.9V317.4z M942.3,280.4h-33.9v-32.7h33.9V280.4z M942.3,239.5
					h-33.9v-59.7c19.1,2.1,33.9,18.2,33.9,37.8V239.5z"/>
			</g>
		</g>
	</g>
	
		<linearGradient id="SVGIDSRIN_3_" gradientUnits="userSpaceOnUse" x1="796.7891" y1="76.6045" x2="800.6357" y2="73.3768" gradientTransform="matrix(1 0 0 -1 144 400)">
		<stop  offset="0" style="stop-color:#000000;stop-opacity:0.2"/>
		<stop  offset="2.127981e-002" style="stop-color:#000000;stop-opacity:0.1957"/>
		<stop  offset="1" style="stop-color:#000000;stop-opacity:0"/>
	</linearGradient>
	<circle fill="url(#SVGIDSRIN_3_)" cx="942.7" cy="325" r="2.5"/>
</g>
<g id="surface_3_" opacity="0.3">
	<g>
		<g opacity="0.5">
			<path opacity="0.5" fill="#5D5D5D" enable-background="new    " d="M521,402.3c-22.4,1-48-0.2-69.2,3.6
				c-8.3,1.4-27.9,0.7-32.6,4.4c5.9,1.5,16.1,1.5,22.8,2c7.5,0.5,13.8,1.7,20.8,2.7c43.6,6.8,95.1,5.1,140.3,5.1
				c64.6,0,89.9,4.5,112.2,4.8c24,0.2,43.5-6.3,66.3-8.2c16.9-1.2,22-3.9,38.9-4c9.4,0,138.7-2.1,147.3-3.7
				c13.7-1.5,49.2-6.6,19.1-6.6c-4.9,0-39.5-2.7-78.5-3c-52.3-0.5-112.5,1.2-119,0.4c-9.4-1.2-19.3-1.2-29.1-1.4
				c-5.5,0-10.6,0.2-15.7,0.2c-22.1,0.2-192.5,4.7-206.1,3.9L521,402.3z"/>
		</g>
		<g>
			<path opacity="0.5" fill="#5D5D5D" enable-background="new    " d="M339.4,399c-24.5,1.1-119.1,0.9-153.1,0.1
				c-5,0.8-45.9-0.5-55.5,0.1c-6.5,0.4,30.9,5.7,56.6,9.3c11.9-0.1,58.2,1,65.5,1.5c8.2,0.6,15,1.9,22.8,3
				c47.7,7.4,107.6,14.9,157,14.9c35.3,0,56.9-6.7,91.8-6.3c26.2,0.2,57.8-10.3,82.8-12.3c18.5-1.3,36.6-1.1,55-1.3
				c10.3,0,30.4,2.2,39.8,0.5c15-1.6,94.3-8.5,61.4-8.5c-12.6,0-118-2.1-130.5-3.8c-10.3-1.3-21.1-1.3-31.8-1.5
				c-6,0-11.6,0.2-17.2,0.2c-19.3,0.2-206.6,5.3-225.5,4.2L339.4,399z"/>
		</g>
	</g>
</g>
<g id="library">
	<g>
	<rect x="330.9" y="45.8" fill="#2D4466" width="40.7" height="25.9"/>
	<g enable-background="new    ">
		<path fill="#FFFFFF" d="M344.1,60.9v1.6h-5.7l0-1.1l2.7-2.8c0.4-0.4,0.7-0.8,0.9-1.1c0.2-0.3,0.3-0.6,0.3-0.9c0-0.2,0-0.4-0.1-0.6
			s-0.2-0.3-0.4-0.4c-0.2-0.1-0.4-0.2-0.6-0.2c-0.6,0-1.1,0.3-1.5,0.9l-1.2-0.9c0.3-0.5,0.7-0.9,1.1-1.2s1.1-0.4,1.7-0.4
			c0.4,0,0.7,0.1,1,0.2c0.3,0.1,0.6,0.3,0.9,0.5s0.5,0.5,0.6,0.8c0.1,0.3,0.2,0.7,0.2,1.1c0,0.5-0.1,1-0.3,1.4s-0.6,0.9-1.1,1.5
			l-1.6,1.7v0H344.1z"/>
	</g>
	<g enable-background="new    ">
		<path fill="#FFFFFF" d="M347.3,62.3c-0.4-0.2-0.8-0.5-1.1-0.9s-0.5-0.8-0.7-1.4c-0.2-0.6-0.2-1.2-0.2-1.9c0-0.7,0.1-1.3,0.2-1.8
			c0.2-0.5,0.4-1,0.7-1.4c0.3-0.4,0.6-0.7,1.1-0.9c0.4-0.2,0.9-0.3,1.4-0.3c0.5,0,1,0.1,1.4,0.3c0.4,0.2,0.8,0.5,1.1,0.9
			s0.5,0.8,0.7,1.4c0.2,0.6,0.2,1.2,0.2,1.9c0,0.9-0.1,1.7-0.4,2.3s-0.7,1.2-1.2,1.6s-1.1,0.6-1.8,0.6
			C348.2,62.6,347.7,62.5,347.3,62.3z M349.9,60.3c0.3-0.5,0.4-1.2,0.4-2.1c0-0.9-0.1-1.6-0.4-2.1c-0.3-0.5-0.7-0.8-1.2-0.8
			c-0.5,0-0.9,0.2-1.2,0.7c-0.3,0.5-0.4,1.2-0.4,2.1c0,0.6,0.1,1.1,0.2,1.5s0.3,0.8,0.6,1s0.5,0.3,0.9,0.3
			C349.2,61,349.6,60.8,349.9,60.3z"/>
	</g>
	<g enable-background="new    ">
		<path fill="#FFFFFF" d="M355,55.9l-1.5,1.1l-0.8-1.3l2.6-1.9h1.4v8.7H355V55.9z"/>
	</g>
	<g enable-background="new    ">
		<path fill="#FFFFFF" d="M361.7,61.1H358V60l4-6.2h1.4v5.8h1.2v1.5h-1.2v1.4h-1.7V61.1z M361.8,59.7v-3.1l-1.9,3.1H361.8z"/>
	</g>
</g>
<g>
	<rect x="466.9" y="45.8" fill="#2D4466" width="40.7" height="25.9"/>
	<g enable-background="new    ">
		<path fill="#FFFFFF" d="M480.1,60.9v1.6h-5.7l0-1.1l2.7-2.8c0.4-0.4,0.7-0.8,0.9-1.1c0.2-0.3,0.3-0.6,0.3-0.9c0-0.2,0-0.4-0.1-0.6
			s-0.2-0.3-0.4-0.4c-0.2-0.1-0.4-0.2-0.6-0.2c-0.6,0-1.1,0.3-1.5,0.9l-1.2-0.9c0.3-0.5,0.7-0.9,1.1-1.2s1.1-0.4,1.7-0.4
			c0.4,0,0.7,0.1,1,0.2c0.3,0.1,0.6,0.3,0.9,0.5s0.5,0.5,0.6,0.8c0.1,0.3,0.2,0.7,0.2,1.1c0,0.5-0.1,1-0.3,1.4s-0.6,0.9-1.1,1.5
			l-1.6,1.7v0H480.1z"/>
	</g>
	<g enable-background="new    ">
		<path fill="#FFFFFF" d="M483.3,62.3c-0.4-0.2-0.8-0.5-1.1-0.9s-0.5-0.8-0.7-1.4c-0.2-0.6-0.2-1.2-0.2-1.9c0-0.7,0.1-1.3,0.2-1.8
			c0.2-0.5,0.4-1,0.7-1.4c0.3-0.4,0.6-0.7,1.1-0.9c0.4-0.2,0.9-0.3,1.4-0.3c0.5,0,1,0.1,1.4,0.3c0.4,0.2,0.8,0.5,1.1,0.9
			s0.5,0.8,0.7,1.4c0.2,0.6,0.2,1.2,0.2,1.9c0,0.9-0.1,1.7-0.4,2.3s-0.7,1.2-1.2,1.6s-1.1,0.6-1.8,0.6
			C484.2,62.6,483.7,62.5,483.3,62.3z M485.9,60.3c0.3-0.5,0.4-1.2,0.4-2.1c0-0.9-0.1-1.6-0.4-2.1c-0.3-0.5-0.7-0.8-1.2-0.8
			c-0.5,0-0.9,0.2-1.2,0.7c-0.3,0.5-0.4,1.2-0.4,2.1c0,0.6,0.1,1.1,0.2,1.5s0.3,0.8,0.6,1s0.5,0.3,0.9,0.3
			C485.2,61,485.6,60.8,485.9,60.3z"/>
	</g>
	<g enable-background="new    ">
		<path fill="#FFFFFF" d="M491,55.9l-1.5,1.1l-0.8-1.3l2.6-1.9h1.4v8.7H491V55.9z"/>
		<path fill="#FFFFFF" d="M498.4,57c0.3,0.1,0.5,0.2,0.7,0.4s0.4,0.4,0.6,0.6c0.2,0.2,0.3,0.5,0.4,0.8c0.1,0.3,0.1,0.6,0.1,0.9
			c0,0.6-0.1,1.1-0.4,1.5c-0.3,0.4-0.6,0.8-1.1,1c-0.5,0.2-1,0.4-1.6,0.4c-0.6,0-1.2-0.1-1.7-0.3c-0.5-0.2-1-0.6-1.3-1l1.2-1
			c0.4,0.5,1,0.8,1.7,0.8c0.4,0,0.8-0.1,1-0.4s0.4-0.6,0.4-1c0-0.2,0-0.4-0.1-0.6s-0.2-0.3-0.3-0.4c-0.1-0.1-0.3-0.2-0.5-0.3
			s-0.4-0.1-0.5-0.1c-0.5,0-0.9,0.1-1.3,0.4l-0.9-0.3l0.3-4.6h4.7v1.6h-3.2l-0.1,1.7c0.4-0.1,0.8-0.2,1.1-0.2
			C497.8,56.9,498.1,57,498.4,57z"/>
	</g>
</g>
<g>
	<rect x="606.9" y="45.8" fill="#2D4466" width="40.7" height="25.9"/>
	<g enable-background="new    ">
		<path fill="#FFFFFF" d="M620.1,60.9v1.6h-5.7l0-1.1l2.7-2.8c0.4-0.4,0.7-0.8,0.9-1.1c0.2-0.3,0.3-0.6,0.3-0.9c0-0.2,0-0.4-0.1-0.6
			s-0.2-0.3-0.4-0.4c-0.2-0.1-0.4-0.2-0.6-0.2c-0.6,0-1.1,0.3-1.5,0.9l-1.2-0.9c0.3-0.5,0.7-0.9,1.1-1.2s1.1-0.4,1.7-0.4
			c0.4,0,0.7,0.1,1,0.2c0.3,0.1,0.6,0.3,0.9,0.5s0.5,0.5,0.6,0.8c0.2,0.3,0.2,0.7,0.2,1.1c0,0.5-0.1,1-0.3,1.4
			c-0.2,0.4-0.6,0.9-1.1,1.5l-1.6,1.7v0H620.1z"/>
	</g>
	<g enable-background="new    ">
		<path fill="#FFFFFF" d="M623.3,62.3c-0.4-0.2-0.8-0.5-1.1-0.9s-0.5-0.8-0.7-1.4c-0.2-0.6-0.2-1.2-0.2-1.9c0-0.7,0.1-1.3,0.2-1.8
			c0.2-0.5,0.4-1,0.7-1.4c0.3-0.4,0.6-0.7,1.1-0.9c0.4-0.2,0.9-0.3,1.4-0.3c0.5,0,1,0.1,1.4,0.3c0.4,0.2,0.8,0.5,1.1,0.9
			s0.5,0.8,0.7,1.4c0.2,0.6,0.2,1.2,0.2,1.9c0,0.9-0.1,1.7-0.4,2.3s-0.7,1.2-1.2,1.6s-1.1,0.6-1.8,0.6
			C624.2,62.6,623.7,62.5,623.3,62.3z M625.9,60.3c0.3-0.5,0.4-1.2,0.4-2.1c0-0.9-0.1-1.6-0.4-2.1c-0.3-0.5-0.7-0.8-1.2-0.8
			c-0.5,0-0.9,0.2-1.2,0.7c-0.3,0.5-0.4,1.2-0.4,2.1c0,0.6,0.1,1.1,0.2,1.5c0.1,0.4,0.3,0.8,0.6,1s0.5,0.3,0.9,0.3
			C625.2,61,625.6,60.8,625.9,60.3z"/>
	</g>
	<g enable-background="new    ">
		<path fill="#FFFFFF" d="M631,55.9l-1.5,1.1l-0.8-1.3l2.6-1.9h1.4v8.7H631V55.9z"/>
		<path fill="#FFFFFF" d="M639,57.1c0.3,0.1,0.6,0.3,0.8,0.5s0.4,0.5,0.6,0.9c0.1,0.4,0.2,0.8,0.2,1.2c0,0.6-0.1,1.1-0.4,1.5
			c-0.3,0.4-0.6,0.8-1.1,1s-1,0.4-1.6,0.4c-0.4,0-0.9-0.1-1.2-0.3c-0.4-0.2-0.7-0.4-1-0.7s-0.5-0.7-0.7-1.1s-0.2-0.9-0.2-1.4
			c0-0.7,0.1-1.4,0.3-2c0.2-0.6,0.5-1.2,0.9-1.7c0.4-0.5,0.9-0.9,1.5-1.2c0.6-0.3,1.2-0.6,1.9-0.7l0.5,1.4c-0.8,0.2-1.5,0.5-2,0.9
			s-0.9,0.9-1.1,1.5l0,0c0.5-0.3,1-0.4,1.6-0.4C638.3,56.9,638.7,57,639,57.1z M638.6,60.7c0.3-0.3,0.4-0.6,0.4-1
			c0-0.4-0.1-0.7-0.4-0.9c-0.3-0.2-0.6-0.4-1-0.4c-0.3,0-0.6,0.1-0.8,0.2c-0.3,0.1-0.5,0.3-0.7,0.6v0.1c0,0.5,0.1,1,0.4,1.3
			s0.7,0.5,1.1,0.5C637.9,61.1,638.3,60.9,638.6,60.7z"/>
	</g>
</g>
<g>
	<rect x="746.9" y="45.8" fill="#2D4466" width="40.7" height="25.9"/>
	<g enable-background="new    ">
		<path fill="#FFFFFF" d="M760.1,60.9v1.6h-5.7l0-1.1l2.7-2.8c0.4-0.4,0.7-0.8,0.9-1.1c0.2-0.3,0.3-0.6,0.3-0.9c0-0.2,0-0.4-0.1-0.6
			s-0.2-0.3-0.4-0.4c-0.2-0.1-0.4-0.2-0.6-0.2c-0.6,0-1.1,0.3-1.5,0.9l-1.2-0.9c0.3-0.5,0.7-0.9,1.1-1.2s1.1-0.4,1.7-0.4
			c0.4,0,0.7,0.1,1,0.2c0.3,0.1,0.6,0.3,0.9,0.5s0.5,0.5,0.6,0.8c0.2,0.3,0.2,0.7,0.2,1.1c0,0.5-0.1,1-0.3,1.4
			c-0.2,0.4-0.6,0.9-1.1,1.5l-1.6,1.7v0H760.1z"/>
	</g>
	<g enable-background="new    ">
		<path fill="#FFFFFF" d="M763.3,62.3c-0.4-0.2-0.8-0.5-1.1-0.9s-0.5-0.8-0.7-1.4c-0.2-0.6-0.2-1.2-0.2-1.9c0-0.7,0.1-1.3,0.2-1.8
			c0.2-0.5,0.4-1,0.7-1.4c0.3-0.4,0.6-0.7,1.1-0.9c0.4-0.2,0.9-0.3,1.4-0.3c0.5,0,1,0.1,1.4,0.3c0.4,0.2,0.8,0.5,1.1,0.9
			s0.5,0.8,0.7,1.4c0.2,0.6,0.2,1.2,0.2,1.9c0,0.9-0.1,1.7-0.4,2.3s-0.7,1.2-1.2,1.6s-1.1,0.6-1.8,0.6
			C764.2,62.6,763.7,62.5,763.3,62.3z M765.9,60.3c0.3-0.5,0.4-1.2,0.4-2.1c0-0.9-0.1-1.6-0.4-2.1c-0.3-0.5-0.7-0.8-1.2-0.8
			c-0.5,0-0.9,0.2-1.2,0.7c-0.3,0.5-0.4,1.2-0.4,2.1c0,0.6,0.1,1.1,0.2,1.5c0.1,0.4,0.3,0.8,0.6,1s0.5,0.3,0.9,0.3
			C765.2,61,765.6,60.8,765.9,60.3z"/>
	</g>
	<g enable-background="new    ">
		<path fill="#FFFFFF" d="M771,55.9l-1.5,1.1l-0.8-1.3l2.6-1.9h1.4v8.7H771V55.9z"/>
		<path fill="#FFFFFF" d="M779.5,53.8V55l-3,7.7l-1.7-0.3l2.8-7h-3.5v-1.5H779.5z"/>
	</g>
</g>
	<rect x="282.3" y="64.8" fill="#DD5454" width="563.9" height="334.1"/>
	<g>
		<rect x="288.1" y="71.4" fill="#8E163E" width="121.2" height="47.4"/>
		<rect x="288.1" y="125.8" fill="#8E163E" width="121.2" height="49.8"/>
		<rect x="288.1" y="181.4" fill="#8E163E" width="121.2" height="49.2"/>
		<rect x="288.1" y="236.3" fill="#8E163E" width="121.2" height="54.8"/>
		<rect x="288.1" y="296.7" fill="#8E163E" width="121.2" height="54.8"/>
		<rect x="288.1" y="356.5" fill="#8E163E" width="121.2" height="36.3"/>
		<rect x="414.6" y="71.4" fill="#8E163E" width="146.8" height="47.4"/>
		<rect x="414.4" y="125.8" fill="#8E163E" width="146.8" height="49.8"/>
		<rect x="414.4" y="181.4" fill="#8E163E" width="146.8" height="49.2"/>
		<rect x="414.4" y="236.3" fill="#8E163E" width="146.8" height="54.8"/>
		<rect x="414.4" y="296.7" fill="#8E163E" width="146.8" height="54.8"/>
		<rect x="414.4" y="356.5" fill="#8E163E" width="146.8" height="36.3"/>
		<rect x="566.7" y="71.4" fill="#8E163E" width="121.2" height="47.4"/>
		<rect x="566.9" y="125.8" fill="#8E163E" width="121.2" height="49.8"/>
		<rect x="566.9" y="181.4" fill="#8E163E" width="121.2" height="49.2"/>
		<rect x="566.9" y="236.3" fill="#8E163E" width="121.2" height="54.8"/>
		<rect x="566.9" y="296.7" fill="#8E163E" width="121.2" height="54.8"/>
		<rect x="566.9" y="356.5" fill="#8E163E" width="121.2" height="36.3"/>
		<rect x="693.1" y="71.4" fill="#8E163E" width="146.8" height="47.4"/>
		<rect x="693.1" y="125.8" fill="#8E163E" width="146.8" height="49.8"/>
		<rect x="693.1" y="181.4" fill="#8E163E" width="146.8" height="49.2"/>
		<rect x="693.1" y="236.3" fill="#8E163E" width="146.8" height="54.8"/>
		<rect x="693.1" y="296.7" fill="#8E163E" width="146.8" height="54.8"/>
		<rect x="693.1" y="356.5" fill="#8E163E" width="146.8" height="36.3"/>
	</g>
	<g opacity="0.8">
		<rect x="306" y="92" fill="#EF5350" width="6.5" height="24.1"/>
		<rect x="297" y="81.8" fill="#EF5350" width="8.1" height="34.3"/>
		<rect x="289.1" y="85.9" fill="#EF5350" width="6.8" height="30.2"/>
		<rect x="313.7" y="80.9" fill="#EF5350" width="7.6" height="35.2"/>
		<rect x="304.3" y="251.5" fill="#EF5350" width="10.1" height="37.5"/>
		<rect x="290.2" y="254.7" fill="#EF5350" width="12.6" height="34.3"/>
		<rect x="316.2" y="253.8" fill="#EF5350" width="11.8" height="35.2"/>
		<rect x="345.5" y="93" fill="#EF5350" width="27.2" height="6"/>
		<rect x="338.1" y="99.8" fill="#EF5350" width="32.1" height="6.7"/>
		<rect x="336.5" y="108.4" fill="#EF5350" width="37.1" height="7.7"/>
		<rect x="375.7" y="77.3" fill="#EF5350" width="12.3" height="38.8"/>
		<rect x="322.7" y="77.3" fill="#EF5350" width="12.3" height="38.8"/>
		<rect x="391" y="81.2" fill="#EF5350" width="8.9" height="34.9"/>
		<rect x="402" y="84.3" fill="#EF5350" width="5.4" height="31.8"/>
		<rect x="756.9" y="92.3" fill="#EF5350" width="27.2" height="6"/>
		<rect x="748.7" y="99.6" fill="#EF5350" width="32.1" height="6.7"/>
		<rect x="751.6" y="110.6" fill="#EF5350" width="32.1" height="6.7"/>
		<rect x="786.4" y="78.5" fill="#EF5350" width="12.3" height="38.8"/>
		<rect x="465.2" y="134.9" fill="#EF5350" width="6.5" height="37.5"/>
		<rect x="455.8" y="138.1" fill="#EF5350" width="8.1" height="34.3"/>
		<rect x="472.5" y="137.2" fill="#EF5350" width="7.6" height="35.2"/>
		<rect x="481.5" y="133.6" fill="#EF5350" width="12.3" height="38.8"/>
		<rect x="425" y="135.3" fill="#EF5350" width="6.5" height="37.5"/>
		<rect x="416.9" y="138.5" fill="#EF5350" width="8.1" height="34.3"/>
		<rect x="433.5" y="137.6" fill="#EF5350" width="7.6" height="35.2"/>
		<rect x="442.5" y="134" fill="#EF5350" width="12.3" height="38.8"/>
		<rect x="801.6" y="82.4" fill="#EF5350" width="8.9" height="34.9"/>
		<rect x="812.7" y="85.5" fill="#EF5350" width="5.4" height="31.8"/>
		<rect x="592" y="141" fill="#EF5350" width="8.4" height="32.1"/>
		<rect x="582.2" y="141" fill="#EF5350" width="8.4" height="32.1"/>
		<rect x="620.1" y="132.5" fill="#EF5350" width="12.3" height="38.8"/>
		<rect x="569" y="134.7" fill="#EF5350" width="12.3" height="38.8"/>
		<rect x="635.3" y="136.4" fill="#EF5350" width="8.9" height="34.9"/>
		<rect x="539.4" y="134.7" fill="#EF5350" width="9.8" height="38.8"/>
		<rect x="551.5" y="138.6" fill="#EF5350" width="7.1" height="34.9"/>
		<rect x="646.4" y="139.5" fill="#EF5350" width="5.4" height="31.8"/>
		<rect x="602.4" y="137.6" fill="#EF5350" width="8.9" height="34.9"/>
		<rect x="613.5" y="140.7" fill="#EF5350" width="5.4" height="31.8"/>
		<rect x="496.9" y="134" fill="#EF5350" width="12.3" height="38.8"/>
		<rect x="512.1" y="137.9" fill="#EF5350" width="8.9" height="34.9"/>
		<rect x="523.2" y="141" fill="#EF5350" width="5.4" height="31.8"/>
		<rect x="314.7" y="139.4" fill="#EF5350" width="12.7" height="33.6"/>
		<rect x="328.2" y="133.2" fill="#EF5350" width="14" height="39.9"/>
		<rect x="343.3" y="133.8" fill="#EF5350" width="5.6" height="39.3"/>
		<rect x="350.4" y="140" fill="#EF5350" width="15.2" height="33.1"/>
		<rect x="367.4" y="137" fill="#EF5350" width="11.4" height="36"/>
		<rect x="380.5" y="141.9" fill="#EF5350" width="9.8" height="31.2"/>
		<rect x="397.6" y="141.9" fill="#EF5350" width="9.8" height="31.2"/>
		<rect x="391.4" y="136.9" fill="#EF5350" width="5.3" height="36.1"/>
		<rect x="301.2" y="136.1" fill="#EF5350" width="12.1" height="37"/>
		<rect x="290" y="144" fill="#EF5350" width="9.5" height="29"/>
		<rect x="317.7" y="312.1" fill="#EF5350" width="13.7" height="36.7"/>
		<rect x="333.6" y="303" fill="#EF5350" width="15" height="45.8"/>
		<rect x="350.6" y="305.9" fill="#EF5350" width="6" height="42.9"/>
		<rect x="358.2" y="312.7" fill="#EF5350" width="16.4" height="36.1"/>
		<rect x="376.5" y="309.5" fill="#EF5350" width="12.3" height="39.3"/>
		<rect x="390.6" y="314.6" fill="#EF5350" width="10.6" height="34.2"/>
		<rect x="402.7" y="309.4" fill="#EF5350" width="4.7" height="39.4"/>
		<rect x="303.4" y="308.5" fill="#EF5350" width="13" height="40.3"/>
		<rect x="292" y="317.1" fill="#EF5350" width="10.3" height="31.7"/>
		<rect x="361.5" y="252.3" fill="#EF5350" width="12.2" height="36.7"/>
		<rect x="348.1" y="245.5" fill="#EF5350" width="12" height="43.5"/>
		<rect x="374.7" y="248.6" fill="#EF5350" width="11.6" height="40.4"/>
		<rect x="387.7" y="257.3" fill="#EF5350" width="9.1" height="31.7"/>
		<rect x="291.6" y="192.8" fill="#EF5350" width="5.2" height="34.9"/>
		<rect x="297.4" y="188.4" fill="#EF5350" width="6.4" height="39.3"/>
		<rect x="305.5" y="193.5" fill="#EF5350" width="7.9" height="34.2"/>
		<rect x="315" y="189.7" fill="#EF5350" width="12.4" height="38"/>
		<rect x="329" y="191.1" fill="#EF5350" width="14.3" height="36.6"/>
		<rect x="347.1" y="190.6" fill="#EF5350" width="8.8" height="37.1"/>
		<rect x="398.3" y="251.9" fill="#EF5350" width="8.8" height="37.1"/>
		<rect x="358.1" y="195.8" fill="#EF5350" width="14.2" height="31.9"/>
		<rect x="375.5" y="193.5" fill="#EF5350" width="12.5" height="34.2"/>
		<rect x="391" y="192.6" fill="#EF5350" width="8.2" height="35.1"/>
		<rect x="402.2" y="195.8" fill="#EF5350" width="5.6" height="31.9"/>
		<rect x="329.7" y="248.2" fill="#EF5350" width="5.3" height="40.8"/>
		<rect x="337.3" y="256.7" fill="#EF5350" width="9.5" height="32.3"/>
		<rect x="422.4" y="76.6" fill="#EF5350" width="6.9" height="38.5"/>
		<rect x="429.7" y="79.2" fill="#EF5350" width="9.9" height="35.9"/>
		<rect x="441.3" y="86.3" fill="#EF5350" width="12.1" height="28.2"/>
		<rect x="454.9" y="76.7" fill="#EF5350" width="7.3" height="37.7"/>
		<rect x="463.8" y="80.4" fill="#EF5350" width="7.6" height="33.9"/>
		<rect x="473" y="82.7" fill="#EF5350" width="10.4" height="32"/>
		<rect x="485.2" y="78.6" fill="#EF5350" width="12.7" height="36.1"/>
		<rect x="499.5" y="78.9" fill="#EF5350" width="9.1" height="36.2"/>
		<rect x="511.1" y="81.5" fill="#EF5350" width="12.8" height="33"/>
		<rect x="527.8" y="82.7" fill="#EF5350" width="10.3" height="32.2"/>
		<g>
			<rect x="677.5" y="189.4" fill="#EF5350" width="6.9" height="38.5"/>
			<rect x="667.3" y="192" fill="#EF5350" width="9.9" height="35.9"/>
			<rect x="653.5" y="199.2" fill="#EF5350" width="12.1" height="28.2"/>
			<rect x="644.6" y="189.6" fill="#EF5350" width="7.3" height="37.7"/>
			<rect x="635.4" y="193.2" fill="#EF5350" width="7.6" height="33.9"/>
			<rect x="623.5" y="195.5" fill="#EF5350" width="10.4" height="32"/>
			<rect x="609" y="191.4" fill="#EF5350" width="12.7" height="36.1"/>
			<rect x="598.3" y="191.8" fill="#EF5350" width="9.1" height="36.2"/>
			<rect x="582.2" y="194.4" fill="#EF5350" width="12.8" height="33"/>
			<rect x="568.8" y="195.6" fill="#EF5350" width="10.3" height="32.2"/>
		</g>
		<rect x="541.9" y="78.7" fill="#EF5350" width="15.1" height="36.1"/>
		<rect x="571.3" y="77.9" fill="#EF5350" width="3.8" height="38.1"/>
		<rect x="577" y="80.4" fill="#EF5350" width="7.8" height="35.6"/>
		<rect x="586.9" y="77.1" fill="#EF5350" width="11.4" height="38.6"/>
		<rect x="599.9" y="82.9" fill="#EF5350" width="16" height="32.9"/>
		<rect x="618.2" y="78.9" fill="#EF5350" width="9.4" height="36.3"/>
		<rect x="630" y="83" fill="#EF5350" width="14.8" height="32"/>
		<rect x="646.4" y="78.9" fill="#EF5350" width="13.4" height="36.4"/>
		<rect x="661.6" y="80.6" fill="#EF5350" width="8.9" height="35"/>
		<polygon fill="#EF5350" points="682.9,115.2 675.1,114.9 676.1,82.9 683.8,83.2 		"/>
		<rect x="695.5" y="81.7" fill="#EF5350" width="13.3" height="35.6"/>
		<rect x="710.7" y="76.1" fill="#EF5350" width="5.6" height="41.2"/>
		<rect x="821.1" y="76.1" fill="#EF5350" width="5.6" height="41.2"/>
		<rect x="718.9" y="80.1" fill="#EF5350" width="7.2" height="37.2"/>
		<rect x="728.8" y="86.1" fill="#EF5350" width="6.9" height="31.2"/>
		<rect x="829.4" y="86.1" fill="#EF5350" width="6.9" height="31.2"/>
		<polygon fill="#EF5350" points="749.2,116.4 741.4,117.6 736.9,87.8 744.7,86.6 		"/>
		<rect x="516.7" y="205" fill="#EF5350" width="8.5" height="21.8"/>
		<rect x="526.7" y="193.1" fill="#EF5350" width="14.7" height="33.7"/>
		<rect x="767.3" y="151.7" fill="#EF5350" width="8.5" height="21.8"/>
		<rect x="777.3" y="139.9" fill="#EF5350" width="14.7" height="33.7"/>
		
			<rect x="795" y="150.8" transform="matrix(-0.9911 -0.1331 0.1331 -0.9911 1567.5529 425.2494)" fill="#EF5350" width="6" height="18.8"/>
		<rect x="543.1" y="201.7" fill="#EF5350" width="6.3" height="25.1"/>
		<rect x="550.8" y="193.6" fill="#EF5350" width="6.3" height="33.2"/>
		<rect x="695.7" y="138.4" fill="#EF5350" width="10.8" height="35.1"/>
		<rect x="707.5" y="141.3" fill="#EF5350" width="8.9" height="31.1"/>
		<rect x="718.4" y="136.5" fill="#EF5350" width="11.1" height="36.4"/>
		<rect x="726.3" y="191.7" fill="#EF5350" width="11.1" height="36.4"/>
		<rect x="730.7" y="142" fill="#EF5350" width="8.2" height="30.5"/>
		<rect x="694.9" y="248.7" fill="#EF5350" width="7.8" height="40.3"/>
		<rect x="704.1" y="244.9" fill="#EF5350" width="10.3" height="44.1"/>
		<rect x="715.8" y="253.4" fill="#EF5350" width="8.9" height="35.6"/>
		<rect x="726.8" y="249.4" fill="#EF5350" width="12.1" height="39.5"/>
		<rect x="697.9" y="309.7" fill="#EF5350" width="12.1" height="39.5"/>
		<rect x="740.9" y="256" fill="#EF5350" width="14.3" height="33"/>
		<rect x="756.8" y="246.1" fill="#EF5350" width="16.9" height="42.9"/>
		<rect x="775.1" y="249.2" fill="#EF5350" width="9.7" height="39.8"/>
		<rect x="786.3" y="248.7" fill="#EF5350" width="11" height="40.3"/>
		<rect x="799.2" y="254.5" fill="#EF5350" width="10.8" height="34.5"/>
		<rect x="811.9" y="248.9" fill="#EF5350" width="14" height="40"/>
		<rect x="827.7" y="252.8" fill="#EF5350" width="8.1" height="36.2"/>
		<rect x="803.4" y="139.1" fill="#EF5350" width="10.4" height="32.2"/>
		<rect x="815.7" y="144.9" fill="#EF5350" width="7.6" height="27.6"/>
		<rect x="825.9" y="139.7" fill="#EF5350" width="10.2" height="33.2"/>
		<rect x="486.4" y="255.2" fill="#EF5350" width="14.9" height="31.3"/>
		<rect x="504" y="249.6" fill="#EF5350" width="11.7" height="36.9"/>
		<rect x="518.4" y="249.8" fill="#EF5350" width="8.4" height="36.7"/>
		<rect x="512.9" y="311.8" fill="#EF5350" width="13.1" height="36.7"/>
		<rect x="510.2" y="360.5" fill="#EF5350" width="13.1" height="30.6"/>
		<polygon fill="#EF5350" points="538.1,286.5 532.8,286.2 534.2,254.8 539.5,255 		"/>
		<rect x="542.6" y="251.2" fill="#EF5350" width="14" height="35.3"/>
		<rect x="629.5" y="252.1" fill="#EF5350" width="14" height="35.3"/>
		<rect x="417.6" y="320.4" fill="#EF5350" width="10.8" height="28.1"/>
		<rect x="429.8" y="311.6" fill="#EF5350" width="11.7" height="36.9"/>
		<rect x="442.6" y="320.3" fill="#EF5350" width="4.6" height="28.2"/>
		<rect x="450.1" y="310" fill="#EF5350" width="5.3" height="38.4"/>
		<rect x="457.5" y="307.4" fill="#EF5350" width="12.2" height="41"/>
		<rect x="473.4" y="311.1" fill="#EF5350" width="5.9" height="37.4"/>
		<rect x="481.8" y="312.8" fill="#EF5350" width="9.9" height="35.7"/>
		<rect x="494.6" y="307.9" fill="#EF5350" width="6.4" height="40.6"/>
		<rect x="503.7" y="314.2" fill="#EF5350" width="6.1" height="34.3"/>
		<rect x="528.3" y="318.7" fill="#EF5350" width="12.1" height="29.8"/>
		<rect x="542.2" y="308.2" fill="#EF5350" width="13.7" height="40.3"/>
		<g>
			<rect x="825.6" y="200.5" fill="#EF5350" width="10.8" height="28.1"/>
			<rect x="811.8" y="191.6" fill="#EF5350" width="11.7" height="36.9"/>
			<rect x="804.8" y="200.3" fill="#EF5350" width="4.6" height="28.2"/>
			<rect x="796.6" y="190.1" fill="#EF5350" width="5.3" height="38.4"/>
			<rect x="782.3" y="187.5" fill="#EF5350" width="12.2" height="41"/>
			<rect x="772.7" y="191.2" fill="#EF5350" width="5.9" height="37.4"/>
			<rect x="760.3" y="192.8" fill="#EF5350" width="9.9" height="35.7"/>
			<rect x="751" y="187.9" fill="#EF5350" width="6.4" height="40.6"/>
			<rect x="742.2" y="194.2" fill="#EF5350" width="6.1" height="34.3"/>
			<rect x="711.7" y="193.7" fill="#EF5350" width="12" height="34.8"/>
			<rect x="696.1" y="188.3" fill="#EF5350" width="13.7" height="40.3"/>
		</g>
		<rect x="571.3" y="250" fill="#EF5350" width="6.4" height="37.6"/>
		<rect x="579.9" y="253" fill="#EF5350" width="7.8" height="34.6"/>
		<rect x="654.7" y="133.9" fill="#EF5350" width="6.4" height="37.6"/>
		<rect x="531.5" y="135.4" fill="#EF5350" width="6.4" height="37.6"/>
		<rect x="663.3" y="137.3" fill="#EF5350" width="7.8" height="34.6"/>
		<polygon fill="#EF5350" points="684,170.8 677.1,172 671.9,142.6 678.8,141.4 		"/>
		<rect x="603" y="259.4" fill="#EF5350" width="6.2" height="28.3"/>
		<rect x="611.1" y="256.9" fill="#EF5350" width="6.8" height="30.7"/>
		<rect x="619.7" y="253" fill="#EF5350" width="7.5" height="34.7"/>
		<rect x="590.8" y="251.8" fill="#EF5350" width="9.7" height="34.7"/>
		<rect x="788.1" y="371.7" fill="#EF5350" width="22.6" height="5"/>
		<rect x="784.6" y="377.9" fill="#EF5350" width="24.5" height="5"/>
		<rect x="783.1" y="384" fill="#EF5350" width="27.7" height="6"/>
		<rect x="646.5" y="248.7" fill="#EF5350" width="12" height="38.6"/>
		<rect x="661" y="252.4" fill="#EF5350" width="8.9" height="34.8"/>
		<rect x="813" y="360" fill="#EF5350" width="12" height="30"/>
		<rect x="827.5" y="362.9" fill="#EF5350" width="8.9" height="27.1"/>
		<rect x="673" y="256.3" fill="#EF5350" width="9.6" height="31"/>
		<rect x="675.6" y="318.3" fill="#EF5350" width="9.6" height="31"/>
		<rect x="470.3" y="190" fill="#EF5350" width="6.3" height="36.8"/>
		<rect x="461.7" y="186.8" fill="#EF5350" width="6.8" height="40"/>
		<rect x="452.4" y="192.1" fill="#EF5350" width="7.5" height="34.7"/>
		<rect x="478.1" y="188.2" fill="#EF5350" width="12" height="38.6"/>
		<rect x="492.7" y="192" fill="#EF5350" width="8.9" height="34.8"/>
		<rect x="504.6" y="195.8" fill="#EF5350" width="9.6" height="31"/>
		<rect x="743.3" y="138.6" fill="#EF5350" width="8.9" height="34.8"/>
		<rect x="755.2" y="142.5" fill="#EF5350" width="9.6" height="31"/>
		<g>
			<rect x="729.3" y="327.1" fill="#EF5350" width="8.2" height="21.8"/>
			<rect x="712.3" y="315.4" fill="#EF5350" width="14.3" height="33.7"/>
			<rect x="822.9" y="310.9" fill="#EF5350" width="13.7" height="38.1"/>
			<rect x="813.7" y="313.6" fill="#EF5350" width="7.3" height="35.4"/>
			<rect x="775.5" y="312.3" fill="#EF5350" width="6.1" height="36.9"/>
			<rect x="783.3" y="309.1" fill="#EF5350" width="6.6" height="40"/>
			<rect x="791.6" y="314.4" fill="#EF5350" width="7.4" height="34.7"/>
			<rect x="801.1" y="321.7" fill="#EF5350" width="10.7" height="27.4"/>
			<rect x="762.3" y="310.4" fill="#EF5350" width="11.7" height="38.6"/>
			<rect x="751.1" y="314" fill="#EF5350" width="8.7" height="34.8"/>
			<rect x="739.9" y="317.9" fill="#EF5350" width="9.3" height="31"/>
		</g>
		<g>
			<rect x="378.6" y="371.8" fill="#EF5350" width="6.9" height="18.8"/>
			<rect x="399.9" y="371.8" fill="#EF5350" width="6.9" height="18.8"/>
			<rect x="386.7" y="361.7" fill="#EF5350" width="12" height="29"/>
			<rect x="293.4" y="363.2" fill="#EF5350" width="11.4" height="27.4"/>
			<rect x="306.3" y="365.2" fill="#EF5350" width="6.2" height="25.5"/>
			<rect x="335.9" y="364.2" fill="#EF5350" width="5.1" height="26.5"/>
			<rect x="328.9" y="361.9" fill="#EF5350" width="5.5" height="28.8"/>
			<rect x="314.3" y="361.9" fill="#EF5350" width="5.5" height="28.8"/>
			<rect x="321.4" y="365.8" fill="#EF5350" width="6.1" height="25"/>
			<rect x="342.3" y="362.9" fill="#EF5350" width="9.7" height="27.8"/>
			<rect x="354.8" y="365.5" fill="#EF5350" width="10.5" height="25.1"/>
			<rect x="366.6" y="360.7" fill="#EF5350" width="10" height="29.9"/>
		</g>
		<rect x="570" y="311.9" fill="#EF5350" width="6" height="37"/>
		<rect x="578.1" y="312.5" fill="#EF5350" width="8.8" height="36.4"/>
		<rect x="589.3" y="311.8" fill="#EF5350" width="13.6" height="37.1"/>
		<rect x="605.3" y="305.7" fill="#EF5350" width="13.2" height="43.2"/>
		<rect x="623.6" y="306.2" fill="#EF5350" width="9.4" height="42.7"/>
		<rect x="635.7" y="312.1" fill="#EF5350" width="9.8" height="36.8"/>
		<rect x="648.2" y="308.2" fill="#EF5350" width="12.5" height="40.7"/>
		<rect x="663" y="315.5" fill="#EF5350" width="10.8" height="33.3"/>
		<rect x="696.9" y="367.8" fill="#EF5350" width="4.6" height="22.2"/>
		<rect x="703" y="364.7" fill="#EF5350" width="6.7" height="25.3"/>
		<rect x="711.6" y="364.2" fill="#EF5350" width="10.3" height="25.8"/>
		<rect x="723.7" y="359.9" fill="#EF5350" width="12" height="30.1"/>
		<rect x="737.6" y="360.3" fill="#EF5350" width="7.2" height="29.7"/>
		<rect x="746.9" y="364.4" fill="#EF5350" width="11.9" height="25.6"/>
		<rect x="760.3" y="361.7" fill="#EF5350" width="9.5" height="28.3"/>
		<rect x="771.2" y="362.1" fill="#EF5350" width="8.2" height="27.9"/>
		<rect x="417.4" y="362.9" fill="#EF5350" width="8.2" height="28.2"/>
		<rect x="427" y="362.3" fill="#EF5350" width="4.9" height="28.8"/>
		<rect x="433.5" y="360.4" fill="#EF5350" width="6.5" height="30.6"/>
		<rect x="441.8" y="367.8" fill="#EF5350" width="12.5" height="23.3"/>
		<rect x="455.2" y="359.1" fill="#EF5350" width="7.5" height="32"/>
		<rect x="464.6" y="361.9" fill="#EF5350" width="7.5" height="29.2"/>
		<rect x="474.3" y="358.3" fill="#EF5350" width="9.5" height="32.8"/>
		<rect x="485.7" y="360.5" fill="#EF5350" width="12.7" height="30.6"/>
		<rect x="500.3" y="366.2" fill="#EF5350" width="7.8" height="24.9"/>
		<rect x="525.3" y="364.7" fill="#EF5350" width="9.5" height="26.4"/>
		<rect x="542.2" y="360.8" fill="#EF5350" width="14.3" height="30.3"/>
		<rect x="571.1" y="365.2" fill="#EF5350" width="7.7" height="25.3"/>
		<rect x="580.1" y="371.4" fill="#EF5350" width="6" height="19.1"/>
		<rect x="587.1" y="363.8" fill="#EF5350" width="5.9" height="26.7"/>
		<rect x="594" y="371.3" fill="#EF5350" width="7.4" height="19.2"/>
		<rect x="602.7" y="369.7" fill="#EF5350" width="3.9" height="20.8"/>
		<rect x="630.3" y="364.4" fill="#EF5350" width="10.2" height="26.1"/>
		<rect x="676.4" y="365.2" fill="#EF5350" width="9.6" height="25.3"/>
		<rect x="669" y="371.4" fill="#EF5350" width="7.4" height="19.1"/>
		<rect x="658.9" y="363.8" fill="#EF5350" width="7.3" height="26.7"/>
		<rect x="647.7" y="371.3" fill="#EF5350" width="9.2" height="19.2"/>
		<rect x="641.2" y="369.7" fill="#EF5350" width="4.8" height="20.8"/>
		<rect x="419.3" y="188.7" fill="#EF5350" width="6.7" height="38.1"/>
		<rect x="427.9" y="191.4" fill="#EF5350" width="7.5" height="35.4"/>
		
			<rect x="440.4" y="196.8" transform="matrix(-0.9944 0.1054 -0.1054 -0.9944 907.5248 375.2518)" fill="#EF5350" width="6.9" height="29.7"/>
		<rect x="426.3" y="247.9" fill="#EF5350" width="6" height="38.6"/>
		<rect x="433.7" y="250.5" fill="#EF5350" width="8.2" height="36"/>
		<rect x="443.8" y="247.7" fill="#EF5350" width="11.3" height="38.8"/>
		<rect x="457.7" y="254.3" fill="#EF5350" width="15.3" height="32.2"/>
		<rect x="475.1" y="249.7" fill="#EF5350" width="9.3" height="36.8"/>
		<rect x="607.8" y="364.4" fill="#EF5350" width="8.2" height="26.1"/>
		<rect x="617.3" y="362.5" fill="#EF5350" width="9.5" height="28.1"/>
	</g>
</g>
<path opacity="0.9" fill="none" stroke="#8E0C2B" stroke-miterlimit="10" enable-background="new    " d="M128.5,399.2
	c634.2,0,820.4,0,659.7,0"/>
<path fill="none" stroke="#F5F5F5" stroke-miterlimit="10" d="M335.1,188.8"/>
<g>
	<rect x="995.1" y="231.8" fill="none" stroke="#FFFFFF" stroke-miterlimit="10" width="17" height="7.2"/>
	<rect x="987.1" y="239" fill="none" stroke="#FFFFFF" stroke-miterlimit="10" width="33.7" height="7.1"/>
	<rect x="991.4" y="246.1" fill="none" stroke="#FFFFFF" stroke-miterlimit="10" width="20.5" height="7.4"/>
	<rect x="987.4" y="253.5" fill="none" stroke="#FFFFFF" stroke-miterlimit="10" width="49.8" height="7.2"/>
	<line fill="none" stroke="#FFFFFF" stroke-miterlimit="10" x1="1003.9" y1="239.1" x2="1003.9" y2="244.8"/>
	<line fill="none" stroke="#FFFFFF" stroke-miterlimit="10" x1="1003.7" y1="253.6" x2="1003.7" y2="258.3"/>
	<line fill="none" stroke="#FFFFFF" stroke-miterlimit="10" x1="1020.3" y1="260.5" x2="1020.3" y2="253.8"/>
</g>
<g>
	<rect x="62.5" y="162.3" fill="none" stroke="#FFFFFF" stroke-miterlimit="10" width="17" height="7.4"/>
	<rect x="48.8" y="169.7" fill="none" stroke="#FFFFFF" stroke-miterlimit="10" width="22.9" height="7.3"/>
	<rect x="71.8" y="169.7" fill="none" stroke="#FFFFFF" stroke-miterlimit="10" width="16.6" height="7.4"/>
	<rect x="62.6" y="177.2" fill="none" stroke="#FFFFFF" stroke-miterlimit="10" width="16.7" height="6.7"/>
	<rect x="45.8" y="183.9" fill="none" stroke="#FFFFFF" stroke-miterlimit="10" width="25.9" height="7.6"/>
</g>
<g>
	<rect x="220.2" y="55.3" fill="none" stroke="#FFFFFF" stroke-miterlimit="10" width="17" height="7.4"/>
	<rect x="228" y="62.8" fill="none" stroke="#FFFFFF" stroke-miterlimit="10" width="22.9" height="7.3"/>
	<rect x="211.4" y="62.7" fill="none" stroke="#FFFFFF" stroke-miterlimit="10" width="16.6" height="7.4"/>
	<rect x="220.4" y="70.2" fill="none" stroke="#FFFFFF" stroke-miterlimit="10" width="16.7" height="6.7"/>
</g>
<path fill="#E5E5E5" d="M703.4,433.1c-4.7,0.7-4.6,2.5-4.6,3.2s1.3,0,1.3,0c6.9-5.6,10.1,2.4,10.1,2.4c1.6,3.4,4.5,2.4,4.5,2.4v11.7
	l-1,0.5c-2.4,1.2-7.3-0.1-7.3-0.1c2.9,0.9,3.1,5.2,3.1,5.2c-2.1,1.4-6.5,0.2-6.8-1.5c-0.3-1.7,0-4.6-4.8-6.6
	c-4.5-1.9-3.9-9.2-3.9-9.2c-5.1-8.6,4.6-13.5,4.6-13.5s1.8-1.3,4.9,3.8C704.2,432.1,704,432.9,703.4,433.1z"/>
<linearGradient id="SVGIDSRIN_4_" gradientUnits="userSpaceOnUse" x1="562.0527" y1="-43.3613" x2="572.1426" y2="-43.3613" gradientTransform="matrix(1 0 0 -1 144 400)">
	<stop  offset="0" style="stop-color:#D1D3D4"/>
	<stop  offset="0.4378" style="stop-color:#B8BABC;stop-opacity:0.5622"/>
	<stop  offset="1" style="stop-color:#939598;stop-opacity:0"/>
</linearGradient>
<path fill="url(#SVGIDSRIN_4_)" d="M706.9,435.1c0,0-0.3,3-0.7,4.4c-0.4,1.5-0.2,2.4,0.9,2.8c1.1,0.5,3.3,1.6,3.2,4
	c-0.1,2.3-0.7,3,0.8,3.8c1.6,0.8-1.4,1,3,1.5c4.5,0.6,0-10.7,0-10.7s-1.5,0.8-2.7-1C710.3,438.1,709.7,435.4,706.9,435.1z"/>
<polygon fill="#A80F3B" points="714,431.8 714,458.3 739.6,457.1 739.5,434.9 "/>
<g opacity="0.7">
	<path fill="#890B35" d="M714.1,458.2c2.5-5.5,7-2.5,11.1-3.7c3.3-0.8,3.9-4.1,6.4-6.1c2-2.1,5.1-3.3,8-3.7v12.4L714.1,458.2z"/>
</g>
<g>
	<g>
		<path d="M739.8,453.1c3.1,0.3,6,1,9,1.5s6.1,0.5,9.1,0.6c6.4,0.1,12.8-0.2,19.2,0.4c2.1,0.2,4.2,0.4,6.2,1c1.3,0.4-2.1,1-2.5,1.1
			c-2.2,0.4-4.4,0.4-6.6,0.5c-7.7,0.2-15.5,0.5-23.2,0.9c-7,0.4-13.7,2.4-20.8,2.6c-7.1,0.2-14.1-0.1-21.2-0.1
			c-16.4,0-32.8,0.5-49.2,0.5c-12.4,0-25.2-0.9-37.4,1.3c-0.3,0.1-0.2,0.5,0.1,0.5c8.1-1.4,16.3-1.3,24.5-1.3s16.5,0,24.7,0
			c15.8-0.1,31.6-0.7,47.3-0.4c6.6,0.1,13.6,0.6,20.1-0.8c7.8-1.6,15.6-2,23.5-2.4c6.7-0.3,13.7,0.4,20.3-1.1
			c3.3-0.8-0.2-1.9-1.6-2.1c-6.4-1.1-12.9-0.9-19.3-0.9c-3.9,0-7.8,0-11.7-0.4c-3.5-0.4-6.9-1.4-10.5-1.7
			C739.4,452.6,739.5,453.1,739.8,453.1L739.8,453.1z"/>
	</g>
</g>
<g id="man">
	<path fill="#F1DAD5" d="M766.1,267.3c1.1,0.2,2.3,0,3.2-0.6c1.3-1.1,1.3-3,1.2-6.1c-0.1-3.1-0.8-6.2-2.2-9
		c-0.3-0.5-1.3-2.6-1.8-2.4c-0.2,0-0.2,0.3-0.3,0.5c-0.1,0.8,0,1.6,0.4,2.3c0.4,1,0.7,2,1,3c-0.5-0.6-1.3-0.7-1.9-0.2
		c-0.3,0.2-0.5,0.6-0.5,1c-0.5-0.2-1.1-0.1-1.5,0.1c-1,0.6-1.4,1.1-1.4,2.4c-0.1,1.3,0.9,3.7,1.5,4.9L766.1,267.3z"/>
	<g>
		<path fill="#153456" d="M829.8,305.2c0.2,0.4,0.5,1,0.8,1.7c0.9,2.2,1.6,4.4,2.8,10.8c1,5.3,0.5,3.7,1.1,6.4
			c0.6,2.9,1.2,4.8,0.4,7.1c-0.2,0.7-0.6,1.4-1,2l-17.5,20.2l-5.6-2.5l16.5-22.4l-6.4-22.2l4.5-1.8L829.8,305.2z"/>
		<path fill="#153456" d="M823.5,337.2c-0.4-1.8-1.1-3.5-2-5.1c-0.8,0.2-1.5,0.4-2.3,0.6c-0.9,0.2-1.5,0.2-1.9,0.3
			c-2.1,0.3-6,0.8-16.6,1.6c-0.7,0.9-1.4,1.8-2,2.8c-2,3.1-3.4,6.5-4.2,10.1c-7.2,29.6-7.7,30.6-7.7,30.6c-1,5.7-2,11.5-2.9,17.3
			c-1.8,11.6-4.3,33.5-5.7,44.6c0.3,0.8,0.7,1.5,1.4,2c0.6,0.5,1.3,0.8,2.1,1c2.7,0.4,5.2-16.6,5.2-16.6c4.9-16.7,5.8-25.1,5.8-26.7
			c0-2.5,1.4-4.7,1-7.2c3.1-5.9,6.2-11.8,9.3-17.8c2.4-4.6,4.8-9.3,7.2-13.9c-0.1,11.1-0.1,22.3,0,33.7c0.1,13.9,0.3,27.5,0.7,41
			c0.4,0.3,0.8,0.6,1.3,0.7c0.8,0.2,1.6,0.1,2.4-0.3c2,0.3,3-0.2,3-0.2c1.6-8.4,2.9-18.6,3.4-27.1c0.8-12-0.4-11.2,0.3-20.9
			c1-14.8,4.9-35.8,3.9-42.6C825,344,824,339.6,823.5,337.2z"/>
		<path fill="#D8BBB6" d="M820.1,299.8H810c1.6-3.6,1.9-7.6,1.1-11.5l6.2-0.3c0.1,0.4,0.2,0.9,0.4,1.5c0.1,0.6,0.4,1.2,0.7,1.7
			c0.7,0.8,1.7,1.2,2.7,1.2L820.1,299.8z"/>
		<path fill="#2E4263" d="M785.8,438.7c11.5-49.2,11.3-49.1,11.3-51.1c2.3-4.3,4.6-8.7,6.8-13c2.8-5.3,5.1-10.3,9.5-14.4
			c2.8-2.6,6.1-5.1,8.4-8.1c1.7-2,2.8-4.4,3.3-6.9c0.4-3,0.2-6-0.6-8.8c-0.2-0.9-0.5-1.7-0.8-2.6c-0.4-1-0.8-1.9-1.3-2.8l-0.5-0.8
			l-0.9,0.3c-0.7,0.2-1.5,0.4-2.2,0.6c-0.6,0.1-1.2,0.2-1.5,0.2H817c-2,0.3-5.8,0.8-16.6,1.6H800l-0.3,0.4c-0.7,0.9-1.4,1.9-2.1,2.9
			c-2.3,3.6-2.4,9.6-3.5,13.9c-0.7,2.7-2.1,6.4-2.8,9c-1.4,5-3.1,7.4-4.3,12.5c-0.3,1.3-3.7,12.2-2.7,13l-7.1,54.6
			c0,0,3.2,3.7,8.2,1.1L785.8,438.7z"/>
		<path fill="#395072" d="M773.6,299.8c7.7,4.9,16.1,8.6,25,10.8c0,3-0.1,6.1-0.4,9.3c-0.4,5.3-3.2,23.9-4.2,29.1
			c9.3,4.3,21.1,4.8,30.9,2c0.2-7.6,2-28.3,3.8-35.7c0.5-1.8,0.9-3.6,1.5-5.3c0.9-2.9-0.2-6.2-2.7-7.9h-0.1c0,0-0.4-0.3-1.1-0.7
			c0,0-1.2-0.7-2.4-1.3c-5.2-2.6-14.7-3.5-14.7-3.5c-13-1.2-12.6-1-15.1-1.4c-4.7-0.7-9.3-2-13.7-3.8l-9.1-27.6l-7.2,1.9
			c1.2,5.9,2.6,12.2,4.5,18.9C770.2,290,771.9,295.1,773.6,299.8z"/>
		<path d="M819.6,289.5"/>
		<path fill="#F1DAD5" d="M817.5,438.6h-7.2c0.1-1.3,0.6,0.3,0.6-1.2c0-0.9,0.4-3.8,0.4-4.6c2.5-0.4,3.7-0.4,6.1,0.1
			c-0.3,2.3-0.5,3.6-0.1,5.9L817.5,438.6z"/>
		<path fill="#F1DAD5" d="M783.9,444.7h-7.2c0.1-1.4,1.2-5.6,1.3-7c1.3-0.2,2.6-0.3,3.9-0.5c1.2-0.2,2.3-0.3,3.5-0.5
			c-0.3,1.3-0.6,2.6-0.9,4C784.2,442.1,784,443.4,783.9,444.7z"/>
		<path id="_Path_3_2_" d="M811.9,438.1L811.9,438.1c-0.1,0.1-0.6-1.2-1.1-1.5c-1.1-0.5-2.3,2.9-4.8,5c-0.9,0.8-4.6,1.4-5.7,1.8
			c-0.4,0.2-0.6,0.5-0.6,0.9v0.9l14.5-0.1l1.9-0.6l0.5,0.7h2.9c0.1-2.5-1.1-4.9-2.1-7.1H811.9z"/>
		<path id="_Path_4_2_" d="M777,443.8L777,443.8c-0.2,0.1-0.7-1.2-1.3-1.5c-1.3-0.5-3.3,2.4-7.2,4.5c-1.5,0.8-5.1,1.7-6.8,2.1
			c-0.5,0.1-0.9,0.5-0.9,0.9v0.9l16.9,0.2l3.2-0.9l0.6,0.9h4.4c0.1-2.5-0.4-4.9-1.6-7.2L777,443.8z"/>
		<path fill="#F1DAD5" d="M807.6,286.4c-0.5,0.8-2,3.8-1.2,5.1c0.7,1.2,3.7,2.3,5.2,2.8c0.6,0.2-0.1-0.1,5.1,0.1
			c2.2,0.1,3.4,0.1,3.8-0.5c0.5-0.8,0.6-1.9,0.2-2.7c-0.3-0.8-0.8-0.8-1.1-1.5c-0.6-1.3,0.9-2.3,0.5-3.5c-0.4-1.2,1-2.8-0.4-4.3
			c-1.6-1.6-4.3-0.5-5.9-2.4c-0.6-0.8-1.4-1.5-2.3-2.1l-1.4,3.3c-1.3,1.4-2.9,2.4-3.5,2.9c-1,0.9,0.3,1.6,0.3,1.6
			S807.8,286,807.6,286.4z"/>
		<path d="M818.6,285c-0.6-0.8-3,3.3-3,3.3c-0.5,0,1.3-5.3,1-5.6c-2.8-2-5.1-5.5-5.1-5.5c-0.8-1.2-1.8-3-1.1-4
			c0.7-0.9,2-0.2,5.3-0.1c4.9,0.2,5.4-0.6,7.9,0.1c2,0.6,3.7,1.8,4.9,3.4c2.3,3.3,1.7,6.2,1.4,7.5c-1,3.4-1.2,4.4-5.2,8.5
			c-3.4,3.1-4.7,2.8-4.7,2.8c-1.1,0-3.4-3.6-1.9-5.6C821,285.5,818.6,285,818.6,285z"/>
	</g>
</g>
<g>
	<g>
		<rect x="836.1" y="366.2" fill="#AF1020" width="167" height="1.5"/>
	</g>
	<polygon fill="#AF1020" points="866.4,368.2 862.2,371.8 858,368.2 858,367.7 866.4,367.7 	"/>
	<polygon fill="#AF1020" points="840.3,430.2 859.4,370.2 861.9,372.1 844.1,430.2 	"/>
	<polygon fill="#AF1020" points="884,430.2 864.9,370.2 862.4,372.1 880.2,430.2 	"/>
	<g>
		<path fill="#AF1020" d="M873.5,408.8h-22.6l-1.5,4.9H875L873.5,408.8z M853.4,412.3c-0.5,0-1-0.4-1-1c0-0.5,0.4-1,1-1
			c0.6,0,1,0.4,1,1C854.4,411.8,853.9,412.3,853.4,412.3z M870.3,412.3c-0.5,0-1-0.4-1-1c0-0.5,0.4-1,1-1c0.5,0,1,0.4,1,1
			C871.3,411.8,870.9,412.3,870.3,412.3z"/>
	</g>
	<rect x="941.3" y="367.1" fill="#AF1020" width="44" height="64.4"/>
	<rect x="943.5" y="368.6" fill="#DB3235" width="39.6" height="60.1"/>
	<polygon fill="#8E0C2B" points="954.9,379 957.1,381.4 971.3,381.4 973.6,378.9 	"/>
	<g>
		<polygon fill="#8E0C2B" points="971,371.5 973.3,368.6 954.5,368.7 956.8,371.5 		"/>
		<rect x="943.7" y="378.2" fill="#8E0C2B" width="39.1" height="0.8"/>
		<polygon fill="#8E0C2B" points="943.4,387.8 943.4,388.6 957.2,388.6 954.9,388.6 957.1,391 971.3,391 973.5,388.6 983.1,388.6 
			983.1,387.8 		"/>
		<polygon fill="#8E0C2B" points="943.2,413.7 957.1,413.7 954.8,413.7 957,416.1 971.2,416.1 973.4,413.7 982.9,413.7 982.9,412.9 
			943.2,412.9 		"/>
	</g>
	<g opacity="0.9">
		<path fill="#8E0C2B" d="M875.6,364.6c-1.1,0-2.1-0.4-2.7-1c-0.7-0.8-0.8-1.8-0.8-1.8c0-1.3,0.3-2.3,0.9-2.9
			c0.6-0.6,1.2-0.6,1.3-0.6h1.7v1.1h-1.5c-0.2,0-1.3,0.1-1.3,2.4l0,0c0,0,0.1,0.6,0.5,1.1c0.2,0.2,1,0.7,2.3,0.6v1.1
			C875.9,364.5,875.7,364.6,875.6,364.6z"/>
	</g>
	
		<linearGradient id="SVGIDSRIN_5_" gradientUnits="userSpaceOnUse" x1="732.8262" y1="43.8003" x2="732.8262" y2="67.5557" gradientTransform="matrix(1 0 0 -1 144 400)">
		<stop  offset="0" style="stop-color:#FFFFFF"/>
		<stop  offset="0.1426" style="stop-color:#FFFFFF;stop-opacity:0.8574"/>
		<stop  offset="1" style="stop-color:#FFFFFF;stop-opacity:0"/>
	</linearGradient>
	<path opacity="0.9" fill="url(#SVGIDSRIN_5_)" enable-background="new    " d="M880.5,356.2c0,0-0.5-3.4-1.9-5
		c-1.4-1.6-9.2-5.9-6.7-13.6c2.4-7.7,8.3-6.7,8.1,2.5c0,0,2.9,0,2.1,2.8c-0.9,2.8-4.2,3.3-2.4,7.2c0.6,1.4,0.9,1.6,1,2.3
		C880.9,353.4,880.7,354.5,880.5,356.2z"/>
	
		<linearGradient id="SVGIDSRIN_6_" gradientUnits="userSpaceOnUse" x1="739.125" y1="48.2939" x2="739.125" y2="52.7949" gradientTransform="matrix(1 0 0 -1 144 400)">
		<stop  offset="0" style="stop-color:#FFFFFF"/>
		<stop  offset="0.1428" style="stop-color:#FFFFFF;stop-opacity:0.8572"/>
		<stop  offset="1" style="stop-color:#FFFFFF;stop-opacity:0"/>
	</linearGradient>
	<path opacity="0.9" fill="url(#SVGIDSRIN_6_)" enable-background="new    " d="M882.1,348.4c0,0-1.4,4.2,0.1,3.2s2.8-2.5,2.5-3.4
		c-0.3-0.7-0.8-1.4-1.8-0.6C882.5,347.8,882.3,347.9,882.1,348.4z"/>
	
		<line opacity="0.9" fill="none" stroke="#8E0C2B" stroke-miterlimit="10" enable-background="new    " x1="835.1" y1="430.7" x2="846.6" y2="430.7"/>
	
		<line opacity="0.9" fill="none" stroke="#8E0C2B" stroke-miterlimit="10" enable-background="new    " x1="877.5" y1="430.7" x2="887.4" y2="430.7"/>
	
		<line opacity="0.9" fill="none" stroke="#8E0C2B" stroke-miterlimit="10" enable-background="new    " x1="1000.7" y1="431.7" x2="955" y2="431.7"/>
	<path fill="#A80F3B" d="M876,358.1v5.8c0,0,0,0.7,0.1,1.1c0.1,0.7,0.6,1.2,2.3,1.2h6.8h0.7v-7.8c0,0,0.2-1.6-1-1.6h-7.8
		C877.1,356.9,876.2,357,876,358.1z"/>
</g>
<g>
	<g opacity="0.6">
		<path fill="#8E0C2B" d="M969.1,341.1c0-0.6,0-1.2,0.1-1.8c0.4-2.5-0.1-5.2-1.9-7.2c-0.6-0.7-1.3-1-1.5-2c-0.4-1.4-0.9-2-2.1-3
			c-1.5-1.3-3.7-2-5.1-3.4c-1-1.1-1.3-2.6-2.3-3.8c-1.1-1.4-2.6-2.4-4.4-2.6c-0.5-0.1-1.6-0.2-2,0.2c-0.9,0.8,0.3,3.1,0.7,3.8
			c1.9,3.7,4.5,7,7.2,10.2c0.6,0.7,1.2,1.1,1.8,1.6c0.2,0.1,0.3,0.2,0.4,0.4c0.5,0.7,0.4,1.8,0.9,2.5c1,1.5,2.9,1.9,4.3,2.8
			c0.4,0.3,0.7,0.4,0.9,1C966.2,339.9,969,344.5,969.1,341.1z"/>
	</g>
	<g opacity="0.7">
		<path fill="#8E0C2B" d="M973.8,355.8c0.2,0.1,0.4,0.3,0.6,0.4c0.4,0.2,1,0.1,1.4,0c0.5,0,0.8-0.1,1.2-0.3c0.4-0.2,0.7-0.2,1.2-0.2
			s0.9-0.1,1.3-0.3c0.7-0.3,1.8,0,2.5,0c0.8,0.1,1.6,0,2.4,0.1c0.5,0,1.2,0.2,1.7,0c-0.1-0.4-1.1-0.6-1.4-0.8s-0.3-0.4-0.5-0.5
			c-0.7-0.5-1.8-0.2-2.5-0.6c-0.1-0.1-0.1-0.2-0.2-0.3c-0.4-0.3-1-0.3-1.4-0.3c-0.8,0-2.1,0.3-2.8-0.1c0,0,0-0.2-0.1-0.2
			c-0.2-0.1-0.6,0-0.9,0c-1.4,0.1-2.7,0.8-3.6,2C972.8,354.8,972.8,355.2,973.8,355.8z"/>
	</g>
	<g opacity="0.7">
		<path fill="#8E0C2B" d="M971.5,349.2c-0.1-0.2-0.9-0.5-1-0.7c-0.2-0.4-0.2-0.6-0.6-0.9c-0.4-0.3-0.7-0.5-1.1-0.6
			c-0.4-0.1-0.7-0.4-1-0.7c-0.4-0.3-0.7-0.5-1.2-0.6c-0.8-0.3-1.4-1.1-1.9-1.7c-0.6-0.5-1.2-1-1.8-1.6c-0.4-0.4-0.8-0.9-1.3-1.1
			c-0.2,0.4,0.4,1.2,0.5,1.5c0.1,0.3,0,0.5,0,0.7c0.2,0.8,1.2,1.3,1.5,2c0,0.1-0.1,0.2,0,0.3c0.1,0.4,0.6,0.8,0.9,1.1
			c0.6,0.5,1.8,1.2,2.1,1.9c0,0.1-0.1,0.2,0,0.3c0.1,0.2,0.5,0.4,0.7,0.5c1.2,0.8,2.6,2.2,4,1.8
			C971.2,351.6,971.9,350.3,971.5,349.2z"/>
	</g>
	<g opacity="0.7">
		<path fill="#8E0C2B" d="M975.1,351.8c1.1,0.5,2,1,3.1,0.8c0.6-0.1,1.4,0.1,2-0.2c0.1-0.1,0.2-0.2,0.3-0.3c0.4-0.2,0.9-0.2,1.3-0.2
			c1.2,0,2.3,0,3.5,0.2c0.8,0.1,1.7,0.3,2.4,0.2c0.5-0.1,0.2-0.2,0.1-0.5c-0.2-0.3,0.1-0.4,0.3-0.6c0.3-0.5-0.6-0.6-1-0.7
			c-0.7-0.2-1.4-0.2-2.1-0.4c-0.2,0-0.6-0.1-0.9-0.2c-0.1-0.1-0.2-0.2-0.3-0.3c-0.5-0.4-1.4-0.3-2-0.3c-1.1,0-2.1,0-3.1-0.3
			c-0.5-0.1-1,0.1-1.4,0.2c-0.6,0.2-1.1,0.5-1.6,0.8c-0.3,0.2-0.8,0.5-1,0.8C974.7,350.8,974.6,351.5,975.1,351.8z"/>
	</g>
	<g opacity="0.6">
		<path fill="#8E0C2B" d="M973.5,352.9c0.4-2.9,1.9-4.9,3.8-7c1.4-1.5,3.7-2,5.7-2.2c1.6-0.2,4.1-0.5,5.6,0.2c-0.1,0.8-1,2-1.5,2.7
			c-0.6,0.8-1.4,0.7-2.4,1.2c-1,0.6-1.5,1.4-2.8,1.6c-1.9,0.4-4.2-0.4-5.9,0.8c-1.1,0.7-1.3,2.4-2.4,3L973.5,352.9z"/>
	</g>
	<g opacity="0.6">
		<path fill="#8E0C2B" d="M974,347c2-0.1,3.7-0.7,4.9-2.6c1.1-1.7,3.6-1.3,5-2.8c0.5-0.6,0.8-1.2,1.4-1.6c1-0.8,2.2-0.9,3.3-1.4
			c1.4-0.6,9.4-5.1,6.9-6.5c-1.2-0.7-3.5-0.3-4.9-0.3c-1.1,0-2.3,0-3.4,0c-2.5,0.1-4.7,0.5-6.9,1.7c-1,0.6-2.1,1.2-3.2,1.5
			c-1.7,0.6-3.4,1.4-4.2,3.2c-1.1,2.3,0.3,5.4,0.2,7.9C973,346.1,973,347,974,347z"/>
	</g>
	<g opacity="0.7">
		<path fill="#8E0C2B" d="M972.8,342c-0.7-1-0.7-1.8-0.7-2.6c0-2.3,1.3-4.4,2.8-6.1c2.3-2.6,5.6-3.4,7.7-5.9c2-2.5,5-1.7,7.8-1.6
			c1,0,2,0,3,0c0.4,0,1.9-0.2,2.3,0.1c0.7,0.7-1.9,2.2-2.6,2.7c-2.3,1.8-4.4,3-7.4,3.7c-0.8,0.2-1.2,0.5-1.8,0.9
			c-0.9,0.7-2,0.7-3.1,0.7c-1.4,0-3.2-0.4-3.8,1.1c-0.4,0.7-0.7,1.2-1.2,1.9c-1.4,1.9-1.1,4.1-2.5,5.9L972.8,342z"/>
	</g>
	<g opacity="0.7">
		<path fill="#8E0C2B" d="M973.7,347.6c0.3-1.2-0.1-2.4-0.1-3.6s0.3-2.6,0.3-3.8c0.3-3.9-0.1-8.5,3.5-10.9c1.4-0.9,2.2-1.2,3-2.7
			c1.1-2.2,2.7-4.1,4.1-6.1c0.4-0.6,0.4-1.3,0.7-1.8c0.4-0.6,1.4-0.7,1.7-1.3c0.2-0.5-0.2-2.1-0.4-2.4c-0.5-0.9-1.5-0.5-2.6-0.3
			c-2.1,0.3-4.4,1.2-6.3,2.3c-1.8,1-2.6,2.4-4.1,3.8c-0.5,0.5-1.3,0.8-1.8,1.5c-1.1,1.4-1.4,3.1-1.2,4.8c0.4,3.9,0.5,7.6,0.6,11.5
			c0.1,2.2,0.3,4.6,0.8,6.8c0.1,0.7,0.4,2.4,1.2,2.7C973.3,347.9,973.6,348.1,973.7,347.6z"/>
	</g>
	<g>
		<path fill="#8E0C2B" d="M971.6,357.9c0,0,0.1-1.9-0.2-4.7c-0.3-2.8-0.9-6.5-2.3-10c-0.3-0.9-0.8-1.7-1.2-2.5
			c-0.2-0.4-0.5-0.8-0.7-1.2c-0.3-0.4-0.5-0.7-0.8-1.1c-0.3-0.3-0.5-0.7-0.8-1c-0.3-0.3-0.5-0.6-0.8-0.9s-0.6-0.6-0.9-0.8
			c-0.3-0.2-0.6-0.5-0.8-0.7c-0.3-0.2-0.6-0.4-0.8-0.6c-0.3-0.2-0.5-0.3-0.8-0.5c-0.5-0.3-1-0.5-1.3-0.7c-0.8-0.3-1.2-0.5-1.2-0.5
			l0,0c0,0,0.4,0.2,1.2,0.4c0.4,0.2,0.8,0.4,1.3,0.6c0.3,0.1,0.5,0.3,0.8,0.4c0.3,0.2,0.5,0.4,0.8,0.6c0.3,0.2,0.6,0.4,0.9,0.7
			c0.3,0.2,0.6,0.5,0.9,0.8c0.3,0.3,0.6,0.6,0.9,0.9c0.3,0.3,0.5,0.7,0.8,1c0.3,0.3,0.5,0.7,0.8,1.1c0.2,0.4,0.5,0.8,0.7,1.2
			c0.4,0.8,0.8,1.7,1.2,2.6c0.4,0.9,0.6,1.8,0.9,2.7c0.2,0.9,0.5,1.8,0.6,2.6c0.2,0.9,0.3,1.7,0.4,2.5c0.1,0.8,0.2,1.6,0.2,2.3
			c0.2,2.8,0.3,4.7,0.3,4.7L971.6,357.9z"/>
		<path fill="#8E0C2B" d="M976.8,324.7c0,0-0.3,0.5-0.7,1.3c-0.2,0.4-0.5,1-0.7,1.6c-0.1,0.3-0.3,0.6-0.4,1
			c-0.1,0.4-0.3,0.7-0.4,1.1c-0.1,0.4-0.3,0.8-0.4,1.2c-0.1,0.4-0.2,0.9-0.4,1.3c-0.1,0.5-0.2,0.9-0.3,1.4s-0.2,1-0.2,1.5
			c-0.1,0.5-0.1,1-0.2,1.6c0,0.5-0.1,1.1-0.1,1.6s0,1.1,0,1.6s0.1,1.1,0.1,1.6c0.1,1.1,0.3,2.2,0.4,3.2c0.1,1.1,0.3,2.1,0.4,3.2
			c0.1,1,0.2,2,0.1,3s-0.3,1.8-0.6,2.6c-0.3,0.8-0.6,1.5-0.9,2.1c-0.3,0.6-0.6,2-0.8,2.4c-0.5,0.8-0.7,0.5-0.7,0.5l0,0
			c0,0,0.2-0.5,0.7-1.4c0.2-0.4,0.5-0.9,0.8-1.6c0.3-0.6,0.6-1.3,0.9-2.1c0.3-0.8,0.5-1.6,0.6-2.6c0.1-0.9,0-1.9-0.1-2.9
			c-0.1-1-0.3-2.1-0.4-3.1c-0.1-1.1-0.3-2.2-0.4-3.3c0-0.5-0.1-1.1-0.1-1.6c0-0.6,0-1.1,0-1.6s0.1-1.1,0.1-1.6s0.1-1,0.2-1.6
			c0.1-0.5,0.2-1,0.3-1.5c0.1-0.5,0.2-1,0.3-1.4c0.1-0.5,0.2-0.9,0.4-1.3c0.1-0.4,0.3-0.8,0.4-1.2c0.1-0.4,0.3-0.7,0.4-1.1
			c0.1-0.3,0.3-0.7,0.4-1c0.3-0.6,0.5-1.1,0.7-1.6C976.4,325.1,976.7,324.7,976.8,324.7L976.8,324.7z"/>
		<path fill="#8E0C2B" d="M981.3,330.1c0,0-0.3,0.1-0.7,0.3c-0.4,0.2-1.1,0.5-1.8,0.9c-0.7,0.4-1.5,1-2.2,1.7
			c-0.4,0.3-0.7,0.8-1,1.2c-0.3,0.4-0.6,0.9-0.9,1.4s-0.5,1-0.7,1.5c-0.1,0.2-0.2,0.5-0.3,0.8c-0.1,0.3-0.1,0.5-0.2,0.7
			c-0.1,0.2-0.1,0.5-0.1,0.7s-0.1,0.5-0.1,0.7s-0.1,0.5-0.1,0.7s0,0.4,0,0.6c0,0.4,0,0.8,0,1.1c0,0.3,0,0.6,0,0.9
			c0,0.5,0.1,0.7,0.1,0.7l0,0c0,0,0-0.3-0.1-0.7c0-0.2-0.1-0.5-0.1-0.9c0-0.3,0-0.7,0-1.1c0-0.2,0-0.4,0-0.6s0-0.5,0.1-0.7
			c0-0.5,0.1-1,0.2-1.5c0.1-0.3,0.1-0.5,0.2-0.8c0.1-0.3,0.2-0.5,0.3-0.8c0.2-0.5,0.4-1,0.7-1.5c0.3-0.5,0.6-0.9,0.9-1.4
			c0.3-0.4,0.7-0.8,1.1-1.2c0.7-0.7,1.5-1.3,2.2-1.7c0.7-0.4,1.3-0.7,1.8-0.9C981,330.1,981.3,330.1,981.3,330.1L981.3,330.1z"/>
		<path fill="#8E0C2B" d="M977.8,338c0,0-0.2,0.1-0.4,0.3c-0.1,0.1-0.3,0.2-0.4,0.3c-0.2,0.1-0.3,0.3-0.5,0.5
			c-0.1,0.1-0.2,0.2-0.3,0.3c-0.1,0.1-0.2,0.2-0.3,0.3c-0.2,0.2-0.3,0.5-0.5,0.8c-0.1,0.3-0.3,0.6-0.4,0.9c-0.1,0.2-0.1,0.3-0.2,0.5
			c-0.1,0.2-0.1,0.3-0.2,0.5l-0.2,0.5c0,0.2-0.1,0.3-0.1,0.5c0,0.2-0.1,0.3-0.1,0.5c0,0.2-0.1,0.3-0.1,0.5c0,0.3-0.1,0.6-0.1,0.9
			s-0.1,0.6-0.1,0.8c-0.1,0.5-0.1,1-0.1,1.3c0,0.3,0,0.5,0,0.5l0,0c0,0,0-0.2,0-0.5c0-0.2,0-0.3,0-0.6c0-0.2,0-0.5,0-0.7
			c0-0.3,0-0.6,0.1-0.8c0-0.3,0.1-0.6,0.1-1c0-0.2,0.1-0.3,0.1-0.5s0.1-0.3,0.1-0.5s0.1-0.3,0.1-0.5l0.2-0.5
			c0.1-0.2,0.1-0.3,0.2-0.5c0.1-0.2,0.1-0.3,0.2-0.5c0.1-0.3,0.3-0.6,0.5-0.9c0.2-0.3,0.3-0.6,0.5-0.8c0.1-0.1,0.2-0.2,0.3-0.3
			c0.1-0.1,0.2-0.2,0.3-0.3c0.2-0.2,0.4-0.4,0.5-0.5c0.2-0.1,0.3-0.3,0.4-0.3C977.6,338,977.8,338,977.8,338L977.8,338z"/>
		<path fill="#8E0C2B" d="M982.5,347.4c0,0-0.2-0.1-0.5-0.1c-0.2,0-0.3-0.1-0.6-0.1c-0.2,0-0.5,0-0.7,0c-0.3,0-0.5,0.1-0.8,0.2
			c-0.3,0-0.6,0.2-0.9,0.3c-0.1,0.1-0.3,0.1-0.5,0.2l-0.2,0.1l-0.2,0.1c-0.1,0.1-0.3,0.2-0.4,0.3c-0.1,0.1-0.3,0.2-0.4,0.3l-0.4,0.3
			c-0.1,0.1-0.3,0.2-0.4,0.4c-0.1,0.1-0.3,0.2-0.4,0.4c-0.1,0.1-0.2,0.3-0.3,0.4c-0.2,0.3-0.4,0.5-0.6,0.7c-0.2,0.2-0.4,0.5-0.5,0.7
			c-0.2,0.2-0.3,0.4-0.4,0.6c-0.1,0.2-0.2,0.3-0.3,0.5c-0.2,0.3-0.3,0.4-0.3,0.4l0,0c0,0,0.1-0.2,0.2-0.4c0.1-0.1,0.2-0.3,0.3-0.5
			c0.1-0.2,0.2-0.4,0.4-0.6c0.2-0.2,0.3-0.5,0.5-0.7c0.2-0.3,0.4-0.5,0.6-0.8c0.1-0.1,0.2-0.3,0.3-0.4c0.1-0.1,0.3-0.2,0.4-0.4
			c0.1-0.1,0.3-0.2,0.4-0.4l0.4-0.3c0.1-0.1,0.3-0.2,0.4-0.3c0.2-0.1,0.3-0.2,0.5-0.3l0.2-0.1l0.2-0.1c0.2-0.1,0.3-0.1,0.5-0.2
			c0.3-0.1,0.6-0.2,0.9-0.3c0.3-0.1,0.6-0.1,0.9-0.1s0.5,0,0.7,0s0.4,0,0.6,0.1C982.3,347.3,982.5,347.4,982.5,347.4L982.5,347.4z"
			/>
		<path fill="#8E0C2B" d="M980.7,351c0,0-0.1-0.1-0.2-0.2c-0.1-0.1-0.4-0.2-0.6-0.3c-0.1,0-0.3-0.1-0.5-0.1c-0.2,0-0.3-0.1-0.5-0.1
			c-0.2,0-0.4,0-0.6,0s-0.4,0-0.6,0.1c-0.2,0-0.4,0.1-0.6,0.1c-0.2,0-0.4,0.1-0.5,0.1c-0.4,0.1-0.7,0.2-1,0.2
			c-0.3,0.1-0.5,0.2-0.7,0.2c-0.2,0-0.3,0.1-0.3,0.1l0,0c0,0,0.1,0,0.2-0.1c0.1,0,0.2-0.1,0.3-0.1c0.1,0,0.2-0.1,0.4-0.2
			c0.1-0.1,0.3-0.1,0.5-0.2s0.3-0.1,0.5-0.1s0.4-0.1,0.6-0.1c0.2,0,0.4-0.1,0.6-0.1s0.4,0,0.6,0s0.4,0,0.6,0c0.2,0,0.4,0,0.5,0.1
			c0.2,0,0.3,0.1,0.5,0.1c0.3,0.1,0.5,0.2,0.6,0.3C980.7,350.9,980.8,351,980.7,351L980.7,351z"/>
		<path fill="#8E0C2B" d="M977.8,354.1c0,0-0.3-0.1-0.8-0.2c-0.3,0-0.5-0.1-0.9-0.1c-0.3,0-0.6,0-1,0.1c-0.2,0-0.3,0.1-0.5,0.1
			c-0.2,0-0.3,0.1-0.5,0.2c-0.1,0.1-0.3,0.1-0.4,0.2c-0.1,0.1-0.2,0.1-0.4,0.2c-0.1,0.1-0.2,0.1-0.3,0.2c-0.1,0.1-0.2,0.1-0.2,0.1
			c-0.1,0.1-0.2,0.1-0.2,0.1l0,0c0,0,0.1-0.1,0.2-0.2c0.1-0.1,0.1-0.1,0.2-0.2c0.1-0.1,0.2-0.1,0.3-0.2c0.1-0.1,0.2-0.2,0.4-0.2
			c0.1-0.1,0.3-0.1,0.4-0.2c0.2,0,0.3-0.1,0.5-0.1c0.2,0,0.3-0.1,0.5-0.1c0.3,0,0.7,0,1,0c0.3,0,0.6,0,0.9,0.1
			C977.5,353.9,977.8,354,977.8,354.1L977.8,354.1z"/>
		<path fill="#8E0C2B" d="M963.8,340.5c0,0,0.5,0,1.1,0.2c0.3,0.1,0.7,0.2,1.1,0.3c0.2,0.1,0.4,0.2,0.6,0.2c0.2,0.1,0.4,0.2,0.6,0.3
			s0.4,0.2,0.6,0.4c0.2,0.1,0.4,0.3,0.5,0.4c0.2,0.2,0.3,0.3,0.4,0.5c0.1,0.2,0.3,0.3,0.3,0.4c0.1,0.2,0.2,0.3,0.2,0.4
			c0.1,0.1,0.1,0.2,0.1,0.3c0.1,0.2,0.1,0.3,0.1,0.3l0,0c0,0-0.1-0.1-0.1-0.3c-0.1-0.1-0.1-0.2-0.2-0.3c-0.1-0.1-0.2-0.2-0.3-0.4
			c-0.1-0.1-0.2-0.3-0.3-0.4c-0.1-0.1-0.3-0.3-0.4-0.4c-0.2-0.2-0.3-0.3-0.5-0.4c-0.2-0.1-0.4-0.3-0.6-0.4c-0.2-0.1-0.4-0.2-0.6-0.3
			c-0.2-0.1-0.4-0.2-0.6-0.3c-0.4-0.2-0.8-0.3-1.1-0.4C964.2,340.6,963.8,340.6,963.8,340.5L963.8,340.5z"/>
		<path fill="#8E0C2B" d="M961.7,345.3c0,0,0.9,0,2.1,0.2c1.3,0.2,2.9,0.8,4.3,1.8c0.4,0.2,0.7,0.5,1,0.8c0.3,0.3,0.6,0.6,0.8,1
			c0.2,0.3,0.4,0.7,0.6,1c0.2,0.3,0.3,0.7,0.4,1c0.1,0.3,0.2,0.6,0.2,0.9c0.1,0.3,0.1,0.5,0.1,0.7c0.1,0.4,0.1,0.6,0.1,0.6l0,0
			c0,0,0-0.2-0.1-0.6c0-0.2-0.1-0.4-0.2-0.7c-0.1-0.2-0.2-0.5-0.3-0.8c-0.1-0.3-0.3-0.6-0.4-0.9c-0.2-0.3-0.4-0.6-0.6-1
			c-0.2-0.3-0.5-0.6-0.8-0.9c-0.3-0.3-0.6-0.6-0.9-0.8c-1.4-1-3-1.6-4.3-1.9C962.6,345.3,961.7,345.3,961.7,345.3L961.7,345.3z"/>
	</g>
	<g opacity="0.6">
		<path fill="#8E0C2B" d="M971.3,352.7c-0.2,0.3-1.2-0.1-1.4-0.5c-0.3-0.4-0.8-1.1-1.1-1.5c-0.7-1.1-1.5-1.9-2.7-2.6
			c-3.3-1.6-6.7-0.2-10.1-0.2c-1.1,0-2-0.2-3-0.8c-0.6-0.4-1.2-0.9-1.6-1.5c-0.3-0.4-0.4-1.1-0.7-1.4c-0.6-0.7-1.7-0.3-2.6-0.2
			c-1.7,0.1-3.3,0.1-5-0.5c-0.7-0.2-1.4-0.4-0.7-1c0.4-0.4,1.7-0.6,2.2-0.8c1.2-0.5,2.5-0.7,3.8-0.8c2.2-0.2,4.8-0.4,7,0.2
			c1.7,0.4,3.1,1.6,4.8,2.1c1.2,0.3,2.4-0.2,3.6,0.1c1.8,0.4,3.9,0.8,5.3,2c1.5,1.4,2.1,3.5,2.1,5.6
			C971.2,351.1,971.3,352.7,971.3,352.7z"/>
	</g>
	<path opacity="0.9" fill="#8E0C2B" enable-background="new    " d="M977.9,361.2c0,2.7-2.5,4.9-5.6,4.9c-3.1,0-5.6-2.2-5.6-4.9V360
		v-1.2h11.1L977.9,361.2z"/>
	<rect x="966.1" y="357.8" fill="#8E0C2B" width="12.4" height="1.1"/>
	<g>
		<rect x="966.1" y="359.4" fill="#9B1239" width="12.4" height="0.5"/>
	</g>
	<g>
		<rect x="966.1" y="360.4" fill="#9B1239" width="12.4" height="0.5"/>
	</g>
	<g opacity="0.7">
		<path fill="#8E0C2B" d="M967.8,343.9c-2.2,0-5.5-2.2-7.3-3.8c-1.9-1.7-1.3-3.6-1.6-5.9c-0.4-3.2-4.5-6.2-1-9.4
			c2.4-2.1,1.5,2.2,1.7,3.9c0.3,2.9,1.5,5.7,3.3,8c1.4,1.7,5,3.8,4.8,6.3"/>
	</g>
</g>
<g>
	<g opacity="0.9">
		<polygon fill="#8E0C2B" points="945.9,428.6 945.4,428.4 946,426.9 924.5,415.1 924.7,414.7 946.6,426.7 		"/>
	</g>
	<g opacity="0.9">
		
			<rect x="931" y="408.7" transform="matrix(-0.4881 -0.8728 0.8728 -0.4881 1018.3406 1439.2712)" fill="#8E0C2B" width="0.5" height="24.7"/>
	</g>
	<polygon opacity="0.9" fill="#8E0C2B" enable-background="new    " points="913.5,440.3 916.4,440.3 925.3,414.7 922.9,413.9 	"/>
	<polygon opacity="0.9" fill="#8E0C2B" enable-background="new    " points="953.1,440.4 950.3,440.5 941,413.8 943.4,413 	"/>
	<path fill="#A80F3B" d="M913.1,407.4c0,0,4.2-25.4,11.5-25.5c0,0,7.7-0.9,14.5-0.1c0,0,3.2-0.1,4.8,3.4c0,0,5,9.4,6.7,21.4
		c0,0,0,0.5,0.5,1.3c0,0,0.6,1.1-0.1,1.6c0,0-0.7-0.2-1.6,0.3c-0.9,0.5-14.9,11.7-32.3,1.7c0,0-0.8-0.4-1.5-0.9
		c-0.5-0.3-0.7-0.5-1.4-0.7C914.2,409.8,911.8,409.9,913.1,407.4z"/>
	<path opacity="0.9" fill="#8E0C2B" enable-background="new    " d="M916.6,400.6c0,0,3.3-16,5.6-16.6s4.5-2.2,18-1
		c0,0,1.6-0.1,2.5,2.1c0,0,4.5,9.2,6.1,18.9c0,0,0.6,4.1-0.5,4.7l-4.3,1.9c0,0,1.7-0.4,1.1-5c-0.6-4.5-1.5-7.1-4.9-9.5
		c-3.4-2.4-6.6-3.2-7.5-4.8c-0.9-1.6-1.8-4.4-4.5-4.3s-5,0.8-6.3,4.9C921.9,391.9,918.4,399.8,916.6,400.6z"/>
</g>
<g>
	
		<linearGradient id="SVGIDSRIN_9_" gradientUnits="userSpaceOnUse" x1="737.8633" y1="226.4165" x2="784.5396" y2="265.5826" gradientTransform="matrix(1 0 0 -1 144 400)">
		<stop  offset="0" style="stop-color:#000000;stop-opacity:0.6"/>
		<stop  offset="2.127981e-002" style="stop-color:#000000;stop-opacity:0.5872"/>
		<stop  offset="1" style="stop-color:#000000;stop-opacity:0"/>
	</linearGradient>
	<rect x="904.7" y="107.2" fill="url(#SVGIDSRIN_9_)" width="1" height="93.6"/>
	<g>
		<circle fill="#FFFFFF" cx="905.2" cy="207.4" r="3.6"/>
		
			<linearGradient id="SVGIDSRIN_10_" gradientUnits="userSpaceOnUse" x1="768.1426" y1="183.5273" x2="754.1969" y2="200.1472" gradientTransform="matrix(1 0 0 -1 144 400)">
			<stop  offset="0" style="stop-color:#FFFFFF;stop-opacity:0.6"/>
			<stop  offset="1" style="stop-color:#FFFFFF"/>
		</linearGradient>
		<circle opacity="0.5" fill="url(#SVGIDSRIN_10_)" enable-background="new    " cx="905.2" cy="208.2" r="10.8"/>
		<path fill="#8E163E" d="M894.4,207.8c0-5.9,4.8-10.8,10.8-10.8c5.9,0,10.8,4.8,10.8,10.8H894.4z"/>
	</g>
</g>
<g>
	<g>
		<path fill="#FFFFFF" d="M167.5,159.3c-1.4-0.1-2.5-1.1-3.4-1.8c-1.1-0.8-2.2-0.5-3.5-0.1c-1.7,0.5-2.5,0.6-4-0.5
			c-1.4-1-2.8-1.9-4.7-2c-1.8-0.1-3.2,1.2-4.4,2.4c-0.5,0.5-1.4,1.2-2.2,1.1c-1.2-0.1-1.7-0.4-2.9-0.4c-2.5,0-3.5,1.7-3.6,2.4h33.6
			C172.5,160.5,170.4,158.9,167.5,159.3z"/>
	</g>
	<path fill="#FFFFFF" d="M167.5,159.3c-1.4-0.1-2.5-1.1-3.4-1.8c-1.1-0.8-2.2-0.5-3.5-0.1c-1.7,0.5-2.5,0.6-4-0.5
		c-1.4-1-2.8-1.9-4.7-2c-1.8-0.1-3.2,1.2-4.4,2.4c-0.5,0.5-1.4,1.2-2.2,1.1c-1.2-0.1-1.7-0.4-2.9-0.4c-2.5,0-3.5,1.7-3.6,2.4h33.6
		C172.5,160.5,170.4,158.9,167.5,159.3z"/>
	<g>
		<path fill="#FFFFFF" d="M222.5,184.6c-1.3-0.9-2.5-0.6-3.9-0.2c-1.9,0.5-2.9,0.7-4.5-0.5c-1.6-1.2-3.2-2.2-5.3-2.2
			c-2.1-0.1-3.6,1.4-4.9,2.7c-0.6,0.6-1.6,1.4-2.5,1.3c-1.3-0.1-1.9-0.6-3.3-0.4c-0.7,0.1-2,0.5-2.2,1.3l30.4,0.1
			C224.9,186.6,223.6,185.4,222.5,184.6z"/>
	</g>
	<rect x="130.1" y="141.3" fill="none" stroke="#FFFFFF" stroke-miterlimit="10" width="52.5" height="126.1"/>
	<rect x="189.1" y="141.3" fill="none" stroke="#FFFFFF" stroke-miterlimit="10" width="52.5" height="126.1"/>
</g>
<g>
	<g>
		<path fill="#A80F3B" d="M215.2,381.1l-0.6-0.1c2.4-14.4,5.2-32.8,3.8-46.9l0.6-0.1C220.5,348.1,217.7,366.6,215.2,381.1z"/>
	</g>
	<g>
		<path fill="#A80F3B" d="M222.2,382.3h-0.6c0-7.5-0.1-15.1-0.1-22.5c-0.1-7.4-0.1-15-0.1-22.5h0.6c0,7.5,0,15.1,0.1,22.5
			C222.1,367.2,222.2,374.8,222.2,382.3z"/>
	</g>
	<g>
		<g>
			<path fill="#A80F3B" d="M217.2,364.8c-5.5-4.7-11.2-9.9-15.1-15.7l0.4-0.3c3.9,5.8,9.6,10.9,15,15.6L217.2,364.8z"/>
		</g>
		<g>
			<path fill="#A80F3B" d="M216.7,369.2c-2.5-3-5.1-6.1-7.6-9.1s-5-6.1-7.6-9.1l0.4-0.4c2.5,3,5.1,6.1,7.6,9.1s5,6.1,7.6,9.1
				L216.7,369.2z"/>
		</g>
	</g>
	<g>
		<g>
			<path fill="#EF5350" d="M185.2,350.1c1-2.1,3.3-3.6,4.1-5.9c1-2.8-0.4-5.9,0.9-8.9c1.2-3.1,3.5-5.9,6.6-7.1c-1-1-2.5-2.5-5.6-1.9
				l-1.1,0.4c-3.7,1.6-5.7,5.4-6.1,9.4c-0.5,3.2,1.6,5.9,1.4,8.9c-0.2,2.4-2.1,4.4-2.5,6.7c-0.6,3.7,2,5.4,5.3,6.1
				c0.9,0.2,1.7,0.3,2.5,0.3c-0.6-0.2-1.1-0.5-1.7-0.7C185.7,355.9,183.7,353.6,185.2,350.1z"/>
		</g>
		<g>
			<path fill="#FD9680" d="M207.2,334c0.4,0.3,0.8,0.7,1.2,1C208,334.7,207.6,334.4,207.2,334z"/>
		</g>
		<g>
			<path fill="#A80F3B" d="M199.7,354c2.4-2.8,5.2-4.5,8.2-6.7c2.8-2,3.8-6.2,2.5-9.6c-0.4-1-1.1-1.9-2-2.7c-0.5-0.3-0.9-0.6-1.2-1
				c-1.6-1.1-3.5-2-5.1-2.6c-2.2-0.8-3.6-1.6-5.3-3.1c0-0.1-0.1-0.1-0.1-0.1c-3.1,1.2-5.4,3.9-6.6,7.1c-1.2,3,0.1,6.1-0.9,8.9
				c-0.8,2.3-3.1,3.7-4.1,5.9c-1.5,3.4,0.6,5.7,3.6,7.2c0.6,0.3,1.2,0.5,1.7,0.7C194.1,358.3,197,357,199.7,354z"/>
		</g>
	</g>
	<polygon fill="#8E002C" points="226.5,399.6 211.2,399.6 208.7,383.4 228.5,383.4 	"/>
	<rect x="207.3" y="380.8" fill="#A80F3B" width="22.6" height="3.3"/>
	<g>
		<path fill="#A80F3B" d="M204.7,313.7c0.5-4.9,3.5-8.1,5.2-12.5c1.1-2.9,0.1-6.1-0.1-9.2c-0.3-3.6-0.4-7.8,0.8-11.3
			c2-5.7,9-9.8,15-10c0,0,9.6-0.8,11.7,8.4c-0.9-4.8-2.2-9.5-5.4-13.1c-3.8-4.3-10-4.9-15.2-3.5c-5,1.2-7,3.9-7.8,8.8
			c-1,5.7-1.5,11.1-4.5,16c-2.2,3.7-2.4,4.1-7.4,9.9l-1.8,2.4c-1,1.9-2.8,3.6-3.5,5.5c-0.8,2.3-1.5,6.3-0.9,8.6
			c1.6,6.5,7.8,7.6,13.3,10.2c7.3,3.5,9.1,6.3,13.5,9.9l0,0C212,328.8,203.5,322.2,204.7,313.7z"/>
		<path fill="#EF5350" d="M247.7,342.4c9.8-2.1,16.5-9.2,15.3-19.5c-0.8-8.5-6.5-13.1-13.3-17.4c-5.8-3.6-9.2-8.9-10.7-15.4
			c-0.8-3.4-1.1-7.2-1.8-10.9c-2.1-9.3-11.7-8.4-11.7-8.4c-6,0.1-13,4.3-15,10c-1.2,3.5-1.1,7.7-0.8,11.3c0.3,3.1,1.2,6.2,0.1,9.2
			c-1.7,4.4-4.6,7.6-5.2,12.5c-1.2,8.5,7.3,15.1,12.7,20.3v0.1c1,0.8,2.1,1.7,3.1,2.4C228.9,342.2,237.6,344.6,247.7,342.4z"/>
	</g>
	<g>
		<path fill="#A80F3B" d="M229.1,330.3H229c-2.9-1.9-4.5-7.7-4.9-9.4c-0.9-3.3-0.9-7.4,0-11.2c0.5-2.4,1.2-4.8,1.9-7
			c1.9-6.4,3.7-12.5,0.2-19.5c0-0.1,0-0.2,0.1-0.2c0.1,0,0.2,0,0.2,0.1c3.6,7.1,1.8,13.3-0.1,19.7c-0.7,2.2-1.4,4.6-1.8,7
			c-0.9,3.8-0.9,7.8,0,11.1c0.4,1.7,1.9,7.4,4.8,9.2c0.1,0.1,0.1,0.2,0.1,0.3C229.2,330.3,229.1,330.3,229.1,330.3z"/>
	</g>
	<g>
		<path fill="#A80F3B" d="M225.7,304.5c-0.1,0-0.1,0-0.1,0c-1.8-2-2.7-2.6-5.1-3.3c-2.2-0.5-3.3-1.8-4.6-3.2
			c-0.1-0.1-0.2-0.2-0.3-0.4c-0.1-0.1-0.1-0.2,0-0.3c0.1-0.1,0.2-0.1,0.3,0c0.1,0.1,0.2,0.2,0.3,0.4c1.3,1.5,2.4,2.6,4.4,3.1
			c2.5,0.7,3.4,1.4,5.3,3.4c0.1,0.1,0.1,0.2,0,0.3C225.8,304.5,225.7,304.5,225.7,304.5z"/>
	</g>
	<g>
		<path fill="#A80F3B" d="M227.6,322.6c-0.3,0-0.7,0-1,0c-0.4,0-0.7,0-1.1,0c-0.1,0-0.2-0.1-0.2-0.2c0-0.1,0.1-0.2,0.2-0.2
			c0.4,0,0.7,0,1.1,0c1.9,0,3.6,0.1,5.4-0.9c3-1.6,5.4-4.3,7.8-6.9c1.5-1.6,3-3.4,4.7-4.8c0.1-0.1,0.2-0.1,0.3,0
			c0.1,0.1,0.1,0.2,0,0.3c-1.7,1.4-3.2,3.1-4.7,4.7c-2.4,2.6-4.8,5.3-7.9,7C230.6,322.4,229.2,322.6,227.6,322.6z"/>
	</g>
	<g>
		<path fill="#A80F3B" d="M238.7,315.3c-0.1,0-0.1,0-0.2-0.1c-1-2.9-1.9-5.9-2.1-9.4c0-0.1,0.1-0.2,0.2-0.2s0.2,0.1,0.2,0.2
			c0.2,3.4,1.1,6.5,2.1,9.3C238.9,315.2,238.8,315.3,238.7,315.3L238.7,315.3z"/>
	</g>
	<g>
		<path fill="#A80F3B" d="M239.1,318.5c-0.7,0-1.2-0.1-1.7-0.3c-0.1,0-0.1-0.1-0.1-0.2s0.1-0.1,0.2-0.1c0.8,0.3,1.7,0.4,2.8,0.2
			c0.1,0,0.2,0,0.2,0.1c0,0.1,0,0.2-0.1,0.2C240,318.5,239.5,318.5,239.1,318.5z"/>
	</g>
</g>
<g>

	<g id="body">
		<g>
		
			<linearGradient id="SVGIDSRIN_7_" gradientUnits="userSpaceOnUse" x1="2723.792" y1="-498.4126" x2="2893.7322" y2="-475.0756" gradientTransform="matrix(0.8158 -0.5784 -0.5784 -0.8158 -2147.7883 1466.5957)">
			<stop  offset="0" style="stop-color:#FFFFFF"/>
			<stop  offset="1" style="stop-color:#FFFFFF;stop-opacity:0"/>
		</linearGradient>
		<polygon opacity="0.5" fill="url(#SVGIDSRIN_7_)" enable-background="new    " points="368.6,302.7 426.4,136.3 538.4,234.5 
			374.6,310.6 		"/>
		
			<radialGradient id="SVGIDSRIN_8_" cx="3476.4785" cy="73.1685" r="98.3689" gradientTransform="matrix(0.6832 -0.4845 -0.4818 -0.6795 -1834.8783 1894.2205)" gradientUnits="userSpaceOnUse">
			<stop  offset="0" style="stop-color:#FFFFFF"/>
			<stop  offset="1" style="stop-color:#FFFFFF;stop-opacity:0"/>
		</radialGradient>
		<path opacity="0.4" fill="url(#SVGIDSRIN_8_)" enable-background="new    " d="M572.2,112.5c26.2,36.9,17.3,88.2-19.8,114.5
			c-37.1,26.3-88.4,17.7-114.6-19.2c-26.2-36.9-17.3-88.2,19.8-114.5C494.7,67,546,75.6,572.2,112.5z"/>
	</g>
		<path fill="#F0DBD7" d="M300.5,450.4l-0.8,5c0,0,0.7,0.3,0,1c-0.7,0.7-0.6,1.4-2.8,1.4c-2.2,0-3-2-3-2.7c0-0.7-0.4-4.5-0.4-4.5
			S300.4,448.5,300.5,450.4z"/>
		<g id="arm">
			<path fill="#153456" d="M486,130.1c-1.7-0.4-5.2-1-5.2-1l-0.5-2.3l-0.4-1.2l5.6,1l1.3-0.9l1.6-1.1l0.9,3.6L486,130.1z"/>
			<path fill="#EDFF0E" d="M521.2,130.9l-8.5-30.3l-26.4,7.7c0,0-1.5,0.3-1.4,2.5c0,0.4,0.3,1.8,0.7,2.8l7.1,27.5
				c0,0,0.2,1.3,2.2,0.7l24.8-6.7l-1-3.1l-0.2-0.4L521.2,130.9z"/>
			<polyline fill="none" stroke="#FFFFFF" stroke-width="0.5" stroke-miterlimit="10" points="288,299.5 289.5,287.5 289.4,286.5 
				280.7,271.6 299.3,239.8 283.1,206.2 306.4,164.5 380.5,121.7 477.6,124.3 476.4,127.3 383.5,125.3 			"/>
			<polyline fill="none" stroke="#FFFFFF" stroke-width="0.5" stroke-miterlimit="10" points="293.4,299.4 294.8,288.4 295.2,285.6 
				287.9,272.8 305,241.3 288.8,209.4 288.2,206.4 309.4,168.2 382.2,125.2 			"/>
			<path fill="#FFFFFF" d="M292.7,285.9c-0.1,1.1,0.7,2.2,1.8,2.4c1.2,0.1,2.2-0.7,2.3-1.8c0.2-1.2-0.7-2.2-1.8-2.3
				C294,283.9,292.9,284.7,292.7,285.9z"/>
			<path fill="#FFFFFF" d="M287.4,286c-0.2,1.1,0.7,2.2,1.8,2.3c1.1,0.1,2.2-0.7,2.4-1.8c0.1-1.2-0.7-2.2-1.8-2.4
				C288.6,284,287.5,284.8,287.4,286z"/>
			<path fill="#FFFFFF" d="M286.1,272.4c-0.2,1.2,0.7,2.2,1.8,2.4s2.2-0.7,2.4-1.8c0.1-1.1-0.7-2.2-1.8-2.4
				C287.3,270.5,286.2,271.3,286.1,272.4z"/>
			<path fill="#FFFFFF" d="M279.2,271.7c-0.1,1.1,0.7,2.2,1.8,2.3c1.1,0.2,2.2-0.7,2.4-1.8c0.1-1.1-0.7-2.2-1.8-2.3
				C280.4,269.7,279.3,270.5,279.2,271.7z"/>
			<path fill="#FFFFFF" d="M302.5,240.2c-0.1,1.1,0.7,2.2,1.8,2.3c1.2,0.1,2.2-0.7,2.3-1.8c0.1-1.2-0.7-2.2-1.8-2.4
				C303.7,238.3,302.6,239.1,302.5,240.2z"/>
			<path fill="#FFFFFF" d="M296.7,238.9c-0.1,1.2,0.7,2.2,1.8,2.3c1.2,0.1,2.2-0.7,2.4-1.8c0.2-1.2-0.7-2.2-1.8-2.4
				C297.9,236.9,296.8,237.7,296.7,238.9z"/>
			<path fill="#FFFFFF" d="M286,206.6c-0.1,1.2,0.7,2.2,1.8,2.4c1.2,0.1,2.2-0.7,2.3-1.8c0.2-1.2-0.7-2.2-1.8-2.3
				C287.2,204.7,286.1,205.5,286,206.6z"/>
			<path fill="#FFFFFF" d="M281.2,207.1c-0.1,1.2,0.7,2.2,1.8,2.4c1.2,0.1,2.2-0.7,2.4-1.8c0.1-1.1-0.7-2.2-1.8-2.3
				C282.4,205.1,281.4,205.9,281.2,207.1z"/>
			<path fill="#FFFFFF" d="M307.8,168.2c-0.1,1.1,0.7,2.2,1.8,2.3c1.2,0.1,2.2-0.7,2.4-1.8c0.1-1.2-0.7-2.2-1.8-2.3
				C309,166.2,308,167,307.8,168.2z"/>
			<path fill="#FFFFFF" d="M303.4,165.3c-0.2,1.1,0.7,2.2,1.8,2.4c1.1,0.1,2.2-0.7,2.3-1.8c0.1-1.2-0.7-2.2-1.8-2.3
				C304.6,163.4,303.5,164.2,303.4,165.3z"/>
			<path fill="#F0F0F0" d="M518.5,132.6c0,0-0.3,1.1,0.1,1.8l-23.6,6.8c0,0-0.7,0-0.5-1.5c0,0,0.1-0.9,0.5-1.1l23.2-6.8l1.4-0.4
				C519.6,131.4,518.7,131.9,518.5,132.6z"/>
			<g>
				<path fill="#EDC70E" d="M495.2,135.9c-0.1,0-0.2,0-0.3,0c-0.1,0-0.2-0.1-0.2-0.2l-6.8-25.7c-0.1-0.2,0.1-0.4,0.3-0.4l22.7-6.3
					c0.1,0,0.2,0,0.3,0c0.1,0,0.2,0.1,0.2,0.2l7.1,25.9c0,0.2-0.1,0.4-0.3,0.4L495.2,135.9C495.3,135.9,495.2,135.9,495.2,135.9z
					 M488.8,110l6.6,25l22.1-5.9l-6.9-25.2L488.8,110z"/>
			</g>
			<g>
				
					<rect x="472.2" y="118" transform="matrix(-0.3072 -0.9517 0.9517 -0.3072 509.5828 607.6924)" fill="#F0F0F0" width="7.5" height="0.7"/>
			</g>
			<path fill="#FFFFFF" d="M472.3,112.7c-0.1,1.1,0.6,2,1.7,2.2c1.1,0.1,2-0.6,2.2-1.7c0.1-1.1-0.6-2-1.7-2.2
				C473.4,110.9,472.4,111.7,472.3,112.7z"/>
			<path fill="#FFFFFF" d="M378,122.2c-0.1,1.1,0.6,2,1.7,2.2c1.1,0.1,2-0.6,2.2-1.7c0.1-1.1-0.6-2-1.7-2.2
				C379.1,120.3,378.2,121.1,378,122.2z"/>
			<path fill="#F0F0F0" d="M475.7,124c-0.1,1.1,0.6,2,1.7,2.2c1.1,0.1,2-0.6,2.2-1.7c0.1-1.1-0.6-2-1.7-2.2
				C476.8,122.2,475.8,123,475.7,124z"/>
			<path fill="#FFFFFF" d="M473.3,127c-0.1,1.1,0.6,2,1.7,2.2c1.1,0.1,2-0.6,2.2-1.7c0.1-1.1-0.6-2-1.7-2.2
				C474.4,125.2,473.5,126,473.3,127z"/>
			<path fill="#FFFFFF" d="M380,125.3c-0.1,1.1,0.6,2,1.7,2.2c1.1,0.1,2-0.6,2.2-1.7c0.1-1.1-0.6-2-1.7-2.2
				C381.1,123.4,380.1,124.2,380,125.3z"/>
			<g>
				<polygon fill="#EDC70E" points="492.6,112.5 492.3,111.8 508.3,107.1 508.5,107.8 				"/>
			</g>
			<g>
				<polygon fill="#EDC70E" points="495.7,113.7 495.5,113 507.3,109.8 507.5,110.5 				"/>
			</g>
			<g>
				<polygon fill="#EDC70E" points="498,116.1 497.7,115.4 505.7,113.1 506,113.8 				"/>
			</g>
			<g>
				<path fill="#FFFFFF" d="M291.4,301.2c0.3-3.5,1.3-6.9,2-10.3c0.4-1.7,0.7-3.4,0.8-5.2c0.1-1.7,0-3.5-0.6-5.1
					c-0.6-1.6-1.8-2.9-3-4.1c-1.2-1.2-2.6-2.4-3.8-3.7c-1.2-1.3-2.2-2.9-2.6-4.7c-0.3-1.8-0.2-3.7,0.3-5.4s1.4-3.4,2.3-4.8
					c1-1.5,2.1-2.9,3.2-4.2c2.2-2.7,4.6-5.3,6.3-8.3c0.9-1.5,1.5-3,1.9-4.7c0.1-0.8,0.2-1.6,0.2-2.5v-0.3v-0.1c0,0,0-0.1,0,0l0,0
					v-0.2c0-0.2,0-0.4-0.1-0.6c-0.1-0.4-0.2-0.8-0.3-1.1c-0.5-1.6-1.4-3-2.4-4.4s-2.2-2.6-3.4-3.9c-2.4-2.5-4.9-4.9-7.2-7.7
					c-1.1-1.4-2.2-2.9-2.9-4.6c-0.1-0.2-0.2-0.4-0.3-0.7c0-0.1-0.1-0.2-0.1-0.3l-0.1-0.3c-0.1-0.4-0.3-0.8-0.4-1.3
					c-0.2-0.9-0.4-1.8-0.4-2.8s0.2-2,0.6-2.9s1-1.7,1.6-2.4c1.2-1.4,2.6-2.5,3.8-3.7c2.5-2.4,4.6-5,6.5-7.9c1.9-2.9,3.4-6,4.8-9.2
					c1.4-3.2,2.6-6.4,3.9-9.7c0.6-1.6,1.3-3.3,2-4.9c0.7-1.6,1.5-3.3,2.9-4.8c0.7-0.7,1.7-1.3,2.6-1.6c0.9-0.3,1.8-0.5,2.7-0.6
					c1.8-0.3,3.4-0.6,5.1-0.9l0,0h0.1c1.5-0.2,3.1-0.6,4.7-1c1.6-0.4,3.1-0.9,4.6-1.4c3-1.1,5.9-2.5,8.6-4.2
					c1.3-0.9,2.6-1.8,3.8-2.8c1.2-1,2.3-2.2,3.5-3.4c2.3-2.3,4.6-4.7,6.9-7c4.7-4.6,9.6-9.1,15.2-12.7c2.8-1.8,5.9-3.3,9.2-4.2
					c1.6-0.4,3.4-0.7,5.1-0.6c1.7,0,3.5,0.4,5.1,1h-0.4c4-0.7,8-1.2,12-1.8c4-0.5,8-1,12-1.4c2-0.2,4-0.4,6-0.6c2-0.2,4-0.3,6-0.5
					l6-0.4c2-0.1,4-0.2,6-0.2c2-0.1,4-0.1,6-0.1s4,0,6.1,0.1c4,0.2,8,0.7,12,1.4c4,0.6,7.9,1.3,11.9,1.9c2,0.3,4,0.5,6,0.4
					c0.5,0,1-0.1,1.5-0.2s0.9-0.4,1.2-0.8c0.3-0.4,0.3-0.9,0.2-1.4c-0.1-0.5-0.3-1-0.5-1.4c0.2,0.4,0.4,0.9,0.6,1.4
					c0.1,0.5,0.1,1-0.2,1.5c-0.3,0.4-0.8,0.7-1.3,0.8c-0.5,0.2-1,0.2-1.5,0.3c-2,0.2-4-0.1-6-0.3c-4-0.5-8-1.1-11.9-1.6
					c-4-0.5-8-0.9-12-1.1c-2-0.1-4-0.1-6,0c-2,0-4,0.1-6,0.2c-2,0.1-4,0.2-6,0.3l-6,0.4c-2,0.2-4,0.3-6,0.5c-2,0.2-4,0.4-6,0.6
					c-4,0.5-8,1-11.9,1.6c-4,0.6-7.9,1.2-11.9,1.9h-0.2l-0.2-0.1c-2.9-1.1-6.1-1.1-9.2-0.2c-3.1,0.8-5.9,2.3-8.7,4
					c-5.4,3.5-10.3,7.9-14.9,12.5c-2.3,2.3-4.6,4.7-6.8,7c-1.1,1.2-2.3,2.4-3.6,3.5c-1.3,1.1-2.6,2.1-4.1,3c-2.8,1.8-5.9,3.3-9,4.4
					c-1.6,0.6-3.2,1.1-4.8,1.5s-3.2,0.8-4.9,1.1h0.1c-1.7,0.4-3.5,0.7-5.2,0.9c-1.7,0.3-3.2,0.6-4.3,1.7c-1.1,1-1.8,2.6-2.5,4.1
					c-0.7,1.6-1.3,3.2-2,4.8c-1.3,3.2-2.6,6.5-4,9.7c-1.4,3.2-3,6.4-5,9.4c-1.9,3-4.3,5.8-6.8,8.2c-1.3,1.3-2.6,2.3-3.7,3.6
					c-1.1,1.2-1.8,2.6-1.8,4.1c0,0.8,0.1,1.6,0.3,2.4c0.1,0.4,0.2,0.8,0.3,1.2l0.1,0.3l0.1,0.3c0.1,0.2,0.1,0.4,0.2,0.6
					c0.6,1.5,1.6,2.9,2.7,4.2c2.1,2.7,4.7,5.1,7,7.7c1.2,1.3,2.4,2.6,3.4,4.1s2,3,2.6,4.8c0.1,0.4,0.2,0.9,0.3,1.4
					c0,0.2,0,0.4,0.1,0.7v0.2v0.1v0.1v0.3c0,0.9-0.1,1.8-0.3,2.8c-0.4,1.8-1.2,3.5-2.1,5c-1.9,3.1-4.3,5.7-6.5,8.3
					c-2.2,2.7-4.4,5.4-5.4,8.7c-0.5,1.6-0.7,3.3-0.4,5c0.3,1.6,1.2,3.1,2.4,4.4c1.1,1.3,2.4,2.5,3.6,3.7c1.2,1.3,2.4,2.6,3,4.4
					c0.6,1.7,0.6,3.5,0.5,5.3c-0.2,1.8-0.5,3.5-0.9,5.2C292.9,294.4,291.8,297.7,291.4,301.2z"/>
			</g>
			<polygon fill="#2D4466" points="486.9,121.5 494.3,122.5 495.2,121.9 494.6,117.5 486.9,116.6 485,116.4 476.5,121.3 
				477.4,126.3 			"/>
			<path fill="#2D4466" d="M482.3,127.7L480,119c0,0-4.2-1.4-6.2,1.9l1.7,8.7C475.4,129.6,480.1,133.1,482.3,127.7z"/>
		</g>
		<path fill="#153456" d="M314.6,373c0,0,4,14.5,5.9,21.2c0,0,2.5,6.8-4.1,10.6l-35.5,28.7l-6.5-8.7l30.5-28.6L293.5,377l-12.9-4.1
			L314.6,373z"/>
		<path fill="#9F3D30" d="M283.4,301.6c0,1.2,0.9,2.1,2.1,2.1h22.9c1.2,0,2.1-0.9,2.1-2.1v-2.1c0-1.2-0.9-2.1-2.1-2.1h-22.9
			c-1.2,0-2.1,0.9-2.1,2.1V301.6z"/>
		<path fill="#2D4466" d="M300.4,368.8l6.2,46.7l-4,35.7l-12.1,0.6c0,0,1.3-17.4-0.6-34.8c-1.7-15.4-4.7-23.6-4.9-24.2
			c-0.9-2.1-4.2-11.2-4.7-19.7c0-0.5,0.4-0.6,1.3-0.6c1,0,3-0.1,4.6-0.1C293.3,372.8,300.4,368.8,300.4,368.8z"/>
		<path fill="#9F3D30" d="M280.4,303.8c0,0-11.8-6.2-8.5,31.7l0.2,3.1l38.6-0.3l0.2-31.6c0,0,0.2-2.8-4.4-2.5L280.4,303.8z"/>
		<polygon fill="#F0F0F0" points="269.4,370.8 276.3,371 276.6,369.8 269.4,369.6 		"/>
		<path fill="#B8593B" d="M312.3,313.9c0,0,3.4-7.3-2.4-10l-7.7-1c0,0-16.4-2.2-24.5,0.6c0,0-3.2,1.2-2.2,8.1
			C276.3,318.6,305.1,322.7,312.3,313.9z"/>
		<path fill="#1E1E1E" d="M305.1,286c0,0,2-2.6,0.7-5.1c0,0-0.8-3.4-3.8-4c0,0-0.7-0.2-2-0.2c-1.5,0-8.6-0.9-12.3,3.3
			c0,0-1.9,2.1-1.6,3.6c0,0-4.7,0.7-1.1,9.5c0,0,1.5,2.2,2.6,4.6c0.6,1.2,0.8,2.9,1.2,3.5c1.1,1.8,0.9,2.9,2.2,2.6
			C291.7,303.4,305.1,286,305.1,286z"/>
		<path fill="#324D6D" d="M347.2,318.3l4.1,7.5l-10.1,4.8c0,0-14.5,6.3-18,6.4c-2.3,0.1-5.7-1.4-7-2.4c-0.5-0.4-3.8-2.7-3.9-3.1
			c0,0,0.4,26.8,0.5,28.6c0.1,1.8,1.9,12.5,1.8,13c-0.1,0.4-3.5,0.9-8.6,3.1c-3.3,1.4-13.4,0.9-15.8,0.4c-1.8-0.4-6.7-2.4-8.2-3.7
			c-0.5-0.4-1.4,0.5-1.4,0l-1.4-14.8l-2.3,11.7l-7.6-0.2c0,0,4.1-49.7,5-51.9c1-2.4,2.8-4.9,14.4-10.5l16.3,2.1c0,0,6.2,3.4,8.5,4.8
			c0,0,0.3,0.4,3.7,5.4c0,0,5.4,4.8,7.1,7.1l13.3-4.6L347.2,318.3z"/>
		<path fill="#F0F0F0" d="M304.7,283.8c0,0,0.7,4,0.9,5.3c0.2,1.3,0.9,3.3,0.8,5.4c0,0,0,5.1-0.7,6.8c-0.2,0.5-0.8,2.5-3.7,2.8
			c0,0,1.1,4.7,0.9,5.6c-0.2,0.9-2.7,6.4-2.7,6.4l-8.3-5.5c0,0-2.4-2.9-2.3-3c0,0,0.8-0.6,0.9-1.4c0.4-2.6,0.5-8.1,0.5-8.3
			c0-0.2-2.9,0.4-3.4-3.4c0,0-0.3-1.7,1-2.1c0,0,1.7-0.5,3.1,2.3l1.6,2.3c0,0-1.3-6-1.5-6.4c-0.2-0.4,0.4-1.4,1.4-2.4s0.1-3.1-0.9-4
			c0,0,3-0.9,6.4-1.5c0.9-0.1,2.4-0.4,3.4-0.4c0.6,0,1.5,0,1.8,0.3C304.1,282.5,304.6,282.7,304.7,283.8z"/>
		<path fill="#E9CBC6" d="M302,304.1c0,0-5-0.1-7.6-3.3c0,0-0.3-0.5-0.4-0.6c-0.1-0.1-0.1,1.1,0.2,1.9c1.2,4.1,4.6,5.8,8.9,7.2
			c0,0-0.2-1-0.5-2.4C302.4,305.9,302.2,305.1,302,304.1z"/>
		<path fill="#153456" d="M300.2,316l-2.9-5.2l-2.6,2.7l5.1,3C299.8,316.5,300.5,316.6,300.2,316z"/>
		<path fill="#FFFFFF" d="M297.3,310.8l-6.7-4.8c0,0-2.4,0.5-3.5,2.6l4.4,8.4L297.3,310.8z"/>
		<path fill="#153456" d="M300.6,455.6c0,0,2.4,5.8,7.7,6c5.1,0.2,5.5,3.2,4.4,4.1c-1.1,0.8-7.8,2.1-10.7-0.2s-4.2-1.9-5.5-1.8
			c0,0-3.7,1.4-4.2-1.8c-0.5-3.2,0-5.2,0.9-5.8C293.2,455.9,296,454.4,300.6,455.6z"/>
		<polygon fill="#F0DBD7" points="280.7,431.3 273.4,435.9 271.1,429.5 275.9,424.5 		"/>
		<path fill="#153456" d="M274.4,435.4c0,0-0.3,5.4-1.2,8.3c-0.8,2.9,0.6,3.4-0.1,8.3c-0.6,4-4-4.1-4.1-7.5s-1.2-7.4-2.5-10.5
			s-1.6-3.7,0.1-4.8c1.7-1,3.6-1.9,5.2-0.7C273.4,429.7,271.4,434.1,274.4,435.4z"/>
		<path fill="#153456" d="M285.2,332.8c0,0,3.6,8.3,2.6,13.1c-0.9,4.8,1.6,11.7,0.8,14.7c-0.7,3,0.1,6.8-0.9,6.9
			c-0.9,0.1-5.2,4.3-6.7,5.5c-0.3,0.3-0.5,0-0.5,0c0-0.4-1.5-15.1-1.5-15.1L285.2,332.8z"/>
		<path fill="#153456" d="M312.2,331.6l0.1-15.8c0.4,4.5,1.8,10.8,3.4,14.3c1.7,3.8,4.6,6.5,4.6,6.5s-2.3-0.7-3-1.1
			c-1.3-0.9-2.3-1.6-2.7-1.9C314,333,312.2,331.6,312.2,331.6z"/>
		<path fill="#F0DBD7" d="M275.7,370.9l-0.3,1.8c0,0,0.7,2.8,0.7,3.2c0,0.3,0,1.8-0.4,2.9c-0.1,0.4-0.1,0.9-0.3,1.1
			c-0.8,0.7-0.6-3-1.1-3.4c-0.4-0.4-1.1,1.3-1,2.2c0.1,0.9,1.3,2.3,1.3,2.3s0.6,1.1-1.6,1c0,0-0.2,0.9-1.5,0.3c0,0-0.1,0.7-1.3,0.2
			c0,0-0.3,0.7-1.6-0.1c0,0-0.8-0.8-1.4-2.1c-0.3-0.6-0.5-1.3-0.5-2.1c-0.1-0.8-0.3-1.2,0.1-2.3c0.6-1.7,1.3-2,1.8-2.7
			c1-1.5,1.5-1.4,1.5-2.5L275.7,370.9z"/>
		<g>
			<path fill="#9F3D30" d="M282.3,344.5c1.5-0.5,3-2.1,3.4-3.2c0.7-1.7,1.3-3.4,1.2-5.2c-0.5-7.2-1.2-12.8-2.1-20.5
				c-0.5-4.7-0.6-6.6,0.5-8.3l-2.9,0.6c-0.3,1.2-0.6,2.4-0.4,7.1c0.2,2.9,0.6,5.8,0.8,8.7c0.3,4.8,1.5,9.2,1.2,14
				c-0.1,1.3-0.3,3-1.1,4L282.3,344.5z"/>
		</g>
		<polygon fill="#153456" points="304.4,311.9 300.2,316.3 300,316.2 302.5,310 		"/>
		<path fill="#FFFFFF" d="M302.6,306.7l2.4,2.5l1.6,4.8l-4.2-4.2C302.4,309.9,301.3,306.8,302.6,306.7z"/>
		<g>
			<path fill="#2D4466" d="M355.3,315.8l13.4-11.1l4.5,4.5L359.5,321C359.5,321,355.2,320.3,355.3,315.8z"/>
			<polygon fill="#153456" points="368.1,304 366.6,306.5 370.5,311.6 373.5,310.9 			"/>
			<path fill="#FFFFFF" d="M373.2,305.5c1.8,2.3,2.6,4.7,1.7,5.4c-0.9,0.7-2.9-1.1-4.7-3.4c-1.8-2.3-2.7-4.1-1.8-4.8
				C369.2,302,371.4,303.3,373.2,305.5z"/>
		</g>
		<path fill="#F0DBD7" d="M351.8,323.9c0,0,4.4-2.7,4.5-2.7c0.1,0,1.8,1,3.9,0c2.1-1,2.3-0.4,2.3-1.1c0,0,1.2,0.6,1.3-0.5
			c0,0,1.5-0.2,1.3-1.1c0,0,0.9-0.1,0.7-0.9c0,0-1.4-2.6-1.6-2.8c-0.3-0.2-1,0.2-0.8,0.8c0,0-0.6-0.5-0.9,0.1
			c-0.2,0.6-1.3,0.2-1.7,0.9c-0.4,0.8-0.5,1.4-0.1,2l0.4,1.1c0,0-2.3,1.8-4.7-0.8c0,0-0.5-0.9-0.8-1.5c-0.2-0.6-0.2-0.9-0.2-1.1
			c0-0.5,1.3-1.1,2.5-1.8c0,0,1.4-0.1,2-0.2c0.6-0.2,2.1-0.8,2.3-1c0.1-0.2-0.9-0.1-1.7-0.4c-0.8-0.4-1.4-0.5-2.5-0.6
			c-1,0-1.9,0-2.5,1.2s-1.5,2.3-2,2.9c-0.5,0.6-4.5,2.5-4.5,2.5L351.8,323.9z"/>
		<polygon fill="#F0F0F0" points="346.9,318.5 348.4,317.6 352.3,324.4 350.9,325.3 		"/>
		<g>
			<path fill="#9F3D30" d="M306.8,307.6c0,0,0.1,0,0.3,0.1c0.2,0.1,0.5,0.1,0.9,0.3c0.4,0.1,0.8,0.3,1.3,0.6
				c0.5,0.3,1.1,0.7,1.6,1.2s1,1.1,1.5,1.8c0.2,0.3,0.4,0.6,0.6,1c0.2,0.4,0.4,0.7,0.6,1.2c0.2,0.4,0.4,0.8,0.5,1.3
				c0.1,0.4,0.3,0.9,0.4,1.3c0.1,0.5,0.2,0.8,0.3,1.3c0.1,0.5,0.1,0.9,0.2,1.4c0,0.4,0,0.9,0,1.3c0,0.2,0,0.4,0,0.7v0.3v0.1v0.2v0.2
				c-0.1,0.8-0.2,1.7-0.3,2.5c-0.3,1.6-0.7,3-1.1,4.2c-0.4,1.2-0.8,2.2-1.1,2.9s-0.5,1.1-0.5,1.1s-0.2-0.4-0.4-1.2
				c-0.2-0.7-0.5-1.8-0.6-3.1c-0.2-1.3-0.3-2.7-0.4-4.2c-0.1-0.7-0.1-1.5-0.2-2.2v-0.2l0,0l0,0c0,0,0-0.1,0,0.1l0,0v-0.1l-0.1-0.3
				c0-0.2-0.1-0.4-0.1-0.6l-0.2-1.1c-0.1-0.7-0.2-1.5-0.3-2.2c-0.1-0.7-0.2-1.4-0.4-2c0-0.3-0.2-0.7-0.2-1c-0.1-0.4-0.2-0.7-0.3-1
				c-0.1-0.6-0.3-1.2-0.4-1.7c-0.2-0.5-0.4-1-0.5-1.5c-0.2-0.4-0.4-0.9-0.6-1.2C307,308,306.8,307.6,306.8,307.6z"/>
		</g>
		<path fill="#1E1E1E" d="M300.1,295.8c-0.5,0.1-2.3-0.4-3.6,2.1c-1.4,2.6-3.5-4.2-4.5-7.6c-0.3-1-2.6-1.6-2.7-0.4
		c0,0.5-0.5,0.4-0.2,1.4c0.1,0.2,1.7,0.6,2.6,2.9c1.8,4.2,4.8,11,9.8,10.5c0,0,7.3,0.2,6-8.3c0,0-0.4-2.8-1-3.6
		c-0.3-0.4-1.1,1.3-2.1,1.8c-0.9,0.4-1.2,0.6-1.6,0.7C301.7,295.7,301.1,295.8,300.1,295.8z"/>
	</g>
	
</g>
<g opacity="0.6">
	<rect x="230.8" y="197.5" fill="none" width="0.4" height="9.3"/>
	<rect x="232.2" y="197.5" fill="none" width="0.4" height="9.3"/>
	<polygon opacity="9.999999e-002" fill="#5D5D5D" enable-background="new    " points="181.3,201.6 181.3,202.8 179.2,202.8 
		179.2,204.7 176.2,204.7 176.2,208.5 174.9,208.5 174.9,204.4 172.4,204.4 172.4,203.4 169.1,203.4 169.1,198.9 167,198.9 
		167,196.6 163.8,196.6 163.8,194.1 160.5,194.1 160.5,200.6 159.1,200.6 159.1,198.6 154.8,198.6 154.8,200.9 153,200.9 153,198.7 
		145.3,198.7 145.3,207.1 142.7,207.1 142.7,204.3 141,204.3 141,202 137.6,202 137.6,193.5 129.9,193.5 129.9,209.8 129.9,211.9 
		129.9,267.4 182.7,267.4 182.7,201.6 	"/>
	<path opacity="9.999999e-002" fill="#5D5D5D" enable-background="new    " d="M239.2,206v-2.3h-4.3v2h-1.2v-9.4h-7v5.4h-4.9v2.3h-2
		v4.4h-3.3v1H214v0.3h-1.3V208h-2.1v-1.2h-3.1v-4h-7.7v7.1h-2.6v-1.5h-1.7v-2.3h-3.3v-8.5h-3v69.8h51.9v-55.5v-2.1V206H239.2z
		 M231.2,206.8h-0.4v-9.3h0.4V206.8z M232.5,206.8h-0.4v-9.3h0.4V206.8z"/>
</g>
</svg>
