<svg id="Layer_1" xmlns="http://www.w3.org/2000/svg" viewBox="0 0 235 47.3"><style>.st0{fill:#DB3236;}</style><g id="XMLID_2_"><path id="XMLID_62_" d="M8.3 41v.6c0 .9-.2 1.5-.7 1.8-.5.3-1.3.5-2.3.5-.7 0-1.5-.1-2.5-.2v-1c1 .2 1.8.3 2.5.3.6 0 1-.1 1.3-.2.4-.2.6-.4.6-.8v-1c0-.3-.1-.6-.3-.7-.2-.2-.6-.3-1.1-.3h-.9c-.8 0-1.4-.2-1.7-.5-.3-.3-.5-.8-.5-1.4v-.6c0-.6.2-1.1.7-1.4.5-.3 1.3-.5 2.5-.5.6 0 1.3 0 2.1.1v.9c-.9-.1-1.6-.2-2.2-.2-.8 0-1.3.1-1.5.2-.3.2-.4.4-.4.8v.9c0 .3.1.5.3.6.2.1.6.2 1.1.2h1c.8 0 1.4.1 1.7.5.2.3.3.7.3 1.4z"/><path id="XMLID_59_" d="M21.6 37.8v3.8c0 .4-.1.8-.3 1.1-.2.3-.5.5-.9.7-.4.1-.7.2-1.1.3-.4.1-.7.1-1.2.1-2.3 0-3.4-.7-3.4-2.2v-3.8c0-1.5 1.1-2.3 3.4-2.3 2.4 0 3.5.8 3.5 2.3zm-1.2 3.8v-3.8c0-1-.7-1.5-2.2-1.5-.3 0-.6 0-.8.1-.2 0-.5.1-.7.2-.2.1-.4.3-.5.5-.2.1-.2.4-.2.7v3.8c0 .9.7 1.4 2.2 1.4 1.5 0 2.2-.4 2.2-1.4z"/><path id="XMLID_58_" d="M34.7 35.7v6c0 1.5-1.1 2.2-3.2 2.2-.4 0-.8 0-1.1-.1-.3-.1-.7-.2-1-.3-.3-.1-.6-.4-.8-.7-.2-.3-.3-.7-.3-1.1v-6h1.2v6c0 .5.2.9.5 1.1.4.2.8.3 1.5.3.6 0 1.1-.1 1.5-.3.3-.2.5-.6.5-1.1v-6h1.2z"/><path id="XMLID_55_" d="M48 43.7h-1.5l-2.3-3.4H43v3.4h-1.2v-8.1h2.8c1 0 1.7.1 2.2.3.4.2.7.6.7 1.3v1.4c0 .5-.2.9-.6 1.1-.4.3-.9.4-1.5.4l2.6 3.6zm-1.7-5.2v-1.1c0-.6-.5-.9-1.6-.9H43v3h1.6c.6 0 1-.1 1.3-.2.2-.2.4-.4.4-.8z"/><path id="XMLID_54_" d="M59.8 43.6c-.7.2-1.5.2-2.3.2-2.3 0-3.4-.7-3.4-2.2v-3.8c0-1.5 1.1-2.3 3.4-2.3.7 0 1.5.1 2.2.2v.9c-.8-.2-1.5-.3-2.2-.3-.3 0-.6 0-.8.1-.2 0-.5.1-.7.2-.2.1-.4.2-.5.4-.1.2-.2.5-.2.8v3.8c0 .9.8 1.4 2.3 1.4.7 0 1.4-.1 2.2-.3v.9z"/><path id="XMLID_53_" d="M66.3 35.7h1.2v8.1h-1.2z"/><path id="XMLID_52_" d="M81.5 43.7H80L75.6 37v6.7h-1v-8H76l4.4 6.6v-6.6h1.1z"/><path id="XMLID_51_" d="M95 43.5c-1.1.2-2.1.4-3 .4h-1c-.3 0-.6-.1-1-.2-.3-.1-.6-.2-.9-.4-.3-.2-.5-.4-.6-.6-.2-.3-.2-.6-.2-.9V38c0-.5.1-.9.4-1.2.2-.3.6-.6 1-.7.4-.2.8-.3 1.2-.3.4-.1.8-.1 1.2-.1 1 0 1.9.1 2.8.2v.9c-.3-.1-.8-.1-1.4-.2-.6-.1-1.1-.1-1.4-.1-1.7 0-2.5.5-2.5 1.5v3.8c0 .3.1.5.2.7.2.2.4.3.7.4.3.1.6.2.8.2.3 0 .6.1.9.1.6 0 1.1-.1 1.8-.2v-3h-2v-.8h3v4.3z"/><path id="XMLID_50_" d="M114.9 41v.6c0 .9-.2 1.5-.7 1.8-.5.3-1.3.5-2.3.5-.7 0-1.5-.1-2.5-.2v-1c1 .2 1.8.3 2.5.3.6 0 1-.1 1.3-.2.3-.1.5-.4.5-.8v-1c0-.3-.1-.6-.3-.7-.2-.1-.5-.2-1-.2h-.9c-.8 0-1.4-.2-1.7-.5-.3-.3-.5-.8-.5-1.4v-.6c0-.6.2-1.1.7-1.4.5-.3 1.3-.5 2.5-.5.6 0 1.3 0 2.1.1v.9c-.9-.1-1.6-.2-2.2-.2-.8 0-1.3.1-1.5.2-.2.2-.4.4-.4.8v.9c0 .3.1.5.3.6.2.1.5.2 1.1.2h1c.8 0 1.4.1 1.7.5.2.2.3.6.3 1.3z"/><path id="XMLID_49_" d="M121.6 35.7h1.2v8.1h-1.2z"/><path id="XMLID_48_" d="M138.5 43.7h-1v-6.8h-.1l-2.6 6.8h-1.1l-2.7-6.8v6.8h-1.1v-8h1.8l2.6 6.7 2.5-6.7h1.7z"/><path id="XMLID_45_" d="M151 37.2v1.7c0 .7-.3 1.2-.8 1.5-.5.3-1.3.4-2.3.4h-1.2v2.9h-1.2v-8.1h3.5c.2 0 .5.1.8.1.3.1.5.1.6.3.2.1.3.3.4.5.2.2.2.5.2.7zm-1.1 1.7v-1.5c0-.2-.1-.4-.2-.6-.1-.1-.3-.2-.5-.3-.2-.1-.4-.1-.5-.1h-1.9V40h1.4c.5 0 .9-.1 1.2-.3.3-.1.5-.4.5-.8z"/><path id="XMLID_44_" d="M162.8 43.7h-5.2v-8h1.2v7.2h4z"/><path id="XMLID_43_" d="M169 35.7h1.2v8.1H169z"/><path id="XMLID_42_" d="M182.8 36.5h-4.3v2.6h3.9v.9h-3.9v3.7h-1.2v-8h5.5z"/><path id="XMLID_41_" d="M189.2 35.7h1.2v8.1h-1.2z"/><path id="XMLID_40_" d="M203 43.7h-5.5v-8h5.4v.8h-4.2v2.6h3.8v.9h-3.8v2.9h4.3z"/><path id="XMLID_37_" d="M216.2 38v3.6c0 1.5-1.1 2.2-3.4 2.2h-3.2v-8.1h3.2c2.3 0 3.4.7 3.4 2.3zm-1.1 3.5V38c0-.3-.1-.6-.2-.8-.1-.2-.3-.4-.5-.5-.2-.1-.5-.2-.7-.2-.2 0-.5-.1-.8-.1h-2v6.4h1.9c1.5.1 2.3-.4 2.3-1.3z"/><path id="XMLID_34_" d="M224 35.7l-.4 5.8h-.6l-.4-5.8h1.4zm0 8h-1.4v-1.3h1.4v1.3z"/><path id="XMLID_31_" class="st0" d="M8.1 26.2H2.3v-24h5.8v24zm16.8 0h-7L8.2 13.5l9-11.3H24l-9.1 11.1 10 12.9z"/><path id="XMLID_28_" class="st0" d="M49 9.1v10.5c0 1.4-.4 2.5-1.1 3.5-.7 1-1.7 1.7-2.9 2.2-1.2.5-2.4.8-3.6 1-1.2.2-2.5.3-3.8.3-1.3 0-2.5-.1-3.6-.2-1.1-.2-2.3-.5-3.6-.9-1.3-.4-2.3-1.2-3-2.1-.8-1-1.1-2.2-1.1-3.7V9.1c0-1.2.3-2.3.8-3.2.6-.9 1.2-1.7 2-2.1.8-.5 1.7-.9 2.8-1.2C33 2.2 34 2 34.8 2c.9-.1 1.8-.1 2.7-.1 1 0 1.9 0 2.8.1.9.1 1.9.3 3 .6s2.1.7 2.8 1.2c.8.5 1.5 1.2 2 2.1.6.9.9 2 .9 3.2zm-5.8 10.5V9.1c0-1.2-.5-2-1.4-2.4-.9-.5-2.3-.7-4.2-.7-1.9 0-3.3.2-4.2.7-1 .4-1.4 1.2-1.4 2.4v10.5c0 .6.2 1.1.5 1.5.3.4.8.7 1.4.9.6.2 1.2.3 1.7.4.6.1 1.2.1 2 .1s1.5 0 2.1-.1c.6-.1 1.1-.2 1.7-.4.6-.2 1-.5 1.3-.9.3-.4.5-.9.5-1.5z"/><path id="XMLID_24_" class="st0" d="M73.1 17.1v3.7c0 2-.8 3.4-2.4 4.2-1.6.8-4 1.2-7.1 1.2h-10v-24h9.7c3.4 0 5.7.4 6.9 1.1 1.2.8 1.8 2.1 1.8 4v3c0 .7-.3 1.3-.8 1.9-.5.6-1.2 1-1.8 1.2v.2c.9.1 1.7.5 2.5 1.2s1.2 1.4 1.2 2.3zm-6.6-7.5V8.4c0-.8-.2-1.3-.6-1.6-.4-.3-1.3-.4-2.7-.4h-3.8V12h4c1.4 0 2.2-.2 2.6-.5.3-.4.5-1 .5-1.9zm.8 10.4v-1.9c0-.9-.2-1.5-.7-1.9-.5-.4-1.3-.6-2.4-.6h-4.9V22h4.1c1.4 0 2.4-.2 3-.5.6-.2.9-.7.9-1.5z"/><path id="XMLID_23_" class="st0" d="M95.4 17.8v1.6c0 1.4-.3 2.6-.8 3.6s-1.3 1.7-2.3 2.2c-1 .5-2.1.9-3.3 1.1-1.2.2-2.6.3-4.3.3-2.3 0-5.1-.2-8.5-.7v-4.4c4.1.6 6.9 1 8.6 1 3.2 0 4.8-.8 4.8-2.5v-1.6c0-.7-.2-1.3-.6-1.8-.4-.5-1.3-.7-2.5-.7h-2.8c-5.3 0-7.9-2.1-7.9-6.3V7.9c0-2.1.9-3.6 2.6-4.6 1.7-1 4.5-1.5 8.3-1.5 1.8 0 4.3.2 7.5.5v4.3c-3.7-.4-6.3-.7-7.7-.7-1.9 0-3.2.2-3.9.5-.7.3-1.1.9-1.1 1.6v1.7c0 1.3 1.1 1.9 3.2 1.9h2.9c2.8 0 4.8.5 6 1.5 1.2 1.1 1.8 2.6 1.8 4.7z"/><path id="XMLID_22_" class="st0" d="M117.7 6.3h-7.4v19.9h-5.7V6.3h-7.4V2.2h20.5z"/><path id="XMLID_21_" class="st0" d="M139.7 26.2H121v-24h18.3v4.1h-12.5v5.5h11.3v4.1h-11.3v6.2h12.9z"/><path id="XMLID_18_" class="st0" d="M164.9 26.2h-6.6l-6.3-9.4h-2.7v9.4h-5.8v-24h10.8c3.1 0 5.5.4 6.9 1.1 1.5.8 2.2 2.1 2.2 3.9v4.2c0 1.5-.5 2.6-1.6 3.4-1 .8-2.3 1.3-3.9 1.5l7 9.9zm-7.1-15.9V8.6c0-.9-.3-1.5-.8-1.8-.5-.3-1.4-.5-2.7-.5h-4.9V13h4.9c1.4 0 2.3-.2 2.8-.5.4-.4.7-1.1.7-2.2z"/><path id="XMLID_17_" d="M229.2 36.1h-.8v2.2h-.5v-2.2h-.8v-.5h2.1z"/><path id="XMLID_16_" d="M232.3 38.3h-.4v-2.2l-.7 2.2h-.5l-.7-2.2v2.2h-.4v-2.7h.7l.6 2.1.7-2.1h.7z"/><g id="XMLID_3_"><path id="XMLID_14_" d="M184.5 25.8h-14.9V4.1h14.6v2.3h-11.3v7.1h10.2v2.3h-10.2v7.8h11.7v2.2z"/><path id="XMLID_12_" d="M191.8 25.8h-3V2.4h3v23.4z"/><path id="XMLID_9_" d="M200 6.9h-3V3.8h3v3.1zm0 18.9h-3V9.6h3v16.2z"/><path id="XMLID_7_" d="M215.4 25.8c-1.1.2-2.2.3-3.4.3-2 0-3.4-.4-4.2-1.1-.8-.7-1.2-2-1.2-4v-9.5H203v-2h3.6v-5h3v5h5.8v2h-5.8v9.7c0 1.2.2 1.9.7 2.3.4.4 1.3.6 2.7.6.4 0 1.2-.1 2.4-.3v2z"/><path id="XMLID_4_" d="M232 18.4h-10.9v2.4c0 1.1.4 1.9 1.2 2.4.8.5 2 .7 3.6.7 1.5 0 3.4-.3 5.4-.8v2.3c-2 .4-4 .7-5.8.7-4.9 0-7.4-1.6-7.4-4.9v-6.4c0-2 .6-3.4 1.7-4.2 1.1-.8 3-1.3 5.4-1.3 2.3 0 4 .4 5.1 1.2 1.1.8 1.6 2.2 1.6 4.3v3.6zm-3-2v-2.5c0-1-.3-1.7-.9-2-.6-.4-1.6-.6-3-.6-1.3 0-2.3.2-3 .5-.6.4-1 1-1 2v2.5h7.9z"/></g></g></svg>