<?xml version="1.0" encoding="UTF-8"?>
<!-- Generator: Adobe Illustrator 15.0.2, SVG Export Plug-In . SVG Version: 6.00 Build 0)  -->
<!DOCTYPE svg PUBLIC "-//W3C//DTD SVG 1.1//EN" "http://www.w3.org/Graphics/SVG/1.1/DTD/svg11.dtd">
<svg xmlns="http://www.w3.org/2000/svg" xmlns:xlink="http://www.w3.org/1999/xlink" version="1.1" id="Layer_1" x="0px" y="0px" width="512px" height="358.4px" viewBox="0 0 512 358.4" enable-background="new 0 0 512 358.4" xml:space="preserve">
<path d="M140.8,294.4V192h12.8v102.4H140.8z M166.4,192H204.8v102.4H166.4V192z M217.6,192H230.4v102.4H217.6V192z M243.2,294.4V192  H256v102.4H243.2z M268.8,192H294.4v102.4H268.8V192z M307.2,192H320v102.4h-12.8V192z M332.8,192h12.8v102.4h-12.8V192z M358.4,192  h12.8v102.4h-12.8V192z M121.725,123.394c2.476,0,3.713,1.219,3.713,3.663c0,3.031-3.644,6.762-10.943,11.193  c-7.294,4.432-14.351,6.644-21.169,6.644c-6.013,0-11.55-1.981-16.612-5.943c-5.062-3.963-7.594-9.737-7.594-17.319  c0-7.719,2.662-16.293,7.993-25.719c5.325-9.425,11.932-17.1,19.807-23.024C104.8,66.963,112.481,64,119.969,64  c4.456,0,8.019,1.325,10.688,3.975c2.669,2.65,4,5.75,4,9.307l-0.906,8.269c-0.6,1.675-1.894,3.112-3.869,4.307l-4.824,1.794  l-3.332-1.369c-0.938-0.912-1.406-2.144-1.406-3.688l1.057-4.719l0.994-5.169c0-2.325-0.781-3.493-2.338-3.493  c-4.769,0-10.112,2.6-16.037,7.787c-5.926,5.188-11,11.631-15.226,19.331c-4.225,7.694-6.337,14.481-6.337,20.375  c0,3.913,1.094,7.219,3.281,9.913c2.188,2.693,5.381,4.037,9.581,4.037l9.381-2.075c3.763-1.381,7.244-3.25,10.444-5.606  C118.35,124.588,120.557,123.394,121.725,123.394z M189.088,115.263c-2.27,7.756-6.588,14.294-12.95,19.612  c-6.362,5.312-12.719,7.975-19.069,7.975c-5.012,0-9.144-1.8-12.406-5.394c-3.256-3.594-4.887-8.013-4.887-13.25  c0-8.556,2.987-16.969,8.962-25.256c5.969-8.281,13.213-12.425,21.726-12.425c5.806,0,10.5,2.1,14.1,6.293  c3.594,4.188,5.388,9.188,5.388,14.988l-0.862,7.412V115.263z M162.45,99.325c-2.382,2.081-4.706,5.399-6.981,9.962  c-2.269,4.562-3.406,9.138-3.406,13.719c0,2.788,0.519,5.082,1.55,6.888c1.038,1.812,2.4,2.713,4.101,2.713  c4.212,0,8.594-2.463,13.137-7.394c4.544-4.926,6.812-10.457,6.812-16.588c0-3.443-0.737-6.281-2.212-8.513  c-1.481-2.231-3.544-3.344-6.188-3.344c-2.507,0-4.763,0.856-6.769,2.557H162.45z M233.981,122.513  c-3.125,5.906-6.744,10.606-10.862,14.087c-4.119,3.481-8.294,5.226-12.525,5.226c-2.506,0-5.037-1.338-7.594-4.019  c-2.557-2.676-3.831-6.794-3.831-12.351c0-3.925,0.912-9.856,2.737-17.794l2.381-14.925c1.301-2.774,3.332-4.162,6.094-4.162  c1.888,0,3.395,0.631,4.513,1.899l1.682,3.801l-2.112,9.931l-2.625,10.844l-1.406,8.969c0,4.362,0.899,6.544,2.706,6.544  c2.844,0,6.7-2.831,11.55-8.487c4.856-5.663,8.019-11.45,9.487-17.369l4-11.388c1.163-1.793,2.812-2.693,4.944-2.693  c3.469,0,5.199,1.95,5.199,5.856l-0.912,3.425c-2.119,5.963-3.182,12.675-3.182,20.144c0,8.744,1.469,13.976,4.4,15.694l1.438,2.094  c0,1.206-0.85,2.344-2.55,3.412l-4.919,1.6c-2.763,0-4.888-1.844-6.375-5.519C234.725,133.65,233.981,128.713,233.981,122.513z   M272.425,137.138l-1.688,10.524l-2.399,19.507c-0.388,3.175-1.163,5.381-2.312,6.606c-1.163,1.225-2.575,1.837-4.231,1.837  c-1.507,0-2.932-0.556-4.281-1.675c-1.351-1.119-2.025-2.362-2.025-3.731l1.231-9.356c4.862-19.862,7.531-40.469,7.981-61.824  v-1.013l0.388-8.925l2.199-3.926c1.213-1.137,2.926-1.706,5.138-1.706c3.726,0,5.601,2.769,5.601,8.307l-1.476,11.487l-0.6,3.425  c3.8-6.381,8.3-11.675,13.524-15.881c5.226-4.206,9.9-6.312,14.025-6.312c3.725,0,6.9,1.35,9.5,4.05  c2.625,2.693,3.925,6.088,3.925,10.175c0,10.9-4.149,20.812-12.45,29.731c-8.3,8.925-16.524,13.388-24.637,13.388  C276,141.825,273.525,140.263,272.425,137.138z M301.625,95.744c-4.075,0-9.375,4.05-15.888,12.149  c-6.513,8.106-9.763,14.469-9.763,19.101c0,1.193,0.575,2.256,1.726,3.188l4.05,1.406c4.237,0,9.125-3.4,14.625-10.188  c5.513-6.788,8.263-13.351,8.263-19.688l-0.95-4.569L301.625,95.744z M374.425,115.263c-2.263,7.756-6.575,14.294-12.95,19.612  c-6.35,5.312-12.712,7.975-19.062,7.975c-5.012,0-9.137-1.8-12.412-5.394c-3.25-3.594-4.875-8.013-4.875-13.25  c0-8.556,2.975-16.969,8.95-25.256c5.975-8.281,13.225-12.425,21.725-12.425c5.812,0,10.5,2.1,14.101,6.293  c3.6,4.188,5.399,9.188,5.399,14.988l-0.875,7.412V115.263z M347.8,99.325c-2.388,2.081-4.712,5.399-6.987,9.962  c-2.263,4.562-3.412,9.138-3.412,13.719c0,2.788,0.524,5.082,1.562,6.888c1.037,1.812,2.399,2.713,4.087,2.713  c4.226,0,8.601-2.463,13.15-7.394c4.537-4.926,6.8-10.457,6.8-16.588c0-3.443-0.725-6.281-2.2-8.513  c-1.487-2.231-3.55-3.344-6.2-3.344c-2.5,0-4.75,0.856-6.762,2.557H347.8z M426.025,133.682c-1.65-3.02-2.875-8.645-3.625-16.882  c-0.738-8.575-2.375-12.862-4.9-12.862c-2.4,0-6.55,4.5-12.45,13.494c-5.899,9-9.524,15.644-10.888,19.931l-1.675,3.2l-2.425,1.263  c-5.062,0-7.6-2.338-7.6-7.013l1.337-10.794c1.15-7.269,1.737-16.144,1.737-26.644c0-1.588,0.676-3.281,2.038-5.081  c1.35-1.794,2.774-2.694,4.3-2.694c1.925,0,3.388,0.488,4.412,1.457c1.025,0.969,1.538,3.55,1.538,7.743L395,117.312  c7.4-17.112,15.65-25.662,24.75-25.662c7.9,0,12.55,6.081,13.912,18.256c1.312,12.406,2.825,18.606,4.538,18.606l2.575-0.494  l2.824-0.594c1.575,0,2.351,0.956,2.351,2.862c0,1.731-1.075,3.569-3.226,5.525c-2.149,1.963-4.85,2.938-8.125,2.938  c-3.774,0-6.475-1.688-8.1-5.068H426.025z M51.2,0h409.6C489.075,0,512,22.925,512,51.2v256c0,28.274-22.925,51.2-51.2,51.2H51.2  C22.925,358.4,0,335.475,0,307.2v-256C0,22.925,22.925,0,51.2,0z M460.8,38.4H51.2c-7.069,0-12.8,5.731-12.8,12.8v256  c0,7.075,5.731,12.8,12.8,12.8h409.6c7.075,0,12.8-5.725,12.8-12.8v-256C473.6,44.131,467.875,38.4,460.8,38.4z" fill="#FF8F1F"/>
</svg>
